<svg xmlns="http://www.w3.org/2000/svg" viewBox="0 0 720 720"><rect rx="0%" ry="0%" width="100%" height="100%" fill="#f0f2f5ff"/><path d="M360 26.668l.012.996.07 2.98.2 4.95.382 6.875.625 8.761.926 10.583 1.27 12.328 1.667 13.992 2.102 15.558 2.574 17.016 3.074 18.36 3.594 19.574 4.133 20.656 4.676 21.598 5.218 22.394 5.75 23.035 6.274 23.528 6.765 23.859 7.227 24.035 7.649 24.055 8.019 23.914 8.34 23.62 8.598 23.18 8.789 22.59 8.902 21.864 8.941 21 8.899 20.015 8.765 18.91 8.543 17.7 8.239 16.39 7.832 14.993 7.336 13.523 6.754 11.988 6.074 10.403 5.312 8.773L548 617.79l3.54 5.453 2.542 3.785 1.477 2.125.347.489-.836-1.118-2.058-2.68-3.324-4.179-4.614-5.621-5.914-6.984-7.23-8.27-8.54-9.457-9.827-10.55-11.098-11.544-12.324-12.422-13.512-13.187-14.633-13.848-15.687-14.379-16.668-14.8-17.555-15.098-18.344-15.285-19.031-15.352-19.602-15.308-20.054-15.157-20.38-14.906-20.573-14.555-20.633-14.113-20.555-13.59-20.332-12.984-19.969-12.313-19.465-11.586-18.824-10.8-18.039-9.98-17.12-9.122-16.08-8.242-14.905-7.344-13.618-6.449-12.222-5.55-10.723-4.669-9.129-3.808-7.46-2.973-5.72-2.176-3.917-1.418-2.07-.719-.188-.062 1.715.527 3.62 1.055 5.528 1.516 7.406 1.91 9.262 2.234 11.063 2.485 12.812 2.664 14.48 2.773 16.07 2.816 17.567 2.797 18.95 2.707 20.222 2.567 21.363 2.367 22.371 2.125 23.239 1.84 23.957 1.512 24.52 1.16 24.925.789 25.172.398h25.25l25.172-.398 24.926-.79 24.52-1.16 23.956-1.511 23.238-1.84 22.372-2.125 21.363-2.367 20.223-2.567 18.949-2.707 17.566-2.797 16.07-2.816 14.48-2.773 12.813-2.664 11.063-2.485 9.262-2.234 7.406-1.91 5.527-1.516 3.621-1.055 1.715-.527-.187.062-2.07.72-3.919 1.417-5.718 2.176-7.461 2.973-9.13 3.808-10.722 4.668-12.222 5.551-13.618 6.45-14.906 7.343-16.078 8.242-17.121 9.121-18.04 9.98-18.823 10.801-19.465 11.586-19.969 12.313-20.332 12.984-20.555 13.59-20.633 14.113-20.574 14.555-20.379 14.906-20.054 15.157-19.602 15.308-19.031 15.352-18.344 15.285-17.555 15.098-16.668 14.8-15.687 14.38-14.633 13.847-13.512 13.187-12.324 12.422-11.097 11.543-9.829 10.551-8.539 9.457-7.23 8.27-5.914 6.984-4.613 5.621-3.325 4.18-2.058 2.68-.836 1.117.347-.489 1.477-2.125 2.543-3.785L172 617.79l4.469-7.125 5.312-8.773 6.074-10.403 6.754-11.988 7.336-13.523 7.832-14.993 8.239-16.39 8.543-17.7 8.765-18.91 8.899-20.015 8.941-21 8.902-21.864 8.79-22.59 8.597-23.18 8.34-23.62 8.02-23.914 7.648-24.055 7.226-24.035 6.766-23.86 6.274-23.527 5.75-23.035 5.218-22.394 4.676-21.598 4.133-20.656 3.594-19.575 3.074-18.359 2.574-17.016 2.102-15.558 1.668-13.992 1.27-12.329.925-10.582.625-8.761.383-6.875.199-4.95.07-2.98.012-.996" fill="none" stroke-width=".375" stroke-linecap="round" stroke-linejoin="round" stroke="#7e6fa2" stroke-opacity=".4" stroke-miterlimit="10"/><path d="M360 30.477l-.23.988-.165 2.96-.043 4.907.149 6.824.398 8.696.696 10.5 1.05 12.234 1.454 13.883 1.894 15.433 2.375 16.883 2.887 18.211 3.414 19.414 3.96 20.485 4.516 21.417 5.075 22.2 5.617 22.84 6.152 23.316 6.656 23.648 7.133 23.813 7.567 23.824 7.957 23.684 8.289 23.386 8.562 22.942 8.766 22.351 8.898 21.622 8.95 20.761 8.921 19.774 8.805 18.675 8.602 17.465 8.304 16.157 7.918 14.77 7.434 13.304 6.863 11.773 6.2 10.196 5.453 8.582 4.613 6.933 3.703 5.274 2.715 3.617 1.656 1.968.54.344-.634-1.25-1.851-2.797-3.106-4.289-4.39-5.715-5.692-7.062-6.996-8.332-8.3-9.508-9.594-10.582-10.856-11.562-12.086-12.426-13.27-13.18-14.394-13.816-15.453-14.34-16.43-14.742-17.324-15.028-18.121-15.199-18.812-15.25-19.391-15.2-19.848-15.03-20.183-14.766-20.387-14.406-20.457-13.95-20.387-13.413-20.176-12.801-19.828-12.121-19.332-11.383-18.703-10.594-17.937-9.762-17.032-8.898-16-8.012L111.891 284l-13.57-6.21-12.192-5.313-10.703-4.43-9.133-3.567-7.473-2.73-5.746-1.938-3.96-1.183-2.126-.48-.261.163 1.625.75 3.52 1.274 5.413 1.73 7.281 2.114 9.118 2.425 10.914 2.668 12.644 2.844 14.309 2.938 15.886 2.972 17.372 2.934 18.746 2.84 20.011 2.683 21.145 2.473 22.148 2.211 23.012 1.914 23.723 1.574 24.281 1.207 24.688.817 24.933.41h25.008l24.933-.41 24.688-.817 24.281-1.207 23.723-1.574 23.012-1.914 22.148-2.211 21.145-2.473 20.011-2.683 18.746-2.84 17.371-2.934 15.887-2.972 14.309-2.938 12.644-2.844 10.914-2.668 9.118-2.425 7.28-2.114 5.415-1.73 3.52-1.274 1.624-.75-.261-.164-2.125.48-3.961 1.185-5.746 1.937-7.473 2.73-9.133 3.567-10.703 4.43-12.191 5.312L608.11 284l-14.844 7.117-16 8.012-17.032 8.898-17.937 9.762-18.703 10.594-19.332 11.383-19.828 12.12-20.176 12.801-20.387 13.415-20.457 13.949-20.387 14.406-20.183 14.766-19.848 15.03-19.39 15.2-18.813 15.25-18.121 15.2-17.324 15.027-16.43 14.742-15.453 14.34-14.395 13.816-13.27 13.18-12.085 12.426-10.856 11.562-9.593 10.582-8.301 9.508-6.996 8.332-5.692 7.062-4.39 5.715-3.106 4.29-1.851 2.796-.633 1.25.539-.343 1.656-1.97 2.715-3.616 3.703-5.274 4.613-6.933 5.454-8.582 6.199-10.196 6.863-11.773 7.434-13.305 7.918-14.77 8.304-16.156 8.602-17.465 8.805-18.675 8.921-19.774 8.95-20.762 8.898-21.62 8.766-22.352 8.562-22.942 8.29-23.386 7.956-23.684 7.567-23.824 7.133-23.813 6.656-23.648 6.152-23.316 5.617-22.84 5.075-22.2 4.515-21.417 3.961-20.485 3.414-19.414 2.887-18.21 2.375-16.884 1.894-15.433 1.454-13.883 1.05-12.234.696-10.5.398-8.696.149-6.824-.043-4.906-.165-2.961-.23-.988" fill="none" stroke-width=".375" stroke-linecap="round" stroke-linejoin="round" stroke="#7672a3" stroke-opacity=".4" stroke-miterlimit="10" xmlns="http://www.w3.org/2000/svg"/><path d="M360 34.285l-.469.98-.406 2.938-.277 4.871-.086 6.774.164 8.625.469 10.418.832 12.136 1.238 13.774 1.687 15.312 2.18 16.746 2.691 18.063 3.239 19.254 3.789 20.316 4.36 21.235 4.925 22.011 5.484 22.637 6.032 23.113 6.546 23.43 7.04 23.59 7.488 23.601 7.89 23.454 8.239 23.148 8.523 22.707 8.746 22.11 8.895 21.382 8.957 20.52 8.949 19.535 8.844 18.433 8.656 17.23 8.371 15.93 8 14.544 7.535 13.086 6.973 11.562 6.328 9.988 5.586 8.383 4.766 6.746 3.863 5.098 2.887 3.445 1.84 1.813.73.199-.434-1.383-1.64-2.918-2.89-4.394-4.169-5.805-5.465-7.145-6.765-8.394-8.067-9.555-9.351-10.621-10.618-11.578-11.847-12.43-13.028-13.168-14.156-13.789-15.215-14.3-16.199-14.684-17.094-14.957-17.894-15.113-18.594-15.153-19.176-15.082-19.648-14.906-19.984-14.629-20.2-14.254-20.28-13.789-20.22-13.238-20.02-12.617-19.683-11.93-19.203-11.18-18.586-10.383-17.828-9.547-16.941-8.675-15.926-7.785-14.781-6.883-13.528-5.977-12.156-5.074-10.688-4.188-9.128-3.328-7.485-2.492-5.773-1.695-4.004-.95-2.188-.245-.336.39 1.54.977 3.421 1.492 5.297 1.941 7.153 2.317 8.98 2.62 10.758 2.856 12.48 3.016 14.133 3.105 15.703 3.125 17.176 3.078 18.547 2.97 19.797 2.8 20.93 2.574 21.925 2.301 22.781 1.988 23.493 1.633 24.047 1.254 24.449.848 24.687.425h24.774l24.687-.425 24.45-.848 24.046-1.254 23.493-1.633 22.78-1.988 21.927-2.3 20.93-2.575 19.796-2.8 18.547-2.97 17.176-3.078 15.703-3.125 14.133-3.105 12.48-3.016 10.758-2.855 8.98-2.621 7.153-2.317 5.297-1.941 3.422-1.492 1.539-.977-.336-.39-2.188.246-4.004.949-5.773 1.695-7.485 2.492-9.128 3.328-10.688 4.188-12.156 5.074-13.528 5.977-14.78 6.883-15.927 7.785-16.941 8.675-17.828 9.547-18.586 10.383-19.203 11.18-19.684 11.93-20.02 12.617-20.218 13.238-20.281 13.79-20.2 14.253-19.984 14.629-19.648 14.906-19.176 15.082-18.594 15.152-17.894 15.114-17.094 14.957-16.2 14.683-15.214 14.301-14.156 13.79-13.028 13.167-11.847 12.43-10.618 11.578-9.351 10.621-8.067 9.555-6.765 8.394-5.465 7.145-4.168 5.805-2.89 4.394-1.641 2.918-.434 1.383.73-.2 1.84-1.812 2.887-3.445 3.863-5.098 4.766-6.746 5.586-8.383 6.328-9.988 6.973-11.563 7.535-13.085 8-14.543 8.371-15.93 8.656-17.23 8.844-18.434 8.95-19.535 8.956-20.52 8.895-21.383 8.746-22.109 8.523-22.707 8.239-23.149 7.89-23.453 7.488-23.601 7.04-23.59 6.546-23.43 6.032-23.113 5.484-22.637 4.926-22.011 4.36-21.235 3.788-20.316 3.239-19.254 2.691-18.063 2.18-16.746 1.687-15.312 1.238-13.774.832-12.136.47-10.418.163-8.625-.086-6.774-.277-4.87-.406-2.938-.469-.98" fill="none" stroke-width=".375" stroke-linecap="round" stroke-linejoin="round" stroke="#7073a3" stroke-opacity=".4" stroke-miterlimit="10" xmlns="http://www.w3.org/2000/svg"/><path d="M360 38.094l-.71.976-.645 2.914-.516 4.832-.32 6.72-.067 8.558.246 10.336.61 12.043 1.023 13.66 1.484 15.191 1.977 16.61 2.504 17.914 3.055 19.097 3.625 20.14 4.199 21.056 4.777 21.82 5.352 22.441 5.91 22.903 6.441 23.215 6.942 23.37 7.406 23.372 7.828 23.222 8.188 22.918 8.488 22.465 8.723 21.871 8.886 21.14 8.973 20.282 8.969 19.293 8.886 18.2 8.707 16.995 8.446 15.7 8.082 14.316 7.633 12.867 7.086 11.348 6.449 9.785 5.722 8.184 4.918 6.554 4.024 4.922 3.058 3.281 2.024 1.653.922.05-.23-1.515-1.438-3.035-2.676-4.5-3.945-5.899-5.235-7.222-6.531-8.457-7.832-9.606-9.117-10.652-10.375-11.598-11.606-12.433-12.789-13.157-13.918-13.765-14.976-14.254-15.965-14.633-16.863-14.883-17.672-15.027-18.375-15.055-18.965-14.969-19.442-14.78-19.789-14.49-20.011-14.1-20.102-13.626-20.055-13.066-19.863-12.438-19.539-11.734-19.074-10.98-18.469-10.172-17.723-9.328-16.851-8.454-15.848-7.558-14.722-6.649-13.477-5.742-12.125-4.836-10.668-3.949-9.129-3.086-7.5-2.25-5.8-1.46-4.047-.712-2.247-.011-.406.62 1.45 1.2 3.32 1.71 5.183 2.153 7.024 2.52 8.84 2.816 10.605 3.043 12.32 3.191 13.957 3.274 15.516 3.277 16.984 3.219 18.34 3.098 19.59 2.918 20.711 2.675 21.703 2.391 22.55 2.063 23.259 1.695 23.812 1.297 24.211.875 24.45.445h24.53l24.45-.445 24.21-.875 23.813-1.297 23.258-1.695 22.55-2.063 21.704-2.39 20.71-2.676 19.59-2.918 18.34-3.098 16.985-3.219 15.516-3.277 13.957-3.274 12.32-3.19 10.605-3.044 8.84-2.816 7.024-2.52 5.183-2.152 3.32-1.711 1.45-1.2-.406-.62-2.246.011-4.047.711-5.801 1.461-7.5 2.25-9.13 3.086-10.667 3.95-12.125 4.835-13.477 5.742-14.722 6.649-15.848 7.558-16.851 8.454-17.723 9.328-18.469 10.172-19.074 10.98-19.54 11.734-19.862 12.438-20.055 13.066-20.102 13.625-20.011 14.102-19.79 14.488-19.44 14.781-18.966 14.97-18.375 15.054-17.672 15.027-16.863 14.883-15.965 14.633-14.976 14.254-13.918 13.765-12.79 13.157-11.605 12.433-10.375 11.598-9.117 10.652-7.832 9.606-6.531 8.457-5.235 7.222-3.945 5.899-2.676 4.5-1.437 3.035-.23 1.516.921-.051 2.024-1.653 3.058-3.28 4.024-4.923 4.918-6.554 5.722-8.184 6.45-9.785 7.085-11.348 7.633-12.867 8.082-14.316 8.446-15.7 8.707-16.996 8.886-18.199 8.97-19.293 8.972-20.281 8.886-21.14 8.723-21.872 8.488-22.465 8.188-22.918 7.828-23.222 7.406-23.371 6.942-23.371 6.441-23.215 5.91-22.903 5.352-22.441 4.777-21.82 4.2-21.055 3.624-20.14 3.055-19.098 2.504-17.914 1.977-16.61 1.484-15.191 1.023-13.66.61-12.043.246-10.336-.067-8.559-.32-6.719-.516-4.832-.644-2.914-.711-.976" fill="none" stroke-width=".75" stroke-linecap="round" stroke-linejoin="round" stroke="#6a75a3" stroke-miterlimit="10" xmlns="http://www.w3.org/2000/svg"/><path d="M360 41.906l-.95.965-.886 2.89-.75 4.798-.559 6.664-.296 8.492.02 10.254.39 11.945.808 13.555 1.278 15.066 1.777 16.473 2.316 17.765 2.875 18.938 3.454 19.973 4.043 20.875 4.632 21.629 5.215 22.238 5.785 22.695 6.336 23 6.848 23.152 7.328 23.145 7.758 22.988 8.137 22.684 8.457 22.226 8.703 21.633 8.879 20.899 8.98 20.039 8.996 19.058 8.922 17.961 8.766 16.762 8.511 15.469 8.168 14.093 7.727 12.641 7.2 11.137 6.573 9.578 5.864 7.988 5.066 6.367 4.184 4.743 3.23 3.113 2.203 1.496 1.117-.094-.03-1.648-1.227-3.156-2.461-4.606-3.723-5.992-5.008-7.297-6.3-8.523-7.598-9.653-8.875-10.687-10.137-11.617-11.367-12.438-12.547-13.144-13.68-13.739-14.738-14.215-15.73-14.574-16.637-14.816-17.445-14.942-18.157-14.953-18.754-14.855-19.234-14.656-19.594-14.348-19.824-13.95-19.926-13.464-19.886-12.895-19.711-12.25-19.395-11.543-18.941-10.777-18.348-9.965-17.621-9.11-16.762-8.23-15.77-7.332-14.66-6.418-13.43-5.504-12.089-4.597-10.656-3.707-9.125-2.848-7.512-2.012-5.832-1.218-4.09-.473-2.305.219-.48.851 1.367 1.422 3.215 1.93 5.07 2.363 6.895 2.723 8.7 3.015 10.456 3.227 12.152 3.367 13.786 3.438 15.332 3.433 16.785 3.36 18.14 3.226 19.38 3.031 20.495 2.782 21.477 2.48 22.324 2.137 23.024 1.754 23.574 1.343 23.973.907 24.21.46h24.29l24.21-.46 23.973-.907 23.574-1.343 23.024-1.754 22.324-2.137 21.477-2.48 20.496-2.782 19.379-3.03 18.14-3.227 16.785-3.36 15.332-3.433 13.786-3.438 12.152-3.367 10.457-3.227 8.7-3.015 6.894-2.723 5.07-2.363 3.215-1.93 1.367-1.422-.48-.851-2.305-.22-4.09.474-5.832 1.218-7.512 2.012-9.125 2.848-10.656 3.707-12.09 4.597-13.43 5.504-14.66 6.418-15.77 7.332-16.76 8.23-17.622 9.11-18.348 9.965-18.941 10.777-19.395 11.543-19.71 12.25-19.887 12.895-19.926 13.465-19.824 13.949-19.594 14.348-19.234 14.656-18.754 14.855-18.157 14.953-17.445 14.942-16.637 14.816-15.73 14.574-14.738 14.215-13.68 13.739-12.547 13.144-11.367 12.438-10.137 11.617-8.875 10.687-7.597 9.653-6.301 8.523-5.008 7.297-3.723 5.992-2.46 4.606-1.227 3.156-.031 1.648 1.117.094 2.203-1.496 3.23-3.113 4.184-4.743 5.066-6.367 5.864-7.988 6.574-9.578 7.199-11.137 7.727-12.64 8.168-14.094 8.511-15.469 8.766-16.762 8.922-17.96 8.996-19.06 8.98-20.038 8.88-20.899 8.702-21.633 8.457-22.226 8.137-22.684 7.758-22.988 7.328-23.145 6.848-23.152 6.336-23 5.785-22.695 5.215-22.238 4.632-21.63 4.043-20.874 3.454-19.973 2.875-18.938 2.316-17.765 1.777-16.473 1.278-15.066.808-13.555.39-11.945.02-10.254-.296-8.492-.56-6.664-.75-4.797-.886-2.89-.949-.966" fill="none" stroke-width=".375" stroke-linecap="round" stroke-linejoin="round" stroke="#6476a2" stroke-opacity=".4" stroke-miterlimit="10" xmlns="http://www.w3.org/2000/svg"/><path d="M360 45.715l-1.191.957-1.125 2.867-.989 4.758-.789 6.617-.531 8.422-.207 10.172.168 11.851.598 13.442 1.07 14.945 1.578 16.336 2.129 17.621 2.695 18.774 3.285 19.804 3.883 20.692 4.485 21.437 5.082 22.04 5.664 22.488 6.226 22.785 6.754 22.93 7.25 22.917 7.692 22.758 8.086 22.45 8.417 21.988 8.684 21.394 8.875 20.66 8.988 19.797 9.02 18.82 8.965 17.723 8.82 16.528 8.582 15.238 8.25 13.867 7.824 12.422 7.309 10.922 6.7 9.375 6 7.789 5.214 6.18 4.348 4.562 3.402 2.945 2.387 1.34 1.308-.238.168-1.781-1.02-3.274-2.241-4.715-3.5-6.082-4.782-7.379-6.07-8.586-7.36-9.703-8.64-10.722-9.899-11.633-11.125-12.442-12.304-13.132-13.442-13.715-14.503-14.172-15.497-14.516-16.406-14.746-17.219-14.855-17.937-14.856-18.54-14.742-19.03-14.527L326.16 394.3 306.523 380.5l-19.75-13.3-19.718-12.72-19.555-12.066-19.25-11.351-18.813-10.575-18.23-9.754-17.516-8.898-16.668-8.008-15.695-7.101-14.598-6.184-13.382-5.27-12.059-4.359-10.637-3.469-9.125-2.601-7.523-1.774-5.863-.98-4.133-.238-2.36.453-.554 1.078 1.277 1.648 3.117 2.149 4.953 2.574 6.77 2.926 8.559 3.21 10.3 3.415 11.989 3.543 13.609 3.601 15.148 3.586 16.594 3.504 17.938 3.36 19.168 3.144 20.277 2.887 21.254 2.566 22.094 2.211 22.793 1.816 23.34 1.387 23.73.938 23.973.472h24.046l23.973-.472 23.73-.938 23.34-1.387 22.793-1.816 22.094-2.21 21.254-2.567 20.277-2.887 19.168-3.145 17.938-3.359 16.594-3.504 15.148-3.586 13.61-3.601 11.988-3.543 10.3-3.414 8.56-3.211 6.769-2.926 4.953-2.574 3.117-2.149 1.277-1.648-.554-1.078-2.36-.453-4.133.238-5.863.98-7.523 1.774-9.125 2.601-10.637 3.47-12.059 4.358-13.382 5.27-14.598 6.184-15.695 7.101-16.668 8.008-17.516 8.898-18.23 9.754-18.813 10.575-19.25 11.351-19.555 12.066-19.718 12.72-19.75 13.3-19.637 13.8-19.399 14.212-19.03 14.527-18.54 14.742-17.937 14.856-17.22 14.855-16.405 14.746-15.497 14.516-14.503 14.172-13.442 13.715-12.304 13.132-11.125 12.442-9.899 11.633-8.64 10.722-7.36 9.703-6.07 8.586-4.781 7.38-3.5 6.081-2.243 4.715-1.02 3.274.169 1.78 1.308.24 2.387-1.34 3.402-2.946 4.348-4.563 5.215-6.18 6-7.788 6.7-9.375 7.308-10.922 7.824-12.422 8.25-13.867 8.582-15.239 8.82-16.527 8.965-17.722 9.02-18.82 8.988-19.798 8.875-20.66 8.684-21.394 8.418-21.989 8.085-22.449 7.692-22.758 7.25-22.918 6.754-22.93 6.226-22.784 5.664-22.489 5.082-22.039 4.485-21.437 3.883-20.692 3.285-19.804 2.695-18.774 2.129-17.621 1.578-16.336 1.07-14.945.598-13.442.168-11.851-.207-10.172-.531-8.422-.79-6.617-.988-4.758-1.125-2.867-1.191-.957" fill="none" stroke-width=".375" stroke-linecap="round" stroke-linejoin="round" stroke="#6078a2" stroke-opacity=".4" stroke-miterlimit="10" xmlns="http://www.w3.org/2000/svg"/><path d="M360 49.523l-1.434.95-1.363 2.847-1.226 4.72-1.024 6.562-.762 8.355-.433 10.09-.051 11.754.383 13.336.863 14.82 1.383 16.203 1.934 17.469 2.515 18.617 3.117 19.629 3.727 20.512 4.336 21.25 4.95 21.84 5.542 22.28 6.117 22.571 6.66 22.707 7.168 22.692 7.63 22.527 8.034 22.21 8.383 21.75 8.66 21.157 8.871 20.418 8.997 19.559 9.046 18.578 9.004 17.488 8.871 16.293 8.653 15.008 8.336 13.64 7.922 12.204 7.421 10.71 6.825 9.168 6.136 7.59 5.364 5.993 4.508 4.382 3.574 2.778 2.57 1.183 1.496-.383.371-1.914-.808-3.394-2.028-4.82-3.281-6.176-4.55-7.457-5.84-8.649-7.126-9.754-8.398-10.754-9.66-11.652-10.883-12.445-12.066-13.125-13.2-13.684-14.27-14.133-15.26-14.46-16.177-14.672-16.996-14.77-17.719-14.754-18.328-14.633-18.824-14.402-19.203-14.07-19.45-13.649-19.57-13.136-19.554-12.547-19.399-11.887-19.109-11.156-18.68-10.371-18.11-9.547-17.413-8.68-16.578-7.785-15.617-6.871-14.536-5.953-13.336-5.035-12.027-4.122-10.621-3.226-9.121-2.363-7.54-1.532-5.886-.742-4.18-.004-2.418.688-.624 1.308 1.187 1.871 3.016 2.368 4.84 2.785 6.64 3.133 8.418 3.402 10.148 3.598 11.829 3.722 13.433 3.766 14.961 3.742 16.399 3.645 17.738 3.488 18.957 3.262 20.059 2.988 21.03 2.656 21.868 2.285 22.559 1.875 23.101 1.434 23.496.969 23.727.488h23.812l23.727-.488 23.496-.97 23.101-1.433 22.56-1.875 21.866-2.285 21.031-2.656 20.06-2.988 18.956-3.262 17.738-3.488 16.399-3.645 14.96-3.742 13.434-3.766 11.828-3.722 10.149-3.598 8.418-3.402 6.64-3.133 4.84-2.785 3.016-2.368 1.188-1.87-.625-1.31-2.418-.687-4.18.004-5.887.742-7.539 1.532-9.121 2.363-10.621 3.226-12.027 4.122-13.336 5.035-14.536 5.953-15.617 6.87-16.578 7.786-17.414 8.68-18.11 9.547-18.679 10.37-19.11 11.157-19.398 11.887-19.555 12.547-19.57 13.136-19.449 13.649-19.203 14.07-18.824 14.402-18.329 14.633-17.718 14.754-16.996 14.77-16.176 14.671-15.262 14.461-14.27 14.133-13.199 13.684-12.066 13.125-10.883 12.445-9.66 11.653-8.398 10.753-7.125 9.754-5.84 8.649-4.551 7.457-3.281 6.176-2.028 4.82-.808 3.394.37 1.914 1.497.383 2.57-1.183 3.575-2.778 4.507-4.382 5.364-5.993 6.136-7.59 6.825-9.167 7.421-10.711 7.922-12.204 8.336-13.64 8.653-15.008 8.87-16.293 9.005-17.488 9.046-18.578 8.997-19.559 8.87-20.418 8.66-21.156 8.384-21.75 8.035-22.211 7.629-22.527 7.168-22.692 6.66-22.707 6.117-22.57 5.543-22.281 4.95-21.84 4.335-21.25 3.727-20.512 3.117-19.629 2.515-18.617 1.934-17.469 1.383-16.203.863-14.82.383-13.336-.05-11.754-.434-10.09-.762-8.355-1.024-6.563-1.226-4.719-1.363-2.847-1.434-.95" fill="none" stroke-width=".375" stroke-linecap="round" stroke-linejoin="round" stroke="#5b79a1" stroke-opacity=".4" stroke-miterlimit="10" xmlns="http://www.w3.org/2000/svg"/><path d="M360 53.332l-1.672.945-1.601 2.82-1.465 4.684L354 68.29l-.988 8.29-.66 10.007-.274 11.66.168 13.223.656 14.699 1.184 16.066 1.746 17.32 2.336 18.458 2.945 19.46 3.567 20.333 4.195 21.054 4.813 21.641 5.421 22.074 6.008 22.356 6.57 22.484 7.086 22.465 7.563 22.297 7.984 21.976 8.344 21.516 8.64 20.91 8.864 20.18 9.008 19.32 9.07 18.34 9.043 17.246 8.93 16.063 8.719 14.777 8.417 13.414 8.024 11.984 7.531 10.496 6.95 8.961 6.273 7.395 5.515 5.805 4.668 4.203 3.746 2.61 2.75 1.026 1.692-.527.57-2.047-.601-3.515-1.813-4.926-3.055-6.27-4.328-7.531-5.605-8.715-6.887-9.8-8.164-10.79-9.418-11.675-10.644-12.446-11.829-13.113-12.957-13.656-14.03-14.09-15.032-14.406-15.945-14.602-16.77-14.684-17.5-14.656-18.113-14.52-18.625-14.273-19.004-13.933-19.262-13.496-19.394-12.977-19.387-12.375-19.242-11.7-18.965-10.964-18.547-10.172-17.996-9.336-17.309-8.46-16.488-7.563-15.539-6.645-14.473-5.723-13.289-4.792-11.996-3.887-10.601-2.988-9.121-2.122-7.551-1.293-5.918-.503-4.223.238-2.476.918-.7 1.539 1.106 2.094 2.914 2.586 4.723 2.996 6.511 3.336 8.278 3.597 9.996 3.785 11.664 3.899 13.258 3.93 14.777 3.894 16.207 3.79 17.531 3.616 18.746 3.38 19.844 3.09 20.809 2.745 21.636 2.36 22.328 1.937 22.864 1.477 23.258 1 23.488.503h23.57l23.488-.503 23.258-1 22.864-1.477 22.328-1.937 21.636-2.36 20.809-2.746 19.844-3.09 18.746-3.379 17.531-3.617 16.207-3.789 14.777-3.894 13.258-3.93 11.664-3.899 9.996-3.785 8.278-3.597 6.511-3.336 4.723-2.996 2.914-2.586 1.106-2.094-.7-1.54-2.476-.917-4.223-.238-5.918.503-7.55 1.293-9.122 2.122-10.601 2.988-11.996 3.887-13.29 4.793-14.472 5.722-15.54 6.645-16.487 7.562-17.309 8.461-17.996 9.336-18.547 10.172-18.965 10.965-19.242 11.699-19.387 12.375-19.394 12.977-19.262 13.496-19.004 13.933-18.625 14.274-18.113 14.52-17.5 14.655-16.77 14.684-15.945 14.602-15.031 14.406-14.031 14.09-12.957 13.656-11.829 13.113-10.644 12.446-9.418 11.675-8.164 10.79-6.887 9.8-5.605 8.715-4.328 7.531-3.055 6.27-1.813 4.926-.601 3.515.57 2.047 1.691.527 2.75-1.027 3.747-2.61 4.668-4.202 5.515-5.805 6.274-7.395 6.949-8.96 7.531-10.497 8.024-11.984 8.417-13.414 8.72-14.777 8.929-16.063 9.043-17.246 9.07-18.34 9.008-19.32 8.863-20.18 8.64-20.91 8.345-21.516 7.984-21.976 7.563-22.297 7.086-22.465 6.57-22.484 6.008-22.356 5.421-22.074 4.813-21.64 4.195-21.055 3.567-20.332 2.945-19.461 2.336-18.457 1.746-17.32 1.184-16.067.656-14.7.168-13.222-.274-11.66-.66-10.008L366 68.29l-1.262-6.508-1.465-4.683-1.601-2.82-1.672-.946" fill="none" stroke-width=".75" stroke-linecap="round" stroke-linejoin="round" stroke="#587aa0" stroke-miterlimit="10" xmlns="http://www.w3.org/2000/svg"/><path d="M360 57.145l-1.914.933-1.84 2.8-1.703 4.645-1.496 6.454-1.219 8.222-.887 9.926-.492 11.563-.047 13.113.45 14.578.984 15.93 1.559 17.171 2.156 18.297 2.777 19.293 3.406 20.149 4.047 20.867 4.68 21.437 5.3 21.868 5.903 22.14 6.473 22.266 7.008 22.238 7.496 22.063 7.933 21.742 8.309 21.277 8.62 20.672 8.856 19.941 9.02 19.079 9.094 18.097 9.082 17.012 8.984 15.824 8.79 14.547 8.5 13.191 8.12 11.766 7.64 10.281 7.075 8.758 6.41 7.195 5.664 5.618 4.832 4.023 3.918 2.442 2.934.87 1.883-.671.77-2.18-.391-3.637-1.598-5.03-2.836-6.36-4.098-7.614-5.37-8.777-6.657-9.851-7.922-10.82-9.18-11.696-10.402-12.453-11.59-13.098-12.719-13.633-13.792-14.047-14.797-14.347-15.715-14.531-16.547-14.602-17.281-14.555-17.903-14.406-18.418-14.148-18.808-13.793-19.074-13.348-19.215-12.813-19.219-12.199-19.09-11.515-18.82-10.774-18.418-9.969-17.88-9.125-17.202-8.246-16.395-7.34-15.465-6.418-14.414-5.488-13.238-4.558-11.965-3.645-10.586-2.75-9.117-1.883-7.566-1.05-5.946-.266-4.261.473-2.54 1.152-.769 1.77 1.016 2.32 2.812 2.8 4.61 3.208 6.386 3.539 8.133 3.793 9.848 3.972 11.496 4.074 13.086 4.098 14.594 4.047 16.011 3.93 17.328 3.746 18.536 3.496 19.625 3.191 20.585 2.836 21.407 2.438 22.094 1.992 22.632 1.523 23.016 1.032 23.25.52h23.328l23.25-.52 23.016-1.032 22.632-1.523 22.094-1.992 21.406-2.438 20.586-2.836 19.625-3.191 18.536-3.496 17.328-3.746 16.011-3.93 14.594-4.047 13.086-4.098 11.496-4.074 9.848-3.972 8.133-3.793 6.386-3.54 4.61-3.207 2.812-2.8 1.016-2.32-.77-1.77-2.539-1.152-4.261-.473-5.946.265-7.566 1.051-9.117 1.883-10.586 2.75-11.965 3.645-13.238 4.558-14.414 5.488-15.465 6.418-16.395 7.34-17.203 8.246-17.879 9.125-18.418 9.97-18.82 10.773-19.09 11.515-19.219 12.2-19.215 12.812-19.074 13.348-18.808 13.793-18.418 14.148-17.903 14.406-17.28 14.555-16.548 14.601-15.715 14.532-14.797 14.347-13.793 14.047-12.718 13.633-11.59 13.098-10.402 12.453-9.18 11.695-7.922 10.82-6.656 9.852-5.371 8.777-4.098 7.614-2.836 6.36-1.598 5.03-.39 3.637.77 2.18 1.882.672 2.934-.871 3.918-2.442 4.832-4.023 5.664-5.618 6.41-7.195 7.074-8.758 7.64-10.28 8.122-11.767 8.5-13.19 8.789-14.548 8.984-15.824 9.082-17.012 9.094-18.097 9.02-19.079 8.855-19.94 8.621-20.673 8.309-21.277 7.933-21.742 7.496-22.063 7.008-22.238 6.473-22.266 5.902-22.14 5.301-21.868 4.68-21.437 4.047-20.867 3.406-20.149 2.777-19.293 2.156-18.297 1.56-17.171.983-15.93.45-14.578-.047-13.114-.492-11.562-.887-9.926-1.219-8.222-1.496-6.454-1.703-4.644-1.84-2.8-1.914-.934" fill="none" stroke-width=".375" stroke-linecap="round" stroke-linejoin="round" stroke="#567aa0" stroke-opacity=".4" stroke-miterlimit="10" xmlns="http://www.w3.org/2000/svg"/><path d="M360 60.953l-2.152.926-2.082 2.777-1.942 4.61-1.726 6.402-1.453 8.152-1.114 9.844-.71 11.469-.262 13.004.242 14.449.789 15.797 1.367 17.027 1.977 18.137 2.605 19.117 3.25 19.969 3.899 20.676 4.546 21.242 5.18 21.656 5.793 21.926 6.379 22.043 6.926 22.012 7.43 21.832 7.882 21.507 8.274 21.04L423.699 437l8.852 19.7 9.027 18.835 9.117 17.863 9.125 16.774 9.035 15.59 8.86 14.316 8.586 12.965 8.219 11.547 7.753 10.07 7.196 8.55 6.55 6.997 5.813 5.43 4.992 3.847 4.09 2.27 3.117.715 2.074-.82.97-2.31-.18-3.753-1.383-5.14-2.614-6.454-3.87-7.691-5.141-8.84-6.418-9.899-7.688-10.859-8.937-11.71-10.164-12.458-11.348-13.086-12.48-13.605-13.559-14.008-14.559-14.293-15.488-14.457-16.32-14.516-17.063-14.457-17.691-14.293-18.211-14.02-18.613-13.655-18.887-13.196-19.04-12.652-19.05-12.024-18.933-11.336-18.68-10.578-18.285-9.765-17.758-8.918-17.102-8.028-16.304-7.117-15.387-6.191-14.352-5.254-13.191-4.324-11.934-3.407-10.566-2.511-9.117-1.64-7.578-.813-5.973-.024-4.309.707-2.593 1.387-.848 1.996.93 2.547 2.71 3.02 4.497 3.417 6.257 3.743 7.997 3.992 9.691 4.156 11.332 4.246 12.91 4.266 14.41 4.203 15.817 4.07 17.129 3.875 18.324 3.613 19.406 3.297 20.363 2.922 21.18 2.512 21.86 2.055 22.394 1.566 22.777 1.063 23.012.53h23.086l23.012-.53 22.777-1.063 22.395-1.566 21.859-2.055 21.18-2.512 20.363-2.922 19.406-3.297 18.324-3.613 17.13-3.875 15.816-4.07 14.41-4.203 12.91-4.266 11.332-4.246 9.691-4.156 7.997-3.992 6.257-3.743 4.496-3.418 2.711-3.02.93-2.546-.848-1.996-2.593-1.387-4.309-.707-5.973.024-7.578.812-9.117 1.64-10.566 2.512-11.934 3.407-13.191 4.324-14.352 5.254-15.387 6.191-16.304 7.117-17.102 8.028-17.758 8.918-18.285 9.765-18.68 10.579-18.933 11.335-19.05 12.024-19.04 12.652-18.887 13.196L366.04 395.8l-18.21 14.02-17.692 14.292-17.063 14.457-16.32 14.516-15.488 14.457-14.559 14.293-13.559 14.008-12.48 13.605-11.348 13.086-10.164 12.457-8.937 11.711-7.688 10.86-6.418 9.898-5.14 8.84-3.871 7.691-2.614 6.453-1.383 5.14-.18 3.755.97 2.308 2.074.82 3.117-.714 4.09-2.27 4.992-3.847 5.812-5.43 6.551-6.996 7.196-8.55 7.753-10.071 8.22-11.547 8.585-12.965 8.86-14.316 9.035-15.59 9.125-16.774 9.117-17.863 9.027-18.836L296.301 437l8.601-20.434 8.274-21.039 7.883-21.507 7.43-21.832 6.925-22.012 6.379-22.043 5.793-21.926 5.18-21.656 4.546-21.242 3.899-20.676 3.25-19.969 2.605-19.117 1.977-18.137 1.367-17.027.79-15.797.241-14.45-.261-13.003-.711-11.469-1.114-9.844-1.453-8.152-1.726-6.402-1.942-4.61-2.082-2.777-2.152-.926" fill="none" stroke-width=".375" stroke-linecap="round" stroke-linejoin="round" stroke="#547aa0" stroke-opacity=".4" stroke-miterlimit="10" xmlns="http://www.w3.org/2000/svg"/><path d="M360 64.762l-2.395.922-2.32 2.754-2.176 4.566-1.964 6.351-1.684 8.086-1.34 9.762-.93 11.371-.476 12.895.035 14.328.59 15.66 1.176 16.879 1.796 17.976 2.438 18.95 3.094 19.785 3.754 20.488 4.41 21.04 5.058 21.448 5.684 21.711 6.285 21.825 6.848 21.785 7.363 21.601 7.832 21.27 8.238 20.8 8.579 20.196 8.847 19.457 9.035 18.598 9.145 17.62 9.16 16.54 9.094 15.355 8.926 14.086 8.671 12.738 8.313 11.329 7.867 9.855 7.32 8.344 6.688 6.8 5.965 5.239 5.152 3.672 4.262 2.101 3.297.559 2.265-.965 1.176-2.441.024-3.875-1.164-5.246-2.391-6.547-3.645-7.766-4.91-8.906-6.183-9.95-7.45-10.89-8.699-11.73-9.922-12.461-11.105-13.075-12.242-13.582-13.32-13.965-14.329-14.234-15.254-14.387-16.097-14.43-16.84-14.359-17.48-14.175-18.009-13.899-18.417-13.516-18.7-13.043-18.863-12.488-18.883-11.855-18.777-11.149-18.535-10.382-18.157-9.57-17.64-8.708-16.992-7.812-16.22-6.891-15.308-5.965-14.289-5.02-13.148-4.09-11.899-3.167-10.55-2.27-9.114-1.402-7.593-.57-6 .21-4.352.946-2.652 1.621-.918 2.227.84 2.77 2.613 3.237 4.379 3.63 6.129 3.945 7.855 4.187 9.54 4.344 11.171 4.422 12.734 4.43 14.223 4.355 15.625 4.215 16.922 4.004 18.117 3.73 19.188 3.399 20.14 3.011 20.95 2.586 21.628 2.113 22.157 1.618 22.539 1.09 22.773.546h22.844l22.773-.546 22.54-1.09 22.156-1.618 21.629-2.113 20.949-2.586 20.14-3.011 19.188-3.399 18.117-3.73 16.922-4.004 15.625-4.215 14.223-4.356 12.734-4.43 11.172-4.421 9.539-4.344 7.855-4.187 6.13-3.946 4.378-3.629 2.613-3.238.84-2.77-.918-2.226-2.652-1.621-4.352-.945-6-.211-7.593.57-9.114 1.402-10.55 2.27-11.899 3.168-13.148 4.09-14.29 5.02-15.308 5.964-16.219 6.89-16.992 7.813-17.64 8.707-18.157 9.57-18.535 10.383-18.777 11.149-18.883 11.855-18.863 12.488-18.7 13.043-18.418 13.516-18.007 13.899-17.48 14.175-16.84 14.36-16.098 14.43-15.254 14.386-14.328 14.234-13.32 13.965-12.243 13.582-11.105 13.075-9.922 12.46-8.7 11.731-7.449 10.89-6.183 9.95-4.91 8.906-3.645 7.766-2.39 6.547-1.165 5.246.024 3.875 1.176 2.441 2.265.965 3.297-.559 4.262-2.101 5.152-3.672 5.965-5.238 6.688-6.801 7.32-8.344 7.867-9.855 8.313-11.329 8.671-12.738 8.926-14.086 9.094-15.355 9.16-16.54 9.145-17.62 9.035-18.598 8.847-19.457 8.579-20.195 8.238-20.801 7.832-21.27 7.363-21.601 6.848-21.785 6.285-21.825 5.684-21.71 5.058-21.45 4.41-21.039 3.754-20.488 3.094-19.785 2.438-18.95 1.796-17.976 1.176-16.879.59-15.66.035-14.328-.476-12.895-.93-11.37-1.34-9.763-1.684-8.086-1.964-6.351-2.176-4.567-2.32-2.753-2.395-.922" fill="none" stroke-width=".375" stroke-linecap="round" stroke-linejoin="round" stroke="#517b9f" stroke-opacity=".4" stroke-miterlimit="10" xmlns="http://www.w3.org/2000/svg"/><path d="M360 68.57l-2.633.914-2.562 2.73-2.414 4.532-2.2 6.297-1.914 8.02-1.562 9.68-1.156 11.277-.688 12.785-.172 14.203.39 15.523.99 16.73 1.616 17.821 2.27 18.777 2.933 19.606 3.606 20.293 4.277 20.844 4.938 21.242 5.574 21.496 6.191 21.601 6.766 21.555 7.3 21.371 7.782 21.035 8.203 20.563 8.555 19.957 8.844 19.215 9.043 18.36 9.168 17.382 9.203 16.3 9.148 15.122 8.996 13.855 8.754 12.512 8.41 11.11 7.977 9.64 7.449 8.14 6.824 6.602 6.11 5.05 5.316 3.493 4.434 1.938 3.48.398 2.457-1.11 1.375-2.577.235-3.993-.95-5.351-2.172-6.637-3.414-7.848-4.68-8.968-5.945-9.996-7.21-10.926-8.462-11.75-9.68-12.465-10.866-13.066L467.93 488.3l-13.082-13.926-14.094-14.176-15.027-14.32-15.872-14.34-16.62-14.258-17.27-14.066-17.8-13.77-18.224-13.379-18.511-12.894-18.684-12.324-18.719-11.68-18.625-10.965-18.39-10.191-18.024-9.367-17.523-8.497-16.887-7.597-16.125-6.672-15.238-5.73-14.223-4.794-13.101-3.851-11.868-2.93-10.53-2.031-9.114-1.16-7.606-.332-6.03.453-4.395 1.183-2.711 1.852-.989 2.457.754 2.992 2.508 3.453 4.266 3.844 6 4.152 7.715 4.38 9.39 4.53 11.004 4.598 12.563 4.594 14.039 4.512 15.425 4.355 16.723 4.133 17.906 3.848 18.973 3.5 19.914 3.101 20.723 2.66 21.394 2.176 21.922 1.66 22.301 1.118 22.527.566h22.61l22.527-.566 22.3-1.118 21.923-1.66 21.394-2.176 20.723-2.66 19.914-3.101 18.973-3.5 17.906-3.848 16.722-4.133 15.426-4.355 14.04-4.512 12.562-4.594 11.004-4.597 9.39-4.532 7.715-4.378 6-4.153 4.266-3.844 2.508-3.453.754-2.992-.989-2.457-2.71-1.851-4.395-1.184-6.031-.453-7.606.332-9.113 1.16-10.531 2.031-11.868 2.93-13.101 3.851-14.223 4.793-15.238 5.73-16.125 6.673-16.887 7.597-17.523 8.497-18.024 9.367-18.39 10.191-18.625 10.965-18.72 11.68-18.683 12.324-18.511 12.894-18.223 13.38-17.8 13.769-17.27 14.066-16.621 14.258-15.872 14.34-15.027 14.32-14.094 14.176-13.082 13.926-12.004 13.55-10.867 13.067-9.68 12.465-8.46 11.75-7.211 10.926-5.946 9.996-4.68 8.968-3.413 7.848-2.172 6.637-.95 5.351.235 3.993 1.375 2.578 2.457 1.11 3.48-.4 4.434-1.937 5.316-3.492 6.11-5.05 6.824-6.602 7.45-8.141 7.976-9.64 8.41-11.11 8.754-12.512 8.996-13.855 9.148-15.121 9.203-16.301 9.168-17.383 9.043-18.36 8.844-19.214 8.555-19.957 8.203-20.563 7.781-21.035 7.301-21.37 6.766-21.556 6.191-21.601 5.574-21.496 4.938-21.242 4.277-20.844 3.606-20.293 2.933-19.606 2.27-18.777 1.617-17.82.988-16.73.39-15.524-.171-14.203-.688-12.785-1.156-11.278-1.562-9.68-1.914-8.019-2.2-6.297-2.414-4.531-2.562-2.73L360 68.57" fill="none" stroke-width=".75" stroke-linecap="round" stroke-linejoin="round" stroke="#517b9f" stroke-miterlimit="10" xmlns="http://www.w3.org/2000/svg"/><path d="M360 72.383l-2.875.902-2.8 2.711-2.653 4.492-2.434 6.246-2.144 7.95-1.79 9.597-1.374 11.18-.903 12.676-.375 14.082.188 15.39.8 16.582 1.438 17.657 2.098 18.605 2.777 19.426 3.457 20.105 4.145 20.641 4.812 21.035 5.473 21.281 6.094 21.38 6.687 21.331 7.234 21.137 7.73 20.8 8.165 20.329 8.54 19.715 8.831 18.976 9.059 18.118 9.191 17.14 9.242 16.063 9.2 14.89 9.066 13.625 8.836 12.29 8.512 10.882 8.09 9.434 7.57 7.93 6.96 6.406 6.262 4.863 5.477 3.313 4.605 1.769 3.664.242 2.649-1.254 1.574-2.71.442-4.114-.735-5.457-1.945-6.73-3.188-7.926-4.449-9.031-5.71-10.047-6.973-10.961-8.22-11.766-9.44-12.469-10.626-13.054-11.765-13.528-12.848-13.879-13.86-14.125-14.796-14.246-15.645-14.257-16.402-14.157-17.059-13.953-17.597-13.644-18.024-13.239-18.328-12.742-18.504-12.164-18.55-11.504-18.47-10.785-18.245-9.996-17.895-9.164-17.402-8.29-16.785-7.378-16.036-6.45-15.16-5.503-14.16-4.559-13.055-3.617-11.835-2.691-10.516-1.79-9.11-.921-7.617-.09-6.062.691-4.438 1.418-2.77 2.086-1.062 2.684.668 3.218 2.41 3.672 4.149 4.055 5.875 4.356 7.574 4.574 9.234 4.715 10.84 4.777 12.387 4.758 13.855 4.664 15.235 4.5 16.52 4.262 17.695 3.964 18.754 3.602 19.687 3.191 20.496 2.735 21.16 2.234 21.688 1.707 22.062 1.149 22.29.582h22.367l22.289-.582 22.062-1.149 21.688-1.707 21.16-2.234 20.496-2.735 19.687-3.191 18.754-3.602 17.696-3.964 16.52-4.262 15.234-4.5 13.855-4.664 12.387-4.758 10.84-4.777 9.234-4.715 7.574-4.575 5.875-4.355 4.149-4.055 2.41-3.672.668-3.218-1.063-2.684-2.77-2.086-4.437-1.418-6.062-.691-7.617.09-9.11.922-10.515 1.789-11.836 2.691-13.055 3.617-14.16 4.559-15.16 5.504-16.036 6.449-16.785 7.379-17.402 8.289-17.895 9.164-18.246 9.996-18.468 10.785-18.551 11.504-18.504 12.164-18.328 12.742-18.024 13.239-17.597 13.644-17.059 13.953-16.402 14.157-15.645 14.257-14.797 14.246-13.86 14.125-12.847 13.88-11.765 13.527-10.625 13.054-9.442 12.47-8.219 11.765-6.972 10.96-5.711 10.048-4.45 9.03-3.187 7.927-1.945 6.73-.735 5.457.442 4.113 1.574 2.711 2.649 1.254 3.664-.242 4.605-1.77 5.477-3.312 6.261-4.863 6.961-6.407 7.57-7.93 8.09-9.433 8.512-10.883 8.836-12.289 9.066-13.625 9.2-14.89 9.242-16.063 9.191-17.14 9.059-18.118 8.832-18.976 8.539-19.715 8.164-20.328 7.73-20.8 7.235-21.138 6.687-21.332 6.094-21.379 5.473-21.28 4.812-21.036 4.145-20.64 3.457-20.106 2.777-19.426 2.098-18.605 1.437-17.657.801-16.582.188-15.39-.375-14.082-.903-12.676-1.375-11.18-1.789-9.597-2.144-7.95-2.434-6.246-2.652-4.492-2.801-2.71-2.875-.903" fill="none" stroke-width=".375" stroke-linecap="round" stroke-linejoin="round" stroke="#4f7b9f" stroke-opacity=".4" stroke-miterlimit="10" xmlns="http://www.w3.org/2000/svg"/><path d="M360 76.191l-3.113.899-3.04 2.683-2.89 4.457-2.668 6.192-2.375 7.883-2.02 9.52-1.593 11.081-1.117 12.567-.582 13.957-.008 15.254.61 16.433 1.253 17.496 1.93 18.438 2.617 19.242 3.316 19.914 4.008 20.441 4.692 20.829 5.363 21.066 6 21.16 6.61 21.102 7.167 20.906 7.676 20.566 8.133 20.09 8.515 19.477 8.829 18.734 9.066 17.875 9.215 16.906 9.285 15.825 9.254 14.652 9.137 13.398 8.918 12.063 8.609 10.664 8.2 9.219 7.694 7.726 7.098 6.211 6.414 4.672 5.637 3.133 4.777 1.601 3.844.086 2.844-1.398 1.773-2.844.652-4.234-.52-5.563-1.726-6.824-2.957-8-4.215-9.098-5.476-10.097-6.734-10.992-7.98-11.786-9.2-12.472-10.387-13.043-11.527-13.5-12.61-13.84-13.625-14.066-14.566-14.176-15.422-14.172-16.183-14.059-16.844-13.84-17.395-13.515-17.828-13.102-18.14-12.59-18.325-12-18.386-11.336-18.313-10.597-18.105-9.805-17.762-8.96-17.285-8.079-16.68-7.164-15.945-6.227-15.082-5.277-14.102-4.324-13.004-3.383-11.8-2.453-10.504-1.55-9.106-.68-7.633.152-6.086.93-4.484 1.652-2.824 2.32-1.137 2.914.578 3.442 2.309 3.89 4.035 4.266 5.746 4.558 7.434 4.77 9.082 4.902 10.68 4.954 12.21 4.921 13.668 4.82 15.043 4.641 16.313 4.39 17.484 4.083 18.54 3.703 19.464 3.281 20.27 2.809 20.925 2.297 21.45 1.75 21.824 1.18 22.05.593h22.125l22.051-.594 21.825-1.18 21.449-1.75 20.925-2.296 20.27-2.809 19.465-3.28 18.539-3.704 17.484-4.082 16.313-4.39 15.043-4.641 13.668-4.82 12.21-4.923 10.68-4.953 9.082-4.902 7.434-4.77 5.746-4.558 4.035-4.266 2.309-3.89.578-3.442-1.137-2.914-2.824-2.32-4.484-1.652-6.086-.93-7.633-.152-9.106.68-10.503 1.55-11.801 2.453-13.004 3.383-14.102 4.324-15.082 5.277-15.945 6.227-16.68 7.164-17.285 8.078-17.762 8.961-18.105 9.805-18.313 10.598-18.386 11.335-18.325 12-18.14 12.59-17.828 13.102-17.395 13.515-16.844 13.84-16.183 14.059-15.422 14.172-14.566 14.176-13.625 14.066-12.61 13.84-11.527 13.5-10.387 13.043-9.2 12.472-7.98 11.786-6.734 10.992-5.476 10.097-4.215 9.098-2.957 8-1.727 6.824-.52 5.563.653 4.234 1.773 2.844 2.844 1.398 3.844-.086 4.777-1.601 5.637-3.133 6.414-4.672 7.098-6.21 7.695-7.727 8.2-9.22 8.608-10.663 8.918-12.063 9.137-13.398 9.254-14.652 9.285-15.825 9.215-16.906 9.067-17.875 8.828-18.734 8.515-19.477 8.133-20.09 7.676-20.566 7.168-20.906 6.61-21.102 6-21.16 5.362-21.066 4.692-20.829 4.008-20.441 3.316-19.914 2.617-19.242 1.93-18.438 1.254-17.496.61-16.433-.009-15.254-.582-13.957-1.117-12.567-1.594-11.082-2.02-9.52-2.374-7.882-2.668-6.192-2.89-4.457-3.04-2.683L360 76.19" fill="none" stroke-width=".375" stroke-linecap="round" stroke-linejoin="round" stroke="#4d7c9e" stroke-opacity=".4" stroke-miterlimit="10" xmlns="http://www.w3.org/2000/svg"/><path d="M360 80l-3.355.89-3.278 2.665-3.129 4.418-2.902 6.136-2.606 7.817-2.242 9.437-1.816 10.985-1.332 12.457-.79 13.836-.206 15.117.418 16.285 1.078 17.34 1.762 18.265 2.457 19.063 3.168 19.723 3.875 20.242 4.57 20.617 5.254 20.852 5.906 20.937 6.527 20.879 7.106 20.676 7.625 20.328 8.094 19.851 8.496 19.235 8.824 18.496 9.074 17.637 9.242 16.664 9.32 15.59 9.313 14.417 9.203 13.168 9.004 11.836 8.707 10.446 8.309 9.004 7.82 7.523 7.238 6.012 6.559 4.484 5.797 2.953 4.953 1.434 4.027-.07 3.035-1.543 1.973-2.977.86-4.352-.301-5.671-1.504-6.914-2.735-8.083-3.98-9.16-5.242-10.144-6.496-11.028-7.739-11.808-8.96-12.473-10.145-13.031-11.29-13.473-12.37-13.8-13.39-14.008-14.34-14.106-15.196-14.086-15.965-13.96-16.633-13.727-17.187-13.39-17.63-12.962-17.956-12.441-18.149-11.836-18.218-11.16-18.157-10.414-17.96-9.614-17.63-8.761-17.171-7.868-16.574-6.945-15.852-6.004-15.008-5.05-14.039-4.094-12.957-3.145-11.77-2.215-10.484-1.308-9.105-.442-7.645.391-6.117 1.168-4.523 1.89-2.887 2.555-1.211 3.145.496 3.664 2.203 4.11 3.922 4.476 5.617 4.762 7.293 4.968 8.93 5.086 10.515 5.13 12.036 5.089 13.484 4.973 14.848 4.78 16.113 4.52 17.273 4.196 18.32 3.812 19.243 3.367 20.039 2.883 20.695 2.356 21.215 1.797 21.582 1.21 21.813.61h21.882l21.813-.61 21.582-1.21 21.215-1.797 20.695-2.356 20.04-2.883 19.241-3.367 18.32-3.812 17.274-4.196 16.113-4.52 14.848-4.78 13.484-4.973 12.036-5.09 10.515-5.129 8.93-5.086 7.293-4.969 5.617-4.761 3.922-4.477 2.203-4.11.496-3.663-1.21-3.145-2.888-2.554-4.523-1.891-6.117-1.168-7.645-.39-9.105.44-10.485 1.31-11.77 2.214-12.956 3.145-14.04 4.093-15.007 5.051-15.852 6.004-16.574 6.945-17.172 7.868-17.629 8.761-17.96 9.614-18.157 10.414-18.218 11.16-18.149 11.836-17.957 12.441-17.629 12.961-17.187 13.39-16.633 13.727-15.965 13.961-15.195 14.086-14.34 14.106-13.39 14.007-12.372 13.801-11.289 13.473-10.144 13.031-8.961 12.473-7.739 11.808-6.496 11.028-5.242 10.144-3.98 9.16-2.735 8.082-1.504 6.915-.3 5.671.859 4.352 1.973 2.977 3.035 1.543 4.027.07 4.953-1.434 5.797-2.953 6.559-4.484 7.238-6.012 7.82-7.523 8.309-9.004 8.707-10.446 9.004-11.836 9.203-13.168 9.312-14.418 9.32-15.59 9.243-16.663 9.074-17.637 8.824-18.496 8.496-19.235 8.094-19.851 7.625-20.328 7.106-20.676 6.527-20.879 5.906-20.937 5.254-20.852 4.57-20.617 3.875-20.242 3.168-19.723 2.457-19.063 1.762-18.265 1.078-17.34.418-16.285-.207-15.117-.789-13.836-1.332-12.457-1.816-10.985-2.242-9.437-2.606-7.817-2.902-6.136-3.13-4.418-3.277-2.664L360 80" fill="none" stroke-width=".375" stroke-linecap="round" stroke-linejoin="round" stroke="#507b9f" stroke-opacity=".4" stroke-miterlimit="10" xmlns="http://www.w3.org/2000/svg"/><path d="M360 83.809l-3.594.882-3.52 2.641-3.366 4.379-3.137 6.09-2.836 7.746-2.469 9.355-2.035 10.891-1.547 12.344-.996 13.715-.406 14.98.23 16.137.899 17.18 1.59 18.093 2.3 18.883 3.02 19.531 3.742 20.043 4.45 20.414 5.144 20.637 5.812 20.715 6.45 20.648 7.035 20.446 7.578 20.097 8.058 19.61 8.473 18.996 8.82 18.258 9.082 17.394 9.266 16.426 9.363 15.351 9.364 14.184 9.273 12.934 9.09 11.613 8.8 10.226 8.426 8.79 7.946 7.316 7.37 5.816 6.712 4.297 5.957 2.774 5.125 1.265 4.21-.226 3.223-1.692 2.176-3.105 1.07-4.473-.086-5.777-1.28-7.008-2.509-8.16-3.75-9.223-5.003-10.195-6.258-11.063-7.5-11.824-8.723-12.476-9.902-13.02-11.051-13.45-12.133-13.757-13.16-13.953-14.106-14.031-14.972-14-15.746-13.864-16.418-13.613-16.985-13.266-17.433-12.82-17.77-12.289-17.972-11.676-18.051-10.984-18-10.234-17.817-9.418-17.5-8.559-17.05-7.66-16.473-6.73-15.762-5.778-14.93-4.824-13.976-3.86-12.91-2.91-11.738-1.976-10.47-1.07-9.1-.196-7.66.629-6.145 1.406-4.567 2.13-2.945 2.784-1.281 3.371.406 3.891 2.105 4.328 3.805 4.688 5.488 4.968 7.157 5.16 8.777 5.274 10.348 5.305 11.863 5.254 13.3 5.125 14.653 4.925 15.91 4.649 17.063 4.312 18.101 3.914 19.02 3.457 19.808 2.957 20.465 2.418 20.977 1.84 21.347 1.242 21.57.625h21.641l21.57-.625 21.348-1.242 20.977-1.84 20.465-2.418 19.808-2.957 19.02-3.457 18.101-3.914 17.063-4.312 15.91-4.649 14.652-4.925 13.301-5.125 11.863-5.254 10.348-5.305 8.777-5.273 7.157-5.16 5.488-4.97 3.805-4.687 2.105-4.328.406-3.89-1.28-3.372-2.946-2.785-4.567-2.129-6.144-1.406-7.66-.629-9.102.195-10.469 1.07-11.738 1.977-12.91 2.91-13.977 3.86-14.93 4.824-15.761 5.777-16.473 6.73-17.05 7.661-17.5 8.559-17.817 9.418-18 10.234-18.05 10.984-17.973 11.676-17.77 12.29-17.433 12.82-16.985 13.265-16.418 13.613-15.746 13.864-14.973 14-14.105 14.03-13.16 13.954-12.133 13.758-11.05 13.45-9.903 13.019-8.723 12.476-7.5 11.824-6.258 11.063-5.003 10.195-3.75 9.223-2.508 8.16-1.281 7.008-.086 5.777 1.07 4.473 2.176 3.105 3.222 1.692 4.211.226 5.125-1.265 5.957-2.774 6.711-4.297 7.371-5.816 7.946-7.317 8.425-8.789 8.801-10.226 9.09-11.613 9.273-12.934 9.364-14.184 9.363-15.351 9.266-16.426 9.082-17.394 8.82-18.258 8.473-18.996 8.058-19.61 7.578-20.097 7.036-20.446 6.449-20.648 5.812-20.715 5.145-20.637 4.449-20.414 3.742-20.043 3.02-19.531 2.3-18.883 1.59-18.094.899-17.18.23-16.136-.406-14.98-.996-13.715-1.547-12.344-2.035-10.89-2.469-9.356-2.836-7.746-3.137-6.09-3.367-4.379-3.52-2.64-3.593-.883" fill="none" stroke-width=".75" stroke-linecap="round" stroke-linejoin="round" stroke="#4c7c9e" stroke-miterlimit="10" xmlns="http://www.w3.org/2000/svg"/><path d="M360 87.617l-3.836.875-3.758 2.621-3.601 4.34-3.371 6.035-3.07 7.68-2.696 9.273-2.258 10.793-1.758 12.239-1.203 13.59-.601 14.843.039 15.992.718 17.016 1.418 17.926 2.145 18.7 2.875 19.343 3.605 19.844 4.329 20.203 5.039 20.422 5.718 20.492 6.364 20.426 6.972 20.21 7.528 19.864 8.023 19.37 8.453 18.759 8.813 18.015 9.09 17.157 9.293 16.183 9.402 15.117 9.418 13.95 9.344 12.703 9.171 11.386 8.899 10.008 8.535 8.578 8.07 7.11 7.512 5.617 6.86 4.11 6.117 2.597 5.297 1.094 4.39-.383 3.418-1.836 2.375-3.238 1.277-4.594.133-5.883-1.062-7.101-2.278-8.239-3.52-9.285-4.769-10.242-6.02-11.098-7.26-11.844-8.477-12.48-9.664-13.012-10.813-13.418-11.898-13.715-12.922-13.898-13.88-13.96-14.745-13.919-15.528-13.762-16.207-13.5-16.777-13.136-17.238-12.684-17.582-12.137-17.793-11.515-17.887-10.813-17.844-10.047-17.676-9.226-17.367-8.356-16.933-7.449-16.368-6.515-15.667-5.555-14.856-4.594-13.914-3.629-12.863-2.676-11.707-1.738-10.45-.828-9.101.043-7.672.867-6.172 1.649-4.613 2.363-3.004 3.02-1.352 3.6.317 4.114 2.004 4.547 3.691 4.899 5.363 5.171 7.012 5.356 8.625 5.46 10.188 5.481 11.687 5.418 13.113 5.281 14.457 5.067 15.707 4.781 16.856 4.426 17.883 4.016 18.797 3.546 19.582 3.036 20.23 2.472 20.738 1.887 21.11 1.273 21.328.641h21.406l21.328-.64 21.11-1.274 20.738-1.887 20.23-2.472 19.582-3.036 18.797-3.546 17.883-4.016 16.856-4.426 15.707-4.781 14.457-5.067 13.113-5.28 11.687-5.419 10.188-5.48 8.625-5.461 7.012-5.356 5.363-5.171 3.691-4.899 2.004-4.547.317-4.113-1.352-3.602-3.004-3.02-4.613-2.362-6.172-1.649-7.672-.867-9.101-.043-10.45.828-11.707 1.738-12.863 2.676-13.914 3.63-14.856 4.593-15.667 5.555-16.368 6.515-16.933 7.45-17.367 8.355-17.676 9.226-17.844 10.047-17.887 10.813-17.793 11.515-17.582 12.137-17.238 12.684-16.777 13.136-16.207 13.5-15.528 13.762-14.746 13.918-13.879 13.961-12.922 13.898-11.898 13.715-10.813 13.418-9.664 13.012-8.476 12.48-7.262 11.844-6.02 11.098-4.769 10.242-3.52 9.285-2.277 8.239-1.062 7.101.133 5.883 1.277 4.594 2.375 3.238 3.418 1.836 4.39.383 5.297-1.094 6.118-2.598 6.859-4.11 7.512-5.616 8.07-7.11 8.535-8.578 8.899-10.008 9.171-11.386 9.344-12.703 9.418-13.95 9.402-15.117 9.293-16.183 9.09-17.157 8.813-18.015 8.453-18.758 8.023-19.371 7.528-19.864 6.972-20.21 6.364-20.426 5.718-20.492 5.04-20.422 4.328-20.203 3.605-19.844 2.875-19.344 2.145-18.7 1.418-17.925.718-17.016.04-15.992-.602-14.844-1.203-13.59-1.758-12.238-2.258-10.793-2.695-9.273-3.07-7.68-3.372-6.035-3.601-4.34-3.758-2.62-3.836-.876" fill="none" stroke-width=".375" stroke-linecap="round" stroke-linejoin="round" stroke="#3f7e9b" stroke-opacity=".4" stroke-miterlimit="10" xmlns="http://www.w3.org/2000/svg"/><path d="M360 91.43l-4.078.867-3.996 2.594-3.84 4.304-3.606 5.98-3.3 7.614-2.922 9.191-2.477 10.7-1.972 12.125-1.41 13.468-.801 14.707-.149 15.844.535 16.86 1.254 17.754 1.985 18.519 2.726 19.148 3.473 19.645 4.207 19.996 4.93 20.207 5.625 20.274 6.285 20.195 6.906 19.984 7.477 19.625 7.984 19.137 8.434 18.516 8.804 17.773 9.106 16.918 9.312 15.945 9.442 14.875 9.476 13.72 9.41 12.472 9.254 11.16 9 9.789 8.645 8.363 8.195 6.906 7.649 5.418 7.007 3.918 6.282 2.422 5.468.926 4.575-.539 3.609-1.98 2.578-3.372 1.484-4.714.344-5.989-.836-7.191-2.05-8.317-3.286-9.351-4.535-10.293-5.781-11.129-7.024-11.863-8.238-12.488-9.426-12.997-10.566-13.394L459.504 452l-12.692-13.84-13.648-13.89-14.52-13.832-15.308-13.66-15.996-13.387-16.574-13.016-17.04-12.543-17.394-11.988-17.617-11.348-17.719-10.64-17.691-9.864-17.528-9.035-17.238-8.156-16.816-7.238-16.258-6.297-15.582-5.336-14.778-4.364-13.851-3.398-12.816-2.438-11.676-1.5-10.434-.59-9.098.286-7.687 1.11-6.2 1.882-4.656 2.602-3.058 3.253-1.43 3.832.23 4.336 1.903 4.766 3.578 5.11 5.235 5.374 6.87 5.551 8.473 5.645 10.024 5.656 11.511 5.586 12.93 5.433 14.266 5.211 15.504 4.91 16.644 4.544 17.664 4.117 18.574 3.636 19.352 3.11 19.996 2.535 20.508 1.93 20.867 1.304 21.09.653h21.164l21.09-.653 20.867-1.304 20.508-1.93 19.996-2.535 19.352-3.11 18.574-3.636 17.664-4.117 16.644-4.543 15.504-4.91 14.266-5.212 12.93-5.433 11.511-5.586 10.024-5.656 8.472-5.645 6.871-5.55 5.235-5.376 3.578-5.109 1.902-4.766.23-4.336-1.429-3.832-3.058-3.253-4.657-2.602-6.199-1.883-7.687-1.11-9.098-.284-10.434.59-11.676 1.5-12.816 2.437-13.851 3.398-14.778 4.364-15.582 5.336-16.258 6.296-16.816 7.239-17.238 8.156-17.528 9.035-17.691 9.863-17.719 10.641-17.617 11.348-17.395 11.988-17.039 12.543-16.574 13.016-15.996 13.386-15.309 13.66-14.52 13.833-13.647 13.89L260.495 452l-11.664 13.672-10.566 13.394-9.426 12.997-8.238 12.488-7.024 11.863-5.781 11.129-4.535 10.293-3.285 9.351-2.051 8.317-.836 7.191.344 5.989 1.484 4.714 2.578 3.372 3.61 1.98 4.574.54 5.468-.927 6.282-2.422 7.007-3.918 7.649-5.418 8.195-6.906 8.645-8.363 9-9.79 9.254-11.16 9.41-12.472 9.476-13.719 9.442-14.875 9.312-15.945 9.106-16.918 8.804-17.773 8.434-18.516 7.984-19.137 7.477-19.625 6.906-19.984 6.285-20.195 5.625-20.274 4.93-20.207 4.207-19.996 3.473-19.645 2.726-19.148 1.985-18.52 1.254-17.753.535-16.86-.149-15.844-.8-14.707-1.41-13.468-1.973-12.125-2.477-10.7-2.922-9.19-3.3-7.614-3.606-5.98-3.84-4.305-3.996-2.594L360 91.43" fill="none" stroke-width=".375" stroke-linecap="round" stroke-linejoin="round" stroke="#208292" stroke-opacity=".4" stroke-miterlimit="10" xmlns="http://www.w3.org/2000/svg"/><path d="M360 95.238l-4.316.86-4.239 2.574-4.078 4.266-3.84 5.925-3.53 7.547-3.145 9.11-2.7 10.601-2.187 12.02-1.617 13.343-1 14.575-.34 15.691.36 16.7 1.081 17.581 1.824 18.34 2.582 18.961 3.336 19.441 4.09 19.79 4.82 19.992 5.532 20.05 6.207 19.973 6.84 19.75 7.422 19.39 7.953 18.9 8.41 18.277 8.8 17.535 9.114 16.672 9.34 15.707 9.48 14.64 9.528 13.485 9.484 12.242 9.336 10.933 9.098 9.57 8.757 8.15 8.317 6.698 7.785 5.223 7.16 3.73 6.441 2.243 5.641.757 4.758-.695 3.8-2.125 2.778-3.504 1.695-4.832.559-6.097-.613-7.286-1.825-8.394-3.054-9.414-4.301-10.34L506 512.629l-6.781-11.883-7.996-12.492-9.188-12.984-10.328-13.368-11.426-13.632-12.457-13.782-13.418-13.82-14.297-13.746-15.09-13.563-15.78-13.273-16.372-12.887-16.844-12.406-17.207-11.836-17.441-11.187-17.55-10.465-17.536-9.684-17.387-8.84-17.105-7.953-16.695-7.031-16.157-6.078-15.492-5.114-14.7-4.136-13.792-3.164-12.77-2.203-11.64-1.258-10.414-.352-9.098.524-7.7 1.347-6.23 2.125-4.699 2.84-3.117 3.485-1.5 4.062.144 4.559 1.801 4.984 3.461 5.32 5.106 5.578 6.734 5.747 8.316 5.832 9.86 5.832 11.34 5.75 12.746 5.59 14.066 5.351 15.305 5.039 16.43 4.66 17.453 4.223 18.347 3.723 19.125 3.183 19.762 2.594 20.27 1.976 20.628 1.332 20.852.672h20.922l20.851-.672 20.63-1.332 20.269-1.976 19.762-2.594 19.125-3.183 18.347-3.723 17.453-4.223 16.43-4.66 15.305-5.039 14.066-5.352 12.746-5.59 11.34-5.75 9.86-5.831 8.316-5.832 6.734-5.747 5.106-5.578 3.46-5.32 1.802-4.984.144-4.559-1.5-4.063-3.117-3.484-4.7-2.84-6.23-2.125-7.7-1.347-9.097-.524-10.414.352-11.64 1.258-12.77 2.203-13.793 3.164-14.7 4.136-15.491 5.114-16.157 6.078-16.695 7.031-17.105 7.953-17.387 8.84-17.535 9.684-17.551 10.465-17.441 11.187-17.207 11.836-16.844 12.406-16.371 12.887-15.782 13.273-15.09 13.563-14.296 13.746-13.418 13.82-12.457 13.782-11.426 13.632-10.328 13.368-9.188 12.984-7.996 12.492L214 512.63l-5.543 11.164-4.3 10.34-3.055 9.414-1.825 8.394-.613 7.286.559 6.097 1.695 4.832 2.777 3.504 3.801 2.125 4.758.695 5.64-.757 6.442-2.243 7.16-3.73 7.785-5.223 8.317-6.699 8.757-8.148 9.098-9.57 9.336-10.934 9.484-12.242 9.528-13.485 9.48-14.64 9.34-15.707 9.113-16.672 8.801-17.535 8.41-18.278 7.953-18.898 7.422-19.39 6.84-19.75 6.207-19.974 5.531-20.05 4.82-19.993 4.09-19.789 3.337-19.441 2.582-18.96 1.824-18.34 1.082-17.583.36-16.699-.34-15.691-1-14.575-1.618-13.343-2.187-12.02-2.7-10.601-3.144-9.11-3.531-7.547-3.84-5.925-4.078-4.266-4.239-2.574-4.316-.86" fill="none" stroke-width=".375" stroke-linecap="round" stroke-linejoin="round" stroke="#388560" stroke-opacity=".4" stroke-miterlimit="10" xmlns="http://www.w3.org/2000/svg"/><path d="M360 99.047l-4.559.851-4.476 2.551-4.313 4.23-4.078 5.876-3.758 7.476-3.375 9.028-2.918 10.507-2.402 11.907-1.824 13.222-1.2 14.438-.527 15.543.18 16.543.91 17.41 1.668 18.156 2.434 18.77 3.203 19.246 3.969 19.582 4.71 19.773 5.438 19.832 6.125 19.742 6.777 19.52 7.371 19.156 7.915 18.66 8.39 18.04 8.797 17.292 9.121 16.434 9.367 15.469 9.52 14.402 9.582 13.246 9.55 12.016 9.423 10.71 9.195 9.345 8.867 7.94 8.445 6.493 7.922 5.024 7.309 3.543 6.601 2.062 5.813.594 4.937-.856 3.993-2.27 2.98-3.636 1.902-4.953.778-6.203-.395-7.38-1.594-8.472-2.824-9.476-4.062-10.39-5.309-11.2-6.539-11.899-7.758-12.496-8.945-12.972-10.09-13.34-11.187-13.594-12.223-13.726-13.191-13.75-14.07-13.66-14.872-13.462-15.57-13.16-16.164-12.761-16.649-12.266-17.02-11.684-17.26-11.027-17.388-10.293-17.379-9.496-17.242-8.649-16.976-7.75-16.578-6.82-16.051-5.863-15.399-4.89-14.625-3.91-13.73-2.93-12.723-1.965-11.61-1.024-10.398-.113-9.093.765-7.715 1.59-6.254 2.364-4.742 3.074-3.18 3.719-1.574 4.289.058 4.785 1.7 5.203 3.347 5.535 4.98 5.777 6.59 5.946 8.169 6.015 9.695 6.008 11.16 5.918 12.563 5.742 13.875 5.493 15.097 5.167 16.223 4.778 17.234 4.324 18.125 3.813 18.895 3.257 19.531 2.657 20.031 2.023 20.395 1.36 20.61.687h20.679l20.61-.688 20.394-1.359 20.031-2.023 19.531-2.657 18.895-3.257 18.125-3.813 17.234-4.324 16.223-4.778 15.097-5.168 13.875-5.492 12.563-5.742 11.16-5.918 9.695-6.008 8.168-6.015 6.59-5.946 4.98-5.777 3.348-5.535 1.7-5.203.058-4.785-1.574-4.29-3.18-3.718-4.742-3.074-6.254-2.364-7.715-1.59-9.093-.765-10.399.113-11.61 1.024-12.722 1.964-13.73 2.93-14.625 3.91-15.399 4.89-16.05 5.864-16.579 6.82-16.976 7.75-17.242 8.649-17.38 9.496-17.386 10.293-17.262 11.027-17.02 11.684-16.648 12.266-16.164 12.761-15.57 13.16-14.871 13.461-14.07 13.66-13.192 13.75-12.223 13.727-11.187 13.594-10.09 13.34-8.945 12.972-7.758 12.496-6.54 11.899-5.308 11.2-4.062 10.39-2.824 9.476-1.594 8.473-.395 7.379.778 6.203 1.902 4.953 2.98 3.637 3.993 2.27 4.937.855 5.813-.594 6.601-2.062 7.309-3.543 7.922-5.024 8.445-6.492 8.867-7.941 9.195-9.344 9.422-10.711 9.551-12.016 9.582-13.246 9.52-14.402 9.367-15.469 9.121-16.434 8.797-17.293 8.39-18.039 7.915-18.66 7.37-19.156 6.778-19.52 6.125-19.742 5.437-19.832 4.711-19.773 3.97-19.582 3.202-19.246 2.434-18.77 1.668-18.156.91-17.41.18-16.543-.528-15.543-1.199-14.438-1.824-13.222-2.402-11.907-2.918-10.507-3.375-9.028-3.758-7.476-4.078-5.875-4.313-4.23-4.476-2.552-4.559-.851" fill="none" stroke-width=".75" stroke-linecap="round" stroke-linejoin="round" stroke="#4a8355" stroke-miterlimit="10" xmlns="http://www.w3.org/2000/svg"/><path d="M360 102.855l-4.797.848-4.715 2.527-4.554 4.188-4.309 5.824-3.992 7.41-3.602 8.946-3.136 10.41-2.618 11.797-2.03 13.101-1.395 14.301-.72 15.398-.003 16.38.746 17.242 1.508 17.976 2.289 18.578 3.066 19.043 3.848 19.375 4.601 19.563 5.344 19.61 6.047 19.515 6.707 19.285 7.324 18.922 7.88 18.422 8.37 17.8 8.79 17.051 9.128 16.195 9.391 15.227 9.559 14.168 9.64 13.012 9.617 11.785 9.508 10.484 9.293 9.125 8.977 7.727 8.57 6.289 8.059 4.824 7.457 3.356 6.765 1.882 5.985.426 5.12-1.012 4.184-2.414 3.18-3.773 2.113-5.07.992-6.309-.171-7.469-1.371-8.55-2.59-9.543-3.828-10.438-5.067-11.234-6.3-11.918-7.52-12.5-8.703-12.961-9.852-13.317-10.953-13.546-11.988-13.672-12.957-13.68-13.848-13.574-14.652-13.364-15.356-13.046-15.96-12.633-16.454-12.13-16.832-11.534-17.086-10.86-17.219-10.12-17.222-9.313-17.098-8.457-16.848-7.547-16.46-6.613-15.946-5.645-15.308-4.668-14.547-3.68-13.668-2.699-12.676-1.73-11.578-.786-10.379.13-9.094 1.003-7.726 1.832-6.285 2.602-4.786 3.308-3.238 3.954-1.644 4.52-.032 5.01 1.602 5.419 3.23 5.746 4.852 5.984 6.45 6.137 8.015 6.203 9.531 6.184 10.988 6.082 12.375 5.894 13.684 5.637 14.894 5.297 16.012 4.894 17.016 4.426 17.902 3.903 18.664 3.332 19.3 2.714 19.798 2.07 20.152 1.391 20.367.704h20.446l20.367-.704 20.152-1.39 19.797-2.07 19.3-2.715 18.665-3.332 17.902-3.903 17.016-4.426 16.012-4.894 14.894-5.297 13.684-5.637 12.375-5.894 10.988-6.082 9.531-6.184 8.016-6.203 6.45-6.137 4.85-5.984 3.231-5.746 1.602-5.418-.032-5.012-1.644-4.52-3.238-3.952-4.786-3.31-6.285-2.6-7.726-1.833-9.094-1.004-10.379-.128-11.578.785-12.676 1.73-13.668 2.7-14.547 3.679-15.308 4.668-15.946 5.645-16.46 6.613-16.848 7.547-17.098 8.457-17.222 9.312-17.22 10.121-17.085 10.86-16.832 11.535-16.453 12.129-15.961 12.633-15.356 13.046-14.652 13.364-13.848 13.574-12.957 13.68-11.988 13.671-10.953 13.547-9.852 13.317-8.703 12.96-7.52 12.5-6.3 11.919-5.067 11.234-3.828 10.438-2.59 9.543-1.37 8.55-.173 7.47.993 6.308 2.113 5.07 3.18 3.773 4.183 2.414 5.121 1.012 5.985-.426 6.765-1.882 7.457-3.356 8.059-4.824 8.57-6.29 8.977-7.726 9.293-9.125 9.508-10.484 9.617-11.785 9.64-13.012 9.559-14.168 9.39-15.226 9.13-16.196 8.789-17.05 8.37-17.801 7.88-18.422 7.324-18.922 6.707-19.285 6.047-19.516 5.344-19.61 4.601-19.562 3.848-19.375 3.066-19.043 2.29-18.578 1.507-17.976.746-17.243-.004-16.379-.719-15.398-1.394-14.3-2.031-13.102-2.618-11.797-3.136-10.41-3.602-8.946-3.992-7.41-4.309-5.824-4.554-4.188-4.715-2.527-4.797-.848" fill="none" stroke-width=".375" stroke-linecap="round" stroke-linejoin="round" stroke="#4c8353" stroke-opacity=".4" stroke-miterlimit="10" xmlns="http://www.w3.org/2000/svg"/><path d="M360 106.668l-5.04.836-4.952 2.504-4.793 4.152-4.543 5.77-4.223 7.343-3.828 8.864-3.36 10.316-2.827 11.688-2.239 12.976-1.593 14.164-.907 15.25-.183 16.219.574 17.074 1.351 17.793 2.141 18.387 2.934 18.848 3.722 19.164 4.5 19.347 5.246 19.387 5.965 19.29 6.645 19.058 7.273 18.683 7.844 18.184 8.348 17.558 8.785 16.813 9.14 15.957 9.415 14.988 9.597 13.93 9.692 12.777 9.691 11.555 9.59 10.258 9.387 8.906 9.093 7.512 8.692 6.082 8.199 4.629 7.605 3.168 6.926 1.703 6.156.258 5.305-1.168 4.375-2.563 3.379-3.902 2.32-5.192 1.207-6.414.051-7.562-1.14-8.63-2.36-9.605-3.59-10.488-4.832-11.265-6.058-11.942-7.278-12.5-8.464-12.953-9.614-13.285-10.715-13.508-11.754-13.613-12.73-13.61-13.621-13.488-14.434-13.266-15.144-12.933-15.754-12.508-16.258-11.988-16.644-11.383-16.907-10.7-17.054-9.945-17.067-9.132-16.957-8.262-16.715-7.348-16.34-6.402-15.843-5.43-15.219-4.441-14.469-3.453-13.605-2.47-12.63-1.491-11.546-.547-10.363.367-9.09 1.246-7.738 2.07-6.317 2.84-4.828 3.547-3.293 4.188-1.719 4.75-.12 5.234 1.5 5.637 3.116 5.957 4.723 6.187 6.313 6.332 7.859 6.391 9.367 6.36 10.817 6.245 12.187 6.051 13.488 5.778 14.696 5.425 15.8 5.012 16.797 4.527 17.68 3.993 18.437 3.406 19.067 2.777 19.558 2.113 19.915 1.422 20.128.715h20.204l20.128-.715 19.915-1.422 19.558-2.113 19.067-2.777 18.437-3.406 17.68-3.993 16.797-4.527 15.8-5.012 14.696-5.425 13.488-5.778 12.187-6.05 10.817-6.247 9.367-6.359 7.86-6.39 6.312-6.333 4.723-6.187 3.117-5.957 1.5-5.637-.121-5.234-1.72-4.75-3.292-4.188-4.828-3.547-6.317-2.84-7.738-2.07-9.09-1.246-10.363-.367-11.547.547-12.629 1.492-13.605 2.469-14.469 3.453-15.219 4.441-15.843 5.43-16.34 6.402-16.715 7.348-16.957 8.262-17.067 9.132-17.054 9.946-16.907 10.699-16.644 11.383-16.258 11.988-15.754 12.508-15.144 12.933-14.434 13.266-13.621 13.488-12.73 13.61-11.754 13.613-10.715 13.508-9.613 13.285-8.465 12.953-7.278 12.5-6.058 11.942-4.832 11.265-3.59 10.488-2.36 9.606-1.14 8.629.05 7.562 1.208 6.414 2.32 5.192 3.379 3.902 4.375 2.563 5.305 1.168 6.156-.258 6.926-1.703 7.605-3.168 8.2-4.63 8.69-6.081 9.094-7.512 9.387-8.906 9.59-10.258 9.691-11.555 9.692-12.777 9.597-13.93 9.415-14.988 9.14-15.957 8.785-16.813 8.348-17.558 7.844-18.184 7.273-18.683 6.645-19.059 5.965-19.289 5.246-19.387 4.5-19.347 3.722-19.164 2.934-18.848 2.14-18.387 1.352-17.793.574-17.074-.183-16.219-.907-15.25-1.593-14.164-2.239-12.976-2.828-11.688-3.36-10.316-3.827-8.864-4.223-7.343-4.543-5.77-4.793-4.152-4.953-2.504-5.039-.836" fill="none" stroke-width=".375" stroke-linecap="round" stroke-linejoin="round" stroke="#4a8354" stroke-opacity=".4" stroke-miterlimit="10" xmlns="http://www.w3.org/2000/svg"/><path d="M360 110.477l-5.277.828-5.196 2.48-5.027 4.117-4.781 5.72-4.453 7.273-4.051 8.78-3.582 10.22-3.043 11.578-2.442 12.855-1.796 14.027-1.098 15.102-.36 16.063.403 16.898 1.195 17.613 1.992 18.2 2.801 18.644 3.602 18.957 4.39 19.133 5.153 19.168 5.886 19.062 6.579 18.825 7.222 18.449 7.805 17.949 8.328 17.316 8.777 16.575 9.153 15.71 9.437 14.75 9.64 13.692 9.747 12.547 9.758 11.32 9.672 10.035 9.488 8.688 9.203 7.3 8.816 5.876 8.336 4.43 7.758 2.98 7.086 1.523 6.328.09 5.485-1.324 4.57-2.707 3.578-4.035 2.531-5.309 1.422-6.523.274-7.657-.914-8.707-2.125-9.668-3.36-10.539-4.59-11.3-5.824-11.958-7.035-12.503-8.223-12.942-9.375-13.262-10.476-13.464-11.524-13.559-12.496-13.535-13.398-13.403-14.215-13.164-14.934-12.824-15.547-12.379-16.062-11.851-16.457-11.23-16.73-10.54-16.887-9.773-16.91-8.946-16.813-8.066-16.582-7.148-16.227-6.192-15.738-5.215-15.125-4.222-14.394-3.223-13.543-2.234-12.582-1.258-11.512-.309-10.348.61-9.09 1.484-7.753 2.313-6.344 3.078-4.871 3.785-3.352 4.418-1.793 4.976-.203 5.461 1.395 5.856 3.003 6.168 4.594 6.39 6.172 6.528 7.711 6.578 9.203 6.535 10.637 6.41 12.008 6.203 13.293 5.918 14.492 5.559 15.59 5.129 16.578 4.632 17.457 4.079 18.207 3.48 18.832 2.836 19.324 2.16 19.676 1.453 19.89.73h19.961l19.891-.73 19.676-1.453 19.324-2.16 18.832-2.836 18.207-3.48 17.457-4.079 16.578-4.632 15.59-5.13 14.492-5.558 13.293-5.918 12.008-6.203 10.637-6.41 9.203-6.535 7.71-6.578 6.173-6.528 4.594-6.39 3.003-6.168 1.395-5.856-.203-5.46-1.793-4.977-3.352-4.418-4.87-3.785-6.345-3.079-7.753-2.312-9.09-1.484-10.348-.61-11.512.309-12.582 1.258-13.543 2.234-14.394 3.223-15.125 4.222-15.738 5.215-16.227 6.192-16.582 7.148-16.813 8.066-16.91 8.946-16.886 9.773-16.73 10.54-16.458 11.23-16.062 11.851-15.547 12.38-14.934 12.823-14.215 13.164-13.398 13.403-12.496 13.535-11.524 13.559-10.476 13.464-9.375 13.262-8.223 12.942-7.035 12.503-5.824 11.957-4.59 11.301-3.36 10.54-2.125 9.667-.914 8.707.274 7.657 1.422 6.523 2.531 5.309 3.578 4.035 4.57 2.707 5.485 1.324 6.328-.09 7.086-1.523 7.758-2.98 8.336-4.43 8.816-5.875 9.203-7.301 9.488-8.688 9.672-10.035 9.758-11.32 9.746-12.547 9.64-13.691 9.438-14.75 9.153-15.711 8.777-16.575 8.328-17.316 7.805-17.95 7.222-18.448 6.579-18.825 5.886-19.062 5.153-19.168 4.39-19.133 3.602-18.957 2.8-18.645 1.993-18.199 1.195-17.613.402-16.898-.359-16.063-1.098-15.102-1.796-14.027-2.442-12.855-3.043-11.578-3.582-10.22-4.05-8.78-4.454-7.274-4.781-5.719-5.027-4.117-5.196-2.48-5.277-.828" fill="none" stroke-width=".375" stroke-linecap="round" stroke-linejoin="round" stroke="#4d8353" stroke-opacity=".4" stroke-miterlimit="10" xmlns="http://www.w3.org/2000/svg"/><path d="M360 114.285l-5.52.82-5.433 2.461-5.266 4.079-5.015 5.664-4.684 7.207-4.277 8.699-3.801 10.125-3.258 11.469-2.648 12.73-1.993 13.89-1.289 14.958-.539 15.898.235 16.73 1.035 17.434 1.848 18.004 2.664 18.445 3.48 18.75 4.281 18.918 5.059 18.946 5.808 18.836 6.512 18.593 7.168 18.215 7.774 17.711 8.304 17.078 8.774 16.332 9.16 15.473 9.465 14.512 9.676 13.453 9.804 12.312 9.828 11.09 9.754 9.809 9.586 8.469 9.313 7.085 8.945 5.668 8.469 4.235 7.906 2.793 7.25 1.347 6.5-.082 5.668-1.484 4.762-2.848 3.777-4.168 2.738-5.43 1.64-6.628.497-7.746-.687-8.785-1.895-9.735-3.121-10.586-4.356-11.336-5.582-11.976-6.793-12.508-7.984-12.93-9.137-13.234-10.238-13.426-11.289-13.5-12.27-13.465-13.171-13.32-13.997-13.063-14.718-12.71-15.348-12.254-15.863-11.711-16.27-11.082-16.554-10.375-16.72-9.598-16.757-8.762-16.668-7.875-16.45-6.945-16.105-5.984-15.636-4.997-15.036-4-14.316-2.996-13.484-2-12.532-1.023-11.48-.07-10.332.847-9.086 1.727-7.766 2.55-6.37 3.32-4.919 4.02-3.41 4.653-1.863 5.207-.293 5.683 1.297 6.075 2.887 6.379 4.468 6.593 6.028 6.723 7.558 6.762 9.04 6.715 10.464 6.574 11.82 6.36 13.098 6.058 14.29 5.687 15.378 5.242 16.363 4.739 17.235 4.168 17.98 3.554 18.598 2.899 19.086 2.203 19.441 1.484 19.649.746h19.718l19.649-.746 19.441-1.484 19.086-2.203 18.598-2.899 17.98-3.554 17.235-4.168 16.363-4.739 15.379-5.242 14.289-5.687 13.098-6.059 11.82-6.36 10.465-6.573 9.039-6.715 7.558-6.762 6.028-6.723 4.468-6.593 2.887-6.38 1.297-6.074-.293-5.683-1.863-5.207-3.41-4.653-4.918-4.02-6.371-3.32-7.766-2.55-9.086-1.727-10.332-.847-11.48.07-12.532 1.023-13.484 2-14.317 2.996-15.035 4-15.636 4.997-16.106 5.984-16.45 6.945-16.667 7.875-16.758 8.762-16.719 9.598-16.554 10.375-16.27 11.082-15.863 11.71-15.348 12.255-14.719 12.71-13.996 13.063-13.171 13.32-12.27 13.465-11.29 13.5-10.237 13.426-9.137 13.234-7.984 12.93-6.793 12.508-5.582 11.976-4.356 11.336-3.121 10.586-1.895 9.735-.687 8.785.496 7.746 1.64 6.629 2.739 5.43 3.777 4.167 4.762 2.848 5.668 1.484 6.5.082 7.25-1.347 7.906-2.793 8.469-4.235 8.945-5.668 9.313-7.085 9.586-8.47 9.754-9.808 9.828-11.09 9.804-12.312 9.676-13.453 9.465-14.512 9.16-15.473 8.774-16.332 8.304-17.078 7.774-17.71 7.168-18.216 6.512-18.593 5.808-18.836 5.059-18.946 4.28-18.918 3.481-18.75 2.664-18.445 1.848-18.004 1.035-17.433.235-16.73-.54-15.9-1.288-14.956-1.993-13.89-2.648-12.731-3.258-11.47-3.8-10.124-4.278-8.7-4.684-7.206-5.015-5.664-5.266-4.079-5.433-2.46-5.52-.82" fill="none" stroke-width=".75" stroke-linecap="round" stroke-linejoin="round" stroke="#4c8353" stroke-miterlimit="10" xmlns="http://www.w3.org/2000/svg"/><path d="M360 118.094l-5.758.816-5.676 2.434-5.5 4.043-5.25 5.61-4.918 7.14-4.503 8.617-4.02 10.027-3.473 11.36-2.855 12.605-2.192 13.762-1.476 14.804-.723 15.743.067 16.558.875 17.25 1.703 17.817 2.531 18.246 3.36 18.543 4.171 18.699 4.965 18.727 5.727 18.609 6.449 18.36 7.117 17.98 7.734 17.472 8.29 16.84 8.765 16.09 9.168 15.234 9.488 14.274 9.72 13.215 9.855 12.078 9.898 10.86 9.84 9.581 9.683 8.25 9.426 6.871 9.067 5.465 8.61 4.04 8.054 2.597 7.41 1.172 6.672-.25 5.851-1.64 4.95-2.993 3.984-4.3 2.945-5.552 1.856-6.734.715-7.84-.457-8.863-1.665-9.797-2.886-10.637-4.114-11.367-5.343-11.996-6.555-12.512-7.742-12.918-8.899-13.207-10.003-13.386-11.051-13.442-12.043-13.394-12.946-13.235-13.777-12.965-14.508-12.593-15.14-12.13-15.668-11.573-16.082-10.93-16.375-10.211-16.555-9.426-16.602-8.582-16.523-7.68-16.32-6.746-15.989-5.773-15.53-4.777-14.946-3.778-14.238-2.77-13.422-1.769-12.485-.785-11.449.168-10.312 1.09-9.086 1.965-7.782 2.793-6.398 3.554-4.961 4.258-3.465 4.887-1.941 5.437-.38 5.907 1.196 6.293 2.774 6.59 4.34 6.796 5.89 6.922 7.402 6.945 8.875 6.891 10.29 6.742 11.636 6.512 12.906 6.2 14.086 5.816 15.168 5.359 16.149 4.84 17.008 4.258 17.75 3.632 18.367 2.954 18.851 2.25 19.2 1.515 19.41.762h19.476l19.41-.762 19.2-1.515 18.851-2.25 18.367-2.954 17.75-3.632 17.008-4.258 16.149-4.84 15.168-5.36 14.086-5.816 12.906-6.199 11.637-6.512 10.289-6.742 8.875-6.89 7.402-6.946 5.89-6.922 4.34-6.797 2.774-6.59 1.195-6.292-.379-5.907-1.941-5.437-3.465-4.887-4.96-4.258-6.4-3.554-7.78-2.793-9.087-1.965-10.312-1.09-11.45-.168-12.484.785-13.422 1.77-14.238 2.77-14.945 3.777-15.531 4.777-15.989 5.773-16.32 6.746-16.523 7.68-16.602 8.582-16.555 9.426-16.375 10.21-16.082 10.93-15.668 11.575-15.14 12.129-14.508 12.593-13.777 12.965-12.946 13.235-12.043 13.394-11.05 13.442-10.004 13.386-8.899 13.207-7.742 12.918-6.555 12.512-5.343 11.996-4.114 11.367-2.886 10.637-1.665 9.797-.457 8.863.715 7.84 1.856 6.734 2.945 5.551 3.984 4.301 4.95 2.992 5.851 1.64 6.672.25 7.41-1.171 8.055-2.598 8.61-4.039 9.066-5.465 9.425-6.87 9.684-8.25 9.84-9.583 9.898-10.86 9.856-12.077 9.719-13.215 9.488-14.274 9.168-15.234 8.765-16.09 8.29-16.84 7.734-17.472 7.117-17.98 6.45-18.36 5.726-18.61 4.965-18.726 4.172-18.7 3.359-18.542 2.531-18.246 1.703-17.817.875-17.25.067-16.558-.723-15.743-1.476-14.804-2.192-13.762-2.855-12.605-3.473-11.36-4.02-10.027-4.503-8.617-4.918-7.14-5.25-5.61-5.5-4.043-5.676-2.434-5.758-.816" fill="none" stroke-width=".375" stroke-linecap="round" stroke-linejoin="round" stroke="#4d8352" stroke-opacity=".4" stroke-miterlimit="10" xmlns="http://www.w3.org/2000/svg"/><path d="M360 121.906l-6 .805-5.914 2.414-5.738 4-5.485 5.559-5.144 7.074-4.73 8.535-4.243 9.934-3.683 11.25-3.067 12.48-2.39 13.625-1.665 14.656-.902 15.582-.105 16.387.718 17.07 1.555 17.625 2.398 18.047 3.239 18.336 4.066 18.488 4.871 18.5 5.645 18.383 6.379 18.133 7.07 17.742 7.7 17.235 8.265 16.601 8.762 15.852 9.175 14.992 9.516 14.031 9.758 12.98 9.91 11.84 9.965 10.633 9.926 9.356 9.78 8.031 9.536 6.656 9.191 5.262 8.746 3.84 8.207 2.41 7.57.992 6.845-.418 6.03-1.797 5.145-3.136 4.184-4.434 3.152-5.672 2.075-6.84.937-7.93-.23-8.945-1.434-9.86-2.649-10.683-3.878-11.402-5.102-12.016-6.316-12.52-7.5-12.901-8.66-13.184-9.766-13.34-10.82-13.39-11.81-13.32-12.726-13.15-13.554-12.866-14.293-12.481-14.938-12.004-15.472-11.433-15.895-10.778-16.2-10.05-16.386-9.255-16.445-8.394-16.383-7.488-16.188-6.543-15.87-5.563-15.423-4.562-14.855-3.555-14.164-2.539-13.36-1.54-12.44-.55-11.415.406-10.297 1.332-9.082 2.204-7.793 3.03-6.43 3.798-5 4.492-3.527 5.12-2.012 5.665-.464 6.133 1.09 6.512 2.66 6.8 4.21 7.004 5.75 7.113 7.25 7.133 8.715 7.063 10.114 6.91 11.453 6.664 12.71 6.344 13.884 5.945 14.957 5.477 15.93 4.941 16.784 4.348 17.524 3.707 18.133 3.015 18.613 2.293 18.96 1.547 19.169.774h19.242l19.168-.774 18.961-1.547 18.613-2.293 18.133-3.015 17.524-3.707 16.785-4.348 15.93-4.941 14.956-5.477 13.883-5.945 12.711-6.344 11.453-6.664 10.114-6.91 8.714-7.063 7.25-7.132 5.75-7.114 4.211-7.004 2.66-6.8 1.09-6.512-.465-6.133-2.011-5.664-3.528-5.121-5-4.492-6.43-3.797-7.792-3.031-9.082-2.204-10.297-1.332-11.414-.406-12.442.55-13.359 1.54-14.164 2.539-14.856 3.555-15.421 4.562-15.871 5.563-16.188 6.543-16.383 7.488-16.445 8.394-16.387 9.254-16.199 10.051-15.895 10.778-15.472 11.433-14.938 12.004-14.293 12.48-13.554 12.868-12.727 13.148-11.809 13.32-10.82 13.391-9.765 13.34-8.66 13.183-7.5 12.903-6.317 12.52-5.102 12.015-3.879 11.402-2.648 10.684-1.434 9.86-.23 8.945.938 7.93 2.074 6.84 3.152 5.671 4.184 4.434 5.144 3.136 6.031 1.797 6.844.418 7.57-.992 8.208-2.41 8.746-3.84 9.191-5.262 9.535-6.656 9.781-8.031 9.926-9.356 9.965-10.633 9.91-11.84 9.758-12.98 9.516-14.031 9.175-14.992 8.762-15.852 8.266-16.601 7.699-17.235 7.07-17.742 6.38-18.133 5.644-18.383 4.87-18.5 4.067-18.488 3.239-18.336 2.398-18.047 1.555-17.625.718-17.07-.105-16.387-.902-15.582-1.664-14.656-2.391-13.625-3.067-12.48-3.683-11.25-4.242-9.934-4.73-8.535-5.145-7.074-5.485-5.559-5.738-4-5.914-2.414-6-.805" fill="none" stroke-width=".375" stroke-linecap="round" stroke-linejoin="round" stroke="#4d8352" stroke-opacity=".4" stroke-miterlimit="10" xmlns="http://www.w3.org/2000/svg"/><path d="M360 125.715l-6.238.797-6.153 2.39-5.98 3.965-5.719 5.508-5.375 7.004-4.957 8.453-4.46 9.836-3.9 11.14-3.273 12.36-2.59 13.488-1.855 14.508-1.078 15.422-.274 16.219.559 16.886 1.41 17.438 2.262 17.848 3.117 18.125 3.957 18.273 4.777 18.281 5.563 18.156 6.316 17.899 7.02 17.508 7.664 16.996 8.242 16.363 8.758 15.61 9.187 14.753 9.536 13.793 9.796 12.743 9.97 11.605 10.034 10.402 10.008 9.13 9.875 7.812 9.649 6.445 9.316 5.05 8.887 3.645 8.355 2.223 7.73.813 7.016-.586 6.215-1.953 5.336-3.282 4.383-4.566 3.363-5.79 2.285-6.948 1.164-8.024-.003-9.023-1.204-9.922-2.414-10.735-3.636-11.437-4.864-12.031-6.074-12.524-7.262-12.894-8.421-13.153-9.528-13.3-10.586-13.332-11.582-13.254-12.5-13.059-13.336-12.77-14.082-12.367-14.73-11.879-15.278-11.293-15.707-10.628-16.02-9.887-16.218-9.078-16.293-8.211-16.238-7.297-16.059-6.34-15.75-5.355-15.32-4.348-14.766-3.328-14.086-2.313-13.296-1.304-12.395-.317-11.383.645-10.277 1.57-9.082 2.45-7.809 3.269-6.453 4.035-5.047 4.73-3.586 5.352-2.082 5.895-.554 6.355.992 6.73 2.543 7.012 4.082 7.207 5.61 7.309 7.1 7.32 8.548 7.238 9.937 7.075 11.27 6.82 12.515 6.484 13.68 6.075 14.75 5.593 15.71 5.043 16.563 4.438 17.293 3.781 17.903 3.078 18.375 2.336 18.722 1.574 18.93.793h19l18.93-.793 18.722-1.574 18.375-2.336 17.903-3.078 17.293-3.781 16.562-4.438 15.711-5.043 14.75-5.593 13.68-6.075 12.515-6.484 11.27-6.82 9.937-7.075 8.547-7.238 7.102-7.32 5.61-7.309 4.081-7.207 2.543-7.012.992-6.73-.554-6.355-2.082-5.895-3.586-5.352-5.047-4.73-6.453-4.035-7.809-3.27-9.082-2.449-10.277-1.57-11.383-.645-12.395.317-13.296 1.304-14.086 2.313-14.766 3.328-15.32 4.348-15.75 5.355-16.059 6.34-16.238 7.297-16.293 8.21-16.219 9.079-16.02 9.887-15.706 10.628-15.278 11.293-14.73 11.88-14.082 12.367-13.336 12.77-12.5 13.058-11.582 13.254-10.586 13.332-9.528 13.3-8.421 13.153-7.262 12.894-6.074 12.524-4.864 12.03-3.636 11.438-2.414 10.735-1.204 9.922-.003 9.023 1.164 8.024 2.285 6.949 3.363 5.789 4.383 4.566 5.336 3.282 6.215 1.953 7.015.586 7.73-.813 8.356-2.223 8.887-3.644 9.316-5.05 9.649-6.446 9.875-7.813 10.008-9.129 10.035-10.402 9.969-11.605 9.796-12.743 9.536-13.793 9.187-14.753 8.758-15.61 8.242-16.363 7.664-16.996 7.02-17.508 6.316-17.899 5.563-18.156 4.777-18.281 3.957-18.273 3.117-18.125 2.262-17.848 1.41-17.438.559-16.886-.274-16.22-1.078-15.42-1.855-14.509-2.59-13.488-3.274-12.36-3.898-11.14-4.461-9.836-4.957-8.453-5.375-7.004-5.719-5.508-5.98-3.965-6.153-2.39-6.238-.797" fill="none" stroke-width=".375" stroke-linecap="round" stroke-linejoin="round" stroke="#4d8352" stroke-opacity=".4" stroke-miterlimit="10" xmlns="http://www.w3.org/2000/svg"/><path d="M360 129.523l-6.48.793-6.391 2.368-6.215 3.925-5.953 5.453-5.61 6.942-5.183 8.371-4.684 9.738-4.109 11.028-3.48 12.238-2.786 13.351-2.046 14.364-1.262 15.261-.442 16.047.403 16.707 1.261 17.243 2.13 17.648 2.995 17.918 3.848 18.059 4.684 18.062 5.484 17.926 6.25 17.668 6.969 17.277 7.625 16.758 8.222 16.121 8.75 15.367 9.2 14.512 9.562 13.555 9.836 12.504 10.02 11.375 10.105 10.171 10.09 8.907 9.977 7.586L442.53 541l9.438 4.848 9.023 3.445 8.504 2.035 7.895.633 7.187-.75 6.399-2.113 5.527-3.426 4.582-4.7 3.57-5.91 2.504-7.054 1.383-8.117.223-9.098-.965-9.988-2.18-10.782-3.402-11.472-4.621-12.051-5.836-12.527-7.024-12.883-8.175-13.13-9.293-13.257-10.356-13.273-11.348-13.184-12.277-12.976-13.117-12.665-13.871-12.257-14.524-11.75-15.082-11.157-15.52-10.476-15.843-9.723-16.05-8.906-16.137-8.031-16.094-7.102-15.93-6.137-15.633-5.144-15.215-4.133-14.675-3.105-14.008-2.086-13.235-1.07-12.347-.083-11.352.883-10.261 1.813-9.079 2.687-7.82 3.512-6.484 4.273-5.09 4.965-3.645 5.586-2.156 6.125-.64 6.578.89 6.95 2.43 7.222 3.957 7.41 5.469 7.504 6.945 7.508 8.383 7.414 9.765 7.238 11.082 6.973 12.325 6.629 13.476 6.207 14.54 5.707 15.491 5.148 16.34 4.524 17.063 3.855 17.668 3.137 18.144 2.383 18.485 1.605 18.687.809h18.758l18.687-.809 18.485-1.605 18.144-2.383 17.668-3.137 17.063-3.855 16.34-4.524 15.492-5.148 14.539-5.707 13.476-6.207 12.325-6.63 11.082-6.972 9.765-7.238 8.383-7.414 6.945-7.508 5.47-7.504 3.956-7.41 2.43-7.223.89-6.949-.64-6.578-2.156-6.125-3.645-5.586-5.09-4.965-6.484-4.273-7.82-3.512-9.079-2.687-10.261-1.813-11.352-.883-12.347.082-13.235 1.07-14.008 2.087-14.675 3.105-15.215 4.133-15.633 5.144-15.93 6.137-16.094 7.102-16.136 8.03-16.051 8.907-15.844 9.723-15.52 10.476-15.081 11.157-14.524 11.75-13.87 12.257-13.118 12.665-12.277 12.976-11.348 13.184-10.356 13.273-9.292 13.258-8.176 13.129-7.024 12.883-5.836 12.527-4.62 12.05-3.403 11.473-2.18 10.782-.965 9.988.223 9.098 1.383 8.117 2.504 7.054 3.57 5.91 4.582 4.7 5.527 3.426 6.399 2.113 7.187.75 7.895-.633 8.504-2.035 9.023-3.445L277.47 541l9.761-6.234 9.977-7.586 10.09-8.907 10.105-10.171 10.02-11.375 9.836-12.504 9.562-13.555 9.2-14.512 8.75-15.367 8.222-16.121 7.625-16.758 6.969-17.277 6.25-17.668 5.484-17.926 4.684-18.062 3.848-18.059L410.848 301l2.129-17.648 1.261-17.243.403-16.707-.442-16.047-1.262-15.261-2.046-14.364-2.786-13.351-3.48-12.238-4.11-11.028-4.683-9.738-5.184-8.371-5.609-6.941-5.953-5.454-6.215-3.925-6.39-2.368-6.481-.793" fill="none" stroke-width=".75" stroke-linecap="round" stroke-linejoin="round" stroke="#4e8352" stroke-miterlimit="10" xmlns="http://www.w3.org/2000/svg"/><path d="M360 133.332l-6.723.785-6.629 2.344-6.453 3.89-6.187 5.399-5.84 6.875-5.41 8.29-4.903 9.64-4.324 10.922-3.687 12.113-2.985 13.215-2.234 14.215-1.441 15.101-.61 15.875.242 16.527 1.114 17.055 1.996 17.445 2.875 17.715 3.738 17.84 4.59 17.84 5.406 17.703 6.184 17.434 6.914 17.043 7.594 16.52 8.203 15.878 8.742 15.133 9.207 14.27 9.586 13.316 9.879 12.265 10.074 11.141 10.172 9.942 10.176 8.68 10.074 7.366 9.87 6.02 9.567 4.644 9.157 3.247 8.656 1.847 8.05.453 7.364-.918 6.578-2.27 5.719-3.573 4.785-4.829 3.781-6.03 2.719-7.16 1.605-8.208.45-9.18-.735-10.05-1.945-10.832-3.16-11.504-4.387-12.075-5.59-12.527-6.785-12.871-7.937-13.102-9.059-13.218-10.117-13.22-11.121-13.108-12.051-12.891-12.899-12.567-13.656-12.144-14.324-11.625-14.879-11.016-15.336-10.324-15.668-9.562-15.883-8.735-15.98-7.844-15.953-6.91-15.797-5.937-15.516-4.934-15.11-3.914-14.581-2.887-13.938-1.855-13.172-.84-12.296.156-11.32 1.125-10.243 2.047-9.078 2.93-7.832 3.75-6.516 4.512-5.132 5.203-3.7 5.82-2.23 6.352-.73 6.804.792 7.164 2.313 7.438 3.828 7.613 5.328 7.7 6.793 7.69 8.219 7.595 9.594 7.402 10.894 7.129 12.129 6.77 13.277 6.335 14.325 5.825 15.277 5.25 16.117 4.613 16.836 3.93 17.434 3.199 17.906 2.43 18.246 1.632 18.45.824h18.515l18.449-.824 18.246-1.633 17.906-2.43 17.434-3.199 16.836-3.93 16.117-4.612 15.277-5.25 14.325-5.825 13.277-6.336 12.129-6.77 10.894-7.128 9.594-7.402 8.219-7.594 6.793-7.692 5.328-7.699 3.828-7.613 2.313-7.438.793-7.164-.73-6.804-2.231-6.352-3.7-5.82-5.132-5.203-6.516-4.512-7.832-3.75-9.078-2.93-10.242-2.047-11.32-1.125-12.298-.156-13.171.84-13.938 1.855-14.582 2.887-15.11 3.914-15.515 4.934-15.797 5.937-15.953 6.91-15.98 7.844-15.883 8.735-15.668 9.562-15.336 10.324-14.879 11.016-14.324 11.625-13.656 12.144-12.899 12.567-12.05 12.89-11.122 13.11-10.117 13.219-9.059 13.218-7.937 13.102-6.785 12.871-5.59 12.527-4.387 12.075-3.16 11.504-1.945 10.832-.735 10.05.45 9.18 1.605 8.207 2.719 7.16 3.781 6.031 4.785 4.829 5.719 3.574 6.578 2.27 7.363.917 8.051-.453 8.656-1.847 9.157-3.247 9.566-4.644 9.871-6.02 10.074-7.367 10.176-8.68 10.172-9.94 10.074-11.142 9.88-12.265 9.585-13.317 9.207-14.27 8.742-15.132 8.203-15.879 7.594-16.52 6.914-17.042 6.184-17.434 5.406-17.703 4.59-17.84 3.738-17.84 2.875-17.715 1.996-17.445 1.114-17.055.242-16.527-.61-15.875-1.441-15.101-2.234-14.215-2.985-13.215-3.687-12.113-4.324-10.922-4.903-9.64-5.41-8.29-5.84-6.875-6.187-5.398-6.453-3.891-6.63-2.344-6.722-.785" fill="none" stroke-width=".375" stroke-linecap="round" stroke-linejoin="round" stroke="#4f8351" stroke-opacity=".4" stroke-miterlimit="10" xmlns="http://www.w3.org/2000/svg"/><path d="M360 137.145l-6.96.773-6.872 2.324-6.691 3.848-6.422 5.351-6.07 6.805-5.633 8.207-5.125 9.547-4.54 10.809-3.894 11.992-3.184 13.078-2.421 14.066-1.622 14.942-.78 15.707.085 16.344.969 16.863 1.86 17.25 2.753 17.504 3.633 17.629 4.492 17.617 5.324 17.472 6.121 17.207 6.864 16.805 7.554 16.281 8.184 15.641 8.738 14.89 9.215 14.032 9.613 13.074 9.918 12.031 10.125 10.907 10.246 9.71 10.258 8.454 10.172 7.148 9.98 5.809 9.692 4.433 9.297 3.051 8.805 1.66 8.21.274 7.536-1.086 6.761-2.426 5.91-3.719 4.985-4.965 3.992-6.148 2.934-7.266 1.824-8.3.68-9.258-.504-10.114-1.707-10.882-2.926-11.54-4.145-12.09-5.351-12.53-6.543-12.86-7.7-13.078-8.82-13.172-9.882-13.164-10.891-13.039-11.828-12.805-12.68-12.468-13.445-12.032-14.117-11.496-14.684-10.879-15.148-10.175-15.489-9.399-15.719-8.559-15.828-7.66-15.804-6.718-15.668-5.735-15.395-4.726-15.008-3.696-14.492-2.664-13.86-1.629-13.109-.605-12.25.39-11.289 1.364-10.226 2.289-9.074 3.168-7.848 3.992-6.543 4.75-5.176 5.441-3.758 6.051-2.304 6.582-.813 7.028.688 7.382 2.199 7.649 3.7 7.816 5.187 7.899 6.644 7.875 8.055 7.77 9.414 7.566 10.715 7.285 11.933 6.91 13.07 6.465 14.118 5.941 15.058 5.352 15.895 4.703 16.605 4.004 17.204 3.258 17.668 2.476 18.007 1.664 18.211.836h18.274l18.21-.836 18.008-1.664 17.668-2.476 17.204-3.258 16.605-4.004 15.895-4.703 15.058-5.352 14.117-5.941 13.07-6.465 11.934-6.91 10.715-7.285 9.414-7.567 8.055-7.77 6.644-7.874 5.188-7.899 3.7-7.816 2.198-7.649.688-7.382-.813-7.028-2.304-6.582-3.758-6.05-5.176-5.442-6.543-4.75-7.848-3.992-9.074-3.168-10.226-2.29-11.29-1.363-12.25-.39-13.109.605-13.86 1.63-14.491 2.663-15.008 3.696-15.395 4.726-15.668 5.735-15.804 6.718-15.829 7.66-15.718 8.56-15.489 9.397-15.148 10.176-14.684 10.88-14.117 11.495-13.445 12.032-12.68 12.468-11.828 12.805-10.89 13.039-9.883 13.164-8.82 13.172-7.7 13.078-6.543 12.86-5.351 12.53-4.145 12.09-2.926 11.54-1.707 10.882-.504 10.114.68 9.258 1.824 8.3 2.934 7.266 3.992 6.148 4.984 4.965 5.91 3.719 6.762 2.426 7.535 1.086 8.211-.274 8.805-1.66 9.297-3.05 9.691-4.434 9.98-5.809 10.173-7.148 10.258-8.453 10.246-9.711 10.125-10.907 9.918-12.03 9.613-13.075 9.215-14.031 8.738-14.891 8.184-15.64 7.554-16.282 6.864-16.805 6.12-17.207 5.325-17.472 4.492-17.617 3.633-17.63 2.754-17.503 1.86-17.25.968-16.863.086-16.344-.781-15.707-1.622-14.942-2.421-14.066-3.184-13.078-3.894-11.992-4.54-10.809-5.125-9.547-5.632-8.207-6.07-6.805-6.423-5.351-6.691-3.848-6.871-2.324-6.961-.773" fill="none" stroke-width=".375" stroke-linecap="round" stroke-linejoin="round" stroke="#518350" stroke-opacity=".4" stroke-miterlimit="10" xmlns="http://www.w3.org/2000/svg"/><path d="M360 140.953l-7.203.77-7.11 2.297-6.925 3.812-6.66 5.297-6.301 6.738-5.86 8.125-5.343 9.45-4.754 10.703-4.102 11.867-3.379 12.945-2.617 13.914-1.797 14.785-.953 15.535-.074 16.164.824 16.672 1.727 17.047 2.629 17.297 3.527 17.414 4.398 17.395 5.246 17.25 6.055 16.972 6.813 16.57 7.52 16.044 8.16 15.402 8.734 14.648 9.226 13.793 9.633 12.836 9.957 11.793 10.184 10.672 10.312 9.477 10.344 8.23 10.27 6.93 10.093 5.594 9.813 4.23 9.433 2.852 8.953 1.472 8.375.098 7.707-1.258 6.946-2.582 6.101-3.863 5.184-5.098 4.2-6.265 3.148-7.372 2.05-8.398.907-9.332-.274-10.184-1.472-10.925-2.688-11.575-3.902-12.109-5.114-12.535-6.3-12.848-7.461-13.05-8.582-13.133-9.653-13.106-10.66-12.969-11.601-12.718-12.461-12.371-13.23-11.918-13.915-11.372-14.488-10.738-14.961-10.023-15.313-9.238-15.55-8.383-15.672-7.48-15.664-6.524-15.532-5.531-15.28-4.516-14.903-3.48-14.399-2.442-13.785-1.398-13.047-.375-12.203.625-11.258 1.601-10.207 2.527-9.078 3.41-7.855 4.231-6.57 4.992-5.223 5.676-3.817 6.285-2.375 6.813-.902 7.25.586 7.601 2.086 7.86 3.574 8.023 5.043 8.09 6.492 8.062 7.891 7.946 9.242 7.734 10.528 7.434 11.738 7.054 12.87 6.594 13.907 6.059 14.84 5.453 15.668 4.793 16.383 4.078 16.969 3.32 17.433 2.52 17.766 1.695 17.968.852h18.04l17.968-.852 17.766-1.695 17.433-2.52 16.97-3.32 16.382-4.078 15.668-4.793 14.84-5.453 13.906-6.059 12.871-6.594 11.739-7.054 10.527-7.434 9.242-7.734 7.89-7.946 6.493-8.062 5.043-8.09 3.574-8.023 2.086-7.86.586-7.601-.902-7.25-2.375-6.813-3.817-6.285-5.222-5.676-6.57-4.992-7.856-4.23-9.078-3.41-10.207-2.528-11.258-1.601-12.203-.625-13.047.375-13.785 1.398-14.399 2.441-14.902 3.48-15.281 4.517-15.532 5.53-15.664 6.524-15.672 7.48-15.55 8.384-15.313 9.238-14.96 10.023-14.49 10.738-13.913 11.372-13.23 11.918-12.462 12.37-11.601 12.72-10.66 12.968-9.653 13.106-8.582 13.132-7.46 13.051-6.301 12.848-5.114 12.535-3.902 12.11-2.688 11.574-1.472 10.925-.274 10.184.907 9.332 2.05 8.398 3.149 7.372 4.2 6.265 5.183 5.098 6.101 3.863 6.946 2.582 7.707 1.258 8.375-.098 8.953-1.472 9.433-2.852 9.813-4.23 10.094-5.594 10.27-6.93 10.343-8.23 10.312-9.477 10.184-10.672 9.957-11.793 9.633-12.836 9.226-13.793 8.735-14.648 8.16-15.402 7.52-16.043 6.812-16.57 6.055-16.973 5.246-17.25 4.398-17.395 3.527-17.414 2.63-17.297 1.726-17.047.824-16.672-.074-16.164-.953-15.535-1.797-14.785-2.617-13.914-3.38-12.945-4.1-11.867-4.755-10.704-5.343-9.449-5.86-8.125-6.3-6.738-6.66-5.297-6.926-3.812-7.11-2.297-7.203-.77" fill="none" stroke-width=".375" stroke-linecap="round" stroke-linejoin="round" stroke="#54824e" stroke-opacity=".4" stroke-miterlimit="10" xmlns="http://www.w3.org/2000/svg"/><path d="M360 144.762l-7.441.761-7.352 2.278-7.164 3.773-6.89 5.242-6.532 6.672-6.09 8.043-5.562 9.356-4.969 10.59-4.309 11.746-3.578 12.808-2.804 13.77-1.98 14.62-1.118 15.364-.234 15.985.675 16.48 1.594 16.852 2.508 17.086 3.418 17.199 4.305 17.175 5.168 17.02 5.984 16.742 6.766 16.336 7.48 15.805 8.14 15.164 8.731 14.406 9.234 13.55 9.66 12.599 9.997 11.558 10.238 10.434 10.383 9.25 10.426 8.004 10.367 6.71 10.203 5.38 9.937 4.023 9.575 2.656 9.101 1.281 8.535-.078 7.88-1.425 7.124-2.739 6.297-4.008 5.387-5.23 4.406-6.387 3.363-7.476 2.274-8.489 1.133-9.414-.043-10.246-1.235-10.976-2.449-11.606-3.664-12.129-4.871-12.539-6.063-12.84-7.222-13.02-8.344-13.093-9.418-13.05-10.434-12.895-11.375-12.637-12.238-12.27-13.023-11.8-13.707-11.246-14.293-10.602-14.774-9.87-15.136-9.075-15.383-8.215-15.516-7.293-15.52-6.332-15.402-5.332-15.164-4.305-14.797-3.265-14.308-2.215-13.707-1.172-12.985-.145-12.156.864-11.223 1.84-10.195 2.77-9.074 3.647-7.871 4.473-6.598 5.227-5.262 5.914-3.879 6.52-2.445 7.042-.992 7.473.488 7.82 1.969 8.07 3.445 8.227 4.907 8.285 6.336 8.25 7.726 8.121 9.066 7.899 10.344 7.59 11.547 7.195 12.668 6.723 13.695 6.175 14.625 5.559 15.442 4.879 16.152 4.152 16.738 3.38 17.196 2.566 17.527 1.726 17.73.867h17.797l17.73-.867 17.528-1.726 17.196-2.567 16.738-3.379 16.152-4.152 15.442-4.879 14.625-5.559 13.695-6.175 12.668-6.723 11.547-7.195 10.343-7.59 9.067-7.899 7.726-8.12 6.336-8.25 4.907-8.286 3.445-8.226 1.969-8.07.488-7.821-.992-7.473-2.446-7.043-3.878-6.52-5.262-5.913-6.598-5.227-7.87-4.473-9.075-3.648-10.195-2.77-11.223-1.84-12.156-.863-12.985.145-13.707 1.172-14.308 2.215-14.797 3.265-15.164 4.305-15.403 5.332-15.52 6.332-15.515 7.293-15.383 8.215-15.136 9.074-14.774 9.871-14.293 10.602-13.707 11.246-13.023 11.8-12.238 12.27-11.375 12.637-10.434 12.894-9.418 13.051-8.344 13.094-7.222 13.02-6.063 12.84-4.871 12.538-3.664 12.13-2.45 11.605-1.234 10.976-.043 10.246 1.133 9.414 2.274 8.489 3.363 7.476L226.91 528l5.387 5.23 6.297 4.008 7.125 2.739 7.879 1.425 8.535.078 9.101-1.28 9.575-2.657 9.937-4.023 10.203-5.38 10.367-6.71 10.426-8.004 10.383-9.25 10.238-10.434 9.996-11.558 9.66-12.598 9.235-13.55 8.73-14.407 8.141-15.164 7.48-15.805 6.766-16.336 5.984-16.742 5.168-17.02 4.305-17.175 3.418-17.2 2.508-17.085 1.594-16.852.675-16.48-.234-15.985-1.117-15.363-1.98-14.621-2.805-13.77-3.578-12.808L412 191.477l-4.969-10.59-5.562-9.356-6.09-8.043-6.531-6.672-6.891-5.242-7.164-3.773-7.352-2.278-7.441-.761" fill="none" stroke-width=".75" stroke-linecap="round" stroke-linejoin="round" stroke="#58824b" stroke-miterlimit="10" xmlns="http://www.w3.org/2000/svg"/><path d="M360 148.57l-7.684.754-7.586 2.254-7.406 3.738-7.125 5.192-6.762 6.601-6.312 7.961-5.79 9.258-5.179 10.484-4.511 11.622-3.782 12.671-2.992 13.622-2.16 14.464-1.29 15.192-.39 15.8.528 16.294 1.46 16.648 2.387 16.883 3.309 16.98 4.21 16.953 5.087 16.797 5.922 16.508 6.71 16.102 7.45 15.57 8.12 14.922 8.72 14.168 9.246 13.308 9.683 12.36 10.04 11.316 10.288 10.203 10.454 9.02 10.507 7.777 10.465 6.492 10.317 5.164 10.066 3.82 9.707 2.458 9.254 1.094 8.695-.258 8.051-1.594 7.309-2.895 6.488-4.152 5.586-5.363 4.613-6.508 3.582-7.582 2.492-8.582 1.364-9.492.191-10.309-1.004-11.023-2.21-11.64-3.423-12.15-4.632-12.542-5.82-12.828-6.985-12.997-8.11-13.05-9.183-12.993-10.2-12.824-11.152-12.55-12.02-12.168-12.812-11.692-13.5-11.121-14.097-10.46-14.586-9.724-14.957-8.91-15.22-8.039-15.358-7.11-15.375-6.14-15.274-5.129-15.043-4.097-14.691-3.047-14.223-1.992-13.629-.946-12.922.09-12.11 1.102-11.19 2.074-10.176 3.008-9.075 3.89-7.882 4.711-6.63 5.469-5.304 6.148-3.934 6.754-2.523 7.27-1.078 7.7.387 8.038 1.855 8.281 3.316 8.43 4.766 8.48 6.184 8.438 7.566 8.293 8.89 8.066 10.157 7.747 11.355 7.336 12.461 6.851 13.489 6.29 14.406 5.663 15.219 4.969 15.922 4.23 16.503 3.438 16.961 2.61 17.293 1.757 17.489.883h17.554l17.489-.883 17.293-1.758 16.96-2.61 16.504-3.437 15.922-4.23 15.22-4.969 14.405-5.664 13.489-6.289 12.46-6.851 11.356-7.336 10.156-7.747 8.89-8.066 7.567-8.293 6.184-8.437 4.765-8.48 3.317-8.43 1.855-8.282.387-8.039-1.078-7.7-2.523-7.269-3.934-6.754-5.305-6.148-6.629-5.469-7.882-4.71-9.075-3.891-10.175-3.008-11.192-2.074-12.11-1.102-12.921-.09-13.629.946-14.223 1.992-14.691 3.047-15.043 4.097-15.274 5.13-15.375 6.14-15.359 7.11-15.219 8.038-14.957 8.91-14.586 9.723-14.097 10.461-13.5 11.121-12.813 11.692-12.02 12.168-11.152 12.55-10.199 12.825-9.183 12.992-8.11 13.05-6.984 12.997-5.82 12.828-4.633 12.543-3.422 12.148-2.211 11.64-1.004 11.024.191 10.309 1.364 9.492 2.492 8.582 3.582 7.582 4.613 6.508 5.586 5.363 6.488 4.152 7.309 2.895 8.05 1.594 8.696.258 9.254-1.094 9.707-2.457 10.066-3.82 10.317-5.165 10.465-6.492 10.507-7.777 10.454-9.02 10.289-10.203 10.039-11.316 9.683-12.36 9.246-13.308 8.72-14.168 8.12-14.922 7.45-15.57 6.71-16.102 5.922-16.508 5.086-16.797 4.211-16.953 3.309-16.98 2.386-16.883 1.461-16.648.528-16.293-.39-15.801-1.29-15.192-2.16-14.464-2.992-13.622-3.782-12.671-4.511-11.621-5.18-10.485-5.789-9.258-6.313-7.96-6.761-6.602-7.125-5.192-7.406-3.738-7.586-2.254-7.684-.754" fill="none" stroke-width=".375" stroke-linecap="round" stroke-linejoin="round" stroke="#5d8148" stroke-opacity=".4" stroke-miterlimit="10" xmlns="http://www.w3.org/2000/svg"/><path d="M360 152.383l-7.922.742-7.828 2.234-7.64 3.7-7.364 5.136-6.992 6.535-6.54 7.88-6.007 9.163-5.394 10.372-4.72 11.5-3.98 12.535-3.18 13.472-2.34 14.305-1.46 15.023-.547 15.622.383 16.097 1.324 16.45 2.266 16.675 3.199 16.766 4.117 16.734 5.008 16.57 5.855 16.278 6.66 15.863 7.414 15.332 8.098 14.684 8.715 13.926 9.254 13.07 9.71 12.117 10.075 11.082 10.348 9.969 10.52 8.789 10.593 7.55 10.563 6.274 10.43 4.953 10.187 3.614 9.843 2.257 9.403.907 8.86-.438 8.222-1.762 7.492-3.05 6.676-4.297 5.789-5.496 4.824-6.63 3.797-7.687 2.715-8.676 1.586-9.566.425-10.375-.765-11.074-1.973-11.676-3.183-12.164-4.391-12.547-5.582-12.816-6.746-12.97-7.871-13.01-8.95-12.934-9.972-12.754-10.926-12.465-11.8-12.07-12.598-11.579-13.301-10.992-13.899-10.324-14.398-9.57-14.781-8.75-15.051-7.864-15.203-6.93-15.235-5.945-15.14-4.925-14.926-3.887-14.586-2.832-14.129-1.77-13.554-.718-12.864.324-12.062 1.336-11.156 2.312-10.16 3.25-9.07 4.13-7.9 4.952-6.652 5.707-5.351 6.387-3.992 6.984-2.594 7.5-1.164 7.926.281 8.254 1.742 8.492 3.188 8.633 4.625 8.676 6.035 8.621 7.398 8.473 8.719 8.23 9.973 7.899 11.156 7.48 12.262 6.98 13.273 6.407 14.191 5.765 14.997 5.059 15.695 4.305 16.27 3.496 16.726 2.656 17.05 1.785 17.25.899h17.313l17.25-.899 17.051-1.785 16.727-2.656 16.27-3.496 15.694-4.305 14.997-5.059 14.19-5.765 13.274-6.406 12.262-6.981 11.156-7.48 9.973-7.899 8.719-8.23 7.398-8.473 6.035-8.621 4.625-8.676 3.188-8.633 1.742-8.492.281-8.254-1.164-7.926-2.594-7.5-3.992-6.984-5.351-6.387-6.653-5.707-7.898-4.953-9.07-4.129-10.16-3.25-11.157-2.312-12.062-1.336-12.864-.324-13.554.718-14.13 1.77-14.585 2.832-14.926 3.887-15.14 4.925-15.235 5.946-15.203 6.93-15.05 7.863-14.782 8.75-14.398 9.57-13.899 10.324-13.3 10.992-12.598 11.579-11.801 12.07-10.926 12.465-9.973 12.754-8.949 12.933-7.87 13.012-6.747 12.969-5.582 12.816-4.39 12.547-3.184 12.164-1.973 11.676-.766 11.074.426 10.375 1.586 9.566 2.715 8.676 3.797 7.688 4.824 6.629 5.79 5.496 6.675 4.297 7.492 3.05 8.223 1.762 8.86.438 9.402-.907 9.843-2.257 10.188-3.614 10.43-4.953 10.562-6.273 10.594-7.551 10.52-8.79 10.347-9.968 10.074-11.082 9.711-12.117 9.254-13.07 8.715-13.926 8.098-14.684 7.414-15.332 6.66-15.863 5.855-16.277 5.008-16.57 4.117-16.735 3.2-16.766 2.265-16.676 1.324-16.449.383-16.097-.547-15.622-1.46-15.023-2.34-14.305-3.18-13.472-3.98-12.535-4.72-11.5-5.394-10.372-6.008-9.164-6.539-7.879-6.992-6.535-7.363-5.136-7.641-3.7-7.828-2.234-7.922-.742" fill="none" stroke-width=".375" stroke-linecap="round" stroke-linejoin="round" stroke="#638044" stroke-opacity=".4" stroke-miterlimit="10" xmlns="http://www.w3.org/2000/svg"/><path d="M360 156.191l-8.164.739-8.066 2.207-7.88 3.66-7.597 5.086-7.223 6.469-6.765 7.796-6.227 9.067-5.61 10.262-4.925 11.378-4.176 12.399-3.375 13.328-2.52 14.14-1.624 14.852-.707 15.442.234 15.906 1.191 16.254 2.145 16.465 3.094 16.554 4.023 16.508 4.922 16.344 5.793 16.047 6.61 15.629 7.374 15.093 8.078 14.446 8.711 13.683 9.262 12.832 9.735 11.88L366.43 491.5l10.402 9.734 10.59 8.559 10.676 7.328 10.66 6.05 10.539 4.74 10.312 3.405 9.985 2.063 9.55.719 9.02-.618 8.395-1.93 7.671-3.206 6.872-4.446 5.988-5.625 5.031-6.75 4.016-7.793 2.937-8.765 1.813-9.649.656-10.437-.531-11.121-1.735-11.711-2.945-12.184-4.148-12.554-5.34-12.801-6.508-12.945-7.633-12.965-8.715-12.883-9.742-12.684-10.703-12.375-11.582-11.972-12.387-11.465-13.094-10.867-13.703-10.184-14.21-9.418-14.602-8.586-14.887-7.695-15.047-6.742-15.09-5.75-15.011-4.73-14.809-3.677-14.48-2.613-14.04-1.55-13.476-.489-12.8.555-12.016 1.574-11.125 2.55-10.141 3.489-9.07 4.371-7.91 5.195-6.684 5.946-5.395 6.62-4.05 7.22-2.668 7.73-1.25 8.148.183 8.473 1.625 8.703 3.063 8.84 4.484 8.867 5.879 8.809 7.234 8.648 8.543 8.395 9.79 8.054 10.964 7.622 12.059 7.109 13.062 6.523 13.973 5.868 14.773 5.148 15.465 4.379 16.04 3.558 16.488 2.7 16.812 1.816 17.008.914h17.078l17.008-.914 16.812-1.816 16.489-2.7 16.039-3.558 15.465-4.379 14.773-5.148 13.973-5.868 13.062-6.523 12.059-7.11 10.965-7.62 9.789-8.055 8.543-8.395 7.234-8.648 5.879-8.809 4.484-8.867 3.063-8.84 1.625-8.703.183-8.473-1.25-8.148-2.668-7.73-4.05-7.22-5.395-6.62-6.683-5.946-7.91-5.195-9.071-4.371-10.14-3.488-11.126-2.551-12.015-1.574-12.801-.555-13.477.488-14.039 1.551-14.48 2.613-14.809 3.676-15.011 4.73-15.09 5.75-15.047 6.743-14.887 7.695-14.601 8.586-14.211 9.418-13.703 10.184-13.094 10.867-12.387 11.465-11.582 11.972-10.703 12.375-9.742 12.684-8.715 12.883-7.633 12.964-6.508 12.946-5.34 12.8-4.148 12.555-2.945 12.184-1.735 11.71-.531 11.122.656 10.437 1.813 9.649 2.937 8.765 4.016 7.793 5.031 6.75 5.988 5.625 6.872 4.446 7.671 3.207 8.395 1.93 9.02.617 9.55-.72 9.985-2.062 10.312-3.406 10.54-4.738 10.66-6.05 10.675-7.329 10.59-8.559 10.402-9.734 10.118-10.844 9.734-11.879 9.262-12.832 8.71-13.683 8.079-14.446 7.375-15.093 6.609-15.63 5.793-16.046 4.922-16.344 4.023-16.508 3.094-16.554 2.145-16.465 1.191-16.254.234-15.906-.707-15.442-1.625-14.851-2.52-14.141-3.374-13.328-4.176-12.399-4.926-11.378-5.61-10.262-6.226-9.067-6.765-7.796-7.223-6.47-7.598-5.085-7.879-3.66-8.066-2.207-8.164-.739" fill="none" stroke-width=".375" stroke-linecap="round" stroke-linejoin="round" stroke="#6a7e41" stroke-opacity=".4" stroke-miterlimit="10" xmlns="http://www.w3.org/2000/svg"/><path d="M360 160l-8.402.73-8.309 2.188-8.117 3.621-7.828 5.031-7.457 6.403-6.992 7.714-6.446 8.973-5.824 10.153-5.133 11.253-4.375 12.262-3.562 13.18-2.7 13.984-1.796 14.68-.864 15.258.086 15.718 1.059 16.051 2.023 16.258 2.985 16.34 3.93 16.289 4.843 16.117 5.727 15.813 6.558 15.394 7.34 14.856 8.055 14.203 8.707 13.449 9.273 12.59 9.758 11.637 10.156 10.609 10.453 9.5 10.66 8.328 10.762 7.102 10.758 5.828 10.649 4.527 10.437 3.203 10.121 1.863 9.703.532 9.18-.797 8.566-2.094 7.856-3.367 7.062-4.59 6.188-5.758 5.242-6.867 4.227-7.902 3.16-8.86 2.043-9.726.886-10.5-.293-11.172-1.496-11.742-2.707-12.207-3.91-12.555-5.097-12.79-6.27-12.917-7.395-12.926-8.484-12.824-9.512-12.613-10.476-12.293-11.363-11.871-12.172-11.352-12.891-10.738-13.508-10.047-14.023-9.266-14.426-8.425-14.719-7.52-14.89-6.559-14.95-5.558-14.878-4.528-14.688-3.468-14.379-2.395-13.95-1.328-13.398-.258-12.738.785-11.969 1.809-11.093 2.789-10.125 3.73-9.067 4.61-7.922 5.433-6.714 6.184-5.438 6.86-4.11 7.453-2.738 7.957-1.34 8.375.083 8.691 1.511 8.914 2.934 9.043 4.344 9.066 5.726 8.993 7.074 8.824 8.368 8.562 9.601 8.203 10.77 7.766 11.855 7.238 12.856 6.641 13.754 5.973 14.55 5.238 15.239 4.45 15.804 3.616 16.25 2.746 16.575 1.848 16.769.93h16.836l16.77-.93 16.574-1.848 16.25-2.746 15.804-3.617 15.239-4.45 14.55-5.237 13.754-5.973 12.856-6.64 11.855-7.239 10.77-7.766 9.601-8.203 8.368-8.562 7.074-8.824 5.726-8.993 4.344-9.066 2.934-9.043 1.511-8.914.082-8.691-1.34-8.375-2.738-7.957-4.109-7.454-5.438-6.859-6.714-6.184-7.922-5.433-9.067-4.61-10.125-3.73-11.093-2.789-11.97-1.809-12.737-.785-13.399.258-13.95 1.328-14.378 2.395-14.688 3.468-14.878 4.528-14.95 5.558-14.89 6.559-14.719 7.52-14.426 8.425-14.023 9.266-13.508 10.047-12.89 10.738-12.173 11.352-11.363 11.87-10.476 12.294-9.512 12.613-8.484 12.824-7.395 12.926-6.27 12.918-5.097 12.789-3.91 12.555-2.707 12.207-1.496 11.742-.293 11.172.886 10.5 2.043 9.726 3.16 8.86 4.227 7.902 5.242 6.867 6.188 5.758 7.062 4.59 7.856 3.367 8.566 2.094 9.18.797 9.703-.532 10.12-1.863 10.438-3.203 10.649-4.527 10.758-5.828 10.761-7.102 10.66-8.328 10.454-9.5 10.156-10.61 9.758-11.636 9.273-12.59 8.707-13.45 8.055-14.202 7.34-14.856 6.558-15.394 5.727-15.813 4.844-16.117 3.93-16.29 2.984-16.339 2.023-16.258 1.059-16.05.086-15.72-.864-15.257-1.796-14.68-2.7-13.984-3.562-13.18-4.375-12.262-5.133-11.254-5.824-10.152-6.446-8.972-6.992-7.715-7.457-6.403-7.828-5.03-8.117-3.622-8.309-2.188L360 160" fill="none" stroke-width=".75" stroke-linecap="round" stroke-linejoin="round" stroke="#727c3d" stroke-miterlimit="10" xmlns="http://www.w3.org/2000/svg"/></svg>