<svg xmlns="http://www.w3.org/2000/svg" viewBox="0 0 720 720"><defs/><rect width="100%" height="100%" fill="#f0f2f5ff" rx="0%" ry="0%"/><g fill-opacity=".502" fill-rule="evenodd"><path fill="#d9b196" d="M667.96 232.438l-1.808-4.125-1.968-4.051-2.13-3.973-2.288-3.887-2.442-3.8-2.594-3.704-2.746-3.609-2.89-3.5-3.035-3.394-3.172-3.282-3.305-3.164-3.437-3.043-3.567-2.914-3.687-2.789-3.809-2.652-3.922-2.516-4.031-2.375-4.137-2.23-4.238-2.086-4.332-1.934L600 167.63l-4.508-1.621-4.59-1.465-4.664-1.305-4.73-1.14-4.801-.977-4.855-.805-4.91-.64-4.958-.465-5-.297-5.035-.121-5.07.05-5.09.227-5.113.403-5.125.578-5.133.754-5.137.93-5.133 1.109-5.12 1.281-5.106 1.457-5.086 1.633-5.059 1.805-5.027 1.976-4.988 2.149-4.946 2.316-4.898 2.488-4.84 2.649-4.781 2.816-4.719 2.98-4.644 3.137-4.57 3.293-4.489 3.446-4.402 3.601-4.313 3.746-4.215 3.89-4.117 4.036-4.008 4.172-3.902 4.305-3.79 4.437-3.667 4.563-3.547 4.683-3.422 4.805-3.289 4.914-3.16 5.027-3.02 5.133-2.878 5.23-2.739 5.325-2.59 5.418-2.437 5.504-2.29 5.578-2.132 5.66-1.977 5.723-1.816 5.793-1.652 5.847-1.492 5.902-1.329 5.95-1.16 5.992-.992 6.031-.824 6.059-.652 6.082-.485 6.105-.312 6.117-.141 6.125.031 6.125.203 6.122.371 6.113.543 6.097.715 6.079.883 6.046 1.055 6.016 1.219 5.98 1.382 5.934 1.551 5.883 1.711 5.828 1.875 5.77 2.031 5.699 2.188 5.633 2.344 5.554 2.492 5.473 2.64 5.383 2.79 5.293 2.93 5.195 3.07 5.098 3.203 4.988 3.34 4.875 3.464 4.762 3.59 4.644 3.711 4.516 3.828 4.39 3.942 4.262 4.05 4.121 4.149 3.985 4.254 3.84 4.343 3.695 4.434 3.547 4.516 3.39 4.597 3.239 4.672 3.082 4.738 2.922 4.805 2.757 4.863 2.594 4.914 2.426 4.961 2.258 5 2.086 5.04 1.918 5.07 1.742 5.094 1.57 5.113 1.399 5.125 1.218 5.137 1.043 5.132.867 5.133.696 5.121.515 5.106.34 5.086.164 5.054-.011 5.024-.184 4.988-.355 4.942-.528 4.89-.699 4.836-.867 4.777-1.031 4.707-1.2 4.641-1.363 4.559-1.52 4.48-1.68 4.39-1.835 4.298-1.988 4.203-2.137 4.101-2.281 3.992-2.426 3.88-2.567 3.769-2.699 3.644-2.836 3.52-2.96 3.395-3.087 3.257-3.203 3.125-3.324 2.98-3.43 2.84-3.539 2.692-3.644 2.543-3.738 2.387-3.833 2.234-3.918 2.074-4 1.91-4.078 1.747-4.152 1.582-4.215 1.414-4.277 1.242-4.336 1.07-4.383.899-4.43.722-4.468.543-4.504.371-4.528.192-4.55.015-4.57-.164-4.579-.343-4.582-.524-4.582-.7-4.578-.878-4.563-1.059-4.546-1.23-4.52-1.41-4.492-1.586-4.457-1.758-4.414-1.93-4.371-2.097-4.317-2.27-4.257-2.433-4.2-2.598-4.129-2.762-4.054-2.918-3.977-3.078-3.89-3.226-3.805-3.38-3.711-3.527-3.613-3.672-3.508-3.808-3.403-3.95-3.293-4.078-3.171-4.207-3.055-4.336-2.926-4.453-2.8-4.566-2.669-4.684-2.535-4.785-2.39-4.89-2.25-4.985-2.106-5.082-1.953-5.164-1.805-5.25-1.648-5.324-1.496-5.399-1.332-5.46-1.172-5.524-1.008-5.578-.844-5.629-.675-5.676-.512-5.71-.336-5.743-.172-5.773.004-5.793.176-5.805.347-5.82.52-5.82.691-5.82.867-5.813 1.04-5.797 1.21-5.781 1.383-5.754 1.551-5.723 1.723-5.688 1.89-5.648 2.059-5.598 2.223-5.543 2.386-5.488 2.551-5.422 2.707-5.355 2.863-5.278 3.024-5.199 3.172-5.113 3.32-5.027 3.469-4.93 3.61-4.832 3.753-4.727 3.887-4.617 4.02-4.508 4.152-4.386 4.273-4.27 4.395-4.14 4.515-4.012 4.625-3.88 4.735-3.741 4.836-3.606 4.937-3.457 5.031-3.312 5.121-3.164 5.204-3.012 5.285-2.856 5.355-2.695 5.426-2.539 5.492-2.379 5.547-2.21 5.602-2.048 5.648-1.883 5.691-1.71 5.727-1.543 5.758-1.372 5.777-1.199 5.8-1.027 5.813-.856 5.82-.683 5.821-.508 5.82-.336 5.805-.164 5.793.008 5.77.18 5.742.347 5.707.52 5.672.687 5.625.856 5.578 1.02 5.52 1.179 5.456 1.344 5.395 1.504 5.32 1.656 5.242 1.816 5.16 1.965 5.075 2.113 4.98 2.258 4.883 2.402 4.781 2.54 4.676 2.675 4.559 2.809 4.449 2.937 4.324 3.063 4.2 3.18 4.07 3.296 3.941 3.41 3.8 3.516 3.66 3.617 3.52 3.72 3.372 3.808 3.218 3.898 3.067 3.985 2.91 4.058 2.75 4.133 2.586 4.2 2.426 4.265 2.257 4.32 2.086 4.371 1.922 4.418 1.746 4.461 1.575 4.492 1.398 4.524 1.219 4.547 1.047 4.562.867 4.578.691 4.582.512 4.582.332 4.578.152 4.57-.023 4.548-.203 4.53-.383 4.5-.559 4.466-.73 4.426-.91 4.382-1.082 4.328-1.254 4.278-1.422 4.21-1.59 4.15-1.758 4.07-1.922 3.996-2.086 3.914-2.242 3.828-2.398 3.73-2.551 3.637-2.7 3.531-2.847 3.426-2.992 3.316-3.133 3.2-3.27 3.078-3.398 2.953-3.531 2.824-3.652 2.692-3.774 2.558-3.887 2.418-4 2.274-4.105 2.125-4.211 1.98-4.305 1.824-4.394 1.668-4.485 1.512-4.566 1.351-4.645 1.188-4.71 1.023-4.782.856-4.84.691-4.894.516-4.945.348-4.989.171-5.027v-5.059l-.175-5.086-.352-5.105-.527-5.121-.703-5.133-.88-5.137-1.054-5.132-1.23-5.125-1.407-5.11-1.582-5.094-1.754-5.066-1.93-5.04-2.097-5-2.27-4.956-2.437-4.914-2.602-4.856-2.77-4.8-2.929-4.735-3.09-4.668-3.25-4.594-3.402-4.511-3.555-4.426-3.703-4.34-3.851-4.246-3.993-4.144-4.132-4.043-4.266-3.934-4.398-3.82-4.528-3.703-4.648-3.582-4.77-3.461-4.883-3.329-4.996-3.195-5.101-3.062-5.203-2.922-5.297-2.778-5.39-2.632-5.481-2.485-5.559-2.332-5.633-2.18-5.707-2.019-5.773-1.863-5.832-1.703-5.887-1.54-5.937-1.375-5.98-1.207-6.017-1.043-6.054-.875-6.074-.703-6.102-.53-6.113-.364-6.121-.192-6.125-.02-6.125.153-6.118.324-6.101.493-6.082.664-6.059.836-6.027 1.004-5.988 1.168-5.95 1.34-5.898 1.5-5.844 1.663-5.789 1.829-5.723 1.984-5.648 2.144-5.578 2.297-5.496 2.45-5.41 2.597-5.32 2.746-5.227 2.887-5.125 3.031-5.02 3.164-4.91 3.301-4.797 3.43-4.676 3.555-4.554 3.675-4.43 3.797-4.297 3.906-4.164 4.02-4.023 4.121-3.883 4.223-3.738 4.316-3.59 4.406-3.438 4.496-3.285 4.575-3.125 4.648-2.969 4.723-2.804 4.785-2.64 4.844-2.477 4.898-2.31 4.95-2.136 4.991-1.969 5.028-1.793 5.062-1.62 5.086-1.446 5.11-1.27 5.12-1.097 5.134-.918 5.136-.746 5.133-.567 5.125-.39 5.11-.215 5.093-.043 5.063.133 5.035.308 5 .477 4.953.648 4.906.82 4.856.985 4.793 1.149 4.726 1.316 4.66 1.473 4.586 1.636 4.5 1.79 4.418 1.94 4.328 2.095 4.23 2.242 4.13 2.382 4.027 2.528 3.914 2.66 3.797 2.797 3.684 2.922 3.558 3.05 3.43 3.172 3.297 3.29 3.164 3.398 3.023 3.508 2.883 3.613 2.735 3.71 2.585 3.806 2.434 3.894 2.277 3.977 2.121 4.058 1.961 4.13 1.793zm0 0"/><path fill="#583e37" d="M232.7 668.066l4.198 1.63 4.258 1.464 4.32 1.293 4.372 1.121 4.414.946 4.46.773 4.493.598 4.52.422 4.546.246 4.563.066 4.578-.113 4.582-.293 4.582-.469 4.582-.648 4.566-.829 4.551-1.003 4.527-1.184 4.5-1.356 4.47-1.535 4.429-1.707 4.383-1.879 4.332-2.05 4.277-2.22 4.215-2.386 4.148-2.55 4.079-2.716 4-2.87 3.918-3.032 3.832-3.183 3.738-3.336 3.64-3.485 3.54-3.629 3.433-3.77 3.324-3.905 3.207-4.043 3.09-4.172 2.965-4.297 2.84-4.418 2.707-4.535 2.57-4.649 2.434-4.758 2.293-4.859 2.148-4.96 1.996-5.052 1.852-5.14 1.691-5.227 1.54-5.3 1.382-5.38 1.219-5.44 1.055-5.509.894-5.562.723-5.617.558-5.66.391-5.7.215-5.738.05-5.762-.124-5.789-.297-5.8-.469-5.817-.645-5.82-.816-5.82-.988-5.817-1.16-5.805-1.332-5.785-1.504-5.762-1.672-5.734-1.84-5.7-2.012-5.655-2.176-5.614-2.34-5.562-2.5-5.504-2.66-5.442-2.82-5.375-2.976-5.3-3.13-5.223-3.277-5.14-3.425-5.051-3.57-4.957-3.712-4.864-3.847-4.758-3.985-4.648-4.11-4.543-4.241-4.422-4.36-4.3-4.48-4.18-4.594-4.051-4.7-3.918-4.808-3.785-4.91-3.64-5.004-3.505-5.094-3.355-5.18-3.207-5.26-3.055-5.337-2.902-5.41-2.742-5.469-2.586-5.535-2.426-5.586-2.258-5.633-2.098-5.68-1.93-5.718-1.761-5.746-1.59-5.774-1.422-5.797-1.25-5.808-1.078-5.816-.906-5.825-.73-5.82-.563-5.809-.387-5.797-.215-5.777-.039-5.75.13-5.719.3-5.683.469-5.637.636-5.594.809-5.535.969-5.476 1.137-5.414 1.296-5.344 1.454-5.266 1.613-5.183 1.77-5.102 1.921-5.008 2.07-4.91 2.22-4.812 2.359-4.707 2.5-4.594 2.636-4.48 2.77-4.36 2.902-4.238 3.024-4.11 3.148-3.976 3.262-3.844 3.375-3.703 3.488-3.559 3.59-3.414 3.687-3.262 3.782-3.113 3.875-2.953 3.957-2.797 4.039-2.637 4.113-2.472 4.18-2.309 4.246-2.136 4.305-1.97 4.355-1.796 4.406-1.625 4.45-1.45 4.484-1.273 4.512-1.097 4.543-.918 4.558-.743 4.574-.562 4.582-.387 4.582-.203 4.582-.027 4.57.152 4.555.328 4.536.504 4.507.684 4.477.86 4.441 1.026 4.395 1.204 4.344 1.375 4.293 1.542 4.23 1.711 4.168 1.875 4.094 2.036 4.02 2.195 3.937 2.351 3.851 2.508 3.762 2.66 3.664 2.805 3.563 2.95 3.46 3.093 3.344 3.227 3.235 3.363 3.113 3.492 2.992 3.617 2.864 3.739 2.73 3.855 2.598 3.969 2.457 4.074 2.316 4.18 2.168 4.277 2.023 4.371 1.872 4.457 1.714 4.543 1.559 4.621 1.395 4.692 1.238 4.761 1.07 4.825.906 4.879.739 4.93.566 4.976.395 5.015.226 5.051.047 5.078-.125 5.102-.297 5.117-.476 5.133-.653 5.133-.828 5.136-1.004 5.125-1.18 5.118-1.355 5.101-1.531 5.074-1.703 5.047-1.875 5.012-2.051 4.969-2.219 4.925-2.387 4.875-2.554 4.817-2.723 4.758-2.883 4.683-3.043 4.617-3.203 4.536-3.36 4.453-3.51 4.367-3.661 4.27-3.809 4.175-3.949 4.074-4.094 3.965-4.226 3.856-4.36 3.738-4.488 3.617-4.617 3.496-4.734 3.368-4.852 3.234-4.96 3.101-5.071 2.961-5.176 2.82-5.27 2.676-5.367 2.528-5.449 2.379-5.535 2.222-5.617 2.07-5.684 1.907-5.754 1.75-5.816 1.586-5.871 1.426-5.922 1.257-5.969 1.09-6.008.922-6.043.754-6.07.582-6.094.41-6.11.243-6.12.07-6.125-.102-6.125-.273-6.121-.445-6.106-.614-6.09-.785-6.066-.953-6.035-1.121-6-1.29-5.961-1.456-5.914-1.617-5.86-1.778-5.804-1.941-5.742-2.098-5.672-2.25-5.602-2.406-5.52-2.555-5.437-2.703-5.348-2.848-5.253-2.988-5.153-3.125-5.05-3.262-4.942-3.394-4.832-3.516-4.711-3.644-4.594-3.758-4.465-3.875-4.335-3.988-4.204-4.09-4.062-4.195-3.926-4.29-3.781-4.382-3.633-4.47-3.48-4.55-3.332-4.629-3.172-4.699-3.016-4.77-2.852-4.828-2.69-4.882-2.524-4.934-2.356-4.98-2.187-5.02-2.016-5.05-1.844-5.083-1.672-5.101-1.5-5.122-1.32-5.128-1.148-5.133-.97-5.137-.796-5.129-.617-5.113-.442-5.098-.27-5.074-.089-5.043.082-5.008.254-4.969.43-4.921.597-4.872.77-4.812.937-4.746 1.102-4.68 1.266-4.605 1.43-4.528 1.59-4.445 1.741-4.352 1.899-4.261 2.05-4.16 2.2-4.055 2.34-3.945 2.484-3.836 2.625-3.715 2.754-3.594 2.887-3.469 3.015-3.336 3.137-3.203 3.254L71.59 201l-2.926 3.48-2.777 3.583-2.63 3.683-2.48 3.777-2.32 3.868-2.168 3.953-2.008 4.035-1.843 4.11-1.676 4.175-1.512 4.246-1.344 4.3-1.168 4.356-1 4.407-.824 4.445-.648 4.48-.473 4.516-.297 4.54-.117 4.558.059 4.574.238 4.582.418 4.582.597 4.582.774 4.57.953 4.559 1.133 4.535 1.304 4.508 1.485 4.476 1.656 4.442 1.828 4.398 2 4.348 2.172 4.293 2.336 4.234 2.504 4.168 2.668 4.098 2.824 4.023 2.984 3.946 3.141 3.855 3.293 3.766 3.442 3.672 3.585 3.57 3.73 3.465 3.868 3.355 4.004 3.242 4.133 3.125 4.262 3 4.382 2.875 4.504 2.747 4.614 2.613 4.726 2.473 4.832 2.335 4.93 2.188 5.023 2.043 5.117 1.894 5.2 1.739 5.28 1.586 5.356 1.425 5.426 1.266 5.488 1.106 5.551.937 5.598.773 5.648.61 5.692.437 5.722.27 5.758.098 5.781-.075 5.801-.25 5.813-.418 5.82-.59 5.82-.765 5.817-.938 5.808-1.113 5.79-1.281 5.769-1.453 5.746-1.625 5.707-1.79 5.672-1.96 5.625-2.13 5.578-2.292 5.52-2.453 5.46-2.614 5.395-2.777 5.324-2.93 5.246-3.082 5.164-3.234 5.079-3.387 4.988-3.527 4.89-3.668 4.786-3.809 4.683-3.945 4.574-4.074 4.457-4.203 4.336-4.325 4.215-4.445 4.09-4.562 3.957-4.668 3.824-4.782 3.684-4.878 3.543-4.977 3.398-5.066 3.25-5.157 3.102-5.238 2.945-5.316 2.79-5.387 2.632-5.453 2.473-5.516 2.308-5.57 2.145-5.625 1.976-5.664 1.813-5.707 1.64-5.738 1.47-5.766 1.3-5.793 1.129-5.805.957-5.816.781-5.82.61-5.82.437-5.817.266-5.801.094-5.781-.082-5.758-.25-5.73-.418-5.696-.59-5.652-.758-5.606-.922-5.55-1.09-5.497-1.25-5.433-1.406-5.363-1.57-5.29-1.723-5.207-1.879-5.125-2.027-5.035-2.172-4.941-2.32-4.84-2.461-4.738-2.598-4.63-2.73-4.51-2.864-4.4-2.988-4.273-3.11-4.148-3.23-4.016-3.344-3.883-3.457-3.742-3.558-3.601-3.66-3.457-3.758-3.309-3.844-3.156-3.938-3-4.011-2.844-4.094-2.684-4.16-2.52-4.227-2.355-4.289-2.187-4.344-2.016-4.39-1.847-4.438-1.676-4.472-1.5-4.508-1.324-4.531-1.153-4.555-.968-4.57-.793-4.582-.618-4.582-.437-4.582-.258-4.575-.078-4.562.102-4.54.277-4.519.453-4.484.629-4.45.809-4.41.98-4.359 1.152-4.309 1.325-4.25 1.496-4.187 1.66zm0 0"/><path fill="#a2a492" d="M231.918 52.258l-4.113 1.824-4.043 1.992-3.965 2.149-3.875 2.308-3.79 2.461-3.69 2.613-3.594 2.766-3.489 2.906-3.379 3.051-3.27 3.192-3.148 3.32-3.027 3.457-2.898 3.582-2.77 3.703-2.637 3.82-2.5 3.938-2.359 4.043-2.21 4.148-2.067 4.25-1.914 4.344-1.762 4.434-1.602 4.52-1.445 4.597-1.285 4.672-1.121 4.742-.953 4.805-.785 4.863-.618 4.918-.445 4.965-.273 5.004-.102 5.039.074 5.07.246 5.098.426 5.113.602 5.125.773 5.137.953 5.132 1.13 5.133 1.304 5.121 1.48 5.102 1.653 5.086 1.828 5.054 1.996 5.024 2.172 4.98 2.336 4.942 2.508 4.89 2.671 4.832 2.836 4.774 3 4.707 3.157 4.637 3.312 4.558 3.465 4.48 3.621 4.391 3.762 4.301 3.91 4.203 4.05 4.102 4.192 4 4.32 3.887 4.454 3.773 4.578 3.652 4.699 3.532 4.816 3.406 4.934 3.273 5.039 3.14 5.144 3.005 5.243 2.863 5.34 2.719 5.425 2.57 5.512 2.422 5.59 2.266 5.668 2.113 5.734 1.957 5.797 1.797 5.856 1.633 5.91 1.472 5.953 1.305 6 1.14 6.031.97 6.063.804 6.086.633 6.105.46 6.121.294 6.125.117 6.125-.05 6.121-.224 6.113-.394 6.094-.566 6.07-.735 6.047-.906 6.012-1.07 5.973-1.243 5.93-1.406 5.874-1.57 5.825-1.73 5.757-1.895 5.696-2.05 5.62-2.208 5.544-2.36 5.46-2.511 5.376-2.66 5.281-2.809 5.184-2.945 5.082-3.086 4.972-3.223 4.864-3.355 4.746-3.48 4.629-3.606 4.503-3.727 4.372-3.843 4.242-3.954 4.105-4.062 3.969-4.164 3.82-4.262 3.68-4.355 3.523-4.446 3.375-4.527 3.22-4.61 3.062-4.679 2.898-4.746 2.738-4.813 2.575-4.867 2.402-4.922 2.238-4.965 2.067-5.007 1.894-5.043 1.723-5.075 1.547-5.097 1.375-5.113 1.199-5.13 1.02-5.132.847-5.137.672-5.129.492-5.12.317-5.102.144-5.083-.031-5.05-.207-5.024-.375-4.98-.55-4.934-.72-4.887-.89-4.828-1.055-4.765-1.219-4.703-1.379-4.63-1.543-4.55-1.699-4.465-1.851-4.383-2.008-4.285-2.156-4.191-2.301-4.086-2.442-3.98-2.582-3.868-2.718-3.75-2.848-3.629-2.98-3.504-3.102-3.379-3.219-3.242-3.336-3.105-3.445-2.965-3.555-2.82-3.652-2.676-3.75-2.524-3.844-2.367-3.93-2.215-4.011-2.05-4.086-1.891-4.16-1.727-4.223-1.562-4.285-1.39-4.344-1.223-4.39-1.047-4.434-.875-4.473-.703-4.504-.524-4.535-.347-4.55-.168-4.571.007-4.582.188-4.582.363-4.582.547-4.574.723-4.563.902-4.543 1.078-4.515 1.254-4.489 1.434-4.453 1.605-4.41 1.777-4.363 1.95-4.309 2.12-4.25 2.29-4.191 2.457-4.117 2.617-4.047 2.781-3.965 2.938-3.883 3.097-3.793 3.247-3.7 3.398-3.6 3.547-3.497 3.687-3.387 3.828-3.277 3.961-3.16 4.098-3.035 4.223-2.914 4.351-2.785 4.465-2.649 4.586-2.515 4.691-2.375 4.801-2.235 4.903-2.086 5-1.933 5.09-1.786 5.175-1.628 5.258-1.473 5.336-1.317 5.402-1.152 5.473-.984 5.531-.824 5.586-.657 5.633-.488 5.68-.316 5.714-.149 5.75.024 5.774.199 5.793.367 5.809.543 5.82.715 5.82.887 5.82 1.058 5.813 1.235 5.793 1.402 5.777 1.574 5.754 1.742 5.719 1.914 5.683 2.078 5.637 2.243 5.594 2.406 5.539 2.57 5.477 2.727 5.414 2.887 5.347 3.039 5.27 3.191 5.187 3.34 5.106 3.488 5.012 3.629 4.918 3.766 4.82 3.906 4.71 4.035 4.606 4.168 4.492 4.29 4.375 4.41 4.25 4.527 4.125 4.64 3.997 4.746 3.863 4.852 3.726 4.95 3.582 5.038 3.442 5.133 3.293 5.215 3.144 5.293 2.992 5.367 2.836 5.434 2.68 5.5 2.52 5.554 2.355 5.61 2.192 5.652 2.027 5.695 1.86 5.73 1.69 5.759 1.52 5.785 1.352 5.8 1.175 5.813 1.008 5.82.832 5.825.66 5.816.489 5.805.316 5.789.14 5.765-.027 5.739-.203 5.703-.37 5.668-.54 5.617-.707 5.57-.875 5.512-1.039 5.453-1.203 5.383-1.363 5.312-1.524 5.23-1.676 5.153-1.832 5.063-1.984 4.968-2.133 4.871-2.277 4.766-2.418 4.66-2.559 4.547-2.695 4.434-2.824 4.308-2.95 4.184-3.078 4.055-3.195 3.921-3.312 3.786-3.422 3.644-3.528 3.5-3.632 3.352-3.73 3.199-3.821 3.047-3.91 2.89-3.989 2.73-4.07 2.567-4.144 2.403-4.207 2.238-4.27 2.066-4.328 1.899-4.379 1.726-4.422 1.551-4.465 1.375-4.496 1.2-4.527 1.023-4.551.847-4.566.668-4.575.489-4.586.308-4.582.133-4.578-.047-4.562-.226-4.551-.403-4.523-.582-4.497-.754-4.46-.93-4.422-1.1-4.375-1.278-4.325-1.446-4.265-1.609-4.207-1.781-4.137-1.942-4.062-2.101-3.989-2.262-3.902-2.418-3.813-2.57-3.722-2.719-3.621-2.867-3.524-3.012-3.41-3.148-3.3-3.285-3.184-3.414-3.063-3.547-2.937-3.668-2.809-3.79-2.676-3.902-2.539-4.011-2.398-4.121-2.258-4.22-2.11-4.316-1.956-4.41-1.805-4.492-1.652-4.578-1.493-4.649-1.328-4.722-1.168-4.79-1.004-4.847-.835-4.898-.665-4.953-.496-4.993-.328-5.03-.148-5.063.023-5.09.196-5.11.375-5.12.546-5.134.727-5.136.898-5.133 1.079-5.125 1.253-5.11 1.43-5.09 1.602-5.062 1.777-5.031 1.945-4.996 2.121-4.953 2.29-4.907 2.46-4.851 2.622-4.79 2.789-4.73 2.953-4.656 3.11-4.582 3.265-4.504 3.425-4.418 3.57-4.324 3.723-4.234 3.872-4.133 4.007-4.028 4.149-3.921 4.285-3.805 4.414-3.688 4.543-3.57 4.664-3.441 4.785-3.313 4.899-3.18 5.007-3.042 5.114-2.907 5.215-2.758 5.312-2.617 5.399-2.465 5.488-2.312 5.57-2.16 5.645-2 5.714-1.844 5.782-1.684 5.84-1.515 5.89-1.356 5.946-1.187 5.984-1.02 6.023-.851 6.055-.684 6.078-.512 6.102-.34 6.113-.171 6.125.004 6.129.171 6.121.344 6.117.516 6.098.687 6.082.856 6.055 1.023 6.02 1.192 5.983 1.355 5.942 1.524 5.894 1.683 5.836 1.848 5.782 2.004 5.71 2.164 5.645 2.316 5.566 2.469 5.489 2.617 5.398 2.762 5.309 2.906 5.21 3.047 5.114 3.184 5.008 3.316 4.894 3.445 4.782 3.57 4.664 3.692 4.539 3.809 4.41 3.921 4.281 4.032 4.149 4.133 4.003 4.234 3.868 4.332 3.718 4.418 3.57 4.504 3.419 4.586 3.265 4.656 3.11 4.73 2.945 4.793 2.785 4.852 2.621 4.906 2.453 4.953 2.29 4.997 2.113 5.035 1.945 5.062 1.773 5.09 1.598 5.113 1.426 5.125 1.25 5.133 1.074 5.133.899 5.133.718 5.125.547 5.105.367 5.09.196 5.063.02 5.03-.157 4.993-.328 4.95-.5 4.898-.668 4.847-.84 4.785-1.004 4.723-1.172 4.649-1.336 4.574-1.496 4.492-1.652 4.406-1.809 4.317-1.96 4.218-2.114 4.118-2.258 4.007-2.402 3.903-2.543 3.785-2.68 3.664-2.808 3.543-2.942 3.414-3.066 3.281-3.184 3.149-3.304 3.004-3.414 2.867-3.524 2.715-3.625 2.566-3.723 2.414-3.816 2.258-3.902 2.101-3.989 1.938-4.066 1.777-4.137zm0 0"/><path fill="#2f6094" d="M668.281 486.781l1.61-4.207 1.437-4.27 1.274-4.324 1.097-4.378.926-4.422.754-4.461.574-4.496.399-4.528.222-4.547.043-4.566-.133-4.578-.312-4.582-.492-4.582-.672-4.578-.852-4.567-1.027-4.547-1.203-4.527-1.38-4.496-1.554-4.46-1.73-4.427-1.899-4.375-2.074-4.328-2.238-4.27-2.406-4.206-2.57-4.141-2.735-4.066-2.895-3.989-3.05-3.91-3.204-3.82-3.355-3.727-3.5-3.629-3.649-3.527-3.785-3.418-3.925-3.309-4.059-3.195-4.188-3.074-4.312-2.95-4.434-2.82-4.547-2.691-4.664-2.555-4.77-2.418-4.87-2.273-4.973-2.129-5.062-1.98-5.153-1.829-5.234-1.675-5.313-1.52-5.386-1.36-5.453-1.199-5.512-1.035-5.57-.87-5.622-.704-5.668-.539-5.703-.367-5.742-.195-5.765-.028-5.79.145-5.804.32-5.817.492-5.824.664-5.82.836-5.813 1.008-5.8 1.184-5.786 1.355-5.757 1.524-5.73 1.695-5.692 1.86-5.656 2.03-5.606 2.196-5.555 2.36-5.496 2.523-5.433 2.68-5.364 2.84-5.293 2.995-5.214 3.149-5.13 3.297-5.038 3.44-4.946 3.59-4.851 3.727-4.742 3.868-4.637 3.996-4.528 4.129-4.406 4.253-4.289 4.38-4.164 4.492-4.031 4.605-3.902 4.719-3.766 4.82-3.625 4.922-3.485 5.012-3.335 5.109-3.192 5.188-3.035 5.273-2.883 5.344-2.722 5.418-2.567 5.48-2.402 5.54-2.242 5.593-2.075 5.64-1.91 5.684-1.738 5.719-1.57 5.75-1.399 5.777-1.23 5.797-1.055 5.813-.887 5.82-.71 5.82-.536 5.82-.367 5.81-.191 5.792-.024 5.774.153 5.746.32 5.718.492 5.676.66 5.633.824 5.586.993 5.527 1.156 5.473 1.316 5.402 1.477 5.332 1.633 5.258 1.789 5.176 1.937 5.086 2.09 4.996 2.234 4.902 2.38 4.797 2.515 4.692 2.656 4.582 2.785 4.464 2.918 4.344 3.04 4.223 3.16 4.094 3.28 3.96 3.391 3.825 3.497 3.687 3.601 3.54 3.703 3.394 3.793 3.246 3.883 3.094 3.969 2.933 4.047 2.778 4.12 2.617 4.192 2.45 4.254 2.284 4.313 2.117 4.363 1.95 4.41 1.773 4.453 1.606 4.488 1.425 4.516 1.25 4.543 1.078 4.562.895 4.575.723 4.582.539 4.586.363 4.578.184 4.57.003 4.555-.175 4.531-.352 4.504-.527 4.473-.703 4.433-.88 4.39-1.054 4.34-1.223 4.282-1.394 4.226-1.567 4.157-1.726 4.086-1.895 4.007-2.058 3.93-2.215 3.84-2.371 3.75-2.528 3.652-2.675 3.551-2.824 3.442-2.97 3.335-3.109 3.215-3.246 3.102-3.379 2.972-3.507 2.848-3.633 2.715-3.754 2.578-3.867 2.442-3.985 2.296-4.086 2.153-4.191 2.004-4.29 1.851-4.382 1.696-4.469 1.539-4.554 1.375-4.63 1.218-4.702 1.051-4.77.883-4.828.715-4.887.547-4.937.375-4.98.203-5.02.027-5.055-.148-5.082-.32-5.105-.5-5.118-.673-5.132-.851-5.133-1.024-5.137-1.203-5.125-1.375-5.117-1.554-5.094-1.723-5.074-1.898-5.043-2.07-5.004-2.243-4.969-2.41-4.918-2.574-4.867-2.742-4.809-2.903-4.746-3.062-4.68-3.223-4.605-3.379-4.527-3.531-4.442-3.68-4.355-3.824-4.258-3.969-4.164-4.11-4.058-4.245-3.954-4.375-3.84-4.504-3.722-4.633-3.606-4.746-3.476-4.867-3.352-4.977-3.218-5.086-3.086-5.183-2.946-5.286-2.8-5.375-2.657-5.46-2.511-5.547-2.356-5.625-2.207-5.692-2.047-5.761-1.89-5.825-1.727-5.879-1.566-5.93-1.403-5.972-1.238-6.012-1.07-6.046-.899-6.075-.734-6.093-.559-6.114-.394-6.12-.219-6.126-.047-6.125.121-6.117.297-6.106.465-6.085.637-6.063.804-6.031.977-5.996 1.14-5.957 1.313-5.907 1.473-5.855 1.636-5.797 1.801-5.734 1.961-5.664 2.113-5.59 2.274-5.508 2.426-5.426 2.574-5.336 2.719-5.242 2.867-5.14 3.004-5.04 3.144-4.925 3.278-4.817 3.406-4.699 3.535-4.574 3.656-4.45 3.778-4.32 3.886-4.187 4-4.047 4.106-3.906 4.207-3.762 4.3-3.613 4.395-3.465 4.48-3.309 4.56-3.156 4.64-2.992 4.707-2.832 4.773-2.672 4.836-2.5 4.89-2.336 4.942-2.168 4.985-1.996 5.023-1.82 5.055-1.653 5.086-1.472 5.105-1.301 5.121-1.125 5.13-.95 5.136-.773 5.133-.598 5.125-.418 5.117-.246 5.094-.07 5.07.106 5.039.277 5.004.45 4.96.62 4.919.79 4.863.956 4.8 1.121 4.743 1.29 4.672 1.449 4.594 1.605 4.52 1.766 4.429 1.918 4.344 2.066 4.246 2.219 4.148 2.36 4.043 2.5 3.934 2.64 3.816 2.773 3.703 2.903 3.578 3.03 3.453 3.15 3.32 3.269 3.184 3.383 3.051 3.492 2.906 3.594 2.758 3.695 2.614L216 659.52l3.879 2.304 3.965 2.145 4.043 1.988 4.117 1.824 4.187 1.657 4.254 1.488 4.309 1.32 4.36 1.152 4.41.977 4.453.8 4.484.63 4.52.449 4.542.273 4.559.098 4.578-.082 4.582-.262 4.582-.441 4.578-.617 4.57-.797 4.555-.977 4.532-1.152 4.507-1.328 4.473-1.504 4.434-1.68 4.394-1.851 4.34-2.02 4.285-2.191 4.227-2.36 4.16-2.523 4.09-2.688 4.015-2.847 3.93-3.004 3.848-3.16 3.754-3.309 3.656-3.46 3.558-3.606 3.454-3.746 3.34-3.883 3.226-4.02 3.11-4.152 2.988-4.274 2.859-4.398 2.73-4.52 2.594-4.628 2.457-4.739 2.317-4.843 2.172-4.942 2.023-5.039 1.871-5.125 1.723-5.21 1.562-5.294 1.41-5.363 1.247-5.434 1.082-5.496.918-5.555.753-5.605.586-5.656.418-5.692.246-5.73.079-5.762-.098-5.781-.27-5.8-.437-5.817-.613-5.82-.79-5.82-.957-5.817-1.132-5.805-1.305-5.79-1.473-5.769-1.648-5.738-1.813-5.703-1.98-5.668-2.149-5.617-2.312-5.57-2.473-5.516-2.636-5.453-2.793-5.387-2.95-5.312-3.105-5.239-3.254-5.152-3.398-5.066-3.547-4.977-3.688-4.875-3.828-4.777-3.957-4.668-4.094-4.559-4.215-4.441-4.343-4.325-4.457-4.199-4.578-4.074-4.684-3.938-4.79-3.808-4.894-3.664-4.988-3.527-5.078-3.38-5.168-3.234-5.246-3.078-5.324-2.93-5.399-2.77-5.46-2.612-5.524-2.45-5.578-2.289-5.625-2.12-5.672-1.962-5.711-1.789-5.742-1.617-5.77-1.45-5.793-1.28-5.808-1.106-5.817-.933-5.82-.762-5.82-.59-5.813-.414-5.8-.242-5.782-.075-5.754.102-5.726.273-5.688.442-5.648.61-5.598.777-5.547.945-5.488 1.105-5.422 1.27-5.355 1.43-5.278 1.59-5.199 1.742-5.117 1.894-5.024 2.047-4.925 2.191-4.829 2.34-4.726 2.477-4.613 2.613-4.5 2.75-4.38 2.879-4.257 3.004-4.133 3.125-4 3.246-3.863 3.356-3.727 3.468-3.586 3.574-3.437 3.672-3.29 3.766-3.136 3.86-2.98 3.945-2.825 4.023-2.664 4.102-2.5 4.168-2.332 4.238-2.168 4.293-1.996 4.351-1.824 4.395-1.656 4.441-1.477 4.48-1.305 4.509-1.125 4.539-.949 4.554-.773 4.575-.59 4.578-.414 4.586-.238 4.578-.055 4.574.121 4.559.3 4.539.477 4.515.653 4.48.828 4.446 1 4.402 1.176 4.356 1.347 4.3 1.512 4.243 1.684 4.176zm0 0"/><path fill="#d0b678" d="M52.477 488.598l1.847 4.109 2.008 4.031 2.168 3.953 2.328 3.868 2.48 3.773 2.637 3.684 2.782 3.578 2.925 3.476 3.067 3.367 3.207 3.25 3.34 3.133 3.472 3.012 3.594 2.887 3.719 2.754 3.836 2.617 3.949 2.484 4.059 2.34 4.164 2.191 4.261 2.047 4.356 1.899 4.441 1.738 4.531 1.586 4.606 1.426 4.684 1.261 4.75 1.098 4.812.934 4.871.765 4.922.598 4.969.422 5.011.254 5.043.078 5.075-.094 5.097-.27 5.117-.449 5.13-.62 5.132-.798 5.137-.976 5.129-1.149 5.117-1.328 5.102-1.5 5.082-1.675 5.05-1.848 5.02-2.02 4.976-2.191 4.934-2.36 4.883-2.527 4.828-2.695 4.766-2.856 4.699-3.015 4.625-3.18 4.55-3.332 4.47-3.484 4.378-3.637 4.29-3.785 4.19-3.926 4.09-4.066 3.985-4.207 3.871-4.34 3.758-4.469 3.64-4.594 3.516-4.715 3.387-4.832 3.262-4.945 3.12-5.05 2.989-5.157 2.844-5.258 2.699-5.347 2.55-5.438 2.403-5.523 2.25-5.602 2.094-5.672 1.937-5.742 1.774-5.809 1.617-5.863 1.45-5.914 1.284-5.96 1.117-6 .954-6.04.78-6.066.61-6.086.442-6.11.27-6.117.097-6.129-.074-6.125-.243-6.12-.418-6.11-.586-6.09-.757-6.07-.926-6.043-1.094-6.008-1.258-5.965-1.43-5.922-1.59-5.87-1.75-5.817-1.913-5.75-2.07-5.688-2.227-5.61-2.383-5.534-2.527-5.45-2.68-5.363-2.824-5.27-2.965-5.171-3.106-5.067-3.238-4.96-3.37-4.852-3.497-4.73-3.621-4.614-3.742-4.484-3.856-4.36-3.968-4.226-4.075-4.086-4.175-3.95-4.274-3.804-4.367-3.66-4.457-3.508-4.54-3.352-4.612-3.199-4.692-3.043-4.754-2.879-4.82-2.718-4.875-2.551-4.926-2.383-4.973-2.219-5.011-2.043-5.047-1.875-5.078-1.699-5.098-1.527-5.117-1.352-5.129-1.176-5.133-1-5.137-.824-5.128-.648-5.118-.473-5.101-.293-5.078-.121-5.051.05-5.012.227-4.976.403-4.93.57-4.879.738-4.82.91-4.762 1.075-4.691 1.242-4.618 1.398-4.543 1.563-4.457 1.719-4.367 1.87-4.277 2.028-4.176 2.172-4.074 2.32-3.965 2.461-3.852 2.598-3.738 2.734-3.613 2.867-3.488 2.992-3.36 3.118-3.226 3.234-3.09 3.352-2.945 3.457-2.805 3.566-2.656 3.668-2.504 3.762-2.348 3.851-2.191 3.942-2.036 4.02-1.87 4.097-1.708 4.168-1.539 4.234-1.367 4.293-1.2 4.344-1.03 4.398-.852 4.438-.68 4.48-.5 4.508-.328 4.535-.144 4.555.027 4.574.211 4.578.387 4.586.566 4.582.746 4.57.926 4.563 1.098 4.54 1.277 4.51 1.453 4.485 1.629 4.446 1.8 4.406 1.973 4.355 2.141 4.305 2.313 4.242 2.472 4.184 2.64 4.11 2.802 4.034 2.957 3.957 3.117 3.871 3.266 3.782 3.417 3.687 3.563 3.586 3.703 3.485 3.848 3.375 3.98 3.261 4.11 3.14 4.242 3.024 4.363 2.899 4.48 2.765 4.598 2.637 4.707 2.496 4.817 2.36 4.914 2.21 5.007 2.07 5.102 1.919 5.188 1.765 5.27 1.61 5.343 1.453 5.414 1.293 5.476 1.129 5.54.969 5.59.8 5.64.637 5.684.465 5.722.297 5.75.129 5.778-.047 5.796-.219 5.813-.39 5.816-.563 5.825-.738 5.816-.907 5.809-1.082 5.796-1.254 5.774-1.425 5.746-1.594 5.715-1.766 5.68-1.933 5.632-2.098 5.586-2.266 5.532-2.425 5.468-2.59 5.407-2.746 5.335-2.907 5.262-3.058 5.176-3.211 5.094-3.36 5.004-3.503 4.906-3.645 4.805-3.785 4.699-3.922 4.594-4.055 4.476-4.18 4.356-4.304 4.238-4.426 4.11-4.543 3.98-4.652 3.843-4.762 3.707-4.863 3.567-4.961 3.426-5.05 3.273-5.145 3.125-5.223 2.973-5.305 2.816-5.375 2.66-5.441 2.496-5.508 2.336-5.562 2.172-5.614 2.008-5.66 1.836-5.7 1.672-5.733 1.5-5.762 1.328-5.785 1.156-5.805.985-5.816.812-5.82.637-5.821.469-5.816.293-5.801.12-5.79-.05-5.761-.223-5.734-.39-5.7-.563-5.66-.73-5.613-.895-5.563-1.059-5.507-1.222-5.442-1.383-5.375-1.543-5.3-1.7-5.223-1.85-5.14-2-5.052-2.153-4.957-2.293-4.859-2.438-4.754-2.574-4.644-2.71-4.536-2.84-4.414-2.97-4.297-3.093-4.168-3.207-4.039-3.328-3.902-3.434-3.77-3.543-3.624-3.644-3.48-3.743-3.333-3.832-3.184-3.918-3.027-4.003-2.867-4.079-2.711-4.148-2.547-4.219-2.383-4.277-2.215-4.336-2.046-4.383-1.88-4.43-1.702-4.464-1.528-4.504-1.355-4.528-1.18-4.554-1-4.567-.824-4.578-.645-4.582-.465-4.582-.289-4.578-.109-4.563.07-4.546.25-4.52.422-4.492.602-4.457.777-4.418.953-4.367 1.125-4.317 1.297-4.261 1.465-4.196 1.633-4.129 1.797-4.054 1.964-3.977 2.122-3.89 2.28-3.805 2.438-3.707 2.59-3.613 2.738-3.504 2.887-3.399 3.028-3.285 3.164-3.172 3.3-3.047 3.434-2.922 3.562-2.793 3.68-2.656 3.805-2.523 3.918-2.383 4.027-2.234 4.129-2.09 4.234-1.942 4.329-1.785 4.418-1.633 4.507-1.472 4.582-1.309 4.664-1.148 4.73-.98 4.794-.817 4.855-.645 4.907-.472 4.957-.305 5-.129 5.035.043 5.066.223 5.09.394 5.11.57 5.124.747 5.137.921 5.133 1.102 5.133 1.273 5.12 1.45 5.11 1.625 5.086 1.8 5.063 1.97 5.027 2.14 4.988 2.312 4.95 2.477 4.898 2.644 4.844 2.809 4.785 2.973 4.719 3.129 4.648 3.289 4.57 3.441 4.493 3.594 4.406 3.738 4.316 3.887 4.219L211.37 289l4.164 4.016 4.3 3.906 4.435 3.793 4.554 3.672 4.68 3.554 4.8 3.426 4.91 3.297 5.024 3.164 5.13 3.024 5.226 2.886 5.32 2.742 5.414 2.598 5.496 2.445 5.582 2.293 5.653 2.141 5.722 1.98 5.79 1.825 5.843 1.66 5.902 1.5 5.95 1.332 5.988 1.168 6.027 1 6.059.832 6.082.66 6.105.488 6.114.32 6.125.15 6.129-.024 6.12-.196 6.114-.363 6.098-.539 6.078-.707 6.05-.875 6.016-1.047 5.98-1.21 5.938-1.38 5.883-1.543 5.832-1.703 5.773-1.867 5.703-2.023 5.633-2.184 5.559-2.336 5.476-2.488 5.387-2.633 5.297-2.781 5.2-2.926 5.1-3.063 4.993-3.199 4.883-3.332 4.765-3.46 4.649-3.587 4.523-3.707 4.395-3.824 4.265-3.938 4.13-4.042 3.988-4.149 3.847-4.246 3.7-4.34 3.554-4.43 3.399-4.515 3.246-4.594 3.086-4.668 2.925-4.734 2.766-4.801 2.602-4.86 2.433-4.913 2.266-4.958 2.094-5.003 1.922-5.036 1.753-5.07 1.579-5.094 1.402-5.109 1.226-5.129 1.051-5.133.875-5.133.7-5.132.523-5.121.348-5.11.171-5.082-.004-5.058-.175-5.028-.348-4.988-.523-4.941-.692-4.895-.86-4.84-1.027-4.777-1.19-4.711-1.352-4.64-1.516-4.567-1.676-4.48-1.828-4.395-1.98-4.305-2.13-4.207-2.277-4.101-2.418-4-2.562-3.887-2.696-3.77-2.828-3.648-2.953-3.527-3.082-3.399-3.199-3.266-3.32-3.128-3.426-2.989-3.535-2.847-3.637-2.696-3.734-2.55-3.828-2.395-3.918-2.238-3.997-2.078-4.074-1.918-4.148-1.758zm0 0"/><path fill="#6f7555" d="M486.258 51.508l-4.215-1.586-4.277-1.422-4.329-1.246-4.382-1.078-4.43-.906-4.465-.73-4.5-.556-4.531-.375-4.55-.199-4.567-.023-4.578.16-4.582.336-4.586.512-4.575.695-4.566.87-4.543 1.052-4.523 1.222-4.493 1.403-4.457 1.578-4.418 1.75-4.37 1.922L388 56.98l-4.262 2.262-4.199 2.426-4.133 2.594-4.058 2.754-3.98 2.91-3.895 3.07-3.809 3.223-3.715 3.375-3.617 3.52-3.516 3.663-3.406 3.805-3.293 3.941-3.18 4.075-3.058 4.203-2.934 4.328-2.804 4.45-2.676 4.562-2.535 4.675-2.399 4.786-2.258 4.882-2.109 4.985-1.96 5.074-1.813 5.164-1.657 5.242-1.496 5.324-1.343 5.395-1.176 5.457-1.016 5.523-.851 5.579-.684 5.625-.516 5.671-.347 5.711-.176 5.743-.004 5.77.168 5.792.34 5.805.512 5.82.687 5.82.86 5.82 1.03 5.813 1.204 5.797 1.375 5.781 1.547 5.758 1.714 5.723 1.883 5.691 2.051 5.649 2.215 5.597 2.383 5.547 2.543 5.492 2.699 5.426 2.86 5.356 3.015 5.28 3.164 5.204 3.316 5.117 3.461 5.031 3.606 4.934 3.746 4.836 3.883 4.73 4.015 4.625 4.145 4.508 4.27 4.395 4.39 4.273 4.508 4.145 4.62 4.02 4.731 3.886 4.832 3.746 4.934 3.61 5.027 3.464 5.114 3.32 5.203 3.169 5.281 3.015 5.356 2.863 5.421 2.704 5.489 2.546 5.547 2.383 5.597 2.223 5.649 2.05 5.687 1.891 5.727 1.72 5.754 1.546 5.78 1.379 5.798 1.207 5.812 1.035 5.82.863 5.82.688 5.821.52 5.805.343 5.793.168h5.77l5.745-.172 5.711-.344 5.672-.511 5.63-.68 5.573-.848 5.524-1.011 5.46-1.176 5.4-1.336 5.32-1.496 5.25-1.652 5.164-1.81 5.074-1.956 4.988-2.106 4.887-2.253 4.785-2.399 4.676-2.535 4.566-2.668 4.453-2.805 4.328-2.93 4.207-3.058 4.079-3.176 3.94-3.289 3.81-3.406 3.668-3.512 3.523-3.613 3.375-3.715 3.226-3.805 3.075-3.894 2.914-3.98 2.758-4.055 2.593-4.133 2.434-4.195 2.262-4.262 2.097-4.32 1.926-4.368 1.754-4.418 1.582-4.457 1.406-4.492 1.227-4.52 1.055-4.546.875-4.563.695-4.578.52-4.582.34-4.582.16-4.582-.016-4.566-.196-4.551-.375-4.527-.55-4.504-.727-4.465-.898-4.43-1.075-4.383-1.246-4.336-1.418-4.273-1.586-4.219-1.75-4.148-1.914-4.075-2.078-4-2.234-3.917-2.39-3.829-2.548-3.738-2.695-3.64-2.84-3.536-2.988-3.43-3.125-3.32-3.262-3.203-3.394-3.082-3.524-2.96-3.648-2.833-3.77-2.695-3.883-2.563-3.996-2.425-4.101-2.278-4.203-2.133-4.301-1.984-4.395-1.832-4.48-1.676-4.563-1.52-4.64-1.359-4.711-1.191-4.774-1.031-4.84-.864-4.89-.695-4.945-.523-4.985-.356-5.027-.18-5.055-.003-5.086.168-5.105.343-5.121.52-5.133.695-5.137.871-5.133 1.047-5.125 1.223-5.113 1.402-5.094 1.57-5.07 1.75-5.035 1.918-5.004 2.094-4.961 2.262-4.914 2.43-4.86 2.593-4.8 2.762-4.738 2.926-4.672 3.082-4.594 3.242-4.516 3.398-4.433 3.547-4.34 3.7-4.25 3.843-4.149 3.989-4.046 4.125-3.938 4.261-3.828 4.39-3.707 4.524-3.59 4.645-3.46 4.766-3.337 4.878-3.203 4.989-3.066 5.097-2.926 5.2-2.785 5.293-2.64 5.386-2.49 5.477-2.34 5.555-2.183 5.632-2.03 5.703-1.868 5.77-1.711 5.828-1.543 5.887-1.383 5.933-1.215 5.98-1.05 6.017-.88 6.05-.71 6.075-.54 6.097-.37 6.113-.2 6.125-.027 6.125.145 6.125.316 6.118.488 6.101.656 6.086.829 6.059.996 6.027 1.164 5.992 1.328 5.95 1.496 5.898 1.66 5.848 1.817 5.789 1.98 5.726 2.137 5.656 2.289 5.579 2.445 5.5 2.594 5.414 2.738 5.324 2.883 5.23 3.023 5.13 3.16 5.023 3.293 4.914 3.426 4.8 3.547 4.684 3.672 4.559L423 500.07l3.902 4.305 4.012 4.168 4.117 4.031 4.219 3.887 4.313 3.746 4.406 3.594 4.488 3.445 4.574 3.293 4.645 3.133 4.719 2.973 4.78 2.812 4.845 2.648 4.898 2.485 4.945 2.312 4.989 2.145 5.027 1.973 5.062 1.804 5.086 1.625 5.106 1.453 5.125 1.282 5.129 1.101 5.136.926 5.133.754 5.125.574 5.114.399 5.09.222 5.07.047 5.035-.125 4.996-.3 4.957-.47 4.91-.644 4.856-.809 4.796-.98 4.73-1.14 4.665-1.31 4.586-1.468 4.508-1.625 4.422-1.785 4.328-1.938 4.234-2.086 4.137-2.234 4.027-2.379 3.918-2.52 3.809-2.656 3.683-2.789 3.563-2.918 3.437-3.047 3.305-3.164 3.168-3.285 3.031-3.394 2.887-3.504 2.742-3.61 2.59-3.707 2.441-3.8 2.286-3.891 2.125-3.973 1.968-4.054 1.801-4.13 1.637-4.195 1.469-4.257 1.3-4.317 1.125-4.367.957-4.414.782-4.457.605-4.492.43-4.52.25-4.547.074-4.562-.105-4.574-.286-4.582-.46-4.586-.641-4.579-.82-4.566-1-4.55-1.172-4.532-1.352-4.504-1.527-4.469-1.7-4.43-1.87-4.382-2.044-4.336-2.214-4.277-2.38-4.22-2.542-4.152-2.707-4.082-2.867-4.003-3.024-3.922-3.176-3.832-3.332-3.743-3.476-3.648-3.625-3.543-3.762-3.437-3.902-3.329-4.036-3.214-4.168-3.094-4.289-2.969-4.414-2.844-4.53-2.71-4.645-2.579-4.754-2.441-4.856-2.297-4.953-2.156-5.05-2.004-5.137-1.856-5.223-1.699-5.297-1.547-5.375-1.386-5.441-1.227-5.504-1.063-5.563-.898-5.613-.73-5.656-.567-5.7-.394-5.734-.227-5.762-.055-5.789.118-5.8.289-5.817.464-5.82.633-5.82.809-5.817.98-5.805 1.157-5.785 1.324-5.765 1.496-5.735 1.664-5.699 1.836-5.66 2.004-5.613 2.168-5.567 2.332-5.504 2.492-5.445 2.656-5.379 2.813-5.305 2.969-5.226 3.125-5.14 3.269-5.06 3.422-4.96 3.562-4.864 3.707-4.765 3.84-4.653 3.977-4.546 4.11-4.426 4.234-4.309 4.355-4.183 4.473-4.059 4.59-3.922 4.699-3.789 4.8-3.648 4.907-3.508 5-3.363 5.09-3.211 5.175-3.063 5.258-2.906 5.336-2.754 5.406-2.59 5.47-2.433 5.527-2.266 5.585-2.102 5.633-1.937 5.676-1.77 5.715-1.597 5.75-1.43 5.773-1.258 5.793-1.082 5.809-.914 5.816-.738 5.825-.57 5.816-.391 5.812-.223 5.797-.05 5.778.124 5.754.293 5.718.461 5.684.633 5.644.797 5.59.965 5.54 1.129 5.48 1.289 5.418 1.449 5.344 1.605 5.27 1.766 5.187 1.914 5.105 2.063 5.012 2.21 4.914 2.356 4.816 2.496 4.711 2.63 4.598 2.765 4.488 2.894 4.363 3.02 4.243 3.14 4.117 3.262 3.98 3.371 3.852 3.48 3.707 3.587 3.566 3.683 3.418 3.781 3.27 3.868 3.117 3.957 2.965 4.03 2.8 4.11 2.645 4.18 2.48 4.242 2.313 4.305 2.145 4.355 1.976 4.403 1.805 4.445 1.629 4.484 1.457 4.512 1.281 4.54 1.105 4.558.926 4.574.75 4.582.57 4.582.391 4.582.215 4.57.035 4.559-.144 4.535-.32 4.508-.5 4.48-.676 4.442-.848 4.394-1.027 4.348-1.196 4.297-1.367 4.234-1.535 4.168-1.703zm0 0"/><path fill="#4b6e7b" d="M489.117 667.3l4.098-1.866 4.023-2.028 3.942-2.191 3.855-2.344 3.762-2.504 3.672-2.652 3.566-2.797 3.461-2.945 3.352-3.086 3.238-3.223 3.117-3.355 2.996-3.489 2.871-3.613 2.735-3.73 2.605-3.852 2.461-3.965 2.324-4.07 2.176-4.176 2.027-4.273 1.875-4.368 1.723-4.453 1.567-4.539 1.402-4.617 1.246-4.691 1.078-4.758.91-4.82.746-4.88.575-4.925.402-4.977.23-5.015.059-5.047-.117-5.078-.293-5.102-.469-5.117-.644-5.129-.82-5.133-.997-5.137-1.172-5.128-1.347-5.118-1.524-5.097-1.7-5.078-1.866-5.047-2.043-5.012-2.211-4.977-2.383-4.925-2.547-4.875-2.715-4.82-2.875-4.758-3.039-4.692-3.195-4.617-3.352-4.54-3.504-4.456-3.656-4.371-3.8-4.274-3.946-4.18-4.086-4.077-4.223-3.97-4.355-3.859-4.484-3.742-4.61-3.625-4.73-3.5-4.844-3.375-4.96-3.238-5.067-3.11-5.168-2.968-5.27-2.824-5.36-2.684-5.448-2.531-5.532-2.383-5.609-2.23-5.684-2.075-5.75-1.918-5.816-1.754-5.867-1.593-5.922-1.43-5.965-1.266-6.008-1.097-6.039-.93-6.07-.758-6.094-.594-6.11-.418-6.116-.246-6.13-.078-6.124.094-6.118.266-6.109.437-6.09.61-6.066.777-6.04.945-6 1.117-5.964 1.282-5.914 1.445-5.863 1.613-5.809 1.77-5.742 1.933-5.676 2.09-5.601 2.246-5.528 2.399-5.437 2.55-5.352 2.7-5.258 2.84-5.16 2.984-5.055 3.117-4.945 3.258-4.836 3.387-4.719 3.511-4.593 3.637-4.473 3.758-4.34 3.867-4.207 3.984-4.074 4.086-3.93 4.192-3.785 4.285-3.64 4.379-3.489 4.465-3.336 4.546-3.18 4.625-3.019 4.7-2.86 4.765-2.699 4.825-2.53 4.882-2.364 4.93-2.191 4.98-2.028 5.016-1.851 5.05-1.676 5.08-1.508 5.105-1.328 5.117-1.152 5.129-.98 5.136-.802 5.133-.625 5.13-.453 5.116-.273 5.098-.098 5.074.074 5.047.25 5.008.422 4.972.59 4.922.762 4.871.93 4.817 1.097 4.75 1.258 4.683 1.422 4.61 1.582 4.531 1.738 4.445 1.89 4.356 2.044 4.265 2.191 4.165 2.34 4.058 2.476 3.953 2.618 3.84 2.75 3.719 2.882 3.601 3.008 3.473 3.133 3.34 3.25 3.21 3.363 3.071 3.473 2.93L207.91 654l3.68 2.637 3.773 2.484 3.864 2.332 3.953 2.172 4.027 2.012 4.11 1.851 4.175 1.684 4.238 1.52 4.301 1.347 4.352 1.18 4.402 1.004 4.445.832 4.48.656 4.517.48 4.539.305 4.558.125 4.57-.055 4.583-.23 4.582-.41 4.582-.59 4.57-.766 4.559-.945 4.539-1.125 4.507-1.3 4.48-1.473 4.442-1.649 4.399-1.824 4.351-1.992 4.297-2.164 4.235-2.332 4.171-2.496 4.102-2.657 4.027-2.82 3.946-2.98 3.859-3.133 3.77-3.285 3.675-3.438 3.575-3.578 3.468-3.723 3.364-3.863 3.246-3.996 3.129-4.129 3.007-4.258 2.88-4.379 2.75-4.496 2.62-4.61 2.48-4.722 2.337-4.828 2.199-4.926 2.047-5.02 1.898-5.113 1.746-5.199 1.594-5.277 1.43-5.352 1.273-5.422 1.114-5.488.945-5.543.781-5.597.613-5.649.446-5.687.277-5.723.102-5.758-.067-5.777-.238-5.801-.41-5.813-.586-5.82-.758-5.82-.93-5.817-1.105-5.808-1.274-5.793-1.449-5.77-1.613-5.742-1.79-5.71-1.952-5.677-2.117-5.628-2.286-5.579-2.449-5.523-2.61-5.461-2.765-5.398-2.926-5.329-3.078-5.25-3.226-5.168-3.38-5.082-3.519-4.988-3.664-4.894-3.804-4.793-3.938-4.688-4.07-4.574-4.196-4.465-4.32-4.344-4.441-4.218-4.555-4.094-4.668-3.965-4.773-3.828-4.875-3.688-4.973-3.55-5.066-3.407-5.153-3.254-5.234-3.109-5.313-2.95-5.382-2.796-5.454-2.64-5.511-2.477-5.57-2.317-5.618-2.152-5.664-1.984-5.707-1.817-5.738-1.648-5.766-1.48-5.789-1.305-5.805-1.137-5.816-.961-5.82-.793-5.82-.617-5.817-.445-5.8-.27-5.782-.102-5.762.075-5.73.242-5.696.414-5.656.582-5.605.75-5.555.918-5.5 1.078-5.434 1.242-5.367 1.406-5.293 1.56-5.21 1.718-5.13 1.87-5.039 2.02-4.945 2.168-4.844 2.313-4.742 2.457-4.633 2.59-4.52 2.726-4.398 2.86-4.28 2.98-4.153 3.11-4.024 3.222-3.886 3.34-3.75 3.45-3.606 3.554-3.465 3.656-3.312 3.754-3.164 3.844-3.008 3.93-2.848 4.011-2.691 4.09-2.528 4.156-2.359 4.227-2.195 4.285-2.028 4.34-1.855 4.39-1.68 4.434-1.508 4.473-1.332 4.504-1.156 4.535-.98 4.55-.801 4.571-.621 4.582-.445 4.582-.266 4.582-.086 4.574.094 4.563.27 4.543.445 4.52.625 4.484.796 4.453.977 4.41 1.145 4.363 1.316 4.313 1.488 4.25 1.653 4.187 1.82 4.121 1.98 4.047 2.145 3.965 2.3 3.879 2.458 3.793 2.61 3.695 2.753 3.598 2.902 3.496 3.047 3.383 3.184 3.27 3.316 3.156 3.45 3.03 3.578 2.907 3.699 2.777 3.816 2.641 3.93 2.504 4.039 2.363 4.144 2.219 4.247 2.074 4.34 1.918 4.43 1.77 4.515 1.61 4.597 1.452 4.668 1.29 4.739 1.124 4.804.961 4.86.797 4.914.621 4.96.453 5.005.282 5.039.109 5.07-.066 5.094-.243 5.113-.418 5.129-.59 5.133-.769 5.133-.945 5.132-1.121 5.121-1.297 5.106-1.473 5.086-1.644 5.055-1.82 5.023-1.993 4.984-2.164 4.942-2.332 4.894-2.5 4.836-2.664 4.778-2.828 4.707-2.992 4.64-3.149 4.563-3.308 4.484-3.461 4.395-3.61 4.304-3.761 4.207-3.903 4.106-4.043 4.004-4.183 3.89-4.317 3.778-4.449 3.66-4.57 3.535-4.696 3.41-4.816 3.281-4.926 3.145-5.035 3.012-5.137 2.867-5.242 2.723-5.332 2.578-5.426 2.425-5.508 2.278-5.585 2.12-5.665 1.962-5.73 1.8-5.797 1.645-5.851 1.477-5.91 1.312-5.954 1.145-5.992.98-6.031.809-6.063.64-6.086.47-6.105.296-6.117.129-6.125-.047-6.13-.215-6.12-.387-6.11-.558-6.097-.727-6.075-.898-6.046-1.067-6.012-1.234-5.977-1.398-5.93-1.563-5.878-1.726-5.824-1.887-5.762-2.043-5.695-2.203-5.625-2.352-5.547-2.508-5.465-2.652-5.38-2.8-5.284-2.942-5.188-3.082-5.086-3.215-4.98-3.348-4.867-3.476-4.75-3.602-4.633-3.722-4.508-3.836-4.379-3.954-4.25-4.054-4.11-4.16-3.972-4.258-3.828-4.352-3.684-4.441-3.535-4.527-3.379-4.602-3.226-4.676-3.067-4.746-2.906-4.809-2.746-4.867-2.578-4.918-2.414-4.964-2.242-5.008-2.075-5.04-1.902-5.074-1.73-5.093-1.555-5.114-1.379-5.129-1.207-5.132-1.027-5.137-.856-5.129-.676-5.121-.504-5.106-.324-5.082-.148-5.054.023-5.02.2-4.984.37-4.938.54-4.886.714-4.832.88-4.77 1.046-4.703 1.215-4.633 1.375-4.55 1.535-4.473 1.692-4.383 1.847-4.293 2-4.195 2.149-4.09 2.293-3.985 2.437-3.87 2.578-3.755 2.711-3.636 2.844-3.512 2.973-3.379 3.097-3.25 3.215-3.113 3.332-2.969 3.442-2.828 3.546-2.68 3.653-2.527 3.746-2.38 3.836-2.218 3.926-2.058 4.007-1.899 4.086-1.734 4.157zm0 0"/><path fill="#48211a" d="M51.3 234.266l-1.566 4.222-1.398 4.282-1.227 4.34-1.058 4.386-.883 4.434-.707 4.472-.531 4.504-.356 4.531-.176 4.555v4.567l.18 4.582.36 4.582.535 4.582.715 4.574.894 4.562 1.07 4.543 1.25 4.52 1.422 4.488 1.602 4.453 1.77 4.414 1.945 4.364 2.113 4.312 2.281 4.254 2.45 4.191 2.613 4.125 2.773 4.047 2.93 3.973 3.09 3.883 3.242 3.797 3.39 3.703 3.54 3.605 3.683 3.5 3.82 3.395 3.957 3.277 4.094 3.164 4.219 3.043 4.344 2.918 4.46 2.793 4.579 2.656 4.691 2.52 4.793 2.383 4.899 2.238 4.996 2.09 5.086 1.941 5.171 1.793 5.258 1.637 5.328 1.48 5.403 1.317 5.469 1.16 5.53.996 5.583.828 5.633.664 5.675.492 5.715.329 5.746.152 5.774-.016 5.793-.191 5.808-.36 5.82-.535 5.82-.707 5.821-.879 5.813-1.054 5.797-1.227 5.777-1.394 5.75-1.567 5.723-1.738 5.683-1.902 5.64-2.075 5.599-2.234 5.539-2.402 5.48-2.563 5.418-2.719 5.348-2.878 5.273-3.036 5.192-3.183 5.109-3.336 5.015-3.48 4.922-3.622 4.825-3.761 4.718-3.903 4.61-4.031 4.496-4.16 4.379-4.285 4.254-4.403 4.132-4.523 4-4.637 3.868-4.742 3.734-4.844 3.59-4.945 3.445-5.04 3.3-5.128 3.153-5.211 2.996-5.29 2.844-5.362 2.684-5.434 2.527-5.496 2.363-5.55 2.2-5.606 2.03-5.653 1.868-5.695 1.7-5.727 1.527-5.761 1.355-5.781 1.188-5.801 1.011-5.813.84-5.82.668-5.824.496-5.817.32-5.804.153-5.79-.024-5.769-.195-5.738-.363-5.707-.531-5.668-.704-5.621-.867-5.57-1.031-5.516-1.195-5.453-1.36-5.387-1.515-5.313-1.672-5.238-1.824-5.152-1.977-5.067-2.129-4.972-2.27-4.875-2.413-4.774-2.551-4.664-2.688-4.55-2.82-4.438-2.945-4.317-3.07-4.187-3.192-4.063-3.309-3.925-3.418-3.793-3.523-3.649-3.629-3.504-3.723-3.359-3.82-3.207-3.902-3.05-3.989-2.9-4.066-2.734-4.14-2.574-4.208-2.414-4.27-2.242-4.323-2.074-4.375-1.907-4.422-1.73-4.461-1.559-4.496-1.382-4.528-1.211-4.547-1.028-4.566-.855-4.578-.672-4.582-.496-4.582-.32-4.578-.137-4.567.039-4.547.219-4.527.394-4.496.574-4.465.746-4.422.922-4.379 1.098-4.324 1.266-4.27 1.437-4.206 1.606-4.141 1.773-4.07 1.934-3.989 2.097-3.906 2.254-3.816 2.41-3.727 2.567-3.625 2.715-3.527 2.859-3.414 3.004-3.305 3.144-3.191 3.278-3.067 3.41-2.941 3.539-2.817 3.664-2.68 3.785-2.546 3.899-2.406 4.007-2.262 4.114-2.113 4.218-1.965 4.313-1.813 4.402-1.656 4.493-1.5 4.57-1.336 4.648-1.176 4.723-1.007 4.781-.844 4.848-.672 4.898-.504 4.95-.332 4.992-.16 5.027.015 5.063.192 5.085.367 5.11.54 5.125.718 5.129.894 5.136 1.07 5.133 1.247 5.125 1.418 5.11 1.597 5.093 1.77 5.063 1.941 5.035 2.114 4.996 2.28 4.957 2.454 4.906 2.617 4.852 2.781 4.797 2.942 4.73 3.105 4.66 3.262 4.586 3.414 4.504 3.57 4.422 3.715 4.332 3.863 4.235 4.004 4.136 4.141 4.035 4.281 3.922 4.407 3.813 4.539 3.695 4.66 3.57 4.777 3.45 4.895 3.316 5.004 3.188 5.109 3.05 5.21 2.907 5.306 2.77 5.398 2.62 5.484 2.469 5.567 2.32 5.64 2.164 5.715 2.012 5.778 1.848 5.836 1.687 5.89 1.528 5.942 1.359 5.984 1.195 6.02 1.028 6.054.859 6.078.691 6.102.52 6.113.348 6.125.175 6.125.004 6.125-.164 6.113-.34 6.102-.507 6.082-.676 6.055-.852 6.023-1.015 5.988-1.184 5.942-1.352 5.894-1.515 5.84-1.68 5.781-1.84 5.72-1.996 5.644-2.156 5.57-2.313 5.488-2.46 5.407-2.61 5.312-2.758 5.215-2.902 5.117-3.04 5.012-3.179 4.898-3.308 4.79-3.442 4.667-3.562 4.543-3.688 4.418-3.804 4.285-3.918 4.153-4.024 4.011-4.133 3.871-4.23 3.727-4.324 3.578-4.414 3.426-4.504 3.27-4.578 3.113-4.657 2.953-4.726 2.793-4.793 2.629-4.848 2.46-4.902 2.294-4.953 2.125-4.996 1.949-5.032 1.781-5.062 1.606-5.09 1.433-5.11 1.258-5.124 1.078-5.133.906-5.133.727-5.133.555-5.125.375-5.11.203-5.09.027-5.062-.148-5.03-.32-4.997-.493-4.95-.664-4.901-.832-4.848-1-4.79-1.164-4.726-1.328-4.652-1.488-4.578-1.645-4.496-1.805-4.407-1.953-4.32-2.11-4.223-2.25-4.12-2.398-4.016-2.535-3.907-2.672-3.789-2.808-3.671-2.934-3.547-3.058-3.418-3.184-3.29-3.297-3.152-3.41-3.011-3.516-2.872-3.62-2.722-3.72-2.574-3.812-2.418-3.902-2.266-3.985-2.105-4.062-1.946-4.137-1.785-4.203-1.613-4.266-1.45-4.324-1.277-4.375-1.105-4.418-.934-4.46-.762-4.497-.582-4.523-.406-4.547-.23-4.567-.051-4.578.129-4.582.304-4.582.485-4.578.664-4.566.844-4.551 1.02-4.527 1.195-4.497 1.37-4.464 1.551-4.426 1.72-4.379 1.894-4.328 2.066-4.27 2.23-4.21 2.403-4.145 2.562-4.07 2.727-3.993 2.887-3.914 3.043-3.82 3.199-3.73 3.348-3.633 3.496-3.535 3.64-3.422 3.781-3.317 3.918-3.195 4.055-3.078 4.18-2.957 4.308-2.828 4.43-2.696 4.543-2.558 4.66-2.426 4.766-2.277 4.867-2.137 4.965-1.984 5.062-1.836 5.149-1.684 5.23-1.523 5.309-1.368 5.383-1.207 5.449-1.043 5.512-.879 5.57-.71 5.617-.543 5.664-.375 5.703-.204 5.739-.035 5.765.14 5.79.313 5.804.48 5.816.661 5.825.828 5.82 1.004 5.812 1.176 5.801 1.344 5.785 1.52 5.762 1.687 5.73 1.855 5.696 2.024 5.652 2.187 5.61 2.352 5.558 2.515 5.5 2.676 5.434 2.832 5.37 2.988 5.294 3.14 5.219 3.294 5.128 3.437 5.047 3.582 4.95 3.723 4.851 3.86 4.75 3.992 4.64 4.125 4.532 4.246 4.414 4.37 4.293 4.493 4.168 4.602 4.04 4.71 3.905 4.817 3.774 4.918 3.629 5.012 3.492 5.101 3.344 5.188 3.191 5.265 3.043 5.344 2.89 5.414 2.731 5.477 2.57 5.535 2.41 5.594 2.25 5.636 2.083 5.684 1.914 5.719 1.746 5.75 1.578 5.777 1.406 5.793 1.238 5.812 1.063 5.82.89 5.821.72 5.82.546 5.809.371 5.793.2 5.777.027 5.746-.145 5.72-.312 5.679-.485 5.633-.652 5.586-.82 5.535-.985 5.472-1.148 5.407-1.309 5.336-1.468 5.257-1.63 5.18-1.78 5.09-1.934 5.004-2.082 4.902-2.23 4.801-2.372 4.7-2.511 4.585-2.649 4.469-2.781 4.351-2.91 4.227-3.035 4.098-3.157 3.968-3.273 3.829-3.387 3.69-3.492 3.548-3.598 3.402-3.699 3.25-3.789 3.098-3.883 2.945-3.965 2.781-4.043 2.625-4.117 2.457-4.187 2.293-4.25 2.125-4.309 1.953-4.363 1.782-4.41 1.61-4.45 1.437-4.488 1.257-4.515 1.082-4.543.907-4.559.726-4.578.547-4.578.371-4.586.192-4.578.011-4.57-.168-4.555-.343-4.536-.52-4.503-.7-4.473-.87-4.438-1.043-4.39-1.219-4.344-1.387-4.285-1.558-4.227-1.723-4.16zm0 0"/><path fill="#d9b196" d="M667.078 230.367l-1.887-4.09-2.05-4.011-2.211-3.93-2.364-3.848-2.52-3.75-2.671-3.656-2.816-3.555-2.965-3.449-3.102-3.34-3.242-3.222-3.371-3.102-3.504-2.98-3.625-2.852-3.75-2.723-3.863-2.582-3.98-2.449-4.083-2.305-4.187-2.156-4.285-2.008-4.38-1.859-4.464-1.703-4.551-1.543-4.625-1.383-4.7-1.223-4.769-1.058-4.824-.89-4.887-.723-4.933-.555-4.98-.383-5.02-.207-5.051-.035-5.082.137-5.102.316-5.12.488-5.13.668-5.136.844-5.133 1.016-5.13 1.195-5.112 1.371-5.098 1.543-5.074 1.719-5.043 1.89-5.008 2.063-4.969 2.234-4.922 2.403-4.867 2.57-4.812 2.734-4.75 2.895-4.684 3.058-4.605 3.215-4.532 3.371-4.445 3.524-4.36 3.676-4.261 3.816-4.168 3.965-4.063 4.101-3.957 4.243-3.843 4.37-3.73 4.5-3.61 4.626-3.485 4.742-3.355 4.863-3.227 4.969-3.09 5.082-2.949 5.18-2.808 5.28-2.664 5.372-2.516 5.46-2.363 5.544-2.211 5.617-2.055 5.691-1.894 5.762-1.739 5.82-1.57 5.875-1.41 5.926-1.246 5.973-1.074 6.012-.91 6.043-.739 6.074-.566 6.094-.399 6.109-.226 6.121-.055 6.129.113 6.125.29 6.117.456 6.106.63 6.09.8 6.062.969 6.031 1.133 6 1.304 5.957 1.465 5.906 1.633 5.86 1.793 5.797 1.953 5.738 2.11 5.668 2.265 5.59 2.418 5.515 2.567 5.43 2.714 5.34 2.86 5.242 3 5.149 3.14 5.043 3.27 4.93 3.402 4.82 3.531 4.703 3.653 4.582 3.77 4.453 3.882 4.328 3.996 4.191 4.102 4.051 4.2 3.914 4.3 3.77 4.387 3.62 4.476 3.47 4.559 3.316 4.636 3.16 4.707 3 4.77 2.84 4.832 2.676 4.89 2.511 4.938 2.34 4.985 2.176 5.02 2 5.054 1.832 5.082 1.656 5.105 1.485 5.121 1.304 5.13 1.133 5.136.957 5.133.782 5.129.601 5.113.43 5.098.25 5.07.078 5.039-.098 5.008-.27 4.965-.44 4.918-.614 4.863-.785 4.805-.95 4.746-1.116 4.672-1.278 4.601-1.441 4.52-1.602 4.437-1.758 4.344-1.91 4.25-2.062 4.152-2.211 4.047-2.356 3.938-2.496 3.824-2.633 3.707-2.77 3.582-2.898 3.457-3.023 3.328-3.145 3.191-3.265 3.055-3.375 2.91-3.488 2.766-3.59 2.621-3.692 2.465-3.785 2.308-3.879 2.153-3.957 1.996-4.043 1.828-4.113 1.664-4.184 1.496-4.25 1.328-4.308 1.157-4.36.984-4.406.812-4.45.633-4.483.457-4.52.282-4.539.105-4.563-.078-4.574-.254-4.582-.43-4.582-.613-4.582-.79-4.57-.968-4.555-1.144-4.531-1.32-4.508-1.497-4.476-1.672-4.434-1.843-4.395-2.016-4.343-2.184-4.29-2.351-4.23-2.516-4.16-2.68-4.094-2.84-4.015-3-3.938-3.152-3.848-3.304-3.757-3.453-3.664-3.598-3.563-3.742-3.453-3.88-3.348-4.015-3.234-4.144-3.113-4.27-2.993-4.394-2.863-4.512-2.734-4.625-2.602-4.735-2.46-4.84-2.325-4.937-2.176-5.035-2.031-5.121-1.879-5.207-1.726-5.29-1.575-5.362-1.41-5.43-1.254-5.492-1.09-5.555-.925-5.602-.762-5.652-.594-5.695-.422-5.727-.254-5.758-.086-5.78.09-5.806.262-5.812.434-5.82.605-5.82.781-5.817.95-5.809 1.125-5.789 1.296-5.765 1.47-5.743 1.636-5.707 1.808-5.664 1.973-5.625 2.14-5.57 2.305-5.52 2.47-5.453 2.628-5.39 2.79-5.317 2.94-5.238 3.098-5.16 3.246-5.07 3.395-4.977 3.543-4.883 3.68-4.777 3.82-4.676 3.953-4.562 4.086-4.446 4.215-4.328 4.336-4.207 4.453-4.078 4.57-3.945 4.68-3.813 4.789-3.672 4.887-3.531 4.984-3.387 5.074-3.238 5.164-3.086 5.246-2.933 5.32-2.778 5.395-2.62 5.457-2.458 5.52-2.293 5.578-2.133 5.625-1.96 5.668-1.798 5.71-1.628 5.743-1.457 5.77-1.286 5.789-1.113 5.808-.941 5.817-.77 5.82-.594 5.82-.425 5.813-.25 5.8-.079 5.782.094 5.758.266 5.726.433 5.692.606 5.648.77 5.601.937 5.547 1.101 5.493 1.262 5.425 1.422 5.356 1.582 5.285 1.738 5.2 1.887 5.12 2.043 5.028 2.184 4.93 2.332 4.835 2.472 4.727 2.61 4.617 2.742 4.504 2.871 4.387 3 4.265 3.121 4.133 3.242 4.008 3.352 3.871 3.465 3.73 3.566 3.59 3.668 3.446 3.766 3.296 3.855 3.141 3.938 2.988 4.023 2.832 4.098 2.668 4.168 2.508 4.23 2.34 4.293 2.176 4.348 2.004 4.394 1.832 4.442 1.66 4.476 1.484 4.508 1.313 4.535 1.133 4.559.957 4.57.777 4.578.602 4.586.421 4.582.243 4.57.062 4.563-.113 4.54-.293 4.515-.469 4.48-.644 4.45-.82 4.402-.997 4.36-1.168 4.3-1.336 4.246-1.508 4.18-1.675 4.11-1.84 4.038-2.004 3.953-2.164 3.871-2.32 3.782-2.473 3.683-2.629 3.586-2.773 3.477-2.922 3.37-3.063 3.259-3.2 3.14-3.335 3.016-3.465 2.89-3.59 2.758-3.715 2.625-3.832 2.489-3.945 2.343-4.055 2.204-4.156 2.05-4.258 1.903-4.351 1.75-4.442 1.59-4.523 1.43-4.606 1.269-4.68 1.11-4.745.937-4.809.773-4.871.602-4.918.433-4.969.258-5.008.086-5.042-.086-5.075-.266-5.097-.437-5.114-.613-5.129-.793-5.132-.97-5.137-1.14-5.129-1.32-5.121-1.492-5.102-1.668-5.082-1.844-5.05-2.012-5.02-2.183-4.98-2.352-4.938-2.523-4.883-2.684-4.832-2.851-4.765-3.008-4.704-3.172-4.628-3.324-4.555-3.48-4.469-3.63-4.387-3.777-4.293-3.922-4.195-4.062-4.094-4.204-3.988-4.332-3.875-4.46-3.766-4.59-3.644-4.711-3.52-4.828-3.394-4.938-3.262-5.05-3.133-5.153-2.988-5.25-2.851-5.348-2.708-5.433-2.558-5.52-2.406-5.598-2.258-5.667-2.102-5.743-1.941-5.8-1.781-5.864-1.622-5.91-1.457-5.96-1.293-6-1.125-6.036-.957-6.066-.789-6.086-.617-6.11-.449-6.117-.277-6.125-.106-6.129.067-6.12.238-6.11.406-6.094.582-6.07.75-6.043.918-6.008 1.086-5.969 1.254-5.922 1.422-5.875 1.582-5.816 1.746-5.754 1.906-5.688 2.063-5.617 2.222-5.535 2.371-5.457 2.528-5.363 2.672-5.274 2.816-5.175 2.961-5.075 3.098-4.964 3.234-4.856 3.363-4.734 3.493-4.618 3.617-4.492 3.734-4.363 3.852-4.23 3.964-4.094 4.07-3.957 4.173-3.809 4.27-3.664 4.363-3.516 4.453-3.359 4.535-3.207 4.613-3.047 4.684-2.887 4.754-2.726 4.816-2.559 4.875-2.39 4.922-2.223 4.973-2.05 5.007-1.884 5.047-1.707 5.074-1.53 5.102-1.36 5.113-1.184 5.13-1.008 5.136-.832 5.133-.656 5.129-.48 5.12-.301 5.102-.129 5.078.047 5.051.219 5.016.394 4.976.563 4.934.734 4.879.902 4.824 1.067 4.762 1.23 4.695 1.399 4.621 1.554 4.547 1.711 4.461 1.867 4.371 2.016 4.281 2.168 4.18 2.313 4.078 2.457 3.969 2.593 3.86 2.73 3.741 2.86 3.618 2.988 3.496 3.11 3.363 3.23 3.23 3.344 3.098 3.457 2.953 3.563 2.809 3.66 2.66 3.758 2.512 3.851 2.355 3.938 2.2 4.015 2.038 4.094 1.88 4.164 1.71zm0 0"/><path fill="#583e37" d="M234.79 668.902l4.23 1.547 4.289 1.38 4.347 1.206 4.395 1.031 4.437.864 4.477.683 4.508.512 4.535.332 4.555.156 4.57-.023 4.578-.203 4.586-.38 4.582-.558 4.574-.738 4.559-.918 4.539-1.094 4.515-1.27 4.485-1.445 4.449-1.62 4.406-1.794 4.36-1.965 4.304-2.136 4.246-2.301 4.184-2.469 4.113-2.633 4.04-2.793 3.96-2.953 3.875-3.11 3.785-3.257 3.692-3.41 3.59-3.559 3.488-3.699 3.379-3.84 3.265-3.976 3.153-4.106 3.027-4.234 2.903-4.36 2.77-4.476 2.64-4.594 2.504-4.703 2.363-4.808 2.223-4.91 2.07-5.005 1.926-5.097 1.77-5.184 1.616-5.265 1.461-5.34 1.301-5.414 1.137-5.473.976-5.54.809-5.589.64-5.637.473-5.68.305-5.718.133-5.75-.04-5.777-.21-5.797-.383-5.809-.555-5.82-.73-5.82-.903-5.82-1.074-5.81-1.246-5.796-1.418-5.774-1.586-5.75-1.758-5.715-1.925-5.68-2.094-5.636-2.258-5.59-2.422-5.531-2.582-5.473-2.738-5.41-2.899-5.34-3.054-5.261-3.203-5.184-3.352-5.094-3.5-5.008-3.64-4.91-3.778-4.808-3.918-4.707-4.047-4.594-4.176-4.48-4.3-4.368-4.422-4.238-4.535-4.117-4.649-3.985-4.758-3.851-4.855-3.711-4.957-3.574-5.05-3.43-5.138-3.281-5.222-3.133-5.301-2.977-5.371-2.824-5.442-2.664-5.503-2.508-5.56-2.34-5.612-2.18-5.657-2.011-5.699-1.848-5.73-1.675-5.762-1.508-5.785-1.336-5.805-1.164-5.816-.989-5.82-.82-5.82-.648-5.817-.473-5.805-.3-5.785-.126-5.766.043-5.734.215-5.703.383-5.66.555-5.618.722-5.562.89-5.508 1.052-5.445 1.214-5.38 1.38-5.304 1.535-5.226 1.691-5.145 1.844-5.055 1.996-4.96 2.144-4.86 2.29-4.762 2.43-4.648 2.57-4.54 2.706-4.421 2.832-4.3 2.965-4.173 3.086-4.043 3.207-3.91 3.32-3.773 3.43-3.633 3.54-3.488 3.64-3.34 3.734-3.188 3.828-3.03 3.918-2.88 4-2.715 4.075-2.554 4.148-2.391 4.215-2.223 4.273-2.05 4.332-1.883 4.383-1.711 4.426-1.54 4.469-1.359 4.5-1.187 4.527-1.008 4.55-.832 4.567-.652 4.578-.473 4.582-.297 4.586-.113 4.575.062 4.566.239 4.543.418 4.523.593 4.497.77 4.457.945 4.418 1.117 4.37 1.29 4.32 1.457 4.263 1.628 4.199 1.79 4.129 1.957 4.058 2.117 3.98 2.273 3.895 2.43 3.809 2.586 3.71 2.73 3.618 2.88 3.508 3.023 3.406 3.16 3.29 3.293 3.171 3.43 3.055 3.554 2.926 3.68 2.796 3.797 2.668 3.91 2.528 4.023 2.386 4.13 2.243 4.226 2.097 4.324 1.946 4.418 1.793 4.5 1.636 4.582 1.48 4.656 1.317 4.73 1.153 4.794.988 4.851.824 4.906.652 4.954.48 4.996.31 5.035.136 5.062-.035 5.094-.211 5.11-.39 5.124-.563 5.133-.738 5.133-.918 5.133-1.09 5.125-1.27 5.11-1.441 5.085-1.617 5.063-1.79 5.027-1.964 4.992-2.133 4.95-2.305 4.902-2.472 4.847-2.637 4.786-2.805 4.722-2.96 4.653-3.126 4.574-3.281 4.496-3.434 4.41-3.586 4.32-3.738 4.223-3.879 4.125-4.02 4.02-4.16 3.91-4.296 3.797-4.426 3.68-4.55 3.554-4.677 3.434-4.793 3.3-4.91 3.172-5.015 3.031-5.121 2.891-5.223 2.75-5.32 2.602-5.41 2.453-5.493 2.3-5.578 2.145-5.648 1.988-5.723 1.829-5.785 1.671-5.844 1.504-5.898 1.34-5.946 1.176-5.988 1.004-6.027.84-6.055.668-6.082.496-6.102.328-6.117.156-6.125-.02-6.125-.187-6.125-.355-6.113-.532-6.098-.699-6.078-.871-6.05-1.039-6.02-1.203-5.98-1.371-5.938-1.535-5.89-1.7-5.833-1.859-5.773-2.02-5.707-2.175-5.64-2.328-5.56-2.48-5.48-2.63-5.39-2.777-5.301-2.918-5.207-3.059-5.102-3.195-4.996-3.324-4.887-3.457-4.773-3.582-4.652-3.7-4.528-3.82-4.402-3.93-4.27-4.039-4.132-4.144-3.997-4.242-3.855-4.336-3.707-4.426-3.559-4.512-3.406-4.59-3.25-4.668-3.094-4.734-2.933-4.797-2.774-4.855-2.605-4.91-2.442-4.957-2.27-5-2.105-5.04-1.93-5.066-1.757-5.09-1.586-5.113-1.41-5.125-1.235-5.133-1.058-5.137-.883-5.129-.707-5.125-.527-5.105-.356-5.086-.18-5.062-.003-5.028.168-4.988.343-4.945.512-4.895.684-4.844.855-4.777 1.02-4.719 1.183-4.64 1.348-4.57 1.508-4.485 1.668-4.398 1.82-4.31 1.977-4.206 2.125-4.11 2.27-4.003 2.413-3.891 2.555-3.773 2.687-3.657 2.825-3.53 2.949-3.403 3.078-3.274 3.195-3.133 3.313-2.996 3.422-2.851 3.53-2.703 3.634L62 213.62l-2.402 3.824-2.246 3.91-2.086 3.997-1.926 4.07-1.762 4.144-1.594 4.215-1.425 4.274-1.258 4.328-1.086 4.379-.91 4.425-.739 4.465-.562 4.5-.383 4.528-.207 4.55-.027 4.567.148 4.578.328 4.586.508 4.582.688 4.574.863 4.567 1.039 4.546 1.219 4.524 1.394 4.492 1.57 4.461 1.747 4.418 1.914 4.375 2.086 4.32 2.254 4.266 2.417 4.203 2.586 4.133 2.747 4.062 2.906 3.985 3.062 3.898 3.219 3.813 3.367 3.718 3.516 3.622 3.656 3.52 3.8 3.41 3.934 3.3 4.07 3.184 4.196 3.062 4.324 2.938 4.446 2.812 4.558 2.68 4.672 2.543 4.777 2.402 4.883 2.266 4.977 2.113 5.07 1.969 5.16 1.816 5.242 1.664 5.32 1.504 5.391 1.348 5.457 1.187 5.52 1.02 5.574.86 5.625.69 5.668.52 5.711.356 5.738.183 5.77.012 5.793-.16 5.805-.336 5.82-.504 5.82-.68 5.82-.851 5.813-1.024 5.8-1.195 5.782-1.367 5.754-1.54 5.726-1.71 5.692-1.875 5.652-2.043 5.602-2.211 5.55-2.375 5.489-2.535 5.43-2.696 5.359-2.851 5.285-3.008 5.207-3.16 5.121-3.309 5.035-3.457 4.938-3.597 4.84-3.739 4.734-3.879L343 360.77l4.516-4.141 4.398-4.266 4.277-4.383 4.153-4.503 4.023-4.618 3.89-4.726 3.755-4.828 3.613-4.93 3.473-5.023 3.324-5.11 3.176-5.199 3.023-5.277 2.867-5.352 2.711-5.422 2.555-5.484 2.39-5.547 2.227-5.594 2.059-5.644 1.894-5.688 1.727-5.723 1.558-5.753 1.383-5.782 1.215-5.797 1.043-5.812.871-5.82.695-5.82.524-5.821.351-5.809.176-5.793.008-5.77-.164-5.745-.336-5.711-.504-5.676-.676-5.629-.84-5.578-1.003-5.527-1.168-5.465-1.332-5.395-1.489-5.328-1.648-5.25-1.8-5.168-1.95-5.082-2.102-4.988-2.246-4.89-2.39-4.79-2.532-4.683-2.664-4.57-2.797-4.458-2.925-4.336-3.051-4.21-3.172-4.083-3.29-3.949-3.398-3.812-3.507-3.676-3.61-3.527-3.71-3.383-3.801-3.235-3.891-3.078-3.977-2.922-4.054-2.761-4.125-2.606-4.196-2.437-4.257-2.27-4.317-2.105-4.367-1.93-4.418-1.762-4.453-1.59-4.492-1.41-4.52-1.238-4.547-1.062-4.562-.883-4.574-.703-4.582-.524-4.586-.347-4.579-.168-4.566.007-4.555.188-4.527.367-4.504.543-4.469.719-4.43.894-4.386 1.067-4.336 1.238-4.277 1.41-4.22 1.578-4.151 1.742zm0 0"/><path fill="#a2a492" d="M229.852 53.148l-4.079 1.91-4.003 2.07-3.922 2.227-3.832 2.387-3.743 2.54-3.64 2.687-3.543 2.836-3.434 2.98-3.324 3.121-3.21 3.258-3.087 3.387-2.965 3.52-2.836 3.644-2.703 3.762-2.57 3.878-2.426 3.993-2.289 4.097-2.137 4.2-1.992 4.296-1.836 4.391-1.683 4.477-1.528 4.558-1.363 4.637-1.203 4.707-1.035 4.773-.871 4.836-.703 4.89-.532 4.942-.36 4.985-.187 5.023-.011 5.055.16 5.086.336 5.105.512 5.121.687 5.13.867 5.136 1.04 5.133 1.214 5.129 1.395 5.113 1.566 5.094 1.738 5.07 1.914 5.04 2.086 5.003 2.254 4.96 2.422 4.915 2.59 4.863 2.754 4.805 2.918 4.742 3.078 4.672 3.234 4.598 3.39 4.52 3.544 4.437 3.691 4.347 3.836 4.25 3.98 4.157 4.122 4.046 4.258 3.946 4.386 3.828 4.516 3.715 4.64 3.594 4.758 3.468 4.875 3.34 4.989 3.207 5.09 3.074 5.195 2.934 5.289 2.789 5.387 2.645 5.468 2.496 5.551 2.347 5.63 2.192 5.702 2.035 5.766 1.875 5.828 1.715 5.883 1.554 5.933 1.387 5.977 1.223 6.016 1.058 6.046.887 6.075.715 6.097.547 6.114.379 6.12.203 6.13.035 6.125-.137 6.117-.308 6.101-.48 6.086-.65 6.059-.82 6.031-.992 5.992-1.156 5.95-1.32 5.906-1.489 5.847-1.652 5.793-1.812 5.727-1.973 5.66-2.129 5.582-2.285 5.504-2.438 5.418-2.586 5.328-2.734 5.235-2.875 5.132-3.02 5.028-3.156 4.918-3.285 4.808-3.422 4.688-3.543 4.562-3.668 4.442-3.785 4.308-3.898 4.172-4.008 4.04-4.113 3.894-4.215 3.75-4.309 3.601-4.402 3.45-4.485 3.296-4.57 3.141-4.64 2.98-4.715 2.82-4.782 2.657-4.84 2.488-4.894 2.32-4.945 2.153-4.989 1.98-5.027 1.809-5.058 1.637-5.086 1.46-5.106 1.286-5.121 1.11-5.133.933-5.133.758-5.132.582-5.13.406-5.109.23-5.093.059-5.07-.121-5.036-.293-5-.461-4.96-.637-4.911-.804-4.86-.97-4.796-1.136-4.735-1.3-4.668-1.462-4.59-1.62-4.507-1.778-4.426-1.93-4.332-2.082-4.242-2.226-4.137-2.375-4.035L539.504 95l-2.652-3.813-2.786-3.687-2.914-3.57-3.039-3.442-3.16-3.308-3.277-3.176-3.395-3.035-3.5-2.895-3.601-2.746-3.703-2.601-3.797-2.446-3.887-2.289-3.973-2.133-4.047-1.972-4.125-1.813-4.191-1.64-4.258-1.477-4.312-1.309-4.367-1.132-4.415-.965-4.453-.785-4.492-.614-4.52-.437-4.542-.258-4.563-.082-4.574.098-4.582.277-4.586.453-4.578.637-4.57.812-4.551.989-4.531 1.168-4.504 1.343-4.47 1.52-4.433 1.691-4.386 1.864-4.336 2.039-4.282 2.203-4.222 2.37-4.153 2.54-4.086 2.7-4.003 2.859-3.926 3.019-3.84 3.172-3.746 3.32-3.649 3.473-3.55 3.617-3.442 3.758-3.332 3.898-3.219 4.032-3.097 4.16-2.977 4.285-2.848 4.41-2.718 4.523-2.586 4.641-2.445 4.746-2.301 4.852-2.16 4.953-2.012 5.043-1.863 5.137-1.707 5.214-1.551 5.301-1.395 5.367-1.23 5.442-1.07 5.5-.907 5.558-.738 5.614-.574 5.656-.403 5.695-.234 5.735-.059 5.761.11 5.785.281 5.801.457 5.817.629 5.82.8 5.82.973 5.817 1.145 5.804 1.32 5.79 1.488 5.761 1.66 5.738 1.829 5.7 1.992 5.664 2.164 5.617 2.324 5.566 2.489 5.508 2.648 5.445 2.809 5.383 2.96 5.309 3.118 5.226 3.265 5.149 3.414 5.058 3.559 4.97 3.7 4.866 3.835 4.766 3.969 4.66 4.101 4.55 4.23 4.435 4.352 4.312 4.47 4.188 4.581 4.062 4.696 3.93 4.8 3.793 4.899 3.656 4.996 3.512 5.086 3.37 5.176 3.22 5.253 3.066 5.333 2.914 5.402 2.758 5.465 2.597 5.527 2.438 5.582 2.277 5.633 2.11 5.676 1.941 5.71 1.777 5.747 1.606 5.773 1.433 5.793 1.266 5.809 1.094 5.816.918 5.824.746 5.817.574 5.812.402 5.797.23 5.781.056 5.754-.114 5.719-.289 5.688-.453 5.644-.625 5.594-.793 5.543-.957 5.48-1.12 5.418-1.282 5.348-1.445 5.273-1.602 5.192-1.754 5.11-1.91 5.015-2.055 4.918-2.207 4.82-2.348 4.715-2.488 4.605-2.629 4.489-2.757 4.37-2.891 4.25-3.012 4.122-3.137 3.988-3.253 3.852-3.368 3.714-3.476 3.575-3.582 3.425-3.68 3.274-3.777 3.125-3.867 2.969-3.95 2.808-4.03 2.653-4.106 2.484-4.176 2.32-4.242 2.153-4.301 1.984-4.352 1.809-4.402 1.64-4.441 1.465-4.485 1.285-4.512 1.114-4.539.933-4.558.758-4.57.578-4.583.398-4.582.223-4.582.04-4.57-.138-4.559-.312-4.539-.492-4.511-.668-4.477-.844-4.441-1.016-4.403-1.187-4.347-1.36-4.297-1.53-4.238-1.696-4.172-1.86-4.102-2.023-4.023-2.183-3.946-2.34-3.859-2.492-3.77-2.645-3.671-2.797-3.57-2.937-3.47-3.078-3.355-3.22-3.242-3.35-3.125-3.481-3-3.606-2.875-3.73-2.742-3.848-2.61-3.957-2.468-4.066-2.329-4.172-2.183-4.27-2.031-4.363-1.883-4.45-1.73-4.534-1.571-4.618-1.41-4.687-1.25-4.754-1.086-4.816-.918-4.875-.754-4.93-.578-4.973-.414-5.011-.235-5.047-.066-5.078.11-5.098.285-5.117.46-5.13.637-5.136.813-5.133.992-5.129 1.164-5.117 1.34-5.101 1.515-5.078 1.692-5.047 1.863-5.016 2.031-4.977 2.207-4.93 2.375-4.878 2.54-4.82 2.707-4.762 2.87-4.692 3.032-4.62 3.187-4.544 3.348-4.46 3.496-4.372 3.649-4.28 3.796-4.185 3.938-4.082 4.082-3.972 4.215-3.863 4.351-3.75 4.477-3.63 4.605-3.503 4.727-3.38 4.84-3.25 4.953-3.109 5.062-2.976 5.165-2.832 5.265-2.688 5.356-2.539 5.445-2.39 5.531-2.235 5.606-2.082 5.68-1.922 5.75-1.761 5.808-1.602 5.867-1.437 5.918-1.27 5.965-1.105 6.008-.938 6.039-.766 6.066-.597 6.094-.426 6.105-.258 6.122-.082 6.125.086 6.128.262 6.118.43 6.109.597 6.09.774 6.07.937 6.035 1.11 6.004 1.273 5.965 1.441 5.918 1.606 5.867 1.765 5.809 1.926 5.746 2.082 5.68 2.242 5.605 2.391 5.527 2.543 5.446 2.691 5.351 2.836 5.262 2.977 5.164 3.113 5.059 3.25 4.953 3.383 4.84 3.508 4.722 3.633 4.602 3.75 4.476 3.867 4.348 3.976 4.211 4.082 4.078 4.184 3.938 4.285 3.793 4.375 3.644 4.461 3.496 4.543 3.34 4.625 3.188 4.695 3.027 4.758 2.867 4.824 2.703 4.88 2.535 4.933 2.371 4.973 2.204 5.015 2.03 5.051 1.86 5.078 1.684 5.102 1.511 5.117 1.34 5.129 1.16 5.136.985 5.133.812 5.13.633 5.116.457 5.102.281 5.074.106 5.047-.066 5.012-.243 4.972-.414 4.926-.586 4.871-.754 4.817-.921 4.758-1.09 4.683-1.254 4.613-1.414 4.536-1.574 4.449-1.73 4.36-1.888 4.269-2.039 4.168-2.183 4.062-2.332 3.957-2.473 3.844-2.61 3.726-2.745 3.606-2.88 3.477-3 3.347-3.128 3.215-3.242 3.078-3.36 2.938-3.469 2.789-3.574 2.644-3.676 2.489-3.77 2.335-3.862 2.18-3.946 2.02-4.027 1.86-4.102 1.69-4.175zm0 0"/><path fill="#2f6094" d="M669.105 484.684l1.524-4.239 1.36-4.297 1.183-4.351 1.012-4.399.84-4.445.663-4.476.489-4.512.312-4.54.133-4.558-.047-4.57-.226-4.582-.403-4.586-.582-4.578-.758-4.574-.937-4.559-1.117-4.535-1.293-4.512-1.465-4.48-1.645-4.446-1.812-4.398-1.988-4.356-2.157-4.296-2.324-4.239-2.488-4.176-2.652-4.105-2.813-4.027-2.973-3.95-3.129-3.867-3.277-3.773-3.43-3.676-3.574-3.578-3.718-3.477-3.856-3.363-3.992-3.254-4.125-3.133-4.25-3.011-4.371-2.887-4.492-2.758-4.61-2.621-4.715-2.488-4.824-2.344-4.922-2.203-5.015-2.055-5.11-1.906-5.195-1.75-5.274-1.598-5.347-1.441-5.422-1.281-5.484-1.118-5.543-.953-5.594-.789-5.645-.62-5.687-.45-5.723-.285-5.754-.11-5.777.059-5.8.234-5.813.403-5.817.578-5.824.75-5.816.926-5.809 1.093-5.793 1.27-5.773 1.437-5.743 1.61-5.714 1.781-5.672 1.945-5.633 2.114-5.578 2.277-5.528 2.441-5.464 2.602-5.403 2.762-5.328 2.918-5.254 3.07-5.172 3.223-5.086 3.37-4.992 3.516-4.898 3.66-4.797 3.797-4.692 3.93-4.582 4.066-4.468 4.192-4.348 4.316-4.226 4.434-4.098 4.55-3.969 4.665-3.836 4.77-3.695 4.87-3.555 4.969-3.41 5.059-3.262 5.148-3.113 5.234-2.96 5.309-2.802 5.379-2.648 5.45-2.485 5.51-2.32 5.567-2.16 5.617-1.992 5.665-1.824 5.703-1.653 5.734-1.488 5.766-1.313 5.789-1.144 5.804-.969 5.817-.797 5.82-.625 5.82-.453 5.817-.277 5.8-.106 5.786.063 5.761.238 5.731.406 5.7.575 5.652.742 5.613.91 5.554 1.074 5.5 1.235 5.438 1.398 5.371 1.555 5.297 1.71 5.215 1.864 5.133 2.016 5.043 2.16 4.949 2.308 4.847 2.45 4.747 2.585 4.636 2.72 4.524 2.85 4.406 2.981 4.285 3.102 4.156 3.219 4.028 3.335 3.894 3.446 3.754 3.55 3.617 3.653 3.47 3.746 3.32 3.844 3.167 3.926 3.012 4.007 2.86 4.086 2.695 4.157 2.535 4.222 2.367 4.281 2.203 4.34 2.032 4.387 1.863 4.434 1.687 4.468 1.516 4.504 1.34 4.531 1.164 4.555.984 4.567.809 4.582.629 4.582.453 4.582.273 4.574.094 4.562-.086 4.547-.262 4.516-.441 4.492-.613 4.453-.793 4.41-.965 4.368-1.14 4.312-1.31 4.254-1.48 4.191-1.648 4.121-1.813 4.051-1.976 3.969-2.133 3.883-2.297 3.797-2.45 3.699-2.6 3.601-2.75 3.5-2.9 3.387-3.038 3.278-3.176 3.16-3.313 3.035-3.445 2.914-3.57 2.781-3.692 2.645-3.812 2.511-3.926 2.371-4.039 2.223-4.14 2.078-4.239 1.93-4.336 1.773-4.43 1.618-4.511 1.457-4.59 1.297-4.668 1.132-4.734.97-4.801.8-4.86.633-4.914.457-4.957.289-5.004.117-5.035-.059-5.07-.234-5.094-.41-5.113-.586-5.125-.762-5.133-.937-5.137-1.114-5.129-1.289-5.12-1.465-5.11-1.64-5.082-1.813-5.059-1.984-5.027-2.156-4.984-2.324-4.946-2.493-4.894-2.66-4.84-2.82-4.777-2.985-4.715-3.144-4.64-3.3-4.567-3.454-4.485-3.605-4.398-3.754-4.309-3.899-4.21-4.039-4.114-4.176-4.004-4.312-3.898-4.442-3.781-4.566-3.664-4.691-3.543-4.809-3.415-4.922-3.289-5.027-3.148-5.137-3.016-5.234-2.875-5.332-2.73-5.418-2.582-5.508-2.434-5.582-2.281-5.66-2.129-5.73-1.969-5.794-1.808-5.851-1.649-5.903-1.484-5.953-1.32-5.992-1.153-6.031-.984-6.059-.817-6.086-.648-6.105-.476-6.117-.305-6.125-.133-6.125.035-6.125.211-6.11.379-6.097.55-6.075.723-6.046.891-6.016 1.059-5.977 1.226-5.933 1.39-5.88 1.556-5.827 1.722-5.766 1.88-5.7 2.034-5.628 2.196-5.547 2.347-5.469 2.5-5.382 2.649-5.29 2.793-5.19 2.937-5.09 3.074-4.985 3.211-4.875 3.344-4.754 3.473-4.637 3.593-4.515 3.72-4.383 3.831-4.254 3.946-4.117 4.05-3.98 4.157-3.833 4.253-3.691 4.352-3.54 4.438-3.386 4.52-3.23 4.6-3.075 4.673-2.914 4.742-2.75 4.808-2.586 4.864-2.422 4.914-2.25 4.964-2.082 5.004-1.91 5.04-1.734 5.07-1.563 5.097-1.386 5.114-1.215 5.125-1.035 5.133-.864 5.136-.683 5.133-.508 5.117-.332 5.106-.16 5.086.02 5.054.19 5.024.364 4.984.535 4.938.703 4.89.875 4.832 1.04 4.774 1.206 4.707 1.368 4.636 1.527 4.555 1.687 4.477 1.84 4.386 1.996 4.297 2.141 4.196 2.289 4.097 2.434 3.989 2.57 3.875 2.707 3.761 2.836 3.64 2.969 3.517 3.09 3.386 3.21 3.254 3.329 3.117 3.437 2.977 3.543 2.836 3.645 2.683 3.742 2.536 3.836 2.382 3.922 2.227 4.003 2.066 4.083 1.903 4.152 1.742 4.222 1.574 4.278 1.406 4.34 1.235 4.382 1.062 4.434.89 4.469.716 4.504.539 4.531.363 4.55.184 4.571.007 4.578-.171 4.582-.352 4.582-.527 4.578-.711 4.563-.887 4.543-1.062 4.52-1.243 4.492-1.414 4.453-1.593 4.414-1.762 4.367-1.938 4.316-2.11 4.254-2.273 4.196-2.44 4.125-2.606 4.054-2.766 3.973-2.926 3.887-3.082 3.8-3.234 3.707-3.387 3.61-3.535 3.504-3.676 3.398-3.816 3.285-3.953 3.168-4.082 3.051-4.215 2.922-4.34 2.793-4.457 2.664-4.574 2.527-4.684 2.387-4.793 2.242-4.894 2.098-4.989 1.95-5.082 1.8-5.172 1.64-5.25 1.489-5.328 1.324-5.398 1.168-5.469 1-5.523.836-5.582.672-5.633.5-5.672.332-5.715.16-5.746-.008-5.77-.183-5.793-.352-5.808-.527-5.82-.703-5.82-.872-5.821-1.046-5.813-1.22-5.796-1.386-5.778-1.562-5.754-1.727-5.722-1.898-5.688-2.067-5.644-2.23-5.594-2.39-5.543-2.56-5.484-2.714-5.422-2.871-5.348-3.028-5.277-3.176-5.196-3.328-5.113-3.476-5.02-3.617-4.925-3.758-4.828-3.89-4.723-4.028-4.613-4.156-4.5-4.278-4.383-4.402-4.266-4.516-4.133-4.633-4.007-4.738-3.875-4.84-3.739-4.941-3.593-5.035-3.454-5.125-3.308-5.207-3.156-5.285-3.004-5.364-2.848-5.43-2.691-5.492-2.536-5.55-2.367-5.602-2.207-5.652-2.039-5.692-1.875-5.726-1.703-5.758-1.535-5.781-1.367-5.801-1.192-5.813-1.02-5.82-.847-5.824-.676-5.817-.504-5.804-.328-5.793-.156-5.766.016-5.742.187-5.707.356-5.668.527-5.625.691-5.574.864-5.516 1.023-5.457 1.192-5.39 1.347-5.317 1.512-5.242 1.664-5.156 1.82-5.07 1.97-4.977 2.12-4.88 2.266-4.776 2.406-4.668 2.547-4.555 2.683-4.442 2.813-4.32 2.941-4.195 3.067-4.067 3.187-3.933 3.301-3.797 3.414-3.656 3.52-3.512 3.625-3.363 3.718-3.211 3.813-3.063 3.902-2.902 3.989-2.742 4.062-2.582 4.137-2.418 4.203-2.25 4.266-2.082 4.32-1.91 4.375-1.743 4.422-1.562 4.457-1.395 4.496-1.215 4.523-1.035 4.547-.863 4.567-.68 4.578-.504 4.582-.324 4.582-.148 4.578.035 4.566.21 4.551.388 4.527.566 4.497.738 4.464.918 4.426 1.086 4.379 1.262 4.328 1.43 4.274 1.597 4.21 1.766 4.141zm0 0"/><path fill="#d0b678" d="M53.379 490.66l1.93 4.074 2.09 3.993 2.246 3.91 2.406 3.82 2.558 3.73 2.707 3.63 2.856 3.527 2.996 3.422 3.137 3.312 3.273 3.192 3.406 3.074 3.536 2.949 3.656 2.816 3.781 2.688 3.89 2.55 4.005 2.415 4.113 2.265 4.21 2.121 4.31 1.973 4.402 1.817 4.488 1.664 4.566 1.503 4.645 1.348 4.719 1.18 4.78 1.015 4.845.852 4.894.68 4.95.511 4.988.336 5.027.168 5.063-.008 5.085-.183 5.106-.36 5.125-.535 5.133-.71 5.133-.887 5.132-1.063 5.125-1.238 5.114-1.41 5.09-1.59 5.066-1.762 5.035-1.933 5-2.106 4.957-2.277 4.91-2.446 4.856-2.609 4.797-2.773 4.73-2.938 4.664-3.097 4.59-3.254 4.512-3.41 4.422-3.563 4.336-3.711 4.238-3.855 4.144-3.997 4.036-4.136 3.93-4.274 3.816-4.406 3.699-4.531 3.578-4.653 3.453-4.777 3.324-4.887 3.192-5 3.054-5.105 2.914-5.207 2.774-5.3 2.625-5.395 2.48-5.48 2.325-5.563 2.171-5.641 2.016-5.707 1.856-5.777 1.695-5.832 1.535-5.891 1.367-5.938 1.2-5.984 1.035-6.02.867-6.05.695-6.078.527-6.102.356-6.113.183-6.121.012-6.13-.16-6.124-.328-6.113-.5-6.102-.672-6.082-.844-6.059-1.008-6.023-1.18-5.988-1.343-5.946-1.508-5.898-1.672-5.84-1.832-5.785-1.992-5.719-2.148-5.648-2.305-5.575-2.457-5.492-2.606-5.41-2.75-5.316-2.894-5.219-3.035-5.121-3.172-5.016-3.305-4.906-3.433-4.79-3.563-4.67-3.68-4.552-3.8-4.422-3.91-4.293-4.024-4.156-4.125-4.02-4.226-3.878-4.32-3.73-4.415-3.583-4.496-3.433-4.578-3.278-4.652-3.12-4.723-2.962-4.79-2.797-4.847-2.636-4.902-2.47-4.95-2.296-4.992-2.133-5.03-1.96-5.063-1.786-5.09-1.613-5.11-1.438-5.12-1.265-5.133-1.09-5.137-.91-5.133-.739-5.121-.558-5.113-.383-5.09-.21-5.063-.032-5.035.14-4.996.313-4.953.484-4.902.657-4.852.824-4.793.992-4.726 1.16-4.657 1.32-4.578 1.481-4.5 1.64-4.414 1.797-4.324 1.95-4.227 2.097-4.125 2.246-4.02 2.391-3.91 2.531-3.792 2.668-3.676 2.801-3.555 2.93-3.426 3.054-3.293 3.176-3.156 3.293-3.02 3.406-2.874 3.512-2.73 3.617-2.579 3.715-2.426 3.809-2.273 3.898-2.113 3.98-1.954 4.06-1.785 4.132-1.625 4.203-1.453 4.262-1.285 4.32-1.117 4.375-.938 4.418-.77 4.457-.59 4.496-.413 4.524-.234 4.547-.06 4.562.118 4.578.3 4.582.477 4.582.657 4.578.836 4.567 1.011 4.55L47.965 309l1.367 4.5 1.54 4.469 1.714 4.426 1.887 4.378 2.058 4.332 2.227 4.274 2.39 4.215 2.559 4.144 2.719 4.075 2.883 3.996 3.035 3.914 3.191 3.828 3.344 3.734 3.488 3.637L86 370.457l3.777 3.43 3.914 3.32 4.047 3.203 4.176 3.082 4.3 2.961 4.427 2.832 4.539 2.703 4.652 2.567 4.762 2.425 4.867 2.29 4.96 2.14 5.056 1.992 5.144 1.84 5.23 1.692 5.305 1.53 5.38 1.372 5.448 1.215 5.508 1.05 5.567.883 5.617.72 5.664.55 5.7.383 5.737.21 5.766.04 5.785-.133 5.805-.3 5.816-.477 5.82-.653 5.825-.82 5.812-.996 5.805-1.168 5.781-1.34 5.762-1.512 5.734-1.68 5.696-1.847 5.656-2.016 5.613-2.183 5.559-2.344 5.5-2.512 5.441-2.668 5.371-2.824 5.297-2.984 5.219-3.133 5.137-3.285 5.046-3.434 4.957-3.574 4.856-3.715 4.754-3.855 4.644-3.989 4.536-4.117 4.418-4.242 4.3-4.367 4.172-4.485 4.047-4.597 3.91-4.707 3.778-4.813 3.636-4.914 3.496-5.008 3.352-5.097 3.2-5.184 3.05-5.266 2.894-5.34 2.739-5.41 2.578-5.472 2.418-5.535 2.254-5.59 2.086-5.637 1.922-5.68 1.757-5.718 1.582-5.746 1.414-5.778 1.243-5.797 1.074-5.808.898-5.82.723-5.82.555-5.821.379-5.809.207-5.797.035-5.773-.137-5.75-.309-5.719-.476-5.68-.645-5.636-.812-5.59-.977-5.535-1.144-5.477-1.301-5.406-1.465-5.34-1.621-5.266-1.773-5.18-1.926-5.097-2.078-5.004-2.223-4.906-2.367-4.809-2.504-4.699-2.645-4.59-2.777-4.476-2.902-4.356-3.032-4.23-3.152-4.106-3.266-3.972-3.382-3.836-3.489-3.696-3.593-3.554-3.696-3.407-3.785-3.257-3.879-3.106-3.96-2.949-4.04-2.79-4.117-2.628-4.184-2.469-4.25-2.297-4.304-2.132-4.36-1.961-4.406-1.79-4.45-1.617-4.487-1.441-4.516-1.266-4.539-1.09-4.563-.914-4.574-.734-4.582-.555-4.582-.379-4.582-.195-4.57-.02-4.555.157-4.531.336-4.508.515-4.476.688-4.438.867-4.39 1.035-4.348 1.211-4.29 1.383-4.226 1.55-4.164 1.716-4.094 1.879-4.015 2.043-3.934 2.203-3.848 2.359-3.757 2.516-3.66 2.664-3.56 2.812-3.452 2.957-3.344 3.094-3.227 3.234-3.109 3.371-2.984 3.497-2.856 3.62-2.726 3.743-2.594 3.863-2.45 3.973-2.312 4.078-2.164 4.183-2.016 4.282-1.863 4.375-1.707 4.46-1.55 4.548-1.395 4.625-1.227 4.695-1.066 4.762-.899 4.828-.73 4.879-.559 4.933-.39 4.977-.215 5.02-.043 5.05.133 5.082.308 5.102.48 5.117.661 5.129.836 5.137 1.012 5.132 1.183 5.13 1.364 5.116 1.539 5.098 1.71 5.074 1.883 5.043 2.059 5.012 2.223 4.969 2.398 4.925 2.563 4.872 2.726 4.812 2.89 4.754 3.052 4.684 3.207 4.613 3.363 4.531 3.52 4.45 3.667 4.363 3.813 4.265 3.957 4.172 4.097 4.07 4.235 3.961 4.363 3.848 4.496 3.734 4.621 3.614 4.739 3.488 4.855 3.363 4.969 3.23 5.074 3.094 5.176 2.957 5.277 2.817 5.367 2.668 5.457 2.523 5.54 2.368 5.617 2.218 5.687 2.063 5.758 1.902 5.816 1.742 5.875 1.578 5.926 1.418 5.969 1.25 6.008 1.082 6.047.918 6.07.746 6.094.575 6.109.406 6.121.234 6.125.063 6.125-.11 6.121-.28 6.106-.45 6.09-.625 6.062-.79 6.035-.96 6-1.129 5.957-1.297 5.914-1.46 5.86-1.626 5.8-1.785 5.739-1.945 5.668-2.106 5.597-2.257 5.516-2.41 5.434-2.563 5.343-2.711 5.25-2.852 5.149-2.996 5.047-3.133 4.937-3.265 4.828-3.395 4.707-3.523 4.586-3.649 4.461-3.765 4.328-3.88 4.2-3.991 4.058-4.098 3.918-4.195 3.774-4.293 3.628-4.387 3.477-4.473 3.32-4.554 3.168-4.633 3.008-4.703 2.848-4.77 2.68-4.832 2.519-4.887 2.348-4.933 2.18-4.98 2.011-5.024 1.836-5.05 1.664-5.083 1.492-5.105 1.313-5.118 1.14-5.132.965-5.133.785-5.137.614-5.125.433-5.117.262-5.094.082-5.074-.09-5.043-.262-5.008-.437-4.965-.606-4.918-.773-4.867-.945-4.812-1.11-4.742-1.273-4.68-1.434-4.602-1.593-4.523-1.754-4.442-1.903-4.347-2.058-4.258-2.203-4.152-2.348-4.055-2.492-3.941-2.625-3.829-2.762-3.71-2.895-3.59-3.02-3.461-3.14-3.332-3.258-3.2-3.375-3.058-3.48-2.918-3.59-2.774-3.683-2.62-3.786-2.473-3.87-2.317-3.958-2.16-4.035-2-4.113-1.836-4.18-1.672zm0 0"/><path fill="#6f7555" d="M484.16 50.695l-4.246-1.504-4.305-1.336-4.359-1.164-4.406-.992-4.446-.816-4.484-.64-4.516-.466-4.543-.289-4.558-.113-4.574.07-4.582.246-4.582.426-4.582.602-4.57.785-4.555.96-4.536 1.138-4.507 1.312-4.477 1.492-4.437 1.664-4.395 1.836-4.348 2.008-4.289 2.176-4.234 2.344-4.164 2.511-4.098 2.672-4.02 2.832-3.937 2.992-3.855 3.149-3.762 3.297-3.664 3.449-3.567 3.59-3.46 3.734-3.352 3.875-3.238 4.008-3.117 4.14-2.997 4.266-2.87 4.387-2.743 4.508-2.605 4.62-2.47 4.731-2.327 4.836-2.184 4.934-2.035 5.027-1.887 5.121-1.734 5.203-1.578 5.286-1.418 5.359-1.262 5.426-1.098 5.492-.93 5.55-.769 5.602-.597 5.653-.434 5.691-.262 5.727-.09 5.757.082 5.782.254 5.8.426 5.813.602 5.82.77 5.82.945 5.817 1.117 5.809 1.289 5.789 1.46 5.77 1.634 5.741 1.8 5.707 1.965 5.668 2.137 5.625 2.297 5.575 2.46 5.52 2.622 5.456 2.781 5.39 2.938 5.321 3.09 5.246 3.242 5.16 3.386 5.075 3.536 4.98 3.675 4.887 3.817 4.785 3.949 4.676 4.078 4.57 4.207 4.453 4.332 4.332 4.45 4.211 4.566 4.082 4.675 3.953 4.782 3.817 4.883 3.68 4.98 3.534 5.074 3.395 5.16 3.242 5.239 3.094 5.32 2.941 5.39 2.782 5.458 2.625 5.515 2.464 5.575 2.305 5.625 2.137 5.667 1.969 5.707 1.804 5.739 1.633 5.77 1.465 5.788 1.293 5.809 1.121 5.816.95 5.82.777 5.821.601 5.813.43 5.8.258 5.785.086 5.758-.086 5.727-.258 5.691-.43 5.653-.598 5.601-.761 5.55-.93 5.493-1.094 5.43-1.258 5.36-1.414 5.288-1.574 5.203-1.73 5.121-1.883 5.036-2.035 4.933-2.18 4.84-2.324 4.73-2.469 4.622-2.601 4.511-2.739 4.39-2.867 4.27-2.992 4.141-3.117 4.012-3.235 3.875-3.351 3.738-3.457 3.598-3.563 3.449-3.668 3.3-3.758 3.15-3.851 2.995-3.938 2.836-4.02 2.676-4.093 2.516-4.164 2.347-4.23 2.18-4.29 2.012-4.343 1.84-4.395 1.668-4.437 1.492-4.477 1.32-4.508 1.14-4.535.965-4.555.786-4.57.605-4.578.43-4.586.25-4.582.074-4.574-.11-4.559-.285-4.543-.46-4.515-.637-4.485-.813-4.449-.988-4.406-1.16-4.36-1.332-4.304-1.5-4.246-1.668-4.184-1.836-4.113-1.996-4.04-2.156-3.956-2.313-3.875-2.469-3.785-2.62-3.688-2.77-3.59-2.914-3.484-3.055-3.375-3.195-3.262-3.332-3.144-3.457-3.02-3.586-2.894-3.711-2.766-3.824-2.633-3.942-2.492-4.05-2.352-4.153-2.207-4.254-2.058-4.348-1.91-4.437-1.754-4.52-1.598-4.601-1.438-4.676-1.277-4.746-1.113-4.809-.945-4.867-.782-4.918-.61-4.965-.437-5.004-.265-5.043-.094-5.074.078-5.093.258-5.118.43-5.125.61-5.133.784-5.136.957-5.13 1.137-5.12 1.312-5.106 1.485-5.082 1.664-5.054 1.832-5.02 2.008-4.98 2.176-4.938 2.343-4.887 2.516-4.832 2.68-4.773 2.84-4.703 3.007-4.633 3.16-4.559 3.32-4.472 3.473-4.387 3.625-4.297 3.77-4.2 3.918-4.1 4.055-3.993 4.195-3.883 4.328-3.765 4.457-3.649 4.582-3.527 4.707-3.399 4.824-3.269 4.934-3.137 5.043-2.996 5.148-2.855 5.25-2.715 5.34-2.563 5.43-2.418 5.515-2.261 5.594-2.106 5.672-1.949 5.734-1.79 5.801-1.628 5.86-1.465 5.91-1.297 5.957-1.133 6-.964 6.035-.797 6.062-.625 6.086-.453 6.106-.286 6.121-.113 6.125.059 6.125.23 6.121.403 6.113.574 6.094.742 6.07.91 6.043 1.082 6.012 1.246 5.973 1.414 5.926 1.575 5.875 1.738 5.816 1.902 5.758 2.059 5.691 2.21 5.617 2.368 5.543 2.52 5.457 2.667 5.371 2.809 5.278 2.957 5.18 3.09 5.074 3.226 4.972 3.36 4.856 3.488 4.742 3.613 4.625 3.73 4.496 3.849 4.367 3.957 4.239 4.066 4.097 4.168 3.961 4.266 3.817 4.359 3.671 4.45 3.52 4.53 3.367 4.61 3.215 4.683 3.055 4.75 2.89 4.813 2.73 4.87 2.567 4.923 2.399 4.969 2.23 5.011 2.059 5.043 1.89 5.074 1.715 5.098 1.54 5.117 1.366 5.125 1.192 5.137 1.012 5.133.84 5.133.663 5.117.485 5.101.312 5.082.137 5.051-.039 5.02-.215 4.976-.383 4.934-.558 4.883-.727 4.828-.894 4.765-1.063 4.696-1.226 4.629-1.387 4.547-1.547 4.464-1.707 4.375-1.86 4.282-2.011 4.187-2.16 4.082-2.309 3.973-2.45 3.863-2.589 3.746-2.723 3.625-2.855 3.5-2.98 3.371-3.106 3.239-3.227 3.097-3.34 2.961-3.449 2.817-3.558 2.664-3.66 2.52-3.754 2.362-3.844 2.204-3.934 2.046-4.015 1.883-4.09 1.723-4.16 1.55-4.23 1.387-4.286 1.215-4.344 1.04-4.394.87-4.434.692-4.476.515-4.504.34-4.535.164-4.555-.015-4.57-.196-4.582-.37-4.582-.555-4.582-.73-4.575-.907-4.558-1.086-4.543-1.266-4.516-1.437-4.488-1.613-4.45-1.786-4.406-1.957-4.363-2.129-4.309-2.296-4.246-2.461-4.187-2.625-4.117-2.79-4.043-2.945-3.961-3.101-3.88-3.254-3.788-3.403-3.695-3.55-3.598-3.696-3.492-3.832-3.383-3.968-3.27-4.102-3.156-4.23-3.031-4.356-2.906-4.473-2.782-4.585-2.644-4.7-2.508-4.804-2.371-4.907-2.227-5-2.078-5.097-1.93-5.18-1.777-5.262-1.625-5.336-1.465-5.406-1.308-5.476-1.145-5.532-.98-5.59-.817-5.636-.648-5.68-.48-5.715-.313-5.75-.14-5.773.034-5.797.204-5.809.375-5.82.546-5.82.723-5.82.895-5.81 1.066-5.796 1.242-5.777 1.41-5.75 1.582-5.72 1.75-5.679 1.918-5.637 2.086-5.59 2.25-5.535 2.414-5.476 2.575-5.414 2.734-5.34 2.894-5.266 3.043-5.187 3.2-5.098 3.347-5.012 3.493-4.914 3.632-4.812 3.774-4.711 3.91-4.602 4.043-4.484 4.172-4.371 4.293-4.246 4.418-4.121 4.531-3.989 4.644-3.855 4.75-3.723 4.856-3.578 4.953-3.433 5.047-3.29 5.133-3.136 5.219-2.985 5.296-2.832 5.372-2.671 5.437-2.512 5.5-2.348 5.559-2.187 5.609-2.02 5.652-1.851 5.7-1.684 5.73-1.512 5.762-1.344 5.785-1.171 5.8-1 5.813-.825 5.824-.656 5.82-.48 5.817-.305 5.805-.137 5.785.035 5.766.211 5.738.375 5.703.551 5.664.715 5.617.879 5.567 1.047 5.511 1.21 5.45 1.368 5.378 1.531 5.31 1.684 5.23 1.84 5.144 1.988 5.059 2.14 4.965 2.282 4.867 2.426 4.761 2.562 4.657 2.7 4.543 2.827 4.425 2.961 4.305 3.078 4.18 3.204 4.05 3.316 3.915 3.426 3.78 3.535 3.638 3.633 3.492 3.734 3.347 3.824 3.192 3.914 3.043 3.996 2.883 4.07 2.722 4.145 2.563 4.211 2.394 4.274 2.23 4.332 2.06 4.379 1.89 4.425 1.719 4.465 1.543 4.5 1.37 4.524 1.192 4.55 1.016 4.567.84 4.578.66 4.586.48 4.582.301 4.574.125 4.567-.055 4.546-.234 4.524-.41 4.496-.586 4.46-.762 4.419-.937 4.371-1.11 4.324-1.28 4.266-1.454 4.2-1.617 4.136-1.785zm0 0"/><path fill="#4b6e7b" d="M491.176 666.39l4.058-1.949 3.985-2.109 3.898-2.27 3.813-2.425 3.715-2.574 3.62-2.727 3.516-2.875 3.407-3.016 3.292-3.152 3.18-3.293 3.059-3.422 2.933-3.547 2.801-3.676 2.672-3.793 2.535-3.906 2.39-4.02 2.25-4.12 2.102-4.227 1.953-4.32 1.801-4.41 1.645-4.5 1.484-4.579 1.324-4.652 1.16-4.726.997-4.79.828-4.851.66-4.902.488-4.954.317-4.996.144-5.03-.031-5.063-.203-5.09-.383-5.11-.555-5.125-.73-5.132-.91-5.137-1.086-5.133-1.258-5.121-1.438-5.11-1.609-5.09-1.781-5.062-1.957-5.031-2.13-4.992-2.296-4.953-2.465-4.903-2.629-4.847-2.797-4.79-2.957-4.726-3.117-4.652-3.273-4.582-3.43-4.496-3.578-4.414-3.73-4.325-3.876-4.226-4.015-4.13-4.153-4.023-4.289-3.918-4.422-3.8-4.546-3.684-4.668-3.562-4.79-3.438-4.906-3.309-5.011-3.171-5.118-3.04-5.218-2.898-5.317-2.754-5.406-2.61-5.488-2.456-5.575-2.309-5.648-2.152-5.715-1.996-5.785-1.836-5.84-1.676-5.894-1.512-5.946-1.347-5.988-1.18-6.023-1.012-6.055-.847-6.082-.672-6.102-.508-6.117-.332-6.12-.164-6.13.012-6.12.18-6.118.35-6.098.524-6.078.692-6.055.863-6.02 1.031-5.983 1.195-5.938 1.368-5.89 1.527-5.837 1.691-5.777 1.856-5.71 2.012-5.641 2.168-5.563 2.324-5.484 2.472-5.395 2.625-5.305 2.77-5.21 2.91-5.106 3.055-5 3.187-4.894 3.32-4.774 3.45-4.66 3.578-4.535 3.695-4.406 3.813-4.274 3.93-4.14 4.035-4 4.136-3.86 4.239-3.715 4.332-3.562 4.425-3.414 4.508-3.258 4.586-3.102 4.66-2.941 4.735-2.777 4.793-2.614 4.855-2.449 4.91-2.277 4.953-2.11 5-1.937 5.036-1.766 5.066-1.594 5.09-1.414 5.11-1.242 5.124-1.066 5.133-.89 5.137-.716 5.133-.539 5.12-.36 5.11-.187 5.086-.011 5.062.16 5.028.336 4.992.508 4.945.675 4.899.848 4.843 1.012 4.786 1.18 4.718 1.34 4.645 1.5 4.57 1.66 4.489 1.816 4.406 1.969 4.308 2.117 4.215 2.265 4.114 2.407 4.007 2.55 3.895 2.684 3.781 2.816 3.66 2.946 3.535 3.07 3.41 3.191 3.278 3.31 3.14 3.417 3 3.527 2.856 3.63 2.71 3.726 2.563 3.82 2.407 3.906 2.254 3.993 2.093 4.07 1.93 4.14 1.77 4.208 1.601 4.273 1.434 4.328 1.261 4.375 1.094 4.426.918 4.465.746 4.496.567 4.527.394 4.551.215 4.566.035 4.575-.144 4.586-.32 4.582-.5 4.578-.676 4.562-.86 4.551-1.031 4.523-1.215 4.497-1.387 4.46-1.562 4.418-1.735 4.38-1.91 4.32-2.078 4.27-2.246 4.202-2.414 4.137-2.578 4.066-2.738 3.989-2.903 3.902-3.054 3.816-3.211 3.723-3.36 3.625-3.508 3.524-3.652 3.414-3.793 3.304-3.933 3.188-4.063 3.07-4.191 2.945-4.317 2.817-4.441 2.683-4.555 2.547-4.664 2.414-4.773 2.266-4.88 2.125-4.976 1.973-5.066 1.824-5.156 1.668-5.239 1.512-5.316 1.351-5.387 1.195-5.453 1.028-5.52.863-5.57.7-5.625.53-5.668.36-5.703.191-5.742.016-5.77-.152-5.789-.325-5.804-.5-5.817-.672-5.824-.843-5.82-1.016-5.813-1.191-5.8-1.36-5.782-1.53-5.758-1.704-5.73-1.867-5.692-2.04-5.652-2.202-5.601-2.364-5.555-2.531-5.492-2.687-5.43-2.848-5.363-3-5.29-3.152-5.21-3.305-5.125-3.45-5.035-3.593-4.946-3.735-4.844-3.87-4.738-4.005-4.633-4.132-4.52-4.258-4.405-4.383-4.282-4.5-4.156-4.61-4.031-4.722-3.895-4.824-3.761-4.926-3.618-5.016-3.476-5.109-3.332-5.195-3.184-5.274-3.027-5.351-2.875-5.418-2.719-5.48-2.558-5.544-2.399-5.593-2.234-5.645-2.067-5.684-1.902-5.722-1.734-5.754-1.563-5.777-1.39-5.797-1.223-5.813-1.05-5.82-.876-5.82-.703-5.82-.531-5.81-.36-5.792-.183-5.774-.016-5.746.16-5.71.328-5.677.496-5.632.668-5.582.832-5.528 1-5.469 1.16-5.398 1.325-5.332 1.48-5.25 1.64-5.172 1.798-5.086 1.945-4.992 2.094-4.895 2.242-4.796 2.383-4.688 2.523-4.574 2.66-4.461 2.793-4.34 2.918-4.219 3.047-4.086 3.168-3.957 3.281-3.816 3.395-3.68 3.504-3.535 3.605-3.39 3.707-3.239 3.797-3.086 3.887-2.93 3.973-2.769 4.05-2.61 4.125-2.44 4.192-2.282 4.258-2.11 4.312-1.94 4.367-1.766 4.41-1.598 4.454-1.418 4.492-1.246 4.52-1.066 4.542-.891 4.563-.711 4.574-.535 4.582-.356 4.586-.175 4.578.003 4.57.18 4.551.36 4.531.535 4.504.715 4.473.882 4.43 1.063 4.386 1.23 4.34 1.403 4.282 1.57 4.218 1.738 4.157 1.903 4.082 2.062 4.007 2.223 3.922 2.379 3.84 2.53 3.742 2.684 3.649 2.829 3.547 2.976 3.437 3.113 3.328 3.25 3.215 3.387 3.094 3.512 2.969 3.637 2.84 3.757 2.71 3.875 2.575 3.989 2.433 4.093 2.293 4.196 2.145 4.293 1.996 4.383 1.847 4.476 1.688 4.555 1.531 4.633 1.371 4.703 1.211 4.773 1.043 4.832.875 4.89.711 4.938.54 4.985.366 5.02.196 5.054.02 5.082-.153 5.105-.332 5.121-.504 5.133-.68 5.133-.86 5.133-1.03 5.129-1.211 5.113-1.383 5.098-1.559 5.07-1.734 5.04-1.906 5.007-2.075 4.96-2.25 4.919-2.414 4.867-2.582 4.805-2.75 4.746-2.91 4.676-3.07 4.601-3.23 4.524-3.383 4.437-3.536 4.352-3.687 4.254-3.832 4.16-3.973 4.054-4.113 3.946-4.254 3.836-4.379 3.718-4.512 3.598-4.636 3.477-4.754 3.343-4.871 3.215-4.98 3.078-5.087 2.938-5.191 2.797-5.285 2.652-5.383 2.504-5.465 2.352-5.55 2.195-5.626 2.043-5.699 1.883-5.762 1.722-5.824 1.559-5.883 1.394-5.93 1.23-5.976 1.063-6.012.895-6.046.726-6.079.555-6.093.383-6.114.21-6.12.044-6.126-.133-6.125-.3-6.12-.473-6.102-.645-6.086-.812-6.063-.98-6.031-1.153-5.992-1.313-5.953-1.484-5.907-1.645-5.851-1.804-5.793-1.965-5.73-2.125-5.665-2.277-5.586-2.43-5.504-2.582-5.425-2.727-5.332-2.87-5.235-3.013-5.136-3.148-5.036-3.285-4.922-3.41-4.812-3.54-4.691-3.663-4.57-3.782-4.446-3.89-4.313-4.004-4.18-4.11-4.042-4.21-3.903-4.305-3.753-4.399-3.61-4.484-3.457-4.563-3.305-4.64-3.144-4.715-2.988-4.777-2.828-4.836-2.66-4.895-2.497-4.941-2.328-4.988-2.16-5.024-1.988-5.059-1.817-5.082-1.64-5.105-1.47-5.121-1.292-5.133-1.117-5.137-.942-5.132-.765-5.125-.59-5.114-.414-5.094-.238-5.07-.063-5.039.113-5 .286-4.96.457-4.915.625-4.86.796-4.8.965-4.738 1.13-4.668 1.296-4.594 1.453-4.516 1.613-4.425 1.77-4.34 1.926-4.242 2.074-4.145 2.223-4.035 2.367-3.93 2.508-3.816 2.644-3.696 2.778-3.57 2.91-3.45 3.035-3.312 3.156-3.183 3.274-3.04 3.386-2.902 3.496-2.754 3.598-2.605 3.7-2.453 3.792-2.297 3.883-2.14 3.969-1.977 4.047-1.817 4.12-1.652 4.188zm0 0"/><path fill="#48211a" d="M50.496 236.367l-1.48 4.254-1.317 4.313-1.14 4.363-.97 4.414-.796 4.45-.621 4.487-.442 4.52-.265 4.543-.09 4.562.09 4.575.27 4.582.449 4.586.625 4.578.804 4.57.985 4.555 1.156 4.531 1.336 4.504 1.512 4.473 1.687 4.433 1.86 4.387 2.027 4.34 2.199 4.285 2.363 4.223 2.532 4.156 2.69 4.086 2.856 4.011 3.012 3.93 3.164 3.84 3.317 3.75 3.464 3.656 3.614 3.551 3.754 3.45 3.89 3.335 4.024 3.223 4.156 3.105 4.281 2.98 4.403 2.856 4.52 2.723 4.636 2.59 4.742 2.449 4.848 2.312 4.949 2.164 5.039 2.02 5.129 1.867 5.215 1.711 5.297 1.559 5.367 1.402 5.433 1.238 5.5 1.079 5.559.91 5.605.746 5.657.582 5.695.406 5.734.242 5.758.07 5.785-.105 5.801-.273 5.816-.45 5.82-.62 5.821-.794 5.816-.968 5.805-1.137 5.79-1.313 5.765-1.48 5.738-1.652 5.703-1.82 5.664-1.989 5.618-2.156 5.57-2.317 5.512-2.484 5.449-2.64 5.383-2.801 5.308-2.957 5.235-3.11 5.152-3.258 5.062-3.41 4.97-3.55 4.874-3.692 4.77-3.832 4.664-3.965 4.554-4.098 4.438-4.222 4.316-4.348 4.196-4.465 4.066-4.578 3.938-4.687 3.796-4.797 3.664-4.895 3.52-4.992 3.371-5.086 3.227-5.168 3.074-5.254 2.922-5.324 2.765-5.402 2.606-5.461 2.441-5.528 2.282-5.578 2.117-5.633 1.949-5.671 1.785-5.711 1.613-5.746 1.442-5.77 1.27-5.793 1.1-5.809.927-5.816.754-5.824.582-5.817.41-5.812.234-5.8.063-5.778-.106-5.754-.281-5.727-.45-5.687-.616-5.645-.786-5.597-.949-5.543-1.113-5.485-1.277-5.422-1.438-5.351-1.594-5.274-1.75-5.195-1.898-5.113-2.055-5.02-2.2-4.922-2.339-4.824-2.484-4.719-2.621-4.609-2.754-4.496-2.883-4.375-3.008-4.254-3.133-4.125-3.25-3.996-3.363-3.86-3.473-3.718-3.574-3.578-3.68-3.434-3.77-3.281-3.862-3.129-3.946-2.977-4.031-2.816-4.102-2.656-4.171-2.492-4.239-2.329-4.297-2.16-4.351-1.988-4.402-1.82-4.442-1.645-4.48-1.472-4.512-1.297-4.535-1.118-4.559-.94-4.57-.767-4.582-.586-4.582-.406-4.582-.226-4.574-.051-4.559.129-4.535.308-4.516.485-4.48.66-4.442.836-4.402 1.008-4.352 1.183-4.3 1.352-4.239 1.52-4.175 1.69-4.102 1.852-4.031 2.016-3.95 2.18-3.859 2.332-3.773 2.488-3.676 2.637-3.578 2.789-3.469 2.933-3.363 3.075-3.246 3.21-3.13 3.348-3.007 3.473-2.879 3.601-2.746 3.727-2.613 3.84-2.477 3.953-2.336 4.062-2.187 4.168-2.04 4.266-1.89 4.36-1.734 4.445-1.578 4.535-1.418 4.61-1.258 4.683-1.09 4.754-.926 4.816-.758 4.871-.59 4.926-.418 4.969-.246 5.011-.07 5.047.102 5.075.277 5.101.453 5.113.633 5.13.805 5.136.98 5.133 1.16 5.129 1.332 5.12 1.508 5.102 1.684 5.079 1.855 5.05 2.027 5.016 2.196 4.976 2.367 4.93 2.535 4.883 2.7 4.824 2.863 4.762 3.027 4.695 3.18 4.625 3.34 4.547 3.492 4.465 3.644 4.375 3.79 4.285 3.933 4.188 4.074 4.086 4.211 3.976 4.344 3.871 4.472 3.754 4.598 3.633 4.723 3.512 4.836 3.382 4.949 3.254 5.059 3.118 5.16 2.98 5.257 2.836 5.356 2.695 5.441 2.547 5.524 2.395 5.605 2.242 5.676 2.09 5.746 1.925 5.809 1.77 5.863 1.61 5.918 1.445 5.965 1.277 6 1.11 6.039.945 6.066.773 6.09.606 6.11.433 6.12.262 6.126.09 6.125-.078 6.12-.254 6.11-.422 6.09-.594 6.07-.765 6.04-.93 6.007-1.102 5.965-1.27 5.918-1.433 5.871-1.598 5.809-1.757 5.75-1.918 5.683-2.078 5.61-2.235 5.53-2.387 5.446-2.535 5.36-2.687 5.265-2.828 5.168-2.973 5.063-3.11 4.957-3.241 4.843-3.375 4.727-3.504 4.605-3.625 4.485-3.747 4.351-3.863 4.22-3.972 4.081-4.079 3.942-4.18 3.8-4.277 3.653-4.37 3.5-4.462 3.347-4.543 3.196-4.617 3.03-4.691 2.876-4.758 2.71-4.82 2.544-4.88 2.379-4.929 2.207-4.973 2.039-5.015 1.867-5.047 1.691-5.078 1.52-5.102 1.344-5.117 1.172-5.129.992-5.133.816-5.136.64-5.13.466-5.116.289-5.098.113-5.078-.063-5.047-.234-5.016-.406-4.972-.578-4.926-.746-4.88-.918-4.815-1.082-4.758-1.246-4.692-1.407-4.613-1.57-4.54-1.723-4.452-1.879-4.363-2.03-4.274-2.18-4.172-2.325-4.07-2.469-3.961-2.605-3.848-2.738-3.73-2.871-3.61-3-3.484-3.121-3.351-3.239-3.223-3.355-3.082-3.465-2.942-3.57-2.796-3.668-2.649-3.77-2.496-3.855-2.344-3.942-2.187-4.027-2.028-4.098-1.863-4.172-1.7-4.234-1.53-4.297-1.364-4.348-1.191-4.398-1.023-4.441-.844-4.477-.672-4.512-.496-4.539-.317-4.554-.14-4.575.039-4.578.215-4.586.394-4.578.574-4.574.754-4.559.93-4.539 1.11-4.511 1.285-4.485 1.46-4.445 1.633-4.402 1.809-4.352 1.98-4.3 2.149-4.243 2.316-4.18 2.485-4.105 2.644-4.035 2.809-3.953 2.965-3.868 3.12-3.777 3.274-3.684 3.422-3.582 3.566-3.476 3.715-3.371 3.848-3.258 3.988-3.137 4.117-3.02 4.246-2.89 4.368-2.762 4.488-2.629 4.602-2.492 4.71-2.351 4.82-2.207 4.919-2.063 5.011-1.91 5.106-1.762 5.191-1.601 5.27-1.446 5.347-1.289 5.418-1.125 5.48-.96 5.54-.794 5.594-.628 5.644-.457 5.684-.29 5.723-.12 5.75.054 5.78.223 5.798.398 5.812.57 5.817.743 5.824.918 5.816 1.09 5.809 1.257 5.793 1.434 5.773 1.601 5.746 1.774 5.715 1.937 5.676 2.11 5.633 2.27 5.582 2.433 5.531 2.598 5.465 2.753 5.406 2.91 5.332 3.063 5.254 3.219 5.176 3.363 5.09 3.512 5 3.652 4.898 3.793 4.805 3.926 4.695 4.059 4.586 4.187 4.473 4.309 4.351 4.43 4.23 4.546 4.106 4.656 3.973 4.766 3.84 4.867 3.703 4.965 3.562 5.059 3.414 5.144 3.27 5.227 3.121 5.308 2.965 5.38 2.808 5.445 2.653 5.507 2.492 5.563 2.328 5.617 2.168 5.66 1.996 5.703 1.832 5.735 1.664 5.765 1.492 5.786 1.32 5.804 1.15 5.817.98 5.82.804 5.82.63 5.817.46 5.8.285 5.786.114 5.761-.059 5.735-.227 5.699-.402 5.656-.566 5.613-.739 5.559-.898 5.504-1.07 5.441-1.227 5.371-1.39 5.297-1.551 5.223-1.703 5.137-1.856 5.043-2.012 4.953-2.156 4.855-2.3 4.75-2.442 4.64-2.582 4.532-2.715 4.41-2.844 4.29-2.976 4.163-3.094 4.032-3.215 3.898-3.332 3.762-3.441 3.62-3.547 3.474-3.645 3.328-3.746 3.175-3.836 3.02-3.922 2.863-4.007 2.703-4.082 2.543-4.153 2.375-4.219 2.207-4.28 2.04-4.337 1.87-4.386 1.696-4.43 1.523-4.469 1.344-4.504 1.172-4.531.996-4.55.813-4.571.64-4.578.457-4.582.281-4.582.102-4.578-.078-4.563-.254-4.543-.434-4.52-.609-4.492-.785-4.457-.957-4.41-1.133-4.37-1.3-4.313-1.473-4.258-1.641-4.196zm0 0"/></g></svg>