<svg xmlns="http://www.w3.org/2000/svg" viewBox="0 0 720 720"><defs/><defs><radialGradient id="a" cx=".5" cy=".5" r=".5" fx=".5" fy=".5"><stop offset="27%" stop-color="#FFF"/><stop offset="34%"/><stop offset="93%"/><stop offset="100%" stop-color="#FFF"/></radialGradient></defs><rect width="100%" height="100%" fill="url(#a)" rx="50%" ry="50%"/><g fill-opacity=".698" fill-rule="evenodd"><path fill="#b36436" d="M693.332 360h-.14l-.426-.008-.703-.023-.989-.04-1.27-.066-1.546-.101-1.82-.14-2.094-.188-2.367-.239-2.633-.297-2.895-.359-3.156-.43-3.41-.507-3.66-.586-3.907-.676-4.148-.766-4.379-.863-4.605-.965-4.832-1.07-5.043-1.18-5.25-1.297-5.454-1.41-5.648-1.535-5.832-1.66-6.008-1.785-6.18-1.914-6.343-2.051-6.492-2.18-6.637-2.32-6.774-2.453-6.898-2.594-7.016-2.73-7.125-2.872-7.222-3.011-7.309-3.149-7.39-3.289-7.461-3.426-7.524-3.558-7.574-3.696-7.613-3.824-7.645-3.957-7.668-4.082-7.683-4.207-7.684-4.324-7.68-4.445-7.664-4.555-7.637-4.664-7.609-4.77-7.562-4.867-7.516-4.96zm0 0"/><path fill="#b39336" d="M429.21 255.91l-7.452-5.05-7.387-5.13-7.312-5.207-7.227-5.277-7.137-5.34-7.035-5.398-6.933-5.446-6.817-5.492-6.7-5.523-6.573-5.55-6.438-5.571-6.304-5.586-6.157-5.586-6.011-5.582-5.856-5.57-5.695-5.547-5.535-5.52-5.371-5.476-5.196-5.434-5.027-5.379-4.848-5.312-4.672-5.243-4.488-5.156-4.309-5.07-4.12-4.969-3.942-4.863-3.75-4.746-3.566-4.621-3.38-4.489-3.195-4.347-3.011-4.2-2.825-4.043-2.644-3.874-2.461-3.708-2.285-3.523-2.106-3.34-1.933-3.144-1.762-2.946-1.594-2.734-1.433-2.527-1.27-2.305-1.117-2.078-.965-1.852-.816-1.613-.676-1.375-.54-1.129-.405-.883-.286-.629-.16-.37-.05-.118zm0 0"/><path fill="#a3b336" d="M232.438 52.04l.062.148.16.414.258.675.344.946.43 1.215.5 1.484.574 1.75.632 2.027.688 2.293.738 2.563.778 2.828.812 3.097.836 3.36.86 3.625.87 3.883.88 4.14.878 4.39.871 4.642.86 4.886.84 5.13.812 5.362.777 5.59.743 5.82.695 6.036.648 6.25.59 6.453.531 6.652.465 6.848.395 7.031.316 7.207.239 7.375.156 7.54.066 7.687-.02 7.836-.12 7.968-.215 8.094-.313 8.211-.418 8.316-.523 8.415-.625 8.503-.735 8.583-.847 8.652-.953 8.71-1.063 8.759-1.172 8.796-1.285 8.825-1.39 8.843-1.504 8.852-1.61 8.852-1.71 8.84zm0 0"/><path fill="#74b336" d="M237.238 336.441l-1.82 8.817-1.918 8.789-2.02 8.742-2.117 8.695-2.207 8.633-2.3 8.563-2.383 8.48-2.47 8.395-2.542 8.297-2.621 8.191-2.688 8.074-2.75 7.95-2.804 7.82-2.864 7.68-2.906 7.53-2.95 7.376-2.98 7.214-3.011 7.047-3.032 6.871-3.042 6.692-3.055 6.5-3.055 6.308-3.047 6.11-3.035 5.906-3.012 5.695-2.98 5.489-2.945 5.27-2.903 5.046-2.851 4.828-2.79 4.602-2.722 4.37-2.648 4.145-2.567 3.91-2.476 3.68-2.375 3.442-2.274 3.21-2.156 2.977-2.04 2.738-1.91 2.508-1.773 2.274-1.637 2.043-1.484 1.812-1.332 1.582-1.168 1.36-1 1.136-.824.918-.649.7-.46.488-.27.281-.074.074zm0 0"/><path fill="#45b336" d="M124.3 595.7l.126-.122.332-.32.539-.508.754-.691.972-.871 1.192-1.043 1.418-1.211 1.64-1.368 1.868-1.523 2.101-1.672 2.332-1.808 2.567-1.946 2.797-2.066 3.035-2.188 3.265-2.3 3.504-2.403 3.738-2.496 3.97-2.586 4.198-2.668 4.43-2.742 4.66-2.805 4.883-2.863 5.102-2.914 5.324-2.957 5.539-2.992 5.75-3.016 5.957-3.039 6.16-3.047 6.36-3.055 6.546-3.054 6.735-3.043 6.918-3.028 7.086-3 7.257-2.976 7.415-2.938 7.57-2.894 7.715-2.852 7.855-2.793 7.98-2.734 8.106-2.672 8.215-2.598 8.324-2.527 8.418-2.445 8.504-2.363 8.578-2.278 8.649-2.187 8.707-2.09 8.757-1.996 8.793-1.895 8.825-1.793zm0 0"/><path fill="#36b355" d="M385.766 482.324l8.843-1.687 8.852-1.582 8.851-1.473 8.84-1.367 8.82-1.254 8.79-1.149 8.746-1.035 8.695-.925 8.637-.817 8.562-.71 8.48-.598 8.395-.497 8.293-.39 8.18-.293 8.066-.188 7.934-.093h7.797l7.652.09 7.5.175 7.332.258 7.164.34 6.989.41 6.796.484 6.606.543 6.402.606 6.2.66 5.98.711 5.762.75 5.535.789 5.305.816 5.066.844 4.828.863 4.578.875 4.328.88 4.078.878 3.817.867 3.558.856 3.297.832 3.028.805 2.765.765 2.496.727 2.223.676 1.957.617 1.688.558 1.414.485 1.148.406.879.324.61.235.347.136.082.032zm0 0"/><path fill="#36b384" d="M667.957 487.559l-.18-.075-.437-.191-.692-.316-.945-.438-1.191-.574-1.434-.711-1.676-.852-1.906-1.004-2.137-1.152-2.363-1.312-2.578-1.473-2.79-1.637-2.995-1.804-3.192-1.977-3.386-2.148-3.57-2.329-3.75-2.507-3.919-2.688-4.082-2.871-4.238-3.059-4.383-3.238-4.523-3.43-4.653-3.613-4.777-3.797-4.89-3.984-4.993-4.168-5.093-4.356-5.18-4.535-5.258-4.715-5.332-4.894-5.39-5.066-5.446-5.243-5.492-5.41-5.527-5.574-5.551-5.738-5.574-5.895-5.586-6.047-5.586-6.195-5.582-6.336-5.567-6.477-5.543-6.605-5.52-6.727-5.476-6.847-5.437-6.957-5.383-7.067-5.324-7.156-5.262-7.25-5.188-7.332-5.113-7.406-5.027-7.469zm0 0"/><path fill="#36b3b3" d="M462.84 288.914l-4.938-7.527-4.84-7.575-4.746-7.617-4.636-7.644-4.528-7.668-4.414-7.684-4.297-7.683-4.175-7.68-4.051-7.664-3.926-7.637-3.793-7.605-3.66-7.563-3.527-7.508-3.391-7.441-3.254-7.375-3.113-7.29-2.977-7.198-2.836-7.098-2.695-6.984-2.559-6.871-2.421-6.739-2.286-6.601-2.148-6.457-2.016-6.301-1.883-6.137-1.753-5.969-1.625-5.785-1.504-5.597-1.383-5.407-1.266-5.199-1.152-4.992-1.043-4.773-.942-4.551-.835-4.32-.743-4.09-.652-3.844-.57-3.598-.485-3.347-.414-3.09-.343-2.832-.282-2.567-.222-2.297-.176-2.027-.13-1.754-.093-1.476-.058-1.2-.036-.918-.015-.632-.008-.356v-.07zm0 0"/><path fill="#3684b3" d="M360 26.676l-.004.21-.008.497-.027.777-.047 1.059-.074 1.336-.11 1.617-.152 1.89-.2 2.16-.25 2.434-.312 2.7-.378 2.96-.45 3.22-.523 3.476-.61 3.722-.699 3.965-.789 4.203-.887 4.438-.992 4.664-1.097 4.883-1.207 5.097-1.325 5.305-1.445 5.5-1.562 5.695-1.692 5.875-1.816 6.055-1.95 6.219-2.082 6.383-2.214 6.527-2.352 6.672-2.492 6.805-2.629 6.93-2.766 7.042-2.906 7.153-3.043 7.246-3.183 7.332-3.325 7.406-3.457 7.48-3.593 7.536-3.727 7.582-3.86 7.62-3.988 7.657-4.113 7.672-4.238 7.68-4.356 7.687-4.472 7.676-4.582 7.656-4.692 7.633-4.793 7.597-4.89 7.551-4.985 7.5zm0 0"/><path fill="#3655b3" d="M254.656 292.656l-5.07 7.438-5.152 7.37-5.223 7.29-5.293 7.207-5.356 7.113-5.41 7.012-5.46 6.902-5.497 6.79-5.535 6.667-5.555 6.54-5.574 6.406-5.586 6.265-5.586 6.125-5.582 5.969-5.562 5.816-5.543 5.66-5.508 5.493-5.469 5.324-5.422 5.156-5.363 4.98-5.293 4.805-5.222 4.63-5.137 4.44-5.043 4.262-4.945 4.079-4.832 3.89-4.715 3.707-4.59 3.52-4.457 3.332-4.309 3.148-4.16 2.965-4.004 2.781-3.832 2.598-3.664 2.414-3.477 2.242-3.293 2.063-3.093 1.89-2.895 1.72-2.683 1.554-2.47 1.39-2.25 1.23-2.023 1.079-1.793.926-1.554.785-1.313.64-1.07.504-.816.375-.567.254-.308.133-.047.02zm0 0"/><path fill="#4536b3" d="M52.055 487.555l.21-.086.481-.184.742-.281 1.012-.367 1.281-.446 1.551-.52 1.82-.589 2.094-.648 2.36-.7 2.628-.75 2.899-.785 3.164-.82 3.426-.844 3.687-.863 3.95-.875 4.203-.879 4.453-.875 4.703-.871 4.949-.852 5.184-.832 5.421-.804 5.649-.77 5.875-.73 6.09-.688 6.3-.633 6.504-.574 6.704-.516 6.894-.449 7.074-.375 7.25-.297 7.418-.218 7.574-.137 7.727-.043 7.871.047 8 .14 8.121.239 8.238.34 8.344.445 8.442.547 8.523.656 8.602.762 8.664.87 8.722.981 8.77 1.09 8.805 1.203 8.832 1.309 8.847 1.422 8.852 1.527 8.848 1.637 8.835 1.738zm0 0"/><path fill="#7436b3" d="M338.648 483.207l8.809 1.844 8.777 1.945 8.735 2.043 8.68 2.14 8.613 2.231 8.547 2.32 8.46 2.407 8.372 2.488 8.27 2.563 8.16 2.636 8.046 2.703 7.918 2.766 7.785 2.82 7.64 2.875 7.497 2.918 7.336 2.957 7.176 2.989 7 3.015 6.828 3.035 6.64 3.051 6.454 3.055 6.261 3.05 6.059 3.047 5.851 3.028 5.649 3.004 5.43 2.976 5.214 2.934 4.997 2.89 4.77 2.836 4.542 2.774 4.316 2.707 4.086 2.625 3.852 2.547 3.621 2.449 3.383 2.352 3.152 2.242 2.918 2.129 2.68 2.007 2.45 1.88 2.214 1.738 1.984 1.597 1.758 1.45 1.527 1.289 1.301 1.129 1.082.957.864.78.648.602.434.414.23.223.024.024zm0 0"/><path fill="#a336b3" d="M595.688 595.688l-.172-.176-.368-.383-.554-.594-.739-.808-.914-1.028-1.086-1.246-1.25-1.473-1.406-1.699-1.562-1.926-1.703-2.16-1.844-2.39-1.977-2.621-2.097-2.86-2.22-3.09-2.323-3.328-2.426-3.562-2.524-3.793-2.605-4.028-2.688-4.257-2.757-4.489-2.82-4.715-2.88-4.937-2.921-5.16-2.97-5.38-2.995-5.589-3.024-5.805-3.043-6.007-3.05-6.207-3.055-6.407-3.05-6.597-3.04-6.782-3.02-6.957-3-7.132-2.964-7.297-2.926-7.453-2.887-7.61-2.836-7.75-2.777-7.883-2.719-8.015-2.656-8.133-2.582-8.246-2.504-8.344-2.43-8.441-2.34-8.524-2.254-8.597-2.164-8.664-2.066-8.723-1.973-8.766-1.867-8.8-1.765-8.833zm0 0"/><path fill="#b33693" d="M481.895 332.023l-1.665-8.843-1.554-8.856-1.446-8.847-1.34-8.836-1.226-8.813-1.121-8.781-1.008-8.735-.898-8.68-.79-8.616-.683-8.547-.574-8.461-.469-8.367-.363-8.266-.266-8.152-.168-8.036-.066-7.898.02-7.766.113-7.613.199-7.457.277-7.293.36-7.12.43-6.938.495-6.754.563-6.555.617-6.352.676-6.144.719-5.926.761-5.707.793-5.477.828-5.246.848-5.007.867-4.766.875-4.516.88-4.265.874-4.012.867-3.754.852-3.492.824-3.23.797-2.965.758-2.696.715-2.43.66-2.156.601-1.89.54-1.617.468-1.348.387-1.082.3-.809.212-.547.109-.277.008-.016zm0 0"/><path fill="#b33664" d="M487.55 52.066l-.105.243-.218.5-.348.757-.473 1.004-.605 1.254-.746 1.496-.89 1.735-1.04 1.965-1.191 2.19-1.352 2.419-1.516 2.629-1.675 2.844-1.848 3.043-2.02 3.242-2.195 3.433-2.371 3.618-2.555 3.792-2.734 3.961-2.918 4.121-3.102 4.274-3.285 4.418-3.472 4.558-3.66 4.684-3.848 4.805-4.031 4.918-4.215 5.02-4.399 5.113-4.578 5.203-4.762 5.277-4.937 5.344-5.11 5.406-5.285 5.461-5.453 5.5-5.617 5.535-5.777 5.559-5.934 5.574-6.082 5.586-6.23 5.586-6.375 5.578-6.504 5.562-6.637 5.54-6.762 5.507-6.875 5.47-6.984 5.425-7.09 5.367-7.18 5.313-7.273 5.242-7.348 5.168-7.422 5.09-7.484 5.007zm0 0"/><path fill="#b33636" d="M287.04 258.402l-7.544 4.914-7.586 4.817-7.625 4.719-7.652 4.609-7.672 4.5-7.684 4.387-7.683 4.27-7.676 4.144-7.656 4.02-7.633 3.89-7.594 3.758-7.55 3.629-7.493 3.492-7.426 3.355-7.351 3.219-7.27 3.082-7.172 2.941-7.074 2.801-6.957 2.66-6.836 2.528-6.707 2.386-6.566 2.247-6.418 2.117-6.262 1.98-6.094 1.852-5.921 1.722-5.743 1.594-5.55 1.473-5.352 1.355-5.148 1.235-4.942 1.125-4.719 1.02-4.492.913-4.265.813-4.024.719-3.785.632-3.535.547-3.285.465-3.028.395-2.765.328-2.496.27-2.235.21-1.957.16-1.683.121-1.407.082-1.129.055-.847.031-.567.012-.28.004zm0 0"/><path fill="#b36436" d="M26.703 360l.281.004.567.012.847.03 1.13.056 1.406.082 1.683.12 1.957.16 2.235.212 2.496.27 2.765.327 3.028.395 3.285.465 3.535.547 3.785.632 4.024.72 4.265.812 4.492.914 4.72 1.02 4.94 1.124 5.149 1.235 5.352 1.355 5.55 1.473 5.743 1.594 5.921 1.722 6.094 1.852 6.262 1.98 6.418 2.117 6.566 2.247 6.707 2.386 6.836 2.528 6.957 2.66 7.074 2.8 7.172 2.942 7.27 3.082 7.351 3.219 7.426 3.355 7.492 3.492 7.551 3.63 7.594 3.757 7.633 3.89 7.656 4.02 7.676 4.145 7.683 4.27 7.684 4.386 7.672 4.5 7.652 4.61 7.625 4.718 7.586 4.817 7.543 4.914 7.484 5.007zm0 0"/><path fill="#b39336" d="M294.523 466.605l7.422 5.09 7.348 5.168 7.273 5.242 7.18 5.313 7.09 5.367 6.984 5.426 6.875 5.469 6.762 5.507 6.637 5.54 6.504 5.562 6.375 5.578 6.23 5.586 6.082 5.586 5.934 5.574 5.777 5.559 5.617 5.535 5.453 5.5 5.286 5.461 5.109 5.406 4.937 5.344 4.762 5.277 4.578 5.203 4.399 5.114 4.215 5.02 4.03 4.917 3.848 4.805 3.66 4.683 3.473 4.56 3.285 4.417 3.102 4.274 2.918 4.12 2.734 3.962 2.555 3.793 2.371 3.617 2.195 3.433 2.02 3.242 1.848 3.043 1.675 2.844 1.516 2.63 1.352 2.417 1.191 2.191 1.04 1.965.89 1.735.746 1.496.605 1.254.473 1.004.348.757.218.5.106.243-.008-.016zm0 0"/><path fill="#a3b336" d="M487.543 667.918l-.11-.277-.21-.547-.301-.809-.387-1.082-.469-1.348-.539-1.617-.601-1.89-.66-2.157-.715-2.43-.758-2.695-.797-2.964-.824-3.23-.852-3.493-.867-3.754-.875-4.012-.879-4.265-.875-4.516-.867-4.766-.848-5.007-.828-5.246-.793-5.477-.761-5.707-.72-5.926-.675-6.144-.617-6.352-.563-6.555-.496-6.754-.43-6.937-.359-7.121-.277-7.293-.2-7.457-.113-7.613-.02-7.766.067-7.899.168-8.035.266-8.152.363-8.266.469-8.367.574-8.46.684-8.548.789-8.617.898-8.68 1.008-8.734 1.121-8.781 1.227-8.813 1.34-8.836 1.445-8.847 1.554-8.856 1.665-8.843 1.765-8.832zm0 0"/><path fill="#74b336" d="M483.66 379.145l1.867-8.801 1.973-8.766 2.066-8.723 2.164-8.664 2.254-8.597 2.34-8.524 2.43-8.441 2.504-8.344 2.582-8.246 2.656-8.133 2.719-8.015 2.777-7.883 2.836-7.75 2.887-7.61 2.926-7.453 2.964-7.297 3-7.132 3.02-6.957 3.04-6.782 3.05-6.597 3.055-6.407 3.05-6.207 3.043-6.007 3.024-5.805 2.996-5.59 2.969-5.379 2.921-5.16 2.88-4.938 2.82-4.714 2.757-4.489 2.688-4.257 2.605-4.028 2.524-3.793 2.426-3.562 2.324-3.328 2.219-3.09 2.097-2.86 1.977-2.62 1.844-2.391 1.703-2.16 1.562-1.926 1.406-1.7 1.25-1.472 1.086-1.246.914-1.028.739-.808.554-.594.368-.383.172-.175-.024.023zm0 0"/><path fill="#45b336" d="M595.664 124.336l-.23.223-.434.414-.648.601-.864.781-1.082.957-1.3 1.13-1.528 1.288-1.758 1.45-1.984 1.597-2.215 1.739-2.45 1.879-2.679 2.007-2.918 2.13-3.152 2.241-3.383 2.352-3.621 2.45-3.852 2.546-4.086 2.625-4.316 2.707-4.543 2.774-4.77 2.835-4.996 2.891-5.214 2.934-5.43 2.976-5.649 3.004-5.851 3.028-6.059 3.046-6.261 3.051-6.454 3.055-6.64 3.05-6.828 3.036-7 3.015-7.176 2.989-7.336 2.957-7.496 2.918-7.64 2.875-7.786 2.82-7.918 2.766-8.047 2.703-8.16 2.637-8.27 2.562-8.37 2.488-8.461 2.407-8.547 2.32-8.614 2.23-8.68 2.14-8.734 2.044-8.777 1.945-8.809 1.844-8.836 1.738zm0 0"/><path fill="#36b355" d="M329.813 238.531l-8.848 1.637-8.852 1.527-8.847 1.422-8.832 1.309-8.805 1.203-8.77 1.09-8.722.98-8.664.871-8.602.762-8.523.656-8.442.547-8.344.445-8.238.34-8.12.239-8 .14-7.872.047-7.727-.043-7.574-.137-7.418-.218-7.25-.297-7.074-.375-6.894-.45-6.704-.515-6.504-.574-6.3-.633-6.09-.688-5.875-.73-5.649-.77-5.421-.804-5.184-.832-4.95-.852-4.702-.871-4.454-.875-4.203-.879-3.949-.875-3.687-.863-3.426-.844-3.164-.82-2.899-.785-2.629-.75-2.359-.7-2.094-.648-1.82-.59-1.55-.52-1.282-.445-1.012-.367-.742-.281-.48-.184-.211-.086.047.02zm0 0"/><path fill="#36b384" d="M52.102 232.465l.308.133.567.254.816.375 1.07.503 1.313.641 1.554.785 1.793.926 2.024 1.078 2.25 1.23 2.469 1.391 2.683 1.555 2.895 1.719 3.094 1.89 3.292 2.063 3.477 2.242 3.664 2.414 3.832 2.598 4.004 2.781 4.16 2.965 4.309 3.148 4.457 3.332 4.59 3.52 4.715 3.707 4.832 3.89 4.945 4.079 5.043 4.261 5.137 4.442 5.222 4.629 5.293 4.804 5.363 4.98 5.422 5.157 5.47 5.324 5.507 5.492 5.543 5.66 5.562 5.817 5.582 5.969 5.586 6.125 5.586 6.265 5.574 6.407 5.555 6.539 5.535 6.668 5.496 6.789 5.461 6.902 5.41 7.012 5.356 7.113 5.293 7.207 5.223 7.29 5.152 7.37 5.07 7.438 4.985 7.5zm0 0"/><path fill="#36b3b3" d="M259.64 434.844l4.891 7.55 4.793 7.598 4.692 7.633 4.582 7.656 4.472 7.676 4.356 7.688 4.238 7.68 4.113 7.671 3.989 7.656 3.859 7.621 3.727 7.582 3.593 7.536 3.457 7.48 3.325 7.406 3.183 7.332 3.043 7.246 2.906 7.153 2.766 7.043 2.629 6.93 2.492 6.804 2.352 6.672 2.214 6.527 2.083 6.383 1.949 6.219 1.816 6.055 1.692 5.875 1.562 5.695 1.445 5.5 1.325 5.305 1.207 5.097 1.097 4.883.992 4.664.887 4.438.79 4.203.698 3.965.61 3.722.523 3.477.45 3.219.378 2.96.313 2.7.25 2.433.2 2.16.151 1.891.11 1.617.074 1.336.047 1.059.027.777.008.496.004.211v-.07zm0 0"/><path fill="#3684b3" d="M360 693.254l.008-.356.015-.632.036-.918.058-1.2.094-1.476.129-1.754.176-2.027.222-2.297.282-2.567.343-2.832.414-3.09.485-3.347.57-3.598.652-3.844.743-4.09.836-4.32.94-4.55 1.044-4.774 1.152-4.992 1.266-5.2 1.383-5.406 1.504-5.597 1.625-5.785 1.753-5.97 1.883-6.136 2.016-6.3 2.148-6.458 2.286-6.601 2.421-6.739 2.559-6.87 2.695-6.985 2.836-7.098 2.977-7.199 3.113-7.289 3.254-7.375 3.39-7.441 3.528-7.508 3.66-7.563 3.793-7.605 3.926-7.637 4.05-7.664 4.176-7.68 4.297-7.683 4.414-7.684 4.528-7.668 4.636-7.644 4.747-7.618 4.84-7.574 4.937-7.527 5.027-7.469zm0 0"/><path fill="#3655b3" d="M467.867 423.617l5.113-7.406 5.188-7.332 5.262-7.25 5.324-7.156 5.383-7.067 5.437-6.957 5.477-6.847 5.52-6.727 5.542-6.605 5.567-6.477 5.582-6.336 5.586-6.195 5.586-6.047 5.574-5.895 5.55-5.738 5.528-5.574 5.492-5.41 5.445-5.243 5.391-5.066 5.332-4.894 5.258-4.715 5.18-4.535 5.093-4.356 4.993-4.168 4.89-3.984 4.778-3.797 4.652-3.613 4.523-3.43 4.383-3.238 4.238-3.059 4.082-2.871 3.918-2.688 3.75-2.507 3.57-2.329 3.387-2.148 3.192-1.977 2.996-1.804 2.789-1.637 2.578-1.473 2.363-1.312 2.137-1.152 1.906-1.004 1.676-.852 1.434-.71 1.191-.575.945-.438.692-.316.437-.191.18-.075-.082.032zm0 0"/><path fill="#4536b3" d="M667.875 232.473l-.348.136-.609.235-.879.324-1.148.406-1.414.485-1.688.558-1.957.617-2.223.676-2.496.727-2.765.765-3.028.805-3.297.832-3.558.856-3.817.867-4.078.879-4.328.879-4.578.875-4.828.863-5.066.844-5.305.816-5.535.789-5.762.75-5.98.711-6.2.66-6.402.606-6.606.543-6.796.484-6.989.41-7.164.34-7.332.258-7.5.176-7.652.09h-7.797l-7.934-.094-8.066-.188-8.18-.293-8.293-.39-8.394-.497-8.48-.597-8.563-.711-8.637-.817-8.695-.925-8.746-1.036-8.79-1.148-8.82-1.254-8.84-1.367-8.851-1.473-8.852-1.582-8.843-1.687-8.825-1.793zm0 0"/><path fill="#7436b3" d="M376.941 235.883l-8.793-1.895-8.757-1.996-8.707-2.09-8.649-2.187-8.578-2.278-8.504-2.363-8.418-2.445-8.324-2.527-8.215-2.598-8.105-2.672-7.98-2.734-7.856-2.793-7.715-2.852-7.57-2.894-7.415-2.938-7.257-2.976-7.086-3-6.918-3.028-6.735-3.043-6.547-3.054-6.359-3.055-6.16-3.047-5.957-3.04-5.75-3.015-5.54-2.992-5.323-2.957-5.102-2.914-4.883-2.863-4.66-2.805-4.43-2.742-4.199-2.668-3.969-2.586-3.738-2.496-3.504-2.403-3.265-2.3-3.036-2.188-2.796-2.066-2.567-1.946-2.332-1.808-2.101-1.672-1.868-1.523-1.64-1.368-1.418-1.21-1.192-1.043-.972-.872-.754-.691-.54-.508-.331-.32-.125-.121.074.074zm0 0"/><path fill="#a336b3" d="M124.375 124.375l.27.281.46.489.649.699.824.918 1 1.136 1.168 1.36 1.332 1.582 1.484 1.812 1.637 2.043 1.774 2.274 1.91 2.508 2.039 2.738 2.156 2.976 2.274 3.211 2.375 3.442 2.476 3.68 2.567 3.91 2.648 4.144 2.723 4.371 2.789 4.602 2.851 4.828 2.903 5.047 2.945 5.27 2.98 5.488 3.012 5.695 3.035 5.906 3.047 6.11 3.055 6.308 3.054 6.5 3.043 6.692 3.032 6.87 3.011 7.048 2.98 7.214 2.95 7.375 2.906 7.532 2.864 7.68 2.804 7.82 2.75 7.949 2.688 8.074 2.62 8.191 2.544 8.297 2.469 8.395 2.382 8.48 2.301 8.563 2.207 8.633 2.117 8.695 2.02 8.742 1.918 8.79 1.82 8.816 1.711 8.84zm0 0"/><path fill="#b33693" d="M238.95 392.398l1.609 8.852 1.504 8.852 1.39 8.843 1.285 8.825 1.172 8.796 1.063 8.758.953 8.711.847 8.652.735 8.583.625 8.503.523 8.414.418 8.317.313 8.21.215 8.095.12 7.968.02 7.836-.066 7.688-.156 7.539-.239 7.375-.316 7.207-.395 7.031-.465 6.848-.53 6.652-.59 6.453-.65 6.25-.694 6.035-.743 5.82-.777 5.59-.812 5.364-.84 5.129-.86 4.886-.87 4.641-.88 4.39-.879 4.141-.87 3.883-.86 3.625-.836 3.36-.812 3.097-.778 2.828-.738 2.563-.688 2.293-.632 2.027-.575 1.75-.5 1.485-.43 1.214-.343.946-.258.675-.16.414-.063.149.051-.117zm0 0"/><path fill="#b33664" d="M232.488 667.844l.16-.371.286-.63.406-.882.539-1.129.676-1.375.816-1.613.965-1.852 1.117-2.078 1.27-2.305 1.433-2.527 1.594-2.734 1.762-2.946 1.933-3.144 2.106-3.34 2.285-3.523 2.46-3.707 2.645-3.875 2.825-4.043 3.011-4.2 3.196-4.347 3.379-4.489 3.566-4.62 3.75-4.747 3.941-4.863 4.121-4.969 4.31-5.07 4.487-5.156 4.672-5.243 4.848-5.312 5.027-5.379 5.196-5.434 5.37-5.476 5.536-5.52 5.695-5.547 5.856-5.57 6.011-5.582 6.157-5.586 6.304-5.586 6.438-5.57 6.574-5.55 6.7-5.524 6.816-5.493 6.933-5.445 7.035-5.398 7.137-5.34 7.227-5.277 7.312-5.207 7.387-5.13 7.453-5.05 7.516-4.961zm0 0"/><path fill="#b33636" d="M436.727 459.129l7.562-4.867 7.61-4.77 7.636-4.664 7.664-4.555 7.68-4.445 7.683-4.324 7.684-4.207 7.668-4.082 7.645-3.957 7.613-3.824 7.574-3.696 7.524-3.558 7.46-3.426 7.391-3.29 7.309-3.148 7.222-3.011 7.125-2.871 7.016-2.73 6.898-2.595 6.774-2.453 6.637-2.32 6.492-2.18 6.343-2.05 6.18-1.915 6.008-1.785 5.832-1.66 5.648-1.535 5.454-1.41 5.25-1.297 5.043-1.18 4.832-1.07 4.605-.965 4.379-.863 4.148-.766 3.907-.676 3.66-.586 3.41-.507 3.156-.43 2.895-.36 2.633-.296 2.367-.239 2.093-.187 1.82-.14 1.548-.102 1.27-.067.987-.039.704-.023.425-.008h.141zm0 0"/></g></svg>