<svg xmlns="http://www.w3.org/2000/svg" viewBox="0 0 720 720"><defs/><rect width="100%" height="100%" fill="#000000ff" rx="0%" ry="0%"/><path fill="none" stroke="#881c00" stroke-linecap="round" stroke-linejoin="round" stroke-miterlimit="10" stroke-opacity=".902" stroke-width=".75" d="M693.332 360l-1.164-.121-3.379-.848-5.234-2.207-6.547-4.054-7.172-6.184-7.07-8.352-6.258-10.316-4.844-11.852-3.008-12.785-.965-13.015 1.043-12.504 2.774-11.313 4.02-9.566 4.617-7.461 4.496-5.227 3.652-3.105 2.16-1.332.184-.11-2.086.45-4.399.273-6.507-.61-8.2-2.093-9.293-4-9.68-6.113-9.327-8.196-8.301-9.992-6.715-11.308-4.77-11.977-2.683-11.926-.723-11.144.902-9.711 1.98-7.785 2.384-5.559 2.062-3.289 1.028-1.207-.606.457-2.672 1.535-4.949 1.906-7.195 1.547-9.164.508-10.653-1.086-11.496-3.039-11.62-5.129-11.016-7.105-9.758-8.735-8-9.82-5.95-10.23-3.835-9.91-1.915-8.872-.406-7.234.512-5.152.738-2.852.227-.582-.969 1.43-2.715 2.953-4.824 3.851-7.078 4.024-9.211 3.472-11.008 2.27-12.262.57-12.84-1.43-12.683-3.48-11.816-5.351-10.332-6.801-8.41-7.668-6.262-7.832-4.133-7.262-2.27-6-.875-4.187-.117-1.993-.07.34-.75 2.57-2.082 4.461-3.91 5.817-6.043 6.504-8.23 6.457-10.227 5.699-11.82 4.332-12.825 2.523-13.117.485-12.68-1.535-11.55-3.29-9.856-4.57-7.781-5.226-5.563-5.16-3.437-4.364-1.645-2.918-.379-.964.215 1.292.086 3.618-.758 5.754-2.21 7.492-4.106 8.64-6.227 9.09-8.324 8.805-10.172 7.832-11.539 6.289-12.277 4.367-12.293 2.297-11.578.317-10.207-1.329-8.317-2.449-6.12-2.898-3.856-2.63-1.762-1.636-.066-.035 1.046 2.012 1.47 4.289 1.155 6.554.157 8.567-1.407 10.105-3.355 11.02-5.45 11.207-7.452 10.668-9.121 9.465-10.27 7.754-10.742 5.722-10.485 3.621-9.511 1.688-7.922.148-5.871-.812-3.59-1.074-1.313-.614.715.543 2.281 2.266 3.227 4.367 3.45 6.629 2.945 8.797 1.789 10.637.113 11.953-1.875 12.597-3.938 12.516-5.832 11.707-7.328 10.285-8.25 8.399-8.472 6.277-7.965 4.148-6.754 2.27-4.98.848-2.81.046-.484-.043 1.762.594 3.688 1.895 5.086 3.707 5.832 5.832 5.84 8.039 5.136 10.078 3.813 11.719 2.027 12.785v13.156l-2.027 12.785-3.813 11.719-5.137 10.078-5.84 8.04-5.831 5.831-5.086 3.707-3.688 1.895-1.762.594.485-.043 2.808.046 4.98.848 6.755 2.27 7.965 4.148 8.472 6.277 8.25 8.399 7.328 10.285 5.832 11.707 3.938 12.516 1.875 12.597-.113 11.953-1.79 10.637-2.945 8.797-3.449 6.629-3.227 4.367-2.28 2.266-.716.543 1.313-.614 3.59-1.074 5.87-.812 7.923.148 9.511 1.688 10.485 3.62 10.742 5.723 10.27 7.754 9.12 9.465 7.454 10.668 5.449 11.207 3.355 11.02 1.407 10.105-.157 8.567-1.156 6.554-1.469 4.29-1.046 2.011.066-.035 1.762-1.637 3.855-2.629 6.121-2.898 8.317-2.45 10.207-1.327 11.578.316 12.293 2.297 12.277 4.367 11.54 6.289 10.171 7.832 8.324 8.805 6.227 9.09 4.105 8.64 2.211 7.492.758 5.754-.086 3.617-.215 1.293.38-.964 1.644-2.918 3.437-4.364 5.563-5.16 7.78-5.226 9.856-4.57 11.551-3.29 12.68-1.535 13.117.485 12.824 2.523 11.82 4.332 10.227 5.7 8.23 6.456 6.044 6.504 3.91 5.817 2.082 4.46.75 2.57.07.34.117-1.992.875-4.187 2.27-6 4.133-7.262 6.261-7.832 8.41-7.668 10.333-6.8 11.816-5.352 12.684-3.48 12.84-1.43 12.261.57 11.008 2.27 9.21 3.472 7.079 4.024 4.824 3.851 2.715 2.953.969 1.43-.227-.582-.738-2.852-.512-5.152.406-7.234 1.915-8.871 3.835-9.91 5.95-10.231 8-9.82 9.758-8.735 11.015-7.105 11.621-5.13 11.496-3.038 10.653-1.086 9.164.508 7.195 1.547 4.95 1.906 2.671 1.535.606.457-1.028-1.207-2.062-3.289-2.383-5.559-1.98-7.785-.903-9.71.723-11.145 2.683-11.926 4.77-11.977 6.715-11.308 8.3-9.992 9.329-8.196 9.68-6.113 9.292-4 8.2-2.094 6.507-.61 4.399.274 2.086.45-.184-.11-2.16-1.332-3.652-3.105-4.496-5.227-4.618-7.46-4.02-9.567-2.773-11.313-1.043-12.504.965-13.015 3.008-12.785 4.844-11.852 6.258-10.316 7.07-8.352 7.172-6.184 6.547-4.054 5.234-2.207 3.379-.848 1.164-.121"/><path xmlns="http://www.w3.org/2000/svg" fill="none" stroke="#a34d1a" stroke-linecap="round" stroke-linejoin="round" stroke-miterlimit="10" stroke-opacity=".902" stroke-width=".75" d="M693.332 360l-2.191-.2-6.383-1.378-10.024-3.61-12.8-6.675-14.493-10.274-14.98-14.027-14.262-17.566-12.469-20.524-9.812-22.598-6.61-23.566-3.218-23.312-.024-21.844 2.618-19.281 4.406-15.86 5.11-11.875 4.632-7.703 2.969-3.73.25-.301-3.297 2.265-7.356 3.762-11.57 4.063-15.543 3.191-18.93 1.262-21.421-1.489-22.797-4.753-22.957-8.168-21.899-11.348-19.761-13.934-16.766-15.636-13.238-16.23-9.536-15.61-6.035-13.801-3.105-10.914-1.04-7.207-.05-2.973-.242 1.407-1.606 5.55-4.007 9.106-7.204 11.77-10.894 13.327-14.692 13.688-18.238 12.844-21.16 10.949-23.164 8.23-24.047 5-23.7 1.637-22.144-1.496-19.515-4.023-16.059-5.668L172 104.266l-7.96-5.563-4.071-3.738-.778-.871 1.637 2.785 2.957 6.922 3.078 11.16 2.043 15.129-.035 18.469-2.894 20.879-6.23 22.16-9.661 22.222-12.82 21.078-15.344 18.872-16.945 15.847-17.422 12.332-16.68 8.68-14.754 5.281-11.773 2.492-7.996.594-3.739-.203.625.18 4.715 1.726 8.172 4.29 10.719 7.616 12.14 11.391 12.36 15.238 11.39 18.778 9.395 21.66 6.605 23.601 3.356 24.391.012 23.953-3.047 22.317-5.47 19.628-6.972 16.141-7.355 12.176-6.543 8.11-4.555 4.323-1.558 1.16 2.203-1.085 6.406-2.227 10.668-2.168 14.617-.96 17.899 1.257 20.226 4.23 21.41 7.633 21.367 11.082 20.137 14.22 17.867 16.675 14.813 18.183 11.308 18.547 7.72 17.692 4.421 15.648 1.774 12.582.046 8.75-.566 4.477.016.137 1.738-3.883 4.46-7.242 7.915-9.657 11.765-10.941 15.653-11.008 19.191-9.918 22.028-7.808 23.894-4.961 24.602-1.684 24.07 1.637 22.355 4.625 19.614 6.941 16.101 8.305 12.16 8.535 8.157 7.559 4.476 5.421 1.453 2.293-.625-1.562-1.582-5.82-1.34-10.094.043-14.016 2.403-17.23 5.484-19.473 8.953-20.55 12.422-20.407 15.531-19.082 17.926-16.75 19.34-13.672 19.598-10.18 18.62-6.648 16.481-3.46 13.332-.958 9.453.602 5.172 1.023.871.258-3.074-1.649-6.32-4.52-8.602-8.093-9.73-12.023-9.656-15.942-8.426-19.465-6.219-22.261-3.297-24.051v-24.672l3.297-24.05 6.219-22.262 8.426-19.465 9.656-15.942 9.73-12.023 8.602-8.094 6.32-4.52 3.074-1.648-.87.258-5.173 1.023-9.453.602-13.332-.957-16.48-3.461-18.621-6.648-19.598-10.18-19.34-13.672-17.926-16.75-15.53-19.082-12.423-20.406-8.953-20.551-5.484-19.473-2.402-17.23-.043-14.016 1.34-10.094 1.581-5.82.625-1.562-1.453 2.293-4.476 5.421-8.157 7.56-12.16 8.534-16.101 8.305-19.614 6.941-22.355 4.625-24.07 1.637-24.602-1.684-23.894-4.96-22.028-7.81-19.191-9.917-15.652-11.008-11.766-10.941-7.914-9.657-4.461-7.242-1.738-3.883-.016.137.566 4.477-.046 8.75-1.774 12.582-4.422 15.648-7.719 17.692-11.308 18.546-14.813 18.184-17.867 16.676-20.137 14.219-21.367 11.082-21.41 7.632-20.226 4.23-17.899 1.259-14.617-.961-10.668-2.168-6.406-2.227-2.203-1.086 1.558 1.16 4.555 4.325 6.543 8.11 7.355 12.175 6.973 16.14 5.469 19.63 3.047 22.316-.012 23.953-3.356 24.39-6.605 23.602-9.395 21.66-11.39 18.778-12.36 15.238-12.14 11.39-10.719 7.618-8.172 4.289-4.715 1.726-.625.18 3.739-.203 7.996.594 11.773 2.492 14.754 5.281 16.68 8.68 17.422 12.332 16.945 15.847 15.344 18.872 12.82 21.078 9.66 22.222 6.23 22.16 2.895 20.88.035 18.468-2.043 15.13-3.078 11.16-2.957 6.921-1.637 2.785.778-.87 4.07-3.74 7.961-5.562 12.078-6.21 16.059-5.669 19.515-4.023 22.145-1.496 23.7 1.637 24.046 5 23.164 8.23 21.16 10.95 18.238 12.843 14.692 13.688 10.894 13.328 7.204 11.77 4.007 9.105 1.606 5.55.242 1.407.05-2.973 1.04-7.207 3.105-10.914 6.035-13.8 9.536-15.61 13.238-16.23 16.766-15.637 19.761-13.934 21.899-11.348 22.957-8.168 22.797-4.753 21.421-1.489 18.93 1.262 15.543 3.191 11.57 4.063 7.356 3.762 3.297 2.265-.25-.3-2.969-3.731-4.633-7.703-5.11-11.875-4.405-15.86-2.618-19.28.024-21.845 3.219-23.312 6.609-23.566 9.812-22.598 12.47-20.524 14.26-17.566 14.981-14.027 14.493-10.274 12.8-6.675 10.024-3.61 6.383-1.379 2.191-.199"/><path xmlns="http://www.w3.org/2000/svg" fill="none" stroke="#cc986a" stroke-linecap="round" stroke-linejoin="round" stroke-miterlimit="10" stroke-opacity=".902" stroke-width=".75" d="M693.332 360l-3.07-.238-9-1.633-14.285-4.3-18.567-8.005-21.562-12.394-23.106-17.09-23.14-21.645-21.754-25.64-19.145-28.7-15.613-30.507-11.543-30.871-7.348-29.692-3.46-27.031-.29-23.04 1.852-18.01L506 68.905l2.148-6.316.184-.516-3.062 4.692-7.344 8.937-12.332 11.945-17.63 13.528-22.788 13.652-27.399 12.387-31.066 9.926-33.477 6.582-34.43 2.722-33.84-1.234-31.734-4.852-28.289-7.734-23.77-9.547-18.538-10.05-13.016-9.126-7.633-6.754-2.804-3.078 1.093 1.672 3.786 7.149 5.093 12.964 4.97 18.676 3.491 23.852.852 28.105-2.649 31.125-6.629 32.696-10.68 32.726-14.355 31.25-17.27 28.43-19.081 24.535-19.551 19.91-18.547 14.985-16.07 10.18-12.242 5.921-7.297 2.567-1.582.41 4.508-.395 10.535.223 16.066 2.176 20.719 5.27 24.164 9.206 26.191 13.61 26.711 18.046 25.739 22.106 23.445 25.37 20.086 27.509 16.015 28.27 11.645 27.523 7.41 25.27 3.715 21.624.937 16.828-.652 11.207-.871 5.168.32-.851 2.852-6.422 6.531-11.156 11.05-14.727 16.032-16.926 21.059-17.64 25.687-16.914 29.524-14.887 32.21-11.824 33.52-8.078 33.297-4.059 31.54-.188 28.362 3.106 24.004 5.477 18.785 6.625 13.118 6.39 7.425 4.715 2.137 1.684-2.348-2.52-5.71-7.586-7.739-13.137-8.324-18.746-7.5-23.976-5.406-28.426-2.317-31.746 1.43-33.676 5.422-34.09 9.223-32.957 12.433-30.398 14.676-26.645 15.668-22.02 15.246-16.917 13.348-11.766 10.05-7.004 5.551-3.02.145-.12-5.778 1.46-11.796 1.63-17.477.41-22.406-2.055-26.23-5.488-28.696-9.555-29.656-13.84-29.102-17.918-27.125-21.363-23.96-23.82-19.934-24.993-15.426-24.715-10.871-22.921-6.7-19.696-3.3-15.215-.989-9.796.024-3.801-.383 2.324-2.16 8.164-5.18 13.29-9.16 17.35-13.77 20.102-18.585 21.375-23.184 21.164-27.137 19.567-30.074 16.804-31.723 13.196-31.882 9.129-30.508 5.039-27.656 1.347-23.528-1.566-18.41-3.375-12.691-3.86-6.778-2.921-1.129-.594 3.868 2.988 7.836 7.551 10.527 12.75 11.793 18.168 11.605 23.375 10.067 27.945 7.394 31.512 3.91 33.77v34.546l-3.91 33.77-7.394 31.512-10.067 27.945-11.605 23.375-11.793 18.168-10.527 12.75-7.836 7.55-3.868 2.989 1.13-.594 6.777-2.922 12.691-3.859 18.41-3.375 23.528-1.566 27.656 1.347 30.508 5.04 31.882 9.128 31.723 13.196 30.074 16.804 27.137 19.567 23.184 21.164 18.586 21.375 13.77 20.101 9.16 17.352 5.179 13.289 2.16 8.164.383 2.324-.024-3.8.989-9.797 3.3-15.215 6.7-19.696 10.87-22.922 15.427-24.714 19.933-24.993 23.961-23.82 27.125-21.363 29.102-17.918 29.656-13.84 28.695-9.555 26.23-5.488 22.407-2.055 17.477.41 11.796 1.63 5.778 1.46-.145-.12-5.55-3.02-10.051-7.004-13.348-11.766-15.246-16.918-15.668-22.02-14.676-26.644-12.433-30.398-9.223-32.957-5.422-34.09-1.43-33.676 2.317-31.746 5.406-28.426 7.5-23.976 8.324-18.746 7.739-13.137 5.71-7.586 2.348-2.52-2.137 1.684-7.425 4.715-13.118 6.39-18.785 6.625-24.004 5.477-28.363 3.106-31.539-.188-33.297-4.059-33.52-8.078-32.21-11.824-29.524-14.887-25.687-16.914-21.059-17.64-16.031-16.926-11.05-14.727-6.532-11.156-2.852-6.422-.32-.851.871 5.168.652 11.207-.937 16.828-3.715 21.625-7.41 25.27-11.645 27.523-16.015 28.27-20.086 27.507-23.445 25.371-25.739 22.106-26.71 18.047-26.192 13.609-24.164 9.207-20.719 5.27-16.066 2.175-10.535.223-4.508-.395 1.582.41 7.297 2.567 12.242 5.922 16.07 10.18L88.25 332.84l19.55 19.91 19.083 24.535 17.27 28.43 14.355 31.25 10.68 32.726 6.628 32.696 2.649 31.125-.852 28.105-3.492 23.852-4.969 18.676-5.093 12.964-3.786 7.149-1.093 1.672 2.804-3.078 7.633-6.754 13.016-9.125 18.539-10.051 23.77-9.547 28.288-7.734 31.735-4.852 33.84-1.234 34.43 2.722 33.476 6.582 31.066 9.926 27.399 12.387 22.789 13.652 17.629 13.528 12.332 11.945 7.344 8.937 3.062 4.692-.184-.516-2.148-6.316-2.7-12.297-1.85-18.012.288-23.039 3.461-27.031 7.348-29.692 11.543-30.87 15.613-30.508 19.145-28.7 21.754-25.64 23.14-21.645 23.106-17.09 21.562-12.394 18.567-8.004 14.285-4.3 9-1.634 3.07-.238"/><path xmlns="http://www.w3.org/2000/svg" fill="none" stroke="#d5dcc3" stroke-linecap="round" stroke-linejoin="round" stroke-miterlimit="10" stroke-opacity=".902" stroke-width=".75" d="M693.332 360l-3.809-.242-11.203-1.656-17.945-4.38-23.664-8.183-28.035-12.754-30.864-17.71-32.042-22.65-31.59-27.128-29.645-30.762-26.441-33.195-22.309-34.172-17.629-33.527-12.824-31.211-8.316-27.297-4.496-21.965-1.692-15.496-.144-8.262-.004-.676-1.293 6.813-3.918 13.781-7.692 19.82-12.316 24.606-17.418 27.91-22.602 29.59-27.421 29.644-31.485 28.176-34.414 25.395-35.934 21.605-35.847 17.192-34.078 12.546-30.664 8.118-25.762 4.28-19.633 1.395-12.617-.273-5.125-.562 2.398.59 9.524 3.109 15.836 6.84 20.988 11.496 24.719 16.734 26.87 22.145 27.407 27.296 26.395 31.782 24.027 35.21 20.582 37.282 16.426 37.777 11.957 36.582 7.598 33.711 3.757 29.285.793 23.543-1.008 16.809-1.445 9.473-.445 1.972 1.96-5.25 5.626-11.773 10.297-17.238 15.644-21.356 21.262-23.941 26.734-24.922 31.63-24.356 35.558-22.383 38.183-19.28 39.274-15.38 38.68-11.078 36.378-6.797 32.477-2.945 27.172.094 20.77 2.027 13.652 2.629 6.238 1.793-1.02-.473-7.699-4.058L648.234 467l-17.882-14.148-20.86-19.961-22.262-25.723-22.101-31.012-20.52-35.43-17.738-38.617-14.09-40.3-9.953-40.325-5.75-38.632-1.89-35.282 1.242-30.465 3.308-24.445 4.086-17.601 3.43-10.336 1.32-3.098-2.152 3.68-6.777 9.61-12.262 14.355-18.227 17.687-24.261 19.473-29.93 19.703-34.813 18.48-38.55 16.012-40.84 12.605-41.492 8.633-40.422 4.496-37.664.621-33.364-2.597-27.785-4.817-21.262-5.785-14.203-5.328-7.047-3.398-.222-.067 5.855 4.492 10.848 9.997 14.484 16.085 16.621 22.36 17.211 28.371L158.645 300l14.156 37.98 10.98 40.868 7.156 42.156 3.086 41.723-.808 39.578-4.13 35.84-6.51 30.734-7.684 24.586-7.446 17.785-5.726 10.762-2.567 3.953 1.891-2.227 7.375-7.41 13.559-11.32 20.027-13.762 26.355-14.68 32.118-14.113 36.898-12.223 40.379-9.261 42.297-5.586 42.512-1.57 41.003 2.355 37.848 5.785 33.258 8.348 27.527 9.734 21.031 9.746 14.196 8.262 7.449 5.305 1.223.988-4.11-4.438-8.238-10.664-10.957-17.297-12.176-23.898-11.898-30.05-10.266-35.321-7.512-39.367-3.964-41.91v-42.782l3.964-41.91 7.512-39.367 10.266-35.32 11.898-30.051 12.176-23.899 10.957-17.296 8.238-10.664 4.11-4.438-1.223.988-7.45 5.305-14.195 8.262-21.03 9.746-27.528 9.734-33.258 8.348-37.848 5.785-41.003 2.356-42.512-1.57-42.297-5.587-40.379-9.261-36.898-12.223-32.118-14.113-26.355-14.68-20.027-13.762-13.559-11.32-7.375-7.41-1.89-2.227 2.566 3.953 5.726 10.762 7.446 17.785 7.683 24.586 6.512 30.734 4.129 35.84.808 39.578-3.085 41.723-7.157 42.156-10.98 40.868L158.645 420l-16.325 33.707-17.21 28.371-16.622 22.36-14.484 16.085-10.848 9.997-5.855 4.492.222-.067 7.047-3.398 14.203-5.328 21.262-5.785 27.785-4.817 33.364-2.597 37.664.62 40.422 4.497 41.492 8.633 40.84 12.605 38.55 16.012 34.813 18.48 29.93 19.703 24.261 19.473 18.227 17.687 12.262 14.356 6.777 9.61 2.152 3.679-1.32-3.098-3.43-10.336-4.086-17.601-3.308-24.445-1.243-30.465 1.891-35.282 5.75-38.632 9.953-40.325 14.09-40.3 17.738-38.618 20.52-35.43 22.101-31.011 22.262-25.723 20.86-19.96L648.234 253l13.422-8.719 7.7-4.058 1.019-.473-6.238 1.793-13.653 2.629-20.77 2.027-27.171.094-32.477-2.945-36.379-6.797-38.68-11.078-39.273-15.38-38.183-19.28-35.559-22.383-31.629-24.356-26.734-24.922-21.262-23.941-15.644-21.356-10.297-17.238-5.625-11.773-1.961-5.25.445 1.972 1.445 9.473 1.008 16.809-.793 23.543-3.757 29.285-7.598 33.71-11.957 36.583-16.426 37.777-20.582 37.281-24.027 35.211-26.395 31.782-27.406 27.296-26.871 22.145-24.719 16.734-20.988 11.496-15.836 6.84-9.524 3.11-2.398.59 5.125-.563 12.617-.273 19.633 1.394 25.762 4.281 30.664 8.118 34.078 12.546 35.847 17.192 35.934 21.605 34.414 25.395 31.485 28.176 27.421 29.644 22.602 29.59 17.418 27.91 12.316 24.606 7.692 19.82 3.918 13.781 1.293 6.813.004-.676.144-8.262 1.692-15.496 4.496-21.965 8.316-27.297 12.824-31.21 17.63-33.528 22.308-34.172 26.441-33.195 29.645-30.762 31.59-27.129 32.043-22.648 30.863-17.711 28.035-12.754 23.664-8.184 17.945-4.379 11.203-1.656 3.809-.242"/><path xmlns="http://www.w3.org/2000/svg" fill="none" stroke="#3abcb2" stroke-linecap="round" stroke-linejoin="round" stroke-miterlimit="10" stroke-opacity=".902" stroke-width=".75" d="M693.332 360l-4.398-.215-12.985-1.492L655 354.348l-27.93-7.399-33.601-11.586-37.742-16.191-40.192-20.852-40.922-25.191-39.972-28.856-37.504-31.496-33.746-32.851-29.008-32.703-23.637-30.946-18.023-27.562-12.543-22.63-7.555-16.323-3.387-8.914-.27-.735 1.618 7.84 2.203 16.387 1.496 24.488-.375 31.754-3.223 37.828-6.769 42.43-10.691 45.363-14.637 46.508-18.227 45.867-21.117 43.535-22.988 39.703-23.606 34.63-22.773 28.66-20.422 22.164-16.566 15.539-11.313 9.171-4.867 3.422 2.484-1.394 10.403-5.055 18.476-7.402 26.313-8.383 33.5-8.027 39.656-6.485 44.46-3.96 47.669-.735 49.113 2.844 48.723 6.433 46.547 9.657 42.71 12.183 37.446 13.719 31.05 14.031 23.887 12.969 16.36 10.488 8.86 6.617 1.788 1.496-4.496-4.644-9.707-11.512-13.621-18.746-16.11-25.957-17.14-32.734-16.777-38.7-15.184-43.496-12.578-46.828-9.281-48.484-5.621-48.344-1.97-46.39 1.317-42.688 3.914-37.43 5.528-30.863 5.965-23.336 5.085-15.215 2.864-6.922-.64 1.13-5.263 8.554-10.773 15.004-16.856 20.207-23.148 23.96-29.27 26.161-34.824 26.813-39.449 26.003-42.808 23.918-44.66 20.813-44.813 17.008-43.2 12.863-39.824 8.746-34.824 5.012-28.402 1.988-20.848-.062-12.535-.938-3.852-.535 4.786 1.152 12.949 4.055 20.27 7.984 26.417 12.696 31.137 17.875 34.262 23.156 35.719 28.16 35.539 32.52 33.851 35.87 30.871 37.934 26.88 38.477 22.218 37.363 17.254 34.55 12.375 30.099 7.926 24.164 4.238 16.984 1.562 8.89.079.255-.125-8.516.945-16.996 3.187-24.778 6.414-31.503 10.368-36.868 14.71-40.64 19.102-42.692 23.152-42.996 26.52-41.613 28.86-38.707 29.917-34.527 29.496-29.38 27.489-23.64 23.894-17.684 18.801-11.902 12.398-6.648 4.95-2.239-3.192 1.078-11.648 3.141-20.004 3.89-27.848 3.337-34.777 1.605-40.469-1.094-44.633-4.492-47.086-8.258-47.738-12.039-46.598-15.46-43.77-18.18-39.456-19.895-33.934-20.355-27.55-19.399-20.688-16.953-13.75-13.047-7.121-7.789-1.156-1.398 3.828 5.836 7.613 13.562 10.05 21.383 11.087 28.902 10.781 35.7 9.266 41.425 6.757 45.754 3.563 48.453v49.368l-3.563 48.453-6.757 45.754-9.266 41.425-10.781 35.7-11.086 28.902-10.05 21.383-7.614 13.562-3.828 5.836 1.156-1.398 7.121-7.79 13.75-13.046 20.688-16.953 27.55-19.399 33.934-20.355 39.457-19.895 43.77-18.18 46.597-15.46 47.738-12.04 47.086-8.257 44.633-4.492 40.469-1.094 34.777 1.605 27.848 3.336 20.004 3.89 11.648 3.142 3.192 1.078-4.95-2.239-12.398-6.648-18.8-11.902-23.895-17.684-27.489-23.64-29.496-29.38-29.918-34.527-28.86-38.707-26.519-41.613-23.152-42.996-19.101-42.692-14.711-40.64-10.368-36.868-6.414-31.503-3.187-24.778-.945-16.996.125-8.516-.079.254-1.562 8.891-4.238 16.984-7.926 24.164-12.375 30.098-17.254 34.55-22.219 37.364-26.879 38.477-30.87 37.933-33.852 35.871-35.54 32.52-35.718 28.16-34.262 23.156-31.137 17.875-26.418 12.696-20.27 7.984-12.948 4.055-4.786 1.152 3.852-.535 12.535-.938 20.848-.062 28.402 1.988 34.824 5.012 39.825 8.746 43.199 12.863 44.812 17.008 44.66 20.813 42.81 23.918 39.448 26.003 34.825 26.813 29.27 26.16 23.147 23.961 16.856 20.207 10.773 15.004 5.262 8.555.64 1.129-2.863-6.922-5.085-15.215-5.965-23.336-5.528-30.863-3.914-37.43-1.316-42.688 1.969-46.39 5.62-48.344 9.282-48.484 12.578-46.828 15.184-43.496 16.777-38.7 17.14-32.734 16.11-25.957 13.621-18.746 9.707-11.512 4.496-4.644-1.789 1.496-8.86 6.617-16.359 10.488-23.886 12.969-31.051 14.031-37.445 13.719-42.711 12.183-46.547 9.657-48.723 6.433-49.113 2.844-47.668-.734-44.461-3.961-39.656-6.485-33.5-8.027-26.313-8.383-18.476-7.402-10.403-5.055-2.484-1.394 4.867 3.422 11.313 9.171 16.566 15.54 20.422 22.164 22.773 28.66 23.606 34.629 22.988 39.703 21.117 43.535 18.227 45.867 14.637 46.508 10.691 45.363 6.77 42.43 3.222 37.828.375 31.754-1.496 24.488-2.203 16.387-1.617 7.84.27-.735 3.386-8.914 7.555-16.324 12.543-22.629 18.023-27.562 23.637-30.946 29.008-32.703 33.746-32.851 37.504-31.496 39.972-28.856 40.922-25.191 40.192-20.852 37.742-16.191 33.601-11.586 27.93-7.399 20.95-3.945 12.984-1.492 4.398-.215"/><path xmlns="http://www.w3.org/2000/svg" fill="none" stroke="#0b91b5" stroke-linecap="round" stroke-linejoin="round" stroke-miterlimit="10" stroke-opacity=".902" stroke-width=".75" d="M693.332 360l-4.84-.168-14.332-1.176-23.246-3.11-31.242-5.843-38.008-9.187-43.297-12.895-46.933-16.7-48.813-20.304-48.914-23.422-47.312-25.785-44.13-27.14-39.59-27.301-33.945-26.133-27.511-23.57-20.621-19.618-13.614-14.367-6.824-7.969-.55-.652 4.93 7.297 9.413 15.559 12.762 23.785 14.89 31.601 15.81 38.66 15.573 44.63 14.336 49.226 12.281 52.21 9.649 53.435 6.703 52.808 3.727 50.336.988 46.094-1.238 40.25-2.75 33.043-3.368 24.758-2.972 15.746-1.524 6.363.95-2.988 4.363-11.95 8.547-20.16 13.297-27.316 18.336-33.164 23.386-37.512 28.121-40.258 32.246-41.363 35.465-40.883 37.52-38.93 38.21-35.703 37.4-31.445 35.01-26.437 31.056-20.993 25.617-15.437 18.855-10.067 11.008-5.175 2.367-1-6.742 2.273-15.937 4.516-24.852 5.672-33.11 5.761-40.359 4.875-46.297 3.145-50.675.781-53.305-1.969-54.09-4.843-53.008-7.563-50.12-9.851-45.567-11.465-39.567-12.184-32.39-11.863-24.371-10.395-15.856-7.75-7.215-3.984 1.184.797 9.004 6.402 15.937 12.61 21.746 19.105 26.23 25.598 29.294 31.734 30.894 37.2 31.067 41.667 29.941 44.88 27.676 46.6 24.516 46.692 20.722 45.047 16.586 41.676 12.414 36.66 8.485 30.148 5.058 22.375 2.352 13.625.535 4.243-.297-5.403-.117-14.93 1.047-23.945 3.078-32.097 5.816-39.067 9.043-44.582 12.504-48.453 15.906-50.55 18.977-50.837 21.43-49.351 23.02-46.22 23.526-41.632 22.813-35.844 20.773-29.16 17.399-21.906 12.738-14.441 6.938-7.106.183-.226-7.265 5.917-15.09 11.086-22.961 15.106-30.524 17.871-37.418 19.355-43.316 19.61-47.922 18.738-50.992 16.918-52.344 14.371-51.887 11.363-49.593 8.165-45.52 5.066-39.816 2.332-32.703.207-24.453-1.121-15.403-1.5-5.914-.867 3.617.797 12.828 3.418 21.34 6.875 28.832 10.972 35.04 15.473 39.745 20.094 42.813 24.539 44.2 28.507 43.917 31.7L346.82 475l38.852 34.77 34.476 34.27 29.227 32.26 23.418 28.735 17.375 23.75 11.422 17.445 5.86 10.02.945 1.762-3.094-7.028-6.113-15.98-8.024-24.727-8.809-32.89-8.53-40.133-7.31-46.121-5.32-50.606-2.8-53.37v-54.313l2.8-53.371 5.32-50.606 7.31-46.12 8.53-40.134 8.81-32.89 8.022-24.727 6.114-15.98 3.094-7.028-.946 1.762-5.86 10.02-11.421 17.445-17.375 23.75-23.418 28.734-29.227 32.262-34.476 34.27L346.82 245l-42.078 33.863-43.918 31.7-44.199 28.507-42.813 24.54-39.746 20.093-35.039 15.473-28.832 10.972-21.34 6.875-12.828 3.418-3.617.797 5.914-.867 15.403-1.5 24.453-1.121 32.703.207 39.816 2.332 45.52 5.066 49.594 8.165 51.886 11.363 52.344 14.37 50.992 16.919 47.922 18.738 43.316 19.61 37.418 19.355 30.524 17.871 22.96 15.106 15.09 11.086 7.266 5.917-.183-.226-6.938-7.106-12.738-14.441-17.399-21.906-20.773-29.16-22.813-35.844-23.527-41.633-23.02-46.219-21.43-49.351-18.976-50.836-15.906-50.551-12.504-48.453-9.043-44.582-5.816-39.067-3.078-32.097-1.047-23.945.117-14.93.297-5.403-.535 4.243-2.352 13.625-5.058 22.375-8.485 30.148-12.414 36.66-16.586 41.676-20.722 45.047-24.516 46.691-27.676 46.602-29.941 44.879-31.067 41.668-30.894 37.199-29.293 31.734-26.23 25.598-21.747 19.105-15.937 12.61-9.004 6.402-1.184.797 7.215-3.984 15.856-7.75 24.37-10.395 32.391-11.863 39.567-12.184 45.566-11.465 50.121-9.851 53.008-7.563 54.09-4.843 53.305-1.97 50.675.782 46.297 3.145 40.36 4.875 33.109 5.761 24.852 5.672 15.937 4.516 6.742 2.273-2.367-1-11.008-5.175-18.855-10.067-25.617-15.437-31.055-20.993-35.012-26.437-37.398-31.445-38.211-35.704-37.52-38.93-35.465-40.882-32.246-41.363-28.12-40.258-23.387-37.512-18.336-33.164-13.297-27.316-8.547-20.16-4.363-11.95-.95-2.988 1.524 6.363 2.972 15.746 3.368 24.758 2.75 33.043 1.238 40.25-.988 46.094-3.727 50.336-6.703 52.808-9.649 53.434-12.28 52.211-14.337 49.227-15.574 44.628-15.809 38.66-14.89 31.602-12.762 23.785-9.414 15.559-4.93 7.297.551-.653 6.824-7.968 13.614-14.367 20.62-19.618 27.512-23.57 33.946-26.133 39.59-27.3 44.129-27.141 47.312-25.785 48.914-23.422 48.813-20.305 46.933-16.7 43.297-12.894 38.008-9.187 31.242-5.844 23.246-3.11 14.332-1.175 4.84-.168"/><path xmlns="http://www.w3.org/2000/svg" fill="none" stroke="#065fa3" stroke-linecap="round" stroke-linejoin="round" stroke-miterlimit="10" stroke-opacity=".902" stroke-width=".75" d="M693.332 360l-5.137-.11-15.23-.745-24.8-1.98-33.505-3.735-41.058-5.883-47.196-8.281-51.73-10.762-54.516-13.137-55.473-15.23-54.605-16.856-51.973-17.851-47.699-18.075-41.965-17.43-35.007-15.843-27.102-13.305-18.547-9.828-9.668-5.508-.789-.453 7.781 5.164 15.746 11.149 22.844 17.258 28.852 23.246 33.61 28.867 36.991 33.844 38.95 37.953 39.476 40.965 38.645 42.703 36.55 43.039 33.352 41.87 29.254 39.192 24.465 35.016 19.226 29.445 13.793 22.633 8.39 14.777 3.25 6.137-1.429-3.008-5.48-12.328-8.782-21.504-11.246-30.195-12.843-38.09-13.582-44.879-13.516-50.305-12.738-54.152-11.38-56.262-9.597-56.539-7.562-54.953-5.446-51.539-3.437-46.406-1.688-39.727-.355-31.718.449-22.668.652-12.887.2-2.715-.895 7.492-2.602 17.38-4.828 26.6-7.457 34.86-10.336 41.86-13.293 47.39-16.136 51.277-18.672 53.41-20.707 53.75-22.074 52.333-22.618 49.23-22.214 44.613-20.801 38.672-18.332 31.668-14.832 23.867-10.368 15.586-5.058 7.133.941-1.187 7.414-9.075 14.145-16.27 20.855-22.53 27.286-27.692 33.16-31.605 38.215-34.2 42.218-35.456 44.953-35.407 46.262-34.136 46.027-31.778 44.2-28.508 40.773-24.52 35.828-20.042 29.489-15.305 21.933-10.531 13.41-5.938 4.196-1.718-5.399 1.953-15.035 4.96L626 253.73l-33.082 8.688-40.832 9.363-47.348 9.305-52.375 8.598-55.726 7.355-57.27 5.734-56.937 3.899-54.73 2.02-50.723.28-45.051-1.167-37.91-2.172-29.555-2.625-20.281-2.438L33.762 299l-.301-.027 9.703 2.148L62.414 306l28.023 8.035 35.723 11.461 42.098 14.98 46.965 18.391 50.168 21.488 51.648 24.075 51.399 25.949 49.472 26.96 45.98 26.966 41.114 25.882 35.078 23.649 28.14 20.285 20.579 15.828 12.695 10.406 4.79 4.16-2.856-2.702-9.965-9.946-16.305-17.312-21.683-24.508-25.954-31.258-29.023-37.27-30.844-42.289-31.441-46.078-30.875-48.449-29.254-49.258-26.73-48.414-23.493-45.898-19.734-41.742-15.684-36.059-11.547-28.996-7.539-20.793-3.843-11.695-.618-2.028 2.004 7.895 3.95 17.71 5.16 27.087 5.648 35.672 5.453 43.175 4.664 49.313 3.391 53.863 1.781 56.66v57.61l-1.781 56.66-3.39 53.863-4.665 49.313-5.453 43.175-5.648 35.672-5.16 27.086-3.95 17.711-2.004 7.895.618-2.028 3.843-11.695 7.54-20.793 11.546-28.996 15.684-36.059 19.734-41.742 23.492-45.898 26.73-48.414 29.255-49.258 30.875-48.45 31.441-46.077 30.844-42.29 29.023-37.27 25.954-31.257 21.683-24.508 16.305-17.312 9.965-9.946 2.855-2.703-4.789 4.16-12.695 10.407-20.578 15.828-28.141 20.285-35.078 23.649-41.113 25.882-45.98 26.965-49.474 26.961-51.398 25.95-51.648 24.074-50.168 21.488-46.965 18.39-42.098 14.98-35.722 11.462L62.413 414l-19.25 4.879-9.703 2.148.3-.027 10.419-1.57 20.28-2.438 29.556-2.625 37.91-2.172 45.05-1.168 50.723.282 54.73 2.02 56.938 3.898 57.27 5.734 55.726 7.355 52.375 8.598 47.348 9.305 40.832 9.363L626 466.27l24.375 7.222 15.035 4.961 5.399 1.953-4.196-1.719-13.41-5.937-21.933-10.531-29.489-15.305-35.828-20.043-40.773-24.52-44.2-28.507-46.027-31.778-46.262-34.136-44.953-35.407-42.218-35.457-38.215-34.199-33.16-31.605-27.286-27.692-20.855-22.53-14.145-16.27-7.414-9.075-.941-1.187 5.059 7.133 10.367 15.586 14.832 23.867 18.332 31.668 20.8 38.672 22.215 44.613 22.618 49.23L295.8 357.61l20.707 53.75 18.672 53.41 16.136 51.278 13.293 47.39 10.336 41.86 7.457 34.86 4.828 26.6 2.602 17.38.895 7.492-.2-2.715-.652-12.887-.45-22.668.356-31.718 1.688-39.727 3.437-46.406 5.446-51.54 7.562-54.952 9.598-56.54 11.379-56.261 12.738-54.152 13.516-50.305 13.582-44.88 12.843-38.089 11.246-30.195 8.782-21.504 5.48-12.328 1.43-3.008-3.25 6.137-8.39 14.777-13.794 22.633-19.226 29.445-24.465 35.016-29.254 39.191-33.352 41.871-36.55 43.04-38.645 42.702-39.477 40.965-38.949 37.953-36.992 33.844-33.61 28.867-28.85 23.246-22.845 17.258-15.746 11.149-7.781 5.164.79-.453 9.667-5.508 18.547-9.828 27.102-13.305 35.007-15.844 41.965-17.43 47.7-18.074 51.972-17.851 54.606-16.856 55.472-15.23 54.516-13.137 51.73-10.762 47.196-8.28 41.058-5.884 33.504-3.734 24.8-1.98 15.231-.747 5.137-.109"/><path xmlns="http://www.w3.org/2000/svg" fill="none" stroke="#172869" stroke-linecap="round" stroke-linejoin="round" stroke-miterlimit="10" stroke-opacity=".902" stroke-width=".75" d="M693.332 360l-5.285-.035-15.684-.258-25.578-.68-34.656-1.285-42.613-2.02-49.207-2.85-54.223-3.716-57.5-4.543-58.938-5.277-58.492-5.856-56.18-6.222-52.085-6.32-46.34-6.114-39.13-5.582-30.694-4.703-21.309-3.496-11.273-1.965-.922-.16 9.425 1.863 19.426 4.047 28.766 6.3 37.144 8.548 44.301 10.676 50.008 12.609 54.094 14.246 56.43 15.492 56.96 16.281 55.672 16.547 52.617 16.243 47.907 15.34 41.703 13.831 34.21 11.75 25.692 9.122 16.41 6.019 6.684 2.523-3.184-1.257-12.867-5.2-22.058-9.18-30.47-13.054-37.831-16.676-43.926-19.914-48.563-22.633-51.609-24.714-52.984-26.059-52.66-26.586-50.66-26.246-47.075-25.02-42.031-22.902-35.703-19.945-28.317-16.207-20.12-11.797-11.38-6.828-2.39-1.461 6.562 4.144 15.184 9.801 23.21 15.32 30.391 20.52 36.496 25.2 41.36 29.198 44.832 32.364 46.832 34.554 47.305 35.676 46.27 35.664 43.78 34.48 39.938 32.141 34.89 28.684 28.82 24.203 21.942 18.82 14.485 12.684 6.707 5.992-1.141-1.055-8.805-8.238-16.039-15.308-22.617-22.04-28.344-28.207-33.054-33.586-36.606-37.984-38.922-41.242-39.949-43.227-39.676-43.851-38.152-43.063-35.45-40.863-31.683-37.305-26.996-32.472-21.57-26.5-15.598-19.575-9.277-11.894-2.836-3.703 3.523 4.738 9.594 13.164 15.184 21.285 20.132 28.852 24.286 35.598 27.543 41.289 29.82 45.73 31.07 48.762 31.29 50.258 30.503 50.156 28.766 48.437 26.172 45.137 22.828 40.34 18.883 34.195 14.472 26.871 9.774 18.602 4.941 9.64.145.274-4.454-9.2-8.718-18.476-12.512-27.25-15.738-35.234-18.309-42.16-20.164-47.797-21.273-51.953-21.645-54.47-21.293-55.265-20.265-54.293-18.637-51.57-16.492-47.168-13.934-41.227-11.066-33.921-8.02-25.473-4.906-16.156-1.832-6.262 1.082 3.898 3.75 13.989 6.094 23.687 8.05 32.684 9.567 40.68 10.629 47.41 11.226 52.66 11.38 56.238 11.108 58.043 10.47 57.988 9.519 56.086 8.328 52.375 6.969 46.98 5.511 40.067 4.047 31.852 2.633 22.593 1.336 12.594.215 2.168-.695-8.348-1.364-18.613-1.777-28.304-1.945-37.102-1.872-44.727-1.601-50.922-1.164-55.5-.61-58.308V330.37l.61-58.308 1.164-55.5 1.601-50.922 1.872-44.727 1.945-37.102 1.777-28.304 1.364-18.613.695-8.348-.215 2.168-1.336 12.594-2.633 22.593-4.047 31.852-5.511 40.066-6.97 46.98-8.327 52.376-9.52 56.086-10.469 57.988-11.109 58.043-11.379 56.238-11.226 52.66-10.63 47.41-9.566 40.68-8.05 32.684-6.094 23.687-3.75 13.989-1.082 3.898 1.832-6.262 4.906-16.156 8.02-25.473 11.066-33.921 13.934-41.227 16.492-47.168 18.637-51.57 20.265-54.293 21.293-55.266 21.645-54.469 21.273-51.953 20.164-47.797 18.309-42.16 15.738-35.234 12.512-27.25 8.718-18.477 4.454-9.199-.145.273-4.941 9.641-9.774 18.602-14.472 26.87-18.883 34.196-22.828 40.34-26.172 45.137-28.766 48.437-30.504 50.156-31.289 50.258-31.07 48.762-29.82 45.73-27.543 41.29-24.286 35.597-20.132 28.852-15.184 21.285-9.594 13.164-3.523 4.738 2.836-3.703 9.277-11.894 15.598-19.575 21.57-26.5 26.996-32.472 31.684-37.305 35.449-40.863 38.152-43.063 39.676-43.851 39.95-43.227 38.921-41.242 36.606-37.985 33.054-33.585 28.344-28.207 22.617-22.04 16.04-15.308 8.804-8.238 1.14-1.055-6.706 5.992-14.485 12.684-21.941 18.82-28.82 24.203-34.891 28.684-39.938 32.14-43.78 34.48-46.27 35.665-47.305 35.676-46.832 34.554-44.832 32.364-41.36 29.199-36.496 25.2-30.39 20.519-23.211 15.32-15.184 9.8-6.562 4.145 2.39-1.46 11.38-6.829 20.12-11.797 28.317-16.207 35.703-19.945 42.031-22.902 47.074-25.02 50.66-26.246 52.66-26.586 52.985-26.059 51.61-24.714 48.562-22.633 43.926-19.914 37.832-16.676 30.468-13.055 22.06-9.18 12.866-5.199 3.184-1.257-6.684 2.523-16.41 6.02-25.691 9.12-34.211 11.75-41.703 13.833-47.907 15.34-52.617 16.242-55.672 16.547-56.96 16.28-56.43 15.493-54.094 14.246-50.008 12.61-44.3 10.675-37.145 8.547-28.766 6.3-19.426 4.048-9.425 1.863.922-.16 11.273-1.965 21.309-3.496 30.695-4.703 39.129-5.582 46.34-6.113 52.086-6.32 56.18-6.223 58.491-5.856 58.938-5.277 57.5-4.543 54.223-3.715 49.207-2.852 42.613-2.02 34.656-1.284 25.578-.68 15.684-.258 5.285-.035"/></svg>