<?xml version="1.0" encoding="UTF-8"?>
<svg xmlns="http://www.w3.org/2000/svg" xmlns:xlink="http://www.w3.org/1999/xlink" width="100%" height="100%" viewBox="0 0 720 720" version="1.1">
  <rect id="spiro_bg" x="0" y="0" rx="0%" ry="0%" width="100%" height="100%" style="fill:#000000FF;stroke:none;"/>
  <g id="spiro_17_1_1_44997">
    <path style="fill:none;stroke-width:0.75;stroke-linecap:round;stroke-linejoin:round;stroke:rgb(53.333333%,10.980392%,0%);stroke-opacity:0.901961;stroke-miterlimit:10;" d="M 693.332031 360 L 692.167969 359.878906 L 688.789063 359.03125 L 683.554688 356.824219 L 677.007813 352.769531 L 669.835938 346.585938 L 662.765625 338.234375 L 656.507813 327.917969 L 651.664063 316.066406 L 648.65625 303.28125 L 647.691406 290.265625 L 648.734375 277.761719 L 651.507813 266.449219 L 655.527344 256.882813 L 660.144531 249.421875 L 664.640625 244.195313 L 668.292969 241.089844 L 670.453125 239.757813 L 670.636719 239.648438 L 668.550781 240.097656 L 664.152344 240.371094 L 657.644531 239.761719 L 649.445313 237.667969 L 640.152344 233.667969 L 630.472656 227.554688 L 621.144531 219.359375 L 612.84375 209.367188 L 606.128906 198.058594 L 601.359375 186.082031 L 598.675781 174.15625 L 597.953125 163.011719 L 598.855469 153.300781 L 600.835938 145.515625 L 603.21875 139.957031 L 605.28125 136.667969 L 606.308594 135.460938 L 605.703125 135.917969 L 603.03125 137.453125 L 598.082031 139.359375 L 590.886719 140.90625 L 581.722656 141.414063 L 571.070313 140.328125 L 559.574219 137.289063 L 547.953125 132.160156 L 536.9375 125.054688 L 527.179688 116.320313 L 519.179688 106.5 L 513.230469 96.269531 L 509.394531 86.359375 L 507.480469 77.488281 L 507.074219 70.253906 L 507.585938 65.101563 L 508.324219 62.25 L 508.550781 61.667969 L 507.582031 63.097656 L 504.867188 66.050781 L 500.042969 69.902344 L 492.964844 73.925781 L 483.753906 77.398438 L 472.746094 79.667969 L 460.484375 80.238281 L 447.644531 78.808594 L 434.960938 75.328125 L 423.144531 69.976563 L 412.8125 63.175781 L 404.402344 55.507813 L 398.140625 47.675781 L 394.007813 40.414063 L 391.738281 34.414063 L 390.863281 30.226563 L 390.746094 28.234375 L 390.675781 28.574219 L 389.925781 31.144531 L 387.84375 35.605469 L 383.933594 41.421875 L 377.890625 47.925781 L 369.660156 54.382813 L 359.433594 60.082031 L 347.613281 64.414063 L 334.789063 66.9375 L 321.671875 67.421875 L 308.992188 65.886719 L 297.441406 62.597656 L 287.585938 58.027344 L 279.804688 52.800781 L 274.242188 47.640625 L 270.804688 43.277344 L 269.160156 40.359375 L 268.78125 39.394531 L 268.996094 40.6875 L 269.082031 44.304688 L 268.324219 50.058594 L 266.113281 57.550781 L 262.007813 66.191406 L 255.78125 75.28125 L 247.457031 84.085938 L 237.285156 91.917969 L 225.746094 98.207031 L 213.46875 102.574219 L 201.175781 104.871094 L 189.597656 105.1875 L 179.390625 103.859375 L 171.074219 101.410156 L 164.953125 98.511719 L 161.097656 95.882813 L 159.335938 94.246094 L 159.269531 94.210938 L 160.316406 96.222656 L 161.785156 100.511719 L 162.941406 107.066406 L 163.097656 115.632813 L 161.691406 125.738281 L 158.335938 136.757813 L 152.886719 147.964844 L 145.433594 158.632813 L 136.3125 168.097656 L 126.042969 175.851563 L 115.300781 181.574219 L 104.816406 185.195313 L 95.304688 186.882813 L 87.382813 187.03125 L 81.511719 186.21875 L 77.921875 185.144531 L 76.609375 184.53125 L 77.324219 185.074219 L 79.605469 187.339844 L 82.832031 191.707031 L 86.28125 198.335938 L 89.226563 207.132813 L 91.015625 217.769531 L 91.128906 229.722656 L 89.253906 242.320313 L 85.316406 254.835938 L 79.484375 266.542969 L 72.15625 276.828125 L 63.90625 285.226563 L 55.433594 291.503906 L 47.46875 295.652344 L 40.714844 297.921875 L 35.734375 298.769531 L 32.925781 298.816406 L 32.441406 298.773438 L 34.203125 299.367188 L 37.890625 301.261719 L 42.976563 304.96875 L 48.808594 310.800781 L 54.648438 318.839844 L 59.785156 328.917969 L 63.597656 340.636719 L 65.625 353.421875 L 65.625 366.578125 L 63.597656 379.363281 L 59.785156 391.082031 L 54.648438 401.160156 L 48.808594 409.199219 L 42.976563 415.03125 L 37.890625 418.738281 L 34.203125 420.632813 L 32.441406 421.226563 L 32.925781 421.183594 L 35.734375 421.230469 L 40.714844 422.078125 L 47.46875 424.347656 L 55.433594 428.496094 L 63.90625 434.773438 L 72.15625 443.171875 L 79.484375 453.457031 L 85.316406 465.164063 L 89.253906 477.679688 L 91.128906 490.277344 L 91.015625 502.230469 L 89.226563 512.867188 L 86.28125 521.664063 L 82.832031 528.292969 L 79.605469 532.660156 L 77.324219 534.925781 L 76.609375 535.46875 L 77.921875 534.855469 L 81.511719 533.78125 L 87.382813 532.96875 L 95.304688 533.117188 L 104.816406 534.804688 L 115.300781 538.425781 L 126.042969 544.148438 L 136.3125 551.902344 L 145.433594 561.367188 L 152.886719 572.035156 L 158.335938 583.242188 L 161.691406 594.261719 L 163.097656 604.367188 L 162.941406 612.933594 L 161.785156 619.488281 L 160.316406 623.777344 L 159.269531 625.789063 L 159.335938 625.753906 L 161.097656 624.117188 L 164.953125 621.488281 L 171.074219 618.589844 L 179.390625 616.140625 L 189.597656 614.8125 L 201.175781 615.128906 L 213.46875 617.425781 L 225.746094 621.792969 L 237.285156 628.082031 L 247.457031 635.914063 L 255.78125 644.71875 L 262.007813 653.808594 L 266.113281 662.449219 L 268.324219 669.941406 L 269.082031 675.695313 L 268.996094 679.3125 L 268.78125 680.605469 L 269.160156 679.640625 L 270.804688 676.722656 L 274.242188 672.359375 L 279.804688 667.199219 L 287.585938 661.972656 L 297.441406 657.402344 L 308.992188 654.113281 L 321.671875 652.578125 L 334.789063 653.0625 L 347.613281 655.585938 L 359.433594 659.917969 L 369.660156 665.617188 L 377.890625 672.074219 L 383.933594 678.578125 L 387.84375 684.394531 L 389.925781 688.855469 L 390.675781 691.425781 L 390.746094 691.765625 L 390.863281 689.773438 L 391.738281 685.585938 L 394.007813 679.585938 L 398.140625 672.324219 L 404.402344 664.492188 L 412.8125 656.824219 L 423.144531 650.023438 L 434.960938 644.671875 L 447.644531 641.191406 L 460.484375 639.761719 L 472.746094 640.332031 L 483.753906 642.601563 L 492.964844 646.074219 L 500.042969 650.097656 L 504.867188 653.949219 L 507.582031 656.902344 L 508.550781 658.332031 L 508.324219 657.75 L 507.585938 654.898438 L 507.074219 649.746094 L 507.480469 642.511719 L 509.394531 633.640625 L 513.230469 623.730469 L 519.179688 613.5 L 527.179688 603.679688 L 536.9375 594.945313 L 547.953125 587.839844 L 559.574219 582.710938 L 571.070313 579.671875 L 581.722656 578.585938 L 590.886719 579.09375 L 598.082031 580.640625 L 603.03125 582.546875 L 605.703125 584.082031 L 606.308594 584.539063 L 605.28125 583.332031 L 603.21875 580.042969 L 600.835938 574.484375 L 598.855469 566.699219 L 597.953125 556.988281 L 598.675781 545.84375 L 601.359375 533.917969 L 606.128906 521.941406 L 612.84375 510.632813 L 621.144531 500.640625 L 630.472656 492.445313 L 640.152344 486.332031 L 649.445313 482.332031 L 657.644531 480.238281 L 664.152344 479.628906 L 668.550781 479.902344 L 670.636719 480.351563 L 670.453125 480.242188 L 668.292969 478.910156 L 664.640625 475.804688 L 660.144531 470.578125 L 655.527344 463.117188 L 651.507813 453.550781 L 648.734375 442.238281 L 647.691406 429.734375 L 648.65625 416.71875 L 651.664063 403.933594 L 656.507813 392.082031 L 662.765625 381.765625 L 669.835938 373.414063 L 677.007813 367.230469 L 683.554688 363.175781 L 688.789063 360.96875 L 692.167969 360.121094 L 693.332031 360 "/>
  </g>
  <g xmlns="http://www.w3.org/2000/svg" id="spiro_17_2_2_16040">
    <path style="fill:none;stroke-width:0.75;stroke-linecap:round;stroke-linejoin:round;stroke:rgb(63.921569%,30.196078%,10.196078%);stroke-opacity:0.901961;stroke-miterlimit:10;" d="M 693.332031 360 L 691.140625 359.800781 L 684.757813 358.421875 L 674.734375 354.8125 L 661.933594 348.136719 L 647.441406 337.863281 L 632.460938 323.835938 L 618.199219 306.269531 L 605.730469 285.746094 L 595.917969 263.148438 L 589.308594 239.582031 L 586.089844 216.269531 L 586.066406 194.425781 L 588.683594 175.144531 L 593.089844 159.285156 L 598.199219 147.410156 L 602.832031 139.707031 L 605.800781 135.976563 L 606.050781 135.675781 L 602.753906 137.941406 L 595.398438 141.703125 L 583.828125 145.765625 L 568.285156 148.957031 L 549.355469 150.21875 L 527.933594 148.730469 L 505.136719 143.976563 L 482.179688 135.808594 L 460.28125 124.460938 L 440.519531 110.527344 L 423.753906 94.890625 L 410.515625 78.660156 L 400.980469 63.050781 L 394.945313 49.25 L 391.839844 38.335938 L 390.800781 31.128906 L 390.75 28.15625 L 390.507813 29.5625 L 388.902344 35.113281 L 384.894531 44.21875 L 377.691406 55.988281 L 366.796875 69.316406 L 352.105469 83.003906 L 333.867188 95.847656 L 312.707031 106.796875 L 289.542969 115.027344 L 265.496094 120.027344 L 241.796875 121.664063 L 219.652344 120.167969 L 200.136719 116.144531 L 184.078125 110.476563 L 172 104.265625 L 164.039063 98.703125 L 159.96875 94.964844 L 159.191406 94.09375 L 160.828125 96.878906 L 163.785156 103.800781 L 166.863281 114.960938 L 168.90625 130.089844 L 168.871094 148.558594 L 165.976563 169.4375 L 159.746094 191.597656 L 150.085938 213.820313 L 137.265625 234.898438 L 121.921875 253.769531 L 104.976563 269.617188 L 87.554688 281.949219 L 70.875 290.628906 L 56.121094 295.910156 L 44.347656 298.402344 L 36.351563 298.996094 L 32.613281 298.792969 L 33.238281 298.972656 L 37.953125 300.699219 L 46.125 304.988281 L 56.84375 312.605469 L 68.984375 323.996094 L 81.34375 339.234375 L 92.734375 358.011719 L 102.128906 379.671875 L 108.734375 403.273438 L 112.089844 427.664063 L 112.101563 451.617188 L 109.054688 473.933594 L 103.585938 493.5625 L 96.613281 509.703125 L 89.257813 521.878906 L 82.714844 529.988281 L 78.160156 534.3125 L 76.601563 535.472656 L 78.804688 534.386719 L 85.210938 532.160156 L 95.878906 529.992188 L 110.496094 529.03125 L 128.394531 530.289063 L 148.621094 534.519531 L 170.03125 542.152344 L 191.398438 553.234375 L 211.535156 567.453125 L 229.402344 584.128906 L 244.214844 602.3125 L 255.523438 620.859375 L 263.242188 638.550781 L 267.664063 654.199219 L 269.4375 666.78125 L 269.484375 675.53125 L 268.917969 680.007813 L 268.933594 680.144531 L 270.671875 676.261719 L 275.132813 669.019531 L 283.046875 659.363281 L 294.8125 648.421875 L 310.464844 637.414063 L 329.65625 627.496094 L 351.683594 619.6875 L 375.578125 614.726563 L 400.179688 613.042969 L 424.25 614.679688 L 446.605469 619.304688 L 466.21875 626.246094 L 482.320313 634.550781 L 494.480469 643.085938 L 502.636719 650.644531 L 507.113281 656.066406 L 508.566406 658.359375 L 507.941406 656.796875 L 506.359375 650.976563 L 505.019531 640.882813 L 505.0625 626.867188 L 507.464844 609.636719 L 512.949219 590.164063 L 521.902344 569.613281 L 534.324219 549.207031 L 549.855469 530.125 L 567.78125 513.375 L 587.121094 499.703125 L 606.71875 489.523438 L 625.339844 482.875 L 641.820313 479.414063 L 655.152344 478.457031 L 664.605469 479.058594 L 669.777344 480.082031 L 670.648438 480.339844 L 667.574219 478.691406 L 661.253906 474.171875 L 652.652344 466.078125 L 642.921875 454.054688 L 633.265625 438.113281 L 624.839844 418.648438 L 618.621094 396.386719 L 615.324219 372.335938 L 615.324219 347.664063 L 618.621094 323.613281 L 624.839844 301.351563 L 633.265625 281.886719 L 642.921875 265.945313 L 652.652344 253.921875 L 661.253906 245.828125 L 667.574219 241.308594 L 670.648438 239.660156 L 669.777344 239.917969 L 664.605469 240.941406 L 655.152344 241.542969 L 641.820313 240.585938 L 625.339844 237.125 L 606.71875 230.476563 L 587.121094 220.296875 L 567.78125 206.625 L 549.855469 189.875 L 534.324219 170.792969 L 521.902344 150.386719 L 512.949219 129.835938 L 507.464844 110.363281 L 505.0625 93.132813 L 505.019531 79.117188 L 506.359375 69.023438 L 507.941406 63.203125 L 508.566406 61.640625 L 507.113281 63.933594 L 502.636719 69.355469 L 494.480469 76.914063 L 482.320313 85.449219 L 466.21875 93.753906 L 446.605469 100.695313 L 424.25 105.320313 L 400.179688 106.957031 L 375.578125 105.273438 L 351.683594 100.3125 L 329.65625 92.503906 L 310.464844 82.585938 L 294.8125 71.578125 L 283.046875 60.636719 L 275.132813 50.980469 L 270.671875 43.738281 L 268.933594 39.855469 L 268.917969 39.992188 L 269.484375 44.46875 L 269.4375 53.21875 L 267.664063 65.800781 L 263.242188 81.449219 L 255.523438 99.140625 L 244.214844 117.6875 L 229.402344 135.871094 L 211.535156 152.546875 L 191.398438 166.765625 L 170.03125 177.847656 L 148.621094 185.480469 L 128.394531 189.710938 L 110.496094 190.96875 L 95.878906 190.007813 L 85.210938 187.839844 L 78.804688 185.613281 L 76.601563 184.527344 L 78.160156 185.6875 L 82.714844 190.011719 L 89.257813 198.121094 L 96.613281 210.296875 L 103.585938 226.4375 L 109.054688 246.066406 L 112.101563 268.382813 L 112.089844 292.335938 L 108.734375 316.726563 L 102.128906 340.328125 L 92.734375 361.988281 L 81.34375 380.765625 L 68.984375 396.003906 L 56.84375 407.394531 L 46.125 415.011719 L 37.953125 419.300781 L 33.238281 421.027344 L 32.613281 421.207031 L 36.351563 421.003906 L 44.347656 421.597656 L 56.121094 424.089844 L 70.875 429.371094 L 87.554688 438.050781 L 104.976563 450.382813 L 121.921875 466.230469 L 137.265625 485.101563 L 150.085938 506.179688 L 159.746094 528.402344 L 165.976563 550.5625 L 168.871094 571.441406 L 168.90625 589.910156 L 166.863281 605.039063 L 163.785156 616.199219 L 160.828125 623.121094 L 159.191406 625.90625 L 159.96875 625.035156 L 164.039063 621.296875 L 172 615.734375 L 184.078125 609.523438 L 200.136719 603.855469 L 219.652344 599.832031 L 241.796875 598.335938 L 265.496094 599.972656 L 289.542969 604.972656 L 312.707031 613.203125 L 333.867188 624.152344 L 352.105469 636.996094 L 366.796875 650.683594 L 377.691406 664.011719 L 384.894531 675.78125 L 388.902344 684.886719 L 390.507813 690.4375 L 390.75 691.84375 L 390.800781 688.871094 L 391.839844 681.664063 L 394.945313 670.75 L 400.980469 656.949219 L 410.515625 641.339844 L 423.753906 625.109375 L 440.519531 609.472656 L 460.28125 595.539063 L 482.179688 584.191406 L 505.136719 576.023438 L 527.933594 571.269531 L 549.355469 569.78125 L 568.285156 571.042969 L 583.828125 574.234375 L 595.398438 578.296875 L 602.753906 582.058594 L 606.050781 584.324219 L 605.800781 584.023438 L 602.832031 580.292969 L 598.199219 572.589844 L 593.089844 560.714844 L 588.683594 544.855469 L 586.066406 525.574219 L 586.089844 503.730469 L 589.308594 480.417969 L 595.917969 456.851563 L 605.730469 434.253906 L 618.199219 413.730469 L 632.460938 396.164063 L 647.441406 382.136719 L 661.933594 371.863281 L 674.734375 365.1875 L 684.757813 361.578125 L 691.140625 360.199219 L 693.332031 360 "/>
  </g>
  <g xmlns="http://www.w3.org/2000/svg" id="spiro_17_3_3_83452">
    <path style="fill:none;stroke-width:0.75;stroke-linecap:round;stroke-linejoin:round;stroke:rgb(80%,59.607843%,41.568627%);stroke-opacity:0.901961;stroke-miterlimit:10;" d="M 693.332031 360 L 690.261719 359.761719 L 681.261719 358.128906 L 666.976563 353.828125 L 648.410156 345.824219 L 626.847656 333.429688 L 603.742188 316.339844 L 580.601563 294.695313 L 558.847656 269.054688 L 539.703125 240.355469 L 524.089844 209.847656 L 512.546875 178.976563 L 505.199219 149.285156 L 501.738281 122.253906 L 501.449219 99.214844 L 503.300781 81.203125 L 506 68.90625 L 508.148438 62.589844 L 508.332031 62.074219 L 505.269531 66.765625 L 497.925781 75.703125 L 485.59375 87.648438 L 467.964844 101.175781 L 445.175781 114.828125 L 417.777344 127.214844 L 386.710938 137.140625 L 353.234375 143.722656 L 318.804688 146.445313 L 284.964844 145.210938 L 253.230469 140.359375 L 224.941406 132.625 L 201.171875 123.078125 L 182.632813 113.027344 L 169.617188 103.902344 L 161.984375 97.148438 L 159.179688 94.070313 L 160.273438 95.742188 L 164.058594 102.890625 L 169.152344 115.855469 L 174.121094 134.53125 L 177.613281 158.382813 L 178.464844 186.488281 L 175.816406 217.613281 L 169.1875 250.308594 L 158.507813 283.035156 L 144.152344 314.285156 L 126.882813 342.714844 L 107.800781 367.25 L 88.25 387.160156 L 69.703125 402.144531 L 53.632813 412.324219 L 41.390625 418.246094 L 34.09375 420.8125 L 32.511719 421.222656 L 37.019531 420.828125 L 47.554688 421.050781 L 63.621094 423.226563 L 84.339844 428.496094 L 108.503906 437.703125 L 134.695313 451.3125 L 161.40625 469.359375 L 187.144531 491.464844 L 210.589844 516.835938 L 230.675781 544.34375 L 246.691406 572.613281 L 258.335938 600.136719 L 265.746094 625.40625 L 269.460938 647.03125 L 270.398438 663.859375 L 269.746094 675.066406 L 268.875 680.234375 L 269.195313 679.382813 L 272.046875 672.960938 L 278.578125 661.804688 L 289.628906 647.078125 L 305.660156 630.152344 L 326.71875 612.511719 L 352.40625 595.597656 L 381.929688 580.710938 L 414.140625 568.886719 L 447.660156 560.808594 L 480.957031 556.75 L 512.496094 556.5625 L 540.859375 559.667969 L 564.863281 565.144531 L 583.648438 571.769531 L 596.765625 578.160156 L 604.191406 582.875 L 606.328125 584.558594 L 603.980469 582.039063 L 598.269531 574.453125 L 590.53125 561.316406 L 582.207031 542.570313 L 574.707031 518.59375 L 569.300781 490.167969 L 566.984375 458.421875 L 568.414063 424.746094 L 573.835938 390.65625 L 583.058594 357.699219 L 595.492188 327.300781 L 610.167969 300.65625 L 625.835938 278.636719 L 641.082031 261.71875 L 654.429688 249.953125 L 664.480469 242.949219 L 670.03125 239.929688 L 670.175781 239.808594 L 664.398438 241.269531 L 652.601563 242.898438 L 635.125 243.308594 L 612.71875 241.253906 L 586.488281 235.765625 L 557.792969 226.210938 L 528.136719 212.371094 L 499.035156 194.453125 L 471.910156 173.089844 L 447.949219 149.269531 L 428.015625 124.277344 L 412.589844 99.5625 L 401.71875 76.640625 L 395.019531 56.945313 L 391.71875 41.730469 L 390.730469 31.933594 L 390.753906 28.132813 L 390.371094 30.457031 L 388.210938 38.621094 L 383.03125 51.910156 L 373.871094 69.261719 L 360.101563 89.363281 L 341.515625 110.738281 L 318.332031 131.902344 L 291.195313 151.46875 L 261.121094 168.273438 L 229.398438 181.46875 L 197.515625 190.597656 L 167.007813 195.636719 L 139.351563 196.984375 L 115.824219 195.417969 L 97.414063 192.042969 L 84.722656 188.183594 L 77.945313 185.261719 L 76.816406 184.667969 L 80.683594 187.65625 L 88.519531 195.207031 L 99.046875 207.957031 L 110.839844 226.125 L 122.445313 249.5 L 132.511719 277.445313 L 139.90625 308.957031 L 143.816406 342.726563 L 143.816406 377.273438 L 139.90625 411.042969 L 132.511719 442.554688 L 122.445313 470.5 L 110.839844 493.875 L 99.046875 512.042969 L 88.519531 524.792969 L 80.683594 532.34375 L 76.816406 535.332031 L 77.945313 534.738281 L 84.722656 531.816406 L 97.414063 527.957031 L 115.824219 524.582031 L 139.351563 523.015625 L 167.007813 524.363281 L 197.515625 529.402344 L 229.398438 538.53125 L 261.121094 551.726563 L 291.195313 568.53125 L 318.332031 588.097656 L 341.515625 609.261719 L 360.101563 630.636719 L 373.871094 650.738281 L 383.03125 668.089844 L 388.210938 681.378906 L 390.371094 689.542969 L 390.753906 691.867188 L 390.730469 688.066406 L 391.71875 678.269531 L 395.019531 663.054688 L 401.71875 643.359375 L 412.589844 620.4375 L 428.015625 595.722656 L 447.949219 570.730469 L 471.910156 546.910156 L 499.035156 525.546875 L 528.136719 507.628906 L 557.792969 493.789063 L 586.488281 484.234375 L 612.71875 478.746094 L 635.125 476.691406 L 652.601563 477.101563 L 664.398438 478.730469 L 670.175781 480.191406 L 670.03125 480.070313 L 664.480469 477.050781 L 654.429688 470.046875 L 641.082031 458.28125 L 625.835938 441.363281 L 610.167969 419.34375 L 595.492188 392.699219 L 583.058594 362.300781 L 573.835938 329.34375 L 568.414063 295.253906 L 566.984375 261.578125 L 569.300781 229.832031 L 574.707031 201.40625 L 582.207031 177.429688 L 590.53125 158.683594 L 598.269531 145.546875 L 603.980469 137.960938 L 606.328125 135.441406 L 604.191406 137.125 L 596.765625 141.839844 L 583.648438 148.230469 L 564.863281 154.855469 L 540.859375 160.332031 L 512.496094 163.4375 L 480.957031 163.25 L 447.660156 159.191406 L 414.140625 151.113281 L 381.929688 139.289063 L 352.40625 124.402344 L 326.71875 107.488281 L 305.660156 89.847656 L 289.628906 72.921875 L 278.578125 58.195313 L 272.046875 47.039063 L 269.195313 40.617188 L 268.875 39.765625 L 269.746094 44.933594 L 270.398438 56.140625 L 269.460938 72.96875 L 265.746094 94.59375 L 258.335938 119.863281 L 246.691406 147.386719 L 230.675781 175.65625 L 210.589844 203.164063 L 187.144531 228.535156 L 161.40625 250.640625 L 134.695313 268.6875 L 108.503906 282.296875 L 84.339844 291.503906 L 63.621094 296.773438 L 47.554688 298.949219 L 37.019531 299.171875 L 32.511719 298.777344 L 34.09375 299.1875 L 41.390625 301.753906 L 53.632813 307.675781 L 69.703125 317.855469 L 88.25 332.839844 L 107.800781 352.75 L 126.882813 377.285156 L 144.152344 405.714844 L 158.507813 436.964844 L 169.1875 469.691406 L 175.816406 502.386719 L 178.464844 533.511719 L 177.613281 561.617188 L 174.121094 585.46875 L 169.152344 604.144531 L 164.058594 617.109375 L 160.273438 624.257813 L 159.179688 625.929688 L 161.984375 622.851563 L 169.617188 616.097656 L 182.632813 606.972656 L 201.171875 596.921875 L 224.941406 587.375 L 253.230469 579.640625 L 284.964844 574.789063 L 318.804688 573.554688 L 353.234375 576.277344 L 386.710938 582.859375 L 417.777344 592.785156 L 445.175781 605.171875 L 467.964844 618.824219 L 485.59375 632.351563 L 497.925781 644.296875 L 505.269531 653.234375 L 508.332031 657.925781 L 508.148438 657.410156 L 506 651.09375 L 503.300781 638.796875 L 501.449219 620.785156 L 501.738281 597.746094 L 505.199219 570.714844 L 512.546875 541.023438 L 524.089844 510.152344 L 539.703125 479.644531 L 558.847656 450.945313 L 580.601563 425.304688 L 603.742188 403.660156 L 626.847656 386.570313 L 648.410156 374.175781 L 666.976563 366.171875 L 681.261719 361.871094 L 690.261719 360.238281 L 693.332031 360 "/>
  </g>
  <g xmlns="http://www.w3.org/2000/svg" id="spiro_17_4_4_80332">
    <path style="fill:none;stroke-width:0.75;stroke-linecap:round;stroke-linejoin:round;stroke:rgb(83.529412%,86.27451%,76.470588%);stroke-opacity:0.901961;stroke-miterlimit:10;" d="M 693.332031 360 L 689.523438 359.757813 L 678.320313 358.101563 L 660.375 353.722656 L 636.710938 345.539063 L 608.675781 332.785156 L 577.8125 315.074219 L 545.769531 292.425781 L 514.179688 265.296875 L 484.535156 234.535156 L 458.09375 201.339844 L 435.785156 167.167969 L 418.15625 133.640625 L 405.332031 102.429688 L 397.015625 75.132813 L 392.519531 53.167969 L 390.828125 37.671875 L 390.683594 29.410156 L 390.679688 28.734375 L 389.386719 35.546875 L 385.46875 49.328125 L 377.777344 69.148438 L 365.460938 93.753906 L 348.042969 121.664063 L 325.441406 151.253906 L 298.019531 180.898438 L 266.535156 209.074219 L 232.121094 234.46875 L 196.1875 256.074219 L 160.339844 273.265625 L 126.261719 285.8125 L 95.597656 293.929688 L 69.835938 298.210938 L 50.203125 299.605469 L 37.585938 299.332031 L 32.460938 298.769531 L 34.859375 299.359375 L 44.382813 302.46875 L 60.21875 309.308594 L 81.207031 320.804688 L 105.925781 337.539063 L 132.796875 359.683594 L 160.203125 386.980469 L 186.597656 418.761719 L 210.625 453.972656 L 231.207031 491.253906 L 247.632813 529.03125 L 259.589844 565.613281 L 267.1875 599.324219 L 270.945313 628.609375 L 271.738281 652.152344 L 270.730469 668.960938 L 269.285156 678.433594 L 268.839844 680.40625 L 270.800781 675.15625 L 276.425781 663.382813 L 286.722656 646.144531 L 302.367188 624.789063 L 323.628906 600.847656 L 350.363281 575.925781 L 381.992188 551.570313 L 417.550781 529.1875 L 455.734375 509.90625 L 495.007813 494.527344 L 533.6875 483.449219 L 570.066406 476.652344 L 602.542969 473.707031 L 629.714844 473.800781 L 650.484375 475.828125 L 664.136719 478.457031 L 670.375 480.25 L 669.355469 479.777344 L 661.65625 475.71875 L 648.234375 467 L 630.351563 452.851563 L 609.492188 432.890625 L 587.230469 407.167969 L 565.128906 376.15625 L 544.609375 340.726563 L 526.871094 302.109375 L 512.78125 261.808594 L 502.828125 221.484375 L 497.078125 182.851563 L 495.1875 147.570313 L 496.429688 117.105469 L 499.738281 92.660156 L 503.824219 75.058594 L 507.253906 64.722656 L 508.574219 61.625 L 506.421875 65.304688 L 499.644531 74.914063 L 487.382813 89.269531 L 469.15625 106.957031 L 444.894531 126.429688 L 414.964844 146.132813 L 380.152344 164.613281 L 341.601563 180.625 L 300.761719 193.230469 L 259.269531 201.863281 L 218.847656 206.359375 L 181.183594 206.980469 L 147.820313 204.382813 L 120.035156 199.566406 L 98.773438 193.78125 L 84.570313 188.453125 L 77.523438 185.054688 L 77.300781 184.988281 L 83.15625 189.480469 L 94.003906 199.476563 L 108.488281 215.5625 L 125.109375 237.921875 L 142.320313 266.292969 L 158.644531 300 L 172.800781 337.980469 L 183.78125 378.847656 L 190.9375 421.003906 L 194.023438 462.726563 L 193.214844 502.304688 L 189.085938 538.144531 L 182.574219 568.878906 L 174.890625 593.464844 L 167.445313 611.25 L 161.71875 622.011719 L 159.152344 625.964844 L 161.042969 623.738281 L 168.417969 616.328125 L 181.976563 605.007813 L 202.003906 591.246094 L 228.359375 576.566406 L 260.476563 562.453125 L 297.375 550.230469 L 337.753906 540.96875 L 380.050781 535.382813 L 422.5625 533.8125 L 463.566406 536.167969 L 501.414063 541.953125 L 534.671875 550.300781 L 562.199219 560.035156 L 583.230469 569.78125 L 597.425781 578.042969 L 604.875 583.347656 L 606.097656 584.335938 L 601.988281 579.898438 L 593.75 569.234375 L 582.792969 551.9375 L 570.617188 528.039063 L 558.71875 497.988281 L 548.453125 462.667969 L 540.941406 423.300781 L 536.976563 381.390625 L 536.976563 338.609375 L 540.941406 296.699219 L 548.453125 257.332031 L 558.71875 222.011719 L 570.617188 191.960938 L 582.792969 168.0625 L 593.75 150.765625 L 601.988281 140.101563 L 606.097656 135.664063 L 604.875 136.652344 L 597.425781 141.957031 L 583.230469 150.21875 L 562.199219 159.964844 L 534.671875 169.699219 L 501.414063 178.046875 L 463.566406 183.832031 L 422.5625 186.1875 L 380.050781 184.617188 L 337.753906 179.03125 L 297.375 169.769531 L 260.476563 157.546875 L 228.359375 143.433594 L 202.003906 128.753906 L 181.976563 114.992188 L 168.417969 103.671875 L 161.042969 96.261719 L 159.152344 94.035156 L 161.71875 97.988281 L 167.445313 108.75 L 174.890625 126.535156 L 182.574219 151.121094 L 189.085938 181.855469 L 193.214844 217.695313 L 194.023438 257.273438 L 190.9375 298.996094 L 183.78125 341.152344 L 172.800781 382.019531 L 158.644531 420 L 142.320313 453.707031 L 125.109375 482.078125 L 108.488281 504.4375 L 94.003906 520.523438 L 83.15625 530.519531 L 77.300781 535.011719 L 77.523438 534.945313 L 84.570313 531.546875 L 98.773438 526.21875 L 120.035156 520.433594 L 147.820313 515.617188 L 181.183594 513.019531 L 218.847656 513.640625 L 259.269531 518.136719 L 300.761719 526.769531 L 341.601563 539.375 L 380.152344 555.386719 L 414.964844 573.867188 L 444.894531 593.570313 L 469.15625 613.042969 L 487.382813 630.730469 L 499.644531 645.085938 L 506.421875 654.695313 L 508.574219 658.375 L 507.253906 655.277344 L 503.824219 644.941406 L 499.738281 627.339844 L 496.429688 602.894531 L 495.1875 572.429688 L 497.078125 537.148438 L 502.828125 498.515625 L 512.78125 458.191406 L 526.871094 417.890625 L 544.609375 379.273438 L 565.128906 343.84375 L 587.230469 312.832031 L 609.492188 287.109375 L 630.351563 267.148438 L 648.234375 253 L 661.65625 244.28125 L 669.355469 240.222656 L 670.375 239.75 L 664.136719 241.542969 L 650.484375 244.171875 L 629.714844 246.199219 L 602.542969 246.292969 L 570.066406 243.347656 L 533.6875 236.550781 L 495.007813 225.472656 L 455.734375 210.09375 L 417.550781 190.8125 L 381.992188 168.429688 L 350.363281 144.074219 L 323.628906 119.152344 L 302.367188 95.210938 L 286.722656 73.855469 L 276.425781 56.617188 L 270.800781 44.84375 L 268.839844 39.59375 L 269.285156 41.566406 L 270.730469 51.039063 L 271.738281 67.847656 L 270.945313 91.390625 L 267.1875 120.675781 L 259.589844 154.386719 L 247.632813 190.96875 L 231.207031 228.746094 L 210.625 266.027344 L 186.597656 301.238281 L 160.203125 333.019531 L 132.796875 360.316406 L 105.925781 382.460938 L 81.207031 399.195313 L 60.21875 410.691406 L 44.382813 417.53125 L 34.859375 420.640625 L 32.460938 421.230469 L 37.585938 420.667969 L 50.203125 420.394531 L 69.835938 421.789063 L 95.597656 426.070313 L 126.261719 434.1875 L 160.339844 446.734375 L 196.1875 463.925781 L 232.121094 485.53125 L 266.535156 510.925781 L 298.019531 539.101563 L 325.441406 568.746094 L 348.042969 598.335938 L 365.460938 626.246094 L 377.777344 650.851563 L 385.46875 670.671875 L 389.386719 684.453125 L 390.679688 691.265625 L 390.683594 690.589844 L 390.828125 682.328125 L 392.519531 666.832031 L 397.015625 644.867188 L 405.332031 617.570313 L 418.15625 586.359375 L 435.785156 552.832031 L 458.09375 518.660156 L 484.535156 485.464844 L 514.179688 454.703125 L 545.769531 427.574219 L 577.8125 404.925781 L 608.675781 387.214844 L 636.710938 374.460938 L 660.375 366.277344 L 678.320313 361.898438 L 689.523438 360.242188 L 693.332031 360 "/>
  </g>
  <g xmlns="http://www.w3.org/2000/svg" id="spiro_17_5_5_16128">
    <path style="fill:none;stroke-width:0.75;stroke-linecap:round;stroke-linejoin:round;stroke:rgb(22.745098%,73.72549%,69.803922%);stroke-opacity:0.901961;stroke-miterlimit:10;" d="M 693.332031 360 L 688.933594 359.785156 L 675.949219 358.292969 L 655 354.347656 L 627.070313 346.949219 L 593.46875 335.363281 L 555.726563 319.171875 L 515.535156 298.320313 L 474.613281 273.128906 L 434.640625 244.273438 L 397.136719 212.777344 L 363.390625 179.925781 L 334.382813 147.222656 L 310.746094 116.277344 L 292.722656 88.714844 L 280.179688 66.085938 L 272.625 49.761719 L 269.238281 40.847656 L 268.96875 40.113281 L 270.585938 47.953125 L 272.789063 64.339844 L 274.285156 88.828125 L 273.910156 120.582031 L 270.6875 158.410156 L 263.917969 200.839844 L 253.226563 246.203125 L 238.589844 292.710938 L 220.363281 338.578125 L 199.246094 382.113281 L 176.257813 421.816406 L 152.652344 456.445313 L 129.878906 485.105469 L 109.457031 507.269531 L 92.890625 522.808594 L 81.578125 531.980469 L 76.710938 535.402344 L 79.195313 534.007813 L 89.597656 528.953125 L 108.074219 521.550781 L 134.386719 513.167969 L 167.886719 505.140625 L 207.542969 498.65625 L 252.003906 494.695313 L 299.671875 493.960938 L 348.785156 496.804688 L 397.507813 503.238281 L 444.054688 512.894531 L 486.765625 525.078125 L 524.210938 538.796875 L 555.261719 552.828125 L 579.148438 565.796875 L 595.507813 576.285156 L 604.367188 582.902344 L 606.15625 584.398438 L 601.660156 579.753906 L 591.953125 568.242188 L 578.332031 549.496094 L 562.222656 523.539063 L 545.082031 490.804688 L 528.304688 452.105469 L 513.121094 408.609375 L 500.542969 361.78125 L 491.261719 313.296875 L 485.640625 264.953125 L 483.671875 218.5625 L 484.988281 175.875 L 488.902344 138.445313 L 494.429688 107.582031 L 500.394531 84.246094 L 505.480469 69.03125 L 508.34375 62.109375 L 507.703125 63.238281 L 502.441406 71.792969 L 491.667969 86.796875 L 474.8125 107.003906 L 451.664063 130.964844 L 422.394531 157.125 L 387.570313 183.9375 L 348.121094 209.941406 L 305.3125 233.859375 L 260.652344 254.671875 L 215.839844 271.679688 L 172.640625 284.542969 L 132.816406 293.289063 L 97.992188 298.300781 L 69.589844 300.289063 L 48.742188 300.226563 L 36.207031 299.289063 L 32.355469 298.753906 L 37.140625 299.90625 L 50.089844 303.960938 L 70.359375 311.945313 L 96.777344 324.640625 L 127.914063 342.515625 L 162.175781 365.671875 L 197.894531 393.832031 L 233.433594 426.351563 L 267.285156 462.222656 L 298.15625 500.15625 L 325.035156 538.632813 L 347.253906 575.996094 L 364.507813 610.546875 L 376.882813 640.644531 L 384.808594 664.808594 L 389.046875 681.792969 L 390.609375 690.683594 L 390.6875 690.9375 L 390.5625 682.421875 L 391.507813 665.425781 L 394.695313 640.648438 L 401.109375 609.144531 L 411.476563 572.277344 L 426.1875 531.636719 L 445.289063 488.945313 L 468.441406 445.949219 L 494.960938 404.335938 L 523.820313 365.628906 L 553.738281 331.101563 L 583.234375 301.722656 L 610.722656 278.082031 L 634.617188 260.398438 L 653.417969 248.496094 L 665.816406 241.847656 L 670.765625 239.609375 L 667.574219 240.6875 L 655.925781 243.828125 L 635.921875 247.71875 L 608.074219 251.054688 L 573.296875 252.660156 L 532.828125 251.566406 L 488.195313 247.074219 L 441.109375 238.816406 L 393.371094 226.777344 L 346.773438 211.316406 L 303.003906 193.136719 L 263.546875 173.242188 L 229.613281 152.886719 L 202.0625 133.488281 L 181.375 116.535156 L 167.625 103.488281 L 160.503906 95.699219 L 159.347656 94.300781 L 163.175781 100.136719 L 170.789063 113.699219 L 180.839844 135.082031 L 191.925781 163.984375 L 202.707031 199.683594 L 211.972656 241.109375 L 218.730469 286.863281 L 222.292969 335.316406 L 222.292969 384.683594 L 218.730469 433.136719 L 211.972656 478.890625 L 202.707031 520.316406 L 191.925781 556.015625 L 180.839844 584.917969 L 170.789063 606.300781 L 163.175781 619.863281 L 159.347656 625.699219 L 160.503906 624.300781 L 167.625 616.511719 L 181.375 603.464844 L 202.0625 586.511719 L 229.613281 567.113281 L 263.546875 546.757813 L 303.003906 526.863281 L 346.773438 508.683594 L 393.371094 493.222656 L 441.109375 481.183594 L 488.195313 472.925781 L 532.828125 468.433594 L 573.296875 467.339844 L 608.074219 468.945313 L 635.921875 472.28125 L 655.925781 476.171875 L 667.574219 479.3125 L 670.765625 480.390625 L 665.816406 478.152344 L 653.417969 471.503906 L 634.617188 459.601563 L 610.722656 441.917969 L 583.234375 418.277344 L 553.738281 388.898438 L 523.820313 354.371094 L 494.960938 315.664063 L 468.441406 274.050781 L 445.289063 231.054688 L 426.1875 188.363281 L 411.476563 147.722656 L 401.109375 110.855469 L 394.695313 79.351563 L 391.507813 54.574219 L 390.5625 37.578125 L 390.6875 29.0625 L 390.609375 29.316406 L 389.046875 38.207031 L 384.808594 55.191406 L 376.882813 79.355469 L 364.507813 109.453125 L 347.253906 144.003906 L 325.035156 181.367188 L 298.15625 219.84375 L 267.285156 257.777344 L 233.433594 293.648438 L 197.894531 326.167969 L 162.175781 354.328125 L 127.914063 377.484375 L 96.777344 395.359375 L 70.359375 408.054688 L 50.089844 416.039063 L 37.140625 420.09375 L 32.355469 421.246094 L 36.207031 420.710938 L 48.742188 419.773438 L 69.589844 419.710938 L 97.992188 421.699219 L 132.816406 426.710938 L 172.640625 435.457031 L 215.839844 448.320313 L 260.652344 465.328125 L 305.3125 486.140625 L 348.121094 510.058594 L 387.570313 536.0625 L 422.394531 562.875 L 451.664063 589.035156 L 474.8125 612.996094 L 491.667969 633.203125 L 502.441406 648.207031 L 507.703125 656.761719 L 508.34375 657.890625 L 505.480469 650.96875 L 500.394531 635.753906 L 494.429688 612.417969 L 488.902344 581.554688 L 484.988281 544.125 L 483.671875 501.4375 L 485.640625 455.046875 L 491.261719 406.703125 L 500.542969 358.21875 L 513.121094 311.390625 L 528.304688 267.894531 L 545.082031 229.195313 L 562.222656 196.460938 L 578.332031 170.503906 L 591.953125 151.757813 L 601.660156 140.246094 L 606.15625 135.601563 L 604.367188 137.097656 L 595.507813 143.714844 L 579.148438 154.203125 L 555.261719 167.171875 L 524.210938 181.203125 L 486.765625 194.921875 L 444.054688 207.105469 L 397.507813 216.761719 L 348.785156 223.195313 L 299.671875 226.039063 L 252.003906 225.304688 L 207.542969 221.34375 L 167.886719 214.859375 L 134.386719 206.832031 L 108.074219 198.449219 L 89.597656 191.046875 L 79.195313 185.992188 L 76.710938 184.597656 L 81.578125 188.019531 L 92.890625 197.191406 L 109.457031 212.730469 L 129.878906 234.894531 L 152.652344 263.554688 L 176.257813 298.183594 L 199.246094 337.886719 L 220.363281 381.421875 L 238.589844 427.289063 L 253.226563 473.796875 L 263.917969 519.160156 L 270.6875 561.589844 L 273.910156 599.417969 L 274.285156 631.171875 L 272.789063 655.660156 L 270.585938 672.046875 L 268.96875 679.886719 L 269.238281 679.152344 L 272.625 670.238281 L 280.179688 653.914063 L 292.722656 631.285156 L 310.746094 603.722656 L 334.382813 572.777344 L 363.390625 540.074219 L 397.136719 507.222656 L 434.640625 475.726563 L 474.613281 446.871094 L 515.535156 421.679688 L 555.726563 400.828125 L 593.46875 384.636719 L 627.070313 373.050781 L 655 365.652344 L 675.949219 361.707031 L 688.933594 360.214844 L 693.332031 360 "/>
  </g>
  <g xmlns="http://www.w3.org/2000/svg" id="spiro_17_6_6_78751">
    <path style="fill:none;stroke-width:0.75;stroke-linecap:round;stroke-linejoin:round;stroke:rgb(4.313725%,56.862745%,70.980392%);stroke-opacity:0.901961;stroke-miterlimit:10;" d="M 693.332031 360 L 688.492188 359.832031 L 674.160156 358.65625 L 650.914063 355.546875 L 619.671875 349.703125 L 581.664063 340.515625 L 538.367188 327.621094 L 491.433594 310.921875 L 442.621094 290.617188 L 393.707031 267.195313 L 346.394531 241.410156 L 302.265625 214.269531 L 262.675781 186.96875 L 228.730469 160.835938 L 201.21875 137.265625 L 180.597656 117.648438 L 166.984375 103.28125 L 160.160156 95.3125 L 159.609375 94.660156 L 164.539063 101.957031 L 173.953125 117.515625 L 186.714844 141.300781 L 201.605469 172.902344 L 217.414063 211.5625 L 232.988281 256.191406 L 247.324219 305.417969 L 259.605469 357.628906 L 269.253906 411.0625 L 275.957031 463.871094 L 279.683594 514.207031 L 280.671875 560.300781 L 279.433594 600.550781 L 276.683594 633.59375 L 273.316406 658.351563 L 270.34375 674.097656 L 268.820313 680.460938 L 269.769531 677.472656 L 274.132813 665.523438 L 282.679688 645.363281 L 295.976563 618.046875 L 314.3125 584.882813 L 337.699219 547.371094 L 365.820313 507.113281 L 398.066406 465.75 L 433.53125 424.867188 L 471.050781 385.9375 L 509.261719 350.234375 L 546.660156 318.789063 L 581.671875 292.351563 L 612.726563 271.359375 L 638.34375 255.921875 L 657.199219 245.855469 L 668.207031 240.679688 L 670.574219 239.679688 L 663.832031 241.953125 L 647.894531 246.46875 L 623.042969 252.140625 L 589.933594 257.902344 L 549.574219 262.777344 L 503.277344 265.921875 L 452.601563 266.703125 L 399.296875 264.734375 L 345.207031 259.890625 L 292.199219 252.328125 L 242.078125 242.476563 L 196.511719 231.011719 L 156.945313 218.828125 L 124.554688 206.964844 L 100.183594 196.570313 L 84.328125 188.820313 L 77.113281 184.835938 L 78.296875 185.632813 L 87.300781 192.035156 L 103.238281 204.644531 L 124.984375 223.75 L 151.214844 249.347656 L 180.507813 281.082031 L 211.402344 318.28125 L 242.46875 359.949219 L 272.410156 404.828125 L 300.085938 451.429688 L 324.601563 498.121094 L 345.324219 543.167969 L 361.910156 584.84375 L 374.324219 621.503906 L 382.808594 651.652344 L 387.867188 674.027344 L 390.21875 687.652344 L 390.753906 691.894531 L 390.457031 686.492188 L 390.339844 671.5625 L 391.386719 647.617188 L 394.464844 615.519531 L 400.28125 576.453125 L 409.324219 531.871094 L 421.828125 483.417969 L 437.734375 432.867188 L 456.710938 382.03125 L 478.140625 332.679688 L 501.160156 286.460938 L 524.6875 244.828125 L 547.5 208.984375 L 568.273438 179.824219 L 585.671875 157.917969 L 598.410156 143.476563 L 605.347656 136.371094 L 605.53125 136.144531 L 598.265625 142.0625 L 583.175781 153.148438 L 560.214844 168.253906 L 529.691406 186.125 L 492.273438 205.480469 L 448.957031 225.089844 L 401.035156 243.828125 L 350.042969 260.746094 L 297.699219 275.117188 L 245.8125 286.480469 L 196.21875 294.644531 L 150.699219 299.710938 L 110.882813 302.042969 L 78.179688 302.25 L 53.726563 301.128906 L 38.324219 299.628906 L 32.410156 298.761719 L 36.027344 299.558594 L 48.855469 302.976563 L 70.195313 309.851563 L 99.027344 320.824219 L 134.066406 336.296875 L 173.8125 356.390625 L 216.625 380.929688 L 260.824219 409.4375 L 304.742188 441.136719 L 346.820313 475 L 385.671875 509.769531 L 420.148438 544.039063 L 449.375 576.300781 L 472.792969 605.035156 L 490.167969 628.785156 L 501.589844 646.230469 L 507.449219 656.25 L 508.394531 658.011719 L 505.300781 650.984375 L 499.1875 635.003906 L 491.164063 610.277344 L 482.355469 577.386719 L 473.824219 537.253906 L 466.515625 491.132813 L 461.195313 440.527344 L 458.394531 387.15625 L 458.394531 332.84375 L 461.195313 279.472656 L 466.515625 228.867188 L 473.824219 182.746094 L 482.355469 142.613281 L 491.164063 109.722656 L 499.1875 84.996094 L 505.300781 69.015625 L 508.394531 61.988281 L 507.449219 63.75 L 501.589844 73.769531 L 490.167969 91.214844 L 472.792969 114.964844 L 449.375 143.699219 L 420.148438 175.960938 L 385.671875 210.230469 L 346.820313 245 L 304.742188 278.863281 L 260.824219 310.5625 L 216.625 339.070313 L 173.8125 363.609375 L 134.066406 383.703125 L 99.027344 399.175781 L 70.195313 410.148438 L 48.855469 417.023438 L 36.027344 420.441406 L 32.410156 421.238281 L 38.324219 420.371094 L 53.726563 418.871094 L 78.179688 417.75 L 110.882813 417.957031 L 150.699219 420.289063 L 196.21875 425.355469 L 245.8125 433.519531 L 297.699219 444.882813 L 350.042969 459.253906 L 401.035156 476.171875 L 448.957031 494.910156 L 492.273438 514.519531 L 529.691406 533.875 L 560.214844 551.746094 L 583.175781 566.851563 L 598.265625 577.9375 L 605.53125 583.855469 L 605.347656 583.628906 L 598.410156 576.523438 L 585.671875 562.082031 L 568.273438 540.175781 L 547.5 511.015625 L 524.6875 475.171875 L 501.160156 433.539063 L 478.140625 387.320313 L 456.710938 337.96875 L 437.734375 287.132813 L 421.828125 236.582031 L 409.324219 188.128906 L 400.28125 143.546875 L 394.464844 104.480469 L 391.386719 72.382813 L 390.339844 48.4375 L 390.457031 33.507813 L 390.753906 28.105469 L 390.21875 32.347656 L 387.867188 45.972656 L 382.808594 68.347656 L 374.324219 98.496094 L 361.910156 135.15625 L 345.324219 176.832031 L 324.601563 221.878906 L 300.085938 268.570313 L 272.410156 315.171875 L 242.46875 360.050781 L 211.402344 401.71875 L 180.507813 438.917969 L 151.214844 470.652344 L 124.984375 496.25 L 103.238281 515.355469 L 87.300781 527.964844 L 78.296875 534.367188 L 77.113281 535.164063 L 84.328125 531.179688 L 100.183594 523.429688 L 124.554688 513.035156 L 156.945313 501.171875 L 196.511719 488.988281 L 242.078125 477.523438 L 292.199219 467.671875 L 345.207031 460.109375 L 399.296875 455.265625 L 452.601563 453.296875 L 503.277344 454.078125 L 549.574219 457.222656 L 589.933594 462.097656 L 623.042969 467.859375 L 647.894531 473.53125 L 663.832031 478.046875 L 670.574219 480.320313 L 668.207031 479.320313 L 657.199219 474.144531 L 638.34375 464.078125 L 612.726563 448.640625 L 581.671875 427.648438 L 546.660156 401.210938 L 509.261719 369.765625 L 471.050781 334.0625 L 433.53125 295.132813 L 398.066406 254.25 L 365.820313 212.886719 L 337.699219 172.628906 L 314.3125 135.117188 L 295.976563 101.953125 L 282.679688 74.636719 L 274.132813 54.476563 L 269.769531 42.527344 L 268.820313 39.539063 L 270.34375 45.902344 L 273.316406 61.648438 L 276.683594 86.40625 L 279.433594 119.449219 L 280.671875 159.699219 L 279.683594 205.792969 L 275.957031 256.128906 L 269.253906 308.9375 L 259.605469 362.371094 L 247.324219 414.582031 L 232.988281 463.808594 L 217.414063 508.4375 L 201.605469 547.097656 L 186.714844 578.699219 L 173.953125 602.484375 L 164.539063 618.042969 L 159.609375 625.339844 L 160.160156 624.6875 L 166.984375 616.71875 L 180.597656 602.351563 L 201.21875 582.734375 L 228.730469 559.164063 L 262.675781 533.03125 L 302.265625 505.730469 L 346.394531 478.589844 L 393.707031 452.804688 L 442.621094 429.382813 L 491.433594 409.078125 L 538.367188 392.378906 L 581.664063 379.484375 L 619.671875 370.296875 L 650.914063 364.453125 L 674.160156 361.34375 L 688.492188 360.167969 L 693.332031 360 "/>
  </g>
  <g xmlns="http://www.w3.org/2000/svg" id="spiro_17_7_7_35766">
    <path style="fill:none;stroke-width:0.75;stroke-linecap:round;stroke-linejoin:round;stroke:rgb(2.352941%,37.254902%,63.921569%);stroke-opacity:0.901961;stroke-miterlimit:10;" d="M 693.332031 360 L 688.195313 359.890625 L 672.964844 359.144531 L 648.164063 357.164063 L 614.660156 353.429688 L 573.601563 347.546875 L 526.40625 339.265625 L 474.675781 328.503906 L 420.160156 315.367188 L 364.6875 300.136719 L 310.082031 283.28125 L 258.109375 265.429688 L 210.410156 247.355469 L 168.445313 229.925781 L 133.4375 214.082031 L 106.335938 200.777344 L 87.789063 190.949219 L 78.121094 185.441406 L 77.332031 184.988281 L 85.113281 190.152344 L 100.859375 201.300781 L 123.703125 218.558594 L 152.554688 241.804688 L 186.164063 270.671875 L 223.15625 304.515625 L 262.105469 342.46875 L 301.582031 383.433594 L 340.226563 426.136719 L 376.777344 469.175781 L 410.128906 511.046875 L 439.382813 550.238281 L 463.847656 585.253906 L 483.074219 614.699219 L 496.867188 637.332031 L 505.257813 652.109375 L 508.507813 658.246094 L 507.078125 655.238281 L 501.597656 642.910156 L 492.816406 621.40625 L 481.570313 591.210938 L 468.726563 553.121094 L 455.144531 508.242188 L 441.628906 457.9375 L 428.890625 403.785156 L 417.511719 347.523438 L 407.914063 290.984375 L 400.351563 236.03125 L 394.90625 184.492188 L 391.46875 138.085938 L 389.78125 98.359375 L 389.425781 66.640625 L 389.875 43.972656 L 390.527344 31.085938 L 390.726563 28.371094 L 389.832031 35.863281 L 387.230469 53.242188 L 382.402344 79.84375 L 374.945313 114.703125 L 364.609375 156.5625 L 351.316406 203.953125 L 335.179688 255.230469 L 316.507813 308.640625 L 295.800781 362.390625 L 273.726563 414.722656 L 251.109375 463.953125 L 228.894531 508.566406 L 208.09375 547.238281 L 189.761719 578.90625 L 174.929688 602.773438 L 164.5625 618.359375 L 159.503906 625.492188 L 160.445313 624.304688 L 167.859375 615.230469 L 182.003906 598.960938 L 202.859375 576.429688 L 230.144531 548.738281 L 263.304688 517.132813 L 301.519531 482.933594 L 343.738281 447.476563 L 388.691406 412.070313 L 434.953125 377.933594 L 480.980469 346.15625 L 525.179688 317.648438 L 565.953125 293.128906 L 601.78125 273.085938 L 631.269531 257.78125 L 653.203125 247.25 L 666.613281 241.3125 L 670.808594 239.59375 L 665.410156 241.546875 L 650.375 246.507813 L 626 253.730469 L 592.917969 262.417969 L 552.085938 271.78125 L 504.738281 281.085938 L 452.363281 289.683594 L 396.636719 297.039063 L 339.367188 302.773438 L 282.429688 306.671875 L 227.699219 308.691406 L 176.976563 308.972656 L 131.925781 307.804688 L 94.015625 305.632813 L 64.460938 303.007813 L 44.179688 300.570313 L 33.761719 299 L 33.460938 298.972656 L 43.164063 301.121094 L 62.414063 306 L 90.4375 314.035156 L 126.160156 325.496094 L 168.257813 340.476563 L 215.222656 358.867188 L 265.390625 380.355469 L 317.039063 404.429688 L 368.4375 430.378906 L 417.910156 457.339844 L 463.890625 484.304688 L 505.003906 510.1875 L 540.082031 533.835938 L 568.222656 554.121094 L 588.800781 569.949219 L 601.496094 580.355469 L 606.285156 584.515625 L 603.429688 581.8125 L 593.464844 571.867188 L 577.160156 554.554688 L 555.476563 530.046875 L 529.523438 498.789063 L 500.5 461.519531 L 469.65625 419.230469 L 438.214844 373.152344 L 407.339844 324.703125 L 378.085938 275.445313 L 351.355469 227.03125 L 327.863281 181.132813 L 308.128906 139.390625 L 292.445313 103.332031 L 280.898438 74.335938 L 273.359375 53.542969 L 269.515625 41.847656 L 268.898438 39.820313 L 270.902344 47.714844 L 274.851563 65.425781 L 280.011719 92.511719 L 285.660156 128.183594 L 291.113281 171.359375 L 295.777344 220.671875 L 299.167969 274.535156 L 300.949219 331.195313 L 300.949219 388.804688 L 299.167969 445.464844 L 295.777344 499.328125 L 291.113281 548.640625 L 285.660156 591.816406 L 280.011719 627.488281 L 274.851563 654.574219 L 270.902344 672.285156 L 268.898438 680.179688 L 269.515625 678.152344 L 273.359375 666.457031 L 280.898438 645.664063 L 292.445313 616.667969 L 308.128906 580.609375 L 327.863281 538.867188 L 351.355469 492.96875 L 378.085938 444.554688 L 407.339844 395.296875 L 438.214844 346.847656 L 469.65625 300.769531 L 500.5 258.480469 L 529.523438 221.210938 L 555.476563 189.953125 L 577.160156 165.445313 L 593.464844 148.132813 L 603.429688 138.1875 L 606.285156 135.484375 L 601.496094 139.644531 L 588.800781 150.050781 L 568.222656 165.878906 L 540.082031 186.164063 L 505.003906 209.8125 L 463.890625 235.695313 L 417.910156 262.660156 L 368.4375 289.621094 L 317.039063 315.570313 L 265.390625 339.644531 L 215.222656 361.132813 L 168.257813 379.523438 L 126.160156 394.503906 L 90.4375 405.964844 L 62.414063 414 L 43.164063 418.878906 L 33.460938 421.027344 L 33.761719 421 L 44.179688 419.429688 L 64.460938 416.992188 L 94.015625 414.367188 L 131.925781 412.195313 L 176.976563 411.027344 L 227.699219 411.308594 L 282.429688 413.328125 L 339.367188 417.226563 L 396.636719 422.960938 L 452.363281 430.316406 L 504.738281 438.914063 L 552.085938 448.21875 L 592.917969 457.582031 L 626 466.269531 L 650.375 473.492188 L 665.410156 478.453125 L 670.808594 480.40625 L 666.613281 478.6875 L 653.203125 472.75 L 631.269531 462.21875 L 601.78125 446.914063 L 565.953125 426.871094 L 525.179688 402.351563 L 480.980469 373.84375 L 434.953125 342.066406 L 388.691406 307.929688 L 343.738281 272.523438 L 301.519531 237.066406 L 263.304688 202.867188 L 230.144531 171.261719 L 202.859375 143.570313 L 182.003906 121.039063 L 167.859375 104.769531 L 160.445313 95.695313 L 159.503906 94.507813 L 164.5625 101.640625 L 174.929688 117.226563 L 189.761719 141.09375 L 208.09375 172.761719 L 228.894531 211.433594 L 251.109375 256.046875 L 273.726563 305.277344 L 295.800781 357.609375 L 316.507813 411.359375 L 335.179688 464.769531 L 351.316406 516.046875 L 364.609375 563.4375 L 374.945313 605.296875 L 382.402344 640.15625 L 387.230469 666.757813 L 389.832031 684.136719 L 390.726563 691.628906 L 390.527344 688.914063 L 389.875 676.027344 L 389.425781 653.359375 L 389.78125 621.640625 L 391.46875 581.914063 L 394.90625 535.507813 L 400.351563 483.96875 L 407.914063 429.015625 L 417.511719 372.476563 L 428.890625 316.214844 L 441.628906 262.0625 L 455.144531 211.757813 L 468.726563 166.878906 L 481.570313 128.789063 L 492.816406 98.59375 L 501.597656 77.089844 L 507.078125 64.761719 L 508.507813 61.753906 L 505.257813 67.890625 L 496.867188 82.667969 L 483.074219 105.300781 L 463.847656 134.746094 L 439.382813 169.761719 L 410.128906 208.953125 L 376.777344 250.824219 L 340.226563 293.863281 L 301.582031 336.566406 L 262.105469 377.53125 L 223.15625 415.484375 L 186.164063 449.328125 L 152.554688 478.195313 L 123.703125 501.441406 L 100.859375 518.699219 L 85.113281 529.847656 L 77.332031 535.011719 L 78.121094 534.558594 L 87.789063 529.050781 L 106.335938 519.222656 L 133.4375 505.917969 L 168.445313 490.074219 L 210.410156 472.644531 L 258.109375 454.570313 L 310.082031 436.71875 L 364.6875 419.863281 L 420.160156 404.632813 L 474.675781 391.496094 L 526.40625 380.734375 L 573.601563 372.453125 L 614.660156 366.570313 L 648.164063 362.835938 L 672.964844 360.855469 L 688.195313 360.109375 L 693.332031 360 "/>
  </g>
  <g xmlns="http://www.w3.org/2000/svg" id="spiro_17_8_8_97349">
    <path style="fill:none;stroke-width:0.75;stroke-linecap:round;stroke-linejoin:round;stroke:rgb(9.019608%,15.686275%,41.176471%);stroke-opacity:0.901961;stroke-miterlimit:10;" d="M 693.332031 360 L 688.046875 359.964844 L 672.363281 359.707031 L 646.785156 359.027344 L 612.128906 357.742188 L 569.515625 355.722656 L 520.308594 352.871094 L 466.085938 349.15625 L 408.585938 344.613281 L 349.648438 339.335938 L 291.15625 333.480469 L 234.976563 327.257813 L 182.890625 320.9375 L 136.550781 314.824219 L 97.421875 309.242188 L 66.726563 304.539063 L 45.417969 301.042969 L 34.144531 299.078125 L 33.222656 298.917969 L 42.648438 300.78125 L 62.074219 304.828125 L 90.839844 311.128906 L 127.984375 319.675781 L 172.285156 330.351563 L 222.292969 342.960938 L 276.386719 357.207031 L 332.816406 372.699219 L 389.777344 388.980469 L 445.449219 405.527344 L 498.066406 421.769531 L 545.972656 437.109375 L 587.675781 450.941406 L 621.886719 462.691406 L 647.578125 471.8125 L 663.988281 477.832031 L 670.671875 480.355469 L 667.488281 479.097656 L 654.621094 473.898438 L 632.5625 464.71875 L 602.09375 451.664063 L 564.261719 434.988281 L 520.335938 415.074219 L 471.773438 392.441406 L 420.164063 367.726563 L 367.179688 341.667969 L 314.519531 315.082031 L 263.859375 288.835938 L 216.785156 263.816406 L 174.753906 240.914063 L 139.050781 220.96875 L 110.734375 204.761719 L 90.613281 192.964844 L 79.234375 186.136719 L 76.84375 184.675781 L 83.40625 188.820313 L 98.589844 198.621094 L 121.800781 213.941406 L 152.191406 234.460938 L 188.6875 259.660156 L 230.046875 288.859375 L 274.878906 321.222656 L 321.710938 355.777344 L 369.015625 391.453125 L 415.285156 427.117188 L 459.066406 461.597656 L 499.003906 493.738281 L 533.894531 522.421875 L 562.714844 546.625 L 584.65625 565.445313 L 599.140625 578.128906 L 605.847656 584.121094 L 604.707031 583.066406 L 595.902344 574.828125 L 579.863281 559.519531 L 557.246094 537.480469 L 528.902344 509.273438 L 495.847656 475.6875 L 459.242188 437.703125 L 420.320313 396.460938 L 380.371094 353.234375 L 340.695313 309.382813 L 302.542969 266.320313 L 267.09375 225.457031 L 235.410156 188.152344 L 208.414063 155.679688 L 186.84375 129.179688 L 171.246094 109.605469 L 161.96875 97.710938 L 159.132813 94.007813 L 162.65625 98.746094 L 172.25 111.910156 L 187.433594 133.195313 L 207.566406 162.046875 L 231.851563 197.644531 L 259.394531 238.933594 L 289.214844 284.664063 L 320.285156 333.425781 L 351.574219 383.683594 L 382.078125 433.839844 L 410.84375 482.277344 L 437.015625 527.414063 L 459.84375 567.753906 L 478.726563 601.949219 L 493.199219 628.820313 L 502.972656 647.421875 L 507.914063 657.0625 L 508.058594 657.335938 L 503.605469 648.136719 L 494.886719 629.660156 L 482.375 602.410156 L 466.636719 567.175781 L 448.328125 525.015625 L 428.164063 477.21875 L 406.890625 425.265625 L 385.246094 370.796875 L 363.953125 315.53125 L 343.6875 261.238281 L 325.050781 209.667969 L 308.558594 162.5 L 294.625 121.273438 L 283.558594 87.351563 L 275.539063 61.878906 L 270.632813 45.722656 L 268.800781 39.460938 L 269.882813 43.359375 L 273.632813 57.347656 L 279.726563 81.035156 L 287.777344 113.71875 L 297.34375 154.398438 L 307.972656 201.808594 L 319.199219 254.46875 L 330.578125 310.707031 L 341.6875 368.75 L 352.15625 426.738281 L 361.675781 482.824219 L 370.003906 535.199219 L 376.972656 582.179688 L 382.484375 622.246094 L 386.53125 654.097656 L 389.164063 676.691406 L 390.5 689.285156 L 390.714844 691.453125 L 390.019531 683.105469 L 388.65625 664.492188 L 386.878906 636.1875 L 384.933594 599.085938 L 383.0625 554.359375 L 381.460938 503.4375 L 380.296875 447.9375 L 379.6875 389.628906 L 379.6875 330.371094 L 380.296875 272.0625 L 381.460938 216.5625 L 383.0625 165.640625 L 384.933594 120.914063 L 386.878906 83.8125 L 388.65625 55.507813 L 390.019531 36.894531 L 390.714844 28.546875 L 390.5 30.714844 L 389.164063 43.308594 L 386.53125 65.902344 L 382.484375 97.753906 L 376.972656 137.820313 L 370.003906 184.800781 L 361.675781 237.175781 L 352.15625 293.261719 L 341.6875 351.25 L 330.578125 409.292969 L 319.199219 465.53125 L 307.972656 518.191406 L 297.34375 565.601563 L 287.777344 606.28125 L 279.726563 638.964844 L 273.632813 662.652344 L 269.882813 676.640625 L 268.800781 680.539063 L 270.632813 674.277344 L 275.539063 658.121094 L 283.558594 632.648438 L 294.625 598.726563 L 308.558594 557.5 L 325.050781 510.332031 L 343.6875 458.761719 L 363.953125 404.46875 L 385.246094 349.203125 L 406.890625 294.734375 L 428.164063 242.78125 L 448.328125 194.984375 L 466.636719 152.824219 L 482.375 117.589844 L 494.886719 90.339844 L 503.605469 71.863281 L 508.058594 62.664063 L 507.914063 62.9375 L 502.972656 72.578125 L 493.199219 91.179688 L 478.726563 118.050781 L 459.84375 152.246094 L 437.015625 192.585938 L 410.84375 237.722656 L 382.078125 286.160156 L 351.574219 336.316406 L 320.285156 386.574219 L 289.214844 435.335938 L 259.394531 481.066406 L 231.851563 522.355469 L 207.566406 557.953125 L 187.433594 586.804688 L 172.25 608.089844 L 162.65625 621.253906 L 159.132813 625.992188 L 161.96875 622.289063 L 171.246094 610.394531 L 186.84375 590.820313 L 208.414063 564.320313 L 235.410156 531.847656 L 267.09375 494.542969 L 302.542969 453.679688 L 340.695313 410.617188 L 380.371094 366.765625 L 420.320313 323.539063 L 459.242188 282.296875 L 495.847656 244.3125 L 528.902344 210.726563 L 557.246094 182.519531 L 579.863281 160.480469 L 595.902344 145.171875 L 604.707031 136.933594 L 605.847656 135.878906 L 599.140625 141.871094 L 584.65625 154.554688 L 562.714844 173.375 L 533.894531 197.578125 L 499.003906 226.261719 L 459.066406 258.402344 L 415.285156 292.882813 L 369.015625 328.546875 L 321.710938 364.222656 L 274.878906 398.777344 L 230.046875 431.140625 L 188.6875 460.339844 L 152.191406 485.539063 L 121.800781 506.058594 L 98.589844 521.378906 L 83.40625 531.179688 L 76.84375 535.324219 L 79.234375 533.863281 L 90.613281 527.035156 L 110.734375 515.238281 L 139.050781 499.03125 L 174.753906 479.085938 L 216.785156 456.183594 L 263.859375 431.164063 L 314.519531 404.917969 L 367.179688 378.332031 L 420.164063 352.273438 L 471.773438 327.558594 L 520.335938 304.925781 L 564.261719 285.011719 L 602.09375 268.335938 L 632.5625 255.28125 L 654.621094 246.101563 L 667.488281 240.902344 L 670.671875 239.644531 L 663.988281 242.167969 L 647.578125 248.1875 L 621.886719 257.308594 L 587.675781 269.058594 L 545.972656 282.890625 L 498.066406 298.230469 L 445.449219 314.472656 L 389.777344 331.019531 L 332.816406 347.300781 L 276.386719 362.792969 L 222.292969 377.039063 L 172.285156 389.648438 L 127.984375 400.324219 L 90.839844 408.871094 L 62.074219 415.171875 L 42.648438 419.21875 L 33.222656 421.082031 L 34.144531 420.921875 L 45.417969 418.957031 L 66.726563 415.460938 L 97.421875 410.757813 L 136.550781 405.175781 L 182.890625 399.0625 L 234.976563 392.742188 L 291.15625 386.519531 L 349.648438 380.664063 L 408.585938 375.386719 L 466.085938 370.84375 L 520.308594 367.128906 L 569.515625 364.277344 L 612.128906 362.257813 L 646.785156 360.972656 L 672.363281 360.292969 L 688.046875 360.035156 L 693.332031 360 "/>
  </g>
</svg>
