<svg xmlns="http://www.w3.org/2000/svg" viewBox="0 0 720 720" onload="pauseAnimations();"><defs/><rect width="100%" height="100%" fill="#f0f2f5ff" rx="0%" ry="0%"/><path id="a" fill="none" stroke="#f2f2f2" stroke-linecap="round" stroke-linejoin="round" stroke-miterlimit="10" stroke-opacity="1" stroke-width=".75" d="M346.215 355.523l-1.29 3.872-1.347 3.855-1.402 3.832-1.457 3.809-1.516 3.789-1.57 3.761-1.625 3.735-1.676 3.707-1.73 3.683-1.786 3.649-1.832 3.62-1.886 3.59-1.938 3.555-1.988 3.52-2.035 3.488-2.086 3.45-2.13 3.414-2.179 3.375-2.226 3.332-2.27 3.296-2.312 3.254-2.36 3.207-2.402 3.168-2.442 3.125-2.484 3.075-2.52 3.03-2.562 2.985-2.601 2.938-2.637 2.886-2.672 2.836-2.707 2.79-2.742 2.734-2.774 2.683-2.804 2.63-2.836 2.577-2.868 2.524-2.894 2.465-2.922 2.414-2.945 2.355-2.973 2.297-2.996 2.242-3.02 2.184-3.043 2.121-3.058 2.066-3.082 2.004-3.098 1.946-3.113 1.882-3.129 1.825-3.145 1.761-3.156 1.7-3.168 1.636-3.18 1.575-3.187 1.511-3.195 1.45-3.2 1.386-3.207 1.32-3.21 1.258-3.215 1.196-3.215 1.129-3.215 1.062-3.215 1.004-3.21.934-3.208.87-3.203.81-3.195.741-3.192.68-3.175.613-3.172.547-3.157.485-3.144.422-3.129.355-3.117.293-3.098.23-3.082.168-3.058.102-3.043.039-3.016-.02-2.996-.085-2.973-.145-2.945-.207-2.918-.27-2.895-.328-2.859-.39-2.832-.45-2.8-.507-2.77-.563-2.735-.625-2.699-.683-2.66-.739-2.625-.793-2.59-.851-2.547-.903-2.508-.96-2.464-1.012-2.422-1.063-2.383-1.117-2.332-1.168-2.29-1.219-2.241-1.265-2.196-1.317-2.148-1.367-2.094-1.41-2.047-1.457-1.996-1.504-1.941-1.543-1.89-1.59-1.837-1.633-1.781-1.671-1.727-1.715-1.668-1.754-1.613-1.79-1.555-1.827-1.496-1.868-1.433-1.898-1.38-1.934-1.316-1.964-1.254-2-1.195-2.028-1.133-2.058-1.066-2.086-1.004-2.114-.941-2.136-.88-2.164-.812-2.192-.746-2.207-.683-2.234-.614-2.25-.55-2.27-.481-2.289-.418-2.3-.348-2.32-.28-2.333-.212-2.348-.144-2.355-.078-2.367-.008-2.375.058-2.383.13-2.387.195-2.394.265-2.395.332-2.402.406-2.399.47-2.402.538-2.398.61-2.395.675-2.394.747-2.387.812-2.38.879-2.37.95-2.363 1.015-2.356 1.082-2.34 1.148-2.328 1.215-2.316 1.281-2.297 1.348-2.281 1.414-2.266 1.477-2.246 1.543-2.227 1.605-2.203 1.672-2.18 1.734-2.156 1.793-2.133 1.86-2.109 1.918-2.078 1.98-2.05 2.04-2.02 2.097-1.993 2.156-1.96 2.215-1.926 2.273-1.89 2.332-1.86 2.383-1.82 2.442-1.786 2.492-1.746 2.55-1.71 2.598-1.669 2.653-1.625 2.703-1.586 2.75-1.543 2.8-1.5 2.852-1.453 2.895-1.41 2.941-1.363 2.988-1.317 3.031-1.27 3.075-1.218 3.113-1.168 3.156-1.121 3.2-1.07 3.234-1.016 3.27-.969 3.308-.91 3.348-.86 3.375-.804 3.414-.75 3.441-.695 3.473-.64 3.504-.583 3.53-.527 3.56-.469 3.582-.41 3.609-.356 3.629-.293 3.656-.234 3.672-.18 3.695-.113 3.711-.058 3.727.003 3.746.063 3.758.125 3.773.183 3.781.247 3.793.308 3.805.367 3.809.43 3.82.492 3.82.555 3.828.613 3.828.676 3.829.734 3.832.801 3.828.86 3.824.918 3.824.984 3.817 1.039 3.808 1.105 3.805 1.16 3.789 1.227 3.785 1.281 3.77 1.344 3.757 1.402 3.743 1.461 3.726 1.52 3.711 1.578 3.695 1.633 3.672 1.695 3.653 1.746 3.632 1.809 3.606 1.86 3.586 1.917 3.558 1.969 3.532 2.027 3.504 2.078 3.472 2.133 3.446 2.184 3.414 2.234 3.382 2.285 3.348 2.336 3.313 2.387"/><path id="b" fill="none" stroke="#f2f2f2" stroke-linecap="round" stroke-linejoin="round" stroke-miterlimit="10" stroke-opacity="1" stroke-width=".75" d="M352.14 372.207l3.278 2.434 3.242 2.48 3.203 2.527 3.168 2.575 3.125 2.62 3.082 2.665 3.043 2.707 3 2.75 2.957 2.789 2.914 2.832 2.868 2.875 2.82 2.91 2.773 2.95 2.727 2.984 2.676 3.02 2.625 3.054 2.578 3.09 2.527 3.12 2.473 3.153 2.422 3.184 2.367 3.21 2.312 3.243 2.258 3.266 2.207 3.293 2.149 3.316 2.09 3.344 2.035 3.359 1.976 3.387 1.922 3.402 1.86 3.422 1.8 3.441 1.742 3.454 1.684 3.472 1.625 3.485 1.562 3.496 1.5 3.504 1.438 3.52 1.379 3.522 1.316 3.536 1.258 3.535 1.192 3.543 1.128 3.547 1.07 3.55 1.005 3.547.941 3.551.883 3.543.816 3.543.754 3.54.692 3.534.628 3.524.563 3.52.504 3.507.441 3.496.38 3.485.312 3.468.254 3.457.191 3.438.129 3.422.07 3.402.008 3.383-.055 3.363-.113 3.336-.176 3.316-.234 3.29-.293 3.265-.352 3.235-.41 3.21-.469 3.176-.527 3.145-.582 3.117-.637 3.078-.695 3.047-.75 3.012-.805 2.972-.859 2.934-.914 2.898-.965 2.856-1.016 2.816-1.066 2.77-1.117 2.73-1.168 2.684-1.215 2.64-1.266 2.59-1.308 2.547-1.36 2.496-1.402 2.45-1.445 2.394-1.492 2.348-1.532 2.293-1.578 2.242-1.613 2.187-1.656 2.133-1.696 2.074-1.73 2.024-1.77 1.965-1.804 1.906-1.84 1.848-1.871 1.789-1.906 1.726-1.934 1.668-1.969 1.61-1.996 1.542-2.023 1.485-2.051 1.422-2.074 1.355-2.102 1.293-2.125 1.23-2.144 1.165-2.168 1.097-2.188 1.032-2.203.968-2.223.899-2.238.832-2.254.77-2.265.695-2.282.632-2.289.563-2.3.496-2.31.426-2.316.36-2.32.288-2.324.219-2.332.152-2.332.082-2.332.016-2.332-.059-2.332-.12-2.328-.196-2.325-.262-2.316-.328-2.313-.398-2.304-.469-2.293-.535-2.285-.606-2.27-.672-2.262-.738-2.242-.804-2.23-.875-2.211-.942-2.195-1.004-2.176-1.074-2.153-1.137-2.132-1.203-2.11-1.265-2.086-1.332-2.062-1.395-2.035-1.461-2.008-1.52-1.977-1.582-1.949-1.644-1.918-1.707-1.887-1.762-1.851-1.824-1.817-1.883-1.785-1.941-1.746-2-1.71-2.055-1.669-2.11-1.633-2.167-1.593-2.219-1.547-2.273-1.508-2.325-1.465-2.375-1.422-2.43-1.375-2.476-1.332-2.527-1.281-2.57-1.234-2.622-1.188-2.668-1.137-2.71-1.09-2.755-1.035-2.8-.984-2.836-.934-2.883-.879-2.918-.828-2.96-.773-2.993-.715-3.035-.664-3.067-.605-3.101-.547-3.133-.493-3.164-.433-3.195-.375-3.227-.317-3.254-.257-3.277-.2-3.305-.136-3.332-.078-3.352-.02-3.375.047-3.394.105-3.414.164-3.434.23-3.449.29-3.465.352-3.476.418-3.493.476-3.503.54-3.512.605-3.524.664-3.53.73-3.536.793-3.543.856-3.543.914-3.547.98-3.55 1.043-3.547 1.106-3.551 1.168-3.543 1.23-3.54 1.293-3.534 1.352-3.532 1.418-3.52 1.476-3.51 1.54-3.5 1.597-3.49 1.656-3.476 1.719-3.46 1.781-3.446 1.836-3.43 1.894-3.41 1.958-3.394 2.011-3.372 2.067-3.347 2.129-3.328 2.18-3.301 2.238-3.281 2.293-3.25 2.343-3.223 2.403-3.195 2.453-3.164 2.504-3.133 2.554-3.106 2.61-3.066 2.656-3.035 2.707-3 2.754-2.961 2.8-2.926 2.848-2.89 2.895-2.848 2.941-2.809 2.98-2.765 3.028-2.723 3.066-2.684 3.11-2.636 3.148-2.594 3.192-2.547 3.226-2.5 3.262-2.453 3.3-2.402"/><path id="c" fill="none" stroke="#f2f2f2" stroke-linecap="round" stroke-linejoin="round" stroke-miterlimit="10" stroke-opacity="1" stroke-width=".75" d="M369.844 370.77l3.332-2.356 3.37-2.309 3.4-2.253 3.433-2.204 3.465-2.152 3.492-2.101 3.52-2.047 3.546-1.993 3.575-1.937 3.597-1.883 3.621-1.828 3.645-1.773 3.668-1.715 3.683-1.66 3.704-1.598 3.722-1.543 3.735-1.484 3.753-1.426 3.766-1.367 3.777-1.309 3.79-1.246 3.796-1.188 3.809-1.128 3.812-1.067 3.82-1.004 3.825-.945 3.828-.883 3.828-.824 3.832-.762 3.828-.7 3.829-.636 3.824-.578 3.82-.516 3.813-.457 3.804-.39 3.801-.332 3.785-.27 3.778-.21 3.765-.15 3.75-.085 3.735-.027 3.718.03 3.7.095 3.683.152 3.66.21 3.64.27 3.618.332 3.594.387 3.57.445 3.54.504 3.515.563 3.484.613 3.457.676 3.422.726 3.395.786 3.355.836 3.324.89 3.285.946 3.25.996 3.215 1.05 3.172 1.098 3.133 1.152 3.09 1.2 3.047 1.25 3.004 1.296 2.96 1.344 2.915 1.39 2.867 1.438 2.82 1.48 2.774 1.528 2.722 1.567 2.672 1.609 2.621 1.652 2.567 1.696 2.515 1.73 2.465 1.77 2.406 1.804 2.352 1.844 2.297 1.879 2.238 1.914 2.18 1.945 2.12 1.98 2.063 2.009 2.004 2.039 1.946 2.07 1.878 2.094 1.82 2.12 1.762 2.15 1.692 2.171 1.633 2.195 1.57 2.22 1.504 2.234 1.437 2.257 1.375 2.278 1.309 2.293 1.242 2.304 1.176 2.325 1.11 2.336 1.038 2.347.977 2.36.906 2.37.84 2.376.774 2.386.703 2.391.636 2.395.567 2.394.496 2.402.43 2.399.363 2.402.293 2.399.222 2.394.157 2.39.086 2.388.02 2.375-.052 2.37-.117 2.36-.183 2.352-.254 2.336-.32 2.328-.391 2.308-.457 2.293-.52 2.278-.59 2.257-.656 2.243-.719 2.218-.789 2.196-.851 2.175-.914 2.149-.98 2.125-1.044 2.097-1.105 2.067-1.172 2.043-1.23 2.008-1.29 1.98-1.355 1.945-1.41 1.914-1.473 1.88-1.531 1.843-1.59 1.805-1.648 1.77-1.704 1.726-1.757 1.691-1.813 1.649-1.871 1.605-1.922 1.563-1.973 1.523-2.027 1.473-2.074 1.43-2.129 1.382-2.172 1.336-2.226 1.29-2.27 1.238-2.316 1.187-2.364 1.137-2.402 1.086-2.45 1.031-2.491.98-2.532.93-2.57.871-2.613.817-2.649.758-2.683.707-2.719.644-2.754.59-2.789.531-2.82.473-2.848.414-2.883.351-2.906.293-2.938.23-2.96.173-2.985.11-3.012.046-3.03-.016-3.052-.078-3.074-.14-3.09-.203-3.109-.27-3.125-.328-3.14-.399-3.153-.457-3.164-.523-3.176-.59-3.183-.652-3.192-.715-3.203-.781-3.203-.848-3.211-.91-3.215-.973-3.215-1.039-3.215-1.105-3.214-1.168-3.211-1.23-3.207-1.298-3.207-1.359-3.196-1.422-3.191-1.488-3.184-1.551-3.172-1.61-3.16-1.675-3.148-1.738-3.137-1.797-3.121-1.86-3.105-1.922-3.086-1.98-3.067-2.04-3.05-2.1-3.028-2.16-3.008-2.22-2.98-2.273-2.957-2.332-2.934-2.39-2.906-2.446-2.875-2.5-2.848-2.555-2.82-2.609-2.785-2.664-2.754-2.711-2.723-2.77-2.687-2.816-2.649-2.867-2.617-2.918-2.574-2.965-2.54-3.012-2.5-3.058-2.46-3.106-2.414-3.148-2.375-3.192-2.332-3.238-2.29-3.277-2.241-3.32-2.2-3.356-2.152-3.398-2.102-3.438-2.054-3.469-2.008-3.507-1.957-3.543-1.906-3.575-1.856-3.609-1.805-3.64-1.75-3.669-1.699-3.695-1.644-3.726-1.594-3.75-1.535-3.778-1.48-3.8-1.426-3.825-1.372-3.848-1.312-3.863-1.258-3.887"/><path id="d" fill="none" stroke="#f2f2f2" stroke-linecap="round" stroke-linejoin="round" stroke-miterlimit="10" stroke-opacity="1" stroke-width=".75" d="M373.035 353.188l-1.195-3.903-1.14-3.918-1.087-3.933-1.023-3.95-.965-3.96-.906-3.973-.844-3.985-.79-3.992-.726-3.996-.668-4.008-.605-4.007-.547-4.016-.488-4.016-.426-4.02-.367-4.015-.305-4.016-.246-4.011-.184-4.008-.125-4-.062-3.996-.004-3.988.059-3.977.117-3.969.176-3.953.234-3.941.293-3.926.355-3.91.414-3.895.47-3.87.53-3.856.586-3.832.645-3.813.703-3.785.754-3.762.816-3.738.868-3.707.925-3.68.977-3.652 1.035-3.617 1.086-3.59 1.137-3.555 1.191-3.52 1.242-3.48 1.293-3.449 1.344-3.41 1.39-3.371 1.442-3.328 1.488-3.29 1.54-3.25 1.581-3.203 1.625-3.16 1.676-3.113 1.715-3.07 1.758-3.024 1.805-2.972 1.84-2.926 1.882-2.875 1.922-2.82 1.961-2.774 1.996-2.723 2.035-2.664 2.067-2.613 2.105-2.559 2.137-2.5 2.168-2.445 2.2-2.39 2.23-2.329 2.257-2.273 2.286-2.211 2.312-2.152 2.336-2.094 2.363-2.031 2.387-1.97 2.406-1.91 2.43-1.843 2.445-1.781 2.469-1.719 2.48-1.652 2.5-1.59 2.516-1.528 2.527-1.457 2.54-1.394 2.55-1.328 2.559-1.262 2.57-1.195 2.574-1.13 2.582-1.062 2.59-.996 2.59-.925 2.59-.86 2.594-.793 2.593-.726 2.59-.657 2.586-.59 2.586-.523 2.578-.453 2.57-.387 2.563-.32 2.555-.254 2.543-.184 2.531-.117 2.516-.05 2.503.015 2.489.082 2.469.149 2.453.214 2.43.282 2.413.347 2.391.41 2.363.477 2.344.54 2.316.6 2.29.669 2.261.73 2.235.793 2.203.852 2.172.914 2.136.976 2.106 1.035 2.07 1.098 2.031 1.152 1.996 1.215 1.961 1.27 1.918 1.324 1.88 1.383 1.84 1.437 1.796 1.492 1.75 1.547 1.71 1.598 1.661 1.652 1.617 1.7 1.57 1.753 1.524 1.801 1.473 1.852 1.422 1.898 1.375 1.942 1.32 1.992 1.27 2.031 1.214 2.078 1.16 2.121 1.11 2.164 1.05 2.204.997 2.242.941 2.28.879 2.317.824 2.356.766 2.39.707 2.422.644 2.457.586 2.489.528 2.52.46 2.546.403 2.574.34 2.606.277 2.629.215 2.652.148 2.676.086 2.699.02 2.719-.043 2.738-.106 2.758-.171 2.773-.239 2.79-.304 2.804-.371 2.816-.434 2.832-.504 2.84-.566 2.848-.633 2.86-.7 2.863-.765 2.87-.832 2.876-.899 2.879-.964 2.879-1.032 2.878-1.097 2.88-1.164 2.874-1.227 2.871-1.293 2.871-1.36 2.86-1.425 2.855-1.488 2.848-1.551 2.836-1.617 2.824-1.684 2.813-1.742 2.8-1.809 2.786-1.87 2.765-1.934 2.754-1.993 2.73-2.054 2.715-2.117 2.692-2.176 2.668-2.238 2.648-2.293 2.621-2.356 2.598-2.41 2.57-2.469 2.54-2.523 2.515-2.582 2.48-2.637 2.454-2.688 2.418-2.746 2.386-2.793 2.352-2.851 2.316-2.899 2.281-2.949 2.243-3 2.207-3.047 2.164-3.093 2.125-3.141 2.086-3.188 2.039-3.234 2-3.277 1.953-3.317 1.91-3.359 1.867-3.402 1.817-3.442 1.773-3.48 1.723-3.516 1.676-3.555 1.625-3.586 1.574-3.625 1.523-3.656 1.477-3.687 1.418-3.719 1.37-3.746 1.313-3.777 1.262-3.805 1.207-3.828 1.152-3.856 1.098-3.879 1.04-3.898.983-3.922.93-3.941.871-3.961.813-3.977.754-3.992.695-4.008.64-4.02.579-4.03.52-4.048.46-4.05.403-4.063.343-4.066.282-4.074.222-4.079.164-4.082.102-4.082.043-4.082-.02"/><path id="e" fill="none" stroke="#f2f2f2" stroke-linecap="round" stroke-linejoin="round" stroke-miterlimit="10" stroke-opacity="1" stroke-width=".75" d="M356.734 345.488l-4.082-.078-4.078-.137-4.078-.199-4.07-.258-4.063-.32-4.058-.379-4.047-.437-4.035-.496-4.028-.555-4.011-.613-4-.676-3.985-.73-3.965-.79-3.949-.847-3.93-.907-3.906-.96-3.89-1.02-3.864-1.074-3.84-1.13-3.812-1.183-3.79-1.242-3.757-1.293-3.73-1.348-3.704-1.398-3.667-1.453-3.637-1.504-3.602-1.555-3.566-1.605-3.531-1.656-3.496-1.704-3.458-1.753-3.417-1.797-3.375-1.848-3.336-1.895-3.293-1.933-3.25-1.985-3.207-2.023-3.16-2.066-3.114-2.11-3.066-2.148-3.016-2.192-2.973-2.226-2.918-2.266-2.867-2.3-2.82-2.34-2.762-2.372-2.715-2.406-2.656-2.441-2.601-2.469-2.547-2.5-2.492-2.531-2.434-2.559-2.379-2.586-2.316-2.613-2.262-2.637-2.2-2.66-2.14-2.683-2.078-2.707-2.02-2.723-1.957-2.742-1.894-2.762-1.836-2.781-1.77-2.793-1.703-2.805-1.644-2.82-1.578-2.832-1.516-2.844-1.45-2.852-1.386-2.859-1.32-2.867-1.254-2.871-1.188-2.875-1.12-2.875-1.06-2.883-.992-2.879-.925-2.875-.856-2.879-.793-2.871-.726-2.867-.66-2.86-.594-2.855-.528-2.844-.464-2.832-.395-2.824-.328-2.809-.266-2.796-.199-2.782-.133-2.761-.07-2.747-.004-2.73.059-2.707.125-2.684.187-2.664.254-2.636.313-2.614.378-2.586.438-2.558.5-2.531.562-2.5.622-2.47.683-2.437.738-2.402.801-2.371.86-2.332.918-2.297.972-2.258 1.031-2.219 1.086-2.175 1.137-2.141 1.195-2.094 1.25-2.05 1.301-2.008 1.352-1.965 1.402-1.914 1.453-1.871 1.504-1.82 1.547-1.774 1.602-1.723 1.644-1.668 1.688-1.62 1.738-1.567 1.777-1.516 1.82-1.457 1.864-1.406 1.902-1.348 1.945-1.293 1.98-1.234 2.02-1.18 2.055-1.117 2.09-1.063 2.125-1 2.16-.937 2.192-.879 2.218-.816 2.25-.754 2.282-.692 2.304-.629 2.332-.566 2.356-.5 2.383-.437 2.402-.372 2.426-.308 2.441-.242 2.465-.176 2.48-.11 2.496-.042 2.512.027 2.528.09 2.539.156 2.547.227 2.558.293 2.57.359 2.575.426 2.582.496 2.586.562 2.59.633 2.59.695 2.593.766 2.594.836 2.59.898 2.59.97 2.582 1.034 2.578 1.102 2.574 1.168 2.562 1.238 2.555 1.3 2.547 1.368 2.531 1.434 2.52 1.5 2.504 1.562 2.492 1.63 2.472 1.69 2.454 1.758 2.437 1.82 2.414 1.883 2.395 1.942 2.37 2.008 2.348 2.07 2.325 2.129 2.296 2.187 2.27 2.246 2.242 2.309 2.211 2.363 2.18 2.426 2.148 2.477 2.117 2.535 2.082 2.594 2.051 2.644 2.012 2.7 1.973 2.75 1.937 2.804 1.899 2.852 1.859 2.906 1.816 2.953 1.778 3.004 1.734 3.05 1.692 3.098 1.644 3.14 1.602 3.188 1.554 3.23 1.508 3.274 1.461 3.313 1.41 3.355 1.363 3.395 1.313 3.43 1.262 3.472 1.215 3.504 1.156 3.54 1.11 3.573 1.054 3.61 1 3.636.945 3.668.89 3.7.837 3.722.781 3.754.723 3.778.668 3.8.609 3.825.55 3.843.497 3.867.433 3.887.38 3.903.32 3.921.257 3.934.2 3.95.14 3.96.082 3.973.02 3.984-.04 3.992-.1 4-.16 4.008-.22 4.008-.28 4.016-.345 4.015-.398 4.016-.465 4.02-.523 4.015-.582 4.012-.645 4.008-.703 4-.762 3.996-.824 3.984-.883 3.977-.941 3.968-1 3.953-1.059 3.938-1.117 3.926-1.176 3.91-1.234 3.894"/><circle r="3" fill="#B22222FF"><animateMotion begin="0s" dur="2s" repeatCount="indefinite"><mpath href="#a"/></animateMotion></circle><circle r="3" fill="#B22222FF"><animateMotion begin="0s" dur="3s" repeatCount="indefinite"><mpath href="#a"/></animateMotion></circle><circle r="3" fill="#B22222FF"><animateMotion begin="0s" dur="4s" repeatCount="indefinite"><mpath href="#a"/></animateMotion></circle><circle r="3" fill="#B22222FF"><animateMotion begin="0s" dur="5s" repeatCount="indefinite"><mpath href="#a"/></animateMotion></circle><circle r="3" fill="#B22222FF"><animateMotion begin="0s" dur="6s" repeatCount="indefinite"><mpath href="#a"/></animateMotion></circle><circle r="3" fill="#B22222FF"><animateMotion begin="0s" dur="10s" repeatCount="indefinite"><mpath href="#a"/></animateMotion></circle><circle r="3" fill="#B22222FF"><animateMotion begin="0s" dur="12s" repeatCount="indefinite"><mpath href="#a"/></animateMotion></circle><circle r="3" fill="#B22222FF"><animateMotion begin="0s" dur="15s" repeatCount="indefinite"><mpath href="#a"/></animateMotion></circle><circle r="3" fill="#B22222FF"><animateMotion begin="0s" dur="20s" repeatCount="indefinite"><mpath href="#a"/></animateMotion></circle><circle r="3" fill="#B22222FF"><animateMotion begin="0s" dur="30s" repeatCount="indefinite"><mpath href="#a"/></animateMotion></circle><circle r="3" fill="#B22222FF"><animateMotion begin="0s" dur="60s" repeatCount="indefinite"><mpath href="#a"/></animateMotion></circle><circle r="3" fill="#B22222FF"><animateMotion begin="0s" dur="2s" repeatCount="indefinite"><mpath href="#b"/></animateMotion></circle><circle r="3" fill="#B22222FF"><animateMotion begin="0s" dur="3s" repeatCount="indefinite"><mpath href="#b"/></animateMotion></circle><circle r="3" fill="#B22222FF"><animateMotion begin="0s" dur="4s" repeatCount="indefinite"><mpath href="#b"/></animateMotion></circle><circle r="3" fill="#B22222FF"><animateMotion begin="0s" dur="5s" repeatCount="indefinite"><mpath href="#b"/></animateMotion></circle><circle r="3" fill="#B22222FF"><animateMotion begin="0s" dur="6s" repeatCount="indefinite"><mpath href="#b"/></animateMotion></circle><circle r="3" fill="#B22222FF"><animateMotion begin="0s" dur="10s" repeatCount="indefinite"><mpath href="#b"/></animateMotion></circle><circle r="3" fill="#B22222FF"><animateMotion begin="0s" dur="12s" repeatCount="indefinite"><mpath href="#b"/></animateMotion></circle><circle r="3" fill="#B22222FF"><animateMotion begin="0s" dur="15s" repeatCount="indefinite"><mpath href="#b"/></animateMotion></circle><circle r="3" fill="#B22222FF"><animateMotion begin="0s" dur="20s" repeatCount="indefinite"><mpath href="#b"/></animateMotion></circle><circle r="3" fill="#B22222FF"><animateMotion begin="0s" dur="30s" repeatCount="indefinite"><mpath href="#b"/></animateMotion></circle><circle r="3" fill="#B22222FF"><animateMotion begin="0s" dur="60s" repeatCount="indefinite"><mpath href="#b"/></animateMotion></circle><circle r="3" fill="#B22222FF"><animateMotion begin="0s" dur="2s" repeatCount="indefinite"><mpath href="#c"/></animateMotion></circle><circle r="3" fill="#B22222FF"><animateMotion begin="0s" dur="3s" repeatCount="indefinite"><mpath href="#c"/></animateMotion></circle><circle r="3" fill="#B22222FF"><animateMotion begin="0s" dur="4s" repeatCount="indefinite"><mpath href="#c"/></animateMotion></circle><circle r="3" fill="#B22222FF"><animateMotion begin="0s" dur="5s" repeatCount="indefinite"><mpath href="#c"/></animateMotion></circle><circle r="3" fill="#B22222FF"><animateMotion begin="0s" dur="6s" repeatCount="indefinite"><mpath href="#c"/></animateMotion></circle><circle r="3" fill="#B22222FF"><animateMotion begin="0s" dur="10s" repeatCount="indefinite"><mpath href="#c"/></animateMotion></circle><circle r="3" fill="#B22222FF"><animateMotion begin="0s" dur="12s" repeatCount="indefinite"><mpath href="#c"/></animateMotion></circle><circle r="3" fill="#B22222FF"><animateMotion begin="0s" dur="15s" repeatCount="indefinite"><mpath href="#c"/></animateMotion></circle><circle r="3" fill="#B22222FF"><animateMotion begin="0s" dur="20s" repeatCount="indefinite"><mpath href="#c"/></animateMotion></circle><circle r="3" fill="#B22222FF"><animateMotion begin="0s" dur="30s" repeatCount="indefinite"><mpath href="#c"/></animateMotion></circle><circle r="3" fill="#B22222FF"><animateMotion begin="0s" dur="60s" repeatCount="indefinite"><mpath href="#c"/></animateMotion></circle><circle r="3" fill="#B22222FF"><animateMotion begin="0s" dur="2s" repeatCount="indefinite"><mpath href="#d"/></animateMotion></circle><circle r="3" fill="#B22222FF"><animateMotion begin="0s" dur="3s" repeatCount="indefinite"><mpath href="#d"/></animateMotion></circle><circle r="3" fill="#B22222FF"><animateMotion begin="0s" dur="4s" repeatCount="indefinite"><mpath href="#d"/></animateMotion></circle><circle r="3" fill="#B22222FF"><animateMotion begin="0s" dur="5s" repeatCount="indefinite"><mpath href="#d"/></animateMotion></circle><circle r="3" fill="#B22222FF"><animateMotion begin="0s" dur="6s" repeatCount="indefinite"><mpath href="#d"/></animateMotion></circle><circle r="3" fill="#B22222FF"><animateMotion begin="0s" dur="10s" repeatCount="indefinite"><mpath href="#d"/></animateMotion></circle><circle r="3" fill="#B22222FF"><animateMotion begin="0s" dur="12s" repeatCount="indefinite"><mpath href="#d"/></animateMotion></circle><circle r="3" fill="#B22222FF"><animateMotion begin="0s" dur="15s" repeatCount="indefinite"><mpath href="#d"/></animateMotion></circle><circle r="3" fill="#B22222FF"><animateMotion begin="0s" dur="20s" repeatCount="indefinite"><mpath href="#d"/></animateMotion></circle><circle r="3" fill="#B22222FF"><animateMotion begin="0s" dur="30s" repeatCount="indefinite"><mpath href="#d"/></animateMotion></circle><circle r="3" fill="#B22222FF"><animateMotion begin="0s" dur="60s" repeatCount="indefinite"><mpath href="#d"/></animateMotion></circle><circle r="3" fill="#B22222FF"><animateMotion begin="0s" dur="2s" repeatCount="indefinite"><mpath href="#e"/></animateMotion></circle><circle r="3" fill="#B22222FF"><animateMotion begin="0s" dur="3s" repeatCount="indefinite"><mpath href="#e"/></animateMotion></circle><circle r="3" fill="#B22222FF"><animateMotion begin="0s" dur="4s" repeatCount="indefinite"><mpath href="#e"/></animateMotion></circle><circle r="3" fill="#B22222FF"><animateMotion begin="0s" dur="5s" repeatCount="indefinite"><mpath href="#e"/></animateMotion></circle><circle r="3" fill="#B22222FF"><animateMotion begin="0s" dur="6s" repeatCount="indefinite"><mpath href="#e"/></animateMotion></circle><circle r="3" fill="#B22222FF"><animateMotion begin="0s" dur="10s" repeatCount="indefinite"><mpath href="#e"/></animateMotion></circle><circle r="3" fill="#B22222FF"><animateMotion begin="0s" dur="12s" repeatCount="indefinite"><mpath href="#e"/></animateMotion></circle><circle r="3" fill="#B22222FF"><animateMotion begin="0s" dur="15s" repeatCount="indefinite"><mpath href="#e"/></animateMotion></circle><circle r="3" fill="#B22222FF"><animateMotion begin="0s" dur="20s" repeatCount="indefinite"><mpath href="#e"/></animateMotion></circle><circle r="3" fill="#B22222FF"><animateMotion begin="0s" dur="30s" repeatCount="indefinite"><mpath href="#e"/></animateMotion></circle><circle r="3" fill="#B22222FF"><animateMotion begin="0s" dur="60s" repeatCount="indefinite"><mpath href="#e"/></animateMotion></circle></svg>