<svg xmlns="http://www.w3.org/2000/svg" viewBox="0 0 720 720"><g id="oslo_aster_stop" transform="translate(684 684)" cursor="pointer"><circle fill="#fff" r="20"/><text text-anchor="middle" alignment-baseline="central" font-family="inherit" font-size="14pt">Stop</text></g><g id="oslo_aster_start" transform="translate(36 684)" cursor="pointer"><circle fill="#fff" r="20"/><text text-anchor="middle" alignment-baseline="central" font-family="inherit" font-size="14pt">Start</text></g><rect rx="50%" ry="50%" width="100%" height="100%" fill="#000000ff"/><g><path d="M648.676 526.668l-1.149-.695-3.37-2.176-5.473-3.777-7.422-5.473-9.203-7.246-10.793-9.067-12.188-10.906-13.36-12.746-14.308-14.547-15.035-16.285-15.531-17.93-15.801-19.453-15.848-20.828-15.691-22.039-15.336-23.05-14.797-23.852-14.098-24.418-13.257-24.743-12.293-24.804-11.243-24.606-10.113-24.144-8.949-23.41-7.762-22.414-6.586-21.16-5.441-19.669-4.356-17.94-3.355-16.009-2.457-13.883-1.672-11.593-1.027-9.164-.535-6.625-.2-4.008-.027-1.34-.027 1.34-.2 4.008-.535 6.625-1.027 9.164-1.672 11.593-2.457 13.883-3.355 16.008-4.356 17.941-5.441 19.668-6.586 21.16-7.762 22.415-8.95 23.41-10.112 24.144-11.243 24.606-12.293 24.804-13.257 24.743-14.098 24.418-14.797 23.851-15.336 23.051-15.691 22.04-15.848 20.827-15.8 19.453-15.532 17.93-15.035 16.285-14.309 14.547-13.36 12.746-12.187 10.906-10.793 9.067-9.203 7.246-7.422 5.473-5.472 3.777-3.371 2.176-1.149.695 1.176-.648 3.57-1.832 6.004-2.852 8.453-3.691 10.875-4.344 13.25-4.817 15.54-5.097 17.718-5.2 19.754-5.12 21.617-4.876 23.293-4.488 24.746-3.957 25.97-3.308 26.929-2.57 27.629-1.755 28.054-.89h28.196l28.054.89 27.63 1.754 26.929 2.57 25.969 3.31 24.746 3.956 23.293 4.488 21.617 4.875 19.754 5.122 17.719 5.199 15.539 5.097 13.25 4.817 10.875 4.344 8.453 3.69 6.004 2.852 3.57 1.833zm0 0" fill="#ffffffe5" fill-rule="evenodd"/><animateTransform attributeType="xml" attributeName="transform" type="rotate" from="0 360 360" to="360 360 360" dur="30s" additive="sum" repeatCount="indefinite" begin="oslo_aster_start.click" end="oslo_aster_stop.click"/></g><g xmlns="http://www.w3.org/2000/svg" transform="matrix(.86603 0 0 .86603 48.23 48.23)"><path d="M648.676 526.668l-1.149-.695-3.37-2.176-5.473-3.777-7.422-5.473-9.203-7.246-10.793-9.067-12.188-10.906-13.36-12.746-14.308-14.547-15.035-16.285-15.531-17.93-15.801-19.453-15.848-20.828-15.691-22.039-15.336-23.05-14.797-23.852-14.098-24.418-13.257-24.743-12.293-24.804-11.243-24.606-10.113-24.144-8.949-23.41-7.762-22.414-6.586-21.16-5.441-19.669-4.356-17.94-3.355-16.009-2.457-13.883-1.672-11.593-1.027-9.164-.535-6.625-.2-4.008-.027-1.34-.027 1.34-.2 4.008-.535 6.625-1.027 9.164-1.672 11.593-2.457 13.883-3.355 16.008-4.356 17.941-5.441 19.668-6.586 21.16-7.762 22.415-8.95 23.41-10.112 24.144-11.243 24.606-12.293 24.804-13.257 24.743-14.098 24.418-14.797 23.851-15.336 23.051-15.691 22.04-15.848 20.827-15.8 19.453-15.532 17.93-15.035 16.285-14.309 14.547-13.36 12.746-12.187 10.906-10.793 9.067-9.203 7.246-7.422 5.473-5.472 3.777-3.371 2.176-1.149.695 1.176-.648 3.57-1.832 6.004-2.852 8.453-3.691 10.875-4.344 13.25-4.817 15.54-5.097 17.718-5.2 19.754-5.12 21.617-4.876 23.293-4.488 24.746-3.957 25.97-3.308 26.929-2.57 27.629-1.755 28.054-.89h28.196l28.054.89 27.63 1.754 26.929 2.57 25.969 3.31 24.746 3.956 23.293 4.488 21.617 4.875 19.754 5.122 17.719 5.199 15.539 5.097 13.25 4.817 10.875 4.344 8.453 3.69 6.004 2.852 3.57 1.833zm0 0" fill="#d1d2d3e5" fill-rule="evenodd"/><animateTransform attributeType="xml" attributeName="transform" type="rotate" from="0 360 360" to="360 360 360" dur="20s" additive="sum" repeatCount="indefinite" begin="oslo_aster_start.click" end="oslo_aster_stop.click"/></g><g xmlns="http://www.w3.org/2000/svg" transform="matrix(.75 0 0 .75 90 90)"><path d="M648.676 526.668l-1.149-.695-3.37-2.176-5.473-3.777-7.422-5.473-9.203-7.246-10.793-9.067-12.188-10.906-13.36-12.746-14.308-14.547-15.035-16.285-15.531-17.93-15.801-19.453-15.848-20.828-15.691-22.039-15.336-23.05-14.797-23.852-14.098-24.418-13.257-24.743-12.293-24.804-11.243-24.606-10.113-24.144-8.949-23.41-7.762-22.414-6.586-21.16-5.441-19.669-4.356-17.94-3.355-16.009-2.457-13.883-1.672-11.593-1.027-9.164-.535-6.625-.2-4.008-.027-1.34-.027 1.34-.2 4.008-.535 6.625-1.027 9.164-1.672 11.593-2.457 13.883-3.355 16.008-4.356 17.941-5.441 19.668-6.586 21.16-7.762 22.415-8.95 23.41-10.112 24.144-11.243 24.606-12.293 24.804-13.257 24.743-14.098 24.418-14.797 23.851-15.336 23.051-15.691 22.04-15.848 20.827-15.8 19.453-15.532 17.93-15.035 16.285-14.309 14.547-13.36 12.746-12.187 10.906-10.793 9.067-9.203 7.246-7.422 5.473-5.472 3.777-3.371 2.176-1.149.695 1.176-.648 3.57-1.832 6.004-2.852 8.453-3.691 10.875-4.344 13.25-4.817 15.54-5.097 17.718-5.2 19.754-5.12 21.617-4.876 23.293-4.488 24.746-3.957 25.97-3.308 26.929-2.57 27.629-1.755 28.054-.89h28.196l28.054.89 27.63 1.754 26.929 2.57 25.969 3.31 24.746 3.956 23.293 4.488 21.617 4.875 19.754 5.122 17.719 5.199 15.539 5.097 13.25 4.817 10.875 4.344 8.453 3.69 6.004 2.852 3.57 1.833zm0 0" fill="#a8b4c7e5" fill-rule="evenodd"/><animateTransform attributeType="xml" attributeName="transform" type="rotate" from="0 360 360" to="360 360 360" dur="15s" additive="sum" repeatCount="indefinite" begin="oslo_aster_start.click" end="oslo_aster_stop.click"/></g><g xmlns="http://www.w3.org/2000/svg" transform="matrix(.64952 0 0 .64952 126.173 126.173)"><path d="M648.676 526.668l-1.149-.695-3.37-2.176-5.473-3.777-7.422-5.473-9.203-7.246-10.793-9.067-12.188-10.906-13.36-12.746-14.308-14.547-15.035-16.285-15.531-17.93-15.801-19.453-15.848-20.828-15.691-22.039-15.336-23.05-14.797-23.852-14.098-24.418-13.257-24.743-12.293-24.804-11.243-24.606-10.113-24.144-8.949-23.41-7.762-22.414-6.586-21.16-5.441-19.669-4.356-17.94-3.355-16.009-2.457-13.883-1.672-11.593-1.027-9.164-.535-6.625-.2-4.008-.027-1.34-.027 1.34-.2 4.008-.535 6.625-1.027 9.164-1.672 11.593-2.457 13.883-3.355 16.008-4.356 17.941-5.441 19.668-6.586 21.16-7.762 22.415-8.95 23.41-10.112 24.144-11.243 24.606-12.293 24.804-13.257 24.743-14.098 24.418-14.797 23.851-15.336 23.051-15.691 22.04-15.848 20.827-15.8 19.453-15.532 17.93-15.035 16.285-14.309 14.547-13.36 12.746-12.187 10.906-10.793 9.067-9.203 7.246-7.422 5.473-5.472 3.777-3.371 2.176-1.149.695 1.176-.648 3.57-1.832 6.004-2.852 8.453-3.691 10.875-4.344 13.25-4.817 15.54-5.097 17.718-5.2 19.754-5.12 21.617-4.876 23.293-4.488 24.746-3.957 25.97-3.308 26.929-2.57 27.629-1.755 28.054-.89h28.196l28.054.89 27.63 1.754 26.929 2.57 25.969 3.31 24.746 3.956 23.293 4.488 21.617 4.875 19.754 5.122 17.719 5.199 15.539 5.097 13.25 4.817 10.875 4.344 8.453 3.69 6.004 2.852 3.57 1.833zm0 0" fill="#859fcae5" fill-rule="evenodd"/><animateTransform attributeType="xml" attributeName="transform" type="rotate" from="0 360 360" to="360 360 360" dur="12s" additive="sum" repeatCount="indefinite" begin="oslo_aster_start.click" end="oslo_aster_stop.click"/></g><g xmlns="http://www.w3.org/2000/svg" transform="translate(157.5 157.5) scale(.5625)"><path d="M648.676 526.668l-1.149-.695-3.37-2.176-5.473-3.777-7.422-5.473-9.203-7.246-10.793-9.067-12.188-10.906-13.36-12.746-14.308-14.547-15.035-16.285-15.531-17.93-15.801-19.453-15.848-20.828-15.691-22.039-15.336-23.05-14.797-23.852-14.098-24.418-13.257-24.743-12.293-24.804-11.243-24.606-10.113-24.144-8.949-23.41-7.762-22.414-6.586-21.16-5.441-19.669-4.356-17.94-3.355-16.009-2.457-13.883-1.672-11.593-1.027-9.164-.535-6.625-.2-4.008-.027-1.34-.027 1.34-.2 4.008-.535 6.625-1.027 9.164-1.672 11.593-2.457 13.883-3.355 16.008-4.356 17.941-5.441 19.668-6.586 21.16-7.762 22.415-8.95 23.41-10.112 24.144-11.243 24.606-12.293 24.804-13.257 24.743-14.098 24.418-14.797 23.851-15.336 23.051-15.691 22.04-15.848 20.827-15.8 19.453-15.532 17.93-15.035 16.285-14.309 14.547-13.36 12.746-12.187 10.906-10.793 9.067-9.203 7.246-7.422 5.473-5.472 3.777-3.371 2.176-1.149.695 1.176-.648 3.57-1.832 6.004-2.852 8.453-3.691 10.875-4.344 13.25-4.817 15.54-5.097 17.718-5.2 19.754-5.12 21.617-4.876 23.293-4.488 24.746-3.957 25.97-3.308 26.929-2.57 27.629-1.755 28.054-.89h28.196l28.054.89 27.63 1.754 26.929 2.57 25.969 3.31 24.746 3.956 23.293 4.488 21.617 4.875 19.754 5.122 17.719 5.199 15.539 5.097 13.25 4.817 10.875 4.344 8.453 3.69 6.004 2.852 3.57 1.833zm0 0" fill="#6189cbe5" fill-rule="evenodd"/><animateTransform attributeType="xml" attributeName="transform" type="rotate" from="0 360 360" to="360 360 360" dur="10s" additive="sum" repeatCount="indefinite" begin="oslo_aster_start.click" end="oslo_aster_stop.click"/></g><g xmlns="http://www.w3.org/2000/svg" transform="matrix(.48714 0 0 .48714 184.63 184.63)"><path d="M648.676 526.668l-1.149-.695-3.37-2.176-5.473-3.777-7.422-5.473-9.203-7.246-10.793-9.067-12.188-10.906-13.36-12.746-14.308-14.547-15.035-16.285-15.531-17.93-15.801-19.453-15.848-20.828-15.691-22.039-15.336-23.05-14.797-23.852-14.098-24.418-13.257-24.743-12.293-24.804-11.243-24.606-10.113-24.144-8.949-23.41-7.762-22.414-6.586-21.16-5.441-19.669-4.356-17.94-3.355-16.009-2.457-13.883-1.672-11.593-1.027-9.164-.535-6.625-.2-4.008-.027-1.34-.027 1.34-.2 4.008-.535 6.625-1.027 9.164-1.672 11.593-2.457 13.883-3.355 16.008-4.356 17.941-5.441 19.668-6.586 21.16-7.762 22.415-8.95 23.41-10.112 24.144-11.243 24.606-12.293 24.804-13.257 24.743-14.098 24.418-14.797 23.851-15.336 23.051-15.691 22.04-15.848 20.827-15.8 19.453-15.532 17.93-15.035 16.285-14.309 14.547-13.36 12.746-12.187 10.906-10.793 9.067-9.203 7.246-7.422 5.473-5.472 3.777-3.371 2.176-1.149.695 1.176-.648 3.57-1.832 6.004-2.852 8.453-3.691 10.875-4.344 13.25-4.817 15.54-5.097 17.718-5.2 19.754-5.12 21.617-4.876 23.293-4.488 24.746-3.957 25.97-3.308 26.929-2.57 27.629-1.755 28.054-.89h28.196l28.054.89 27.63 1.754 26.929 2.57 25.969 3.31 24.746 3.956 23.293 4.488 21.617 4.875 19.754 5.122 17.719 5.199 15.539 5.097 13.25 4.817 10.875 4.344 8.453 3.69 6.004 2.852 3.57 1.833zm0 0" fill="#396db3e5" fill-rule="evenodd"/><animateTransform attributeType="xml" attributeName="transform" type="rotate" from="0 360 360" to="360 360 360" dur="8.57142857142857s" additive="sum" repeatCount="indefinite" begin="oslo_aster_start.click" end="oslo_aster_stop.click"/></g><g xmlns="http://www.w3.org/2000/svg" transform="matrix(.42188 0 0 .42188 208.125 208.125)"><path d="M648.676 526.668l-1.149-.695-3.37-2.176-5.473-3.777-7.422-5.473-9.203-7.246-10.793-9.067-12.188-10.906-13.36-12.746-14.308-14.547-15.035-16.285-15.531-17.93-15.801-19.453-15.848-20.828-15.691-22.039-15.336-23.05-14.797-23.852-14.098-24.418-13.257-24.743-12.293-24.804-11.243-24.606-10.113-24.144-8.949-23.41-7.762-22.414-6.586-21.16-5.441-19.669-4.356-17.94-3.355-16.009-2.457-13.883-1.672-11.593-1.027-9.164-.535-6.625-.2-4.008-.027-1.34-.027 1.34-.2 4.008-.535 6.625-1.027 9.164-1.672 11.593-2.457 13.883-3.355 16.008-4.356 17.941-5.441 19.668-6.586 21.16-7.762 22.415-8.95 23.41-10.112 24.144-11.243 24.606-12.293 24.804-13.257 24.743-14.098 24.418-14.797 23.851-15.336 23.051-15.691 22.04-15.848 20.827-15.8 19.453-15.532 17.93-15.035 16.285-14.309 14.547-13.36 12.746-12.187 10.906-10.793 9.067-9.203 7.246-7.422 5.473-5.472 3.777-3.371 2.176-1.149.695 1.176-.648 3.57-1.832 6.004-2.852 8.453-3.691 10.875-4.344 13.25-4.817 15.54-5.097 17.718-5.2 19.754-5.12 21.617-4.876 23.293-4.488 24.746-3.957 25.97-3.308 26.929-2.57 27.629-1.755 28.054-.89h28.196l28.054.89 27.63 1.754 26.929 2.57 25.969 3.31 24.746 3.956 23.293 4.488 21.617 4.875 19.754 5.122 17.719 5.199 15.539 5.097 13.25 4.817 10.875 4.344 8.453 3.69 6.004 2.852 3.57 1.833zm0 0" fill="#1f5284e5" fill-rule="evenodd"/><animateTransform attributeType="xml" attributeName="transform" type="rotate" from="0 360 360" to="360 360 360" dur="7.5s" additive="sum" repeatCount="indefinite" begin="oslo_aster_start.click" end="oslo_aster_stop.click"/></g><g xmlns="http://www.w3.org/2000/svg" transform="matrix(.36535 0 0 .36535 228.472 228.472)"><path d="M648.676 526.668l-1.149-.695-3.37-2.176-5.473-3.777-7.422-5.473-9.203-7.246-10.793-9.067-12.188-10.906-13.36-12.746-14.308-14.547-15.035-16.285-15.531-17.93-15.801-19.453-15.848-20.828-15.691-22.039-15.336-23.05-14.797-23.852-14.098-24.418-13.257-24.743-12.293-24.804-11.243-24.606-10.113-24.144-8.949-23.41-7.762-22.414-6.586-21.16-5.441-19.669-4.356-17.94-3.355-16.009-2.457-13.883-1.672-11.593-1.027-9.164-.535-6.625-.2-4.008-.027-1.34-.027 1.34-.2 4.008-.535 6.625-1.027 9.164-1.672 11.593-2.457 13.883-3.355 16.008-4.356 17.941-5.441 19.668-6.586 21.16-7.762 22.415-8.95 23.41-10.112 24.144-11.243 24.606-12.293 24.804-13.257 24.743-14.098 24.418-14.797 23.851-15.336 23.051-15.691 22.04-15.848 20.827-15.8 19.453-15.532 17.93-15.035 16.285-14.309 14.547-13.36 12.746-12.187 10.906-10.793 9.067-9.203 7.246-7.422 5.473-5.472 3.777-3.371 2.176-1.149.695 1.176-.648 3.57-1.832 6.004-2.852 8.453-3.691 10.875-4.344 13.25-4.817 15.54-5.097 17.718-5.2 19.754-5.12 21.617-4.876 23.293-4.488 24.746-3.957 25.97-3.308 26.929-2.57 27.629-1.755 28.054-.89h28.196l28.054.89 27.63 1.754 26.929 2.57 25.969 3.31 24.746 3.956 23.293 4.488 21.617 4.875 19.754 5.122 17.719 5.199 15.539 5.097 13.25 4.817 10.875 4.344 8.453 3.69 6.004 2.852 3.57 1.833zm0 0" fill="#133555e5" fill-rule="evenodd"/><animateTransform attributeType="xml" attributeName="transform" type="rotate" from="0 360 360" to="360 360 360" dur="6.66666666666667s" additive="sum" repeatCount="indefinite" begin="oslo_aster_start.click" end="oslo_aster_stop.click"/></g><g xmlns="http://www.w3.org/2000/svg" transform="matrix(.3164 0 0 .3164 246.094 246.094)"><path d="M648.676 526.668l-1.149-.695-3.37-2.176-5.473-3.777-7.422-5.473-9.203-7.246-10.793-9.067-12.188-10.906-13.36-12.746-14.308-14.547-15.035-16.285-15.531-17.93-15.801-19.453-15.848-20.828-15.691-22.039-15.336-23.05-14.797-23.852-14.098-24.418-13.257-24.743-12.293-24.804-11.243-24.606-10.113-24.144-8.949-23.41-7.762-22.414-6.586-21.16-5.441-19.669-4.356-17.94-3.355-16.009-2.457-13.883-1.672-11.593-1.027-9.164-.535-6.625-.2-4.008-.027-1.34-.027 1.34-.2 4.008-.535 6.625-1.027 9.164-1.672 11.593-2.457 13.883-3.355 16.008-4.356 17.941-5.441 19.668-6.586 21.16-7.762 22.415-8.95 23.41-10.112 24.144-11.243 24.606-12.293 24.804-13.257 24.743-14.098 24.418-14.797 23.851-15.336 23.051-15.691 22.04-15.848 20.827-15.8 19.453-15.532 17.93-15.035 16.285-14.309 14.547-13.36 12.746-12.187 10.906-10.793 9.067-9.203 7.246-7.422 5.473-5.472 3.777-3.371 2.176-1.149.695 1.176-.648 3.57-1.832 6.004-2.852 8.453-3.691 10.875-4.344 13.25-4.817 15.54-5.097 17.718-5.2 19.754-5.12 21.617-4.876 23.293-4.488 24.746-3.957 25.97-3.308 26.929-2.57 27.629-1.755 28.054-.89h28.196l28.054.89 27.63 1.754 26.929 2.57 25.969 3.31 24.746 3.956 23.293 4.488 21.617 4.875 19.754 5.122 17.719 5.199 15.539 5.097 13.25 4.817 10.875 4.344 8.453 3.69 6.004 2.852 3.57 1.833zm0 0" fill="#0b1b2be5" fill-rule="evenodd"/><animateTransform attributeType="xml" attributeName="transform" type="rotate" from="0 360 360" to="360 360 360" dur="6s" additive="sum" repeatCount="indefinite" begin="oslo_aster_start.click" end="oslo_aster_stop.click"/></g><g xmlns="http://www.w3.org/2000/svg" transform="matrix(.27402 0 0 .27402 261.354 261.354)"><path d="M648.676 526.668l-1.149-.695-3.37-2.176-5.473-3.777-7.422-5.473-9.203-7.246-10.793-9.067-12.188-10.906-13.36-12.746-14.308-14.547-15.035-16.285-15.531-17.93-15.801-19.453-15.848-20.828-15.691-22.039-15.336-23.05-14.797-23.852-14.098-24.418-13.257-24.743-12.293-24.804-11.243-24.606-10.113-24.144-8.949-23.41-7.762-22.414-6.586-21.16-5.441-19.669-4.356-17.94-3.355-16.009-2.457-13.883-1.672-11.593-1.027-9.164-.535-6.625-.2-4.008-.027-1.34-.027 1.34-.2 4.008-.535 6.625-1.027 9.164-1.672 11.593-2.457 13.883-3.355 16.008-4.356 17.941-5.441 19.668-6.586 21.16-7.762 22.415-8.95 23.41-10.112 24.144-11.243 24.606-12.293 24.804-13.257 24.743-14.098 24.418-14.797 23.851-15.336 23.051-15.691 22.04-15.848 20.827-15.8 19.453-15.532 17.93-15.035 16.285-14.309 14.547-13.36 12.746-12.187 10.906-10.793 9.067-9.203 7.246-7.422 5.473-5.472 3.777-3.371 2.176-1.149.695 1.176-.648 3.57-1.832 6.004-2.852 8.453-3.691 10.875-4.344 13.25-4.817 15.54-5.097 17.718-5.2 19.754-5.12 21.617-4.876 23.293-4.488 24.746-3.957 25.97-3.308 26.929-2.57 27.629-1.755 28.054-.89h28.196l28.054.89 27.63 1.754 26.929 2.57 25.969 3.31 24.746 3.956 23.293 4.488 21.617 4.875 19.754 5.122 17.719 5.199 15.539 5.097 13.25 4.817 10.875 4.344 8.453 3.69 6.004 2.852 3.57 1.833zm0 0" fill="#000000e5" fill-rule="evenodd"/><animateTransform attributeType="xml" attributeName="transform" type="rotate" from="0 360 360" to="360 360 360" dur="5.45454545454545s" additive="sum" repeatCount="indefinite" begin="oslo_aster_start.click" end="oslo_aster_stop.click"/></g></svg>