<svg xmlns="http://www.w3.org/2000/svg" width="960" height="960" viewBox="0 0 720 720"><rect rx="0%" ry="0%" width="100%" height="100%" fill="#108998ff"/><g fill="none" stroke-width="3.75" stroke-linecap="round" stroke-miterlimit="10"><path d="M360 26.668L693.332 360" stroke="#006b6b"/><path d="M361.676 28.34L689.984 360" stroke="#fff"/><path d="M363.352 30.016L686.632 360M365.023 31.691L683.281 360M366.7 33.367L679.933 360" stroke="#000"/><path d="M368.375 35.043L676.582 360" stroke="#006b6b"/><path d="M370.05 36.719L673.235 360" stroke="#fff"/><path d="M371.727 38.39L669.883 360M373.398 40.066L666.531 360M375.074 41.742L663.184 360" stroke="#000"/><path d="M376.75 43.418L659.832 360" stroke="#006b6b"/><path d="M378.426 45.094L656.48 360" stroke="#fff"/><path d="M380.102 46.766L653.132 360M381.777 48.441L649.781 360M383.45 50.117L646.433 360" stroke="#000"/><path d="M385.125 51.793L643.082 360" stroke="#006b6b"/><path d="M386.8 53.469L639.73 360" stroke="#fff"/><path d="M388.477 55.14L636.383 360M390.152 56.816L633.032 360M391.824 58.492L629.684 360" stroke="#000"/><path d="M393.5 60.168L626.332 360" stroke="#006b6b"/><path d="M395.176 61.844L622.98 360" stroke="#fff"/><path d="M396.852 63.52L619.632 360M398.527 65.191L616.281 360M400.2 66.867L612.93 360" stroke="#000"/><path d="M401.875 68.543L609.582 360" stroke="#006b6b"/><path d="M403.55 70.219L606.23 360" stroke="#fff"/><path d="M405.227 71.895L602.883 360M406.902 73.566L599.532 360M408.578 75.242L596.18 360" stroke="#000"/><path d="M410.25 76.918L592.832 360" stroke="#006b6b"/><path d="M411.926 78.594L589.48 360" stroke="#fff"/><path d="M413.602 80.27L586.129 360M415.277 81.941L582.781 360M416.953 83.617L579.43 360" stroke="#000"/><path d="M418.625 85.293L576.082 360" stroke="#006b6b"/><path d="M420.3 86.969L572.73 360" stroke="#fff"/><path d="M421.977 88.645L569.379 360M423.652 90.316L566.032 360M425.328 91.992L562.68 360" stroke="#000"/><path d="M427 93.668L559.328 360" stroke="#006b6b"/><path d="M428.676 95.344L555.98 360" stroke="#fff"/><path d="M430.352 97.02L552.629 360M432.027 98.695L549.281 360M433.703 100.367L545.93 360" stroke="#000"/><path d="M435.375 102.043L542.578 360" stroke="#006b6b"/><path d="M437.05 103.719L539.23 360" stroke="#fff"/><path d="M438.727 105.395L535.879 360M440.402 107.07L532.532 360M442.078 108.742L529.18 360" stroke="#000"/><path d="M443.754 110.418L525.828 360" stroke="#006b6b"/><path d="M445.426 112.094L522.48 360" stroke="#fff"/><path d="M447.102 113.77L519.129 360M448.777 115.445l67 244.555M450.453 117.117L512.43 360" stroke="#000"/><path d="M452.129 118.793L509.079 360" stroke="#006b6b"/><path d="M453.8 120.469L505.73 360" stroke="#fff"/><path d="M455.477 122.145L502.379 360M457.152 123.82L499.027 360M458.828 125.492L495.68 360" stroke="#000"/><path d="M460.504 127.168L492.328 360" stroke="#006b6b"/><path d="M462.176 128.844L488.976 360" stroke="#fff"/><path d="M463.852 130.52L485.629 360M465.527 132.195L482.277 360M467.203 133.871L478.93 360" stroke="#000"/><path d="M468.879 135.543l6.7 224.457" stroke="#006b6b"/><path d="M470.555 137.219L472.227 360" stroke="#fff"/><path d="M472.227 138.895L468.879 360M473.902 140.57L465.527 360M475.578 142.246L462.176 360" stroke="#000"/><path d="M477.254 143.918L458.828 360" stroke="#006b6b"/><path d="M478.93 145.594L455.477 360" stroke="#fff"/><path d="M480.602 147.27L452.129 360M482.277 148.945L448.777 360M483.953 150.621L445.426 360" stroke="#000"/><path d="M485.629 152.293L442.079 360" stroke="#006b6b"/><path d="M487.305 153.969L438.727 360" stroke="#fff"/><path d="M488.977 155.645L435.375 360M490.652 157.32L432.027 360M492.328 158.996L428.676 360" stroke="#000"/><path d="M494.004 160.672L425.328 360" stroke="#006b6b"/><path d="M495.68 162.344L421.977 360" stroke="#fff"/><path d="M497.352 164.02L418.625 360M499.027 165.695L415.277 360M500.703 167.371L411.926 360" stroke="#000"/><path d="M502.379 169.047L408.579 360" stroke="#006b6b"/><path d="M504.055 170.719L405.227 360" stroke="#fff"/><path d="M505.73 172.395L401.875 360M507.402 174.07L398.527 360M509.078 175.746L395.176 360" stroke="#000"/><path d="M510.754 177.422L391.824 360" stroke="#006b6b"/><path d="M512.43 179.094L388.477 360" stroke="#fff"/><path d="M514.105 180.77L385.125 360M515.777 182.445L381.777 360M517.453 184.121L378.426 360" stroke="#000"/><path d="M519.129 185.797L375.074 360" stroke="#006b6b"/><path d="M520.805 187.469L371.727 360" stroke="#fff"/><path d="M522.48 189.145L368.375 360M524.152 190.82L365.023 360M525.828 192.496L361.676 360" stroke="#000"/><path d="M527.504 194.172L358.324 360" stroke="#006b6b"/><path d="M529.18 195.848L354.977 360" stroke="#fff"/><path d="M530.855 197.52L351.625 360M532.531 199.195L348.273 360M534.203 200.871L344.926 360" stroke="#000"/><path d="M535.879 202.547L341.574 360" stroke="#006b6b"/><path d="M537.555 204.223L338.223 360" stroke="#fff"/><path d="M539.23 205.895L334.875 360M540.906 207.57L331.523 360M542.578 209.246L328.176 360" stroke="#000"/><path d="M544.254 210.922L324.824 360" stroke="#006b6b"/><path d="M545.93 212.598L321.473 360" stroke="#fff"/><path d="M547.605 214.27L318.125 360M549.281 215.945L314.773 360M550.953 217.621L311.422 360" stroke="#000"/><path d="M552.629 219.297L308.074 360" stroke="#006b6b"/><path d="M554.305 220.973L304.723 360" stroke="#fff"/><path d="M555.98 222.648L301.375 360M557.656 224.32L298.023 360M559.328 225.996L294.672 360" stroke="#000"/><path d="M561.004 227.672L291.324 360" stroke="#006b6b"/><path d="M562.68 229.348L287.973 360" stroke="#fff"/><path d="M564.355 231.023L284.625 360M566.031 232.695L281.273 360M567.707 234.371L277.922 360" stroke="#000"/><path d="M569.379 236.047L274.574 360" stroke="#006b6b"/><path d="M571.055 237.723L271.223 360" stroke="#fff"/><path d="M572.73 239.398L267.871 360M574.406 241.07L264.523 360M576.082 242.746L261.172 360" stroke="#000"/><path d="M577.754 244.422L257.824 360" stroke="#006b6b"/><path d="M579.43 246.098L254.473 360" stroke="#fff"/><path d="M581.105 247.773L251.121 360M582.781 249.445L247.773 360M584.457 251.121L244.422 360" stroke="#000"/><path d="M586.129 252.797L241.07 360" stroke="#006b6b"/><path d="M587.805 254.473L237.723 360" stroke="#fff"/><path d="M589.48 256.148L234.371 360M591.156 257.824L231.023 360M592.832 259.496L227.672 360" stroke="#000"/><path d="M594.508 261.172L224.32 360" stroke="#006b6b"/><path d="M596.18 262.848L220.973 360" stroke="#fff"/><path d="M597.855 264.523L217.621 360M599.531 266.2L214.27 360M601.207 267.871L210.922 360" stroke="#000"/><path d="M602.883 269.547L207.57 360" stroke="#006b6b"/><path d="M604.555 271.223L204.223 360" stroke="#fff"/><path d="M606.23 272.898L200.871 360M607.906 274.574L197.52 360M609.582 276.246L194.172 360" stroke="#000"/><path d="M611.258 277.922L190.82 360" stroke="#006b6b"/><path d="M612.93 279.598L187.469 360" stroke="#fff"/><path d="M614.605 281.273L184.121 360M616.281 282.95L180.77 360M617.957 284.625L177.422 360" stroke="#000"/><path d="M619.633 286.297L174.07 360" stroke="#006b6b"/><path d="M621.305 287.973L170.719 360" stroke="#fff"/><path d="M622.98 289.648L167.371 360M624.656 291.324L164.02 360M626.332 293l-465.66 67" stroke="#000"/><path d="M628.008 294.672L157.32 360" stroke="#006b6b"/><path d="M629.684 296.348L153.969 360" stroke="#fff"/><path d="M631.355 298.023L150.621 360M633.031 299.7L147.27 360M634.707 301.375L143.918 360" stroke="#000"/><path d="M636.383 303.047L140.57 360" stroke="#006b6b"/><path d="M638.059 304.723L137.219 360" stroke="#fff"/><path d="M639.73 306.398L133.871 360M641.406 308.074L130.52 360M643.082 309.75L127.168 360" stroke="#000"/><path d="M644.758 311.422L123.82 360" stroke="#006b6b"/><path d="M646.434 313.098L120.469 360" stroke="#fff"/><path d="M648.105 314.773L117.117 360M649.781 316.45L113.77 360M651.457 318.125L110.418 360" stroke="#000"/><path d="M653.133 319.8L107.07 360" stroke="#006b6b"/><path d="M654.809 321.473L103.719 360" stroke="#fff"/><path d="M656.48 323.148L100.367 360M658.156 324.824L97.02 360M659.832 326.5L93.668 360" stroke="#000"/><path d="M661.508 328.176L90.316 360" stroke="#006b6b"/><path d="M663.184 329.848L86.969 360" stroke="#fff"/><path d="M664.86 331.523L83.616 360M666.531 333.2L80.27 360M668.207 334.875L76.918 360" stroke="#000"/><path d="M669.883 336.55L73.566 360" stroke="#006b6b"/><path d="M671.559 338.223L70.219 360" stroke="#fff"/><path d="M673.234 339.898L66.867 360M674.906 341.574L63.52 360M676.582 343.25L60.168 360" stroke="#000"/><path d="M678.258 344.926L56.816 360" stroke="#006b6b"/><path d="M679.934 346.602L53.469 360" stroke="#fff"/><path d="M681.61 348.273L50.116 360M683.281 349.95L46.766 360M684.957 351.625L43.418 360" stroke="#000"/><path d="M686.633 353.3L40.066 360" stroke="#006b6b"/><path d="M688.309 354.977L36.719 360" stroke="#fff"/><path d="M689.984 356.648L33.367 360M691.66 358.324L30.016 360M693.332 360H26.668" stroke="#000"/><path d="M26.668 360L360 26.668" stroke="#006b6b"/><path d="M28.34 358.324L361.676 28.34" stroke="#fff"/><path d="M30.016 356.648L363.352 30.016M31.691 354.977L365.023 31.69M33.367 353.3L366.7 33.368" stroke="#000"/><path d="M35.043 351.625L368.375 35.043" stroke="#006b6b"/><path d="M36.719 349.95L370.05 36.718" stroke="#fff"/><path d="M38.39 348.273L371.728 38.391M40.066 346.602L373.398 40.066M41.742 344.926L375.074 41.742" stroke="#000"/><path d="M43.418 343.25L376.75 43.418" stroke="#006b6b"/><path d="M45.094 341.574l333.332-296.48" stroke="#fff"/><path d="M46.766 339.898L380.102 46.766M48.441 338.223L381.777 48.44M50.117 336.55L383.45 50.118" stroke="#000"/><path d="M51.793 334.875L385.125 51.793" stroke="#006b6b"/><path d="M53.469 333.2L386.8 53.468" stroke="#fff"/><path d="M55.14 331.523L388.478 55.141M56.816 329.848L390.152 56.816M58.492 328.176L391.824 58.492" stroke="#000"/><path d="M60.168 326.5L393.5 60.168" stroke="#006b6b"/><path d="M61.844 324.824l333.332-262.98" stroke="#fff"/><path d="M63.52 323.148L396.852 63.52M65.191 321.473L398.527 65.19M66.867 319.8L400.2 66.868" stroke="#000"/><path d="M68.543 318.125L401.875 68.543" stroke="#006b6b"/><path d="M70.219 316.45L403.55 70.218" stroke="#fff"/><path d="M71.895 314.773L405.227 71.895M73.566 313.098L406.902 73.566M75.242 311.422l333.336-236.18" stroke="#000"/><path d="M76.918 309.75L410.25 76.918" stroke="#006b6b"/><path d="M78.594 308.074l333.332-229.48" stroke="#fff"/><path d="M80.27 306.398L413.602 80.27M81.941 304.723L415.277 81.94M83.617 303.047l333.336-219.43" stroke="#000"/><path d="M85.293 301.375L418.625 85.293" stroke="#006b6b"/><path d="M86.969 299.7L420.3 86.968" stroke="#fff"/><path d="M88.645 298.023L421.977 88.645M90.316 296.348L423.652 90.316M91.992 294.672l333.336-202.68" stroke="#000"/><path d="M93.668 293L427 93.668" stroke="#006b6b"/><path d="M95.344 291.324l333.332-195.98" stroke="#fff"/><path d="M97.02 289.648L430.352 97.02M98.695 287.973L432.027 98.695M100.367 286.297l333.336-185.93" stroke="#000"/><path d="M102.043 284.625l333.332-182.582" stroke="#006b6b"/><path d="M103.719 282.95L437.05 103.718" stroke="#fff"/><path d="M105.395 281.273l333.332-175.878M107.07 279.598L440.402 107.07M108.742 277.922l333.336-169.18" stroke="#000"/><path d="M110.418 276.246l333.336-165.828" stroke="#006b6b"/><path d="M112.094 274.574l333.332-162.48" stroke="#fff"/><path d="M113.77 272.898L447.102 113.77M115.445 271.223l333.332-155.778M117.117 269.547l333.336-152.43" stroke="#000"/><path d="M118.793 267.871l333.336-149.078" stroke="#006b6b"/><path d="M120.469 266.2L453.8 120.468" stroke="#fff"/><path d="M122.145 264.523l333.332-142.378M123.82 262.848L457.152 123.82M125.492 261.172l333.336-135.68" stroke="#000"/><path d="M127.168 259.496l333.336-132.328" stroke="#006b6b"/><path d="M128.844 257.824l333.332-128.98" stroke="#fff"/><path d="M130.52 256.148L463.852 130.52M132.195 254.473l333.332-122.278M133.871 252.797L467.203 133.87" stroke="#000"/><path d="M135.543 251.121l333.336-115.578" stroke="#006b6b"/><path d="M137.219 249.445L470.555 137.22" stroke="#fff"/><path d="M138.895 247.773l333.332-108.878M140.57 246.098L473.902 140.57M142.246 244.422l333.332-102.176" stroke="#000"/><path d="M143.918 242.746l333.336-98.828" stroke="#006b6b"/><path d="M145.594 241.07l333.336-95.476" stroke="#fff"/><path d="M147.27 239.398l333.332-92.128M148.945 237.723l333.332-88.778M150.621 236.047l333.332-85.426" stroke="#000"/><path d="M152.293 234.371l333.336-82.078" stroke="#006b6b"/><path d="M153.969 232.695l333.336-78.726" stroke="#fff"/><path d="M155.645 231.023l333.332-75.378M157.32 229.348l333.332-72.028M158.996 227.672l333.332-68.676" stroke="#000"/><path d="M160.672 225.996l333.332-65.324" stroke="#006b6b"/><path d="M162.344 224.32l333.336-61.976" stroke="#fff"/><path d="M164.02 222.648l333.332-58.628M165.695 220.973l333.332-55.278M167.371 219.297l333.332-51.926" stroke="#000"/><path d="M169.047 217.621l333.332-48.574" stroke="#006b6b"/><path d="M170.719 215.945l333.336-45.226" stroke="#fff"/><path d="M172.395 214.27l333.335-41.875M174.07 212.598l333.332-38.528M175.746 210.922l333.332-35.176" stroke="#000"/><path d="M177.422 209.246l333.332-31.824" stroke="#006b6b"/><path d="M179.094 207.57l333.336-28.476" stroke="#fff"/><path d="M180.77 205.895l333.335-25.125M182.445 204.223l333.332-21.778M184.121 202.547l333.332-18.426" stroke="#000"/><path d="M185.797 200.871l333.332-15.074" stroke="#006b6b"/><path d="M187.469 199.195l333.336-11.726" stroke="#fff"/><path d="M189.145 197.52l333.335-8.375M190.82 195.848l333.332-5.028M192.496 194.172l333.332-1.676" stroke="#000"/><path d="M194.172 192.496l333.332 1.676" stroke="#006b6b"/><path d="M195.848 190.82l333.332 5.028" stroke="#fff"/><path d="M197.52 189.145l333.335 8.375M199.195 187.469l333.336 11.726M200.871 185.797l333.332 15.074" stroke="#000"/><path d="M202.547 184.121l333.332 18.426" stroke="#006b6b"/><path d="M204.223 182.445l333.332 21.778" stroke="#fff"/><path d="M205.895 180.77l333.335 25.125M207.57 179.094l333.336 28.476M209.246 177.422l333.332 31.824" stroke="#000"/><path d="M210.922 175.746l333.332 35.176" stroke="#006b6b"/><path d="M212.598 174.07l333.332 38.528" stroke="#fff"/><path d="M214.27 172.395l333.335 41.875M215.945 170.719l333.336 45.226M217.621 169.047l333.332 48.574" stroke="#000"/><path d="M219.297 167.371l333.332 51.926" stroke="#006b6b"/><path d="M220.973 165.695l333.332 55.278" stroke="#fff"/><path d="M222.648 164.02l333.332 58.628M224.32 162.344l333.336 61.976M225.996 160.672l333.332 65.324" stroke="#000"/><path d="M227.672 158.996l333.332 68.676" stroke="#006b6b"/><path d="M229.348 157.32l333.332 72.028" stroke="#fff"/><path d="M231.023 155.645l333.332 75.378M232.695 153.969l333.336 78.726M234.371 152.293l333.336 82.078" stroke="#000"/><path d="M236.047 150.621l333.332 85.426" stroke="#006b6b"/><path d="M237.723 148.945l333.332 88.778" stroke="#fff"/><path d="M239.398 147.27l333.332 92.128M241.07 145.594l333.336 95.476M242.746 143.918l333.336 98.828" stroke="#000"/><path d="M244.422 142.246l333.332 102.176" stroke="#006b6b"/><path d="M246.098 140.57L579.43 246.098" stroke="#fff"/><path d="M247.773 138.895l333.332 108.878M249.445 137.219l333.336 112.226M251.121 135.543l333.336 115.578" stroke="#000"/><path d="M252.797 133.871l333.332 118.926" stroke="#006b6b"/><path d="M254.473 132.195l333.332 122.278" stroke="#fff"/><path d="M256.148 130.52L589.48 256.148M257.824 128.844l333.332 128.98M259.496 127.168l333.336 132.328" stroke="#000"/><path d="M261.172 125.492l333.336 135.68" stroke="#006b6b"/><path d="M262.848 123.82L596.18 262.848" stroke="#fff"/><path d="M264.523 122.145l333.332 142.378M266.2 120.469l333.331 145.73M267.871 118.793l333.336 149.078" stroke="#000"/><path d="M269.547 117.117l333.336 152.43" stroke="#006b6b"/><path d="M271.223 115.445l333.332 155.778" stroke="#fff"/><path d="M272.898 113.77L606.23 272.898M274.574 112.094l333.332 162.48M276.246 110.418l333.336 165.828" stroke="#000"/><path d="M277.922 108.742l333.336 169.18" stroke="#006b6b"/><path d="M279.598 107.07L612.93 279.598" stroke="#fff"/><path d="M281.273 105.395l333.332 175.878M282.95 103.719l333.331 179.23M284.625 102.043l333.332 182.582" stroke="#000"/><path d="M286.297 100.367l333.336 185.93" stroke="#006b6b"/><path d="M287.973 98.695l333.332 189.278" stroke="#fff"/><path d="M289.648 97.02L622.98 289.648M291.324 95.344l333.332 195.98M293 93.668L626.332 293" stroke="#000"/><path d="M294.672 91.992l333.336 202.68" stroke="#006b6b"/><path d="M296.348 90.316l333.336 206.032" stroke="#fff"/><path d="M298.023 88.645l333.332 209.378M299.7 86.969l333.331 212.73M301.375 85.293l333.332 216.082" stroke="#000"/><path d="M303.047 83.617l333.336 219.43" stroke="#006b6b"/><path d="M304.723 81.941l333.336 222.782" stroke="#fff"/><path d="M306.398 80.27L639.73 306.398M308.074 78.594l333.332 229.48M309.75 76.918L643.082 309.75" stroke="#000"/><path d="M311.422 75.242l333.336 236.18" stroke="#006b6b"/><path d="M313.098 73.566l333.336 239.532" stroke="#fff"/><path d="M314.773 71.895l333.332 242.878M316.45 70.219l333.331 246.23M318.125 68.543l333.332 249.582" stroke="#000"/><path d="M319.8 66.867l333.333 252.934" stroke="#006b6b"/><path d="M321.473 65.191l333.336 256.282" stroke="#fff"/><path d="M323.148 63.52L656.48 323.148M324.824 61.844l333.332 262.98M326.5 60.168L659.832 326.5" stroke="#000"/><path d="M328.176 58.492l333.332 269.684" stroke="#006b6b"/><path d="M329.848 56.816l333.336 273.032" stroke="#fff"/><path d="M331.523 55.14L664.86 331.524M333.2 53.469l333.331 279.73M334.875 51.793l333.332 283.082" stroke="#000"/><path d="M336.55 50.117l333.333 286.434" stroke="#006b6b"/><path d="M338.223 48.441l333.336 289.782" stroke="#fff"/><path d="M339.898 46.766l333.336 293.132M341.574 45.094l333.332 296.48M343.25 43.418L676.582 343.25" stroke="#000"/><path d="M344.926 41.742l333.332 303.184" stroke="#006b6b"/><path d="M346.602 40.066l333.332 306.536" stroke="#fff"/><path d="M348.273 38.39L681.61 348.274M349.95 36.719l333.331 313.23M351.625 35.043l333.332 316.582" stroke="#000"/><path d="M353.3 33.367l333.333 319.934" stroke="#006b6b"/><path d="M354.977 31.691l333.332 323.286" stroke="#fff"/><path d="M356.648 30.016l333.336 326.632M358.324 28.34L691.66 358.324M360 26.668L693.332 360" stroke="#000"/><path d="M693.332 360H26.668" stroke="#006b6b"/><path d="M689.984 360L28.34 358.324" stroke="#fff"/><path d="M686.633 360l-656.617-3.352M683.281 360l-651.59-5.023M679.934 360l-646.567-6.7" stroke="#000"/><path d="M676.582 360l-641.539-8.375" stroke="#006b6b"/><path d="M673.234 360L36.72 349.95" stroke="#fff"/><path d="M669.883 360L38.39 348.273M666.531 360L40.066 346.602M663.184 360L41.742 344.926" stroke="#000"/><path d="M659.832 360L43.418 343.25" stroke="#006b6b"/><path d="M656.48 360L45.094 341.574" stroke="#fff"/><path d="M653.133 360L46.766 339.898M649.781 360l-601.34-21.777M646.434 360L50.117 336.55" stroke="#000"/><path d="M643.082 360L51.793 334.875" stroke="#006b6b"/><path d="M639.73 360L53.47 333.2" stroke="#fff"/><path d="M636.383 360L55.14 331.523M633.031 360L56.816 329.848M629.684 360L58.492 328.176" stroke="#000"/><path d="M626.332 360L60.168 326.5" stroke="#006b6b"/><path d="M622.98 360L61.844 324.824" stroke="#fff"/><path d="M619.633 360L63.52 323.148M616.281 360l-551.09-38.527M612.93 360L66.867 319.8" stroke="#000"/><path d="M609.582 360L68.543 318.125" stroke="#006b6b"/><path d="M606.23 360L70.22 316.45" stroke="#fff"/><path d="M602.883 360L71.895 314.773M599.531 360L73.566 313.098M596.18 360L75.242 311.422" stroke="#000"/><path d="M592.832 360L76.918 309.75" stroke="#006b6b"/><path d="M589.48 360L78.594 308.074" stroke="#fff"/><path d="M586.129 360l-505.86-53.602M582.781 360l-500.84-55.277M579.43 360L83.617 303.047" stroke="#000"/><path d="M576.082 360L85.293 301.375" stroke="#006b6b"/><path d="M572.73 360L86.97 299.7" stroke="#fff"/><path d="M569.379 360L88.645 298.023M566.031 360L90.316 296.348M562.68 360L91.992 294.672" stroke="#000"/><path d="M559.328 360l-465.66-67" stroke="#006b6b"/><path d="M555.98 360L95.344 291.324" stroke="#fff"/><path d="M552.629 360l-455.61-70.352M549.281 360L98.695 287.973M545.93 360l-445.563-73.703" stroke="#000"/><path d="M542.578 360l-440.535-75.375" stroke="#006b6b"/><path d="M539.23 360L103.72 282.95" stroke="#fff"/><path d="M535.879 360l-430.484-78.727M532.531 360l-425.46-80.402M529.18 360l-420.438-82.078" stroke="#000"/><path d="M525.828 360l-415.41-83.754" stroke="#006b6b"/><path d="M522.48 360l-410.386-85.426" stroke="#fff"/><path d="M519.129 360l-405.36-87.102M515.777 360l-400.332-88.777M512.43 360l-395.313-90.453" stroke="#000"/><path d="M509.078 360l-390.285-92.129" stroke="#006b6b"/><path d="M505.73 360L120.47 266.2" stroke="#fff"/><path d="M502.379 360l-380.234-95.477M499.027 360L123.82 262.848M495.68 360l-370.188-98.828" stroke="#000"/><path d="M492.328 360l-365.16-100.504" stroke="#006b6b"/><path d="M488.977 360L128.844 257.824" stroke="#fff"/><path d="M485.629 360l-355.11-103.852M482.277 360L132.195 254.473M478.93 360L133.87 252.797" stroke="#000"/><path d="M475.578 360L135.543 251.121" stroke="#006b6b"/><path d="M472.227 360L137.219 249.445" stroke="#fff"/><path d="M468.879 360L138.895 247.773M465.527 360L140.57 246.098M462.176 360l-319.93-115.578" stroke="#000"/><path d="M458.828 360l-314.91-117.254" stroke="#006b6b"/><path d="M455.477 360L145.594 241.07" stroke="#fff"/><path d="M452.129 360l-304.86-120.602M448.777 360L148.945 237.723M445.426 360L150.62 236.047" stroke="#000"/><path d="M442.078 360L152.293 234.371" stroke="#006b6b"/><path d="M438.727 360L153.969 232.695" stroke="#fff"/><path d="M435.375 360l-279.73-128.977M432.027 360L157.32 229.348M428.676 360l-269.68-132.328" stroke="#000"/><path d="M425.328 360L160.672 225.996" stroke="#006b6b"/><path d="M421.977 360L162.344 224.32" stroke="#fff"/><path d="M418.625 360L164.02 222.648M415.277 360L165.695 220.973M411.926 360L167.37 219.297" stroke="#000"/><path d="M408.578 360L169.047 217.621" stroke="#006b6b"/><path d="M405.227 360L170.719 215.945" stroke="#fff"/><path d="M401.875 360l-229.48-145.73M398.527 360L174.07 212.598M395.176 360l-219.43-149.078" stroke="#000"/><path d="M391.824 360L177.422 209.246" stroke="#006b6b"/><path d="M388.477 360L179.094 207.57" stroke="#fff"/><path d="M385.125 360L180.77 205.895M381.777 360L182.445 204.223M378.426 360L184.12 202.547" stroke="#000"/><path d="M375.074 360L185.797 200.871" stroke="#006b6b"/><path d="M371.727 360L187.469 199.195" stroke="#fff"/><path d="M368.375 360l-179.23-162.48M365.023 360L190.82 195.848M361.676 360l-169.18-165.828" stroke="#000"/><path d="M358.324 360L194.172 192.496" stroke="#006b6b"/><path d="M354.977 360l-159.13-169.18" stroke="#fff"/><path d="M351.625 360L197.52 189.145M348.273 360L199.195 187.469M344.926 360L200.87 185.797" stroke="#000"/><path d="M341.574 360L202.547 184.121" stroke="#006b6b"/><path d="M338.223 360l-134-177.555" stroke="#fff"/><path d="M334.875 360l-128.98-179.23M331.523 360L207.57 179.094M328.176 360l-118.93-182.578" stroke="#000"/><path d="M324.824 360L210.922 175.746" stroke="#006b6b"/><path d="M321.473 360L212.598 174.07" stroke="#fff"/><path d="M318.125 360L214.27 172.395M314.773 360l-98.828-189.281M311.422 360l-93.8-190.953" stroke="#000"/><path d="M308.074 360l-88.777-192.629" stroke="#006b6b"/><path d="M304.723 360l-83.75-194.305" stroke="#fff"/><path d="M301.375 360l-78.727-195.98M298.023 360L224.32 162.344M294.672 360l-68.676-199.328" stroke="#000"/><path d="M291.324 360l-63.652-201.004" stroke="#006b6b"/><path d="M287.973 360l-58.625-202.68" stroke="#fff"/><path d="M284.625 360l-53.602-204.355M281.273 360l-48.578-206.031M277.922 360l-43.55-207.707" stroke="#000"/><path d="M274.574 360l-38.527-209.379" stroke="#006b6b"/><path d="M271.223 360l-33.5-211.055" stroke="#fff"/><path d="M267.871 360l-28.473-212.73M264.523 360L241.07 145.594M261.172 360l-18.426-216.082" stroke="#000"/><path d="M257.824 360l-13.402-217.754" stroke="#006b6b"/><path d="M254.473 360l-8.375-219.43" stroke="#fff"/><path d="M251.121 360l-3.348-221.105M247.773 360l1.672-222.781M244.422 360l6.7-224.457" stroke="#000"/><path d="M241.07 360l11.727-226.129" stroke="#006b6b"/><path d="M237.723 360l16.75-227.805" stroke="#fff"/><path d="M234.371 360l21.777-229.48M231.023 360l26.801-231.156M227.672 360l31.824-232.832" stroke="#000"/><path d="M224.32 360l36.852-234.508" stroke="#006b6b"/><path d="M220.973 360l41.875-236.18" stroke="#fff"/><path d="M217.621 360l46.902-237.855M214.27 360l51.93-239.531M210.922 360l56.95-241.207" stroke="#000"/><path d="M207.57 360l61.977-242.883" stroke="#006b6b"/><path d="M204.223 360l67-244.555" stroke="#fff"/><path d="M200.871 360l72.027-246.23M197.52 360l77.054-247.906M194.172 360l82.074-249.582" stroke="#000"/><path d="M190.82 360l87.102-251.258" stroke="#006b6b"/><path d="M187.469 360l92.129-252.93" stroke="#fff"/><path d="M184.121 360l97.152-254.605M180.77 360l102.18-256.281M177.422 360l107.203-257.957" stroke="#000"/><path d="M174.07 360l112.227-259.633" stroke="#006b6b"/><path d="M170.719 360L287.973 98.695" stroke="#fff"/><path d="M167.371 360L289.648 97.02M164.02 360L291.324 95.344M160.672 360L293 93.668" stroke="#000"/><path d="M157.32 360L294.672 91.992" stroke="#006b6b"/><path d="M153.969 360L296.348 90.316" stroke="#fff"/><path d="M150.621 360L298.023 88.645M147.27 360L299.7 86.969M143.918 360L301.375 85.293" stroke="#000"/><path d="M140.57 360L303.047 83.617" stroke="#006b6b"/><path d="M137.219 360L304.723 81.941" stroke="#fff"/><path d="M133.871 360L306.398 80.27M130.52 360L308.074 78.594M127.168 360L309.75 76.918" stroke="#000"/><path d="M123.82 360L311.422 75.242" stroke="#006b6b"/><path d="M120.469 360L313.098 73.566" stroke="#fff"/><path d="M117.117 360L314.773 71.895M113.77 360L316.45 70.219M110.418 360L318.125 68.543" stroke="#000"/><path d="M107.07 360L319.8 66.867" stroke="#006b6b"/><path d="M103.719 360L321.473 65.191" stroke="#fff"/><path d="M100.367 360L323.148 63.52M97.02 360L324.824 61.844M93.668 360L326.5 60.168" stroke="#000"/><path d="M90.316 360l237.86-301.508" stroke="#006b6b"/><path d="M86.969 360L329.848 56.816" stroke="#fff"/><path d="M83.617 360L331.523 55.14M80.27 360L333.2 53.469M76.918 360L334.875 51.793" stroke="#000"/><path d="M73.566 360L336.551 50.117" stroke="#006b6b"/><path d="M70.219 360L338.223 48.441" stroke="#fff"/><path d="M66.867 360L339.898 46.766M63.52 360L341.574 45.094M60.168 360L343.25 43.418" stroke="#000"/><path d="M56.816 360l288.11-318.258" stroke="#006b6b"/><path d="M53.469 360L346.602 40.066" stroke="#fff"/><path d="M50.117 360L348.273 38.39M46.766 360L349.949 36.719M43.418 360L351.625 35.043" stroke="#000"/><path d="M40.066 360L353.301 33.367" stroke="#006b6b"/><path d="M36.719 360L354.977 31.691" stroke="#fff"/><path d="M33.367 360L356.648 30.016M30.016 360L358.324 28.34M26.668 360L360 26.668" stroke="#000"/><path d="M26.668 360h666.664" stroke="#006b6b"/><path d="M30.016 360h659.968" stroke="#fff"/><path d="M33.367 360h653.266M36.719 360H683.28M40.066 360h639.868" stroke="#000"/><path d="M43.418 360h633.164" stroke="#006b6b"/><path d="M46.766 360h626.468" stroke="#fff"/><path d="M50.117 360h619.766M53.469 360H666.53M56.816 360h606.368" stroke="#000"/><path d="M60.168 360h599.664" stroke="#006b6b"/><path d="M63.52 360h592.96" stroke="#fff"/><path d="M66.867 360h586.266M70.219 360H649.78M73.566 360h572.868" stroke="#000"/><path d="M76.918 360h566.164" stroke="#006b6b"/><path d="M80.27 360h559.46" stroke="#fff"/><path d="M83.617 360h552.766M86.969 360H633.03M90.316 360h539.368" stroke="#000"/><path d="M93.668 360h532.664" stroke="#006b6b"/><path d="M97.02 360h525.96" stroke="#fff"/><path d="M100.367 360h519.266M103.719 360H616.28M107.07 360h505.86" stroke="#000"/><path d="M110.418 360h499.164" stroke="#006b6b"/><path d="M113.77 360h492.46" stroke="#fff"/><path d="M117.117 360h485.766M120.469 360H599.53M123.82 360h472.36" stroke="#000"/><path d="M127.168 360h465.664" stroke="#006b6b"/><path d="M130.52 360h458.96" stroke="#fff"/><path d="M133.871 360H586.13M137.219 360H582.78M140.57 360h438.86" stroke="#000"/><path d="M143.918 360h432.164" stroke="#006b6b"/><path d="M147.27 360h425.46" stroke="#fff"/><path d="M150.621 360H569.38M153.969 360H566.03M157.32 360h405.36" stroke="#000"/><path d="M160.672 360h398.656" stroke="#006b6b"/><path d="M164.02 360h391.96" stroke="#fff"/><path d="M167.371 360H552.63M170.719 360H549.28M174.07 360h371.86" stroke="#000"/><path d="M177.422 360h365.156" stroke="#006b6b"/><path d="M180.77 360h358.46" stroke="#fff"/><path d="M184.121 360H535.88M187.469 360H532.53M190.82 360h338.36" stroke="#000"/><path d="M194.172 360h331.656" stroke="#006b6b"/><path d="M197.52 360h324.96" stroke="#fff"/><path d="M200.871 360H519.13M204.223 360h311.554M207.57 360h304.86" stroke="#000"/><path d="M210.922 360h298.156" stroke="#006b6b"/><path d="M214.27 360h291.46" stroke="#fff"/><path d="M217.621 360H502.38M220.973 360h278.054M224.32 360h271.36" stroke="#000"/><path d="M227.672 360h264.656" stroke="#006b6b"/><path d="M231.023 360h257.954" stroke="#fff"/><path d="M234.371 360H485.63M237.723 360h244.554M241.07 360h237.86" stroke="#000"/><path d="M244.422 360h231.156" stroke="#006b6b"/><path d="M247.773 360h224.454" stroke="#fff"/><path d="M251.121 360H468.88M254.473 360h211.054M257.824 360h204.352" stroke="#000"/><path d="M261.172 360h197.656" stroke="#006b6b"/><path d="M264.523 360h190.954" stroke="#fff"/><path d="M267.871 360H452.13M271.223 360h177.554M274.574 360h170.852" stroke="#000"/><path d="M277.922 360h164.156" stroke="#006b6b"/><path d="M281.273 360h157.454" stroke="#fff"/><path d="M284.625 360h150.75M287.973 360h144.054M291.324 360h137.352" stroke="#000"/><path d="M294.672 360h130.656" stroke="#006b6b"/><path d="M298.023 360h123.954" stroke="#fff"/><path d="M301.375 360h117.25M304.723 360h110.554M308.074 360h103.852" stroke="#000"/><path d="M311.422 360h97.156" stroke="#006b6b"/><path d="M314.773 360h90.454" stroke="#fff"/><path d="M318.125 360h83.75M321.473 360h77.054M324.824 360h70.352" stroke="#000"/><path d="M328.176 360h63.648" stroke="#006b6b"/><path d="M331.523 360h56.954" stroke="#fff"/><path d="M334.875 360h50.25M338.223 360h43.554M341.574 360h36.852" stroke="#000"/><path d="M344.926 360h30.148" stroke="#006b6b"/><path d="M348.273 360h23.454" stroke="#fff"/><path d="M351.625 360h16.75M354.977 360h10.046M358.324 360h3.352" stroke="#000"/><path d="M361.676 360h-3.352" stroke="#006b6b"/><path d="M365.023 360h-10.046" stroke="#fff"/><path d="M368.375 360h-16.75M371.727 360h-23.454M375.074 360h-30.148" stroke="#000"/><path d="M378.426 360h-36.852" stroke="#006b6b"/><path d="M381.777 360h-43.554" stroke="#fff"/><path d="M385.125 360h-50.25M388.477 360h-56.954M391.824 360h-63.648" stroke="#000"/><path d="M395.176 360h-70.352" stroke="#006b6b"/><path d="M398.527 360h-77.054" stroke="#fff"/><path d="M401.875 360h-83.75M405.227 360h-90.454M408.578 360h-97.156" stroke="#000"/><path d="M411.926 360H308.074" stroke="#006b6b"/><path d="M415.277 360H304.723" stroke="#fff"/><path d="M418.625 360h-117.25M421.977 360H298.023M425.328 360H294.672" stroke="#000"/><path d="M428.676 360H291.324" stroke="#006b6b"/><path d="M432.027 360H287.973" stroke="#fff"/><path d="M435.375 360h-150.75M438.727 360H281.273M442.078 360H277.922" stroke="#000"/><path d="M445.426 360H274.574" stroke="#006b6b"/><path d="M448.777 360H271.223" stroke="#fff"/><path d="M452.129 360H267.87M455.477 360H264.523M458.828 360H261.172" stroke="#000"/><path d="M462.176 360H257.824" stroke="#006b6b"/><path d="M465.527 360H254.473" stroke="#fff"/><path d="M468.879 360H251.12M472.227 360H247.773M475.578 360H244.422" stroke="#000"/><path d="M478.93 360H241.07" stroke="#006b6b"/><path d="M482.277 360H237.723" stroke="#fff"/><path d="M485.629 360H234.37M488.977 360H231.023M492.328 360H227.672" stroke="#000"/><path d="M495.68 360H224.32" stroke="#006b6b"/><path d="M499.027 360H220.973" stroke="#fff"/><path d="M502.379 360H217.62M505.73 360H214.27M509.078 360H210.922" stroke="#000"/><path d="M512.43 360H207.57" stroke="#006b6b"/><path d="M515.777 360H204.223" stroke="#fff"/><path d="M519.129 360H200.87M522.48 360H197.52M525.828 360H194.172" stroke="#000"/><path d="M529.18 360H190.82" stroke="#006b6b"/><path d="M532.531 360H187.47" stroke="#fff"/><path d="M535.879 360H184.12M539.23 360H180.77M542.578 360H177.422" stroke="#000"/><path d="M545.93 360H174.07" stroke="#006b6b"/><path d="M549.281 360H170.72" stroke="#fff"/><path d="M552.629 360H167.37M555.98 360H164.02M559.328 360H160.672" stroke="#000"/><path d="M562.68 360H157.32" stroke="#006b6b"/><path d="M566.031 360H153.97" stroke="#fff"/><path d="M569.379 360H150.62M572.73 360H147.27M576.082 360H143.918" stroke="#000"/><path d="M579.43 360H140.57" stroke="#006b6b"/><path d="M582.781 360H137.22" stroke="#fff"/><path d="M586.129 360H133.87M589.48 360H130.52M592.832 360H127.168" stroke="#000"/><path d="M596.18 360H123.82" stroke="#006b6b"/><path d="M599.531 360H120.47" stroke="#fff"/><path d="M602.883 360H117.117M606.23 360H113.77M609.582 360H110.418" stroke="#000"/><path d="M612.93 360H107.07" stroke="#006b6b"/><path d="M616.281 360H103.72" stroke="#fff"/><path d="M619.633 360H100.367M622.98 360H97.02M626.332 360H93.668" stroke="#000"/><path d="M629.684 360H90.316" stroke="#006b6b"/><path d="M633.031 360H86.97" stroke="#fff"/><path d="M636.383 360H83.617M639.73 360H80.27M643.082 360H76.918" stroke="#000"/><path d="M646.434 360H73.566" stroke="#006b6b"/><path d="M649.781 360H70.22" stroke="#fff"/><path d="M653.133 360H66.867M656.48 360H63.52M659.832 360H60.168" stroke="#000"/><path d="M663.184 360H56.816" stroke="#006b6b"/><path d="M666.531 360H53.47" stroke="#fff"/><path d="M669.883 360H50.117M673.234 360H46.766M676.582 360H43.418" stroke="#000"/><path d="M679.934 360H40.066" stroke="#006b6b"/><path d="M683.281 360H36.72" stroke="#fff"/><path d="M686.633 360H33.367M689.984 360H30.016M693.332 360H26.668" stroke="#000"/><path d="M360 693.332L26.668 360" stroke="#006b6b"/><path d="M358.324 691.66L30.016 360" stroke="#fff"/><path d="M356.648 689.984L33.368 360M354.977 688.309L36.719 360M353.3 686.633L40.067 360" stroke="#000"/><path d="M351.625 684.957L43.418 360" stroke="#006b6b"/><path d="M349.95 683.281L46.765 360" stroke="#fff"/><path d="M348.273 681.61L50.117 360M346.602 679.934L53.469 360M344.926 678.258L56.816 360" stroke="#000"/><path d="M343.25 676.582L60.168 360" stroke="#006b6b"/><path d="M341.574 674.906L63.52 360" stroke="#fff"/><path d="M339.898 673.234L66.868 360M338.223 671.559L70.219 360M336.55 669.883L73.567 360" stroke="#000"/><path d="M334.875 668.207L76.918 360" stroke="#006b6b"/><path d="M333.2 666.531L80.27 360" stroke="#fff"/><path d="M331.523 664.86L83.617 360M329.848 663.184L86.968 360M328.176 661.508L90.316 360" stroke="#000"/><path d="M326.5 659.832L93.668 360" stroke="#006b6b"/><path d="M324.824 658.156L97.02 360" stroke="#fff"/><path d="M323.148 656.48L100.368 360M321.473 654.809L103.719 360M319.8 653.133L107.07 360" stroke="#000"/><path d="M318.125 651.457L110.418 360" stroke="#006b6b"/><path d="M316.45 649.781L113.77 360" stroke="#fff"/><path d="M314.773 648.105L117.117 360M313.098 646.434L120.468 360M311.422 644.758L123.82 360" stroke="#000"/><path d="M309.75 643.082L127.168 360" stroke="#006b6b"/><path d="M308.074 641.406L130.52 360" stroke="#fff"/><path d="M306.398 639.73L133.871 360M304.723 638.059L137.219 360M303.047 636.383L140.57 360" stroke="#000"/><path d="M301.375 634.707L143.918 360" stroke="#006b6b"/><path d="M299.7 633.031L147.27 360" stroke="#fff"/><path d="M298.023 631.355L150.621 360M296.348 629.684L153.968 360M294.672 628.008L157.32 360" stroke="#000"/><path d="M293 626.332L160.672 360" stroke="#006b6b"/><path d="M291.324 624.656L164.02 360" stroke="#fff"/><path d="M289.648 622.98L167.371 360M287.973 621.305L170.719 360M286.297 619.633L174.07 360" stroke="#000"/><path d="M284.625 617.957L177.422 360" stroke="#006b6b"/><path d="M282.95 616.281L180.77 360" stroke="#fff"/><path d="M281.273 614.605L184.121 360M279.598 612.93L187.468 360M277.922 611.258L190.82 360" stroke="#000"/><path d="M276.246 609.582L194.172 360" stroke="#006b6b"/><path d="M274.574 607.906L197.52 360" stroke="#fff"/><path d="M272.898 606.23L200.871 360M271.223 604.555l-67-244.555M269.547 602.883L207.57 360" stroke="#000"/><path d="M267.871 601.207L210.921 360" stroke="#006b6b"/><path d="M266.2 599.531L214.27 360" stroke="#fff"/><path d="M264.523 597.855L217.621 360M262.848 596.18L220.973 360M261.172 594.508L224.32 360" stroke="#000"/><path d="M259.496 592.832L227.672 360" stroke="#006b6b"/><path d="M257.824 591.156L231.024 360" stroke="#fff"/><path d="M256.148 589.48L234.371 360M254.473 587.805L237.723 360M252.797 586.129L241.07 360" stroke="#000"/><path d="M251.121 584.457L244.421 360" stroke="#006b6b"/><path d="M249.445 582.781L247.773 360" stroke="#fff"/><path d="M247.773 581.105L251.121 360M246.098 579.43L254.473 360M244.422 577.754L257.824 360" stroke="#000"/><path d="M242.746 576.082L261.172 360" stroke="#006b6b"/><path d="M241.07 574.406L264.523 360" stroke="#fff"/><path d="M239.398 572.73L267.871 360M237.723 571.055L271.223 360M236.047 569.379L274.574 360" stroke="#000"/><path d="M234.371 567.707L277.921 360" stroke="#006b6b"/><path d="M232.695 566.031L281.273 360" stroke="#fff"/><path d="M231.023 564.355L284.625 360M229.348 562.68L287.973 360M227.672 561.004L291.324 360" stroke="#000"/><path d="M225.996 559.328L294.672 360" stroke="#006b6b"/><path d="M224.32 557.656L298.023 360" stroke="#fff"/><path d="M222.648 555.98L301.375 360M220.973 554.305L304.723 360M219.297 552.629L308.074 360" stroke="#000"/><path d="M217.621 550.953L311.421 360" stroke="#006b6b"/><path d="M215.945 549.281L314.773 360" stroke="#fff"/><path d="M214.27 547.605L318.125 360M212.598 545.93L321.473 360M210.922 544.254L324.824 360" stroke="#000"/><path d="M209.246 542.578L328.176 360" stroke="#006b6b"/><path d="M207.57 540.906L331.523 360" stroke="#fff"/><path d="M205.895 539.23L334.875 360M204.223 537.555l134-177.555M202.547 535.879L341.574 360" stroke="#000"/><path d="M200.871 534.203L344.926 360" stroke="#006b6b"/><path d="M199.195 532.531L348.273 360" stroke="#fff"/><path d="M197.52 530.855L351.625 360M195.848 529.18L354.977 360M194.172 527.504L358.324 360" stroke="#000"/><path d="M192.496 525.828L361.676 360" stroke="#006b6b"/><path d="M190.82 524.152L365.023 360" stroke="#fff"/><path d="M189.145 522.48L368.375 360M187.469 520.805L371.727 360M185.797 519.129L375.074 360" stroke="#000"/><path d="M184.121 517.453L378.426 360" stroke="#006b6b"/><path d="M182.445 515.777L381.777 360" stroke="#fff"/><path d="M180.77 514.105L385.125 360M179.094 512.43L388.477 360M177.422 510.754L391.824 360" stroke="#000"/><path d="M175.746 509.078L395.176 360" stroke="#006b6b"/><path d="M174.07 507.402L398.527 360" stroke="#fff"/><path d="M172.395 505.73L401.875 360M170.719 504.055L405.227 360M169.047 502.379L408.578 360" stroke="#000"/><path d="M167.371 500.703L411.926 360" stroke="#006b6b"/><path d="M165.695 499.027L415.277 360" stroke="#fff"/><path d="M164.02 497.352L418.625 360M162.344 495.68L421.977 360M160.672 494.004L425.328 360" stroke="#000"/><path d="M158.996 492.328L428.676 360" stroke="#006b6b"/><path d="M157.32 490.652L432.027 360" stroke="#fff"/><path d="M155.645 488.977L435.375 360M153.969 487.305L438.727 360M152.293 485.629L442.078 360" stroke="#000"/><path d="M150.621 483.953L445.426 360" stroke="#006b6b"/><path d="M148.945 482.277L448.777 360" stroke="#fff"/><path d="M147.27 480.602L452.129 360M145.594 478.93L455.477 360M143.918 477.254L458.828 360" stroke="#000"/><path d="M142.246 475.578L462.176 360" stroke="#006b6b"/><path d="M140.57 473.902L465.527 360" stroke="#fff"/><path d="M138.895 472.227L468.879 360M137.219 470.555L472.227 360M135.543 468.879L475.578 360" stroke="#000"/><path d="M133.871 467.203L478.93 360" stroke="#006b6b"/><path d="M132.195 465.527L482.277 360" stroke="#fff"/><path d="M130.52 463.852L485.629 360M128.844 462.176L488.977 360M127.168 460.504L492.328 360" stroke="#000"/><path d="M125.492 458.828L495.68 360" stroke="#006b6b"/><path d="M123.82 457.152L499.027 360" stroke="#fff"/><path d="M122.145 455.477L502.379 360M120.469 453.8L505.73 360M118.793 452.129L509.078 360" stroke="#000"/><path d="M117.117 450.453L512.43 360" stroke="#006b6b"/><path d="M115.445 448.777L515.777 360" stroke="#fff"/><path d="M113.77 447.102L519.129 360M112.094 445.426L522.48 360M110.418 443.754L525.828 360" stroke="#000"/><path d="M108.742 442.078L529.18 360" stroke="#006b6b"/><path d="M107.07 440.402L532.531 360" stroke="#fff"/><path d="M105.395 438.727L535.879 360M103.719 437.05L539.23 360M102.043 435.375L542.578 360" stroke="#000"/><path d="M100.367 433.703L545.93 360" stroke="#006b6b"/><path d="M98.695 432.027L549.281 360" stroke="#fff"/><path d="M97.02 430.352L552.629 360M95.344 428.676L555.98 360M93.668 427l465.66-67" stroke="#000"/><path d="M91.992 425.328L562.68 360" stroke="#006b6b"/><path d="M90.316 423.652L566.031 360" stroke="#fff"/><path d="M88.645 421.977L569.379 360M86.969 420.3L572.73 360M85.293 418.625L576.082 360" stroke="#000"/><path d="M83.617 416.953L579.43 360" stroke="#006b6b"/><path d="M81.941 415.277L582.781 360" stroke="#fff"/><path d="M80.27 413.602L586.129 360M78.594 411.926L589.48 360M76.918 410.25L592.832 360" stroke="#000"/><path d="M75.242 408.578L596.18 360" stroke="#006b6b"/><path d="M73.566 406.902L599.531 360" stroke="#fff"/><path d="M71.895 405.227L602.883 360M70.219 403.55L606.23 360M68.543 401.875L609.582 360" stroke="#000"/><path d="M66.867 400.2L612.93 360" stroke="#006b6b"/><path d="M65.191 398.527L616.281 360" stroke="#fff"/><path d="M63.52 396.852L619.633 360M61.844 395.176L622.98 360M60.168 393.5L626.332 360" stroke="#000"/><path d="M58.492 391.824L629.684 360" stroke="#006b6b"/><path d="M56.816 390.152L633.031 360" stroke="#fff"/><path d="M55.14 388.477L636.384 360M53.469 386.8L639.73 360M51.793 385.125L643.082 360" stroke="#000"/><path d="M50.117 383.45L646.434 360" stroke="#006b6b"/><path d="M48.441 381.777L649.781 360" stroke="#fff"/><path d="M46.766 380.102L653.133 360M45.094 378.426L656.48 360M43.418 376.75L659.832 360" stroke="#000"/><path d="M41.742 375.074L663.184 360" stroke="#006b6b"/><path d="M40.066 373.398L666.531 360" stroke="#fff"/><path d="M38.39 371.727L669.884 360M36.719 370.05L673.234 360M35.043 368.375L676.582 360" stroke="#000"/><path d="M33.367 366.7l646.567-6.7" stroke="#006b6b"/><path d="M31.691 365.023L683.281 360" stroke="#fff"/><path d="M30.016 363.352L686.633 360M28.34 361.676L689.984 360M26.668 360h666.664" stroke="#000"/><path d="M693.332 360L360 693.332" stroke="#006b6b"/><path d="M691.66 361.676L358.324 691.66" stroke="#fff"/><path d="M689.984 363.352L356.648 689.984M688.309 365.023L354.977 688.31M686.633 366.7L353.3 686.632" stroke="#000"/><path d="M684.957 368.375L351.625 684.957" stroke="#006b6b"/><path d="M683.281 370.05L349.95 683.282" stroke="#fff"/><path d="M681.61 371.727L348.272 681.609M679.934 373.398L346.602 679.934M678.258 375.074L344.926 678.258" stroke="#000"/><path d="M676.582 376.75L343.25 676.582" stroke="#006b6b"/><path d="M674.906 378.426l-333.332 296.48" stroke="#fff"/><path d="M673.234 380.102L339.898 673.234M671.559 381.777L338.223 671.56M669.883 383.45L336.55 669.882" stroke="#000"/><path d="M668.207 385.125L334.875 668.207" stroke="#006b6b"/><path d="M666.531 386.8L333.2 666.532" stroke="#fff"/><path d="M664.86 388.477L331.522 664.859M663.184 390.152L329.848 663.184M661.508 391.824L328.176 661.508" stroke="#000"/><path d="M659.832 393.5L326.5 659.832" stroke="#006b6b"/><path d="M658.156 395.176l-333.332 262.98" stroke="#fff"/><path d="M656.48 396.852L323.148 656.48M654.809 398.527L321.473 654.81M653.133 400.2L319.8 653.132" stroke="#000"/><path d="M651.457 401.875L318.125 651.457" stroke="#006b6b"/><path d="M649.781 403.55L316.45 649.782" stroke="#fff"/><path d="M648.105 405.227L314.773 648.105M646.434 406.902L313.098 646.434M644.758 408.578l-333.336 236.18" stroke="#000"/><path d="M643.082 410.25L309.75 643.082" stroke="#006b6b"/><path d="M641.406 411.926l-333.332 229.48" stroke="#fff"/><path d="M639.73 413.602L306.398 639.73M638.059 415.277L304.723 638.06M636.383 416.953l-333.336 219.43" stroke="#000"/><path d="M634.707 418.625L301.375 634.707" stroke="#006b6b"/><path d="M633.031 420.3L299.7 633.032" stroke="#fff"/><path d="M631.355 421.977L298.023 631.355M629.684 423.652L296.348 629.684M628.008 425.328l-333.336 202.68" stroke="#000"/><path d="M626.332 427L293 626.332" stroke="#006b6b"/><path d="M624.656 428.676l-333.332 195.98" stroke="#fff"/><path d="M622.98 430.352L289.648 622.98M621.305 432.027L287.973 621.305M619.633 433.703l-333.336 185.93" stroke="#000"/><path d="M617.957 435.375L284.625 617.957" stroke="#006b6b"/><path d="M616.281 437.05L282.95 616.282" stroke="#fff"/><path d="M614.605 438.727L281.273 614.605M612.93 440.402L279.598 612.93M611.258 442.078l-333.336 169.18" stroke="#000"/><path d="M609.582 443.754L276.246 609.582" stroke="#006b6b"/><path d="M607.906 445.426l-333.332 162.48" stroke="#fff"/><path d="M606.23 447.102L272.898 606.23M604.555 448.777L271.223 604.555M602.883 450.453l-333.336 152.43" stroke="#000"/><path d="M601.207 452.129L267.871 601.207" stroke="#006b6b"/><path d="M599.531 453.8L266.2 599.532" stroke="#fff"/><path d="M597.855 455.477L264.523 597.855M596.18 457.152L262.848 596.18M594.508 458.828l-333.336 135.68" stroke="#000"/><path d="M592.832 460.504L259.496 592.832" stroke="#006b6b"/><path d="M591.156 462.176l-333.332 128.98" stroke="#fff"/><path d="M589.48 463.852L256.148 589.48M587.805 465.527L254.473 587.805M586.129 467.203L252.797 586.13" stroke="#000"/><path d="M584.457 468.879L251.121 584.457" stroke="#006b6b"/><path d="M582.781 470.555L249.445 582.78" stroke="#fff"/><path d="M581.105 472.227L247.773 581.105M579.43 473.902L246.098 579.43M577.754 475.578L244.422 577.754" stroke="#000"/><path d="M576.082 477.254l-333.336 98.828" stroke="#006b6b"/><path d="M574.406 478.93L241.07 574.406" stroke="#fff"/><path d="M572.73 480.602L239.398 572.73M571.055 482.277l-333.332 88.778M569.379 483.953L236.047 569.38" stroke="#000"/><path d="M567.707 485.629l-333.336 82.078" stroke="#006b6b"/><path d="M566.031 487.305L232.695 566.03" stroke="#fff"/><path d="M564.355 488.977l-333.332 75.378M562.68 490.652L229.348 562.68M561.004 492.328l-333.332 68.676" stroke="#000"/><path d="M559.328 494.004l-333.332 65.324" stroke="#006b6b"/><path d="M557.656 495.68L224.32 557.656" stroke="#fff"/><path d="M555.98 497.352L222.648 555.98M554.305 499.027l-333.332 55.278M552.629 500.703L219.297 552.63" stroke="#000"/><path d="M550.953 502.379l-333.332 48.574" stroke="#006b6b"/><path d="M549.281 504.055L215.945 549.28" stroke="#fff"/><path d="M547.605 505.73L214.27 547.605M545.93 507.402L212.598 545.93M544.254 509.078l-333.332 35.176" stroke="#000"/><path d="M542.578 510.754l-333.332 31.824" stroke="#006b6b"/><path d="M540.906 512.43L207.57 540.906" stroke="#fff"/><path d="M539.23 514.105L205.895 539.23M537.555 515.777l-333.332 21.778M535.879 517.453L202.547 535.88" stroke="#000"/><path d="M534.203 519.129l-333.332 15.074" stroke="#006b6b"/><path d="M532.531 520.805L199.195 532.53" stroke="#fff"/><path d="M530.855 522.48l-333.335 8.375M529.18 524.152l-333.332 5.028M527.504 525.828l-333.332 1.676" stroke="#000"/><path d="M525.828 527.504l-333.332-1.676" stroke="#006b6b"/><path d="M524.152 529.18l-333.332-5.028" stroke="#fff"/><path d="M522.48 530.855l-333.335-8.375M520.805 532.531l-333.336-11.726M519.129 534.203L185.797 519.13" stroke="#000"/><path d="M517.453 535.879l-333.332-18.426" stroke="#006b6b"/><path d="M515.777 537.555l-333.332-21.778" stroke="#fff"/><path d="M514.105 539.23L180.77 514.105M512.43 540.906L179.094 512.43M510.754 542.578l-333.332-31.824" stroke="#000"/><path d="M509.078 544.254l-333.332-35.176" stroke="#006b6b"/><path d="M507.402 545.93L174.07 507.402" stroke="#fff"/><path d="M505.73 547.605L172.395 505.73M504.055 549.281l-333.336-45.226M502.379 550.953L169.047 502.38" stroke="#000"/><path d="M500.703 552.629l-333.332-51.926" stroke="#006b6b"/><path d="M499.027 554.305l-333.332-55.278" stroke="#fff"/><path d="M497.352 555.98L164.02 497.352M495.68 557.656L162.344 495.68M494.004 559.328l-333.332-65.324" stroke="#000"/><path d="M492.328 561.004l-333.332-68.676" stroke="#006b6b"/><path d="M490.652 562.68L157.32 490.652" stroke="#fff"/><path d="M488.977 564.355l-333.332-75.378M487.305 566.031l-333.336-78.726M485.629 567.707l-333.336-82.078" stroke="#000"/><path d="M483.953 569.379l-333.332-85.426" stroke="#006b6b"/><path d="M482.277 571.055l-333.332-88.778" stroke="#fff"/><path d="M480.602 572.73L147.27 480.602M478.93 574.406L145.594 478.93M477.254 576.082l-333.336-98.828" stroke="#000"/><path d="M475.578 577.754L142.246 475.578" stroke="#006b6b"/><path d="M473.902 579.43L140.57 473.902" stroke="#fff"/><path d="M472.227 581.105L138.895 472.227M470.555 582.781L137.219 470.555M468.879 584.457L135.543 468.879" stroke="#000"/><path d="M467.203 586.129L133.871 467.203" stroke="#006b6b"/><path d="M465.527 587.805L132.195 465.527" stroke="#fff"/><path d="M463.852 589.48L130.52 463.852M462.176 591.156l-333.332-128.98M460.504 592.832L127.168 460.504" stroke="#000"/><path d="M458.828 594.508l-333.336-135.68" stroke="#006b6b"/><path d="M457.152 596.18L123.82 457.152" stroke="#fff"/><path d="M455.477 597.855L122.145 455.477M453.8 599.531L120.47 453.801M452.129 601.207L118.793 452.129" stroke="#000"/><path d="M450.453 602.883l-333.336-152.43" stroke="#006b6b"/><path d="M448.777 604.555L115.445 448.777" stroke="#fff"/><path d="M447.102 606.23L113.77 447.102M445.426 607.906l-333.332-162.48M443.754 609.582L110.418 443.754" stroke="#000"/><path d="M442.078 611.258l-333.336-169.18" stroke="#006b6b"/><path d="M440.402 612.93L107.07 440.402" stroke="#fff"/><path d="M438.727 614.605L105.395 438.727M437.05 616.281L103.72 437.051M435.375 617.957L102.043 435.375" stroke="#000"/><path d="M433.703 619.633l-333.336-185.93" stroke="#006b6b"/><path d="M432.027 621.305L98.695 432.027" stroke="#fff"/><path d="M430.352 622.98L97.02 430.352M428.676 624.656L95.344 428.676M427 626.332L93.668 427" stroke="#000"/><path d="M425.328 628.008L91.992 425.328" stroke="#006b6b"/><path d="M423.652 629.684L90.316 423.652" stroke="#fff"/><path d="M421.977 631.355L88.645 421.977M420.3 633.031L86.97 420.301M418.625 634.707L85.293 418.625" stroke="#000"/><path d="M416.953 636.383L83.617 416.953" stroke="#006b6b"/><path d="M415.277 638.059L81.941 415.277" stroke="#fff"/><path d="M413.602 639.73L80.27 413.602M411.926 641.406L78.594 411.926M410.25 643.082L76.918 410.25" stroke="#000"/><path d="M408.578 644.758L75.242 408.578" stroke="#006b6b"/><path d="M406.902 646.434L73.566 406.902" stroke="#fff"/><path d="M405.227 648.105L71.895 405.227M403.55 649.781L70.22 403.551M401.875 651.457L68.543 401.875" stroke="#000"/><path d="M400.2 653.133L66.866 400.199" stroke="#006b6b"/><path d="M398.527 654.809L65.191 398.527" stroke="#fff"/><path d="M396.852 656.48L63.52 396.852M395.176 658.156L61.844 395.176M393.5 659.832L60.168 393.5" stroke="#000"/><path d="M391.824 661.508L58.492 391.824" stroke="#006b6b"/><path d="M390.152 663.184L56.816 390.152" stroke="#fff"/><path d="M388.477 664.86L55.14 388.476M386.8 666.531L53.47 386.801M385.125 668.207L51.793 385.125" stroke="#000"/><path d="M383.45 669.883L50.116 383.449" stroke="#006b6b"/><path d="M381.777 671.559L48.441 381.777" stroke="#fff"/><path d="M380.102 673.234L46.766 380.102M378.426 674.906L45.094 378.426M376.75 676.582L43.418 376.75" stroke="#000"/><path d="M375.074 678.258L41.742 375.074" stroke="#006b6b"/><path d="M373.398 679.934L40.066 373.398" stroke="#fff"/><path d="M371.727 681.61L38.39 371.726M370.05 683.281L36.72 370.051M368.375 684.957L35.043 368.375" stroke="#000"/><path d="M366.7 686.633L33.366 366.699" stroke="#006b6b"/><path d="M365.023 688.309L31.691 365.023" stroke="#fff"/><path d="M363.352 689.984L30.016 363.352M361.676 691.66L28.34 361.676M360 693.332L26.668 360" stroke="#000"/><path d="M26.668 360h666.664" stroke="#006b6b"/><path d="M30.016 360l661.644 1.676" stroke="#fff"/><path d="M33.367 360l656.617 3.352M36.719 360l651.59 5.023M40.066 360l646.567 6.7" stroke="#000"/><path d="M43.418 360l641.539 8.375" stroke="#006b6b"/><path d="M46.766 360l636.515 10.05" stroke="#fff"/><path d="M50.117 360l631.492 11.727M53.469 360l626.465 13.398M56.816 360l621.442 15.074" stroke="#000"/><path d="M60.168 360l616.414 16.75" stroke="#006b6b"/><path d="M63.52 360l611.386 18.426" stroke="#fff"/><path d="M66.867 360l606.367 20.102M70.219 360l601.34 21.777M73.566 360l596.317 23.45" stroke="#000"/><path d="M76.918 360l591.289 25.125" stroke="#006b6b"/><path d="M80.27 360l586.261 26.8" stroke="#fff"/><path d="M83.617 360l581.242 28.477M86.969 360l576.215 30.152M90.316 360l571.192 31.824" stroke="#000"/><path d="M93.668 360l566.164 33.5" stroke="#006b6b"/><path d="M97.02 360l561.136 35.176" stroke="#fff"/><path d="M100.367 360l556.113 36.852M103.719 360l551.09 38.527M107.07 360l546.063 40.2" stroke="#000"/><path d="M110.418 360l541.039 41.875" stroke="#006b6b"/><path d="M113.77 360l536.011 43.55" stroke="#fff"/><path d="M117.117 360l530.988 45.227M120.469 360l525.965 46.902M123.82 360l520.938 48.578" stroke="#000"/><path d="M127.168 360l515.914 50.25" stroke="#006b6b"/><path d="M130.52 360l510.886 51.926" stroke="#fff"/><path d="M133.871 360l505.86 53.602M137.219 360l500.84 55.277M140.57 360l495.813 56.953" stroke="#000"/><path d="M143.918 360l490.789 58.625" stroke="#006b6b"/><path d="M147.27 360l485.761 60.3" stroke="#fff"/><path d="M150.621 360l480.734 61.977M153.969 360l475.715 63.652M157.32 360l470.688 65.328" stroke="#000"/><path d="M160.672 360l465.66 67" stroke="#006b6b"/><path d="M164.02 360l460.636 68.676" stroke="#fff"/><path d="M167.371 360l455.61 70.352M170.719 360l450.586 72.027M174.07 360l445.563 73.703" stroke="#000"/><path d="M177.422 360l440.535 75.375" stroke="#006b6b"/><path d="M180.77 360l435.511 77.05" stroke="#fff"/><path d="M184.121 360l430.484 78.727M187.469 360l425.46 80.402M190.82 360l420.438 82.078" stroke="#000"/><path d="M194.172 360l415.41 83.754" stroke="#006b6b"/><path d="M197.52 360l410.386 85.426" stroke="#fff"/><path d="M200.871 360l405.36 87.102M204.223 360l400.332 88.777M207.57 360l395.313 90.453" stroke="#000"/><path d="M210.922 360l390.285 92.129" stroke="#006b6b"/><path d="M214.27 360l385.261 93.8" stroke="#fff"/><path d="M217.621 360l380.234 95.477M220.973 360l375.207 97.152M224.32 360l370.188 98.828" stroke="#000"/><path d="M227.672 360l365.16 100.504" stroke="#006b6b"/><path d="M231.023 360l360.133 102.176" stroke="#fff"/><path d="M234.371 360l355.11 103.852M237.723 360l350.082 105.527M241.07 360L586.13 467.203" stroke="#000"/><path d="M244.422 360l340.035 108.879" stroke="#006b6b"/><path d="M247.773 360l335.008 110.555" stroke="#fff"/><path d="M251.121 360l329.984 112.227M254.473 360L579.43 473.902M257.824 360l319.93 115.578" stroke="#000"/><path d="M261.172 360l314.91 117.254" stroke="#006b6b"/><path d="M264.523 360l309.883 118.93" stroke="#fff"/><path d="M267.871 360l304.86 120.602M271.223 360l299.832 122.277M274.574 360L569.38 483.953" stroke="#000"/><path d="M277.922 360l289.785 125.629" stroke="#006b6b"/><path d="M281.273 360l284.758 127.305" stroke="#fff"/><path d="M284.625 360l279.73 128.977M287.973 360L562.68 490.652M291.324 360l269.68 132.328" stroke="#000"/><path d="M294.672 360l264.656 134.004" stroke="#006b6b"/><path d="M298.023 360l259.633 135.68" stroke="#fff"/><path d="M301.375 360L555.98 497.352M304.723 360l249.582 139.027M308.074 360L552.63 500.703" stroke="#000"/><path d="M311.422 360l239.531 142.379" stroke="#006b6b"/><path d="M314.773 360l234.508 144.055" stroke="#fff"/><path d="M318.125 360l229.48 145.73M321.473 360L545.93 507.402M324.824 360l219.43 149.078" stroke="#000"/><path d="M328.176 360l214.402 150.754" stroke="#006b6b"/><path d="M331.523 360l209.383 152.43" stroke="#fff"/><path d="M334.875 360L539.23 514.105M338.223 360l199.332 155.777M341.574 360L535.88 517.453" stroke="#000"/><path d="M344.926 360l189.277 159.129" stroke="#006b6b"/><path d="M348.273 360l184.258 160.805" stroke="#fff"/><path d="M351.625 360l179.23 162.48M354.977 360L529.18 524.152M358.324 360l169.18 165.828" stroke="#000"/><path d="M361.676 360l164.152 167.504" stroke="#006b6b"/><path d="M365.023 360l159.13 169.18" stroke="#fff"/><path d="M368.375 360L522.48 530.855M371.727 360l149.078 172.531M375.074 360L519.13 534.203" stroke="#000"/><path d="M378.426 360l139.027 175.879" stroke="#006b6b"/><path d="M381.777 360l134 177.555" stroke="#fff"/><path d="M385.125 360l128.98 179.23M388.477 360L512.43 540.906M391.824 360l118.93 182.578" stroke="#000"/><path d="M395.176 360l113.902 184.254" stroke="#006b6b"/><path d="M398.527 360l108.875 185.93" stroke="#fff"/><path d="M401.875 360L505.73 547.605M405.227 360l98.828 189.281M408.578 360l93.8 190.953" stroke="#000"/><path d="M411.926 360l88.777 192.629" stroke="#006b6b"/><path d="M415.277 360l83.75 194.305" stroke="#fff"/><path d="M418.625 360l78.727 195.98M421.977 360l73.703 197.656M425.328 360l68.676 199.328" stroke="#000"/><path d="M428.676 360l63.652 201.004" stroke="#006b6b"/><path d="M432.027 360l58.625 202.68" stroke="#fff"/><path d="M435.375 360l53.602 204.355M438.727 360l48.578 206.031M442.078 360l43.55 207.707" stroke="#000"/><path d="M445.426 360l38.527 209.379" stroke="#006b6b"/><path d="M448.777 360l33.5 211.055" stroke="#fff"/><path d="M452.129 360l28.473 212.73M455.477 360l23.453 214.406M458.828 360l18.426 216.082" stroke="#000"/><path d="M462.176 360l13.402 217.754" stroke="#006b6b"/><path d="M465.527 360l8.375 219.43" stroke="#fff"/><path d="M468.879 360l3.348 221.105M472.227 360l-1.672 222.781M475.578 360l-6.7 224.457" stroke="#000"/><path d="M478.93 360l-11.727 226.129" stroke="#006b6b"/><path d="M482.277 360l-16.75 227.805" stroke="#fff"/><path d="M485.629 360l-21.777 229.48M488.977 360l-26.801 231.156M492.328 360l-31.824 232.832" stroke="#000"/><path d="M495.68 360l-36.852 234.508" stroke="#006b6b"/><path d="M499.027 360l-41.875 236.18" stroke="#fff"/><path d="M502.379 360l-46.902 237.855M505.73 360L453.8 599.531M509.078 360l-56.95 241.207" stroke="#000"/><path d="M512.43 360l-61.977 242.883" stroke="#006b6b"/><path d="M515.777 360l-67 244.555" stroke="#fff"/><path d="M519.129 360l-72.027 246.23M522.48 360l-77.054 247.906M525.828 360l-82.074 249.582" stroke="#000"/><path d="M529.18 360l-87.102 251.258" stroke="#006b6b"/><path d="M532.531 360l-92.129 252.93" stroke="#fff"/><path d="M535.879 360l-97.152 254.605M539.23 360L437.05 616.281M542.578 360L435.375 617.957" stroke="#000"/><path d="M545.93 360L433.703 619.633" stroke="#006b6b"/><path d="M549.281 360L432.027 621.305" stroke="#fff"/><path d="M552.629 360L430.352 622.98M555.98 360L428.676 624.656M559.328 360L427 626.332" stroke="#000"/><path d="M562.68 360L425.328 628.008" stroke="#006b6b"/><path d="M566.031 360L423.652 629.684" stroke="#fff"/><path d="M569.379 360L421.977 631.355M572.73 360L420.3 633.031M576.082 360L418.625 634.707" stroke="#000"/><path d="M579.43 360L416.953 636.383" stroke="#006b6b"/><path d="M582.781 360L415.277 638.059" stroke="#fff"/><path d="M586.129 360L413.602 639.73M589.48 360L411.926 641.406M592.832 360L410.25 643.082" stroke="#000"/><path d="M596.18 360L408.578 644.758" stroke="#006b6b"/><path d="M599.531 360L406.902 646.434" stroke="#fff"/><path d="M602.883 360L405.227 648.105M606.23 360L403.55 649.781M609.582 360L401.875 651.457" stroke="#000"/><path d="M612.93 360L400.2 653.133" stroke="#006b6b"/><path d="M616.281 360L398.527 654.809" stroke="#fff"/><path d="M619.633 360L396.852 656.48M622.98 360L395.176 658.156M626.332 360L393.5 659.832" stroke="#000"/><path d="M629.684 360l-237.86 301.508" stroke="#006b6b"/><path d="M633.031 360L390.152 663.184" stroke="#fff"/><path d="M636.383 360L388.477 664.86M639.73 360L386.8 666.531M643.082 360L385.125 668.207" stroke="#000"/><path d="M646.434 360L383.449 669.883" stroke="#006b6b"/><path d="M649.781 360L381.777 671.559" stroke="#fff"/><path d="M653.133 360L380.102 673.234M656.48 360L378.426 674.906M659.832 360L376.75 676.582" stroke="#000"/><path d="M663.184 360l-288.11 318.258" stroke="#006b6b"/><path d="M666.531 360L373.398 679.934" stroke="#fff"/><path d="M669.883 360L371.727 681.61M673.234 360L370.051 683.281M676.582 360L368.375 684.957" stroke="#000"/><path d="M679.934 360L366.699 686.633" stroke="#006b6b"/><path d="M683.281 360L365.023 688.309" stroke="#fff"/><path d="M686.633 360L363.352 689.984M689.984 360L361.676 691.66M693.332 360L360 693.332" stroke="#000"/><path d="M693.332 360H26.668" stroke="#006b6b"/><path d="M689.984 360H30.016" stroke="#fff"/><path d="M686.633 360H33.367M683.281 360H36.72M679.934 360H40.066" stroke="#000"/><path d="M676.582 360H43.418" stroke="#006b6b"/><path d="M673.234 360H46.766" stroke="#fff"/><path d="M669.883 360H50.117M666.531 360H53.47M663.184 360H56.816" stroke="#000"/><path d="M659.832 360H60.168" stroke="#006b6b"/><path d="M656.48 360H63.52" stroke="#fff"/><path d="M653.133 360H66.867M649.781 360H70.22M646.434 360H73.566" stroke="#000"/><path d="M643.082 360H76.918" stroke="#006b6b"/><path d="M639.73 360H80.27" stroke="#fff"/><path d="M636.383 360H83.617M633.031 360H86.97M629.684 360H90.316" stroke="#000"/><path d="M626.332 360H93.668" stroke="#006b6b"/><path d="M622.98 360H97.02" stroke="#fff"/><path d="M619.633 360H100.367M616.281 360H103.72M612.93 360H107.07" stroke="#000"/><path d="M609.582 360H110.418" stroke="#006b6b"/><path d="M606.23 360H113.77" stroke="#fff"/><path d="M602.883 360H117.117M599.531 360H120.47M596.18 360H123.82" stroke="#000"/><path d="M592.832 360H127.168" stroke="#006b6b"/><path d="M589.48 360H130.52" stroke="#fff"/><path d="M586.129 360H133.87M582.781 360H137.22M579.43 360H140.57" stroke="#000"/><path d="M576.082 360H143.918" stroke="#006b6b"/><path d="M572.73 360H147.27" stroke="#fff"/><path d="M569.379 360H150.62M566.031 360H153.97M562.68 360H157.32" stroke="#000"/><path d="M559.328 360H160.672" stroke="#006b6b"/><path d="M555.98 360H164.02" stroke="#fff"/><path d="M552.629 360H167.37M549.281 360H170.72M545.93 360H174.07" stroke="#000"/><path d="M542.578 360H177.422" stroke="#006b6b"/><path d="M539.23 360H180.77" stroke="#fff"/><path d="M535.879 360H184.12M532.531 360H187.47M529.18 360H190.82" stroke="#000"/><path d="M525.828 360H194.172" stroke="#006b6b"/><path d="M522.48 360H197.52" stroke="#fff"/><path d="M519.129 360H200.87M515.777 360H204.223M512.43 360H207.57" stroke="#000"/><path d="M509.078 360H210.922" stroke="#006b6b"/><path d="M505.73 360H214.27" stroke="#fff"/><path d="M502.379 360H217.62M499.027 360H220.973M495.68 360H224.32" stroke="#000"/><path d="M492.328 360H227.672" stroke="#006b6b"/><path d="M488.977 360H231.023" stroke="#fff"/><path d="M485.629 360H234.37M482.277 360H237.723M478.93 360H241.07" stroke="#000"/><path d="M475.578 360H244.422" stroke="#006b6b"/><path d="M472.227 360H247.773" stroke="#fff"/><path d="M468.879 360H251.12M465.527 360H254.473M462.176 360H257.824" stroke="#000"/><path d="M458.828 360H261.172" stroke="#006b6b"/><path d="M455.477 360H264.523" stroke="#fff"/><path d="M452.129 360H267.87M448.777 360H271.223M445.426 360H274.574" stroke="#000"/><path d="M442.078 360H277.922" stroke="#006b6b"/><path d="M438.727 360H281.273" stroke="#fff"/><path d="M435.375 360h-150.75M432.027 360H287.973M428.676 360H291.324" stroke="#000"/><path d="M425.328 360H294.672" stroke="#006b6b"/><path d="M421.977 360H298.023" stroke="#fff"/><path d="M418.625 360h-117.25M415.277 360H304.723M411.926 360H308.074" stroke="#000"/><path d="M408.578 360h-97.156" stroke="#006b6b"/><path d="M405.227 360h-90.454" stroke="#fff"/><path d="M401.875 360h-83.75M398.527 360h-77.054M395.176 360h-70.352" stroke="#000"/><path d="M391.824 360h-63.648" stroke="#006b6b"/><path d="M388.477 360h-56.954" stroke="#fff"/><path d="M385.125 360h-50.25M381.777 360h-43.554M378.426 360h-36.852" stroke="#000"/><path d="M375.074 360h-30.148" stroke="#006b6b"/><path d="M371.727 360h-23.454" stroke="#fff"/><path d="M368.375 360h-16.75M365.023 360h-10.046M361.676 360h-3.352" stroke="#000"/><path d="M358.324 360h3.352" stroke="#006b6b"/><path d="M354.977 360h10.046" stroke="#fff"/><path d="M351.625 360h16.75M348.273 360h23.454M344.926 360h30.148" stroke="#000"/><path d="M341.574 360h36.852" stroke="#006b6b"/><path d="M338.223 360h43.554" stroke="#fff"/><path d="M334.875 360h50.25M331.523 360h56.954M328.176 360h63.648" stroke="#000"/><path d="M324.824 360h70.352" stroke="#006b6b"/><path d="M321.473 360h77.054" stroke="#fff"/><path d="M318.125 360h83.75M314.773 360h90.454M311.422 360h97.156" stroke="#000"/><path d="M308.074 360h103.852" stroke="#006b6b"/><path d="M304.723 360h110.554" stroke="#fff"/><path d="M301.375 360h117.25M298.023 360h123.954M294.672 360h130.656" stroke="#000"/><path d="M291.324 360h137.352" stroke="#006b6b"/><path d="M287.973 360h144.054" stroke="#fff"/><path d="M284.625 360h150.75M281.273 360h157.454M277.922 360h164.156" stroke="#000"/><path d="M274.574 360h170.852" stroke="#006b6b"/><path d="M271.223 360h177.554" stroke="#fff"/><path d="M267.871 360H452.13M264.523 360h190.954M261.172 360h197.656" stroke="#000"/><path d="M257.824 360h204.352" stroke="#006b6b"/><path d="M254.473 360h211.054" stroke="#fff"/><path d="M251.121 360H468.88M247.773 360h224.454M244.422 360h231.156" stroke="#000"/><path d="M241.07 360h237.86" stroke="#006b6b"/><path d="M237.723 360h244.554" stroke="#fff"/><path d="M234.371 360H485.63M231.023 360h257.954M227.672 360h264.656" stroke="#000"/><path d="M224.32 360h271.36" stroke="#006b6b"/><path d="M220.973 360h278.054" stroke="#fff"/><path d="M217.621 360H502.38M214.27 360h291.46M210.922 360h298.156" stroke="#000"/><path d="M207.57 360h304.86" stroke="#006b6b"/><path d="M204.223 360h311.554" stroke="#fff"/><path d="M200.871 360H519.13M197.52 360h324.96M194.172 360h331.656" stroke="#000"/><path d="M190.82 360h338.36" stroke="#006b6b"/><path d="M187.469 360H532.53" stroke="#fff"/><path d="M184.121 360H535.88M180.77 360h358.46M177.422 360h365.156" stroke="#000"/><path d="M174.07 360h371.86" stroke="#006b6b"/><path d="M170.719 360H549.28" stroke="#fff"/><path d="M167.371 360H552.63M164.02 360h391.96M160.672 360h398.656" stroke="#000"/><path d="M157.32 360h405.36" stroke="#006b6b"/><path d="M153.969 360H566.03" stroke="#fff"/><path d="M150.621 360H569.38M147.27 360h425.46M143.918 360h432.164" stroke="#000"/><path d="M140.57 360h438.86" stroke="#006b6b"/><path d="M137.219 360H582.78" stroke="#fff"/><path d="M133.871 360H586.13M130.52 360h458.96M127.168 360h465.664" stroke="#000"/><path d="M123.82 360h472.36" stroke="#006b6b"/><path d="M120.469 360H599.53" stroke="#fff"/><path d="M117.117 360h485.766M113.77 360h492.46M110.418 360h499.164" stroke="#000"/><path d="M107.07 360h505.86" stroke="#006b6b"/><path d="M103.719 360H616.28" stroke="#fff"/><path d="M100.367 360h519.266M97.02 360h525.96M93.668 360h532.664" stroke="#000"/><path d="M90.316 360h539.368" stroke="#006b6b"/><path d="M86.969 360H633.03" stroke="#fff"/><path d="M83.617 360h552.766M80.27 360h559.46M76.918 360h566.164" stroke="#000"/><path d="M73.566 360h572.868" stroke="#006b6b"/><path d="M70.219 360H649.78" stroke="#fff"/><path d="M66.867 360h586.266M63.52 360h592.96M60.168 360h599.664" stroke="#000"/><path d="M56.816 360h606.368" stroke="#006b6b"/><path d="M53.469 360H666.53" stroke="#fff"/><path d="M50.117 360h619.766M46.766 360h626.468M43.418 360h633.164" stroke="#000"/><path d="M40.066 360h639.868" stroke="#006b6b"/><path d="M36.719 360H683.28" stroke="#fff"/><path d="M33.367 360h653.266M30.016 360h659.968M26.668 360h666.664" stroke="#000"/></g></svg>