<svg xmlns="http://www.w3.org/2000/svg" viewBox="0 0 720 720">
	<defs>
		<radialGradient id="a" cx=".5" cy=".5" fx=".5" fy=".5" r=".707">
			<stop offset="61%" stop-color="#F2F2F2"/>
			<stop offset="65%" stop-color="#3455B6"/>
			<stop offset="66%" stop-color="#282829"/>
			<stop offset="66.5%" stop-color="#282829"/>
			<stop offset="68.5%" stop-color="#7E1818"/>
			<stop offset="69%" stop-color="#282829"/>
		</radialGradient>
	</defs>
	<rect width="100%" height="100%" rx="0%" ry="0%" fill="url(#a)"/>
	<g id="second_event_horizon_stop" transform="translate(684 684)" cursor="pointer">
		<circle fill="#282829" r="20"/>
		<text fill="#bbb" text-anchor="middle" alignment-baseline="central" font-family="inherit" font-size="14pt">Stop</text>
	</g>
	<g id="second_event_horizon_start" transform="translate(36 684)" cursor="pointer">
		<circle fill="#282829" r="20"/>
		<text fill="#bbb" text-anchor="middle" alignment-baseline="central" font-family="inherit" font-size="14pt">Start</text>
	</g>
	<g transform="rotate(-1 1382.298 -680.298) scale(.95)">
		<path d="M693.332 360l-1.758-16.441-5.242-15.926-8.605-14.914-11.77-13.426-14.672-11.496-17.238-9.172-19.418-6.508-21.164-3.574-22.43-.426-23.195 2.844-23.445 6.172-23.176 9.469-22.395 12.656-21.129 15.66-19.41 18.41-17.277 20.84-14.785 22.883-12.008 24.496-8.996 25.637-5.84 26.28-2.602 26.403.625 26.012 3.77 25.094 6.746 23.691 9.496 21.82 11.934 19.532 14.011 16.867 15.676 13.902 16.88 10.688 17.597 7.308 17.804 3.84 17.497.363 16.683-3.047 15.371-6.312 13.602-9.352 11.398-12.101 8.832-14.496 5.946-16.492 2.812-18.028-.5-19.086-3.906-19.636-7.336-19.668-10.703-19.188-13.93-18.207-16.95-16.758-19.683-14.867-22.062-12.598-24.047-9.992-25.578-7.125-26.63-4.062-27.163-.887-27.18 2.336-26.676 5.512-25.668 8.566-24.168 11.434-22.222 14.023-19.875 16.293-17.176 18.168-14.2 19.606-11.007 20.57-7.676 21.039-4.285 20.984-.914 20.422 2.355 19.344 5.446 17.789 8.297 15.777 10.824 13.356 12.984 10.59 14.715 7.523 15.988 4.242 16.762.813 17.031-2.692 16.781-6.18 16.032-9.581 14.785-12.813 13.09-15.808 10.98-18.489 8.504-20.804 5.727-22.696 2.714-24.125-.457-25.062-3.71-25.48-6.97-25.387-10.155-24.766-13.184-23.652-15.988-22.067-18.493-20.05-20.644-17.657-22.379-14.937-23.66-11.965-24.453-8.809-24.735-5.55-24.496-2.258-23.738.972-22.48 4.078-20.747 6.977-18.578 9.602-16.011 11.878-13.118 13.766-9.96 15.211-6.602 16.18-3.125 16.648.387 16.606 3.867 16.043 7.222 14.988 10.383 13.453 13.285 11.484 15.848 9.114 18.024 6.406 19.765 3.426 21.031.242 21.797-3.074 22.047-6.434 21.778-9.773 21.003-13 19.739-16.04 18.027-18.828 15.902-21.285 13.422-23.367 10.653-25.012 7.656-26.187 4.508-26.86 1.293-27.015-1.918-26.652-5.04-25.766-8-24.395-10.722-22.55-13.137-20.293-15.187-17.657-16.825-14.718-17.996-11.54-18.683-8.187-18.863-4.75-18.52-1.3-17.672 2.081-16.332 5.313-14.523 8.324-12.29 11.043-9.687 13.414-6.762 15.375-3.597 16.887-.254 17.914 3.187 18.433 6.653 18.446 10.054 17.937 13.317 16.938 16.367 15.46 19.133 13.555 21.547 11.258 23.562 8.64 25.129 5.759 26.207 2.68 26.777-.512 26.832-3.743 26.36-6.925 25.379-9.989 23.918-12.855 22.011-15.457 19.696-17.723 17.035-19.594 14.094-21.035 10.937-21.996 7.649-22.457 4.3-22.398.97-21.825-2.263-20.746-5.312-19.175-8.117-17.157-10.606-14.726L446.98 46.23l-14.406-8.875-15.633-5.574-16.367-2.136-16.59 1.378-16.3 4.883L352.18 44.2l-14.223 11.543-12.48 14.547-10.332 17.242-7.817 19.57-5 21.481-1.957 22.922 1.254 23.875 4.543 24.312 7.832 24.23 11.047 23.634 14.11 22.539 16.937 20.976 19.472 18.98 21.645 16.606 23.406 13.918 24.711 10.969 25.524 7.844L496.68 364l25.605 1.355 24.871-1.847 23.63-4.918 21.913-7.781 19.758-10.364 17.215-12.61 14.336-14.452 11.191-15.86 7.852-16.789 4.39-17.214.891-17.125-2.57-16.528-5.914-15.426-9.059-13.851-11.945-11.832-14.496-9.422-16.657-6.676-18.386-3.652-19.645-.43-20.394 2.93-20.637 6.328-20.36 9.707-19.578 12.973-18.308 16.05-16.59 18.871-14.461 21.372-11.984 23.484-9.211 25.168-6.219 26.375-3.074 27.086.133 27.273 3.336 26.942 6.449 26.093 9.394 24.75 12.102 22.946 14.504 20.719 16.535 18.12 18.152 15.212 19.309 12.07 19.972 8.754 20.125 5.351 19.762 1.938 18.89-1.41 17.52-4.602 15.692-7.578 13.43-10.262 10.796-12.597 7.852-14.52 4.656-15.996 1.281-16.984-2.183-17.477-5.676-17.45-9.105-16.91-12.399-15.874-15.473-14.368-18.261-12.433-20.711-10.11-22.75-7.464-24.348-4.551-25.45-1.457-26.054 1.762-26.133 5.007-25.691 8.211-24.746 11.293-23.313 14.172-21.433 16.79-19.156 19.062-16.532 20.945-13.625 22.395-10.504 23.363-7.253 23.828-3.942 23.773-.648 23.207 2.539 22.125 5.547 20.563 8.308 18.539 10.754 16.113 12.824 13.328 14.47 10.258 15.651 6.961 16.336 3.512h16.52l16.18-3.504 15.34-6.918 14.011-10.168 12.23-13.18 10.036-15.879 7.476-18.207 4.625-20.125 1.532-21.57-1.711-22.531-5.04-22.977-8.37-22.902-11.618-22.316-14.715-21.23-17.578-19.677-20.144-17.699-22.352-15.34-24.14-12.668-25.473-9.738-26.316-6.629-26.645-3.422-26.453-.191-25.742 2.988-24.532 6.031-22.835 8.864-20.708 11.421-18.187 13.63-15.336 15.445-12.215 16.816-8.898 17.707-5.465 18.098-1.988 17.972 1.449 17.336 4.765 16.2 7.891 14.582 10.75 12.53 13.277 10.079 15.418 7.293 17.125 4.234 18.356.97 19.094-2.423 19.308-5.863 19.016-9.277 18.215-12.578 16.93-15.692 15.199-18.55 13.054-21.087 10.567-23.23 7.78-24.953 4.786-26.192 1.633-26.933-1.578-27.16-4.781-26.864-7.899-26.05-10.84-24.743-13.543-22.972-15.941-20.778-17.969-18.218-19.574-15.352-20.719-12.238-21.37-8.965-21.513-5.602-21.136-2.226-20.246 1.078-18.868 4.234-17.011 7.168-14.743 9.809-12.09 12.101-9.12 13.989-5.915 15.418-2.52 16.37.97 16.817 4.476 16.75 7.926 16.176 11.234 15.098 14.328 13.554 17.145 11.578 19.61 9.223 21.667 6.543 23.286 3.598 24.414.468 25.035-2.777 25.136-6.05 24.723-9.286 23.8-12.387 22.392-15.296 20.543-17.926 18.289-20.227 15.695-22.129 12.816-23.593 9.735-24.575 6.511-25.058 3.235-25.024-.016-24.46-3.172-23.399-6.14-21.84-8.864-19.832-11.265-17.418-13.297-14.644-14.895-11.579-16.035-8.292-16.68-4.856-16.812-1.348-16.434 2.145-15.546 5.555-14.18 8.796-12.348 11.797-10.11 14.489-7.507 16.816-4.613 18.723-1.48 20.168 1.804 21.12 5.176 21.567 8.543 21.488 11.832 20.899 14.96 19.82 17.868 18.266 20.465 16.289 22.707 13.941 24.535 11.27 25.898 8.351 26.774 5.258 27.136 2.059 26.973-1.16 26.3-4.32 25.114-7.344 23.453-10.157 21.356-12.691 18.867-14.879 16.047-16.672 12.957-18.012 9.672-18.879 6.27-19.238 2.823-19.086-.578-18.422-3.863-17.25-6.96-15.601-9.782-13.516L566.14 98.16l-14.391-8.215-16.066-5.125-17.266-1.828-17.973 1.594-18.16 5.07-17.836 8.516-17.012 11.848-15.699 14.992-13.941 17.886-11.781 20.446-9.266 22.629-6.465 24.379-3.445 25.652-.281 26.426 2.945 26.683 6.164 26.418 9.285 25.637 12.242 24.363 14.95 22.63 17.351 20.468 19.379 17.945 20.992 15.113L512 453.73l22.79 8.805 22.925 5.48 22.547 2.15 21.652-1.118 20.266-4.235 18.406-7.12 16.129-9.723L670.184 436l10.496-13.813 7.273-15.199 3.879-16.105.379-16.508-3.14-16.398-6.598-15.774-9.914-14.66-13.024-13.07-15.844-11.055-18.32-8.66-20.394-5.934-22.02-2.957-23.164.215-23.797 3.492-23.918 6.805-23.512 10.066-22.609 13.207-21.219 16.141-19.39 18.805-17.157 21.129-14.582 23.062-11.73 24.547-8.672 25.559-5.477 26.062-2.23 26.05.996 25.513 4.113 24.464 7.055 22.93 9.742 20.945 12.106 18.547 14.097 15.793 15.664 12.746 16.762 9.48 17.367 6.063 17.461 2.574 17.04-.906 16.109-4.293 14.699-7.515 12.832-10.5 10.547-13.18 7.91-15.484 4.965-17.38 1.8-18.804-1.53-19.746-4.938-20.176-8.344-20.09-11.672-19.484-14.843-18.395-17.782-16.84-20.418-14.851-22.695-12.496-24.555-9.824-25.957-6.907-26.867-3.808-27.262-.617-27.14 2.601-26.492 5.754-25.348 8.77-23.719 11.574-21.656 14.094-19.203 16.27-16.414 18.042-13.368 19.371-10.113 20.219-6.75 20.562-3.34 20.387.024 19.7 3.273 18.507 6.328 16.836 9.118 14.73 11.574 12.223 13.644 9.38 15.282 6.265 16.449 2.941 17.113-.508 17.266-4.004 16.91-7.472 16.043-10.832 14.703-14.008 12.91-16.918 10.715-19.508 8.172-21.719 5.344-23.488 2.296-24.789-.89-25.594-4.145-25.875-7.383-25.636-10.523-24.887-13.5-23.64-16.223-21.938-18.64-19.813-20.684-17.316-22.305-14.52-23.46-11.484-24.122-8.281-24.265-4.992-23.899-1.7-23.007 1.524-21.622 4.597-19.773 7.45-17.496 10.004-14.84 12.21-11.871 14.004-8.648 15.352-5.258 16.215-1.758 16.566 1.758 16.414 5.215 15.746 8.535 14.586 11.636 12.953 14.465 10.891 16.938 8.453 19.012 5.688 20.64 2.664 21.785-.543 22.426-3.864 22.55-7.214 22.15-10.516 21.253-13.688 19.875-16.66 18.051-19.359 15.832-21.715 13.273-23.676 10.434-25.199 7.39-26.238 4.22-26.774.984-26.785-2.211-26.277-5.313-25.262-8.222-23.754-10.88-21.793-13.222-19.425-15.183-16.696-16.715-13.68-17.782-10.437-18.351-7.047L201.34 93.2l-17.953-.136-16.996 3.226-15.543 6.422-13.637 9.383-11.32 12.031-8.645 14.313-5.664 16.18-2.46 17.581.905 18.5 4.348 18.906 7.793 18.793 11.152 18.176 14.36 17.059 17.332 15.484 20.004 13.485 22.316 11.109 24.211 8.426 25.644 5.496 26.59 2.39 27.02-.816 26.93-4.031 26.316-7.196 25.207-10.21 23.613-13.016 21.59-15.531 19.168-17.707 16.418-19.477 13.406-20.8 10.196-21.637 6.867-21.97 3.5-21.788.176-21.086-3.036-19.883-6.046-18.203-8.793-16.078-11.211-13.559-13.239-10.7-14.832-7.57-15.953-4.23-16.578-.77-16.687 2.747-16.29 6.23-15.386 9.606-14 12.797L339.96 80.87l-9.938 18.332-7.359 20.559-4.496 22.347-1.414 23.668 1.808 24.489 5.09 24.793 8.36 24.574 11.531 23.847 14.527 22.625 17.282 20.946 19.718 18.84 21.79 16.379 23.425 13.609 24.602 10.598 25.281 7.43 25.445 4.175 25.09.914 24.219-2.273 22.851-5.313 21.012-8.125 18.746-10.64 16.106-12.805 13.152-14.563 9.941-15.863 6.56-16.684 3.073-16.996-.433-16.796-3.875-16.086-7.184-14.88-10.277-13.206-13.094-11.102-15.555-8.617-17.625-5.813-19.242-2.742-20.379.504-21.015 3.863-21.13 7.254-20.726 10.598L486 222.516l-18.445 16.816-16.625 19.55-14.407 21.942-11.847 23.946-9.016 25.496-5.98 26.566-2.813 27.14.403 27.184 3.593 26.711 6.676 25.727 9.57 24.25 12.215 22.324 14.531 19.984 16.473 17.293 17.985 14.309 19.023 11.098 19.57 7.742 19.602 4.312 19.12.899 18.13-2.43 16.652-5.594 14.715-8.515 12.371-11.13 9.66-13.382 6.657-15.211 3.417-16.586.024-17.469-3.45-17.84-6.925-17.699-10.313-17.047-13.55-15.906-16.555-14.3-19.258-12.274-21.594-9.879-23.523-7.168-24.984-4.215-25.961-1.09-26.422 2.13-26.364 5.366-25.78 8.54-24.704 11.57-23.144 14.387-21.149 16.914-18.77 19.093-16.054 20.868-13.074 22.195-9.907 23.039-6.613 23.371-3.285 23.187v22.489l3.164 21.281 6.137 19.598 8.84 17.468 11.21 14.95 13.196 12.086 14.746 8.949 15.82 5.61 16.403 2.136 16.468-1.383 16.028-4.871 15.074-8.254 13.648-11.453 11.774-14.387 9.5-17 6.879-19.234 3.972-21.035.856-22.367-2.402-23.192-5.727-23.512-9.027-23.304-12.235-22.59-15.265-21.38-18.051-19.718-20.516-17.633-22.613-15.187-24.281-12.438-25.485-9.449-26.191-6.308-26.379-3.075-26.047.157-25.2 3.32-23.855 6.324-22.039 9.106-19.797 11.59-17.175 13.718-14.246 15.438-11.055 16.703-7.695 17.484-4.235 17.762-.746 17.52 2.676 16.773 5.96 15.523L87 550.754l11.832 11.668 14.273 9.14 16.32 6.293 17.927 3.192 19.039-.102 19.656-3.496 19.758-6.926 19.343-10.304 18.426-13.559 17.035-16.597 15.204-19.372 12.972-21.8 10.41-23.832 7.57-25.426 4.532-26.531 1.363-27.133-1.851-27.219-5.043-26.777-8.118-25.825-11.007-24.386L273 259.266l-15.953-20.192-17.883-17.535-19.375-14.586-20.406-11.414-20.938-8.098-20.953-4.707-20.449-1.328-19.441 1.961-17.946 5.086-15.988 7.969-13.621 10.543-10.89 12.754-7.868 14.547-4.602 15.875-1.19 16.722 2.308 17.055 5.8 16.875 9.215 16.187 12.477 15.008 15.5 13.367 18.223 11.31 20.59 8.878 22.535 6.137 24.027 3.156h25.023l25.508-3.246 25.477-6.508 24.925-9.707 23.868-12.758 22.343-15.59 20.375-18.14 18.024-20.336 15.344-22.125 12.394-23.465 9.258-24.324 6.008-24.664 2.71-24.496-.53-23.801-3.66-22.606-6.594-20.93-9.254-18.812-11.582-16.293-13.524-13.437-15.031-10.309-16.063-6.969-16.597-3.508-16.621.012-16.13 3.492-15.136 6.875-13.664 10.063-11.746 13-9.426 15.613-6.766 17.84-3.816 19.637-.656 20.969 2.644 21.8 6.008 22.114 9.344 21.91 12.59 21.199 15.66 20 18.476 18.336 20.98 16.265 23.11 13.825 24.813 11.09 26.043 8.113 26.785 4.984 27.004 1.77 26.7-1.442 25.882-4.586 24.57-7.57 22.781-10.324 20.567-12.785 17.98-14.887 15.075-16.578 11.918-17.813 8.585-18.566 5.149-18.809 1.695-18.535-1.695-17.754-4.957-16.472-8-14.723-10.766-12.547-13.18-9.984-15.199-7.106-16.773-3.965-17.863-.64-18.454 2.793-18.527 6.254-18.086 9.668-17.148 12.953-15.735 16.027-13.879 18.836-11.636 21.297-9.051 23.363-6.2 24.985-3.144 26.129.035 26.761L398 312.58l6.457 26.472L414 364.605l12.434 24.153 15.074 22.293 17.387 20.027 19.308 17.406 20.809 14.496 21.832 11.364 22.355 8.082 22.364 4.73 21.859 1.395 20.836-1.856 19.332-4.933 17.367-7.778 14.988-10.308 12.25-12.477 9.207-14.226 5.938-15.512 2.508-16.313-1-16.601-4.504-16.383-7.938-15.652-11.207-14.43-14.246-12.746-16.984-10.649-19.364-8.18-21.324-5.402-22.832-2.382-23.844.808-24.351 4.086L497.922 315l-23.797 10.61-22.766 13.69-21.257 16.555-19.317 19.13-16.984 21.347-14.332 23.164-11.41 24.524-8.305 25.402-5.078 25.77-1.817 25.613 1.395 24.941 4.488 23.766 7.383 22.101 10.008 20.004 12.3 17.5 14.204 14.66 15.664 11.547 16.66 8.227 17.152 4.773 17.133 1.278 16.598-2.196 15.562-5.558 14.047-8.739 12.086-11.656 9.727-14.258 7.02-16.472 4.027-18.262.828-19.574-2.512-20.399-5.914-20.703-9.293-20.492-12.574-19.773-15.684-18.567-18.539-16.902-21.078-14.824-23.242-12.387-24.98-9.652-26.247-6.68-27.023-3.551-27.274-.348-27.008 2.86-26.218 5.988-24.942 8.961-23.187 11.703-21.012 14.149-18.453 16.23-15.582 17.902-12.461 19.118-9.16 19.847-5.766 20.07-2.344 19.774 1.012 18.96 4.238 17.661 7.243 15.883 9.972 13.676 12.352 11.093 14.336 8.18 15.87 5.016 16.927 1.66 17.484-1.797 17.523-5.29 17.051-8.73 16.078-12.039 14.637-15.144 12.75-17.98 10.473-20.47 7.87-22.562 4.99-24.215 1.91-25.383-1.29-26.05-4.539-26.192-7.75-25.82-10.851-24.93-13.758-23.558-16.41-21.735-18.73-19.5-20.669-16.918-22.172-14.035-23.203-10.941-23.73-7.7-23.746-4.386-23.239-1.09-22.226 2.117-20.715 5.156-18.754 7.957-16.375 10.45-13.633 12.566-10.594 14.274-7.32 15.52-3.89 16.269-.38 16.515 3.133 16.25 6.563 15.477 9.836 14.207L59.8 440.117l15.625 10.34 18.004 7.828 19.972 5.008 21.485 1.95 22.508-1.278 23.015-4.602 23.012-7.93 22.484-11.195 21.465-14.308 19.965-17.207 18.039-19.813 15.73-22.062 13.086-23.91 10.188-25.301 7.098-26.207 3.898-26.598.66-26.473-2.527-25.824-5.594-24.676-8.46-23.039-11.056-20.96-13.312-18.485-15.184-15.672-16.613-12.578-17.566-9.281-18.028-5.86-17.968-2.379-17.399 1.067-16.324 4.406-14.77 7.559-12.77 10.457-10.37 13.035-7.63 15.226-4.597 16.993-1.355 18.285 2.02 19.09 5.46 19.37 8.875 19.145 12.196 18.41 15.335 17.184 18.23 15.508 20.806 13.418 23.004 10.965 24.777 8.218 26.078 5.247 26.887 2.109 27.175-1.098 26.942-4.308 26.191-7.438 24.946-10.406 23.23-13.145 21.082-15.586 18.567-17.66 15.734-19.324 12.644-20.527 9.387-21.246 6.027-21.454 2.649-21.144-.672-20.32-3.855-18.996-6.82-17.204-9.509-14.984-11.847-12.379-13.79-9.45-15.28-6.265-16.301-2.89-16.817.586-16.812 4.093-16.301 7.555-15.293 10.887-13.809 14.015-11.886 16.864-9.578 19.375-6.938 21.492-4.023 23.164-.914 24.355 2.316 25.043 5.59 25.207 8.832 24.86L361 280.965l14.89 22.648 17.56 20.852 19.902 18.648 21.859 16.09 23.379 13.242 24.422 10.18 24.968 6.973 25 3.695 24.504.43 23.5-2.739 22.004-5.738 20.055-8.496 17.68-10.95 14.953-13.027 11.918-14.687 8.656-15.89 5.234-16.598 1.73-16.801-1.769-16.492-5.195-15.668-8.46-14.36-11.5-12.59-14.235-10.402-16.61-7.847-18.574-4.985-20.082-1.883-21.098 1.387-21.609 4.746-21.598 8.117-21.074 11.422-20.05 14.57-18.56 17.508-16.636 20.149-14.328 22.437-11.695 24.313-8.805 25.738-5.73 26.68-2.54 27.101.684 27.008 3.855 26.395 6.903 25.27 9.746 23.667 12.32 21.621 14.555 19.18 16.402 16.39 17.805 13.333 18.73 10.07 19.16 6.672 19.075 3.226 18.472-.187 17.368-3.492 15.78-6.621 13.75-9.48 11.321-12.028 8.54-14.192 5.476-15.922 2.207-17.191-1.203-17.957-4.676-18.219-8.125-17.96-11.477-17.196-14.648-15.95-17.574-14.245-20.184-12.133-22.414-9.664-24.215-6.895-25.554-3.902-26.387-.754-26.715 2.473-26.508 5.691-25.797 8.832-24.578 11.809-22.898 14.554-20.79 17-18.308 19.075-15.508 20.742-12.46 21.949-9.243 22.664-5.918 22.867-2.582 22.555.7 21.723 3.835 20.398 6.766 18.602 9.406 16.367 11.703 13.758 13.598 10.82 15.055 7.625 16.02 4.25 16.491.754 16.45-2.762 15.894-6.23 14.84-9.575 13.312-12.707 11.352-15.574 9-18.094 6.32-20.218 3.368-21.907.222-23.113-3.043-23.808-6.355-23.997-9.63-23.656-12.78-22.816-15.75-21.485-18.446-19.707-20.82-17.52-22.797-14.987-24.348-12.168-25.414-9.125-25.984-5.946-26.035-2.699-25.563.535-24.578 3.672-23.105 6.64-21.172 9.364-18.82 11.781-16.11 13.82-13.094 15.442-9.851 16.605-6.445 17.278-2.961 17.437.523 17.082 3.926 16.223 7.18 14.867 10.199 13.059 12.918 10.832 15.277 8.23 17.227 5.332 18.714 2.184 19.723-1.121 20.215-4.524 20.195-7.933 19.66-11.274 18.63-14.465 17.128-17.437 15.2-20.113 12.886-22.438 10.25-24.351 7.36-25.813 4.28-26.781 1.095-27.246-2.118-27.184-5.289-26.605-8.324-25.516-11.16-23.945-13.723-21.938-15.941-19.523-17.774-16.777-19.156-13.754-20.07-10.524-20.48-7.164-20.368-3.758-19.75-.379-18.617 2.891-17.012 5.977-14.953 8.804-12.5 11.309-9.695 13.437-6.613 15.13-3.313 16.359.125 17.093 3.621 17.313 7.094 17.02 10.469 16.222 13.672 14.942 16.62 13.207 19.25 11.058 21.512 8.563 23.34 5.765 24.703 2.746 25.567-.43 25.914-3.675 25.742-6.918 25.055-10.078 23.87-13.074 22.22-15.836 20.144-18.293 17.691-20.387 14.926-22.063 11.918-23.277 8.73-24.004 5.446-24.215 2.144-23.906-1.093-23.082-4.192-21.762-7.074-19.968-9.676-17.739-11.933-15.132-13.781-12.196-15.188-9.004-16.117-5.625-16.543-2.14-16.45 1.382-15.85 4.848-14.755 8.192-13.18 11.328-11.18 14.191-8.78 16.715-6.055 18.844-3.067 20.527.122 21.738 3.43 22.446 6.777 22.629 10.085 22.3 13.282 21.465 16.277 20.145 19.012 18.375 21.418 16.203 23.43 13.683 25.007 10.875 26.11 7.856 26.703 4.691 26.785 1.461 26.344-1.746 25.382-4.86 23.942-7.8 22.031-10.5 19.707-12.883 17.024-14.898 14.039-16.489 10.816-17.613 7.442-18.254 3.984-18.379.523-17.992-2.851-17.09-6.078-15.707-9.07-13.855-11.766-11.59-14.098-8.957-16.023-6.016-17.489-2.836-18.468.508-18.938 3.95-18.898 7.39-18.344 10.766-17.29 13.996-15.773 17-13.824 19.715-11.496 22.07-8.851 24.02-5.946 25.515-2.86 26.52.337 27.015 3.558 26.988 6.727 26.442 9.77 25.39 12.601 23.856 15.16 21.879 17.383 19.508 19.203 16.793 20.586 13.808 21.488 10.617 21.887 7.297 21.77 3.93 21.132.59 19.993-2.64 18.37-5.68 16.305-8.47 13.828-10.933 11.016-13.015 7.91-14.668 4.598-15.856 1.148-16.543-2.367-16.726-5.86-16.391-9.25-15.55-12.464-14.231-15.434-12.453-18.086-10.274-20.359-7.738-22.207-4.906-23.59-1.852-24.472 1.356-24.844 4.632-24.688 7.907-24.027 11.093-22.863 14.114-21.235 16.902-19.187 19.383-16.762 21.496-14.027 23.195-11.043 24.43-7.89 25.172-4.638 25.398-1.37 25.113 1.831 24.301 4.89 22.992 7.743 21.211 10.3 19 12.517 16.403 14.324 13.48 15.691 10.301 16.574 6.934 16.957 3.457 16.82-.047 16.18-3.508 15.036-6.84 13.421-9.965 11.375-12.82 8.934-15.332 6.168-17.45 3.133-19.132-.094-20.332-3.445-21.031-6.832-21.211-10.18-20.88-13.414-20.038-16.445-18.72-19.223-16.952-21.656-14.778-23.707-12.261-25.32-9.461-26.454-6.446-27.086-3.293-27.195-.074-26.785 3.121-25.867 6.22-24.446 9.148-22.574 11.824-20.285 14.187-17.633 16.184-14.676 17.75-11.492 18.851-8.144 19.465-4.727 19.563-1.297 19.148 2.047 18.223 5.238 16.805 8.196 14.925 10.855 12.63 13.156 9.968 15.047 6.996 16.48 3.785 17.427.41 17.867-3.058 17.793-6.535 17.21-9.942 16.13-13.195 14.582-16.234 12.609-18.977 10.254-21.363 7.586-23.344 4.66-24.867 1.555-25.903-1.657-26.43-4.894-26.437-8.078-25.918-11.133-24.898-13.98-23.402-16.543-21.458-18.774-19.117-20.601-16.441-21.985-13.492-22.89-10.34-23.29-7.055-23.171-3.73-22.536-.43-21.394 2.758-19.77 5.758-17.695 8.5-15.219 10.921-12.398 12.961-9.293 14.57-5.973 15.712-2.512 16.355 1.004 16.492 4.5 16.114 7.903 15.226 11.125 13.867 14.101 12.043 16.758 9.825 19.043 7.242 20.899 4.375 22.289 1.277 23.183-1.96 23.567-5.282 23.425-8.586 22.778-11.809 21.625-14.863 20.02-17.68 17.984-20.195 15.578-22.336 12.863-24.058 9.906-25.325 6.774-26.09 3.547-26.343.308-26.078-2.863-25.293-5.899-24.008-8.71-22.25-11.239-20.059-13.418-17.48-15.195-14.582-16.52-11.426-17.367-8.078-17.707-4.621-17.539-1.137-16.851 2.3-15.668 5.61L173 84.336l-11.926 11.55-9.445 14.048-6.64 16.144-3.567 17.809-.297 18.988 3.09 19.672 6.52 19.84 9.902 19.488 13.175 18.64 16.247 17.305 19.05 15.524 21.532 13.347 23.613 10.825 25.258 8.015 26.43 4.996 27.097 1.844 27.242-1.375 26.867-4.566 25.977-7.664 24.602-10.582 22.757-13.254 20.504-15.61 17.887-17.586 14.969-19.14 11.824-20.235 8.512-20.824 5.129-20.91 1.742-20.477-1.567-19.527-4.714-18.094-7.637-16.195-10.258-13.875-12.52-11.195-14.367-8.2-15.761-4.964-16.668-1.567-17.075 1.922-16.96 5.422-16.337 8.848-15.222 12.132-13.64 15.188-11.634 17.953-9.246 20.367-6.547 22.367-3.59 23.918-.456 24.98 2.785 25.528 6.043 25.559 9.254 25.074 12.324 24.078 15.195 22.61 17.777 20.691 20.02 18.387 21.867 15.742 23.262 12.824 24.18 9.707 24.593 6.461 24.485 3.168 23.855-.094 22.723-3.238 21.105-6.203 19.04-8.902 16.57-11.282 13.754-13.273 10.652-14.844 7.336-15.937 3.883-16.54.37-16.628-3.124-16.207-6.52-15.278-9.738-13.867-12.711-12.004-15.371-9.738-17.649-7.113-19.507-4.204-20.895-1.066-21.789 2.215-22.176 5.574-22.035 8.918-21.39 12.176-20.247 15.27-18.644 18.124-16.617 20.668-14.227 22.844-11.52 24.602-8.57 25.898-5.457 26.695-2.25 26.985.973 26.742 4.125 25.988 7.133 24.735 9.926 23.004 12.425 20.843 14.578 18.293 16.329 15.426 17.62 12.293 18.438 8.98 18.75 5.551 18.543 2.094 17.824-1.316 16.61-4.594 14.918-7.676 12.797-10.476 10.28-12.946 7.438-15.015 4.328-16.649 1.028-17.805-2.395-18.46-5.86-18.606-9.276-18.23-12.582-17.352-15.692-16-18.527-14.2-21.04-12.003-23.156-9.461-24.836-6.637-26.039-3.605-26.734-.442-26.918 2.786-26.578 5.988-25.723 9.09-24.375 12.015-22.574 14.684-20.351 17.043-17.774 19.02-14.894 20.57-11.782 21.66-8.511 22.246-5.168 22.32-1.82 21.883 1.445 20.926 4.554 19.48 7.43 17.57 10.012 15.243 12.226 12.543 14.035 9.543 15.387 6.293 16.25 2.883 16.61-.618 16.453-4.132 15.789-7.575 14.633-10.867 13.007-13.941 10.961-16.723 8.54-19.144 5.796-21.168 2.805-22.727-.36-23.809-3.636-24.375-6.93-24.425-10.168-23.957-13.27-22.985-16.167-21.531-18.774-19.645-21.047-17.359-22.91-14.742-24.332-11.848-25.273-8.762-25.7-5.542-25.613-2.286-25.008.946-23.886 4.054-22.285 6.985-20.239 9.644-17.785 11.989-14.984 13.941-11.895 15.465-8.597 16.523-5.16 17.082-1.66 17.13 1.82 16.663 5.203 15.692 8.41 14.238L76 523.793l14.008 10.023 16.281 7.356 18.125 4.406 19.504 1.227 20.387-2.102 20.761-5.492 20.621-8.879 19.961-12.18 18.817-15.304 17.207-18.2 15.183-20.777 12.786-22.992 10.086-24.785 7.136-26.117 4.032-26.946.828-27.265-2.383-27.067-5.527-26.34-8.524-25.12-11.3-23.423-13.786-21.296-15.918-18.782-17.644-15.945-18.922-12.852L198 155.375l-20-6.176-19.773-2.754-19.032.618-17.789 3.863-16.07 6.906-13.918 9.676-11.379 12.105-8.508 14.14-5.37 15.743-2.04 16.86 1.41 17.48 4.903 17.59 8.347 17.187 11.684 16.274 14.816 14.89 17.684 13.063 20.222 10.836 22.368 8.27 24.078 5.421 25.304 2.367 26.04-.82 26.242-4.066 25.937-7.29 25.11-10.402 23.796-13.344 22.028-16.027 19.84-18.394 17.293-20.38 14.445-21.94 11.375-23.032 8.144-23.629 4.836-23.707 1.528-23.266-1.696-22.312-4.765-20.871-7.598-18.957-10.133-16.629-12.308-13.934-14.07-10.925-15.376-7.676-16.195-4.266-16.512-.758-16.308 2.758-15.602 6.203-14.394 9.5-12.735 12.578-10.64 15.364-8.172 17.793-5.395 19.816-2.359 21.387.848 22.476 4.16 23.047 7.488 23.11 10.766 22.648 13.902 21.688 16.828 20.25 19.477 18.375 21.77 16.105 23.671 13.504 25.121 10.633 26.086 7.566 26.543 4.367 26.48 1.137 25.903-2.066 24.809-5.157 23.23-8.046 21.207-10.684 18.777-12.992 16.004-14.914 12.938-16.403 9.664-17.422 6.25-17.945 2.773-17.957-.683-17.453-4.043-16.441-7.227-14.95-10.16-13.007-12.781-10.657-15.028-7.953-16.851-4.96-18.211-1.743-19.074 1.617-19.43 5.055-19.266 8.473-18.593 11.812-17.434 14.973-15.809 17.902-13.77 20.52-11.366 22.77-8.653 24.597-5.699 25.957-2.586 26.828.617 27.18 3.832 27.015 6.977 26.325 9.969 25.136 12.742 23.48 15.219 21.384 17.347 18.91 19.067 16.109 20.332 13.05 21.113 9.805 21.383 6.454 21.14 3.066 20.383-.262 19.125-3.472 17.39-6.47 15.22-9.198 12.66-11.59 9.773-13.582 6.614-15.14 3.265-16.223-.203-16.801-3.715-16.871-7.187-16.422-10.535-15.48-13.692-14.055-16.578-12.192-19.137-9.926-21.304-7.328-23.036-4.449-24.289-1.36-25.039 1.856-25.273 5.133-24.984 8.375-24.188 11.52-22.898 14.48-21.153 17.188-18.996 19.57-16.48 21.578-13.668 23.156-10.625 24.262-7.426 24.875-4.152 24.965-.887 24.535 2.305 23.598 5.336 22.16 8.125 20.261 10.62 17.946 12.758 15.254 14.473 12.257 15.734 9.016 16.512 5.61 16.781 2.113 16.536-1.395 15.785-4.832 14.535-8.125 12.824-11.195 10.688-13.973 8.183-16.402 5.356-18.418 2.28-19.984-.968-21.067-4.32-21.644-7.692-21.696-11.003-21.242-14.18-20.277-17.14-18.848-19.825-16.973-22.156-14.71-24.09-12.118-25.57-9.257-26.57-6.196-27.063-3.015-27.031.203-26.48 3.386-25.419 6.457-23.875 9.332-21.879 11.942-19.484 14.226-16.735 16.125-13.703 17.586-10.46 18.582-7.075 19.075-3.633 19.05-.203 18.52 3.121 17.476 6.274 15.954 9.176 13.976 11.77 11.594 13.98 8.86 15.777 5.827 17.105 2.582 17.938-.812 18.265-4.281 18.075-7.735 17.379-11.101 16.187-14.301 14.543-17.258 12.48-19.91 10.055-22.191 7.324-24.047 4.356-25.446 1.223-26.343-1.997-26.73-5.218-26.598-8.375-25.942-11.375-24.785-14.153-23.164-16.636-21.102-18.77-18.664-20.484-15.898-21.754-12.879-22.531-9.672-22.801-6.36-22.551-3.015-21.789.277-20.527 3.442-18.782 6.402-16.605 9.082-14.04 11.43-11.14 13.383-7.976 14.898-4.614 15.93-1.136 16.469 2.386 16.492 5.864 16.004 9.226 15.011 12.39 13.551 15.294 11.64 17.86 9.34 20.042 6.7 21.785 3.777 23.051.656 23.816-2.597 24.063-5.903 23.793-9.187 23.012-12.356 21.742-15.351 20.02-18.086 17.882-20.496 15.387-22.531 12.598-24.133 9.582-25.266 6.41-25.898 3.168-26.012-.074-25.605-3.23-24.684-6.224-23.27-8.984-21.39-11.441-19.09-13.54-16.418-15.214-13.437-16.442-10.22-17.175-6.831-17.407-3.348-17.12.14-16.321 3.563-15.035 6.836-13.282 9.89-11.105 12.653-8.555 15.063-5.687 17.066-2.57 18.621.718 19.688 4.11 20.25 7.52 20.293 10.87 19.824 14.086 18.855 17.086 17.414 19.8 15.54 22.173 13.269 24.14 10.672 25.66 7.808 26.692 4.754 27.215 1.575 27.222-1.641 26.704-4.817 25.68-7.878 24.167-10.739 22.207-13.343 19.844-15.61 17.133-17.492 14.137-18.941 10.93-19.91 7.577-20.387 4.172-20.344.785-19.79-2.507-18.726-5.621-17.172-8.485-15.175-11.039-12.77-13.219-10.008-14.972-6.953-16.262-3.683-17.063-.258-17.351 3.234-17.129 6.711-16.39 10.11-15.176 13.328-13.493 16.316-11.402 18.988-8.945 21.301-6.184 23.18-3.191 24.605-.032 25.535 3.207 25.946 6.454 25.84 9.625 25.214 12.648 24.09 15.441 22.496 17.942 20.47 20.078 18.058 21.813 15.332 23.09 12.343 23.874 9.176 24.153 5.899 23.91 2.593 23.152-.66 21.89-3.781 20.157-6.7 17.977-9.343 15.418-11.644 12.515-13.551 9.356-15.024 5.996-16.011 2.515-16.504zm0 0" stroke="#ee2c2c73" stroke-width=".8" fill="#282829" fill-rule="evenodd"/>
		<animateTransform attributeType="xml" attributeName="transform" type="rotate" from="360 360 360" to="0 360 360" dur="240s" additive="sum" repeatCount="indefinite" begin="second_event_horizon_start.click" end="second_event_horizon_stop.click"/>
	</g>
	<g xmlns="http://www.w3.org/2000/svg" transform="rotate(1 -472.238 1177.838) scale(.96)">
		<path d="M693.332 360l-1.758-16.441-5.242-15.926-8.605-14.914-11.77-13.426-14.672-11.496-17.238-9.172-19.418-6.508-21.164-3.574-22.43-.426-23.195 2.844-23.445 6.172-23.176 9.469-22.395 12.656-21.129 15.66-19.41 18.41-17.277 20.84-14.785 22.883-12.008 24.496-8.996 25.637-5.84 26.28-2.602 26.403.625 26.012 3.77 25.094 6.746 23.691 9.496 21.82 11.934 19.532 14.011 16.867 15.676 13.902 16.88 10.688 17.597 7.308 17.804 3.84 17.497.363 16.683-3.047 15.371-6.312 13.602-9.352 11.398-12.101 8.832-14.496 5.946-16.492 2.812-18.028-.5-19.086-3.906-19.636-7.336-19.668-10.703-19.188-13.93-18.207-16.95-16.758-19.683-14.867-22.062-12.598-24.047-9.992-25.578-7.125-26.63-4.062-27.163-.887-27.18 2.336-26.676 5.512-25.668 8.566-24.168 11.434-22.222 14.023-19.875 16.293-17.176 18.168-14.2 19.606-11.007 20.57-7.676 21.039-4.285 20.984-.914 20.422 2.355 19.344 5.446 17.789 8.297 15.777 10.824 13.356 12.984 10.59 14.715 7.523 15.988 4.242 16.762.813 17.031-2.692 16.781-6.18 16.032-9.581 14.785-12.813 13.09-15.808 10.98-18.489 8.504-20.804 5.727-22.696 2.714-24.125-.457-25.062-3.71-25.48-6.97-25.387-10.155-24.766-13.184-23.652-15.988-22.067-18.493-20.05-20.644-17.657-22.379-14.937-23.66-11.965-24.453-8.809-24.735-5.55-24.496-2.258-23.738.972-22.48 4.078-20.747 6.977-18.578 9.602-16.011 11.878-13.118 13.766-9.96 15.211-6.602 16.18-3.125 16.648.387 16.606 3.867 16.043 7.222 14.988 10.383 13.453 13.285 11.484 15.848 9.114 18.024 6.406 19.765 3.426 21.031.242 21.797-3.074 22.047-6.434 21.778-9.773 21.003-13 19.739-16.04 18.027-18.828 15.902-21.285 13.422-23.367 10.653-25.012 7.656-26.187 4.508-26.86 1.293-27.015-1.918-26.652-5.04-25.766-8-24.395-10.722-22.55-13.137-20.293-15.187-17.657-16.825-14.718-17.996-11.54-18.683-8.187-18.863-4.75-18.52-1.3-17.672 2.081-16.332 5.313-14.523 8.324-12.29 11.043-9.687 13.414-6.762 15.375-3.597 16.887-.254 17.914 3.187 18.433 6.653 18.446 10.054 17.937 13.317 16.938 16.367 15.46 19.133 13.555 21.547 11.258 23.562 8.64 25.129 5.759 26.207 2.68 26.777-.512 26.832-3.743 26.36-6.925 25.379-9.989 23.918-12.855 22.011-15.457 19.696-17.723 17.035-19.594 14.094-21.035 10.937-21.996 7.649-22.457 4.3-22.398.97-21.825-2.263-20.746-5.312-19.175-8.117-17.157-10.606-14.726L446.98 46.23l-14.406-8.875-15.633-5.574-16.367-2.136-16.59 1.378-16.3 4.883L352.18 44.2l-14.223 11.543-12.48 14.547-10.332 17.242-7.817 19.57-5 21.481-1.957 22.922 1.254 23.875 4.543 24.312 7.832 24.23 11.047 23.634 14.11 22.539 16.937 20.976 19.472 18.98 21.645 16.606 23.406 13.918 24.711 10.969 25.524 7.844L496.68 364l25.605 1.355 24.871-1.847 23.63-4.918 21.913-7.781 19.758-10.364 17.215-12.61 14.336-14.452 11.191-15.86 7.852-16.789 4.39-17.214.891-17.125-2.57-16.528-5.914-15.426-9.059-13.851-11.945-11.832-14.496-9.422-16.657-6.676-18.386-3.652-19.645-.43-20.394 2.93-20.637 6.328-20.36 9.707-19.578 12.973-18.308 16.05-16.59 18.871-14.461 21.372-11.984 23.484-9.211 25.168-6.219 26.375-3.074 27.086.133 27.273 3.336 26.942 6.449 26.093 9.394 24.75 12.102 22.946 14.504 20.719 16.535 18.12 18.152 15.212 19.309 12.07 19.972 8.754 20.125 5.351 19.762 1.938 18.89-1.41 17.52-4.602 15.692-7.578 13.43-10.262 10.796-12.597 7.852-14.52 4.656-15.996 1.281-16.984-2.183-17.477-5.676-17.45-9.105-16.91-12.399-15.874-15.473-14.368-18.261-12.433-20.711-10.11-22.75-7.464-24.348-4.551-25.45-1.457-26.054 1.762-26.133 5.007-25.691 8.211-24.746 11.293-23.313 14.172-21.433 16.79-19.156 19.062-16.532 20.945-13.625 22.395-10.504 23.363-7.253 23.828-3.942 23.773-.648 23.207 2.539 22.125 5.547 20.563 8.308 18.539 10.754 16.113 12.824 13.328 14.47 10.258 15.651 6.961 16.336 3.512h16.52l16.18-3.504 15.34-6.918 14.011-10.168 12.23-13.18 10.036-15.879 7.476-18.207 4.625-20.125 1.532-21.57-1.711-22.531-5.04-22.977-8.37-22.902-11.618-22.316-14.715-21.23-17.578-19.677-20.144-17.699-22.352-15.34-24.14-12.668-25.473-9.738-26.316-6.629-26.645-3.422-26.453-.191-25.742 2.988-24.532 6.031-22.835 8.864-20.708 11.421-18.187 13.63-15.336 15.445-12.215 16.816-8.898 17.707-5.465 18.098-1.988 17.972 1.449 17.336 4.765 16.2 7.891 14.582 10.75 12.53 13.277 10.079 15.418 7.293 17.125 4.234 18.356.97 19.094-2.423 19.308-5.863 19.016-9.277 18.215-12.578 16.93-15.692 15.199-18.55 13.054-21.087 10.567-23.23 7.78-24.953 4.786-26.192 1.633-26.933-1.578-27.16-4.781-26.864-7.899-26.05-10.84-24.743-13.543-22.972-15.941-20.778-17.969-18.218-19.574-15.352-20.719-12.238-21.37-8.965-21.513-5.602-21.136-2.226-20.246 1.078-18.868 4.234-17.011 7.168-14.743 9.809-12.09 12.101-9.12 13.989-5.915 15.418-2.52 16.37.97 16.817 4.476 16.75 7.926 16.176 11.234 15.098 14.328 13.554 17.145 11.578 19.61 9.223 21.667 6.543 23.286 3.598 24.414.468 25.035-2.777 25.136-6.05 24.723-9.286 23.8-12.387 22.392-15.296 20.543-17.926 18.289-20.227 15.695-22.129 12.816-23.593 9.735-24.575 6.511-25.058 3.235-25.024-.016-24.46-3.172-23.399-6.14-21.84-8.864-19.832-11.265-17.418-13.297-14.644-14.895-11.579-16.035-8.292-16.68-4.856-16.812-1.348-16.434 2.145-15.546 5.555-14.18 8.796-12.348 11.797-10.11 14.489-7.507 16.816-4.613 18.723-1.48 20.168 1.804 21.12 5.176 21.567 8.543 21.488 11.832 20.899 14.96 19.82 17.868 18.266 20.465 16.289 22.707 13.941 24.535 11.27 25.898 8.351 26.774 5.258 27.136 2.059 26.973-1.16 26.3-4.32 25.114-7.344 23.453-10.157 21.356-12.691 18.867-14.879 16.047-16.672 12.957-18.012 9.672-18.879 6.27-19.238 2.823-19.086-.578-18.422-3.863-17.25-6.96-15.601-9.782-13.516L566.14 98.16l-14.391-8.215-16.066-5.125-17.266-1.828-17.973 1.594-18.16 5.07-17.836 8.516-17.012 11.848-15.699 14.992-13.941 17.886-11.781 20.446-9.266 22.629-6.465 24.379-3.445 25.652-.281 26.426 2.945 26.683 6.164 26.418 9.285 25.637 12.242 24.363 14.95 22.63 17.351 20.468 19.379 17.945 20.992 15.113L512 453.73l22.79 8.805 22.925 5.48 22.547 2.15 21.652-1.118 20.266-4.235 18.406-7.12 16.129-9.723L670.184 436l10.496-13.813 7.273-15.199 3.879-16.105.379-16.508-3.14-16.398-6.598-15.774-9.914-14.66-13.024-13.07-15.844-11.055-18.32-8.66-20.394-5.934-22.02-2.957-23.164.215-23.797 3.492-23.918 6.805-23.512 10.066-22.609 13.207-21.219 16.141-19.39 18.805-17.157 21.129-14.582 23.062-11.73 24.547-8.672 25.559-5.477 26.062-2.23 26.05.996 25.513 4.113 24.464 7.055 22.93 9.742 20.945 12.106 18.547 14.097 15.793 15.664 12.746 16.762 9.48 17.367 6.063 17.461 2.574 17.04-.906 16.109-4.293 14.699-7.515 12.832-10.5 10.547-13.18 7.91-15.484 4.965-17.38 1.8-18.804-1.53-19.746-4.938-20.176-8.344-20.09-11.672-19.484-14.843-18.395-17.782-16.84-20.418-14.851-22.695-12.496-24.555-9.824-25.957-6.907-26.867-3.808-27.262-.617-27.14 2.601-26.492 5.754-25.348 8.77-23.719 11.574-21.656 14.094-19.203 16.27-16.414 18.042-13.368 19.371-10.113 20.219-6.75 20.562-3.34 20.387.024 19.7 3.273 18.507 6.328 16.836 9.118 14.73 11.574 12.223 13.644 9.38 15.282 6.265 16.449 2.941 17.113-.508 17.266-4.004 16.91-7.472 16.043-10.832 14.703-14.008 12.91-16.918 10.715-19.508 8.172-21.719 5.344-23.488 2.296-24.789-.89-25.594-4.145-25.875-7.383-25.636-10.523-24.887-13.5-23.64-16.223-21.938-18.64-19.813-20.684-17.316-22.305-14.52-23.46-11.484-24.122-8.281-24.265-4.992-23.899-1.7-23.007 1.524-21.622 4.597-19.773 7.45-17.496 10.004-14.84 12.21-11.871 14.004-8.648 15.352-5.258 16.215-1.758 16.566 1.758 16.414 5.215 15.746 8.535 14.586 11.636 12.953 14.465 10.891 16.938 8.453 19.012 5.688 20.64 2.664 21.785-.543 22.426-3.864 22.55-7.214 22.15-10.516 21.253-13.688 19.875-16.66 18.051-19.359 15.832-21.715 13.273-23.676 10.434-25.199 7.39-26.238 4.22-26.774.984-26.785-2.211-26.277-5.313-25.262-8.222-23.754-10.88-21.793-13.222-19.425-15.183-16.696-16.715-13.68-17.782-10.437-18.351-7.047L201.34 93.2l-17.953-.136-16.996 3.226-15.543 6.422-13.637 9.383-11.32 12.031-8.645 14.313-5.664 16.18-2.46 17.581.905 18.5 4.348 18.906 7.793 18.793 11.152 18.176 14.36 17.059 17.332 15.484 20.004 13.485 22.316 11.109 24.211 8.426 25.644 5.496 26.59 2.39 27.02-.816 26.93-4.031 26.316-7.196 25.207-10.21 23.613-13.016 21.59-15.531 19.168-17.707 16.418-19.477 13.406-20.8 10.196-21.637 6.867-21.97 3.5-21.788.176-21.086-3.036-19.883-6.046-18.203-8.793-16.078-11.211-13.559-13.239-10.7-14.832-7.57-15.953-4.23-16.578-.77-16.687 2.747-16.29 6.23-15.386 9.606-14 12.797L339.96 80.87l-9.938 18.332-7.359 20.559-4.496 22.347-1.414 23.668 1.808 24.489 5.09 24.793 8.36 24.574 11.531 23.847 14.527 22.625 17.282 20.946 19.718 18.84 21.79 16.379 23.425 13.609 24.602 10.598 25.281 7.43 25.445 4.175 25.09.914 24.219-2.273 22.851-5.313 21.012-8.125 18.746-10.64 16.106-12.805 13.152-14.563 9.941-15.863 6.56-16.684 3.073-16.996-.433-16.796-3.875-16.086-7.184-14.88-10.277-13.206-13.094-11.102-15.555-8.617-17.625-5.813-19.242-2.742-20.379.504-21.015 3.863-21.13 7.254-20.726 10.598L486 222.516l-18.445 16.816-16.625 19.55-14.407 21.942-11.847 23.946-9.016 25.496-5.98 26.566-2.813 27.14.403 27.184 3.593 26.711 6.676 25.727 9.57 24.25 12.215 22.324 14.531 19.984 16.473 17.293 17.985 14.309 19.023 11.098 19.57 7.742 19.602 4.312 19.12.899 18.13-2.43 16.652-5.594 14.715-8.515 12.371-11.13 9.66-13.382 6.657-15.211 3.417-16.586.024-17.469-3.45-17.84-6.925-17.699-10.313-17.047-13.55-15.906-16.555-14.3-19.258-12.274-21.594-9.879-23.523-7.168-24.984-4.215-25.961-1.09-26.422 2.13-26.364 5.366-25.78 8.54-24.704 11.57-23.144 14.387-21.149 16.914-18.77 19.093-16.054 20.868-13.074 22.195-9.907 23.039-6.613 23.371-3.285 23.187v22.489l3.164 21.281 6.137 19.598 8.84 17.468 11.21 14.95 13.196 12.086 14.746 8.949 15.82 5.61 16.403 2.136 16.468-1.383 16.028-4.871 15.074-8.254 13.648-11.453 11.774-14.387 9.5-17 6.879-19.234 3.972-21.035.856-22.367-2.402-23.192-5.727-23.512-9.027-23.304-12.235-22.59-15.265-21.38-18.051-19.718-20.516-17.633-22.613-15.187-24.281-12.438-25.485-9.449-26.191-6.308-26.379-3.075-26.047.157-25.2 3.32-23.855 6.324-22.039 9.106-19.797 11.59-17.175 13.718-14.246 15.438-11.055 16.703-7.695 17.484-4.235 17.762-.746 17.52 2.676 16.773 5.96 15.523L87 550.754l11.832 11.668 14.273 9.14 16.32 6.293 17.927 3.192 19.039-.102 19.656-3.496 19.758-6.926 19.343-10.304 18.426-13.559 17.035-16.597 15.204-19.372 12.972-21.8 10.41-23.832 7.57-25.426 4.532-26.531 1.363-27.133-1.851-27.219-5.043-26.777-8.118-25.825-11.007-24.386L273 259.266l-15.953-20.192-17.883-17.535-19.375-14.586-20.406-11.414-20.938-8.098-20.953-4.707-20.449-1.328-19.441 1.961-17.946 5.086-15.988 7.969-13.621 10.543-10.89 12.754-7.868 14.547-4.602 15.875-1.19 16.722 2.308 17.055 5.8 16.875 9.215 16.187 12.477 15.008 15.5 13.367 18.223 11.31 20.59 8.878 22.535 6.137 24.027 3.156h25.023l25.508-3.246 25.477-6.508 24.925-9.707 23.868-12.758 22.343-15.59 20.375-18.14 18.024-20.336 15.344-22.125 12.394-23.465 9.258-24.324 6.008-24.664 2.71-24.496-.53-23.801-3.66-22.606-6.594-20.93-9.254-18.812-11.582-16.293-13.524-13.437-15.031-10.309-16.063-6.969-16.597-3.508-16.621.012-16.13 3.492-15.136 6.875-13.664 10.063-11.746 13-9.426 15.613-6.766 17.84-3.816 19.637-.656 20.969 2.644 21.8 6.008 22.114 9.344 21.91 12.59 21.199 15.66 20 18.476 18.336 20.98 16.265 23.11 13.825 24.813 11.09 26.043 8.113 26.785 4.984 27.004 1.77 26.7-1.442 25.882-4.586 24.57-7.57 22.781-10.324 20.567-12.785 17.98-14.887 15.075-16.578 11.918-17.813 8.585-18.566 5.149-18.809 1.695-18.535-1.695-17.754-4.957-16.472-8-14.723-10.766-12.547-13.18-9.984-15.199-7.106-16.773-3.965-17.863-.64-18.454 2.793-18.527 6.254-18.086 9.668-17.148 12.953-15.735 16.027-13.879 18.836-11.636 21.297-9.051 23.363-6.2 24.985-3.144 26.129.035 26.761L398 312.58l6.457 26.472L414 364.605l12.434 24.153 15.074 22.293 17.387 20.027 19.308 17.406 20.809 14.496 21.832 11.364 22.355 8.082 22.364 4.73 21.859 1.395 20.836-1.856 19.332-4.933 17.367-7.778 14.988-10.308 12.25-12.477 9.207-14.226 5.938-15.512 2.508-16.313-1-16.601-4.504-16.383-7.938-15.652-11.207-14.43-14.246-12.746-16.984-10.649-19.364-8.18-21.324-5.402-22.832-2.382-23.844.808-24.351 4.086L497.922 315l-23.797 10.61-22.766 13.69-21.257 16.555-19.317 19.13-16.984 21.347-14.332 23.164-11.41 24.524-8.305 25.402-5.078 25.77-1.817 25.613 1.395 24.941 4.488 23.766 7.383 22.101 10.008 20.004 12.3 17.5 14.204 14.66 15.664 11.547 16.66 8.227 17.152 4.773 17.133 1.278 16.598-2.196 15.562-5.558 14.047-8.739 12.086-11.656 9.727-14.258 7.02-16.472 4.027-18.262.828-19.574-2.512-20.399-5.914-20.703-9.293-20.492-12.574-19.773-15.684-18.567-18.539-16.902-21.078-14.824-23.242-12.387-24.98-9.652-26.247-6.68-27.023-3.551-27.274-.348-27.008 2.86-26.218 5.988-24.942 8.961-23.187 11.703-21.012 14.149-18.453 16.23-15.582 17.902-12.461 19.118-9.16 19.847-5.766 20.07-2.344 19.774 1.012 18.96 4.238 17.661 7.243 15.883 9.972 13.676 12.352 11.093 14.336 8.18 15.87 5.016 16.927 1.66 17.484-1.797 17.523-5.29 17.051-8.73 16.078-12.039 14.637-15.144 12.75-17.98 10.473-20.47 7.87-22.562 4.99-24.215 1.91-25.383-1.29-26.05-4.539-26.192-7.75-25.82-10.851-24.93-13.758-23.558-16.41-21.735-18.73-19.5-20.669-16.918-22.172-14.035-23.203-10.941-23.73-7.7-23.746-4.386-23.239-1.09-22.226 2.117-20.715 5.156-18.754 7.957-16.375 10.45-13.633 12.566-10.594 14.274-7.32 15.52-3.89 16.269-.38 16.515 3.133 16.25 6.563 15.477 9.836 14.207L59.8 440.117l15.625 10.34 18.004 7.828 19.972 5.008 21.485 1.95 22.508-1.278 23.015-4.602 23.012-7.93 22.484-11.195 21.465-14.308 19.965-17.207 18.039-19.813 15.73-22.062 13.086-23.91 10.188-25.301 7.098-26.207 3.898-26.598.66-26.473-2.527-25.824-5.594-24.676-8.46-23.039-11.056-20.96-13.312-18.485-15.184-15.672-16.613-12.578-17.566-9.281-18.028-5.86-17.968-2.379-17.399 1.067-16.324 4.406-14.77 7.559-12.77 10.457-10.37 13.035-7.63 15.226-4.597 16.993-1.355 18.285 2.02 19.09 5.46 19.37 8.875 19.145 12.196 18.41 15.335 17.184 18.23 15.508 20.806 13.418 23.004 10.965 24.777 8.218 26.078 5.247 26.887 2.109 27.175-1.098 26.942-4.308 26.191-7.438 24.946-10.406 23.23-13.145 21.082-15.586 18.567-17.66 15.734-19.324 12.644-20.527 9.387-21.246 6.027-21.454 2.649-21.144-.672-20.32-3.855-18.996-6.82-17.204-9.509-14.984-11.847-12.379-13.79-9.45-15.28-6.265-16.301-2.89-16.817.586-16.812 4.093-16.301 7.555-15.293 10.887-13.809 14.015-11.886 16.864-9.578 19.375-6.938 21.492-4.023 23.164-.914 24.355 2.316 25.043 5.59 25.207 8.832 24.86L361 280.965l14.89 22.648 17.56 20.852 19.902 18.648 21.859 16.09 23.379 13.242 24.422 10.18 24.968 6.973 25 3.695 24.504.43 23.5-2.739 22.004-5.738 20.055-8.496 17.68-10.95 14.953-13.027 11.918-14.687 8.656-15.89 5.234-16.598 1.73-16.801-1.769-16.492-5.195-15.668-8.46-14.36-11.5-12.59-14.235-10.402-16.61-7.847-18.574-4.985-20.082-1.883-21.098 1.387-21.609 4.746-21.598 8.117-21.074 11.422-20.05 14.57-18.56 17.508-16.636 20.149-14.328 22.437-11.695 24.313-8.805 25.738-5.73 26.68-2.54 27.101.684 27.008 3.855 26.395 6.903 25.27 9.746 23.667 12.32 21.621 14.555 19.18 16.402 16.39 17.805 13.333 18.73 10.07 19.16 6.672 19.075 3.226 18.472-.187 17.368-3.492 15.78-6.621 13.75-9.48 11.321-12.028 8.54-14.192 5.476-15.922 2.207-17.191-1.203-17.957-4.676-18.219-8.125-17.96-11.477-17.196-14.648-15.95-17.574-14.245-20.184-12.133-22.414-9.664-24.215-6.895-25.554-3.902-26.387-.754-26.715 2.473-26.508 5.691-25.797 8.832-24.578 11.809-22.898 14.554-20.79 17-18.308 19.075-15.508 20.742-12.46 21.949-9.243 22.664-5.918 22.867-2.582 22.555.7 21.723 3.835 20.398 6.766 18.602 9.406 16.367 11.703 13.758 13.598 10.82 15.055 7.625 16.02 4.25 16.491.754 16.45-2.762 15.894-6.23 14.84-9.575 13.312-12.707 11.352-15.574 9-18.094 6.32-20.218 3.368-21.907.222-23.113-3.043-23.808-6.355-23.997-9.63-23.656-12.78-22.816-15.75-21.485-18.446-19.707-20.82-17.52-22.797-14.987-24.348-12.168-25.414-9.125-25.984-5.946-26.035-2.699-25.563.535-24.578 3.672-23.105 6.64-21.172 9.364-18.82 11.781-16.11 13.82-13.094 15.442-9.851 16.605-6.445 17.278-2.961 17.437.523 17.082 3.926 16.223 7.18 14.867 10.199 13.059 12.918 10.832 15.277 8.23 17.227 5.332 18.714 2.184 19.723-1.121 20.215-4.524 20.195-7.933 19.66-11.274 18.63-14.465 17.128-17.437 15.2-20.113 12.886-22.438 10.25-24.351 7.36-25.813 4.28-26.781 1.095-27.246-2.118-27.184-5.289-26.605-8.324-25.516-11.16-23.945-13.723-21.938-15.941-19.523-17.774-16.777-19.156-13.754-20.07-10.524-20.48-7.164-20.368-3.758-19.75-.379-18.617 2.891-17.012 5.977-14.953 8.804-12.5 11.309-9.695 13.437-6.613 15.13-3.313 16.359.125 17.093 3.621 17.313 7.094 17.02 10.469 16.222 13.672 14.942 16.62 13.207 19.25 11.058 21.512 8.563 23.34 5.765 24.703 2.746 25.567-.43 25.914-3.675 25.742-6.918 25.055-10.078 23.87-13.074 22.22-15.836 20.144-18.293 17.691-20.387 14.926-22.063 11.918-23.277 8.73-24.004 5.446-24.215 2.144-23.906-1.093-23.082-4.192-21.762-7.074-19.968-9.676-17.739-11.933-15.132-13.781-12.196-15.188-9.004-16.117-5.625-16.543-2.14-16.45 1.382-15.85 4.848-14.755 8.192-13.18 11.328-11.18 14.191-8.78 16.715-6.055 18.844-3.067 20.527.122 21.738 3.43 22.446 6.777 22.629 10.085 22.3 13.282 21.465 16.277 20.145 19.012 18.375 21.418 16.203 23.43 13.683 25.007 10.875 26.11 7.856 26.703 4.691 26.785 1.461 26.344-1.746 25.382-4.86 23.942-7.8 22.031-10.5 19.707-12.883 17.024-14.898 14.039-16.489 10.816-17.613 7.442-18.254 3.984-18.379.523-17.992-2.851-17.09-6.078-15.707-9.07-13.855-11.766-11.59-14.098-8.957-16.023-6.016-17.489-2.836-18.468.508-18.938 3.95-18.898 7.39-18.344 10.766-17.29 13.996-15.773 17-13.824 19.715-11.496 22.07-8.851 24.02-5.946 25.515-2.86 26.52.337 27.015 3.558 26.988 6.727 26.442 9.77 25.39 12.601 23.856 15.16 21.879 17.383 19.508 19.203 16.793 20.586 13.808 21.488 10.617 21.887 7.297 21.77 3.93 21.132.59 19.993-2.64 18.37-5.68 16.305-8.47 13.828-10.933 11.016-13.015 7.91-14.668 4.598-15.856 1.148-16.543-2.367-16.726-5.86-16.391-9.25-15.55-12.464-14.231-15.434-12.453-18.086-10.274-20.359-7.738-22.207-4.906-23.59-1.852-24.472 1.356-24.844 4.632-24.688 7.907-24.027 11.093-22.863 14.114-21.235 16.902-19.187 19.383-16.762 21.496-14.027 23.195-11.043 24.43-7.89 25.172-4.638 25.398-1.37 25.113 1.831 24.301 4.89 22.992 7.743 21.211 10.3 19 12.517 16.403 14.324 13.48 15.691 10.301 16.574 6.934 16.957 3.457 16.82-.047 16.18-3.508 15.036-6.84 13.421-9.965 11.375-12.82 8.934-15.332 6.168-17.45 3.133-19.132-.094-20.332-3.445-21.031-6.832-21.211-10.18-20.88-13.414-20.038-16.445-18.72-19.223-16.952-21.656-14.778-23.707-12.261-25.32-9.461-26.454-6.446-27.086-3.293-27.195-.074-26.785 3.121-25.867 6.22-24.446 9.148-22.574 11.824-20.285 14.187-17.633 16.184-14.676 17.75-11.492 18.851-8.144 19.465-4.727 19.563-1.297 19.148 2.047 18.223 5.238 16.805 8.196 14.925 10.855 12.63 13.156 9.968 15.047 6.996 16.48 3.785 17.427.41 17.867-3.058 17.793-6.535 17.21-9.942 16.13-13.195 14.582-16.234 12.609-18.977 10.254-21.363 7.586-23.344 4.66-24.867 1.555-25.903-1.657-26.43-4.894-26.437-8.078-25.918-11.133-24.898-13.98-23.402-16.543-21.458-18.774-19.117-20.601-16.441-21.985-13.492-22.89-10.34-23.29-7.055-23.171-3.73-22.536-.43-21.394 2.758-19.77 5.758-17.695 8.5-15.219 10.921-12.398 12.961-9.293 14.57-5.973 15.712-2.512 16.355 1.004 16.492 4.5 16.114 7.903 15.226 11.125 13.867 14.101 12.043 16.758 9.825 19.043 7.242 20.899 4.375 22.289 1.277 23.183-1.96 23.567-5.282 23.425-8.586 22.778-11.809 21.625-14.863 20.02-17.68 17.984-20.195 15.578-22.336 12.863-24.058 9.906-25.325 6.774-26.09 3.547-26.343.308-26.078-2.863-25.293-5.899-24.008-8.71-22.25-11.239-20.059-13.418-17.48-15.195-14.582-16.52-11.426-17.367-8.078-17.707-4.621-17.539-1.137-16.851 2.3-15.668 5.61L173 84.336l-11.926 11.55-9.445 14.048-6.64 16.144-3.567 17.809-.297 18.988 3.09 19.672 6.52 19.84 9.902 19.488 13.175 18.64 16.247 17.305 19.05 15.524 21.532 13.347 23.613 10.825 25.258 8.015 26.43 4.996 27.097 1.844 27.242-1.375 26.867-4.566 25.977-7.664 24.602-10.582 22.757-13.254 20.504-15.61 17.887-17.586 14.969-19.14 11.824-20.235 8.512-20.824 5.129-20.91 1.742-20.477-1.567-19.527-4.714-18.094-7.637-16.195-10.258-13.875-12.52-11.195-14.367-8.2-15.761-4.964-16.668-1.567-17.075 1.922-16.96 5.422-16.337 8.848-15.222 12.132-13.64 15.188-11.634 17.953-9.246 20.367-6.547 22.367-3.59 23.918-.456 24.98 2.785 25.528 6.043 25.559 9.254 25.074 12.324 24.078 15.195 22.61 17.777 20.691 20.02 18.387 21.867 15.742 23.262 12.824 24.18 9.707 24.593 6.461 24.485 3.168 23.855-.094 22.723-3.238 21.105-6.203 19.04-8.902 16.57-11.282 13.754-13.273 10.652-14.844 7.336-15.937 3.883-16.54.37-16.628-3.124-16.207-6.52-15.278-9.738-13.867-12.711-12.004-15.371-9.738-17.649-7.113-19.507-4.204-20.895-1.066-21.789 2.215-22.176 5.574-22.035 8.918-21.39 12.176-20.247 15.27-18.644 18.124-16.617 20.668-14.227 22.844-11.52 24.602-8.57 25.898-5.457 26.695-2.25 26.985.973 26.742 4.125 25.988 7.133 24.735 9.926 23.004 12.425 20.843 14.578 18.293 16.329 15.426 17.62 12.293 18.438 8.98 18.75 5.551 18.543 2.094 17.824-1.316 16.61-4.594 14.918-7.676 12.797-10.476 10.28-12.946 7.438-15.015 4.328-16.649 1.028-17.805-2.395-18.46-5.86-18.606-9.276-18.23-12.582-17.352-15.692-16-18.527-14.2-21.04-12.003-23.156-9.461-24.836-6.637-26.039-3.605-26.734-.442-26.918 2.786-26.578 5.988-25.723 9.09-24.375 12.015-22.574 14.684-20.351 17.043-17.774 19.02-14.894 20.57-11.782 21.66-8.511 22.246-5.168 22.32-1.82 21.883 1.445 20.926 4.554 19.48 7.43 17.57 10.012 15.243 12.226 12.543 14.035 9.543 15.387 6.293 16.25 2.883 16.61-.618 16.453-4.132 15.789-7.575 14.633-10.867 13.007-13.941 10.961-16.723 8.54-19.144 5.796-21.168 2.805-22.727-.36-23.809-3.636-24.375-6.93-24.425-10.168-23.957-13.27-22.985-16.167-21.531-18.774-19.645-21.047-17.359-22.91-14.742-24.332-11.848-25.273-8.762-25.7-5.542-25.613-2.286-25.008.946-23.886 4.054-22.285 6.985-20.239 9.644-17.785 11.989-14.984 13.941-11.895 15.465-8.597 16.523-5.16 17.082-1.66 17.13 1.82 16.663 5.203 15.692 8.41 14.238L76 523.793l14.008 10.023 16.281 7.356 18.125 4.406 19.504 1.227 20.387-2.102 20.761-5.492 20.621-8.879 19.961-12.18 18.817-15.304 17.207-18.2 15.183-20.777 12.786-22.992 10.086-24.785 7.136-26.117 4.032-26.946.828-27.265-2.383-27.067-5.527-26.34-8.524-25.12-11.3-23.423-13.786-21.296-15.918-18.782-17.644-15.945-18.922-12.852L198 155.375l-20-6.176-19.773-2.754-19.032.618-17.789 3.863-16.07 6.906-13.918 9.676-11.379 12.105-8.508 14.14-5.37 15.743-2.04 16.86 1.41 17.48 4.903 17.59 8.347 17.187 11.684 16.274 14.816 14.89 17.684 13.063 20.222 10.836 22.368 8.27 24.078 5.421 25.304 2.367 26.04-.82 26.242-4.066 25.937-7.29 25.11-10.402 23.796-13.344 22.028-16.027 19.84-18.394 17.293-20.38 14.445-21.94 11.375-23.032 8.144-23.629 4.836-23.707 1.528-23.266-1.696-22.312-4.765-20.871-7.598-18.957-10.133-16.629-12.308-13.934-14.07-10.925-15.376-7.676-16.195-4.266-16.512-.758-16.308 2.758-15.602 6.203-14.394 9.5-12.735 12.578-10.64 15.364-8.172 17.793-5.395 19.816-2.359 21.387.848 22.476 4.16 23.047 7.488 23.11 10.766 22.648 13.902 21.688 16.828 20.25 19.477 18.375 21.77 16.105 23.671 13.504 25.121 10.633 26.086 7.566 26.543 4.367 26.48 1.137 25.903-2.066 24.809-5.157 23.23-8.046 21.207-10.684 18.777-12.992 16.004-14.914 12.938-16.403 9.664-17.422 6.25-17.945 2.773-17.957-.683-17.453-4.043-16.441-7.227-14.95-10.16-13.007-12.781-10.657-15.028-7.953-16.851-4.96-18.211-1.743-19.074 1.617-19.43 5.055-19.266 8.473-18.593 11.812-17.434 14.973-15.809 17.902-13.77 20.52-11.366 22.77-8.653 24.597-5.699 25.957-2.586 26.828.617 27.18 3.832 27.015 6.977 26.325 9.969 25.136 12.742 23.48 15.219 21.384 17.347 18.91 19.067 16.109 20.332 13.05 21.113 9.805 21.383 6.454 21.14 3.066 20.383-.262 19.125-3.472 17.39-6.47 15.22-9.198 12.66-11.59 9.773-13.582 6.614-15.14 3.265-16.223-.203-16.801-3.715-16.871-7.187-16.422-10.535-15.48-13.692-14.055-16.578-12.192-19.137-9.926-21.304-7.328-23.036-4.449-24.289-1.36-25.039 1.856-25.273 5.133-24.984 8.375-24.188 11.52-22.898 14.48-21.153 17.188-18.996 19.57-16.48 21.578-13.668 23.156-10.625 24.262-7.426 24.875-4.152 24.965-.887 24.535 2.305 23.598 5.336 22.16 8.125 20.261 10.62 17.946 12.758 15.254 14.473 12.257 15.734 9.016 16.512 5.61 16.781 2.113 16.536-1.395 15.785-4.832 14.535-8.125 12.824-11.195 10.688-13.973 8.183-16.402 5.356-18.418 2.28-19.984-.968-21.067-4.32-21.644-7.692-21.696-11.003-21.242-14.18-20.277-17.14-18.848-19.825-16.973-22.156-14.71-24.09-12.118-25.57-9.257-26.57-6.196-27.063-3.015-27.031.203-26.48 3.386-25.419 6.457-23.875 9.332-21.879 11.942-19.484 14.226-16.735 16.125-13.703 17.586-10.46 18.582-7.075 19.075-3.633 19.05-.203 18.52 3.121 17.476 6.274 15.954 9.176 13.976 11.77 11.594 13.98 8.86 15.777 5.827 17.105 2.582 17.938-.812 18.265-4.281 18.075-7.735 17.379-11.101 16.187-14.301 14.543-17.258 12.48-19.91 10.055-22.191 7.324-24.047 4.356-25.446 1.223-26.343-1.997-26.73-5.218-26.598-8.375-25.942-11.375-24.785-14.153-23.164-16.636-21.102-18.77-18.664-20.484-15.898-21.754-12.879-22.531-9.672-22.801-6.36-22.551-3.015-21.789.277-20.527 3.442-18.782 6.402-16.605 9.082-14.04 11.43-11.14 13.383-7.976 14.898-4.614 15.93-1.136 16.469 2.386 16.492 5.864 16.004 9.226 15.011 12.39 13.551 15.294 11.64 17.86 9.34 20.042 6.7 21.785 3.777 23.051.656 23.816-2.597 24.063-5.903 23.793-9.187 23.012-12.356 21.742-15.351 20.02-18.086 17.882-20.496 15.387-22.531 12.598-24.133 9.582-25.266 6.41-25.898 3.168-26.012-.074-25.605-3.23-24.684-6.224-23.27-8.984-21.39-11.441-19.09-13.54-16.418-15.214-13.437-16.442-10.22-17.175-6.831-17.407-3.348-17.12.14-16.321 3.563-15.035 6.836-13.282 9.89-11.105 12.653-8.555 15.063-5.687 17.066-2.57 18.621.718 19.688 4.11 20.25 7.52 20.293 10.87 19.824 14.086 18.855 17.086 17.414 19.8 15.54 22.173 13.269 24.14 10.672 25.66 7.808 26.692 4.754 27.215 1.575 27.222-1.641 26.704-4.817 25.68-7.878 24.167-10.739 22.207-13.343 19.844-15.61 17.133-17.492 14.137-18.941 10.93-19.91 7.577-20.387 4.172-20.344.785-19.79-2.507-18.726-5.621-17.172-8.485-15.175-11.039-12.77-13.219-10.008-14.972-6.953-16.262-3.683-17.063-.258-17.351 3.234-17.129 6.711-16.39 10.11-15.176 13.328-13.493 16.316-11.402 18.988-8.945 21.301-6.184 23.18-3.191 24.605-.032 25.535 3.207 25.946 6.454 25.84 9.625 25.214 12.648 24.09 15.441 22.496 17.942 20.47 20.078 18.058 21.813 15.332 23.09 12.343 23.874 9.176 24.153 5.899 23.91 2.593 23.152-.66 21.89-3.781 20.157-6.7 17.977-9.343 15.418-11.644 12.515-13.551 9.356-15.024 5.996-16.011 2.515-16.504zm0 0" stroke="#436eee73" stroke-width=".4" fill="#f2f2f2" fill-rule="evenodd"/>
		<animateTransform attributeType="xml" attributeName="transform" type="rotate" from="0 360 360" to="360 360 360" dur="480s" additive="sum" repeatCount="indefinite" begin="second_event_horizon_start.click" end="second_event_horizon_stop.click"/>
	</g>
	<circle cx="360" cy="360" r="45.72" stroke="NA" fill="#282829"/>
</svg>