<svg xmlns="http://www.w3.org/2000/svg" viewBox="52 32 500 500">
<filter id="turbulence">
	    <feTurbulence type="turbulence" baseFrequency="0.006" numOctaves="2" >
		<animate id="noiseAnimate" attributeName="baseFrequency" values="0.0055;.005;0.0055" from="0" to="50" dur="20s" repeatCount="indefinite" keySplines="0.4 0 0.8 1; 0.4 0 0.8 1" calcMode="spline"></animate>
		</feTurbulence>
		</filter>
	<rect x="52" y="32" width="500px" height="500px" filter="url(#turbulence)"/>
	<path fill="#6a5acd" d="M507.734 280.8l-.101-6.448-.305-6.446-.508-6.43-.707-6.41-.906-6.386-1.11-6.356-1.308-6.316-1.508-6.274-1.699-6.218-1.898-6.168-2.09-6.102-2.281-6.035-2.47-5.957-2.652-5.879-2.84-5.793-3.015-5.703-3.195-5.602-3.371-5.5-3.543-5.39-3.707-5.278-3.875-5.16-4.032-5.035-4.191-4.902-4.34-4.774-4.488-4.633-4.633-4.488-4.774-4.34-4.902-4.187-5.035-4.035-5.156-3.871-5.278-3.711-5.394-3.543-5.5-3.368-5.602-3.199-5.699-3.015-5.793-2.84-5.879-2.653-5.96-2.468-6.036-2.282-6.101-2.09-6.164-1.894-6.223-1.703-6.274-1.508-6.316-1.305-6.355-1.109-6.383-.91-6.414-.707-6.43-.508-6.441-.305-6.454-.101-6.449.101-6.441.305-6.43.508-6.414.707-6.387.91-6.351 1.11-6.317 1.304-6.273 1.508-6.223 1.703-6.164 1.895-6.101 2.09-6.036 2.28-5.96 2.47-5.88 2.652-5.792 2.84-5.7 3.015-5.605 3.2-5.5 3.367-5.39 3.543-5.278 3.71-5.156 3.872-5.035 4.035-4.907 4.187-4.77 4.34-4.632 4.488-4.488 4.633-4.34 4.774-4.191 4.902-4.032 5.035-3.875 5.16-3.707 5.278-3.543 5.39-3.37 5.5-3.196 5.602-3.02 5.703-2.836 5.793-2.656 5.879-2.469 5.957-2.277 6.035-2.09 6.102-1.898 6.168-1.7 6.218-1.507 6.274-1.309 6.316-1.11 6.356-.906 6.386-.71 6.41-.504 6.43-.305 6.446-.102 6.449.102 6.449.305 6.441.504 6.434.71 6.41.907 6.387 1.11 6.355 1.308 6.317 1.508 6.27 1.699 6.222 1.898 6.164 2.09 6.105 2.277 6.032 2.47 5.96 2.655 5.88 2.836 5.793 3.02 5.699 3.195 5.605 3.371 5.5 3.543 5.39 3.707 5.278 3.875 5.156 4.031 5.036 4.192 4.906 4.34 4.77 4.488 4.632 4.633 4.488 4.77 4.344 4.906 4.188 5.035 4.035 5.156 3.871 5.277 3.71 5.391 3.54 5.5 3.371 5.605 3.195 5.7 3.02 5.793 2.836 5.879 2.656 5.96 2.469 6.036 2.281 6.101 2.086 6.164 1.898 6.223 1.704 6.273 1.503 6.317 1.31 6.351 1.108 6.387.91 6.414.708 6.43.504 6.441.304 6.45.102 6.453-.102 6.441-.304 6.43-.504 6.414-.707 6.383-.91 6.355-1.11 6.316-1.308 6.274-1.504 6.223-1.704 6.164-1.898 6.101-2.086 6.035-2.281 5.961-2.469 5.88-2.656 5.792-2.836 5.7-3.02 5.6-3.195 5.5-3.371 5.395-3.54 5.278-3.71 5.156-3.871 5.035-4.035 4.902-4.188 4.774-4.344 4.633-4.488 4.488-4.633 4.34-4.77 4.191-4.905 4.032-5.036 3.875-5.156 3.707-5.277 3.543-5.39 3.37-5.5 3.196-5.606 3.016-5.7 2.84-5.792 2.652-5.88 2.469-5.96 2.28-6.032 2.09-6.105 1.899-6.164 1.7-6.223 1.507-6.27 1.309-6.316 1.109-6.355.906-6.387.707-6.41.508-6.434.305-6.441zm0 0"/>
	<path fill="#e5e5e5" stroke="#6a5acd" stroke-linecap="round" stroke-linejoin="round" stroke-miterlimit="10" stroke-width=".873" d="M477.047 280.8l-.086-5.488-.258-5.48-.433-5.469-.602-5.453-.773-5.43-.942-5.406-1.113-5.37-1.281-5.337-1.446-5.293-1.613-5.242-1.777-5.191-1.942-5.133-2.097-5.067-2.258-5.004-2.414-4.925-2.567-4.848-2.718-4.766-2.868-4.68-3.011-4.585-3.157-4.488-3.293-4.387-3.43-4.281-3.566-4.172-3.691-4.059-3.816-3.941-3.942-3.817-4.058-3.691-4.172-3.563-4.282-3.433-4.386-3.293-4.489-3.153-4.586-3.015-4.68-2.863-4.765-2.72-4.848-2.57-4.925-2.41-5-2.257-5.07-2.102-5.133-1.938-5.192-1.777-5.242-1.613-5.293-1.45-5.336-1.28-5.371-1.114-5.406-.941-5.43-.774-5.453-.601-5.469-.43-5.48-.262-5.489-.086-5.484.086-5.48.262-5.47.43-5.452.601-5.434.774-5.402.941-5.375 1.113-5.332 1.282-5.293 1.449-5.246 1.613-5.188 1.777-5.133 1.938-5.07 2.102-5 2.257-4.926 2.41-4.851 2.57-4.766 2.72-4.676 2.863-4.586 3.015-4.488 3.153-4.387 3.293-4.28 3.433-4.173 3.563-4.058 3.691-3.942 3.817-3.816 3.941-3.695 4.059-3.563 4.172-3.43 4.28-3.293 4.388-3.156 4.488-3.012 4.586-2.867 4.68-2.719 4.765-2.566 4.848-2.414 4.925-2.258 5.004-2.097 5.067-1.942 5.133-1.777 5.191-1.613 5.242-1.446 5.293-1.281 5.336-1.113 5.371-.946 5.406-.77 5.43-.605 5.453-.43 5.469-.257 5.48-.086 5.489.086 5.484.258 5.48.43 5.47.605 5.452.77 5.434.945 5.406 1.113 5.371 1.281 5.336 1.446 5.29 1.613 5.246 1.777 5.19 1.942 5.13 2.097 5.07 2.258 5 2.414 4.926 2.566 4.851 2.72 4.766 2.866 4.676 3.012 4.586 3.156 4.488 3.293 4.387 3.43 4.285 3.563 4.172 3.695 4.055 3.816 3.941 3.942 3.82 4.058 3.692 4.172 3.562 4.281 3.43 4.387 3.293 4.488 3.156 4.586 3.012 4.676 2.867 4.766 2.719 4.851 2.566 4.926 2.414 5 2.258 5.07 2.102 5.133 1.937 5.188 1.777 5.246 1.614 5.293 1.449 5.332 1.277 5.375 1.114 5.402.945 5.434.773 5.453.602 5.469.43 5.48.257 5.484.086 5.489-.086 5.48-.257 5.469-.43 5.453-.602 5.43-.773 5.406-.945 5.371-1.114 5.336-1.277 5.293-1.45 5.242-1.613 5.192-1.777 5.132-1.937 5.07-2.102 5-2.258 4.926-2.414 4.848-2.566 4.766-2.719 4.68-2.867 4.585-3.012 4.489-3.156 4.386-3.293 4.282-3.43 4.172-3.562 4.058-3.692 3.942-3.82 3.816-3.941 3.691-4.055 3.567-4.172 3.43-4.285 3.292-4.387 3.157-4.488 3.011-4.586 2.868-4.676 2.718-4.765 2.567-4.852 2.414-4.926 2.258-5 2.097-5.07 1.942-5.13 1.777-5.19 1.613-5.247 1.446-5.289 1.28-5.336 1.114-5.37.942-5.407.773-5.433.602-5.454.433-5.468.258-5.48zm0 0"/>
	<path fill="#050505" stroke="#6a5acd" stroke-linecap="round" stroke-linejoin="round" stroke-miterlimit="10" stroke-width=".873" d="M302.398 106.152l-36.308 3.817-34.727 11.285-31.617 18.254-27.133 24.43-21.46 29.539-14.852 33.355-7.59 35.711v36.512l7.59 35.715 14.851 33.351 21.461 29.54 27.133 24.429 31.617 18.258 34.727 11.28 36.308 3.817 36.313-3.816 34.723-11.281 31.62-18.258 27.134-24.43 21.46-29.539L468.5 334.77l7.59-35.715v-36.512l-7.59-35.711-14.852-33.355-21.46-29.54-27.133-24.43-31.621-18.253-34.723-11.285zm0 0"/>
	<path fill="#dedede" stroke="#6a5acd" stroke-linecap="round" stroke-linejoin="round" stroke-miterlimit="10" stroke-width=".879" d="M476.09 280.8l-.086-5.456-.258-5.45-.426-5.44-.601-5.423-.77-5.402-.937-5.375-1.106-5.344-1.273-5.305-1.442-5.261-1.601-5.215-1.77-5.164-1.93-5.106-2.085-5.039-2.246-4.972-2.399-4.903-2.555-4.82-2.703-4.738-2.851-4.653-2.996-4.562-3.137-4.465-3.277-4.363-3.41-4.258-3.543-4.149-3.672-4.035-3.797-3.918-3.922-3.797-4.035-3.671-4.149-3.547-4.258-3.41-4.363-3.278-4.465-3.136-4.558-2.997-4.653-2.851-4.742-2.703-4.82-2.551-4.902-2.402-4.973-2.246-5.04-2.086-5.105-1.93-5.16-1.766-5.215-1.605-5.265-1.442-5.305-1.273-5.344-1.106-5.375-.937-5.402-.77-5.422-.597-5.441-.43-5.45-.258-5.457-.086-5.453.086-5.453.258-5.437.43-5.422.597-5.403.77-5.375.938-5.343 1.105-5.305 1.273-5.266 1.442-5.214 1.605-5.16 1.766-5.106 1.93-5.043 2.086-4.973 2.246-4.898 2.402-4.824 2.55-4.739 2.704-4.652 2.851-4.559 2.997-4.464 3.136-4.364 3.278-4.257 3.41-4.149 3.547-4.039 3.672-3.918 3.796-3.797 3.918-3.672 4.036-3.543 4.148-3.41 4.258-3.277 4.363-3.137 4.465-2.996 4.562-2.852 4.653-2.703 4.738-2.554 4.82-2.399 4.903-2.246 4.972-2.09 5.04-1.926 5.105-1.77 5.164-1.605 5.215-1.437 5.261-1.273 5.305-1.106 5.344-.941 5.375-.766 5.402-.602 5.422-.425 5.442-.258 5.449-.086 5.457.086 5.453.258 5.453.425 5.438.602 5.425.766 5.403.941 5.375 1.106 5.34 1.273 5.308 1.437 5.262 1.606 5.215 1.77 5.164 1.925 5.101 2.09 5.043 2.246 4.973 2.399 4.898 2.554 4.825 2.703 4.738 2.852 4.652 2.996 4.563 3.137 4.46 3.277 4.364 3.41 4.262 3.543 4.148 3.672 4.035 3.797 3.918 3.918 3.797 4.04 3.672 4.148 3.543 4.257 3.414 4.364 3.273 4.464 3.137 4.559 2.996 4.652 2.852 4.739 2.703 4.824 2.555 4.898 2.398 4.973 2.246 5.043 2.09 5.105 1.93 5.16 1.765 5.215 1.606 5.266 1.437 5.305 1.274 5.343 1.11 5.375.937 5.403.77 5.422.597 5.437.43 5.453.253 5.453.086 5.457-.086 5.45-.254 5.441-.43 5.422-.597 5.402-.77 5.375-.937 5.344-1.11 5.305-1.273 5.265-1.437 5.215-1.606 5.16-1.765 5.106-1.93 5.039-2.09 4.973-2.246 4.902-2.398 4.82-2.555 4.742-2.703 4.653-2.852 4.558-2.996 4.465-3.137 4.363-3.273 4.258-3.414 4.149-3.543 4.035-3.672 3.922-3.797 3.797-3.918 3.671-4.035 3.543-4.148 3.41-4.262 3.278-4.363 3.137-4.461 2.996-4.563 2.851-4.652 2.703-4.738 2.555-4.825 2.399-4.898 2.246-4.973 2.086-5.043 1.93-5.101 1.769-5.164 1.601-5.215 1.442-5.262 1.273-5.308 1.106-5.34.937-5.375.77-5.403.601-5.425.426-5.438.258-5.453zm0 0"/>
	<path fill="#050505" stroke="#6a5acd" stroke-linecap="round" stroke-linejoin="round" stroke-miterlimit="10" stroke-width=".879" d="M302.398 107.11l-37.336 4.062-35.593 11.992-32.18 19.363-27.27 25.828-21.074 31.086-13.902 34.891-6.078 37.066 2.035 37.5 10.047 36.192 17.594 33.183 24.312 28.625 29.902 22.727 34.086 15.773 36.68 8.075h37.559l36.68-8.075 34.085-15.773 29.903-22.727 24.312-28.625 17.594-33.183 10.047-36.192 2.035-37.5-6.078-37.066-13.903-34.89-21.074-31.087-27.27-25.828-32.179-19.363-35.594-11.992zm0 0"/>
	<path fill="#d6d6d6" stroke="#6a5acd" stroke-linecap="round" stroke-linejoin="round" stroke-miterlimit="10" stroke-width=".885" d="M475.07 280.8l-.086-5.425-.254-5.418-.425-5.406-.594-5.39-.766-5.372-.933-5.344-1.098-5.312-1.27-5.274-1.43-5.234-1.593-5.184-1.758-5.132-1.918-5.075-2.074-5.011-2.234-4.942-2.387-4.87-2.54-4.798-2.687-4.71-2.832-4.626-2.976-4.53-3.121-4.442-3.258-4.336-3.39-4.235-3.524-4.125-3.649-4.011-3.777-3.895-3.894-3.773-4.012-3.653-4.125-3.523-4.235-3.39-4.335-3.259-4.438-3.117-4.535-2.98-4.625-2.832-4.711-2.688-4.793-2.539-4.875-2.386-4.941-2.231-5.012-2.078-5.074-1.918-5.133-1.758-5.184-1.594-5.234-1.43-5.274-1.265-5.312-1.102-5.344-.933-5.367-.762-5.395-.597-5.406-.426-5.418-.254-5.426-.086-5.421.086-5.418.254-5.41.426-5.391.597-5.371.762-5.344.933-5.309 1.102-5.277 1.266-5.23 1.43-5.184 1.593-5.133 1.758-5.074 1.918-5.012 2.078-4.945 2.23-4.871 2.387-4.793 2.54-4.711 2.687-4.625 2.832-4.535 2.98-4.438 3.117-4.336 3.258-4.234 3.39-4.125 3.524-4.012 3.653-3.894 3.773-3.778 3.895-3.648 4.011-3.524 4.125-3.39 4.235-3.258 4.336-3.121 4.441-2.977 4.531-2.836 4.625-2.687 4.711-2.535 4.797-2.387 4.871-2.234 4.942-2.075 5.011-1.917 5.075-1.758 5.132-1.594 5.184-1.434 5.234-1.265 5.274-1.098 5.312-.934 5.344-.765 5.371-.594 5.39-.426 5.407-.257 5.418-.083 5.426.083 5.422.257 5.418.426 5.41.594 5.39.765 5.372.934 5.343 1.098 5.313 1.265 5.273 1.434 5.23 1.594 5.188 1.757 5.13 1.918 5.073 2.075 5.012 2.234 4.945 2.387 4.871 2.535 4.793 2.687 4.711 2.836 4.625 2.977 4.535 3.121 4.438 3.258 4.34 3.39 4.23 3.524 4.125 3.648 4.012 3.778 3.898 3.894 3.774 4.012 3.652 4.125 3.52 4.234 3.394 4.336 3.254 4.438 3.121 4.535 2.977 4.625 2.836 4.71 2.687 4.794 2.54 4.87 2.386 4.946 2.23 5.012 2.075 5.074 1.918 5.133 1.758 5.184 1.593 5.23 1.434 5.277 1.265 5.309 1.102 5.344.93 5.37.765 5.391.594 5.41.426 5.419.258 5.421.086 5.426-.086 5.418-.258 5.406-.426 5.395-.594 5.367-.765 5.344-.93 5.312-1.101 5.274-1.266 5.234-1.434 5.184-1.593 5.133-1.758 5.074-1.918 5.012-2.074 4.941-2.23 4.875-2.388 4.793-2.539 4.71-2.687 4.626-2.836 4.535-2.977 4.438-3.12 4.335-3.255 4.235-3.394 4.125-3.52 4.012-3.652 3.894-3.774 3.777-3.898 3.649-4.012 3.523-4.125 3.39-4.23 3.259-4.34 3.12-4.438 2.977-4.535 2.832-4.625 2.688-4.71 2.539-4.794 2.387-4.87 2.234-4.946 2.074-5.012 1.918-5.074 1.758-5.129 1.594-5.187 1.43-5.23 1.27-5.274 1.097-5.313.933-5.344.766-5.37.594-5.391.425-5.41.254-5.418zm0 0"/>
	<path fill="#050505" stroke="#6a5acd" stroke-linecap="round" stroke-linejoin="round" stroke-miterlimit="10" stroke-width=".885" d="M302.398 108.129l-38.421 4.328-36.497 12.773-32.738 20.57-27.344 27.34-20.57 32.739-12.77 36.5-4.328 38.422 4.329 38.422 12.77 36.496 20.57 32.738 27.343 27.344 32.738 20.57 36.497 12.77 38.421 4.332 38.426-4.332 36.496-12.77 32.739-20.57 27.34-27.344 20.574-32.738 12.77-36.496 4.327-38.422-4.328-38.422-12.77-36.5-20.574-32.738-27.34-27.34-32.738-20.57-36.496-12.774zm0 0"/>
	<path fill="#cfcfcf" stroke="#6a5acd" stroke-linecap="round" stroke-linejoin="round" stroke-miterlimit="10" stroke-width=".891" d="M473.984 280.8l-.082-5.39-.254-5.383-.425-5.375-.59-5.359-.762-5.336-.926-5.309-1.093-5.277-1.258-5.242-1.422-5.2-1.586-5.152-1.746-5.101-1.902-5.04-2.063-4.98-2.219-4.914-2.37-4.84-2.524-4.765-2.672-4.68-2.817-4.598-2.957-4.504-3.101-4.41-3.235-4.312-3.37-4.207-3.5-4.098-3.63-3.988-3.75-3.867-3.87-3.754-3.989-3.625-4.098-3.504-4.207-3.367-4.312-3.239-4.41-3.097-4.504-2.961-4.598-2.817-4.68-2.672-4.765-2.519-4.84-2.375-4.914-2.215-4.977-2.062-5.043-1.907-5.101-1.746-5.152-1.586-5.2-1.422-5.238-1.257-5.281-1.094-5.309-.926-5.336-.762-5.36-.59-5.37-.421-5.387-.254-5.39-.086-5.387.086-5.387.254-5.371.422-5.36.59-5.335.761-5.309.926-5.281 1.094-5.242 1.257-5.2 1.422-5.148 1.586-5.102 1.746-5.043 1.907-4.98 2.062-4.91 2.215-4.844 2.375-4.762 2.52-4.683 2.671-4.594 2.817-4.508 2.96-4.41 3.098-4.309 3.239-4.207 3.367-4.097 3.504-3.989 3.625-3.87 3.754-3.75 3.867-3.63 3.988-3.5 4.098-3.37 4.207-3.235 4.312-3.102 4.41-2.957 4.504-2.816 4.598-2.672 4.68-2.523 4.765-2.371 4.84-2.22 4.914-2.062 4.98-1.906 5.04-1.746 5.101-1.582 5.153-1.422 5.199-1.262 5.242-1.09 5.277-.93 5.309-.757 5.336-.594 5.36-.422 5.374-.254 5.383-.082 5.39.082 5.391.254 5.383.422 5.375.594 5.356.758 5.336.93 5.312 1.09 5.277 1.261 5.243 1.422 5.199 1.582 5.152 1.746 5.098 1.906 5.043 2.063 4.98 2.219 4.914 2.37 4.84 2.524 4.762 2.672 4.684 2.816 4.593 2.957 4.508 3.102 4.41 3.234 4.309 3.371 4.207 3.5 4.098 3.63 3.988 3.75 3.87 3.87 3.75 3.989 3.63 4.097 3.5 4.207 3.37 4.309 3.24 4.41 3.097 4.508 2.96 4.594 2.817 4.683 2.668 4.762 2.524 4.844 2.37 4.91 2.22 4.98 2.062 5.043 1.906 5.102 1.746 5.148 1.586 5.2 1.422 5.242 1.258 5.281 1.094 5.309.925 5.336.758 5.359.594 5.371.422 5.387.254 5.386.086 5.391-.086 5.387-.254 5.37-.422 5.36-.594 5.336-.758 5.309-.925 5.281-1.094 5.238-1.258 5.2-1.422 5.152-1.586 5.101-1.746 5.043-1.906 4.977-2.063 4.914-2.218 4.84-2.371 4.765-2.524 4.68-2.668 4.598-2.816 4.504-2.961 4.41-3.098 4.312-3.238 4.207-3.371 4.098-3.5 3.988-3.63 3.871-3.75 3.75-3.87 3.63-3.988 3.5-4.098 3.37-4.207 3.235-4.309 3.101-4.41 2.957-4.508 2.817-4.593 2.672-4.684 2.523-4.762 2.371-4.84 2.219-4.914 2.063-4.98 1.902-5.043 1.746-5.098 1.586-5.152 1.422-5.2 1.258-5.242 1.093-5.277.926-5.312.762-5.336.59-5.356.425-5.375.254-5.383zm0 0"/>
	<path fill="#050505" stroke="#6a5acd" stroke-linecap="round" stroke-linejoin="round" stroke-miterlimit="10" stroke-width=".891" d="M302.398 109.215l-39.57 4.625-37.433 13.625-33.29 21.894-27.34 28.977-19.917 34.504-11.426 38.164-2.317 39.773 6.918 39.235 15.778 36.582 23.793 31.957 30.52 25.605 35.6 17.883 38.766 9.188h39.84l38.766-9.188 35.601-17.883 30.52-25.605 23.79-31.957 15.78-36.582 6.918-39.235-2.316-39.773-11.426-38.164-19.922-34.504-27.34-28.977-33.285-21.894-37.437-13.625zm0 0"/>
	<path fill="#c7c7c7" stroke="#6a5acd" stroke-linecap="round" stroke-linejoin="round" stroke-miterlimit="10" stroke-width=".898" d="M472.824 280.8l-.082-5.355-.254-5.347-.418-5.336-.59-5.32-.753-5.301-.922-5.274-1.082-5.246-1.25-5.203-1.414-5.164-1.575-5.117-1.734-5.067-1.895-5.007-2.046-4.946-2.204-4.879-2.355-4.808-2.504-4.735-2.652-4.648-2.801-4.567-2.938-4.472-3.078-4.383-3.214-4.281-3.348-4.176-3.477-4.07-3.605-3.961-3.723-3.844-3.848-3.727-3.957-3.605-4.074-3.477-4.176-3.347-4.28-3.215-4.384-3.078-4.472-2.938-4.567-2.797-4.648-2.652-4.734-2.508-4.805-2.355-4.88-2.203-4.948-2.047-5.008-1.895-5.067-1.734-5.117-1.574-5.164-1.41-5.203-1.25-5.242-1.086-5.277-.922-5.297-.754-5.325-.586-5.335-.422-5.348-.254-5.356-.082-5.351.082-5.348.254-5.336.422-5.324.586-5.3.754-5.274.922-5.242 1.085-5.207 1.25-5.164 1.41-5.118 1.575-5.062 1.734-5.008 1.895-4.95 2.047-4.878 2.203-4.809 2.355-4.73 2.508-4.649 2.652-4.566 2.797-4.477 2.938-4.378 3.078-4.282 3.215-4.18 3.347-4.07 3.477-3.96 3.605-3.844 3.727-3.727 3.844-3.601 3.96-3.477 4.071-3.348 4.176-3.215 4.281-3.078 4.383-2.941 4.472-2.797 4.567-2.652 4.648-2.504 4.735-2.356 4.808-2.203 4.88-2.05 4.945-1.891 5.007-1.735 5.067-1.574 5.117-1.414 5.164-1.25 5.203-1.086 5.246-.918 5.274-.754 5.3-.59 5.32-.417 5.337-.254 5.347-.082 5.356.082 5.351.254 5.348.417 5.34.59 5.32.754 5.3.918 5.274 1.086 5.243 1.25 5.207 1.414 5.164 1.574 5.117 1.735 5.066 1.89 5.008 2.051 4.945 2.203 4.88 2.356 4.808 2.504 4.73 2.652 4.653 2.797 4.562 2.941 4.477 3.078 4.379 3.215 4.28 3.348 4.18 3.476 4.07 3.602 3.962 3.727 3.844 3.843 3.726 3.961 3.602 4.07 3.476 4.18 3.348 4.282 3.215 4.378 3.078 4.477 2.941 4.566 2.797 4.649 2.653 4.73 2.503 4.809 2.356 4.879 2.203 4.95 2.05 5.007 1.891 5.062 1.735 5.118 1.574 5.164 1.414 5.207 1.25 5.242 1.086 5.273.922 5.301.754 5.324.586 5.336.422 5.348.25 5.351.086 5.356-.086 5.348-.25 5.336-.422 5.324-.586 5.297-.754 5.277-.922 5.242-1.086 5.203-1.25 5.164-1.414 5.118-1.574 5.066-1.735 5.008-1.89 4.949-2.051 4.879-2.203 4.805-2.356 4.734-2.503 4.648-2.653 4.567-2.797 4.472-2.941 4.383-3.078 4.281-3.215 4.176-3.348 4.074-3.476 3.957-3.602 3.848-3.726 3.723-3.844 3.605-3.961 3.477-4.07 3.348-4.18 3.214-4.281 3.078-4.38 2.938-4.476 2.8-4.562 2.653-4.653 2.504-4.73 2.355-4.809 2.204-4.879 2.046-4.945 1.895-5.008 1.734-5.066 1.575-5.117 1.414-5.164 1.25-5.207 1.082-5.243.922-5.273.753-5.3.59-5.321.418-5.34.254-5.348zm0 0"/>
	<path fill="#050505" stroke="#6a5acd" stroke-linecap="round" stroke-linejoin="round" stroke-miterlimit="10" stroke-width=".898" d="M302.398 110.375l-40.785 4.953-38.414 14.567-33.812 23.34-27.242 30.753-19.094 36.38-9.832 39.89v41.086l9.832 39.89 19.094 36.38 27.242 30.75 33.812 23.34 38.414 14.57 40.785 4.953 40.786-4.954 38.418-14.57 33.812-23.34 27.242-30.75 19.094-36.379 9.832-39.89v-41.086l-9.832-39.89-19.094-36.38-27.242-30.754-33.812-23.34-38.418-14.566zm0 0"/>
	<path fill="#bfbfbf" stroke="#6a5acd" stroke-linecap="round" stroke-linejoin="round" stroke-miterlimit="10" stroke-width=".905" d="M471.582 280.8l-.082-5.316-.25-5.308-.418-5.297-.582-5.281-.75-5.262-.914-5.238-1.078-5.203-1.242-5.168-1.403-5.13-1.562-5.077-1.719-5.028-1.879-4.972-2.035-4.91-2.188-4.844-2.335-4.774-2.489-4.695-2.633-4.617-2.777-4.532-2.918-4.441-3.055-4.352-3.191-4.25-3.324-4.148-3.453-4.039-3.575-3.93-3.699-3.82-3.816-3.695-3.934-3.578-4.039-3.454-4.148-3.32-4.25-3.191-4.348-3.059-4.445-2.918-4.531-2.777-4.614-2.633-4.699-2.484-4.773-2.34-4.844-2.188-4.91-2.035-4.973-1.875-5.027-1.723-5.078-1.562-5.13-1.402-5.167-1.243-5.203-1.078-5.235-.914-5.262-.746-5.285-.586-5.297-.414-5.308-.254-5.317-.082-5.312.082-5.309.254-5.3.414-5.282.586-5.261.746-5.235.914-5.207 1.078-5.168 1.243-5.125 1.402-5.078 1.562-5.031 1.723-4.969 1.875-4.91 2.035-4.844 2.188-4.773 2.34-4.7 2.484-4.617 2.633-4.53 2.777-4.442 2.918-4.348 3.059-4.25 3.191-4.148 3.32-4.043 3.454-3.93 3.578-3.816 3.695-3.7 3.82-3.574 3.93-3.453 4.039-3.324 4.148-3.192 4.25-3.054 4.352-2.918 4.441-2.778 4.532-2.632 4.617-2.489 4.695-2.336 4.774-2.187 4.843-2.035 4.91-1.88 4.973-1.722 5.028-1.562 5.078-1.403 5.129-1.238 5.168-1.078 5.203-.914 5.238-.75 5.262-.582 5.28-.418 5.298-.25 5.308-.082 5.317.082 5.312.25 5.309.418 5.3.582 5.282.75 5.262.914 5.234 1.078 5.207 1.238 5.168 1.403 5.125 1.562 5.082 1.723 5.027 1.879 4.973 2.035 4.91 2.187 4.844 2.336 4.77 2.489 4.699 2.632 4.617 2.778 4.531 2.918 4.442 3.054 4.347 3.192 4.25 3.324 4.149 3.453 4.043 3.574 3.93 3.7 3.816 3.816 3.699 3.93 3.578 4.043 3.45 4.148 3.323 4.25 3.192 4.348 3.055 4.441 2.918 4.531 2.777 4.618 2.633 4.699 2.488 4.773 2.34 4.844 2.183 4.91 2.036 4.969 1.878 5.031 1.723 5.078 1.563 5.125 1.402 5.168 1.238 5.207 1.078 5.235.914 5.261.75 5.282.582 5.3.418 5.309.25 5.312.086 5.317-.086 5.308-.25 5.297-.418 5.285-.582 5.262-.75 5.235-.914 5.203-1.078 5.168-1.238 5.129-1.402 5.078-1.563 5.027-1.723 4.973-1.878 4.91-2.036 4.844-2.183 4.773-2.34 4.7-2.488 4.613-2.633 4.53-2.777 4.446-2.918 4.348-3.055 4.25-3.192 4.148-3.324 4.04-3.449 3.933-3.578 3.816-3.7 3.7-3.816 3.574-3.93 3.453-4.042 3.324-4.149 3.191-4.25 3.055-4.347 2.918-4.442 2.777-4.531 2.633-4.617 2.489-4.7 2.335-4.77 2.188-4.843 2.035-4.91 1.879-4.973 1.719-5.027 1.562-5.082 1.403-5.125 1.242-5.168 1.078-5.207.914-5.234.75-5.262.582-5.281.418-5.301.25-5.309zm0 0"/>
	<path fill="#050505" stroke="#6a5acd" stroke-linecap="round" stroke-linejoin="round" stroke-miterlimit="10" stroke-width=".905" d="M302.398 111.617l-42.074 5.317-39.43 15.609-34.308 24.93-27.031 32.675-18.059 38.372-7.945 41.656 2.664 42.324 13.105 40.336 22.723 35.805 30.914 29.03 37.164 20.43 41.074 10.547h42.41l41.075-10.546 37.164-20.43 30.914-29.031 22.722-35.805 13.106-40.336 2.664-42.324-7.95-41.656-18.054-38.372-27.031-32.675-34.309-24.93-39.433-15.61zm0 0"/>
	<path fill="#b8b8b8" stroke="#6a5acd" stroke-linecap="round" stroke-linejoin="round" stroke-miterlimit="10" stroke-width=".913" d="M470.25 280.8l-.086-5.273-.246-5.265-.414-5.258-.578-5.242-.742-5.219-.907-5.195-1.07-5.164-1.23-5.125-1.395-5.086-1.547-5.04-1.71-4.992-1.864-4.93-2.016-4.87-2.172-4.809-2.32-4.734-2.465-4.66-2.613-4.579-2.754-4.496-2.898-4.406-3.032-4.316-3.164-4.215-3.297-4.117-3.425-4.008-3.547-3.903-3.672-3.785-3.785-3.668-3.903-3.55-4.007-3.426-4.114-3.297-4.218-3.164-4.313-3.031-4.41-2.895-4.492-2.758-4.582-2.61-4.66-2.468-4.735-2.32-4.805-2.168-4.875-2.02-4.93-1.863-4.987-1.707-5.043-1.55-5.086-1.391-5.125-1.235-5.164-1.066-5.196-.906-5.219-.747-5.242-.578-5.257-.414-5.266-.246-5.274-.082-5.27.082-5.269.246-5.254.414-5.242.578-5.218.747-5.196.906-5.164 1.066-5.129 1.235-5.086 1.39-5.039 1.551-4.988 1.707-4.934 1.863-4.87 2.02-4.805 2.168-4.735 2.32-4.66 2.469-4.582 2.61-4.496 2.757-4.406 2.895-4.313 3.03-4.219 3.165-4.113 3.297-4.012 3.426-3.898 3.55-3.785 3.668-3.672 3.785-3.547 3.903-3.426 4.008-3.297 4.117-3.164 4.215-3.035 4.316-2.894 4.406-2.754 4.496-2.613 4.578-2.465 4.66-2.32 4.735-2.173 4.809-2.015 4.87-1.867 4.93-1.707 4.993-1.551 5.039-1.39 5.086-1.231 5.125-1.07 5.164-.907 5.195-.742 5.219-.578 5.242-.414 5.258-.25 5.265-.082 5.274.082 5.27.25 5.269.414 5.258.578 5.238.742 5.223.906 5.191 1.07 5.164 1.231 5.129 1.39 5.086 1.552 5.039 1.707 4.988 1.867 4.934 2.015 4.87 2.172 4.806 2.32 4.734 2.465 4.66 2.614 4.582 2.754 4.496 2.894 4.407 3.035 4.312 3.164 4.219 3.297 4.113 3.426 4.012 3.547 3.898 3.672 3.79 3.785 3.667 3.898 3.547 4.012 3.426 4.113 3.297 4.22 3.168 4.312 3.031 4.406 2.895 4.496 2.753 4.582 2.614 4.66 2.468 4.735 2.32 4.804 2.169 4.871 2.02 4.934 1.863 4.988 1.707 5.04 1.55 5.085 1.391 5.13 1.23 5.163 1.07 5.196.907 5.218.742 5.242.578 5.254.414 5.27.25 5.27.082 5.273-.082 5.265-.25 5.258-.414 5.243-.578 5.218-.742 5.196-.906 5.164-1.07 5.125-1.231 5.086-1.39 5.043-1.551 4.988-1.707 4.93-1.864 4.875-2.02 4.804-2.167 4.735-2.32 4.66-2.47 4.582-2.613 4.492-2.753 4.41-2.895 4.313-3.031 4.218-3.168 4.114-3.297 4.007-3.426 3.903-3.547 3.785-3.668 3.672-3.789 3.547-3.898 3.425-4.012 3.297-4.113 3.164-4.219 3.032-4.312 2.898-4.407 2.754-4.496 2.613-4.582 2.465-4.66 2.32-4.734 2.172-4.805 2.016-4.871 1.863-4.934 1.711-4.988 1.547-5.04 1.395-5.085 1.23-5.129 1.07-5.164.907-5.191.742-5.223.578-5.238.414-5.258.246-5.27zm0 0"/>
	<path fill="#050505" stroke="#6a5acd" stroke-linecap="round" stroke-linejoin="round" stroke-miterlimit="10" stroke-width=".913" d="M302.398 112.953l-43.441 5.719-40.48 16.766-34.762 26.675-26.676 34.762-16.77 40.484-5.718 43.442 5.719 43.441 16.77 40.48 26.675 34.766 34.762 26.672 40.48 16.77 43.441 5.718 43.446-5.718 40.48-16.77 34.762-26.672 26.676-34.765 16.765-40.48 5.723-43.442-5.723-43.442-16.765-40.484-26.676-34.762-34.762-26.675-40.48-16.766zm0 0"/>
	<path fill="#b0b0b0" stroke="#6a5acd" stroke-linecap="round" stroke-linejoin="round" stroke-miterlimit="10" stroke-width=".92" d="M468.813 280.8l-.083-5.226-.246-5.222-.41-5.211-.574-5.2-.734-5.175-.903-5.149-1.058-5.117-1.22-5.086-1.382-5.043-1.535-4.996-1.695-4.945-1.848-4.89-2-4.83-2.152-4.765-2.297-4.695-2.45-4.621-2.59-4.54-2.73-4.456-2.87-4.371-3.005-4.278-3.14-4.18-3.266-4.077-3.398-3.977-3.516-3.867-3.64-3.754-3.755-3.637-3.867-3.52-3.972-3.394-4.082-3.27-4.18-3.14-4.277-3.004-4.372-2.871-4.457-2.73-4.539-2.59-4.62-2.45-4.696-2.296-4.762-2.153-4.832-2-4.89-1.847-4.946-1.696-4.996-1.535-5.043-1.379-5.082-1.222-5.121-1.06-5.148-.897-5.176-.739-5.195-.574-5.215-.41-5.22-.246-5.23-.082-5.226.082-5.223.246-5.21.41-5.196.574-5.176.739-5.148.898-5.121 1.059-5.082 1.222-5.043 1.38-4.996 1.534-4.946 1.696-4.89 1.847-4.832 2-4.762 2.153-4.695 2.296-4.622 2.45-4.542 2.59-4.458 2.73-4.367 2.871-4.277 3.004-4.18 3.14-4.082 3.27-3.976 3.395-3.864 3.52-3.754 3.636-3.64 3.754-3.52 3.867-3.394 3.977-3.266 4.078-3.14 4.18-3.008 4.277-2.867 4.37-2.735 4.458-2.59 4.539-2.445 4.621-2.3 4.695-2.15 4.766-2.003 4.828-1.848 4.89-1.691 4.946-1.54 4.996-1.378 5.043-1.219 5.086-1.062 5.117-.899 5.149-.734 5.175-.574 5.2-.41 5.21-.247 5.223-.082 5.227.082 5.226.246 5.223.41 5.21.575 5.196.734 5.176.899 5.152 1.062 5.118 1.219 5.082 1.379 5.043 1.539 4.996 1.691 4.949 1.848 4.89 2.004 4.829 2.148 4.765 2.301 4.696 2.445 4.617 2.59 4.543 2.735 4.457 2.867 4.367 3.008 4.277 3.14 4.184 3.266 4.078 3.394 3.977 3.52 3.867 3.64 3.754 3.754 3.636 3.864 3.52 3.976 3.394 4.082 3.27 4.18 3.137 4.277 3.007 4.367 2.872 4.458 2.73 4.542 2.59 4.622 2.445 4.695 2.301 4.762 2.152 4.832 2 4.89 1.848 4.946 1.691 4.996 1.54 5.043 1.378 5.082 1.22 5.12 1.062 5.15.898 5.175.734 5.195.575 5.211.41 5.223.246 5.226.082 5.23-.082 5.22-.246 5.214-.41 5.196-.575 5.176-.734 5.148-.898 5.121-1.063 5.082-1.219 5.043-1.379 4.996-1.539 4.946-1.691 4.89-1.848 4.832-2 4.762-2.152 4.695-2.3 4.621-2.446 4.54-2.59 4.456-2.73 4.372-2.872 4.277-3.007 4.18-3.137 4.082-3.27 3.972-3.394 3.867-3.52 3.754-3.636 3.64-3.754 3.517-3.867 3.398-3.977 3.266-4.078 3.14-4.184 3.004-4.277 2.871-4.367 2.73-4.457 2.59-4.543 2.45-4.617 2.297-4.696 2.152-4.765 2-4.829 1.848-4.89 1.695-4.95 1.535-4.995 1.383-5.043 1.219-5.082 1.058-5.118.903-5.152.734-5.176.574-5.195.41-5.211.246-5.223zm0 0"/>
	<path fill="#050505" stroke="#6a5acd" stroke-linecap="round" stroke-linejoin="round" stroke-miterlimit="10" stroke-width=".92" d="M302.398 114.387l-44.894 6.172-41.57 18.054-35.153 28.602-26.136 37.023-15.176 42.703-3.094 45.215 9.223 44.371 20.847 40.239 30.934 33.12 38.723 23.548 43.636 12.23h45.32l43.641-12.23 38.723-23.547 30.933-33.121 20.848-40.239 9.223-44.37-3.094-45.216-15.176-42.703-26.136-37.023-35.153-28.602-41.57-18.054zm0 0"/>
	<path fill="#a8a8a8" stroke="#6a5acd" stroke-linecap="round" stroke-linejoin="round" stroke-miterlimit="10" stroke-width=".929" d="M467.262 280.8l-.082-5.179-.243-5.172-.406-5.164-.57-5.148-.727-5.125-.89-5.106-1.051-5.07-1.211-5.035-1.367-4.996-1.52-4.95-1.68-4.902-1.831-4.844-1.98-4.785-2.134-4.719-2.277-4.652-2.422-4.578-2.566-4.496-2.707-4.418-2.844-4.328-2.977-4.238-3.109-4.141-3.238-4.043-3.364-3.938-3.488-3.828-3.601-3.722-3.72-3.602-3.831-3.488-3.938-3.363-4.043-3.239-4.14-3.11-4.239-2.976-4.328-2.843-4.418-2.707-4.496-2.567-4.578-2.422-4.652-2.277-4.719-2.133-4.785-1.98-4.844-1.832-4.902-1.676-4.95-1.524-4.996-1.367-5.035-1.21-5.07-1.048-5.102-.89-5.128-.73-5.149-.571-5.164-.406-5.172-.242-5.18-.082-5.175.082-5.176.242-5.16.406-5.149.57-5.129.73-5.101.891-5.07 1.047-5.04 1.211-4.992 1.367-4.953 1.524-4.898 1.676-4.844 1.832-4.785 1.98-4.723 2.133-4.648 2.277-4.578 2.422-4.5 2.567-4.415 2.707-4.328 2.843-4.238 2.977-4.14 3.11-4.043 3.238-3.938 3.363-3.832 3.488-3.719 3.602-3.605 3.722-3.485 3.828-3.363 3.938-3.238 4.043-3.11 4.14-2.976 4.239-2.844 4.328-2.707 4.418-2.566 4.496-2.422 4.578-2.281 4.652-2.13 4.72-1.984 4.784-1.828 4.844-1.68 4.902-1.523 4.95-1.363 4.996-1.211 5.035-1.051 5.07-.89 5.106-.731 5.125-.566 5.148-.407 5.164-.246 5.172-.078 5.18.078 5.176.246 5.175.407 5.164.566 5.145.73 5.129.891 5.101 1.05 5.07 1.212 5.04 1.363 4.996 1.523 4.95 1.68 4.898 1.828 4.843 1.985 4.785 2.129 4.723 2.28 4.649 2.423 4.578 2.566 4.5 2.707 4.414 2.844 4.328 2.976 4.238 3.11 4.14 3.238 4.044 3.363 3.937 3.485 3.832 3.605 3.719 3.719 3.605 3.832 3.485 3.938 3.363 4.042 3.238 4.141 3.11 4.238 2.98 4.328 2.844 4.415 2.703 4.5 2.567 4.578 2.425 4.648 2.278 4.723 2.129 4.785 1.984 4.844 1.832 4.898 1.676 4.953 1.523 4.992 1.367 5.04 1.207 5.07 1.051 5.101.89 5.13.731 5.148.567 5.16.406 5.176.246 5.175.082 5.18-.082 5.172-.246 5.164-.406 5.149-.567 5.128-.73 5.102-.89 5.07-1.052 5.035-1.207 4.997-1.367 4.949-1.523 4.902-1.676 4.844-1.832 4.785-1.984 4.719-2.13 4.652-2.277 4.578-2.425 4.496-2.567 4.418-2.703 4.328-2.844 4.239-2.98 4.14-3.11 4.043-3.238 3.938-3.363 3.832-3.485 3.719-3.605 3.601-3.719 3.488-3.832 3.364-3.937 3.238-4.043 3.11-4.14 2.976-4.24 2.844-4.327 2.707-4.414 2.566-4.5 2.422-4.578 2.277-4.649 2.133-4.723 1.98-4.785 1.833-4.843 1.68-4.899 1.519-4.95 1.367-4.995 1.211-5.04 1.05-5.07.891-5.101.727-5.13.57-5.144.406-5.164.243-5.175zm0 0"/>
	<path fill="#050505" stroke="#6a5acd" stroke-linecap="round" stroke-linejoin="round" stroke-miterlimit="10" stroke-width=".929" d="M302.398 115.938l-46.445 6.68-42.683 19.491-35.465 30.73-25.368 39.474-13.222 45.023v46.926l13.222 45.023 25.368 39.477 35.465 30.73 42.683 19.492 46.445 6.68 46.45-6.68 42.683-19.492 35.465-30.73 25.367-39.477 13.223-45.023v-46.926l-13.223-45.024-25.367-39.472-35.465-30.73-42.683-19.493zm0 0"/>
	<path fill="#a1a1a1" stroke="#6a5acd" stroke-linecap="round" stroke-linejoin="round" stroke-miterlimit="10" stroke-width=".937" d="M465.586 280.8l-.082-5.124-.242-5.121-.403-5.114-.562-5.093-.723-5.075-.879-5.05-1.039-5.02-1.199-4.984-1.352-4.946-1.507-4.898-1.66-4.852-1.813-4.796-1.96-4.735-2.11-4.672-2.258-4.605-2.399-4.531-2.539-4.454-2.68-4.367-2.812-4.285-2.949-4.195-3.078-4.102-3.203-4-3.332-3.898-3.45-3.79-3.566-3.683-3.68-3.566-3.793-3.45-3.898-3.332-4-3.203-4.102-3.078-4.191-2.949-4.285-2.812-4.371-2.68-4.453-2.54-4.532-2.398-4.605-2.257-4.672-2.11-4.734-1.96-4.797-1.813-4.848-1.66-4.902-1.508-4.946-1.352-4.984-1.195-5.02-1.04-5.05-.882-5.074-.723-5.094-.562-5.113-.403-5.118-.242-5.129-.078-5.125.078-5.12.243-5.11.402-5.094.562-5.078.723-5.047.883-5.023 1.039-4.985 1.195-4.945 1.352-4.898 1.508-4.848 1.66-4.797 1.812-4.738 1.961-4.672 2.11-4.602 2.257-4.53 2.399-4.454 2.539-4.371 2.68-4.285 2.812-4.192 2.95-4.101 3.077-4 3.203-3.899 3.333-3.793 3.449-3.68 3.566-3.566 3.684-3.453 3.789-3.328 3.898-3.207 4-3.074 4.102-2.95 4.195-2.816 4.285-2.676 4.367-2.543 4.454-2.398 4.53-2.254 4.606-2.11 4.672-1.96 4.735-1.813 4.796-1.66 4.852-1.508 4.898-1.351 4.946-1.2 4.984-1.039 5.02-.882 5.05-.72 5.075-.562 5.093-.402 5.114-.242 5.12-.082 5.126.082 5.125.242 5.12.402 5.11.563 5.098.719 5.074.882 5.05 1.04 5.02 1.199 4.985 1.351 4.945 1.508 4.899 1.66 4.851 1.813 4.793 1.96 4.738 2.11 4.672 2.254 4.602 2.398 4.531 2.543 4.453 2.676 4.371 2.817 4.285 2.949 4.196 3.074 4.097 3.207 4 3.328 3.899 3.453 3.793 3.567 3.68 3.68 3.57 3.792 3.449 3.899 3.328 4 3.207 4.101 3.078 4.192 2.946 4.285 2.816 4.371 2.68 4.453 2.539 4.531 2.398 4.602 2.254 4.672 2.11 4.738 1.96 4.797 1.813 4.848 1.66 4.898 1.508 4.945 1.355 4.985 1.196 5.023 1.039 5.047.883 5.078.722 5.094.563 5.11.402 5.12.238 5.125.082 5.13-.082 5.117-.238 5.113-.402 5.094-.563 5.074-.722 5.05-.883 5.02-1.04 4.984-1.195 4.946-1.355 4.902-1.508 4.848-1.66 4.797-1.813 4.734-1.96 4.672-2.11 4.605-2.254 4.532-2.398 4.453-2.54 4.37-2.679 4.286-2.816 4.191-2.946 4.102-3.078 4-3.207 3.898-3.328 3.793-3.45 3.68-3.57 3.566-3.68 3.45-3.792 3.332-3.899 3.203-4 3.078-4.097 2.95-4.196 2.812-4.285 2.68-4.37 2.538-4.454 2.399-4.531 2.258-4.602 2.11-4.672 1.96-4.738 1.813-4.793 1.66-4.851 1.507-4.899 1.352-4.945 1.2-4.985 1.038-5.02.88-5.05.722-5.074.562-5.098.403-5.11.242-5.12zm0 0"/>
	<path fill="#050505" stroke="#6a5acd" stroke-linecap="round" stroke-linejoin="round" stroke-miterlimit="10" stroke-width=".937" d="M302.398 117.617l-48.097 7.25-43.824 21.102-35.66 33.086-24.32 42.129-10.825 47.421 3.637 48.508 17.77 45.278 30.327 38.03 40.192 27.403 46.48 14.336h48.645l46.48-14.336 40.192-27.402 30.328-38.031 17.77-45.278 3.636-48.508-10.824-47.421-24.32-42.13-35.66-33.085-43.825-21.102zm0 0"/>
	<path fill="#999" stroke="#6a5acd" stroke-linecap="round" stroke-linejoin="round" stroke-miterlimit="10" stroke-width=".946" d="M463.762 280.8l-.078-5.07-.239-5.062-.398-5.055-.559-5.039-.715-5.015-.87-4.996-1.028-4.961-1.184-4.93-1.336-4.89-1.492-4.845-1.64-4.796-1.793-4.743-1.938-4.683-2.086-4.621-2.23-4.551-2.375-4.48-2.512-4.403-2.648-4.32-2.782-4.238-2.914-4.149-3.043-4.055-3.172-3.953-3.293-3.855-3.41-3.75-3.527-3.64-3.64-3.528-3.75-3.41-3.852-3.293-3.957-3.168-4.055-3.047-4.148-2.914-4.235-2.781-4.324-2.649-4.402-2.512-4.48-2.37-4.552-2.231-4.62-2.086-4.684-1.941-4.742-1.793-4.797-1.641-4.844-1.492-4.89-1.336-4.926-1.184-4.965-1.027-4.996-.871-5.016-.715-5.04-.559-5.054-.394-5.062-.238-5.07-.082-5.067.082-5.062.238-5.055.394-5.04.559-5.019.715-4.992.87-4.965 1.028-4.93 1.184-4.886 1.336-4.848 1.492-4.793 1.64L243 130.77l-4.684 1.94-4.62 2.087-4.551 2.23-4.48 2.371-4.403 2.512-4.325 2.649-4.238 2.78-4.144 2.915-4.055 3.047-3.957 3.168-3.852 3.293-3.75 3.41-3.64 3.527-3.528 3.64-3.414 3.75-3.289 3.856-3.172 3.953-3.043 4.055-2.914 4.149-2.785 4.238-2.648 4.32-2.512 4.403-2.371 4.48-2.23 4.55-2.086 4.622-1.938 4.683-1.793 4.743-1.64 4.797-1.493 4.843-1.336 4.89-1.183 4.93-1.031 4.962-.872 4.996-.714 5.015-.555 5.04-.399 5.054-.238 5.062-.078 5.07.078 5.067.238 5.067.399 5.05.555 5.04.714 5.019.872 4.992 1.03 4.965 1.184 4.93 1.336 4.89 1.493 4.844 1.64 4.797 1.793 4.742 1.938 4.68 2.086 4.62 2.23 4.556 2.371 4.476 2.512 4.406 2.648 4.32 2.785 4.239 2.914 4.145 3.043 4.054 3.172 3.957 3.29 3.856 3.413 3.75 3.528 3.636 3.64 3.532 3.75 3.41 3.852 3.293 3.957 3.168 4.055 3.043 4.144 2.914 4.238 2.785 4.325 2.648 4.402 2.512 4.48 2.371 4.551 2.23 4.621 2.087 4.684 1.941 4.742 1.79 4.793 1.644 4.848 1.488 4.887 1.34 4.93 1.183 4.964 1.028 4.992.87 5.02.716 5.039.554 5.055.399 5.062.238 5.066.078 5.07-.078 5.063-.238 5.055-.399 5.039-.554 5.016-.715 4.996-.871 4.965-1.028 4.925-1.183 4.891-1.34 4.844-1.488 4.797-1.645 4.742-1.789 4.683-1.941 4.621-2.086 4.551-2.23 4.48-2.372 4.403-2.512 4.324-2.648 4.235-2.785 4.148-2.914 4.055-3.043 3.957-3.168 3.851-3.293 3.75-3.41 3.641-3.532 3.527-3.636 3.41-3.75 3.293-3.856 3.172-3.957 3.043-4.054 2.914-4.145 2.782-4.238 2.648-4.32 2.512-4.407 2.375-4.476 2.23-4.555 2.086-4.621 1.938-4.68 1.793-4.742 1.64-4.797 1.492-4.844 1.336-4.89 1.184-4.93 1.027-4.965.871-4.992.715-5.02.559-5.039.398-5.05.239-5.067zm0 0"/>
	<path fill="#050505" stroke="#6a5acd" stroke-linecap="round" stroke-linejoin="round" stroke-miterlimit="10" stroke-width=".946" d="M302.398 119.438l-49.863 7.898-44.98 22.918-35.7 35.7-22.917 44.983-7.899 49.864 7.899 49.863 22.917 44.98 35.7 35.7 44.98 22.922 49.863 7.894 49.864-7.894 44.984-22.922 35.7-35.7 22.917-44.98 7.899-49.863-7.899-49.863-22.918-44.985-35.699-35.7-44.984-22.917zm0 0"/>
	<path fill="#919191" stroke="#6a5acd" stroke-linecap="round" stroke-linejoin="round" stroke-miterlimit="10" stroke-width=".956" d="M461.773 280.8l-.078-5.007-.234-5-.395-4.992-.546-4.977-.707-4.957-.86-4.93-1.015-4.902-1.168-4.87-1.325-4.83-1.468-4.784-1.625-4.738-1.77-4.684-1.914-4.625-2.063-4.563-2.199-4.496-2.344-4.425-2.48-4.348-2.617-4.27-2.75-4.183-2.88-4.098-3.003-4.004-3.133-3.906-3.25-3.809-3.37-3.703-3.485-3.594-3.594-3.484-3.703-3.371-3.809-3.25-3.906-3.133-4.004-3.004-4.098-2.879-4.183-2.75-4.27-2.617-4.347-2.48-4.426-2.34-4.496-2.203-4.563-2.063-4.625-1.914-4.683-1.77-4.739-1.62-4.785-1.473-4.828-1.32-4.867-1.172-4.902-1.016-4.934-.86-4.957-.706-4.977-.547-4.992-.395-5-.234-5.008-.078-5.003.078-5 .234-4.993.395-4.976.547-4.957.707-4.934.86-4.902 1.015-4.867 1.172-4.829 1.32-4.789 1.473-4.734 1.62-4.684 1.77-4.625 1.914-4.562 2.063-4.496 2.203-4.426 2.34-4.351 2.48-4.266 2.617-4.188 2.75-4.093 2.88-4.004 3.003-3.91 3.133-3.805 3.25-3.703 3.371-3.598 3.484-3.484 3.594-3.367 3.703-3.254 3.809-3.13 3.906-3.007 4.004-2.879 4.098-2.746 4.183-2.617 4.27-2.48 4.348-2.344 4.425-2.204 4.496-2.058 4.563-1.918 4.625-1.77 4.684-1.62 4.738-1.473 4.785-1.32 4.828-1.169 4.871-1.015 4.903-.86 4.93-.707 4.956-.55 4.977-.391 4.992-.238 5-.079 5.008.079 5.004.238 5.004.39 4.988.551 4.976.707 4.957.86 4.934 1.015 4.902 1.168 4.868 1.32 4.832 1.473 4.785 1.621 4.734 1.77 4.684 1.918 4.625 2.058 4.566 2.204 4.496 2.343 4.422 2.48 4.352 2.618 4.27 2.746 4.183 2.879 4.094 3.008 4.003 3.129 3.91 3.254 3.805 3.367 3.703 3.484 3.598 3.598 3.484 3.703 3.368 3.805 3.254 3.91 3.128 4.004 3.008 4.093 2.88 4.188 2.745 4.266 2.617 4.351 2.48 4.426 2.345 4.496 2.203 4.562 2.058 4.625 1.918 4.684 1.77 4.734 1.621 4.79 1.473 4.828 1.32 4.867 1.168 4.902 1.016 4.934.863 4.957.703 4.976.55 4.993.391 5 .239 5.003.078 5.008-.078 5-.239 4.992-.39 4.977-.551 4.957-.703 4.934-.863 4.902-1.016 4.867-1.168 4.828-1.32 4.785-1.473 4.739-1.621 4.683-1.77 4.625-1.918 4.563-2.058 4.496-2.203 4.426-2.344 4.347-2.48 4.27-2.618 4.183-2.746 4.098-2.879 4.004-3.008 3.906-3.128 3.809-3.254 3.703-3.368 3.594-3.484 3.484-3.598 3.371-3.703 3.25-3.804 3.133-3.91 3.004-4.004 2.879-4.094 2.75-4.184 2.617-4.27 2.48-4.35 2.344-4.423 2.2-4.496 2.062-4.566 1.914-4.625 1.77-4.684 1.625-4.734 1.468-4.785 1.325-4.832 1.168-4.868 1.015-4.902.86-4.934.707-4.957.546-4.976.395-4.988.234-5.004zm0 0"/>
	<path fill="#050505" stroke="#6a5acd" stroke-linecap="round" stroke-linejoin="round" stroke-miterlimit="10" stroke-width=".956" d="M302.398 121.426l-51.746 8.633-46.144 24.972-35.531 38.598-21.075 48.047-4.332 52.285 12.88 50.86 28.695 43.921 41.402 32.223L276.168 438h52.465l49.62-17.035 41.403-32.223 28.696-43.922 12.878-50.86-4.332-52.284-21.074-48.047-35.535-38.598-46.14-24.972zm0 0"/>
	<path fill="#8a8a8a" stroke="#6a5acd" stroke-linecap="round" stroke-linejoin="round" stroke-miterlimit="10" stroke-width=".967" d="M459.602 280.8l-.079-4.937-.23-4.933-.39-4.922-.54-4.91-.695-4.891-.852-4.863-1-4.836-1.152-4.801-1.305-4.766-1.453-4.718-1.597-4.672-1.747-4.621-1.89-4.563-2.031-4.5-2.172-4.433-2.313-4.368-2.445-4.289-2.582-4.21-2.711-4.126-2.84-4.043-2.965-3.949-3.086-3.851-3.207-3.758-3.324-3.653-3.437-3.546-3.547-3.438-3.653-3.32-3.754-3.207-3.855-3.09-3.95-2.965-4.038-2.84-4.13-2.71-4.21-2.583-4.29-2.445-4.362-2.313-4.438-2.171-4.5-2.032-4.562-1.89-4.622-1.746-4.671-1.598-4.72-1.453-4.76-1.3-4.806-1.157-4.836-1-4.863-.848-4.89-.695-4.907-.543-4.925-.387-4.934-.234-4.938-.078-4.937.078-4.934.234-4.922.387-4.906.543-4.89.695-4.868.848-4.832 1-4.804 1.156-4.762 1.3-4.723 1.454-4.672 1.598-4.617 1.746-4.562 1.89-4.5 2.032-4.438 2.171-4.363 2.313-4.29 2.445-4.21 2.582-4.129 2.711-4.039 2.84-3.95 2.965-3.855 3.09-3.754 3.207-3.652 3.32-3.547 3.438-3.437 3.547-3.325 3.652-3.207 3.758-3.085 3.851-2.965 3.95-2.84 4.042-2.711 4.125-2.582 4.211-2.445 4.29-2.313 4.367-2.172 4.433-2.031 4.5-1.89 4.563-1.747 4.62-1.601 4.673-1.45 4.718-1.304 4.766-1.153 4.8-1 4.837-.851 4.863-.696 4.89-.542 4.91-.387 4.923-.23 4.933-.079 4.938.078 4.937.23 4.934.388 4.922.542 4.91.696 4.887.851 4.867 1 4.836 1.153 4.8 1.304 4.762 1.45 4.723 1.601 4.672 1.746 4.617 1.89 4.562 2.032 4.504 2.172 4.434 2.313 4.363 2.445 4.29 2.582 4.21 2.71 4.13 2.84 4.038 2.965 3.95 3.086 3.855 3.207 3.754 3.325 3.652 3.437 3.547 3.547 3.438 3.652 3.324 3.754 3.207 3.856 3.086L210 407.98l4.04 2.84 4.128 2.711 4.21 2.578 4.29 2.45 4.363 2.308 4.438 2.172 4.5 2.035 4.562 1.887 4.617 1.746 4.672 1.602 4.723 1.449 4.762 1.305 4.804 1.152 4.832 1.004 4.868.847 4.89.696 4.906.543 4.922.386 4.934.235 4.937.074 4.938-.074 4.934-.235 4.925-.386 4.907-.543 4.89-.696 4.863-.847 4.836-1.004 4.805-1.152 4.762-1.305 4.719-1.45 4.671-1.601 4.622-1.746 4.562-1.887 4.5-2.035 4.438-2.172 4.363-2.308 4.289-2.45 4.21-2.578 4.13-2.71 4.039-2.84 3.949-2.97 3.855-3.085 3.754-3.207 3.653-3.324 3.547-3.438 3.437-3.547 3.324-3.652 3.207-3.754 3.086-3.856 2.965-3.949 2.84-4.039 2.71-4.129 2.583-4.21 2.445-4.29 2.313-4.363 2.172-4.434 2.03-4.504 1.892-4.562 1.746-4.617 1.597-4.672 1.453-4.723 1.305-4.761 1.152-4.801 1-4.836.852-4.867.695-4.887.54-4.91.39-4.922.23-4.934zm0 0"/>
	<path fill="#050505" stroke="#6a5acd" stroke-linecap="round" stroke-linejoin="round" stroke-miterlimit="10" stroke-width=".967" d="M302.398 123.598l-53.765 9.48-47.281 27.297-35.094 41.824-18.672 51.305v54.594l18.672 51.304 35.094 41.82 47.28 27.298 53.766 9.48 53.77-9.48 47.277-27.297 35.094-41.82 18.676-51.305v-54.594l-18.676-51.305-35.094-41.824-47.277-27.297zm0 0"/>
	<path fill="#828282" stroke="#6a5acd" stroke-linecap="round" stroke-linejoin="round" stroke-miterlimit="10" stroke-width=".978" d="M457.215 280.8l-.078-4.863-.23-4.859-.38-4.848-.535-4.832-.683-4.816-.836-4.793-.989-4.762-1.136-4.726-1.282-4.692-1.43-4.648-1.574-4.602-1.718-4.55-1.864-4.493-2-4.433-2.14-4.367-2.277-4.297-2.407-4.227-2.543-4.144-2.672-4.067-2.793-3.976-2.921-3.89-3.04-3.798-3.16-3.695-3.273-3.598-3.383-3.492-3.492-3.387-3.598-3.273-3.699-3.156-3.797-3.043-3.887-2.918-3.98-2.797-4.066-2.672-4.145-2.54-4.227-2.41-4.296-2.277-4.368-2.14-4.433-2-4.492-1.86-4.551-1.718-4.602-1.578-4.648-1.43-4.688-1.281-4.73-1.137-4.762-.985-4.793-.835-4.812-.688-4.836-.535-4.848-.379-4.86-.23-4.863-.075-4.859.075-4.86.23-4.847.379-4.836.535-4.812.688-4.793.835-4.762.985-4.73 1.137-4.692 1.28-4.648 1.43-4.602 1.579-4.547 1.718-4.492 1.86-4.434 2-4.367 2.14-4.3 2.278-4.223 2.41-4.149 2.539-4.062 2.672-3.98 2.797-3.887 2.918-3.797 3.043-3.7 3.156-3.597 3.273-3.492 3.387-3.383 3.492-3.274 3.598-3.16 3.695-3.039 3.797-2.922 3.89-2.797 3.977-2.667 4.067-2.543 4.144-2.41 4.227-2.274 4.297-2.14 4.367-2 4.433-1.864 4.493-1.719 4.55-1.574 4.602-1.43 4.648-1.285 4.692-1.133 4.726-.988 4.762-.836 4.793-.683 4.816-.536 4.832-.382 4.848-.227 4.86-.078 4.863.078 4.863.227 4.856.382 4.851.536 4.832.683 4.817.836 4.789.988 4.761 1.133 4.73 1.285 4.692 1.43 4.649 1.574 4.601 1.719 4.547 1.863 4.496 2 4.43 2.14 4.367 2.274 4.3 2.41 4.223 2.543 4.149 2.668 4.062 2.797 3.98 2.922 3.892 3.04 3.792 3.16 3.7 3.273 3.597 3.383 3.493 3.492 3.382 3.598 3.274 3.699 3.16 3.797 3.039 3.886 2.922 3.98 2.797 4.063 2.668 4.149 2.543 4.222 2.41 4.301 2.273 4.367 2.14 4.434 2 4.492 1.864 4.547 1.719 4.602 1.574 4.648 1.43 4.691 1.285 4.73 1.137 4.763.984 4.793.836 4.812.688 4.836.53 4.848.384 4.86.226 4.858.078 4.864-.078 4.86-.226 4.847-.383 4.836-.531 4.812-.688 4.793-.836 4.762-.984 4.73-1.137 4.688-1.285 4.648-1.43 4.602-1.574 4.55-1.719 4.493-1.863 4.433-2 4.368-2.14 4.296-2.274 4.227-2.41 4.145-2.543 4.066-2.668 3.98-2.797 3.887-2.922 3.797-3.04 3.7-3.16 3.597-3.273 3.492-3.382 3.383-3.493 3.273-3.597 3.16-3.7 3.04-3.793 2.921-3.89 2.793-3.98 2.672-4.063 2.543-4.149 2.406-4.222 2.278-4.301 2.14-4.367 2-4.43 1.864-4.496 1.719-4.547 1.574-4.601 1.43-4.649 1.28-4.691 1.137-4.73.989-4.762.836-4.79.683-4.816.535-4.832.38-4.851.23-4.856zm0 0"/>
	<path fill="#050505" stroke="#6a5acd" stroke-linecap="round" stroke-linejoin="round" stroke-miterlimit="10" stroke-width=".978" d="M302.398 125.988l-55.921 10.453-48.375 29.95-34.286 45.402-15.57 54.723 5.25 56.652 25.36 50.93 42.046 38.328 53.051 20.55h56.895l53.05-20.55 42.047-38.328 25.36-50.93 5.25-56.652-15.57-54.723-34.29-45.402-48.37-29.95zm0 0"/>
	<path fill="#7a7a7a" stroke="#6a5acd" stroke-linecap="round" stroke-linejoin="round" stroke-miterlimit="10" stroke-width=".99" d="M454.578 280.8l-.074-4.78-.227-4.774-.375-4.766-.523-4.753-.676-4.73-.82-4.712-.969-4.68-1.117-4.652-1.262-4.61-1.406-4.57-1.547-4.523-1.691-4.469-1.829-4.418-1.968-4.355-2.102-4.293-2.238-4.227-2.367-4.152-2.5-4.078-2.625-3.996-2.746-3.91-2.871-3.82-2.989-3.735-3.105-3.633-3.219-3.535-3.328-3.434-3.43-3.328-3.539-3.219-3.633-3.101-3.73-2.992-3.824-2.868-3.91-2.75-3.997-2.625-4.078-2.496-4.152-2.37-4.223-2.235-4.293-2.106-4.36-1.968-4.413-1.828-4.473-1.688-4.523-1.55-4.57-1.407-4.61-1.262-4.648-1.113-4.684-.973-4.707-.82-4.734-.672-4.75-.527-4.766-.375-4.777-.223-4.782-.078-4.777.078-4.777.223-4.766.375-4.75.527-4.734.672-4.707.82-4.684.973-4.648 1.113-4.61 1.262-4.57 1.406-4.523 1.551-4.473 1.688-4.414 1.828-4.36 1.968-4.292 2.106-4.223 2.234-4.156 2.371-4.075 2.496-3.996 2.625-3.91 2.75-3.824 2.868-3.73 2.992-3.637 3.101-3.535 3.22-3.434 3.327-3.324 3.434-3.219 3.535-3.105 3.633-2.989 3.734-2.87 3.82-2.75 3.91-2.622 3.997-2.5 4.078-2.367 4.152-2.238 4.227-2.102 4.293-1.969 4.355-1.828 4.418-1.691 4.469-1.547 4.523-1.406 4.57-1.262 4.61-1.117 4.652-.969 4.68-.82 4.711-.676 4.73-.524 4.754-.375 4.766-.226 4.774-.074 4.78.074 4.778.226 4.777.375 4.766.524 4.75.676 4.734.82 4.711.969 4.68 1.117 4.649 1.262 4.613 1.406 4.566 1.547 4.524 1.691 4.472 1.828 4.418 1.969 4.356 2.102 4.293 2.238 4.226 2.367 4.153 2.5 4.074 2.621 3.996 2.75 3.91 2.871 3.824 2.989 3.73 3.105 3.637 3.219 3.536 3.324 3.433 3.434 3.328 3.535 3.215 3.636 3.106 3.73 2.988 3.825 2.871 3.91 2.75 3.996 2.625 4.075 2.496 4.156 2.367 4.222 2.239 4.293 2.105 4.36 1.965 4.414 1.828 4.473 1.691 4.523 1.547 4.57 1.407 4.61 1.261 4.648 1.118 4.684.968 4.707.824 4.734.672 4.75.524 4.766.375 4.777.226 4.777.075 4.782-.075 4.777-.226 4.766-.375 4.75-.524 4.734-.672 4.707-.824 4.684-.969 4.648-1.117 4.61-1.261 4.57-1.407 4.523-1.547 4.473-1.69 4.414-1.83 4.36-1.964 4.292-2.105 4.223-2.239 4.152-2.367 4.078-2.496 3.997-2.625 3.91-2.75 3.824-2.871 3.73-2.988 3.633-3.106 3.54-3.215 3.429-3.328 3.328-3.433 3.219-3.536 3.105-3.636 2.989-3.73 2.87-3.825 2.747-3.91 2.625-3.996 2.5-4.074 2.367-4.153 2.238-4.226 2.102-4.293 1.969-4.356 1.828-4.418 1.691-4.472 1.547-4.524 1.406-4.566 1.262-4.613 1.117-4.649.969-4.68.82-4.71.676-4.735.523-4.75.375-4.766.227-4.777zm0 0"/>
	<path fill="#050505" stroke="#6a5acd" stroke-linecap="round" stroke-linejoin="round" stroke-miterlimit="10" stroke-width=".99" d="M302.398 128.621l-58.234 11.586-49.371 32.988-32.988 49.368-11.582 58.238 11.582 58.234 32.988 49.371 49.371 32.989 58.234 11.582 58.239-11.582 49.367-32.989 32.988-49.37 11.586-58.235-11.586-58.238-32.988-49.368-49.367-32.988zm0 0"/>
	<path fill="#737373" stroke="#6a5acd" stroke-linecap="round" stroke-linejoin="round" stroke-miterlimit="10" stroke-width="1.002" d="M451.652 280.8l-.074-4.687-.219-4.683-.367-4.676-.515-4.66-.66-4.64-.81-4.622-.948-4.59-1.094-4.558-1.238-4.524-1.38-4.48-1.519-4.438-1.656-4.387-1.793-4.332-1.93-4.273-2.062-4.21-2.196-4.142-2.324-4.074-2.449-4-2.574-3.918-2.696-3.836-2.816-3.75-2.93-3.656-3.047-3.566-3.156-3.47-3.262-3.366L404.57 172l-3.468-3.156-3.563-3.047-3.66-2.93-3.75-2.816-3.836-2.696-3.918-2.574-4-2.449-4.07-2.324-4.145-2.196-4.21-2.062-4.274-1.93-4.332-1.793-4.387-1.656-4.434-1.52-4.484-1.378-4.52-1.239-4.562-1.093-4.59-.95-4.617-.808-4.645-.66-4.66-.512-4.672-.371-4.683-.219-4.692-.074-4.687.074-4.684.219-4.672.37-4.66.513-4.644.66-4.617.808-4.594.95-4.559 1.093-4.523 1.239-4.48 1.379-4.434 1.52-4.387 1.655-4.332 1.793-4.273 1.93-4.211 2.063-4.145 2.195-4.07 2.324-4 2.45-3.918 2.573-3.836 2.696-3.75 2.816-3.66 2.93-3.567 3.047L200.23 172l-3.367 3.262-3.265 3.367-3.153 3.469-3.047 3.566-2.933 3.656-2.813 3.75-2.695 3.836-2.574 3.918-2.453 4-2.32 4.074-2.196 4.141-2.062 4.211-1.93 4.273-1.793 4.332-1.66 4.387-1.516 4.438-1.379 4.48-1.238 4.524-1.094 4.558-.953 4.59-.805 4.621-.66 4.64-.515 4.66-.368 4.677-.222 4.683-.07 4.688.07 4.687.222 4.684.368 4.676.515 4.66.66 4.64.805 4.618.953 4.593 1.094 4.559 1.238 4.523 1.38 4.48 1.515 4.438 1.66 4.383 1.793 4.332 1.93 4.274 2.062 4.21 2.195 4.145 2.32 4.074 2.454 3.996 2.574 3.918 2.695 3.836 2.813 3.75 2.933 3.66 3.047 3.567 3.153 3.469 3.265 3.367 3.367 3.262 3.465 3.156 3.567 3.043 3.66 2.933 3.75 2.813 3.836 2.7 3.918 2.573 4 2.45 4.07 2.32 4.145 2.195 4.21 2.063 4.274 1.93 4.332 1.792 4.387 1.66 4.433 1.52 4.48 1.379 4.524 1.234 4.559 1.094 4.594.953 4.617.805 4.644.66 4.66.516 4.672.367 4.684.222 4.687.075 4.692-.075 4.683-.222 4.672-.367 4.66-.516 4.645-.66 4.617-.805 4.59-.953 4.563-1.094 4.52-1.234 4.483-1.379 4.434-1.52 4.387-1.66 4.332-1.793 4.273-1.93 4.211-2.062 4.145-2.195 4.07-2.32 4-2.45 3.918-2.574 3.836-2.7 3.75-2.812 3.66-2.933 3.563-3.043 3.468-3.156 3.368-3.262 3.261-3.367 3.156-3.47 3.047-3.565 2.93-3.66 2.816-3.75 2.696-3.837 2.574-3.918 2.45-3.996 2.323-4.074 2.196-4.144 2.062-4.211 1.93-4.274 1.793-4.332 1.656-4.383 1.52-4.437 1.379-4.48 1.238-4.524 1.094-4.559.949-4.593.808-4.618.66-4.64.516-4.66.367-4.676.22-4.684zm0 0"/>
	<path fill="#050505" stroke="#6a5acd" stroke-linecap="round" stroke-linejoin="round" stroke-miterlimit="10" stroke-width="1.002" d="M302.398 131.547l-60.707 12.902-50.207 36.48-31.03 53.75-6.49 61.723 19.18 59.024 41.528 46.12 56.695 25.247h62.063l56.699-25.246 41.527-46.121 19.18-59.024-6.488-61.722-31.032-53.75-50.21-36.48zm0 0"/>
	<path fill="#6b6b6b" stroke="#6a5acd" stroke-linecap="round" stroke-linejoin="round" stroke-miterlimit="10" stroke-width="1.016" d="M448.39 280.8l-.07-4.585-.215-4.582-.363-4.57-.5-4.56-.648-4.542-.79-4.516-.929-4.492-1.07-4.46-1.211-4.423-1.348-4.382-1.484-4.34-1.621-4.29-1.758-4.238-1.887-4.18-2.016-4.12-2.148-4.051-2.27-3.985-2.398-3.91-2.516-3.832-2.636-3.754-2.754-3.668-2.871-3.578-2.977-3.488-3.086-3.39-3.191-3.298-3.293-3.191-3.395-3.086-3.488-2.976-3.578-2.868-3.668-2.754-3.75-2.636-3.836-2.52-3.91-2.394-3.985-2.274-4.05-2.148-4.121-2.016-4.18-1.887-4.234-1.757-4.293-1.621-4.336-1.485-4.387-1.348-4.422-1.21-4.46-1.07-4.49-.93-4.519-.79-4.539-.644-4.558-.504-4.575-.36-4.582-.218-4.586-.07-4.586.07-4.578.219-4.574.359-4.558.504-4.54.644-4.519.79-4.488.93-4.461 1.07-4.426 1.21-4.383 1.348-4.34 1.484-4.289 1.622-4.238 1.757-4.18 1.887-4.117 2.016-4.055 2.148-3.98 2.274-3.914 2.394-3.832 2.52-3.75 2.636-3.668 2.754-3.582 2.868-3.485 2.976-3.394 3.086-3.293 3.191-3.191 3.297-3.086 3.39-2.98 3.49-2.868 3.577-2.754 3.668-2.637 3.754-2.515 3.832-2.399 3.91-2.273 3.985-2.145 4.05-2.02 4.122-1.886 4.18-1.754 4.238-1.62 4.289-1.485 4.34-1.352 4.382-1.207 4.422-1.07 4.461-.93 4.492-.789 4.516-.648 4.543-.504 4.558-.36 4.57-.215 4.583-.07 4.586.07 4.586.215 4.582.36 4.57.504 4.559.648 4.539.79 4.52.929 4.491 1.07 4.457 1.207 4.426 1.352 4.383 1.484 4.34 1.621 4.289 1.754 4.238 1.887 4.18 2.02 4.117 2.144 4.055 2.273 3.984 2.399 3.91 2.515 3.832 2.637 3.754 2.754 3.668 2.867 3.578 2.98 3.489 3.087 3.39 3.191 3.293 3.293 3.192 3.394 3.086 3.485 2.98 3.582 2.867 3.668 2.754 3.75 2.637 3.832 2.52 3.914 2.394 3.98 2.273 4.055 2.145 4.117 2.02 4.18 1.886 4.238 1.754 4.29 1.621 4.34 1.485 4.382 1.351 4.426 1.211 4.46 1.07 4.489.93 4.52.79 4.539.644 4.558.504 4.574.359 4.579.215 4.585.074 4.586-.074 4.582-.215 4.575-.36 4.558-.503 4.54-.645 4.519-.789 4.488-.93 4.461-1.07 4.422-1.21 4.387-1.352 4.336-1.485 4.293-1.62 4.234-1.755 4.18-1.887 4.12-2.02 4.051-2.144 3.985-2.273 3.91-2.395 3.836-2.52 3.75-2.636 3.668-2.754 3.578-2.867 3.488-2.98 3.395-3.086 3.293-3.192 3.191-3.293 3.086-3.39 2.977-3.489 2.87-3.578 2.755-3.668 2.636-3.754 2.516-3.832 2.399-3.91 2.269-3.984 2.148-4.055 2.016-4.117 1.887-4.18 1.758-4.238 1.62-4.29 1.485-4.339 1.348-4.383 1.21-4.426 1.071-4.457.93-4.492.789-4.52.648-4.538.5-4.559.363-4.57.215-4.582zm0 0"/>
	<path fill="#050505" stroke="#6a5acd" stroke-linecap="round" stroke-linejoin="round" stroke-miterlimit="10" stroke-width="1.016" d="M302.398 134.809l-63.343 14.457-50.797 40.511-28.188 58.536v64.972l28.188 58.54 50.797 40.51 63.343 14.458 63.344-14.457 50.797-40.512 28.191-58.539v-64.973l-28.19-58.535-50.798-40.511zm0 0"/>
	<path fill="#636363" stroke="#6a5acd" stroke-linecap="round" stroke-linejoin="round" stroke-miterlimit="10" stroke-width="1.032" d="M444.73 280.8l-.07-4.472-.21-4.465-.348-4.457-.493-4.445-.629-4.426-.77-4.406-.905-4.379-1.043-4.348-1.184-4.312-1.312-4.274-1.45-4.23-1.578-4.18-1.715-4.133-1.84-4.074-1.964-4.015-2.094-3.954-2.215-3.882-2.336-3.813-2.453-3.738-2.574-3.656-2.684-3.578-2.797-3.489-2.902-3.398-3.008-3.309-3.113-3.21-3.211-3.114-3.305-3.008-3.402-2.902-3.488-2.797-3.578-2.684-3.657-2.57-3.738-2.457-3.812-2.336-3.883-2.215-3.953-2.094-4.016-1.964-4.074-1.84-4.13-1.711-4.183-1.582-4.23-1.45-4.274-1.312-4.312-1.18-4.348-1.046-4.379-.907-4.406-.765-4.426-.633-4.445-.488-4.457-.352-4.465-.21-4.473-.071-4.468.07-4.465.211-4.461.352-4.442.488-4.43.633-4.402.765-4.378.907-4.348 1.046-4.313 1.18-4.273 1.313-4.23 1.449-4.184 1.582-4.129 1.71-4.078 1.84-4.016 1.965-3.949 2.094-3.883 2.215-3.812 2.336-3.739 2.457-3.66 2.57-3.574 2.684-3.488 2.797-3.403 2.902-3.304 3.008-3.211 3.113-3.113 3.211-3.008 3.309-2.907 3.398-2.792 3.488-2.688 3.579-2.57 3.656-2.453 3.738-2.336 3.813-2.215 3.882-2.094 3.954-1.969 4.015-1.84 4.074-1.71 4.133-1.579 4.18-1.449 4.23-1.316 4.274-1.18 4.312-1.043 4.348-.906 4.379-.77 4.406-.629 4.426-.492 4.445-.351 4.457-.207 4.465-.07 4.473.07 4.469.207 4.468.351 4.457.492 4.446.63 4.425.769 4.403.906 4.379 1.043 4.347 1.18 4.313 1.316 4.273 1.45 4.23 1.577 4.184 1.711 4.133 1.84 4.074 1.969 4.016 2.094 3.95 2.215 3.886 2.336 3.812 2.453 3.735 2.57 3.66 2.688 3.574 2.792 3.492 2.907 3.399 3.008 3.308 3.113 3.211 3.21 3.11 3.305 3.007 3.403 2.907 3.488 2.797 3.574 2.683 3.66 2.57 3.739 2.454 3.812 2.34 3.883 2.214 3.95 2.09 4.015 1.969 4.078 1.84 4.129 1.71 4.184 1.583 4.23 1.445 4.273 1.316 4.313 1.18 4.348 1.043 4.378.906 4.403.77 4.43.629 4.44.492 4.462.352 4.465.21 4.468.07 4.473-.07 4.465-.21 4.457-.352 4.445-.492 4.426-.63 4.406-.769 4.38-.906 4.347-1.043 4.312-1.18 4.274-1.316 4.23-1.445 4.184-1.582 4.129-1.711 4.074-1.84 4.016-1.969 3.953-2.09 3.883-2.214 3.812-2.34 3.738-2.453 3.657-2.57 3.578-2.684 3.488-2.797 3.402-2.906 3.305-3.008 3.211-3.11 3.113-3.21 3.008-3.31 2.902-3.398 2.797-3.492 2.684-3.574 2.574-3.66 2.453-3.735 2.336-3.812 2.215-3.887 2.094-3.949 1.965-4.016 1.84-4.074 1.714-4.133 1.578-4.183 1.45-4.23 1.312-4.274 1.184-4.313 1.043-4.347.906-4.38.77-4.402.628-4.425.493-4.446.347-4.457.211-4.468zm0 0"/>
	<path fill="#050505" stroke="#6a5acd" stroke-linecap="round" stroke-linejoin="round" stroke-miterlimit="10" stroke-width="1.032" d="M302.398 138.469l-66.144 16.304-50.992 45.172-24.157 63.7 8.211 67.625 38.7 56.066 60.32 31.66h68.125l60.324-31.66 38.695-56.066 8.215-67.625-24.16-63.7-50.992-45.172zm0 0"/>
	<path fill="#5c5c5c" stroke="#6a5acd" stroke-linecap="round" stroke-linejoin="round" stroke-miterlimit="10" stroke-width="1.048" d="M440.594 280.8l-.067-4.34-.203-4.339-.344-4.328-.476-4.313-.61-4.3-.746-4.274-.882-4.254-1.012-4.218-1.145-4.188-1.277-4.152-1.406-4.106-1.535-4.062-1.66-4.012-1.79-3.953-1.91-3.902-2.031-3.836-2.148-3.77-2.27-3.703-2.383-3.629-2.496-3.55-2.605-3.473-2.715-3.387-2.82-3.3-2.922-3.212-3.024-3.117-3.117-3.023-3.21-2.922-3.302-2.817-3.386-2.715-3.473-2.609-3.55-2.496-3.63-2.383-3.703-2.27-3.77-2.148-3.835-2.031-3.899-1.91-3.957-1.79-4.012-1.66-4.062-1.535-4.106-1.406-4.148-1.277-4.187-1.145-4.223-1.011-4.25-.883-4.277-.746-4.301-.61-4.313-.476-4.328-.34-4.336-.207-4.344-.067-4.34.067-4.335.207-4.328.34-4.317.476-4.297.61-4.277.746-4.25.883-4.223 1.011-4.187 1.145-4.149 1.277-4.105 1.406-4.063 1.536-4.011 1.66-3.957 1.789-3.899 1.91-3.836 2.031-3.77 2.149-3.702 2.27-3.63 2.382-3.55 2.496-3.473 2.61-3.387 2.714-3.304 2.817-3.211 2.922-3.117 3.023-3.02 3.117-2.922 3.211-2.82 3.3-2.715 3.388-2.605 3.472-2.496 3.551-2.383 3.629-2.27 3.703-2.152 3.77-2.031 3.836-1.91 3.902-1.786 3.953-1.66 4.012-1.535 4.062-1.406 4.106-1.278 4.152-1.144 4.188-1.016 4.218-.879 4.254-.746 4.274-.613 4.3-.477 4.313-.34 4.328-.203 4.34-.07 4.34.07 4.34.204 4.336.34 4.328.476 4.316.613 4.297.746 4.277.88 4.25 1.015 4.223 1.144 4.187 1.278 4.149 1.406 4.11 1.535 4.058 1.66 4.012 1.785 3.957 1.91 3.898 2.032 3.836 2.152 3.773 2.27 3.7 2.383 3.629 2.496 3.554 2.605 3.469 2.715 3.39 2.82 3.301 2.922 3.211 3.02 3.118 3.117 3.02 3.21 2.92 3.305 2.821 3.387 2.715 3.473 2.606 3.55 2.496 3.63 2.382 3.703 2.27 3.77 2.152 3.835 2.032 3.899 1.91 3.957 1.785 4.011 1.66 4.063 1.535 4.105 1.406 4.149 1.278 4.187 1.144 4.223 1.016 4.25.879 4.277.746 4.297.613 4.317.477 4.328.34 4.336.203 4.34.07 4.343-.07 4.336-.203 4.328-.34 4.313-.477 4.3-.613 4.278-.746 4.25-.879 4.223-1.016 4.187-1.144 4.148-1.278 4.106-1.406 4.062-1.535 4.012-1.66 3.957-1.785 3.899-1.91 3.836-2.032 3.77-2.152 3.702-2.27 3.63-2.382 3.55-2.496 3.473-2.606 3.386-2.715 3.301-2.82 3.211-2.922 3.117-3.02 3.024-3.117 2.921-3.21 2.82-3.301 2.716-3.391 2.605-3.469 2.496-3.554 2.383-3.63 2.27-3.699 2.148-3.773 2.031-3.836 1.91-3.898 1.79-3.957 1.66-4.012 1.535-4.059 1.406-4.11 1.277-4.148 1.145-4.187 1.012-4.223.882-4.25.747-4.277.609-4.297.476-4.316.344-4.328.203-4.336zm0 0"/>
	<path fill="#050505" stroke="#6a5acd" stroke-linecap="round" stroke-linejoin="round" stroke-miterlimit="10" stroke-width="1.048" d="M302.398 142.605l-69.097 18.512-50.582 50.586-18.516 69.098 18.516 69.097L233.3 400.48l69.097 18.516 69.098-18.516 50.586-50.582 18.512-69.097-18.512-69.098-50.586-50.586zm0 0"/>
	<path fill="#545454" stroke="#6a5acd" stroke-linecap="round" stroke-linejoin="round" stroke-miterlimit="10" stroke-width="1.067" d="M435.887 280.8l-.067-4.195-.195-4.187-.332-4.18-.457-4.168-.594-4.152-.719-4.133-.851-4.105-.98-4.078-1.106-4.043-1.234-4.008-1.356-3.969-1.484-3.922-1.606-3.875-1.722-3.82-1.848-3.766-1.961-3.707-2.078-3.64-2.192-3.579-2.3-3.503-2.41-3.43-2.52-3.356-2.621-3.273-2.723-3.188-2.824-3.101-2.918-3.012-3.012-2.918-3.101-2.82-3.188-2.727-3.273-2.62-3.352-2.516-3.433-2.414-3.504-2.301-3.574-2.192-3.645-2.078-3.707-1.96-3.766-1.844-3.82-1.727-3.875-1.606-3.922-1.484-3.969-1.355-4.007-1.235-4.043-1.105-4.078-.98-4.106-.848-4.133-.723-4.152-.59-4.168-.46-4.18-.329-4.187-.2-4.196-.065-4.191.066-4.187.2-4.184.327-4.168.461-4.148.59-4.133.723-4.106.847-4.078.98-4.043 1.106-4.012 1.235-3.964 1.355-3.922 1.484-3.875 1.606-3.825 1.727-3.765 1.843-3.703 1.961-3.645 2.078-3.574 2.192-3.504 2.3-3.434 2.415-3.351 2.515-3.274 2.621-3.187 2.727-3.102 2.82-3.011 2.918-2.918 3.012-2.824 3.101-2.723 3.188-2.621 3.273-2.52 3.356-2.41 3.43-2.3 3.503-2.192 3.579-2.078 3.64-1.965 3.707-1.844 3.766-1.726 3.82-1.602 3.875-1.484 3.922-1.36 3.969-1.23 4.008-1.11 4.043-.976 4.078-.852 4.105-.718 4.133-.594 4.152-.461 4.168-.328 4.18-.196 4.187-.066 4.196.066 4.191.196 4.192.328 4.18.46 4.167.595 4.153.718 4.128.852 4.106.976 4.078 1.11 4.047 1.23 4.008 1.36 3.965 1.484 3.925 1.602 3.872 1.726 3.824 1.844 3.765 1.965 3.707 2.078 3.641 2.191 3.574 2.301 3.508 2.41 3.43 2.52 3.351 2.62 3.274 2.724 3.191 2.824 3.102 2.918 3.007 3.011 2.922 3.102 2.82 3.188 2.723 3.273 2.621 3.351 2.52 3.434 2.41 3.504 2.305 3.574 2.191 3.645 2.074 3.703 1.965 3.766 1.844 3.824 1.727 3.875 1.605 3.922 1.48 3.964 1.36 4.012 1.234 4.043 1.106 4.078.976 4.106.852 4.133.723 4.148.59 4.168.46 4.184.328 4.187.2 4.191.062 4.196-.062 4.187-.2 4.18-.328 4.168-.46 4.152-.59 4.133-.723 4.106-.852 4.078-.976 4.043-1.106 4.007-1.234 3.97-1.36 3.921-1.48 3.875-1.605 3.82-1.727 3.766-1.844 3.707-1.965 3.645-2.074 3.574-2.191 3.504-2.305 3.433-2.41 3.352-2.52 3.273-2.62 3.188-2.723 3.101-2.82 3.012-2.923 2.918-3.007 2.824-3.102 2.723-3.191 2.621-3.274 2.52-3.351 2.41-3.43 2.3-3.508 2.192-3.574 2.078-3.64 1.96-3.708 1.849-3.765 1.722-3.825 1.606-3.87 1.484-3.926 1.356-3.965 1.234-4.008 1.105-4.047.98-4.078.852-4.106.72-4.128.593-4.153.457-4.168.332-4.18.195-4.19zm0 0"/>
	<path fill="#050505" stroke="#6a5acd" stroke-linecap="round" stroke-linejoin="round" stroke-miterlimit="10" stroke-width="1.067" d="M302.398 147.313l-72.168 21.19-49.253 56.845-10.704 74.449 31.243 68.418 63.277 40.664h75.215l63.273-40.664 31.246-68.418-10.703-74.45-49.258-56.843zm0 0"/>
	<path fill="#4d4d4d" stroke="#6a5acd" stroke-linecap="round" stroke-linejoin="round" stroke-miterlimit="10" stroke-width="1.087" d="M430.48 280.8l-.062-4.023-.191-4.02-.317-4.01-.441-4-.567-3.981-.691-3.965-.816-3.942-.938-3.91-1.062-3.883-1.184-3.843-1.305-3.809-1.422-3.762-1.539-3.718-1.656-3.668-1.77-3.614-1.882-3.554-1.992-3.496-2.102-3.43-2.211-3.363-2.312-3.293-2.418-3.215-2.516-3.14-2.613-3.063-2.707-2.973-2.801-2.89-2.887-2.801-2.976-2.707-3.063-2.614-3.137-2.515-3.218-2.418-3.293-2.313-3.364-2.207-3.43-2.105-3.495-1.993-3.555-1.882-3.613-1.77-3.668-1.656-3.715-1.54-3.766-1.421-3.805-1.305-3.847-1.183-3.88-1.059-3.913-.941-3.942-.817-3.96-.691-3.985-.567-4-.44-4.012-.317-4.02-.188-4.023-.066-4.023.066-4.016.188-4.011.316-4 .441-3.985.567-3.965.691-3.937.817-3.914.941-3.879 1.059-3.848 1.183-3.804 1.305-3.766 1.422-3.715 1.539-3.668 1.656-3.613 1.77-3.559 1.882-3.492 1.993-3.43 2.105-3.363 2.207-3.293 2.313-3.219 2.418-3.14 2.515-3.059 2.614-2.976 2.707-2.887 2.8-2.8 2.891-2.712 2.973-2.61 3.062-2.515 3.14-2.418 3.216-2.312 3.293-2.211 3.363-2.102 3.43-1.992 3.496-1.883 3.554-1.77 3.614-1.656 3.668-1.539 3.718-1.425 3.762-1.301 3.809-1.184 3.843-1.062 3.883-.938 3.91-.816 3.942-.692 3.965-.566 3.98-.441 4-.317 4.012-.191 4.02-.063 4.023.063 4.023.191 4.02.317 4.008.441 4 .566 3.984.692 3.965.816 3.937.938 3.914 1.062 3.88 1.184 3.847 1.3 3.805 1.426 3.765 1.54 3.719 1.656 3.664 1.77 3.613 1.882 3.559 1.992 3.492 2.102 3.434 2.21 3.363 2.313 3.289 2.418 3.219 2.516 3.14 2.61 3.059 2.71 2.977 2.8 2.89 2.888 2.797 2.976 2.711 3.059 2.613 3.14 2.516 3.22 2.414 3.292 2.312 3.363 2.211 3.43 2.102 3.492 1.992 3.559 1.883 3.613 1.773 3.668 1.653 3.715 1.543 3.766 1.422 3.804 1.3 3.848 1.184 3.879 1.062 3.914.942 3.937.812 3.965.692 3.985.57 4 .442 4.011.312 4.016.191 4.023.063 4.024-.063 4.02-.191 4.011-.313 4-.44 3.985-.571 3.96-.692 3.942-.812 3.914-.942 3.879-1.062 3.847-1.184 3.805-1.3 3.766-1.422 3.715-1.543 3.668-1.653 3.613-1.773 3.555-1.883 3.496-1.992 3.43-2.102 3.363-2.21 3.293-2.313 3.218-2.414 3.137-2.516 3.063-2.613 2.976-2.71 2.887-2.798 2.8-2.89 2.708-2.977 2.613-3.059 2.516-3.14 2.418-3.219 2.312-3.289 2.211-3.363 2.102-3.434 1.992-3.492 1.883-3.559 1.77-3.613 1.655-3.664 1.54-3.719 1.421-3.765 1.305-3.805 1.184-3.848 1.062-3.879.938-3.914.816-3.937.691-3.965.567-3.984.441-4 .317-4.008.191-4.02zm0 0"/>
	<path fill="#050505" stroke="#6a5acd" stroke-linecap="round" stroke-linejoin="round" stroke-miterlimit="10" stroke-width="1.087" d="M302.398 152.719l-75.28 24.46-46.528 64.044v79.156l46.527 64.039 75.281 24.46 75.286-24.46 46.527-64.04v-79.155l-46.527-64.043zm0 0"/>
	<path fill="#454545" stroke="#6a5acd" stroke-linecap="round" stroke-linejoin="round" stroke-miterlimit="10" stroke-width="1.11" d="M424.21 280.8l-.058-3.827-.183-3.82-.297-3.817-.422-3.805-.54-3.785-.655-3.77-.778-3.75-.894-3.718-1.008-3.692-1.125-3.656-1.242-3.62-1.352-3.583-1.465-3.535-1.574-3.488-1.683-3.434-1.79-3.383-1.898-3.324-1.996-3.262-2.102-3.199-2.203-3.129-2.297-3.062-2.39-2.985-2.485-2.91-2.578-2.832-2.66-2.746-2.75-2.664-2.832-2.574-2.906-2.489-2.988-2.39-3.059-2.297-3.133-2.203-3.199-2.098-3.262-2-3.324-1.898-3.383-1.79-3.433-1.683-3.489-1.574-3.535-1.465-3.582-1.352-3.617-1.242-3.66-1.125-3.692-1.008-3.718-.894-3.746-.774-3.77-.66-3.789-.539-3.805-.418-3.816-.3-3.82-.18-3.829-.063-3.824.063-3.824.18-3.813.3-3.804.418-3.79.54-3.769.66-3.746.773-3.723.894-3.69 1.008-3.657 1.125-3.621 1.242-3.578 1.352-3.536 1.465-3.488 1.574-3.437 1.684-3.38 1.789-3.323 1.898-3.266 2-3.195 2.098-3.133 2.203-3.059 2.297-2.988 2.39-2.91 2.489-2.828 2.574-2.75 2.664-2.66 2.746-2.579 2.832-2.484 2.91-2.39 2.985-2.301 3.062-2.2 3.129-2.101 3.2-2 3.261-1.895 3.324-1.789 3.383-1.683 3.434-1.575 3.488-1.464 3.535-1.356 3.582-1.238 3.621-1.125 3.656-1.008 3.692-.895 3.719-.777 3.75-.656 3.77-.54 3.784-.421 3.805-.3 3.816-.18 3.82-.06 3.829.06 3.824.18 3.824.3 3.813.422 3.804.539 3.79.656 3.769.777 3.746.895 3.723 1.008 3.691 1.125 3.656 1.238 3.622 1.356 3.578 1.464 3.535 1.575 3.488 1.683 3.438 1.79 3.382 1.894 3.325 2 3.261 2.101 3.2 2.2 3.128 2.3 3.059 2.391 2.988 2.484 2.91 2.578 2.829 2.66 2.75 2.75 2.664 2.829 2.574 2.91 2.484 2.988 2.395 3.059 2.297 3.133 2.199 3.195 2.101 3.266 2 3.324 1.895 3.379 1.793 3.437 1.684 3.488 1.574 3.536 1.465 3.578 1.351 3.62 1.238 3.657 1.125 3.691 1.012 3.723.89 3.746.778 3.77.656 3.789.54 3.805.421 3.812.301 3.824.18 3.824.058 3.829-.058 3.82-.18 3.816-.3 3.805-.423 3.789-.539 3.77-.656 3.746-.777 3.718-.89 3.692-1.013 3.66-1.125 3.617-1.238 3.582-1.351 3.535-1.465 3.489-1.574 3.433-1.684 3.383-1.793 3.324-1.895 3.262-2 3.2-2.101 3.132-2.2 3.059-2.296 2.988-2.395 2.906-2.484 2.832-2.574 2.75-2.664 2.66-2.75 2.578-2.829 2.485-2.91 2.39-2.988 2.297-3.059 2.203-3.128 2.102-3.2 1.996-3.261 1.899-3.325 1.789-3.382 1.683-3.438 1.574-3.488 1.465-3.535 1.352-3.579 1.242-3.62 1.125-3.657 1.008-3.691.894-3.723.778-3.746.656-3.77.539-3.789.422-3.804.297-3.813.183-3.824zm0 0"/>
	<path fill="#050505" stroke="#6a5acd" stroke-linecap="round" stroke-linejoin="round" stroke-miterlimit="10" stroke-width="1.11" d="M302.398 158.988l-78.296 28.5-41.66 72.16 14.468 82.059 63.828 53.559h83.325l63.828-53.559 14.468-82.059-41.66-72.16zm0 0"/>
	<path fill="#3d3d3d" stroke="#6a5acd" stroke-linecap="round" stroke-linejoin="round" stroke-miterlimit="10" stroke-width="1.137" d="M416.863 280.8l-.054-3.597-.168-3.59-.286-3.586-.394-3.574-.504-3.558-.621-3.543-.727-3.52-.84-3.5-.949-3.465-1.058-3.437-1.164-3.403-1.27-3.363-1.379-3.324-1.476-3.278-1.582-3.226-1.684-3.18-1.781-3.125-1.88-3.066-1.976-3.004-2.066-2.941-2.16-2.875-2.246-2.81-2.336-2.733-2.422-2.657-2.5-2.586-2.582-2.5-2.66-2.422-2.735-2.335-2.808-2.247-2.875-2.16-2.942-2.066-3.004-1.977-3.066-1.879-3.125-1.78-3.176-1.68-3.23-1.583-3.278-1.48-3.32-1.375-3.367-1.273-3.399-1.165-3.437-1.058-3.469-.95-3.496-.835-3.523-.73-3.543-.618-3.559-.508-3.574-.394-3.586-.281-3.59-.172-3.598-.055-3.593.055-3.594.172-3.582.28-3.574.395-3.563.508-3.539.617-3.523.73-3.496.837-3.47.949-3.437 1.059-3.402 1.164-3.363 1.273-3.32 1.375-3.278 1.48-3.23 1.583-3.176 1.68-3.125 1.78-3.067 1.88-3.004 1.976-2.94 2.066-2.88 2.16-2.804 2.247-2.735 2.335-2.66 2.422-2.582 2.5-2.504 2.586-2.418 2.657-2.336 2.734-2.246 2.809-2.16 2.875-2.07 2.94-1.973 3.005-1.879 3.066-1.781 3.125-1.684 3.18-1.582 3.226-1.48 3.278-1.375 3.324-1.27 3.363-1.164 3.403-1.059 3.437-.949 3.465-.84 3.5-.73 3.52-.617 3.543-.508 3.558-.395 3.574-.28 3.586-.169 3.59-.058 3.598.058 3.594.168 3.593.281 3.582.395 3.575.508 3.562.617 3.543.73 3.52.84 3.496.95 3.468 1.058 3.438 1.164 3.402 1.27 3.363 1.375 3.32 1.48 3.278 1.582 3.23 1.684 3.18 1.781 3.121 1.879 3.067 1.973 3.008 2.07 2.941 2.16 2.875 2.246 2.805 2.336 2.734 2.418 2.66 2.504 2.582 2.582 2.504 2.66 2.418 2.734 2.336 2.805 2.25 2.88 2.156 2.94 2.07 3.004 1.973 3.067 1.88 3.125 1.78 3.176 1.684 3.23 1.582 3.277 1.48 3.32 1.376 3.364 1.27 3.402 1.167 3.438 1.055 3.469.949 3.496.84 3.523.73 3.54.617 3.562.508 3.574.395 3.582.281 3.594.168 3.593.059 3.598-.059 3.59-.168 3.586-.281 3.574-.395 3.559-.508 3.543-.617 3.523-.73 3.496-.84 3.469-.95 3.437-1.054 3.399-1.168 3.367-1.27 3.32-1.374 3.278-1.48 3.23-1.583 3.176-1.684 3.125-1.78 3.066-1.88 3.004-1.972 2.942-2.07 2.875-2.157 2.808-2.25 2.735-2.336 2.66-2.418 2.582-2.504 2.5-2.582 2.422-2.66 2.336-2.734 2.246-2.805 2.16-2.875 2.066-2.941 1.977-3.008 1.879-3.067 1.781-3.12 1.684-3.18 1.582-3.23 1.476-3.278 1.38-3.32 1.269-3.364 1.164-3.402 1.058-3.438.95-3.468.84-3.496.726-3.52.621-3.543.504-3.562.394-3.575.286-3.582.168-3.593zm0 0"/>
	<path fill="#050505" stroke="#6a5acd" stroke-linecap="round" stroke-linejoin="round" stroke-miterlimit="10" stroke-width="1.137" d="M302.398 166.336l-80.937 33.523-33.527 80.942 33.527 80.937 80.937 33.528 80.942-33.528 33.523-80.937-33.523-80.942zm0 0"/>
	<path fill="#363636" stroke="#6a5acd" stroke-linecap="round" stroke-linejoin="round" stroke-miterlimit="10" stroke-width="1.168" d="M408.152 280.8l-.054-3.323-.157-3.317-.257-3.312-.368-3.301-.464-3.29-.575-3.273-.672-3.254-.777-3.23-.875-3.203-.976-3.176-1.079-3.144-1.171-3.106-1.274-3.07-1.367-3.028-1.461-2.984-1.555-2.934-1.644-2.886-1.738-2.832-1.825-2.778-1.91-2.718-1.992-2.657-2.078-2.593-2.156-2.528-2.239-2.457-2.312-2.383-2.383-2.312-2.457-2.238-2.527-2.157-2.594-2.078-2.656-1.992-2.72-1.91-2.773-1.824-2.836-1.739-2.882-1.644-2.938-1.555-2.984-1.46-3.028-1.368-3.07-1.273-3.105-1.172-3.145-1.078-3.176-.977-3.203-.875-3.23-.777-3.254-.672-3.274-.57-3.289-.47-3.3-.362-3.313-.262-3.316-.156-3.325-.055-3.32.055-3.316.156-3.313.262-3.304.363-3.29.469-3.27.57-3.253.672-3.23.777-3.207.875-3.172.977-3.145 1.078-3.11 1.172-3.066 1.273-3.027 1.367-2.984 1.461-2.938 1.555-2.887 1.644-2.832 1.739-2.777 1.824-2.715 1.91-2.656 1.992-2.594 2.078-2.527 2.157-2.457 2.238-2.387 2.312-2.312 2.383-2.235 2.457-2.156 2.528-2.078 2.593-1.996 2.657-1.91 2.718-1.825 2.778-1.734 2.832-1.645 2.886-1.554 2.934-1.461 2.984-1.367 3.028-1.274 3.07-1.176 3.106-1.074 3.144-.976 3.176-.875 3.203-.778 3.23-.672 3.254-.574 3.274-.469 3.289-.363 3.3-.262 3.313-.156 3.317-.05 3.324.05 3.32.156 3.32.262 3.313.363 3.3.47 3.29.573 3.273.672 3.25.778 3.23.875 3.208.976 3.175 1.074 3.141 1.176 3.11 1.274 3.07 1.367 3.027 1.46 2.98 1.555 2.938 1.645 2.887 1.734 2.832 1.825 2.777 1.91 2.719 1.996 2.656 2.078 2.59 2.156 2.527 2.235 2.457 2.312 2.387 2.387 2.313 2.457 2.234 2.527 2.156 2.594 2.078 2.656 1.996 2.715 1.91 2.777 1.825 2.832 1.734 2.887 1.649 2.938 1.554 2.984 1.461 3.027 1.367 3.067 1.27 3.11 1.176 3.144 1.074 3.172.977 3.207.878 3.23.774 3.254.676 3.27.57 3.289.469 3.304.363 3.313.262 3.316.156 3.32.05 3.325-.05 3.316-.156 3.313-.262 3.3-.363 3.29-.469 3.273-.57 3.254-.676 3.23-.774 3.203-.878 3.176-.977 3.145-1.074 3.105-1.176 3.07-1.27 3.028-1.367 2.984-1.46 2.938-1.555 2.882-1.649 2.836-1.734 2.774-1.824 2.719-1.91 2.656-1.997 2.594-2.078 2.527-2.156 2.457-2.234 2.383-2.313 2.312-2.387 2.239-2.457 2.156-2.527 2.078-2.59 1.992-2.656 1.91-2.719 1.825-2.777 1.738-2.832 1.644-2.887 1.555-2.937 1.46-2.98 1.368-3.028 1.274-3.07 1.171-3.11 1.079-3.14.976-3.176.875-3.207.777-3.23.672-3.25.575-3.274.464-3.29.368-3.3.257-3.313.157-3.32zm0 0"/>
	<path fill="#050505" stroke="#6a5acd" stroke-linecap="round" stroke-linejoin="round" stroke-miterlimit="10" stroke-width="1.168" d="M302.398 175.047l-82.68 39.816-20.417 89.469 57.215 71.746h91.77l57.214-71.746-20.422-89.469zm0 0"/>
	<path fill="#2e2e2e" stroke="#6a5acd" stroke-linecap="round" stroke-linejoin="round" stroke-miterlimit="10" stroke-width="1.204" d="M397.68 280.8l-.047-2.991-.14-2.993-.235-2.984-.332-2.973-.418-2.964-.516-2.95-.61-2.93-.695-2.91-.792-2.886-.88-2.864-.968-2.828-1.059-2.8-1.144-2.766-1.235-2.73-1.316-2.688-1.398-2.645-1.485-2.597-1.562-2.555-1.645-2.5-1.723-2.45-1.796-2.394-1.872-2.336-1.94-2.277-2.017-2.21-2.082-2.153-2.152-2.082-2.21-2.012-2.278-1.945-2.336-1.871-2.395-1.797-2.449-1.723-2.5-1.644-2.55-1.563-2.602-1.484-2.645-1.399-2.687-1.316-2.73-1.235-2.766-1.144-2.797-1.059-2.832-.968-2.864-.88-2.886-.788-2.91-.7-2.93-.609-2.95-.512-2.964-.422-2.973-.328-2.984-.234-2.988-.145-2.997-.046-2.992.046-2.988.145-2.984.234-2.977.328-2.96.422-2.95.512-2.93.61-2.91.699-2.89.789-2.86.879-2.832.968-2.8 1.059-2.766 1.144-2.727 1.235-2.687 1.316-2.645 1.399-2.602 1.484-2.55 1.563-2.504 1.644-2.45 1.723-2.39 1.797-2.336 1.87-2.277 1.946-2.215 2.012-2.149 2.082-2.082 2.152-2.015 2.211-1.946 2.277-1.87 2.336-1.798 2.395-1.718 2.45-1.645 2.5-1.562 2.554-1.485 2.597-1.402 2.645-1.316 2.687-1.231 2.73-1.144 2.767-1.06 2.8-.968 2.828-.883 2.864-.789 2.886-.699 2.91-.605 2.93-.516 2.95-.422 2.964-.328 2.973-.234 2.984-.141 2.993-.047 2.992.047 2.992.14 2.988.235 2.985.328 2.976.422 2.961.516 2.95.605 2.933.7 2.91.788 2.887.883 2.86.969 2.831 1.059 2.801 1.144 2.766 1.23 2.726 1.317 2.688 1.402 2.644 1.485 2.602 1.562 2.55 1.645 2.504 1.718 2.45 1.797 2.39 1.871 2.336 1.946 2.278 2.015 2.214 2.082 2.149 2.149 2.082 2.215 2.016 2.277 1.945 2.336 1.87 2.39 1.798 2.45 1.719 2.504 1.644 2.55 1.567 2.602 1.48 2.645 1.402 2.687 1.317 2.727 1.23 2.765 1.145 2.801 1.058 2.832.97 2.86.882 2.89.789 2.91.7 2.93.605 2.95.515 2.96.422 2.977.328 2.984.235 2.988.14 2.992.047 2.997-.047 2.988-.14 2.984-.235 2.973-.328 2.965-.422 2.949-.515 2.93-.606 2.91-.7 2.886-.788 2.864-.883 2.832-.969 2.797-1.058 2.765-1.145 2.73-1.23 2.688-1.317 2.645-1.402 2.601-1.48 2.551-1.567 2.5-1.644 2.45-1.72 2.394-1.796 2.336-1.871 2.277-1.945 2.211-2.016 2.152-2.082 2.082-2.149 2.016-2.214 1.942-2.278 1.87-2.336 1.797-2.39 1.723-2.45 1.645-2.503 1.562-2.551 1.485-2.602 1.398-2.644 1.316-2.688 1.235-2.726 1.144-2.766 1.059-2.8.969-2.833.879-2.86.793-2.886.695-2.91.61-2.934.515-2.949.418-2.96.332-2.977.234-2.985.14-2.988zm0 0"/>
	<path fill="#050505" stroke="#6a5acd" stroke-linecap="round" stroke-linejoin="round" stroke-miterlimit="10" stroke-width="1.204" d="M302.398 185.52l-82.511 47.64v95.281l82.511 47.637 82.516-47.637v-95.28zm0 0"/>
	<path fill="#262626" stroke="#6a5acd" stroke-linecap="round" stroke-linejoin="round" stroke-miterlimit="10" stroke-width="1.249" d="M384.914 280.8l-.039-2.593-.125-2.59-.203-2.582-.285-2.578-.364-2.566-.445-2.551-.527-2.54-.606-2.519-.683-2.5-.762-2.48-.84-2.453-.914-2.422-.992-2.395-1.067-2.363-1.14-2.328-1.215-2.293-1.285-2.25-1.352-2.211-1.425-2.164-1.489-2.121-1.558-2.074-1.621-2.024-1.684-1.969-1.742-1.918-1.805-1.863-1.863-1.805-1.914-1.742-1.973-1.683-2.023-1.621-2.07-1.559-2.122-1.488-2.168-1.422-2.21-1.356-2.25-1.285-2.294-1.21-2.328-1.141-2.36-1.067-2.394-.992-2.425-.918-2.454-.84-2.476-.762-2.5-.683-2.524-.606-2.535-.527-2.554-.445-2.567-.363-2.578-.286-2.582-.203-2.59-.12-2.594-.044-2.59.043-2.59.121-2.585.203-2.574.286-2.567.363-2.555.445-2.539.527-2.52.606-2.5.684-2.476.761-2.453.84-2.426.918-2.394.992-2.363 1.067-2.329 1.14-2.289 1.211-2.25 1.285-2.21 1.356-2.168 1.422-2.122 1.488-2.07 1.559-2.023 1.62-1.973 1.684-1.918 1.742-1.86 1.805-1.804 1.863-1.746 1.918-1.684 1.97-1.62 2.023-1.555 2.074-1.493 2.12-1.422 2.165-1.355 2.21-1.281 2.25-1.215 2.294-1.14 2.328-1.067 2.363-.992 2.395-.914 2.422-.84 2.453-.762 2.48-.687 2.5-.602 2.52-.527 2.539-.446 2.55-.367 2.567-.281 2.578-.203 2.582-.125 2.59-.04 2.594.04 2.59.125 2.59.203 2.585.281 2.575.367 2.566.446 2.555.527 2.539.602 2.52.687 2.5.762 2.476.84 2.453.914 2.426.992 2.394 1.066 2.364 1.14 2.328 1.216 2.289 1.281 2.254 1.355 2.207 1.422 2.168 1.493 2.12 1.554 2.075 1.621 2.02 1.684 1.972 1.746 1.918 1.805 1.86 1.86 1.804 1.917 1.746 1.973 1.684 2.023 1.621 2.07 1.555 2.122 1.492 2.168 1.422 2.21 1.355 2.25 1.285 2.29 1.211 2.328 1.14 2.363 1.067 2.394.993 2.426.918 2.453.84 2.477.761 2.5.684 2.52.605 2.538.524 2.555.445 2.567.367 2.574.285 2.586.203 2.59.121 2.59.04 2.593-.04 2.59-.12 2.582-.204 2.578-.285 2.567-.367 2.554-.445 2.535-.524 2.524-.605 2.5-.684 2.476-.762 2.454-.84 2.425-.917 2.395-.993 2.36-1.066 2.327-1.14 2.293-1.212 2.25-1.285 2.211-1.355 2.168-1.422 2.121-1.492 2.07-1.555 2.024-1.621 1.973-1.684 1.914-1.746 1.863-1.804 1.805-1.86 1.742-1.918 1.684-1.972 1.62-2.02 1.56-2.074 1.488-2.121 1.425-2.168 1.352-2.207 1.285-2.254 1.215-2.29 1.14-2.327 1.067-2.364.992-2.394.914-2.426.84-2.453.762-2.477.683-2.5.606-2.52.527-2.538.445-2.555.364-2.566.285-2.575.203-2.586.125-2.59zm0 0"/>
	<path fill="#050505" stroke="#6a5acd" stroke-linecap="round" stroke-linejoin="round" stroke-miterlimit="10" stroke-width="1.249" d="M302.398 198.285l-78.472 57.016 29.972 92.254h97.004l29.973-92.254zm0 0"/>
	<path fill="#1f1f1f" stroke="#6a5acd" stroke-linecap="round" stroke-linejoin="round" stroke-miterlimit="10" stroke-width="1.306" d="M369.156 280.8l-.035-2.097-.098-2.094-.164-2.09-.23-2.085-.297-2.079-.36-2.062-.425-2.055-.488-2.039-.555-2.023-.617-2.004-.68-1.985-.738-1.96-.805-1.938-.863-1.91-.922-1.887-.98-1.851-1.04-1.82-1.097-1.79-1.149-1.754-1.207-1.714-1.258-1.676-1.312-1.637-1.363-1.598-1.41-1.55-1.461-1.504-1.504-1.461-1.551-1.41-1.594-1.364-1.637-1.308-1.68-1.262-1.714-1.203-1.754-1.153-1.785-1.097-1.824-1.04-1.852-.98-1.883-.922-1.914-.863-1.937-.8-1.961-.743-1.985-.68-2.004-.617-2.023-.554-2.04-.489-2.05-.425-2.066-.36-2.078-.297-2.082-.23-2.094-.164-2.094-.098-2.098-.035-2.093.035-2.098.098-2.09.164-2.082.23-2.078.297-2.066.36-2.055.425-2.04.489-2.019.554-2.004.618-1.984.68-1.965.741-1.937.801-1.91.863-1.883.922-1.852.98-1.824 1.04-1.79 1.097-1.75 1.153-1.714 1.203-1.68 1.262-1.636 1.308-1.594 1.364-1.55 1.41-1.509 1.46-1.457 1.505-1.41 1.55-1.363 1.598-1.313 1.637-1.257 1.675-1.208 1.715-1.152 1.754-1.094 1.79-1.039 1.82-.98 1.851-.922 1.887-.863 1.91-.805 1.938-.742 1.96-.68 1.985-.613 2.004-.555 2.023-.488 2.04-.426 2.054-.363 2.062-.293 2.079-.23 2.086-.165 2.09-.101 2.093-.031 2.098.03 2.097.102 2.094.164 2.09.23 2.086.294 2.074.363 2.067.426 2.054.488 2.04.555 2.023.613 2.004.68 1.984.742 1.961.805 1.938.863 1.91.922 1.882.98 1.856 1.04 1.82 1.093 1.79 1.153 1.75 1.207 1.718 1.257 1.676 1.313 1.637 1.363 1.593 1.41 1.551 1.457 1.508 1.508 1.457 1.55 1.414 1.595 1.36 1.636 1.312 1.68 1.258 1.715 1.207 1.75 1.152 1.789 1.094 1.824 1.039 1.852.984 1.883.922 1.91.863 1.937.801 1.965.742 1.984.68 2.004.617 2.02.551 2.039.492 2.055.422 2.066.363 2.078.293 2.082.23 2.09.165 2.098.101 2.093.032 2.098-.032 2.094-.101 2.094-.164 2.082-.23 2.078-.294 2.066-.363 2.05-.422 2.04-.492 2.023-.55 2.004-.618 1.985-.68 1.96-.742 1.938-.8 1.914-.864 1.883-.922 1.852-.984 1.824-1.04 1.785-1.093 1.754-1.152 1.715-1.207 1.68-1.258 1.636-1.313 1.594-1.359 1.55-1.414 1.505-1.457 1.46-1.508 1.41-1.55 1.364-1.594 1.312-1.637 1.258-1.676 1.207-1.719 1.149-1.75 1.097-1.789 1.04-1.82.98-1.856.922-1.882.863-1.91.805-1.938.738-1.96.68-1.985.617-2.004.555-2.024.488-2.039.426-2.054.359-2.067.297-2.074.23-2.086.164-2.09.098-2.094zm0 0"/>
	<path fill="#050505" stroke="#6a5acd" stroke-linecap="round" stroke-linejoin="round" stroke-miterlimit="10" stroke-width="1.306" d="M302.398 214.043l-66.753 66.758 66.753 66.754 66.758-66.754zm0 0"/>
	<path fill="#171717" stroke="#6a5acd" stroke-linecap="round" stroke-linejoin="round" stroke-miterlimit="10" stroke-width="1.383" d="M349.602 280.8l-.024-1.484-.066-1.48-.117-1.477-.165-1.476-.207-1.469-.257-1.46-.301-1.45-.344-1.442-.39-1.433-.438-1.414-.48-1.406-.524-1.387-.566-1.367-.614-1.352-.652-1.332-.691-1.312-.735-1.286-.777-1.265-.813-1.238-.851-1.215-.89-1.188-.93-1.156-.961-1.125-1-1.098-1.032-1.066-1.066-1.031-1.094-1-1.129-.961-1.156-.926-1.187-.89-1.211-.856-1.243-.813-1.261-.773-1.29-.734-1.312-.696-1.328-.652-1.352-.61-1.37-.57-1.387-.523-1.403-.48-1.418-.434-1.43-.395-1.445-.344-1.449-.3-1.46-.254-1.47-.211-1.472-.164-1.48-.114-1.481-.07-1.485-.023-1.48.023-1.48.07-1.481.114-1.473.164-1.468.21-1.461.255-1.453.3-1.442.344-1.43.395-1.418.433-1.402.48-1.387.524-1.37.57-1.352.61-1.332.652-1.309.696-1.289.734-1.266.773-1.238.813-1.21.855-1.188.89-1.156.927-1.13.96-1.097 1-1.063 1.032-1.03 1.066-1 1.098-.962 1.125-.93 1.156-.89 1.188-.852 1.215-.812 1.238-.777 1.265-.735 1.286-.695 1.312-.652 1.332-.61 1.352-.566 1.367-.524 1.387-.48 1.406-.438 1.414-.39 1.433-.348 1.442-.3 1.45-.255 1.46-.207 1.469-.164 1.476-.117 1.477-.07 1.48-.024 1.485.024 1.48.07 1.485.117 1.476.164 1.473.207 1.469.254 1.46.301 1.454.348 1.441.39 1.43.438 1.418.48 1.402.524 1.387.566 1.37.61 1.352.652 1.332.695 1.31.735 1.288.777 1.266.812 1.238.852 1.215.89 1.183.93 1.157.961 1.129 1 1.097 1.031 1.063 1.063 1.035 1.098.996 1.128.965 1.157.926 1.187.89 1.211.852 1.238.816 1.266.774 1.29.734 1.308.695 1.332.653 1.351.61 1.371.565 1.387.524 1.402.48 1.418.438 1.43.39 1.442.348 1.453.301 1.46.254 1.47.207 1.472.164 1.48.117 1.481.07 1.48.024 1.485-.024 1.48-.07 1.48-.117 1.473-.164 1.47-.207 1.46-.254 1.45-.3 1.445-.348 1.43-.391 1.417-.438 1.403-.48 1.386-.524 1.371-.566 1.352-.61 1.328-.652 1.313-.695 1.289-.734 1.261-.774 1.243-.816 1.21-.852 1.188-.89 1.156-.926 1.13-.965 1.093-.996 1.066-1.035 1.032-1.063 1-1.097.96-1.13.93-1.156.89-1.183.852-1.215.813-1.238.777-1.266.735-1.289.691-1.309.652-1.332.614-1.351.566-1.371.524-1.387.48-1.402.437-1.418.391-1.43.344-1.441.3-1.453.258-1.461.207-1.47.165-1.472.117-1.476.066-1.485zm0 0"/>
	<path fill="#050505" stroke="#6a5acd" stroke-linecap="round" stroke-linejoin="round" stroke-miterlimit="10" stroke-width="1.383" d="M302.398 233.598l-40.878 70.804h81.757zm0 0"/>
	<path fill="#0f0f0f" stroke="#6a5acd" stroke-linecap="round" stroke-linejoin="round" stroke-miterlimit="10" stroke-width="1.5" d="M326 280.8l-.012-.741-.035-.743-.055-.738-.082-.734-.105-.735-.129-.73-.148-.727-.172-.722-.2-.715-.214-.707-.243-.703-.261-.692-.285-.687-.305-.676-.324-.664-.348-.656-.367-.645-.387-.633-.406-.617-.43-.61-.441-.59-.465-.581-.48-.563-.5-.546-.516-.536-.535-.515-.547-.496-.563-.485-.578-.46-.594-.446-.605-.426-.621-.41-.633-.387-.644-.367-.657-.347-.664-.325-.676-.304-.683-.286-.695-.261-.704-.239-.707-.218-.714-.196-.723-.175-.723-.149-.73-.129-.735-.105-.738-.078-.738-.059-.742-.035-.743-.012-.738.012-.742.035-.738.059-.739.078-.734.105-.73.13-.727.148-.719.175-.715.196-.71.218-.7.239-.695.261-.684.286-.675.304-.668.325-.653.347-.644.367-.633.387-.621.41-.606.426-.593.445-.579.461-.562.485-.55.496-.532.515-.516.536-.5.546-.48.563-.465.582-.445.59-.426.61-.406.616-.387.633-.367.645-.348.656-.328.664-.305.676-.281.687-.262.692-.242.703-.219.707-.195.715-.172.722-.152.727-.125.73-.106.735-.082.734-.058.738-.035.743-.012.742.012.742.035.738.058.739.082.738.106.734.125.73.152.727.172.719.195.715.22.71.241.7.262.695.281.684.305.676.328.668.348.656.367.64.387.633.406.621.426.606.445.594.465.578.48.562.5.551.516.531.531.516.551.5.562.48.579.465.593.446.606.425.62.407.634.386.644.367.653.348.668.328.675.305.684.285.695.262.7.238.71.219.715.195.719.172.727.152.73.125.734.106.739.082.738.058.742.036.738.011.743-.011.742-.036.738-.058.738-.082.735-.106.73-.125.723-.152.723-.172.714-.195.707-.219.704-.238.695-.262.683-.285.676-.305.664-.328.657-.348.644-.367.633-.386.621-.407.605-.425.594-.446.578-.465.563-.48.547-.5.535-.516.515-.531.5-.55.48-.563.466-.578.441-.594.43-.606.406-.62.387-.634.367-.64.348-.656.324-.668.305-.676.285-.684.261-.695.243-.7.214-.71.2-.715.172-.719.148-.726.129-.73.105-.735.082-.738.055-.739.035-.738zm0 0"/>
</svg>