<svg xmlns="http://www.w3.org/2000/svg" viewBox="0 0 720 720">
	<rect rx="0%" ry="0%" width="100%" height="100%" fill="#000000ff"/>
	<g id="violet_blackout_stop" transform="translate(684 684)" cursor="pointer">
		<circle r="20"/>
		<text fill="#642594" text-anchor="middle" alignment-baseline="central" font-family="inherit" font-size="14pt">Stop</text>
	</g>
	<g id="violet_blackout_start" transform="translate(36 684)" cursor="pointer">
		<circle r="20"/>
		<text fill="#642594" text-anchor="middle" alignment-baseline="central" font-family="inherit" font-size="14pt">Start</text>
	</g>
	<g>
		<path d="M693.332 360l-.594-11.3-1.789-11.192-2.957-10.969-4.105-10.637-5.215-10.203-6.277-9.66-7.29-9.027-8.23-8.301-9.105-7.484-9.895-6.598-10.602-5.64-11.207-4.618-11.722-3.543-12.13-2.43-12.433-1.277-12.62-.113-12.704 1.074-12.672 2.258-12.531 3.433-12.277 4.59-11.914 5.715-11.45 6.8-10.886 7.837-10.223 8.816-9.473 9.727-8.644 10.562-7.73 11.317-6.759 11.976-5.726 12.547-4.645 13.012-3.523 13.371-2.371 13.625-1.207 13.773-.024 13.801 1.149 13.723 2.312 13.531 3.453 13.23 4.559 12.825 5.625 12.312 6.633 11.703 7.582 11 8.46 10.211 9.262 9.34 9.977 8.399 10.602 7.394 11.129 6.332 11.55 5.223 11.867 4.086 12.083 2.914 12.175 1.73 12.164.543 12.04-.64 11.804-1.805 11.461-2.945 11.012-4.051 10.46-5.106 9.81-6.105 9.074-7.04 8.246-7.905 7.347-8.688 6.375-9.379 5.348-9.98 4.262-10.485 3.132-10.882 1.98-11.172.798-11.356-.39-11.422-1.587-11.382-2.765-11.23-3.93-10.97-5.063-10.593-6.156-10.122-7.195-9.546-8.18-8.88-9.097-8.116-9.934-7.278-10.695-6.363-11.356-5.379-11.93-4.34-12.398-3.254-12.762-2.125-13.023-.972-13.164.203-13.203 1.386-13.125 2.563-12.934 3.73-12.64 4.871-12.235 5.98-11.726 7.044-11.125 8.058-10.422 9.004-9.641 9.883-8.773 10.684-7.836 11.398-6.836 12.02-5.785 12.543-4.68 12.969-3.547 13.28-2.387 13.489-1.21 13.586-.032 13.566 1.14 13.442 2.298 13.203 3.425 12.86 4.52 12.402 5.562 11.851 6.555 11.2 7.477 10.46 8.324 9.633 9.094 8.735 9.777 7.757 10.363 6.727 10.848 5.644 11.234 4.52 11.512 3.363 11.676 2.184 11.734.996 11.676-.195 11.508-1.38 11.23-2.534 10.848-3.664 10.36-4.754 9.765-5.79 9.086-6.769 8.312-7.68 7.461-8.515 6.532-9.262 5.535-9.926 4.484-10.488 3.387-10.953 2.246-11.313 1.086-11.562-.102-11.7-1.293-11.73-2.48-11.644-3.656-11.454-4.801-11.144-5.922-10.738-6.988-10.227-8.012-9.613-8.961-8.91-9.848-8.121-10.652-7.25-11.375-6.313-11.996-5.309-12.528-4.25-12.953-3.144-13.273-2.012-13.484-.847-13.586.324-13.57 1.508-13.446 2.675-13.215 3.836-12.87 4.961-12.423 6.047-11.87 7.094-11.231 8.078-10.489 8.996-9.672 9.844-8.773 10.605-7.809 11.285-6.785 11.864-5.707 12.343-4.586 12.723-3.441 12.996-2.27 13.153-1.09 13.203.09 13.14 1.262 12.97 2.41 12.679 3.531 12.293 4.606 11.793 5.629 11.203 6.598 10.508 7.496 9.734 8.316 8.875 9.05 7.941 9.7 6.942 10.25 5.887 10.7 4.78 11.042 3.641 11.281 2.473 11.403 1.29 11.418.093 11.316-1.098 11.113-2.27 10.79-3.421 10.367-4.535 9.843-5.61 9.215-6.625 8.5-7.578 7.696-8.46 6.812-9.266 5.863-9.98 4.844-10.61 3.778-11.133 2.664-11.555 1.515-11.875.348-12.078-.84-12.18-2.027-12.164-3.211-12.035-4.371-11.8-5.504-11.458-6.602-11.003-7.652-10.454-8.64-9.808-9.567-9.07-10.414-8.247-11.188-7.351-11.863-6.387-12.45-5.363-12.933-4.285-13.316-3.168-13.59-2.024-13.754-.86-13.805.321-13.742 1.5-13.574 2.66-13.293 3.809-12.902 4.918-12.414 5.988-11.82 7.008-11.134 7.965-10.363 8.86-9.504 9.667-8.578 10.399-7.586 11.035-6.535 11.578-5.434 12.016-4.304 12.347-3.14 12.574-1.962 12.692-.777 12.695.406 12.586 1.566 12.363 2.715 12.04 3.817 11.601 4.875 11.066 5.886 10.434 6.825 9.707 7.699 8.89 8.488 8.005 9.195 7.043 9.805 6.015 10.32 4.942 10.73 3.82 11.036 2.668 11.227 1.488 11.312.3 11.285-.894 11.149-2.082 10.894-3.246 10.54-4.386 10.074-5.485 9.511-6.539 8.852-7.531 8.105-8.457 7.274-9.309 6.363-10.082 5.387-10.758 4.355-11.347 3.27-11.836 2.14-12.215.993-12.488-.188-12.653-1.367-12.707-2.555-12.648-3.723-12.477-4.875-12.195-5.988-11.809-7.066-11.316-8.09-10.73-9.05-10.043-9.942-9.274-10.758-8.422-11.492-7.496-12.125-6.504-12.672-5.46-13.113-4.368-13.446-3.238-13.672-2.082-13.789-.906-13.793.265-13.687 1.442-13.465 2.601-13.137 3.734-12.707 4.829-12.168 5.878-11.535 6.88-10.812 7.808-10 8.668-9.114 9.45-8.152 10.144-7.133 10.742-6.058 11.242-4.942 11.64-3.793 11.934-2.62 12.114-1.434 12.183-.246 12.145.933 11.992 2.094 11.726 3.222 11.36 4.32 10.883 5.36 10.304 6.348 9.633 7.262 8.875 8.109 8.031 8.867 7.11 9.543 6.125 10.113 5.078 10.594 3.984 10.965 2.848 11.227 1.687 11.382.5 11.426-.691 11.356-1.879 11.171-3.062 10.887-4.215 10.488-5.34 9.985-6.422 9.39-7.45 8.696-8.413 7.914-9.313 7.055-10.133 6.12-10.867 5.13-11.511 4.07-12.055 2.973-12.5 1.84-12.84.679-13.066-.5-13.184-1.68-13.195-2.855-13.086-4.02-12.875-5.152-12.547-6.25-12.117-7.3-11.586-8.302-10.957-9.23-10.235-10.094-9.43-10.867-8.546-11.562-7.59-12.16-6.578-12.66-5.512-13.055-4.402-13.344-3.258-13.524-2.094-13.593-.914-13.547.262-13.39 1.43-13.13 2.586-12.75 3.703-12.277 4.785-11.695 5.816-11.024 6.79-10.262 7.695-9.418 8.523-8.492 9.273-7.508 9.934-6.46 10.492-5.368 10.957-4.23 11.313-3.07 11.562-1.887 11.703-.7 11.727.493 11.644 1.668 11.454 2.824 11.144 3.937 10.735 5.02 10.218 6.039 9.606 7.004 8.902 7.898 8.106 8.707 7.234 9.442 6.285 10.074 5.281 10.613 4.215 11.055 3.102 11.383 1.96 11.605.79 11.719-.403 11.719-1.59 11.61-2.773 11.386-3.945 11.055-5.086 10.617-6.192 10.082-7.25 9.445-8.253 8.723-9.192 7.91-10.058 7.02-10.84 6.066-11.54 5.047-12.136 3.98-12.645 2.867-13.043 1.72-13.336.558-13.52-.621-13.589-1.801-13.55-2.969-13.403-4.117-13.137-5.238-12.77-6.317-12.292-7.344-11.719-8.312-11.055-9.219-10.293-10.039-9.453L265 355.91l-11.438-7.558-11.992-6.516-12.453-5.43-12.8-4.304-13.044-3.149-13.175-1.976-13.2-.793-13.105.382-12.906 1.551-12.594 2.695-12.18 3.801-11.652 4.867-11.04 5.88-10.323 6.827-9.524 7.708-8.648 8.507-7.7 9.227-6.68 9.844-5.616 10.37-4.5 10.798-3.352 11.113-2.176 11.32-.988 11.418.203 11.403 1.39 11.277 2.56 11.039 3.706 10.695 4.809 10.246 5.867 9.692 6.867 9.047 7.809 8.304 8.672 7.485 9.45 6.582 10.148 5.613 10.746 4.582 11.25 3.504 11.644 2.379 11.938 1.226 12.117.047 12.183-1.136 12.141-2.325 11.988-3.5 11.727-4.656 11.351-5.785 10.875-6.867 10.301-7.907 9.633-8.878 8.871-9.786 8.031-10.613 7.118-11.363 6.132-12.024 5.098-12.578 4.012-13.039 2.887-13.394 1.73-13.64.566-13.778-.617-13.801-1.789-13.711-2.953-13.516-4.086-13.203-5.191-12.793-6.246-12.273-7.254-11.656-8.2-10.95-9.066-10.156-9.86-9.277-10.566-8.336-11.18-7.328-11.695-6.262-12.11-5.156-12.417-4.016-12.613-2.847-12.703-1.665-12.676-.48-12.54.695-12.296 1.86-11.938 2.992-11.476 4.086-10.918 5.133-10.258 6.128-9.512 7.051-8.68 7.903-7.765 8.675-6.793 9.356-5.754 9.941-4.664 10.434-3.535 10.816-2.375 11.094-1.192 11.262v11.312l1.192 11.262 2.375 11.094 3.535 10.816 4.664 10.434 5.754 9.941 6.793 9.356 7.766 8.675 8.68 7.903 9.51 7.05 10.259 6.13 10.918 5.132 11.476 4.086 11.938 2.992 12.297 1.86 12.539.695 12.675-.48 12.704-1.664 12.613-2.848 12.418-4.016 12.11-5.156 11.695-6.262 11.18-7.328 10.566-8.336 9.859-9.277 9.066-10.156 8.2-10.95 7.254-11.656 6.246-12.273 5.191-12.793 4.086-13.203 2.953-13.516 1.79-13.711.616-13.8-.566-13.778-1.73-13.64-2.887-13.395-4.012-13.04-5.098-12.577-6.132-12.024-7.118-11.363-8.03-10.613-8.872-9.786-9.633-8.879-10.3-7.906-10.876-6.867-11.351-5.785-11.727-4.656-11.988-3.5-12.14-2.325-12.184-1.136-12.117.047-11.938 1.226-11.644 2.38-11.25 3.503-10.746 4.582-10.149 5.613-9.45 6.582-8.671 7.485-7.809 8.304-6.867 9.047-5.867 9.692-4.809 10.246-3.707 10.695-2.558 11.04-1.39 11.276-.204 11.403.988 11.418 2.176 11.32 3.352 11.113 4.5 10.797 5.617 10.371 6.68 9.844 7.699 9.227 8.648 8.507 9.524 7.707 10.324 6.829 11.039 5.879 11.652 4.867 12.18 3.8 12.594 2.696 12.906 1.55 13.105.383 13.2-.793 13.175-1.976 13.043-3.149 12.801-4.304 12.453-5.43 11.993-6.516L265 364.09l10.785-8.54 10.04-9.452 9.218-10.293 8.312-11.055 7.344-11.719 6.317-12.293 5.238-12.77 4.117-13.136 2.969-13.402 1.8-13.551.622-13.59-.559-13.52-1.719-13.335-2.867-13.043-3.98-12.645-5.047-12.137-6.067-11.539-7.02-10.84-7.91-10.058-8.722-9.192-9.445-8.253-10.082-7.25-10.617-6.192-11.055-5.086-11.387-3.945-11.61-2.774-11.718-1.59-11.719-.402-11.605.79-11.383 1.96-11.055 3.102-10.613 4.215-10.074 5.28-9.442 6.286-8.707 7.234-7.898 8.106-7.004 8.902-6.039 9.606-5.02 10.219-3.937 10.734-2.824 11.144-1.668 11.454-.492 11.644.699 11.727 1.886 11.703 3.07 11.562 4.231 11.313 5.367 10.957 6.461 10.492 7.508 9.934 8.492 9.273 9.418 8.523 10.262 7.696 11.024 6.789 11.695 5.816 12.277 4.785 12.75 3.704 13.13 2.585 13.39 1.43 13.547.262 13.593-.914 13.524-2.094 13.344-3.258 13.054-4.402 12.66-5.512 12.16-6.578 11.563-7.59 10.867-8.547 10.094-9.43 9.23-10.234 8.301-10.957 7.301-11.586 6.25-12.117 5.152-12.547 4.02-12.875 2.855-13.086 1.68-13.195.5-13.184-.68-13.066-1.84-12.84-2.972-12.5-4.07-12.055-5.13-11.511-6.12-10.867-7.055-10.133-7.914-9.313-8.696-8.414-9.39-7.45-9.985-6.42-10.488-5.34-10.887-4.216-11.171-3.062-11.356-1.879-11.426-.691-11.382.5-11.227 1.687-10.965 2.848-10.594 3.984-10.113 5.078-9.543 6.125-8.867 7.11-8.11 8.03-7.261 8.876-6.348 9.633-5.36 10.304-4.32 10.883-3.222 11.36-2.094 11.726-.934 11.992.247 12.145 1.433 12.183 2.621 12.114 3.793 11.933 4.942 11.64 6.058 11.243 7.133 10.742 8.152 10.145 9.114 9.449 10 8.668 10.812 7.809 11.535 6.878 12.168 5.88 12.707 4.828 13.137 3.734 13.465 2.601 13.687 1.442 13.793.265 13.79-.906 13.671-2.082 13.446-3.238 13.113-4.367 12.672-5.461 12.125-6.504 11.492-7.496 10.758-8.422 9.941-9.274 9.051-10.042 8.09-10.73 7.066-11.317 5.988-11.809 4.875-12.195 3.723-12.477 2.555-12.648 1.367-12.707.188-12.653-.993-12.488-2.14-12.215-3.27-11.836-4.355-11.347-5.387-10.758-6.363-10.082-7.274-9.309-8.105-8.457-8.852-7.531-9.511-6.54-10.075-5.483-10.539-4.387-10.894-3.246-11.149-2.082-11.285-.895-11.312.3-11.227 1.49-11.035 2.667-10.73 3.82-10.32 4.942-9.806 6.016-9.195 7.042-8.488 8.004-7.7 8.891-6.824 9.707-5.886 10.434-4.875 11.066-3.817 11.602-2.715 12.039-1.566 12.363-.406 12.586.777 12.695 1.961 12.692 3.14 12.574 4.305 12.347 5.434 12.016 6.535 11.578 7.586 11.035 8.578 10.399 9.504 9.668 10.363 8.86 11.133 7.964 11.82 7.008 12.415 5.988 12.902 4.918 13.293 3.809 13.574 2.66 13.742 1.5 13.805.32 13.754-.86 13.59-2.023 13.316-3.168 12.934-4.285 12.449-5.363 11.863-6.387 11.188-7.351 10.414-8.246 9.566-9.07 8.64-9.81 7.653-10.452 6.602-11.004 5.504-11.457 4.37-11.801 3.212-12.035 2.027-12.164.84-12.18-.348-12.078-1.515-11.875-2.664-11.555-3.778-11.133-4.844-10.61-5.863-9.98-6.812-9.265-7.696-8.461-8.5-7.578-9.215-6.625-9.843-5.61-10.367-4.535-10.79-3.422-11.113-2.27-11.316-1.097-11.418.094-11.403 1.289-11.28 2.473-11.044 3.64-10.699 4.781-10.25 5.887-9.7 6.942-9.05 7.941-8.316 8.875-7.496 9.734-6.598 10.508-5.629 11.203-4.606 11.793-3.53 12.293-2.41 12.68-1.263 12.969-.09 13.14 1.09 13.203 2.27 13.153 3.441 12.996 4.586 12.723 5.707 12.343 6.785 11.864 7.809 11.285 8.773 10.605 9.672 9.844 10.489 8.996 11.23 8.078 11.871 7.094 12.422 6.047 12.871 4.96 13.215 3.837 13.445 2.675 13.57 1.508 13.587.324 13.484-.847 13.273-2.012 12.953-3.144 12.528-4.25 11.996-5.309 11.375-6.313 10.652-7.25 9.848-8.12 8.96-8.91 8.013-9.614 6.988-10.227 5.922-10.738 4.8-11.144 3.657-11.454 2.48-11.644 1.293-11.73.102-11.7-1.086-11.562-2.246-11.313-3.387-10.953-4.484-10.488-5.535-9.926-6.532-9.262-7.46-8.515-8.313-7.68-9.086-6.77-9.766-5.789-10.36-4.754-10.847-3.664-11.23-2.535-11.508-1.379-11.676-.195-11.734.996L490.5 95.72l-11.512 3.363-11.234 4.52-10.848 5.644-10.363 6.727-9.777 7.757-9.094 8.735-8.324 9.633-7.477 10.46-6.555 11.2-5.562 11.851-4.52 12.403-3.425 12.86-2.297 13.202-1.14 13.442.03 13.566 1.211 13.586L392 268.156l3.547 13.281 4.68 12.97 5.785 12.542 6.836 12.02 7.836 11.398 8.773 10.684 9.64 9.883 10.423 9.003 11.125 8.06 11.726 7.042 12.234 5.98 12.641 4.872 12.934 3.73 13.125 2.563 13.203 1.386 13.164.203 13.023-.972 12.762-2.125 12.398-3.254 11.93-4.34 11.356-5.379 10.695-6.363 9.934-7.277 9.097-8.118 8.18-8.879 7.195-9.546 6.156-10.122 5.063-10.593 3.93-10.97 2.765-11.23 1.586-11.382.39-11.422-.796-11.356-1.98-11.172-3.133-10.882-4.262-10.485-5.348-9.98-6.375-9.38-7.347-8.687-8.246-7.906-9.075-7.039-9.808-6.105-10.461-5.106-11.012-4.05-11.46-2.946-11.806-1.805-12.039-.64-12.164.543-12.175 1.73-12.082 2.914-11.868 4.086-11.55 5.223-11.13 6.332-10.6 7.394-9.978 8.399-9.261 9.34-8.461 10.21-7.582 11-6.633 11.704-5.625 12.312-4.559 12.824-3.453 13.23-2.312 13.532-1.149 13.723.024 13.8 1.207 13.774 2.37 13.625 3.524 13.371 4.645 13.012 5.726 12.547 6.758 11.976 7.73 11.317 8.645 10.562 9.473 9.727 10.223 8.816 10.886 7.836 11.45 6.8 11.914 5.716 12.277 4.59 12.531 3.433 12.672 2.258 12.703 1.074 12.621-.113 12.434-1.277 12.129-2.43 11.722-3.543 11.207-4.617 10.602-5.64 9.895-6.599 9.105-7.484 8.23-8.3 7.29-9.028 6.277-9.66 5.215-10.203 4.105-10.637 2.957-10.969 1.79-11.191.593-11.301" fill="none" stroke-width="3" stroke-linecap="round" stroke-linejoin="round" stroke="#642594" stroke-miterlimit="10"/>
		<animateTransform attributeType="xml" attributeName="transform" type="rotate" from="0 360 360" to="360 360 360" dur="120s" additive="sum" repeatCount="indefinite" begin="violet_blackout_start.click" end="violet_blackout_stop.click"/>
	</g>
	<g xmlns="http://www.w3.org/2000/svg">
		<path d="M693.332 360l-.52-10.469-1.558-10.375-2.582-10.195-3.586-9.926-4.566-9.57-5.508-9.13-6.407-8.608-7.261-8.012-8.051-7.344-8.79-6.61-9.452-5.812-10.047-4.96-10.563-4.067-10.996-3.121-11.347-2.149-11.61-1.148-11.785-.129-11.871.898-11.863 1.934-11.766 2.957-11.574 3.973-11.305 4.965-10.937 5.925-10.496 6.856-9.965 7.738-9.367 8.574-8.696 9.348-7.957 10.059-7.16 10.707-6.305 11.28-5.41 11.77-4.469 12.188-3.496 12.508-2.5 12.754-1.488 12.902-.46 12.96.558 12.93 1.582 12.81 2.582 12.597 3.566 12.297 4.52 11.914 5.43 11.441 6.3 10.899 7.121 10.27 7.88 9.581 8.573 8.82 9.204 8.004 9.757 7.133 10.235 6.219 10.62 5.266 10.934 4.277 11.153 3.266 11.281 2.242 11.32 1.203 11.27.172 11.129-.856 10.894-1.867 10.578-2.855 10.172-3.813 9.688-4.726 9.12-5.602 8.481-6.422 7.77-7.183 7-7.88 6.168-8.507 5.281-9.055 4.36-9.531 3.39-9.918 2.399-10.227 1.375-10.437.347-10.57-.695-10.602-1.734-10.547-2.762-10.402-3.774-10.168-4.761-9.848-5.72-9.437-6.632-8.95-7.5-8.382-8.316-7.743-9.07-7.035-9.758-6.262-10.38-5.433-10.921-4.555-11.387-3.633-11.762-2.671-12.058-1.684-12.266-.676-12.379.348-12.402 1.379-12.336 2.402-12.184 3.422-11.933 4.414-11.602 5.39-11.183 6.325-10.688 7.223-10.11 8.074-9.46 8.863-8.742 9.598-7.965 10.27-7.133 10.859-6.246 11.378-5.32 11.82-4.356 12.173-3.367 12.441-2.36 12.621-1.332 12.707-.308 12.711.715 12.613L385.195 522l2.723 12.16 3.684 11.8 4.613 11.364 5.5 10.836 6.344 10.238 7.12 9.563 7.848 8.828 8.5 8.027 9.082 7.172 9.59 6.27 10.012 5.32 10.351 4.348 10.602 3.34 10.77 2.312 10.843 1.281 10.825.239 10.718-.793 10.524-1.813 10.234-2.816 9.86-3.785 9.406-4.72 8.87-5.612 8.259-6.457 7.574-7.243 6.824-7.96 6.02-8.622 5.152-9.199 4.246-9.707 3.293-10.125 2.309-10.469 1.304-10.715.274-10.878-.762-10.95-1.797-10.925-2.832-10.82-3.848-10.618-4.84-10.332-5.808-9.953-6.734-9.5-7.618-8.961-8.453-8.352-9.226-7.664-9.938-6.921-10.578-6.114-11.148-5.254-11.637-4.351-12.043-3.403-12.367-2.43-12.602-1.425-12.746-.414-12.8.617-12.766 1.637-12.637 2.66-12.422 3.66-12.117 4.64-11.727 5.587-11.253 6.496-10.7 7.363-10.078 8.172-9.379 8.926-8.62 9.617-7.805 10.234-6.93 10.781-6.02 11.243-5.062 11.629-4.082 11.921-3.074 12.133-2.051 12.254-1.024 12.281.004 12.22 1.028 12.066 2.027 11.824 3.004 11.492 3.953 11.078 4.855 10.582 5.72 10.008 6.523 9.36 7.273 8.64 7.953 7.86 8.567 7.023 9.101 6.133 9.559 5.199 9.93 4.23 10.218 3.235 10.418 2.21 10.527 1.176 10.547.137 10.473-.902 10.309-1.93 10.058-2.937 9.719-3.926 9.297-4.875 8.793-5.785 8.207-6.645 7.555-7.457 6.832-8.203 6.046-8.887 5.204-9.496 4.312-10.031 3.383-10.48 2.41-10.856 1.414-11.137.395-11.332-.637-11.437-1.668-11.453-2.703-11.375-3.719-11.207-4.723-10.954-5.695-10.609-6.637-10.184-7.527-9.675-8.383-9.09-9.172-8.438-9.902-7.71-10.566-6.93-11.16-6.086-11.672-5.2-12.11-4.269-12.457-3.305-12.723-2.312-12.894-1.301-12.977-.281-12.972.746-12.875 1.765-12.684 2.774-12.406 3.758-12.047 4.719-11.598 5.644-11.07 6.523-10.469 7.352-9.789 8.129-9.054 8.84-8.25 9.48-7.395 10.055-6.492 10.543-5.547 10.96-4.57 11.286-3.567 11.523-2.547 11.676-1.52 11.735-.48 11.707.543 11.582 1.555 11.37 2.55 11.075 3.509 10.687 4.433 10.22 5.317 9.671 6.144 9.047 6.918 8.352 7.629 7.593 8.27 6.774 8.832 5.902 9.324 4.984 9.73 4.028 10.055 3.039 10.285 2.02 10.434.992 10.484-.047 10.45-1.086 10.324-2.121 10.105-3.141 9.8-4.133 9.41-5.097 8.942-6.024 8.387-6.906 7.762-7.73 7.062-8.505 6.309-9.21 5.484-9.844 4.617-10.406 3.7-10.891 2.75-11.293 1.761-11.606.754-11.832-.27-11.968-1.3-12.02-2.332-11.972-3.352-11.836-4.355-11.614-5.336-11.3-6.285-10.907-7.196-10.425-8.058-9.868-8.867-9.238-9.618-8.535-10.3-7.774-10.918-6.953-11.457-6.078-11.918-5.164-12.293-4.21-12.582-3.227-12.79-2.223-12.898-1.203-12.922-.176-12.851.848-12.692 1.86-12.441 2.855-12.11 3.824-11.683 4.765-11.184 5.66-10.605 6.508-9.95 7.309-9.226 8.039-8.445 8.711-7.606 9.305-6.714 9.832-5.778 10.27-4.812 10.628-3.813 10.902-2.793 11.086-1.765 11.18-.723 11.18.305 11.094 1.332 10.914 2.332 10.644 3.308 10.293 4.254 9.856 5.153 9.336 6.003 8.738 6.801 8.07 7.54 7.332 8.206 6.54 8.805 5.683 9.328 4.781 9.762 3.84 10.121 2.863 10.39 1.856 10.57.832 10.661-.207 10.66-1.246 10.57-2.278 10.387-3.304 10.117-4.305 9.758-5.281 9.32-6.22 8.801-7.116 8.203-7.961 7.536-8.754 6.8-9.48 6.004-10.141 5.157-10.73 4.257-11.24 3.32-11.667 2.348-12.012 1.352-12.27.336-12.437-.688-12.515-1.718-12.504-2.739-12.399-3.75-12.203-4.734-11.922-5.695-11.55-6.614-11.102-7.492-10.57-8.316-9.961-9.086-9.286-9.793-8.542-10.43-7.739-10.992-6.883-11.48-5.976-11.883-5.035-12.203-4.063-12.434-3.062-12.574-2.043-12.625-1.016-12.586.008-12.457 1.027-12.235 2.035-11.93 3.016-11.53 3.969-11.06 4.883-10.5 5.754-9.87 6.566-9.168 7.328-8.406 8.027-7.582 8.649-6.704 9.203-5.785 9.672-4.82 10.066-3.832 10.371-2.817 10.586-1.785 10.715-.746 10.754.29 10.7 1.32 10.554 2.336 10.324 3.324 10 4.281 9.594 5.203 9.105 6.074 8.536 6.895 7.898 7.656 7.187 8.352 6.415 8.98 5.582 9.528 4.699 10.003 3.773 10.387 2.809 10.695 1.816 10.907.797 11.035-.23 11.066-1.27 11.008-2.305 10.863-3.328 10.63-4.34 10.304-5.32 9.894-6.27 9.403-7.183 8.84-8.043 8.195-8.852 7.488-9.601 6.715-10.281 5.89-10.899 5.009-11.43 4.086-11.886 3.128-12.258 2.145-12.543 1.133-12.742.113-12.848-.914-12.867-1.934-12.79-2.949-12.628-3.937-12.371-4.91-12.031-5.84-11.606-6.73-11.097-7.579-10.52-8.363-9.86-9.09-9.136-9.75-8.352-10.34-7.507-10.851-6.622-11.282-5.687-11.633-4.723-11.89-3.722-12.063-2.711-12.144-1.684-12.137-.656-12.035.375-11.848 1.387-11.566 2.378-11.203 3.348-10.75 4.281-10.223 5.168-9.617 6.008-8.938 6.793-8.195 7.516-7.39 8.168-6.528 8.75-5.621 9.258-4.672 9.675-3.691 10.02-2.68 10.27-1.652 10.433-.614 10.508.426 10.488 1.461 10.379 2.485 10.18 3.484 9.894 4.453 9.52 5.39 9.066 6.286 8.527 7.125 7.915 7.906 7.234 8.629 6.484 9.285 5.68 9.863 4.813 10.364 3.906 10.785 2.96 11.117 1.977 11.367.973 11.528-.05 11.59-1.087 11.57-2.117 11.457-3.145 11.254-4.156 10.96-5.144 10.587-6.106 10.125-7.027 9.582-7.902 8.972-8.727 8.285-9.496 7.54-10.2 6.726-10.835 5.871-11.39 4.961-11.876 4.02-12.273 3.039-12.59 2.039-12.813 1.027-12.949v-12.992l-1.027-12.95-2.04-12.812-3.038-12.59-4.02-12.273-4.96-11.875-5.872-11.39-6.727-10.837-7.539-10.199-8.285-9.496-8.972-8.727-9.582-7.902-10.125-7.027-10.586-6.106-10.961-5.144-11.254-4.156-11.457-3.145-11.57-2.117-11.59-1.086-11.528-.05-11.367.972-11.117 1.976-10.785 2.961-10.364 3.906-9.863 4.813-9.285 5.68-8.629 6.484-7.906 7.234-7.125 7.915-6.285 8.527-5.391 9.066-4.453 9.52-3.484 9.894-2.485 10.18-1.46 10.379-.427 10.488.614 10.508 1.652 10.434 2.68 10.27 3.691 10.019 4.672 9.675 5.621 9.258 6.527 8.75 7.391 8.168 8.195 7.516 8.938 6.793 9.617 6.008 10.223 5.168 10.75 4.28 11.203 3.349 11.566 2.378 11.848 1.387 12.035.375 12.137-.656 12.144-1.684 12.063-2.71 11.89-3.723 11.633-4.723 11.282-5.687 10.851-6.622 10.34-7.507 9.75-8.352 9.09-9.137 8.363-9.859 7.578-10.52 6.73-11.097 5.84-11.606 4.91-12.03 3.938-12.372 2.95-12.629 1.933-12.789.914-12.867-.113-12.848-1.133-12.742-2.145-12.543-3.128-12.258-4.086-11.887-5.008-11.43-5.89-10.898-6.716-10.28-7.488-9.602-8.195-8.852-8.84-8.043-9.402-7.184-9.895-6.27-10.305-5.32-10.629-4.34-10.863-3.327-11.008-2.305-11.066-1.27-11.035-.23-10.907.797-10.695 1.816-10.387 2.809-10.003 3.773-9.528 4.7-8.98 5.581-8.352 6.415-7.656 7.187-6.895 7.898-6.074 8.536-5.203 9.105-4.281 9.594-3.324 10-2.336 10.324-1.32 10.555-.29 10.699.746 10.754 1.785 10.715 2.817 10.586 3.832 10.37 4.82 10.067 5.785 9.672 6.704 9.203 7.582 8.649 8.406 8.027 9.168 7.328 9.87 6.566 10.5 5.754 11.06 4.883 11.53 3.969 11.93 3.016 12.235 2.035 12.457 1.027 12.586.008 12.625-1.016 12.574-2.043 12.434-3.062 12.203-4.063 11.882-5.035 11.481-5.976 10.992-6.883 10.43-7.739 9.793-8.543 9.086-9.285 8.316-9.96 7.492-10.57 6.614-11.102 5.695-11.551 4.734-11.922 3.75-12.203 2.739-12.399 1.718-12.504.688-12.515-.336-12.438-1.352-12.27-2.347-12.011-3.32-11.668-4.258-11.238-5.157-10.73-6.004-10.141-6.8-9.48-7.536-8.755-8.203-7.96-8.8-7.118-9.32-6.219-9.759-5.28-10.117-4.305-10.386-3.305-10.57-2.278-10.66-1.246-10.661-.207-10.57.832-10.391 1.856-10.121 2.863-9.762 3.84-9.328 4.781-8.805 5.684-8.207 6.539-7.539 7.332-6.8 8.07-6.004 8.739-5.153 9.335-4.254 9.856-3.308 10.293-2.332 10.644-1.332 10.914-.305 11.094.723 11.18 1.765 11.18 2.793 11.086 3.813 10.902 4.812 10.629 5.778 10.27 6.714 9.831 7.606 9.305 8.445 8.711 9.227 8.039 9.949 7.309 10.605 6.507 11.184 5.66 11.684 4.766 12.109 3.824 12.441 2.856 12.692 1.86 12.851.847 12.922-.176 12.899-1.203 12.789-2.223 12.582-3.226 12.293-4.211 11.918-5.164 11.457-6.078 10.918-6.953 10.3-7.774 9.618-8.535 8.867-9.238 8.058-9.868 7.196-10.425 6.285-10.907 5.336-11.3 4.355-11.614 3.352-11.836 2.332-11.972 1.3-12.02.27-11.968-.754-11.833-1.761-11.605-2.75-11.293-3.7-10.89-4.617-10.407-5.484-9.844-6.309-9.21-7.062-8.504-7.762-7.73-8.387-6.907-8.941-6.024-9.41-5.097-9.801-4.133-10.106-3.14-10.324-2.122-10.449-1.086-10.484-.047-10.434.993-10.285 2.02-10.055 3.038-9.73 4.028-9.324 4.984-8.832 5.902-8.27 6.774-7.629 7.593-6.918 8.352-6.144 9.047-5.317 9.672-4.433 10.219-3.508 10.687L228 122.406l-1.555 11.371-.543 11.582.48 11.707 1.52 11.735 2.547 11.676L234.016 192l4.57 11.285 5.547 10.961 6.492 10.543 7.395 10.055 8.25 9.48 9.054 8.84 9.79 8.129 10.468 7.352 11.07 6.523 11.598 5.644 12.047 4.72 12.406 3.757 12.684 2.774 12.875 1.765 12.972.746 12.977-.281 12.894-1.3 12.723-2.313 12.457-3.305 12.11-4.27 11.671-5.199 11.16-6.086 10.567-6.93 9.902-7.71 9.172-8.438 8.383-9.09 7.527-9.675 6.637-10.184 5.695-10.61 4.723-10.953 3.719-11.207 2.703-11.375 1.668-11.453.637-11.437-.395-11.332-1.414-11.137-2.41-10.855-3.383-10.48-4.312-10.032-5.204-9.496-6.046-8.887-6.832-8.203-7.555-7.457-8.207-6.645-8.793-5.785-9.297-4.875-9.719-3.926-10.058-2.937-10.309-1.93-10.473-.902-10.547.137-10.527 1.175-10.418 2.211-10.219 3.235-9.93 4.23-9.558 5.2-9.101 6.132-8.567 7.024-7.953 7.859-7.273 8.64-6.524 9.36-5.719 10.008-4.855 10.582-3.953 11.078-3.004 11.492-2.027 11.824-1.028 12.067-.004 12.219 1.024 12.28 2.05 12.255 3.075 12.133 4.082 11.921 5.062 11.63 6.02 11.242 6.93 10.78 7.804 10.235 8.621 9.617 9.38 8.926 10.077 8.172 10.7 7.363 11.253 6.496 11.727 5.586 12.117 4.64 12.422 3.661 12.637 2.66 12.765 1.637 12.801.617 12.746-.414 12.602-1.426 12.367-2.43 12.043-3.402 11.637-4.351 11.148-5.254 10.578-6.113 9.938-6.922 9.226-7.664 8.453-8.352 7.618-8.96 6.734-9.5 5.809-9.954 4.84-10.332 3.847-10.617 2.832-10.82 1.797-10.926.762-10.95-.274-10.879-1.304-10.714-2.309-10.47-3.293-10.124-4.246-9.707-5.152-9.2-6.02-8.62-6.824-7.961-7.574-7.243-8.258-6.457-8.871-5.613-9.407-4.719-9.859-3.785-10.234-2.816-10.524-1.813-10.718-.793-10.825.239-10.843 1.28-10.77 2.313-10.601 3.34-10.352 4.348-10.012 5.32-9.59 6.27-9.082 7.172-8.5 8.027-7.847 8.828-7.121 9.563-6.344 10.238-5.5 10.836-4.613 11.363-3.684 11.8L385.195 198l-1.726 12.434-.715 12.613.308 12.71 1.333 12.708 2.359 12.62 3.367 12.442 4.356 12.172 5.32 11.82 6.246 11.38 7.133 10.859 7.965 10.27 8.742 9.597 9.46 8.863 10.11 8.075 10.688 7.222 11.183 6.324 11.602 5.391 11.933 4.414 12.184 3.422 12.336 2.402 12.402 1.38 12.38.347 12.265-.676 12.058-1.684 11.762-2.671 11.387-3.633 10.922-4.555 10.379-5.433 9.757-6.262 9.07-7.035 8.317-7.743 7.5-8.382 6.633-8.95 5.719-9.437 4.761-9.848 3.774-10.168 2.762-10.402 1.734-10.547.695-10.601-.347-10.57-1.375-10.438-2.399-10.227-3.39-9.918-4.36-9.531-5.281-9.055-6.168-8.508-7-7.879-7.77-7.183-8.48-6.422-9.121-5.602-9.688-4.726-10.172-3.813-10.578-2.855-10.894-1.867-11.13-.856-11.269.172-11.32 1.203-11.281 2.242-11.153 3.266-10.933 4.277-10.621 5.266-10.235 6.219-9.757 7.133-9.204 8.004-8.574 8.82-7.879 9.582-7.12 10.27-6.302 10.898-5.43 11.441-4.519 11.914-3.566 12.297-2.582 12.598-1.582 12.808-.559 12.93.461 12.961 1.488 12.902 2.5 12.754 3.497 12.508 4.468 12.188 5.41 11.77 6.305 11.28 7.16 10.707 7.957 10.059 8.696 9.348 9.367 8.574 9.965 7.738 10.496 6.856 10.937 5.925 11.305 4.965 11.574 3.973 11.766 2.957 11.863 1.934 11.871.898 11.785-.129 11.61-1.148 11.347-2.149 10.996-3.12 10.563-4.067 10.047-4.961 9.453-5.813 8.789-6.61 8.05-7.343 7.262-8.012 6.407-8.609 5.508-9.129 4.566-9.57 3.586-9.926 2.582-10.195 1.558-10.375.52-10.469" fill="none" stroke-width="3" stroke-linecap="round" stroke-linejoin="round" stroke="#000" stroke-miterlimit="10"/>
		<animateTransform attributeType="xml" attributeName="transform" type="rotate" from="360 360 360" to="0 360 360" dur="120s" additive="sum" repeatCount="indefinite" begin="violet_blackout_start.click" end="violet_blackout_stop.click"/>
	</g>
</svg>