<svg xmlns="http://www.w3.org/2000/svg" viewBox="0 0 720 720"><rect rx="0%" ry="0%" width="100%" height="100%" fill="#282829ff"/><path d="M692.307 386.154l-5.282 26.824-11.49 26.081-17.482 25.091-23.114 23.87-28.283 22.41-32.862 20.72-36.766 18.806-39.913 16.652-42.242 14.276-43.702 11.678-44.286 8.857-43.987 5.835-42.824 2.624-40.835-.746-38.08-4.254-34.63-7.855-30.579-11.504-26.02-15.146-21.06-18.729-15.817-22.182-10.406-25.44-4.943-28.422.463-31.074 5.706-33.308 10.675-35.065 15.3-36.278 19.494-36.896 23.201-36.876 26.37-36.186 28.964-34.802 30.978-32.725 32.394-29.973 33.218-26.562 33.488-22.55 33.21-17.99 32.442-12.96 31.222-7.565 29.6-1.888 27.627 3.949 25.361 9.82 22.852 15.608 20.154 21.184 17.311 26.428 14.368 31.213 11.371 35.44 8.338 38.996 5.312 41.807 2.308 43.801-.652 44.928-3.552 45.155-6.386 44.475-9.13 42.901-11.785 40.462-14.34 37.213-16.772 33.224-19.075 28.578-21.232 23.394-23.22 17.771-25.013 11.844-26.585 5.73-27.903-.425-28.939-6.493-29.656-12.354-30.016-17.877-29.987-22.967-29.547-27.504-28.655-31.434-27.304-34.67-25.479-37.168-23.164-38.906-20.384-39.867-17.148-40.048-13.481-39.494-9.438-38.224-5.06-36.303-.419-33.79 4.4-30.764 9.329-27.3 14.257-23.498 19.092-19.437 23.733-15.203 28.068-10.89 32.002-6.578 35.432-2.341 38.276 1.758 40.448 5.649 41.887 9.292 42.531 12.644 42.36 15.677 41.335 18.368 39.489 20.71 36.814 22.69 33.372 24.324 29.218 25.607 24.427 26.56 19.099 27.191 13.34 27.518 7.269 27.555zm0 0" fill-rule="evenodd" fill="#440154" fill-opacity=".149"/><path d="M692.554 382.804l-5.001 26.626-11.235 25.95-17.25 25.031-22.912 23.886-28.1 22.508-32.71 20.896-36.633 19.046-39.806 16.97-42.155 14.659-43.635 12.112-44.236 9.338-43.953 6.354-42.808 3.168-40.833-.196-38.09-3.7-34.658-7.312-30.62-10.985-26.075-14.669-21.133-18.294L74.8 532.385l-10.517-25.124-5.076-28.186.305-30.904 5.522-33.215 10.47-35.052 15.066-36.34 19.24-37.036 22.924-37.082 26.07-36.45 28.657-35.13 30.652-33.095 32.057-30.378 32.89-26.992 33.16-22.998 32.898-18.448 32.152-13.412 30.957-8 29.37-2.306 27.44 3.562 25.225 9.465 22.771 15.298 20.13 20.92 17.354 26.206 14.478 31.045 11.54 35.315 8.576 38.923 5.61 41.776 2.666 43.812-.243 44.976-3.106 45.24-5.896 44.59-8.621 43.04-11.261 40.621-13.81 37.387-16.254 33.407-18.58 28.775-20.767 23.596-22.8 17.972-24.644 12.049-26.28 5.935-27.673-.221-28.778-6.29-29.578-12.154-30.018-17.676-30.073-22.766-29.71-27.308-28.893-31.233-27.612-34.467-25.846-36.971-23.593-38.71-20.853-39.669-17.644-39.866-14.006-39.315-9.963-38.057-5.59-36.152-.935-33.659 3.918-30.656 8.876-27.228 13.848-23.454 18.737-19.429 23.435-15.237 27.835-10.971 31.83-6.703 35.332-2.514 38.24 1.532 40.476 5.384 41.974 8.98 42.673 12.295 42.55 15.29 41.575 17.954 39.757 20.273 37.118 22.248 33.69 23.87 29.55 25.167 24.767 26.13 19.437 26.789 13.67 27.155 7.586 27.24zm0 0" fill-rule="evenodd" fill="#460b5d" fill-opacity=".149" xmlns="http://www.w3.org/2000/svg"/><path d="M692.763 379.455l-4.724 26.417-10.981 25.804-17.02 24.966-22.71 23.894-27.923 22.594-32.558 21.06-36.505 19.292-39.697 17.28-42.065 15.036-43.567 12.546-44.186 9.823-43.916 6.875-42.783 3.711-40.818.366-38.098-3.143-34.674-6.764-30.647-10.464-26.122-14.18-21.199-17.854-15.991-21.42-10.62-24.807-5.203-27.935.16-30.73 5.343-33.12L76.53 383.67l14.84-36.403 18.991-37.168 22.646-37.284 25.774-36.719 28.34-35.449 30.322-33.465 31.724-30.783 32.547-27.427 32.827-23.444 32.573-18.9 31.844-13.868 30.684-8.437 29.128-2.72 27.244 3.174 25.075 9.115 22.675 14.988 20.1 20.652 17.386 25.989 14.574 30.874 11.705 35.192 8.811 38.846 5.904 41.746 3.018 43.822.163 45.024-2.652 45.323-5.409 44.7-8.102 43.17-10.73 40.777-13.275 37.553-15.731 33.587-18.07 28.967-20.296 23.783-22.37 18.174-24.269 12.239-25.965 6.132-27.428-.021-28.612-6.098-29.49-11.956-30.012-17.484-30.152-22.564-29.868-27.113-29.128-31.034-27.921-34.268-26.217-36.772-24.016-38.506-21.32-39.473-18.147-39.674-14.528-39.125L81.22 303.46l-6.117-35.993-1.448-33.517 3.426-30.541 8.42-27.138 13.44-23.396 18.377-19.414 23.134-15.263 27.597-11.037 31.66-6.82 35.224-2.68 38.204 1.321 40.501 5.118 42.056 8.675 42.817 11.943 42.737 14.906 41.81 17.536 40.026 19.836 37.412 21.791 34.01 23.414 29.879 24.71 25.103 25.696 19.767 26.378 13.995 26.779 7.9 26.907zm0 0" fill-rule="evenodd" fill="#481467" fill-opacity=".149" xmlns="http://www.w3.org/2000/svg"/><path d="M692.944 376.106l-4.453 26.19-10.735 25.65-16.797 24.885-22.51 23.895-27.75 22.673-32.404 21.22-36.379 19.53-39.591 17.591-41.975 15.413-43.496 12.983-44.128 10.304-43.873 7.397L286.1 608.1l-40.804.928-38.086-2.576-34.683-6.21-30.669-9.936-26.157-13.684-21.252-17.41-16.063-21.03-10.713-24.478-5.314-27.681.018-30.548 5.178-33.02 10.077-35.012 14.621-36.459 18.74-37.296 22.374-37.487 25.475-36.983 28.022-35.765 29.99-33.833 31.378-31.188 32.202-27.858 32.48-23.893 32.241-19.356 31.53-14.315 30.393-8.877 28.874-3.135 27.032 2.787 24.912 8.766 22.57 14.677 20.055 20.387 17.406 25.773 14.662 30.703 11.867 35.068 9.032 38.77 6.194 41.715 3.37 43.834.569 45.07-2.195 45.4-4.915 44.805-7.584 43.303-10.194 40.918-12.733 37.718-15.194 33.762-17.56 29.146-19.808 23.97-21.928 18.358-23.882 12.43-25.646 6.32-27.173.167-28.436-5.908-29.396-11.77-30-17.294-30.225-22.373-30.019-26.92-29.363-30.833-28.223-34.072-26.585-36.566-24.435-38.305-21.791-39.27-18.65-39.47-15.052-38.933-11.033-37.698-6.652-35.818-1.97-33.368 2.934-30.411 7.961-27.033 13.026-23.331 18.017-19.384 22.83-15.275 27.355-11.098 31.486-6.928 35.12-2.836 38.161 1.114 40.522 4.865 42.14 8.368 42.955 11.594 42.927 14.516 42.04 17.12 40.29 19.39 37.708 21.332 34.326 22.946 30.206 24.251 25.429 25.245 20.101 25.953 14.313 26.392 8.21 26.568zm0 0" fill-rule="evenodd" fill="#481d6f" fill-opacity=".149" xmlns="http://www.w3.org/2000/svg"/><path d="M693.09 372.752l-4.189 25.951-10.492 25.49-16.578 24.798-22.313 23.884-27.579 22.745-32.257 21.37-36.254 19.76-39.479 17.9-41.886 15.786-43.422 13.414-44.068 10.791-43.822 7.922-42.716 4.814-40.779 1.5-38.073-2.006-34.681-5.649-30.68-9.398-26.179-13.184-21.292-16.953-16.123-20.633-10.793-24.143-5.421-27.417-.112-30.366 5.024-32.913 9.889-34.983 14.403-36.511 18.496-37.426 22.101-37.682 25.18-37.245 27.7-36.088 29.654-34.196 31.03-31.592 31.844-28.288 32.125-24.34 31.897-19.811 31.202-14.767 30.09-9.313 28.609-3.55 26.807 2.4 24.738 8.417 22.45 14.37 19.997 20.123 17.418 25.556 14.742 30.532 12.013 34.948 9.25 38.695 6.482 41.682 3.718 43.84.973 45.115-1.74 45.474-4.42 44.908-7.06 43.427-9.649 41.066-12.182 37.872-14.65 33.93-17.032 29.316-19.32 24.148-21.475 18.535-23.488 12.61-25.307 6.502-26.91.344-28.255-5.729-29.29-11.582-29.982-17.112-30.288-22.187-30.169-26.728-29.592-30.64-28.523-33.87-26.952-36.366-24.86-38.097-22.257-39.06-19.157-39.265-15.578-38.73-11.575-37.505-7.184-35.637-2.49-33.2 2.433-30.268 7.498-26.92 12.607-23.252 17.654-19.34 22.526-15.275 27.11-11.141 31.311-7.027 35.011-2.98 38.112.911 40.546 4.61 42.223 8.066 43.09 11.251 43.113 14.13 42.27 16.693 40.557 18.941 37.995 20.866 34.637 22.475 30.527 23.773 25.761 24.788 20.42 25.52 14.636 25.992 8.51 26.216zm0 0" fill-rule="evenodd" fill="#482576" fill-opacity=".149" xmlns="http://www.w3.org/2000/svg"/><path d="M692.11 369.062l-3.923 25.672-10.243 25.273-16.338 24.662-22.093 23.83-27.372 22.776-32.07 21.489-36.074 19.96-39.32 18.173-41.736 16.136-43.283 13.83-43.943 11.263-43.711 8.44-42.612 5.364-40.688 2.069-38-1.425-34.617-5.074-30.637-8.84-26.157-12.658-21.291-16.47-16.146-20.198-10.849-23.771-5.506-27.11-.234-30.133 4.867-32.756 9.7-34.905 14.175-36.503 18.23-37.5 21.8-37.826 24.846-37.452 27.343-36.354 29.27-34.515 30.631-31.948 31.438-28.68 31.715-24.755 31.497-20.23 30.82-15.198 29.736-9.736 28.286-3.958 26.53 2.014 24.514 8.057 22.29 14.042 19.899 19.833 17.389 25.302 14.792 30.32 12.135 34.78 9.45 38.565 6.754 41.593 4.06 43.783 1.378 45.097-1.285 45.483-3.916 44.945-6.522 43.487-9.085 41.146-11.607 37.973-14.077 34.04-16.479 29.438-18.786 24.283-20.985 18.68-23.048 12.763-24.927 6.662-26.604.516-28.015-5.548-29.138-11.394-29.917-16.91-30.305-21.977-30.27-26.502-29.774-30.405-28.78-33.627-27.278-36.107-25.252-37.834-22.696-38.795-19.634-38.998-16.086-38.462-12.095-37.25-7.718-35.394-3.013-32.976 1.93-30.072 7.025-26.758 12.169-23.123 17.262-19.253 22.185-15.242 26.831-11.166 31.086-7.098 34.848-3.116 38.016.717 40.51 4.36 42.242 7.759 43.164 10.886 43.239 13.72 42.435 16.252 40.762 18.46 38.234 20.362 34.892 21.96 30.805 23.26L645.2 266.82l20.716 25.038 14.925 25.545 8.797 25.81zm0 0" fill-rule="evenodd" fill="#472e7c" fill-opacity=".149" xmlns="http://www.w3.org/2000/svg"/><path d="M693.28 366.04l-3.677 25.445-10.02 25.119-16.151 24.585-21.938 23.836-27.247 22.859-31.97 21.658-36.003 20.204-39.267 18.5-41.703 16.529-43.266 14.284-43.935 11.77-43.713 8.978-42.623 5.935-40.704 2.653-38.016-.845-34.644-4.51-30.667-8.298-26.196-12.16-21.334-16.02-16.205-19.813-10.92-23.457-5.597-26.871-.343-29.979 4.737-32.684 9.541-34.915 13.992-36.6 18.019-37.67 21.56-38.072 24.583-37.765 27.06-36.718 28.965-34.926 30.309-32.396 31.112-29.15 31.387-25.236 31.17-20.716L370.09 53.93l29.446-10.184 28.03-4.38 26.312 1.632 24.346 7.718 22.172 13.755 19.844 19.6 17.4 25.123 14.869 30.2 12.287 34.706 9.669 38.544 7.037 41.616 4.408 43.854 1.784 45.196-.827 45.617-3.42 45.105-5.996 43.665-8.54 41.334-11.059 38.169-13.536 34.237-15.954 29.638-18.296 24.477-20.543 18.866-22.66 12.944-24.608 6.833-26.354.677-27.854-5.39-29.058-11.248-29.921-16.761-30.402-21.83-30.451-26.357-30.035-30.258-29.117-33.473-27.68-35.952-25.709-37.677-23.197-38.628-20.17-38.832-16.642-38.298-12.657-37.084-8.266-35.236-3.547-32.836 1.427-29.941 6.565-26.654 11.764-23.044 16.913-19.214 21.903-15.237 26.618-11.203 30.948-7.18 34.784-3.252 38.022.534 40.582 4.127 42.375 7.474 43.362 10.558 43.48 13.35 42.718 15.845 41.077 18.029 38.572 19.91 35.247 21.496 31.161 22.804 26.403 23.831 21.06 24.615 15.25 25.156 9.103 25.464zm0 0" fill-rule="evenodd" fill="#453581" fill-opacity=".149" xmlns="http://www.w3.org/2000/svg"/><path d="M693.323 362.684l-3.425 25.169-9.795 24.918-15.948 24.461-21.756 23.79-27.09 22.91-31.826 21.785L547.6 526.14l-39.164 18.792-41.609 16.896-43.185 14.722-43.864 12.255-43.65 9.513-42.566 6.503-40.653 3.237-37.976-.254-34.607-3.928-30.646-7.74-26.182-11.635-21.339-15.542-16.228-19.391-10.964-23.102-5.666-26.59-.44-29.77 4.605-32.56 9.382-34.875 13.793-36.642 17.788-37.788 21.296-38.262 24.287-38.022 26.733-37.03 28.612-35.292L245.3 146.84l30.73-29.58 31.004-25.682 30.79-21.168 30.144-16.115 29.104-10.619 27.719-4.792 26.043 1.247 24.128 7.374 22.014 13.45 19.748 19.34 17.372 24.91 14.917 30.031 12.405 34.59 9.866 38.467 7.31 41.585 4.75 43.858 2.188 45.238-.37 45.686-2.918 45.196-5.45 43.776-7.981 41.46-10.485 38.306-12.962 34.384-15.397 29.786-17.771 24.627-20.058 19.02-22.23 13.091-24.239 6.985-26.06.832-27.64-5.238-28.929-11.088-29.88-16.599-30.446-21.663-30.587-26.177-30.249-30.07-29.41-33.275-28.043-35.747-26.128-37.46-23.672-38.408-20.679-38.6-17.174-38.068-13.205-36.86-8.816-35.021-4.08-32.63.92-29.76 6.09-26.495L89.02 166.04l16.538-19.129 21.588-15.195 26.37-11.21 30.762-7.247 34.667-3.37 37.974.361 40.594 3.888 42.456 7.19 43.492 10.212 43.662 12.963 42.943 15.414 41.333 17.563 38.854 19.425 35.548 20.996 31.473 22.295 26.715 23.34 21.37 24.144 15.554 24.712 9.39 25.071zm0 0" fill-rule="evenodd" fill="#433e85" fill-opacity=".149" xmlns="http://www.w3.org/2000/svg"/><path d="M693.334 359.329l-3.182 24.88-9.575 24.7-15.75 24.322-21.584 23.742-26.932 22.941-31.693 21.914-35.763 20.627-39.057 19.085-41.517 17.265-43.104 15.15-43.79 12.75-43.582 10.05-42.5 7.073-40.597 3.826-37.921.345-34.563-3.339-30.605-7.17-26.16-11.1-21.329-15.057-16.236-18.961-10.998-22.738-5.72-26.3-.528-29.562 4.49-32.432 9.225-34.828 13.605-36.68 17.56-37.902 21.036-38.449 23.99-38.275 26.405-37.346 28.26-35.654 29.567-33.199 30.34-30.009 30.608-26.127 30.4-21.62L365.9 54.686l28.744-11.056 27.393-5.204 25.76.867 23.892 7.032 21.834 13.146 19.639 19.08 17.332 24.7 14.953 29.865 12.519 34.47 10.056 38.397 7.575 41.553 5.084 43.86 2.59 45.276.092 45.753-2.409 45.286-4.906 43.882-7.408 41.582-9.9 38.437-12.38 34.519-14.833 29.927-17.233 24.768-19.56 19.162-21.786 13.231-23.86 7.129-25.756.971-27.413-5.095-28.79-10.94-29.833-16.44-30.487-21.499-30.711-26.005-30.46-29.886-29.704-33.08-28.403-35.537-26.553-37.238-24.144-38.182-21.19-38.365-17.713-37.83L84.178 314.6l-9.366-34.792-4.617-32.414.405-29.56 5.616-26.325 10.903-22.785 16.161-19.027 21.269-15.141 26.112-11.204 30.579-7.295 34.55-3.48 37.923.194 40.61 3.66 42.532 6.903 43.62 9.875 43.839 12.572 43.164 14.98 41.587 17.096 39.136 18.926 35.846 20.484 31.78 21.785 27.026 22.832 21.675 23.655 15.851 24.262 9.672 24.66zm0 0" fill-rule="evenodd" fill="#404588" fill-opacity=".149" xmlns="http://www.w3.org/2000/svg"/><path d="M693.31 355.972l-2.948 24.575-9.358 24.468-15.56 24.176-21.411 23.677-26.783 22.97-31.563 22.024-35.646 20.836-38.957 19.369-41.423 17.628-43.02 15.584-43.712 13.242-43.504 10.594-42.433 7.647-40.53 4.425-37.857.948-34.508-2.74-30.557-6.595-26.12-10.559-21.308-14.562-16.23-18.524-11.009-22.368-5.767-26.003-.597-29.345 4.378-32.297 9.08-34.778 13.427-36.71 17.34-38.013 20.776-38.64 23.695-38.527 26.073-37.658 27.901-36.014 29.187-33.597 29.943-30.438 30.198-26.578 29.995-22.072 29.373-17.01 28.37-11.49 27.05-5.614 25.459.489 23.64 6.686 21.643 12.847 19.515 18.824 17.28 24.488 14.975 29.705 12.62 34.352 10.238 38.325 7.834 41.518 5.416 43.872 2.992 45.309.552 45.817-1.892 45.372-4.359 43.988-6.829 41.694-9.305 38.56-11.788 34.647-14.253 30.06-16.684 24.9-19.05 19.289-21.328 13.366-23.473 7.257-25.439 1.102-27.18-4.96-28.64-10.8-29.771-16.297-30.522-21.34-30.833-25.837-30.67-29.707-29.988-32.882-28.764-35.333-26.977-37.014-24.618-37.945-21.703-38.125-18.254-37.585-14.306-36.37-9.92-34.552-5.158-32.18-.11-29.352 5.131-26.135 10.47-22.628 15.78-18.91 20.946-15.07 25.86-11.188 30.39-7.331 34.427-3.576 37.872.033 40.622 3.444 42.605 6.623 43.752 9.536 44.017 12.182 43.382 14.54 41.84 16.623 39.412 18.426 36.14 19.961 32.086 21.259 27.33 22.314 21.977 23.155 16.138 23.79 9.95 24.237zm0 0" fill-rule="evenodd" fill="#3d4d8a" fill-opacity=".149" xmlns="http://www.w3.org/2000/svg"/><path d="M693.251 352.615l-2.715 24.257-9.154 24.225-15.375 24.013-21.247 23.6-26.638 22.985-31.439 22.13-35.533 21.03-38.852 19.655-41.335 17.99-42.932 16.019-43.629 13.736-43.426 11.137-42.354 8.229-40.454 5.028-37.786 1.557-34.435-2.135-30.498-6.01-26.067-10.005-21.268-14.057-16.208-18.08-11.017-21.988-5.792-25.699-.66-29.12 4.284-32.159 8.95-34.723 13.25-36.736 17.124-38.122 20.52-38.82 23.4-38.78 25.741-37.97 27.54-36.377 28.798-34 29.537-30.865 29.78-27.02 29.576-22.528L361.9 55.555l27.979-11.92 26.695-6.025 25.135.109 23.374 6.345 21.434 12.546 19.374 18.57 17.213 24.283 14.984 29.543 12.71 34.24 10.413 38.252 8.089 41.492 5.744 43.872 3.394 45.347 1.017 45.88-1.382 45.453-3.797 44.085-6.242 41.807-8.704 38.676-11.187 34.768-13.663 30.18-16.12 25.022-18.529 19.41-20.859 13.481-23.068 7.376-25.11 1.222-26.93-4.837-28.484-10.67-29.705-16.158-30.543-21.192-30.954-25.676-30.874-29.53-30.271-32.691-29.126-35.12-27.398-36.792-25.09-37.706-22.221-37.873-18.799-37.327-14.864-36.115-10.477-34.293-5.707-31.936-.63-29.117 4.651-25.933 10.029-22.456 15.392-18.777 20.626-14.982 25.598-11.156 30.201-7.357 34.308-3.655 37.816-.113 40.635 3.23 42.678 6.345 43.879 9.203 44.192 11.788 43.602 14.104 42.09 16.138 39.685 17.915 36.43 19.436 32.385 20.717 27.63 21.782 22.274 22.639 16.424 23.308 10.216 23.792zm0 0" fill-rule="evenodd" fill="#3a538b" fill-opacity=".149" xmlns="http://www.w3.org/2000/svg"/><path d="M693.16 349.26l-2.497 23.92-8.95 23.966-15.199 23.835-21.094 23.514-26.498 22.989-31.316 22.23-35.422 21.219-38.757 19.932-41.244 18.346-42.84 16.454-43.547 14.231-43.341 11.688-42.271 8.815-40.366 5.64-37.703 2.18-34.35-1.523-30.42-5.415-26.001-9.447-21.212-13.546-16.175-17.622-11.002-21.599-5.806-25.39-.707-28.886 4.203-32.015 8.827-34.662 13.085-36.76 16.917-38.228 20.269-39 23.105-39.031 25.409-38.284 27.17-36.733 28.4-34.402 29.118-31.295 29.354-27.47 29.143-22.974 28.535-17.909 27.579-12.353 26.312-6.43 24.803-.268 23.085 6.008 21.21 12.249 19.214 18.318 17.13 24.076 14.982 29.387 12.794 34.131 10.575 38.183 8.336 41.457 6.072 43.88 3.791 45.382 1.48 45.94-.859 45.533-3.237 44.178-5.646 41.91-8.094 38.786-10.57 34.88-13.06 30.291-15.542 25.13-17.994 19.52-20.377 13.587-22.651 7.483-24.77 1.333-26.672-4.728-28.313-10.548-29.632-16.034-30.563-21.05-31.06-25.523-31.072-29.355-30.558-32.499-29.481-34.91-27.82-36.565-25.571-37.463-22.74-37.614-19.34-37.06-15.43-35.842-11.038-34.024-6.253-31.672-1.16-28.876L72 199.148l9.584-22.266 15.01-18.628 20.298-14.88 25.336-11.103 30.006-7.363 34.184-3.73 37.766-.254 40.645 3.03 42.75 6.075 44.004 8.867 44.37 11.402 43.815 13.66 42.339 15.651 39.96 17.394 36.718 18.895 32.678 20.166 27.925 21.234 22.561 22.11 16.702 22.807 10.478 23.338zm0 0" fill-rule="evenodd" fill="#375b8d" fill-opacity=".149" xmlns="http://www.w3.org/2000/svg"/><path d="M693.035 345.908l-2.282 23.566-8.762 23.687-15.03 23.646-20.942 23.414-26.369 22.98-31.196 22.319-35.32 21.4-38.659 20.208-41.151 18.706-42.758 16.883-43.453 14.735-43.254 12.235-42.177 9.407-40.271 6.259-37.605 2.809-34.26-.899-30.327-4.813-25.918-8.878-21.143-13.018-16.12-17.16-10.972-21.205-5.804-25.067-.737-28.65 4.13-31.86 8.716-34.597 12.93-36.784 16.716-38.33 20.021-39.18 22.814-39.28 25.072-38.59 26.801-37.098 27.996-34.8 28.69-31.727 28.914-27.914 28.696-23.428 28.094-18.354 27.152-12.781 25.917-6.84 24.448-.64 22.78 5.667 20.968 11.957 19.038 18.068 17.033 23.878 14.965 29.232 12.86 34.019 10.73 38.116 8.574 41.433 6.397 43.882 4.185 45.418 1.95 45.996-.336 45.61-2.666 44.268-5.043 42.009-7.474 38.888-9.941 34.984-12.444 30.391-14.951 25.23-17.446 19.613-19.88 13.684-22.22 7.573-24.415 1.427-26.402-4.627-28.135-10.441-29.543-15.915-30.574-20.92-31.167-25.373-31.269-29.188-30.837-32.31-29.836-34.7-28.247-36.335-26.048-37.214-23.262-37.347-19.89-36.782-15.993-35.556-11.608-33.74-6.808-31.394-1.686-28.614 3.668-25.47 9.14-22.056 14.613-18.458 19.968-14.756 25.075-11.035 29.814-7.358 34.059-3.788 37.708-.383 40.658 2.833 42.817 5.81 44.136 8.542 44.543 11.009 44.027 13.213 42.585 15.16 40.228 16.868 37.003 18.342 32.972 19.602 28.214 20.672 22.847 21.562 16.972 22.288 10.732 22.865zm0 0" fill-rule="evenodd" fill="#34618d" fill-opacity=".149" xmlns="http://www.w3.org/2000/svg"/><path d="M692.878 342.555l-2.079 23.195-8.58 23.395-14.869 23.437-20.802 23.302-26.244 22.96-31.088 22.399-35.22 21.58-38.565 20.47-41.06 19.063-42.666 17.321-43.364 15.232-43.155 12.794-42.078 10.004-40.167 6.882-37.496 3.447-34.148-.265-30.223-4.202-25.82-8.295-21.053-12.488-16.05-16.681-10.924-20.803-5.787-24.739-.756-28.406 4.08-31.7 8.615-34.527 12.785-36.8 16.519-38.43 19.778-39.358 22.525-39.528 24.736-38.9 26.423-37.455 27.588-35.205 28.25-32.156 28.459-28.357 28.236-23.883L356.31 57.06l26.709-13.213 25.506-7.244 24.07-1.015 22.456 5.338 20.703 11.661L494.6 70.412l16.918 23.677 14.933 29.083 12.92 33.913 10.874 38.053 8.807 41.403 6.713 43.894 4.586 45.452 2.412 46.052.193 45.684-2.089 44.35-4.43 42.102-6.84 38.979-9.302 35.08-11.815 30.482-14.347 25.318-16.88 19.696-19.367 13.763-21.779 7.656-24.044 1.503-26.122-4.536-27.944-10.348-29.448-15.81-30.575-20.797-31.264-25.23-31.463-29.026-31.114-32.126-30.195-34.49-28.669-36.103-26.527-36.955-23.785-37.078-20.45-36.49L87.95 322.3l-12.178-33.435-7.37-31.1-2.22-28.334 3.17-25.21 8.689-21.827 14.218-18.268 19.635-14.62 24.811-10.948 29.617-7.336 33.933-3.833 37.655-.496 40.663 2.645 42.893 5.553 44.259 8.213 44.715 10.616 44.243 12.765 42.828 14.667 40.496 16.328 37.284 17.779 33.257 19.025 28.502 20.094 23.121 21 17.238 21.754 10.978 22.37zm0 0" fill-rule="evenodd" fill="#31688e" fill-opacity=".149" xmlns="http://www.w3.org/2000/svg"/><path d="M692.685 339.204l-1.884 22.808-8.408 23.083-14.718 23.216-20.668 23.17-26.125 22.933-30.984 22.467-35.124 21.747-38.476 20.736-40.975 19.413-42.573 17.756-43.268 15.734-43.057 13.358-41.968 10.608-40.048 7.513-37.378 4.09-34.03.379-30.096-3.574-25.703-7.708-20.95-11.943-15.962-16.196-10.858-20.384-5.749-24.407-.752-28.153 4.034-31.536 8.533-34.452 12.65-36.812 16.335-38.528 19.537-39.534 22.234-39.775 24.399-39.208 26.042-37.817 27.167-35.602L271.67 130l27.987-28.809 27.758-24.33 27.16-19.246 26.248-13.642 25.067-7.648 23.675-1.387 22.11 5.006 20.42 11.375 18.635 17.583 16.781 23.483 14.89 28.936 12.96 33.81 11.01 37.993 9.034 41.378 7.026 43.899 4.98 45.488 2.882 46.109.725 45.753-1.507 44.434-3.806 42.186-6.193 39.064-8.652 35.16-11.168 30.564-13.728 25.391-16.3 19.766-18.843 13.832-21.318 7.72-23.664 1.573-25.823-4.465-27.743-10.27-29.346-15.712-30.569-20.688-31.356-25.097-31.65-28.867-31.387-31.942-30.55-34.28-29.092-35.868-27.013-36.694-24.31-36.793-21.01-36.193-17.134-34.95L76.1 290.5l-7.933-30.786-2.758-28.031 2.665-24.93 8.235-21.578 13.822-18.062 19.297-14.456 24.544-10.85 29.42-7.295 33.809-3.863 37.593-.596 40.676 2.47 42.963 5.299 44.384 7.89 44.888 10.226 44.458 12.314 43.07 14.161 40.758 15.783 37.561 17.204 33.537 18.433 28.782 19.498 23.392 20.42 17.493 21.198 11.218 21.86zm0 0" fill-rule="evenodd" fill="#2e6f8e" fill-opacity=".149" xmlns="http://www.w3.org/2000/svg"/><path d="M692.46 335.856l-1.701 22.4-8.243 22.754-14.575 22.976-20.546 23.027-26.02 22.888-30.886 22.53-35.037 21.902-38.39 20.996-40.886 19.766-42.483 18.186-43.167 16.244-42.95 13.918-41.85 11.224-39.925 8.155-37.244 4.745-33.89 1.031-29.956-2.938-25.57-7.107-20.826-11.387-15.851-15.702L91.689 551.5l-5.697-24.057-.733-27.893 4.014-31.37 8.457-34.37 12.529-36.817 16.157-38.622 19.306-39.71 21.947-40.018 24.06-39.517 25.656-38.18 26.741-36.006 27.343-33.015 27.505-29.255 27.266-24.784 26.662-19.69 25.764-14.073 24.612-8.046 23.256-1.757 21.744 4.678 20.115 11.092 18.402 17.347 16.633 23.293 14.826 28.792 12.99 33.71 11.134 37.932 9.253 41.36 7.335 43.91 5.368 45.522 3.356 46.164 1.26 45.822-.912 44.507-3.178 42.262-5.534 39.145-7.986 35.236-10.51 30.63-13.093 25.45-15.702 19.823-18.3 13.886-20.843 7.766-23.265 1.624-25.514-4.41-27.53-10.198-29.23-15.631-30.556-20.585-31.442-24.97-31.831-28.719-31.663-31.766-30.9-34.072-29.52-35.625-27.499-36.43-24.842-36.5-21.567-35.886-17.714-34.623-13.336-32.788-8.503-30.457-3.306-27.705 2.162-24.632 7.774-21.304 13.42-17.832 18.961-14.277 24.273-10.725 29.22-7.24 33.682-3.875 37.54-.684 40.683 2.302 43.031 5.056 44.51 7.57 45.064 9.832 44.664 11.86 43.313 13.647 41.023 15.23 37.833 16.613 33.817 17.83 29.052 18.888 23.657 19.82 17.742 20.624 11.447 21.327zm0 0" fill-rule="evenodd" fill="#2b748e" fill-opacity=".149" xmlns="http://www.w3.org/2000/svg"/><path d="M692.197 332.508l-1.523 21.972-8.092 22.41-14.445 22.716-20.43 22.866-25.924 22.835-30.793 22.574-34.957 22.057-38.305 21.248-40.802 20.113-42.394 18.621-43.068 16.754-42.833 14.492-41.724 11.836-39.788 8.808-37.096 5.412-33.737 1.696-29.804-2.293-25.414-6.492-20.68-10.822-15.724-15.198-10.666-19.527-5.623-23.704-.697-27.629 4.008-31.186 8.398-34.285 12.417-36.823 15.99-38.715 19.078-39.883 21.662-40.262 23.72-39.83 25.264-38.541 26.307-36.407 26.874-33.446 27.01-29.703 26.75-25.235L351.303 58.8l25.265-14.497 24.133-8.45 22.813-2.117 21.354 4.348 19.786 10.813 18.15 17.112 16.462 23.11 14.747 28.65 13.006 33.62 11.244 37.879 9.46 41.341 7.639 43.923 5.763 45.558 3.828 46.216 1.802 45.884-.314 44.58-2.534 42.335-4.867 39.212-7.305 35.298L541.9 604.3l-12.44 25.503-15.088 19.861-17.74 13.917-20.35 7.803-22.851 1.663-25.193-4.37-27.303-10.146-29.104-15.56-30.532-20.499-31.525-24.858-32.006-28.574-31.934-31.588-31.257-33.866-29.946-35.384-27.985-36.157-25.375-36.205-22.137-35.555-18.297-34.282-13.925-32.44-9.08-30.106-3.851-27.364 1.647-24.308 7.313-21.015L85.952 173.2l18.62-14.076 24.004-10.58 29.02-7.161 33.554-3.875 37.478-.76 40.698 2.146 43.103 4.82 44.633 7.253 45.238 9.444 44.875 11.398 43.553 13.133 41.279 14.665 38.106 16.012 34.086 17.204 29.324 18.261 23.912 19.2 17.98 20.033 11.67 20.77zm0 0" fill-rule="evenodd" fill="#297b8e" fill-opacity=".149" xmlns="http://www.w3.org/2000/svg"/><path d="M691.904 329.165l-1.358 21.52-7.954 22.04-14.325 22.44-20.33 22.693-25.833 22.761-30.714 22.614-34.878 22.2-38.232 21.5-40.717 20.458-42.3 19.055-42.963 17.262-42.72 15.067-41.59 12.466-39.64 9.467-36.934 6.086-33.563 2.37-29.63-1.63-25.24-5.867-20.513-10.244-15.576-14.679-10.538-19.084-5.526-23.34-.64-27.353 4.016-31 8.362-34.195 12.316-36.827 15.831-38.803 18.86-40.05 21.379-40.511 23.381-40.14 24.868-38.9 25.863-36.813 26.388-33.88 26.495-30.151 26.22-25.688 25.615-20.575L374.52 44.51l23.63-8.849 22.35-2.481 20.938 4.028 19.438 10.536 17.873 16.886 16.273 22.93 14.647 28.517 13.005 33.529 11.347 37.83 9.661 41.325 7.934 43.937 6.153 45.596 4.301 46.268 2.35 45.948.294 44.645-1.88 42.399-4.186 39.274-6.607 35.35-9.144 30.728-11.767 25.534-14.46 19.891-17.162 13.935-19.837 7.817-22.427 1.677-24.855-4.34-27.059-10.115-28.967-15.506-30.502-20.418-31.598-24.756-32.18-28.436-32.202-31.418-31.608-33.658-30.373-35.142-28.477-35.878-25.915-35.894-22.707-35.222-18.892-33.924-14.514-32.069-9.662-29.735-4.408-27.003 1.13-23.955 6.845-20.699 12.603-17.3 18.276-13.844 23.728-10.416 28.821-7.065 33.427-3.85 37.422-.819 40.708 1.999 43.176 4.59 44.758 6.942 45.41 9.051 45.087 10.939 43.79 12.609 41.537 14.084 38.37 15.396 34.356 16.57 29.585 17.61 24.16 18.56 18.213 19.42 11.877 20.197zm0 0" fill-rule="evenodd" fill="#26818e" fill-opacity=".149" xmlns="http://www.w3.org/2000/svg"/><path d="M691.578 325.825l-1.21 21.049-7.823 21.649-14.22 22.146-20.238 22.495-25.753 22.677-30.649 22.638-34.808 22.338-38.158 21.738-40.639 20.803-42.207 19.489-42.858 17.778-42.592 15.65-41.45 13.102-39.476 10.133-36.76 6.777-33.376 3.057-29.432-.96-25.045-5.227-20.329-9.652-15.4-14.152-10.388-18.623-5.406-22.97-.563-27.065 4.048-30.813 8.335-34.1 12.236-36.822 15.683-38.89 18.644-40.222 21.103-40.754 23.035-40.446 24.47-39.268 25.407-37.216 25.894-34.314 25.967-30.6 25.67-26.142 25.059-21.022 24.182-15.35 23.103-9.243 21.856-2.839 20.502 3.71L457.05 46.63l17.576 16.665 16.06 22.753 14.531 28.39 12.986 33.445 11.436 37.788 9.85 41.314 8.228 43.953 6.542 45.634 4.774 46.319 2.902 46.007.91 44.708-1.216 42.458-3.483 39.325-5.895 35.39-8.435 30.76-11.08 25.55-13.806 19.896-16.566 13.938-19.311 7.815-21.979 1.678-24.501-4.34-26.806-10.093-28.82-15.469-30.464-20.352-31.658-24.662-32.352-28.31-32.465-31.252-31.963-33.45-30.803-34.897-28.968-35.595-26.46-35.573-23.284-34.875-19.489-33.55-15.116-31.683-10.248-29.34-4.97-26.61.607-23.589 6.375-20.352 12.191-16.998 17.927-13.595 23.453-10.225 28.618-6.945 33.299-3.812 37.367-.863 40.718 1.868 43.25 4.373 44.887 6.633 45.58 8.663 45.297 10.472 44.03 12.071 41.79 13.5 38.631 14.77 34.622 15.908 29.838 16.945 24.4 17.899 18.437 18.78 12.077 19.598zm0 0" fill-rule="evenodd" fill="#24878e" fill-opacity=".149" xmlns="http://www.w3.org/2000/svg"/><path d="M691.217 322.488l-1.074 20.549-7.709 21.238-14.12 21.83-20.163 22.286-25.688 22.574-30.589 22.647-34.746 22.466-38.093 21.976-40.566 21.14-42.116 19.924-42.746 18.3-42.463 16.237-41.293 13.745-39.305 10.812-36.569 7.479-33.168 3.761-29.219-.277-24.827-4.571-20.112-9.048-15.204-13.613-10.213-18.158L95.97 541.2l-.46-26.774 4.099-30.617 8.328-33.995L120.101 413l15.55-38.974 18.44-40.39 20.823-41 22.695-40.758 24.063-39.634 24.947-37.62 25.383-34.752 25.42-31.046 25.099-26.597 24.476-21.462 23.61-15.775 22.547-9.634 21.34-3.2 20.033 3.401 18.658 9.997 17.248 16.448 15.824 22.587 14.394 28.272 12.956 33.363 11.505 37.75 10.035 41.311 8.512 43.971 6.93 45.672 5.25 46.374 3.463 46.063 1.533 44.764-.539 42.51-2.772 39.364-5.163 35.42-7.707 30.774-10.373 25.554-13.134 19.887-15.948 13.918-18.765 7.793-21.514 1.655-24.13-4.35-26.54-10.093-28.66-15.447-30.408-20.308-31.722-24.576-32.514-28.192-32.729-31.091-32.312-33.248-31.236-34.649-29.466-35.306-27.009-35.242-23.868-34.512-20.09-33.161-15.723-31.274-10.843-28.92-5.539-26.2.08-23.19 5.896-19.98 11.773-16.669 17.582-13.315 23.173-10.01 28.418-6.803 33.17-3.754 37.313-.89 40.73 1.75 43.32 4.16 45.02 6.332 45.752 8.274 45.51 10 44.262 11.536 42.044 12.9 38.893 14.123 34.875 15.234 30.09 16.259 24.634 17.21 18.644 18.118 12.265 18.975zm0 0" fill-rule="evenodd" fill="#228d8d" fill-opacity=".149" xmlns="http://www.w3.org/2000/svg"/><path d="M690.82 319.155l-.944 20.026-7.612 20.803-14.043 21.49-20.098 22.055-25.636 22.455-30.535 22.646-34.701 22.582-38.035 22.203-40.489 21.481-42.026 20.363-42.635 18.818-42.322 16.836-41.136 14.393-39.12 11.507-36.358 8.191-32.944 4.477-28.98.422L148.623 606l-19.875-8.43-14.978-13.054-10.012-17.682-5.098-22.186-.334-26.474 4.174-30.411 8.342-33.89 12.114-36.806 15.421-39.051 18.246-40.561 20.554-41.245 22.348-41.069 23.652-40 24.472-38.034 24.86-35.185 24.857-31.5 24.505-27.05 23.875-21.907 23.005-16.194 21.964-10.028 20.793-3.548 19.536 3.09 18.226 9.74 16.899 16.236 15.566 22.424 14.23 28.16 12.905 33.295 11.565 37.718 10.203 41.31 8.795 43.994 7.313 45.716 5.731 46.423 4.027 46.118 2.17 44.816.152 42.551-2.047 39.397-4.415 35.434-6.96 30.774-9.642 25.539-12.44 19.86-15.313 13.879-18.195 7.748-21.03 1.617-23.744-4.386-26.257-10.111-28.484-15.446-30.352-20.273-31.77-24.512-32.67-28.079-32.987-30.938-32.67-33.045-31.669-34.401-29.968-35.008-27.56-34.902-24.46-34.132-20.7-32.753-16.335-30.845-11.444-28.482-6.115-25.758-.454-22.763 5.412-19.584 11.354-16.303 17.229-13.011 22.895-9.768 28.212-6.637 33.045-3.672 37.258-.897 40.743 1.642 43.399 3.959 45.149 6.035 45.931 7.887 45.717 9.527 44.498 10.986 42.293 12.286 39.15 13.463 35.127 14.54 30.327 15.546 24.86 16.505 18.848 17.431 12.44 18.326zm0 0" fill-rule="evenodd" fill="#20938c" fill-opacity=".149" xmlns="http://www.w3.org/2000/svg"/><path d="M690.395 315.826l-.838 19.478-7.53 20.338-13.975 21.126-20.05 21.802-25.596 22.322-30.503 22.632-34.655 22.686-37.986 22.43-40.422 21.813-41.938 20.797-42.52 19.349-42.18 17.438-40.96 15.059-38.917 12.21-36.135 8.914-32.695 5.206-28.72 1.142-24.315-3.222-19.612-7.798-14.728-12.486-9.781-17.186-4.9-21.782-.184-26.161 4.269-30.195 8.378-33.778 12.078-36.79 15.312-39.136 18.057-40.725 20.283-41.495 22.009-41.38 23.232-40.37 23.99-38.444 24.323-35.623 24.27-31.954L321.35 84.54l23.242-22.35 22.375-16.615 21.354-10.417 20.21-3.897 19.012 2.79 17.765 9.485 16.517 16.032 15.278 22.272 14.053 28.054 12.83 33.232 11.61 37.69 10.36 41.317 9.068 44.024 7.697 45.76 6.213 46.476 4.594 46.172 2.817 44.86.86 42.589-1.302 39.417-3.65 35.437-6.189 30.757-8.89 25.504-11.725 19.811-14.65 13.817-17.609 7.685-20.525 1.551-23.34-4.443-25.954-10.152-28.3-15.46-30.276-20.257-31.813-24.456-32.825-27.984-33.248-30.792-33.024-32.848-32.104-34.145-30.474-34.707-28.12-34.553-25.058-33.736-21.318-32.326-16.955-30.389L67.8 271.728l-6.693-25.29-.996-22.304 4.924-19.154 10.93-15.914 16.873-12.675 22.618-9.497 28.007-6.447 32.916-3.564 37.207-.889 40.761 1.558 43.475 3.766 45.281 5.746 46.109 7.497 45.928 9.051 44.736 10.429 42.54 11.659 39.4 12.787 35.374 13.823 30.565 14.811 25.069 15.771 19.038 16.713 12.605 17.648zm0 0" fill-rule="evenodd" fill="#1f998a" fill-opacity=".149" xmlns="http://www.w3.org/2000/svg"/><path d="M689.931 312.502l-.744 18.897-7.457 19.85-13.934 20.739-20.014 21.528-25.574 22.167-30.48 22.603-34.627 22.78-37.942 22.646-40.362 22.146-41.849 21.237-42.4 19.88-42.031 18.048-40.776 15.73-38.704 12.928-35.89 9.657-32.427 5.953-28.434 1.87-24.022-2.52-19.317-7.146-14.443-11.901-9.524-16.682-4.675-21.367-.004-25.837 4.393-29.977 8.438-33.658 12.06-36.772 15.216-39.215 17.878-40.894 20.024-41.738 21.663-41.7 22.809-40.737 23.497-38.859 23.765-36.065 23.666-32.412 23.253-27.956 22.585-22.794 21.717-17.033 20.707-10.802 19.602-4.242 18.446 2.492 17.275 9.24 16.109 15.84 14.964 22.126 13.843 27.954 12.736 33.18 11.637 37.674 10.51 41.33 9.333 44.061 8.074 45.806 6.698 46.528 5.177 46.22 3.472 44.907 1.574 42.615-.535 39.423-2.86 35.426-5.395 30.726-8.114 25.452-10.99 19.737-13.965 13.738-16.994 7.592-20.004 1.46-22.913-4.52-25.639-10.218-28.098-15.497-30.191-20.26-31.85-24.42-32.974-27.898-33.505-30.646-33.376-32.652-32.543-33.895-30.986-34.398-28.684-34.188-25.66-33.33L98.2 330.58 80.613 300.67 67.94 273.149l-7.286-24.79-1.54-21.818 4.43-18.687 10.5-15.49 16.517-12.309 22.334-9.195 27.808-6.226 32.79-3.434 37.158-.86 40.776 1.488 43.56 3.586 45.414 5.46 46.287 7.11 46.142 8.572 44.966 9.86 42.79 11.024 39.648 12.086 35.616 13.088 30.787 14.053 25.276 15.005 19.219 15.968 12.753 16.939zm0 0" fill-rule="evenodd" fill="#1fa088" fill-opacity=".149" xmlns="http://www.w3.org/2000/svg"/><path d="M689.435 309.18l-.67 18.29-7.408 19.333-13.903 20.326-20.001 21.228-25.565 21.992-30.47 22.559-34.613 22.862-37.907 22.852-40.304 22.476-41.764 21.678-42.28 20.416-41.875 18.666-40.584 16.419-38.472 13.655-35.626 10.417-32.138 6.717-28.12 2.623-23.699-1.805-18.99-6.48-14.13-11.304-9.23-16.157-4.42-20.936.206-25.508 4.545-29.747 8.52-33.535 12.065-36.75 15.135-39.292 17.71-41.06 19.765-41.987 21.317-42.019 22.383-41.113 22.99-39.272 23.196-36.51 23.041-32.87 22.587-28.413 21.896-23.235 21.022-17.452 20.03-11.182 18.953-4.58 17.85 2.2 16.75 9 15.665 15.65 14.621 21.993 13.61 27.869 12.623 33.135 11.643 37.667 10.646 41.348 9.59 44.101 8.45 45.856 7.188 46.582 5.761 46.273 4.142 44.944 2.31 42.63.25 39.423-2.052 35.402-4.577 30.673-7.317 25.378-10.22 19.643-13.257 13.627-16.357 7.48-19.455 1.343-22.467-4.628-25.305-10.302-27.88-15.56-30.1-20.285-31.874-24.4-33.117-27.823-33.76-30.518-33.73-32.458-32.986-33.637-31.5-34.083-29.26-33.812-26.274-32.905-22.579-31.404-18.226-29.409-13.298-26.997-7.882-24.26-2.097-21.292 3.93-18.19L72.153 195.7l16.16-11.904 22.051-8.861 27.603-5.975 32.668-3.278 37.107-.803 40.802 1.43 43.642 3.42 45.554 5.184 46.466 6.724 46.356 8.083 45.203 9.287 43.033 10.37 39.892 11.37 35.853 12.324 31.002 13.264 25.472 14.215 19.381 15.192 12.888 16.201zm0 0" fill-rule="evenodd" fill="#21a585" fill-opacity=".149" xmlns="http://www.w3.org/2000/svg"/><path d="M688.91 305.868l-.616 17.648-7.38 18.777-13.894 19.885-20.006 20.908-25.576 21.794-30.478 22.496-34.607 22.934-37.886 23.055-40.256 22.801-41.678 22.118-42.16 20.96-41.712 19.296-40.376 17.111-38.227 14.409-35.34 11.186-31.82 7.502-27.781 3.39-23.344-1.068-18.633-5.796-13.78-10.682-8.905-15.626-4.125-20.494.446-25.163 4.724-29.513 8.628-33.403 12.09-36.725 15.077-39.367 17.553-41.227 19.516-42.239 20.97-42.337 21.946-41.488 22.473-39.696 22.605-36.954 22.395-33.33 21.891-28.872 21.176-23.68 20.297-17.865 19.31-11.56 18.27-4.918 17.22 1.917 16.182 8.773 15.19 15.473 14.243 21.868 13.35 27.79 12.485 33.102 11.631 37.667 10.767 41.378 9.842 44.146 8.827 45.914 7.675 46.638 6.354 46.319 4.826 44.976 3.063 42.644 1.053 39.408-1.22 35.358-3.734 30.6-6.486 25.281-9.431 19.527-12.517 13.493-15.698 7.335-18.88 1.202-21.998-4.764-24.95-10.421-27.648-15.644-29.993-20.332-31.892-24.394-33.257-27.761-34.007-30.397-34.086-32.273-33.436-33.38-32.022-33.756-29.84-33.427-26.894-32.458-23.225-30.914-18.878-28.876-13.935-26.442-8.487-23.693-2.66-20.736 3.428-17.654 9.628-14.534 15.794-11.461 21.769-8.494 27.403-5.692 32.546-3.096 37.062-.726 40.827 1.393 43.73 3.272 45.696 4.913 46.653 6.342 46.57 7.59 45.44 8.697 43.275 9.7 40.133 10.634 36.08 11.536 31.212 12.453 25.652 13.393 19.534 14.382 13.008 15.423zm0 0" fill-rule="evenodd" fill="#25ac82" fill-opacity=".149" xmlns="http://www.w3.org/2000/svg"/><path d="M688.348 302.56l-.579 16.966-7.37 18.2-13.91 19.407-20.029 20.56-25.608 21.578-30.506 22.41-34.62 22.992-37.872 23.252-40.213 23.124-41.6 22.561-42.036 21.507-41.54 19.938-40.161 17.822-37.96 15.168-35.035 11.983-31.476 8.3-27.408 4.183-22.955-.313-18.24-5.093-13.393-10.048-8.54-15.072-3.8-20.037.724-24.809 4.937-29.266 8.766-33.267 12.14-36.696 15.034-39.44 17.408-41.393 19.27-42.491 20.627-42.662 21.503-41.874 21.942-40.119 21.998-37.406 21.719-33.79 21.17-29.334 20.422-24.12L360.69 47l18.556-11.936 17.543-5.244 16.544 1.644 15.579 8.545 14.675 15.308 13.837 21.754 13.055 27.73 12.317 33.078 11.603 37.68 10.873 41.417 10.082 44.2 9.2 45.974 8.167 46.7 6.957 46.365 5.524 45 3.834 42.644 1.879 39.382-.36 35.296-2.865 30.511-5.629 25.163-8.604 19.38-11.753 13.328-15.006 7.163-18.281 1.024-21.505-4.928-24.577-10.563-27.401-15.757-29.872-20.4-31.898-24.412-33.39-27.718-34.26-30.287-34.444-32.086-33.882-33.124-32.551-33.425-30.43-33.03-27.531-31.991-23.878-30.395-19.538-28.316-14.58-25.85-9.105-23.09-3.228-20.136 2.916-17.077 9.186-14 15.428-10.981 21.487-8.087 27.197-5.374 32.43-2.877 37.02-.623 40.857 1.38 43.823 3.13 45.845 4.651 46.837 5.959 46.788 7.1 45.676 8.098 43.52 9.008 40.37 9.876 36.298 10.726 31.413 11.603 25.823 12.532 19.67 13.537 13.112 14.617zm0 0" fill-rule="evenodd" fill="#2db17e" fill-opacity=".149" xmlns="http://www.w3.org/2000/svg"/><path d="M687.75 299.254l-.564 16.251-7.386 17.58-13.942 18.906-20.08 20.177-25.662 21.338-30.55 22.31-34.647 23.037-37.878 23.434-40.179 23.446-41.521 23.003-41.908 22.066-41.363 20.586-39.93 18.547-37.68 15.952-34.701 12.795-31.105 9.125-27.006 4.992-22.53.465-17.806-4.367-12.968-9.394-8.136-14.5-3.433-19.565 1.04-24.443 5.184-29.01 8.936-33.125 12.217-36.664 15.009-39.513 17.278-41.565 19.036-42.744 20.281-42.993 21.055-42.258 21.4-40.546 21.364-37.866 21.017-34.257 20.418-29.791 19.632-24.566 18.727-18.69L377.126 35.1l16.777-5.566 15.823 1.373 14.936 8.335 14.12 15.156 13.386 21.654 12.73 27.674 12.129 33.07 11.55 37.706 10.958 41.464 10.317 44.267 9.566 46.04 8.667 46.758 7.567 46.41 6.234 45.023 4.628 42.637 2.728 39.34.53 35.22-1.967 30.401-4.737 25.012-7.753 19.207-10.954 13.134-14.28 6.956-17.658.817-20.988-5.129-24.182-10.74-27.131-15.898-29.739-20.497-31.897-24.45-33.515-27.694-34.509-30.184-34.8-31.905-34.342-32.868-33.09-33.086-31.025-32.61-28.174-31.508-24.547-29.852-20.208-27.721-15.236-25.226-9.733-22.446-3.805-19.498 2.397-16.452 8.737-13.419 15.061-10.455 21.2-7.64 27.002-5.019 32.308-2.628 36.987-.489 40.89 1.385 43.924 3.008L330 188.563l47.034 5.579 47.011 6.596 45.909 7.489 43.759 8.306 40.604 9.089 36.517 9.883 31.598 10.721 25.983 11.642 19.792 12.652 13.193 13.765zm0 0" fill-rule="evenodd" fill="#35b779" fill-opacity=".149" xmlns="http://www.w3.org/2000/svg"/><path d="M687.123 295.959l-.576 15.495-7.424 16.919-14.007 18.364-20.156 19.766-25.736 21.07-30.614 22.191-34.697 23.061-37.894 23.612-40.154 23.763-41.449 23.452-41.783 22.629-41.18 21.25-39.683 19.292-37.376 16.749-34.345 13.628-30.706 9.973-26.566 5.826-22.064 1.267-17.333-3.618-12.497-8.717-7.688-13.915-3.022-19.073 1.397-24.067 5.47-28.746 9.132-32.975 12.328-36.63 15.006-39.582 17.167-41.734 18.806-43.006 19.936-43.324 20.599-42.648 20.839-40.985 20.714-38.323 20.29-34.727 19.626-30.257 18.805-25.008 17.878-19.104 16.911-12.674 15.96-5.88 15.063 1.115 14.243 8.137 13.519 15.01 12.902 21.57 12.369 27.639 11.904 33.073 11.471 37.744 11.036 41.524 10.538 44.34 9.931 46.114 9.164 46.823 8.194 46.456 6.958 45.039 5.44 42.62 3.61 39.284 1.442 35.12-1.03 30.265-3.815 24.84-6.862 19.004-10.121 12.903-13.53 6.713-16.998.573-20.447-5.362-23.762-10.95-26.843-16.074-29.59-20.62-31.884-24.51-33.64-27.687-34.751-30.097-35.164-31.734-34.803-32.607-33.63-32.737-31.642-32.184-28.827-31-25.226-29.275-20.893-27.1-15.906-24.556-10.37-21.763-4.394-18.81 1.874-15.784 8.286-12.788 14.687-9.886 20.916-7.15 26.802-4.621 32.196-2.341 36.954-.326 40.933 1.416 44.03 2.904 46.15 4.153 47.232 5.202 47.233 6.089 46.15 6.868 44 7.579 40.829 8.276 36.725 9.006 31.782 9.808 26.123 10.71 19.894 11.726 13.258 12.869zm0 0" fill-rule="evenodd" fill="#40bc72" fill-opacity=".149" xmlns="http://www.w3.org/2000/svg"/><path d="M686.46 292.667l-.61 14.693-7.496 16.219-14.093 17.784L644 360.687l-25.835 20.77-30.709 22.049-34.76 23.078-37.927 23.778-40.139 24.074-41.385 23.904-41.655 23.2-40.984 21.925-39.425 20.05-37.051 17.572-33.966 14.49-30.267 10.845-26.09 6.686-21.56 2.097-16.811-2.846-11.98-8.023-7.193-13.303-2.565-18.574 1.797-23.67 5.802-28.472 9.372-32.819 12.46-36.586 15.029-39.656 17.072-41.909 18.586-43.267 19.591-43.664 20.136-43.048 20.266-41.422 20.037-38.79 19.527-35.202 18.801-30.724 17.931-25.45 16.985-19.513L373.11 35.23l15.093-6.185 14.245.863 13.5 7.951 12.875 14.883 12.369 21.496 11.967 27.618 11.65 33.098 11.373 37.796 11.085 41.6 10.75 44.422 10.295 46.197 9.67 46.892 8.825 46.499 7.704 45.05 6.278 42.594 4.513 39.208 2.395 35.005-.064 30.102-2.855 24.635-5.934 18.764-9.253 12.642-12.742 6.432-16.31.289-19.87-5.636-23.317-11.198-26.537-16.28-29.422-20.777-31.866-24.603-33.75-27.696-35.002-30.024-35.526-31.571-35.268-32.345-34.188-32.383-32.26-31.733-29.493-30.472-25.922-28.674-21.592-26.43-16.589-23.853-11.019-21.031-4.991-18.068 1.34-15.066 7.83-12.106 14.313-9.267 20.627-6.608 26.608-4.18 32.089-2.015 36.923-.131 40.98 1.475 44.145 2.816 46.314 3.92 47.435 4.828 47.463 5.574 46.392 6.231 44.237 6.832 41.058 7.439 36.923 8.1 31.947 8.85 26.253 9.73 19.982 10.758 13.3 11.932zm0 0" fill-rule="evenodd" fill="#4cc26c" fill-opacity=".149" xmlns="http://www.w3.org/2000/svg"/><path d="M685.767 289.384l-.678 13.84-7.594 15.475-14.216 17.163-20.39 18.844-25.969 20.444-30.825 21.881-34.854 23.072-37.974 23.933-40.14 24.387-41.32 24.355-41.527 23.782-40.78 22.618-39.152 20.83-36.707 18.416-33.551 15.374-29.795 11.743-25.574 7.578-21.007 2.949-16.244-2.046-11.412-7.3-6.644-12.676-2.054-18.05 2.246-23.262 6.17-28.185 9.652-32.654 12.633-36.548 15.08-39.722 16.994-42.088 18.372-43.535 19.254-44.006 19.663-43.453 19.673-41.87 19.336-39.265 18.735-35.68 17.934-31.194 17.014-25.896 16.036-19.918 15.072-13.392 14.173-6.49 13.372.63 12.703 7.77 12.176 14.773 11.794 21.445 11.527 27.613 11.36 33.14 11.238 37.864 11.124 41.693 10.945 44.52 10.653 46.285 10.182 46.961 9.468 46.548 8.47 45.052 7.14 42.556L543 524.81l3.38 34.864.942 29.912-1.852 24.399-4.966 18.49-8.347 12.336-11.91 6.108-15.587-.037-19.266-5.95-22.844-11.488-26.21-16.526-29.242-20.966-31.826-24.723-33.86-27.734-35.247-29.966-35.893-31.41-35.742-32.084-34.752-32.02-32.894-31.272-30.178-29.912-26.631-28.037-22.307-25.725-17.29-23.1-11.675-20.247-5.602-17.279.795-14.288 7.366-11.372 13.94-8.587 20.343-6.015 26.414-3.69 31.986-1.65 36.904.102 41.037 1.56 44.264 2.753 46.484 3.699 47.649 4.45 47.695 5.06 46.635 5.577 44.475 6.061 41.28 6.569 37.118 7.154 32.104 7.854 26.364 8.71 20.044 9.735 13.322 10.938zm0 0" fill-rule="evenodd" fill="#59c864" fill-opacity=".149" xmlns="http://www.w3.org/2000/svg"/><path d="M685.04 286.109l-.78 12.936-7.724 14.68-14.37 16.498-20.555 18.323-26.136 20.083-30.97 21.686-34.964 23.05-38.047 24.076-40.151 24.694-41.266 24.814-41.397 24.372-40.57 23.327-38.861 21.634-36.336 19.281-33.106 16.29-29.287 12.674-25.009 8.495-20.404 3.833-15.62-1.217-10.79-6.548-6.039-12.024-1.49-17.505 2.751-22.844 6.592-27.886 9.974-32.484 12.837-36.5 15.163-39.797 16.937-42.263 18.176-43.808 18.906-44.357 19.187-43.87 19.061-42.324 18.61-39.747 17.903-36.166 17.024-31.666 16.043-26.345 15.035-20.32 14.066-13.742 13.19-6.783 12.437.403 11.852 7.617 11.422 14.677 11.162 21.407 11.044 27.631 11.028 33.197 11.08 37.958 11.133 41.796 11.134 44.631 11.006 46.389 10.693 47.041 10.13 46.587L526 443.05l8.032 42.505 6.421 39.015 4.404 34.701 1.992 29.693-.811 24.127-3.956 18.174-7.392 11.989-11.044 5.74-14.822-.413-18.627-6.31-22.344-11.822-25.854-16.819-29.041-21.196-31.78-24.869-33.962-27.795-35.488-29.924-36.264-31.265-36.227-31.82-35.33-31.647-33.542-30.79-30.879-29.327-27.357-27.362-23.034-24.98-18-22.294-12.357-19.41-6.226-16.43.25-13.455 6.896-10.566 13.556-7.855 20.06-5.363 26.224-3.149 31.886-1.234 36.894.375 41.1 1.679 44.397 2.706 46.668 3.492 47.865 4.08 47.94 4.537 46.877 4.907 44.717 5.263 41.493 5.666 37.302 6.17 32.25 6.809 26.458 7.635 20.09 8.661 13.311 9.898zm0 0" fill-rule="evenodd" fill="#67cc5c" fill-opacity=".149" xmlns="http://www.w3.org/2000/svg"/><path d="M684.28 282.836l-.909 11.98-7.894 13.827-14.567 15.782-20.758 17.76-26.33 19.686-31.15 21.466-35.109 23.006-38.138 24.213-40.177 24.994-41.222 25.276-41.262 24.977-40.356 24.05-38.552 22.458-35.936 20.183-32.628 17.23-28.732 13.636-24.397 9.455-19.75 4.75-14.939-.359-10.101-5.77-5.375-11.347-.864-16.942 3.31-22.4 7.07-27.578 10.348-32.306 13.084-36.448 15.275-39.87 16.902-42.446 17.991-44.088 18.567-44.72L256.377 249l18.43-42.79 17.85-40.235 17.034-36.655 16.063-32.147 15.02-26.788 13.976-20.72 12.996-14.093 12.139-7.061 11.442.188 10.927 7.474 10.609 14.6 10.476 21.396 10.506 27.67 10.66 33.276 10.883 38.07 11.124 41.923 11.302 44.757 11.359 46.5 11.214 47.13 10.802 46.632 10.067 45.052 8.951 42.44 7.428 38.889 5.472 34.514 3.084 29.437.28 23.817-2.894 17.817-6.39 11.593-10.13 5.32-14.018-.833-17.95-6.728-21.812-12.209-25.473-17.151-28.82-21.465-31.722-25.057-34.057-27.883-35.728-29.904-36.64-31.122-36.72-31.566-35.918-31.259-34.209-30.286-31.595-28.716-28.103-26.647-23.786-24.185-18.732-21.436-13.046-18.512-6.857-15.515-.315-12.548 6.42-9.706 13.178-7.05 19.773-4.65 26.037-2.55 31.796-.765 36.89.69 41.18 1.832 44.533 2.687 46.863 3.297 48.092 3.715 48.184 4.001 47.13 4.22 44.957 4.443 41.708 4.726 37.476 5.135 32.378 5.716 26.532 6.506 20.113 7.533 13.277 8.792zm0 0" fill-rule="evenodd" fill="#76d153" fill-opacity=".149" xmlns="http://www.w3.org/2000/svg"/><path d="M683.485 279.578l-1.08 10.952-8.102 12.921-14.8 15.011-21.006 17.151-26.567 19.25-31.363 21.21-35.283 22.94-38.251 24.331-40.226 25.298-41.18 25.739-41.134 25.596-40.129 24.798-38.223 23.308-35.512 21.109-32.108 18.211-28.135 14.637-23.728 10.441-19.035 5.709-14.194.533-9.35-4.963-4.636-10.639-.17-16.353 3.938-21.943 7.607-27.255 10.77-32.119 13.38-36.396 15.423-39.944 16.89-42.634 17.82-44.374 18.229-45.09 18.194-44.725 17.781-43.269 17.057-40.73 16.123-37.16 15.049-32.625 13.937-27.238 12.848-21.121 11.856-14.429 11.015-7.333 10.368-.009 9.937 7.348 9.726 14.55 9.73 21.4 9.913 27.74 10.243 33.383 10.653 38.198 11.084 42.076 11.458 44.899 11.705 46.63 11.74 47.218 11.496 46.682 10.897 45.04 9.91 42.367 8.476 38.741 6.583 34.293 4.23 29.15 1.427 23.466-1.78 17.41-5.342 11.146-9.165 4.846-13.166-1.32-17.231-7.195-21.245-12.648-25.068-17.538-28.58-21.781-31.642-25.284-34.147-27.998-35.968-29.908-37.023-30.998-37.22-31.3-36.527-30.868-34.892-29.76-32.33-28.07-28.867-25.89-24.559-23.339-19.482-20.519-13.755-17.546-7.505-14.528-.89-11.573 5.94-8.76 12.791-6.177 19.493-3.87 25.854-1.886 31.716-.242 36.897 1.052 41.262 2.024 44.688 2.698 47.068 3.115 48.331 3.354 48.44 3.459 47.39 3.516 45.191 3.585 41.92 3.745 37.643 4.059 32.49 4.566 26.589 5.317 20.106 6.336 13.212 7.618zm0 0" fill-rule="evenodd" fill="#87d549" fill-opacity=".149" xmlns="http://www.w3.org/2000/svg"/><path d="M682.66 276.322l-1.297 9.86-8.354 11.947-15.082 14.183-21.294 16.49-26.847 18.765-31.616 20.927-35.492 22.851-38.398 24.437-40.286 25.592-41.156 26.216-41.004 26.224-39.888 25.566-37.876 24.188-35.055 22.074-31.548 19.225-27.486 15.674-23.002 11.475-18.255 6.703-13.374 1.467-8.525-4.118-3.826-9.904.595-15.74 4.637-21.464 8.21-26.916 11.254-31.928 13.724-36.34 15.612-40.017 16.914-42.827 17.657-44.674 17.899-45.471 17.685-45.168 17.1-43.758 16.23-41.24 15.162-37.666 13.982-33.117 12.785-27.685 11.643-21.518 10.64-14.76 9.813-7.592 9.217-.19 8.864 7.245 8.77 14.516 8.913 21.44 9.264 27.827 9.774 33.518L439.724 171l11.016 42.246 11.6 45.066 12.046 46.77 12.275 47.324 12.201 46.728 11.763 45.025 10.902 42.275 9.572 38.574 7.746 34.042 5.427 28.824 2.631 23.066-.611 16.952-4.228 10.64-8.149 4.31-12.266-1.863-16.468-7.73-20.635-13.146-24.63-17.984-28.315-22.147-31.555-25.554-34.226-28.153-36.21-29.932-37.408-30.881-37.738-31.046-37.144-30.458-35.597-29.21-33.09-27.389-29.659-25.09-25.348-22.433-20.254-19.533-14.486-16.507-8.17-13.467-1.47-10.513 5.449-7.743 12.403-5.221 19.21-3.01 25.682-1.152 31.638.342 36.915 1.473 41.365 2.254 44.857 2.733 47.283 2.96 48.584 2.992 48.708 2.907 47.646 2.788 45.438 2.7 42.121 2.723 37.8 2.923 32.59 3.355 26.62 4.063 20.071 5.065 13.11 6.378zm0 0" fill-rule="evenodd" fill="#97d83f" fill-opacity=".149" xmlns="http://www.w3.org/2000/svg"/><path d="M681.8 273.078l-1.556 8.687-8.66 10.901-15.41 13.287-21.636 15.77-27.178 18.24-31.914 20.602-35.74 22.734-38.57 24.53-40.379 25.885-41.136 26.69-40.88 26.874-39.639 26.36-37.501 25.098-34.565 23.076-30.945 20.286-26.776 16.758-22.213 12.553-17.396 7.743-12.482 2.437-7.615-3.235-2.934-9.13 1.448-15.1 5.415-20.965 8.886-26.566 11.803-31.72 14.125-36.28 15.845-40.098 16.964-43.027 17.52-44.98 17.563-45.862 17.165-45.632 16.395-44.26 15.361-41.763 14.147-38.186 12.849-33.608 11.56-28.141 10.366-21.912 9.33-15.083 8.525-7.834 7.975-.357 7.708 7.164 7.734 14.512 8.023 21.507 8.544 27.95 9.247 33.682 10.068 38.557 10.92 42.442 11.718 45.257 12.381 46.928 12.813 47.437 12.93 46.782 12.662 45.001 11.935 42.169 10.713 38.38 8.969 33.76 6.69 28.45 3.894 22.618.629 16.435-3.054 10.069-7.07 3.71-11.308-2.478-15.658-8.335-19.99-13.713-24.154-18.492-28.022-22.57-31.452-25.872-34.298-28.347-36.452-29.984-37.8-30.783-38.269-30.787-37.785-30.04-36.321-28.634-33.875-26.666-30.472-24.234-26.169-21.468-21.052-18.477-15.235-15.385-8.85-12.322-2.066-9.367 4.949-6.626 12.011-4.178 18.932-2.07 25.51-.34 31.577.998 36.95 1.947 41.481 2.536 45.036 2.806 47.52 2.816 48.85 2.636 48.983 2.35 47.92 2.033 45.675 1.777 42.323 1.65 37.947 1.73 32.666 2.078 26.631 2.728 20.009 3.722 12.97 5.056zm0 0" fill-rule="evenodd" fill="#a9db33" fill-opacity=".149" xmlns="http://www.w3.org/2000/svg"/><path d="M680.909 269.843l-1.87 7.43-9.023 9.774-15.798 12.32-22.034 14.985-27.564 17.659-32.259 20.236-36.03 22.587-38.782 24.607-40.488 26.171-41.138 27.18-40.75 27.538-39.38 27.182-37.105 26.05-34.033 24.12-30.29 21.391-26.01 17.894-21.35 13.677-16.458 8.834-11.502 3.458-6.615-2.307-1.941-8.327 2.388-14.429 6.279-20.444 9.644-26.192 12.427-31.507 14.587-36.222 16.129-40.173 17.047-43.24 17.404-45.298 17.232-46.274 16.629-46.106 15.667-44.779 14.45-42.297 13.074-38.716 11.642-34.111 10.255-28.596 8.993-22.304 7.932-15.396 7.133-8.068 6.636-.497 6.457 7.106 6.602 14.54 7.048 21.605 7.752 28.105 8.66 33.885 9.702 38.783 10.785 42.674 11.818 45.472 12.71 47.108 13.364 47.562 13.68 46.834 13.591 44.974 13.017 42.047 11.918 38.158 10.249 33.438 8.02 28.034 5.233 22.11 1.939 15.852-1.812 9.428-5.923 3.033-10.288-3.171-14.795-9.014-19.291-14.358-23.644-19.069-27.708-23.058-31.322-26.242-34.363-28.585-36.692-30.067-38.208-30.7-38.81-30.528-38.447-29.612-37.074-28.032-34.69-25.9-31.318-23.323-27.017-20.424-21.874-17.34-16.005-14.181-9.554-11.074-2.676-8.122 4.443-5.415 11.619-3.036 18.652-1.033 25.351.56 31.523 1.73 36.998 2.49 41.614 2.867 45.243 2.912 47.774 2.697 49.13 2.286 49.27 1.78 48.197 1.257 45.923.81 42.52.522 38.08.471 32.727.723 26.612 1.317 19.905 2.29 12.79 3.643zm0 0" fill-rule="evenodd" fill="#bade28" fill-opacity=".149" xmlns="http://www.w3.org/2000/svg"/><path d="M679.983 266.616l-2.242 6.08-9.443 8.556-16.255 11.27-22.492 14.13-28.01 17.02-32.665 19.821-36.365 22.413-39.035 24.664-40.63 26.456-41.154 27.673-40.625 28.228-39.107 28.031L295.278 528l-33.46 25.21-29.576 22.552-25.176 19.081-20.405 14.865-15.434 9.977-10.419 4.53-5.51-1.334-.854-7.482 3.432-13.72 7.247-19.893 10.492-25.806 13.131-31.284 15.123-36.154 16.466-40.262 17.173-43.457 17.305-45.631 16.911-46.703 16.078-46.601 14.903-45.312 13.485-42.85 11.936-39.262 10.363-34.624 8.859-29.05 7.52-22.692 6.426-15.704 5.632-8.278 5.184-.616 5.098 7.08 5.367 14.598 5.98 21.74 6.88 28.306 8.003 34.123 9.282 39.047 10.609 42.94 11.896 45.714 13.035 47.31 13.923 47.705 14.457 46.894 14.56 44.939 14.15 41.908 13.179 37.904 11.605 33.076 9.428 27.56 6.65 21.543 3.327 15.196-.488 8.71-4.7 2.27-9.207-3.95-13.862-9.784-18.545-15.082-23.093-19.728-27.36-23.615-31.18-26.679-34.414-28.868-36.937-30.188-38.619-30.636-39.376-30.275-39.13-29.163-37.855-27.398-35.533-25.083-32.196-22.347-27.895-19.31-22.728-16.113-16.809-12.873-10.272-9.72-3.306-6.762 3.927-4.094 11.222-1.781 18.378.107 25.198 1.555 31.484 2.548 37.063 3.105 41.77 3.256 45.468 3.064 48.045 2.597 49.43 1.946 49.581 1.194 48.481.45 46.173-.204 42.714-.665 38.198-.857 32.768-.72 26.563-.186 19.765.761 12.563 2.133zm0 0" fill-rule="evenodd" fill="#cbe11e" fill-opacity=".149" xmlns="http://www.w3.org/2000/svg"/><path d="M679.028 263.398l-2.68 4.62-9.94 7.24-16.78 10.133-23.026 13.195-28.524 16.312-33.135 19.359-36.76 22.2-39.326 24.701-40.808 26.731-41.186 28.18-40.504 28.942-38.822 28.923-36.227 28.073-32.845 26.358-28.802 23.77-24.255 20.335-19.372 16.11-14.307 11.184-9.229 5.664-4.295-.313.354-6.584 4.597-12.978 8.318-19.312 11.45-25.399 13.927-31.05 15.735-36.09 16.864-40.35 17.346-43.685 17.23-45.986 16.591-47.145 15.516-47.116 14.101-45.872 12.47-43.42 10.724-39.822 8.99-35.142 7.36-29.516 5.938-23.074 4.799-16 4.01-8.475 3.61-.709 3.613 7.086 4.024 14.699 4.809 21.915 5.911 28.547 7.267 34.411 8.798 39.352 10.393 43.249 11.95 45.992 13.352 47.54 14.49 47.861 15.263 46.96L483.58 449.9l15.343 41.747 14.512 37.622 13.036 32.664 10.919 27.031 8.16 20.904 4.805 14.461.925 7.902-3.398 1.412-8.039-4.83-12.868-10.646-17.742-15.91-22.494-20.473-26.975-24.253-31.011-27.181-34.464-29.214-37.18-30.343-39.046-30.596-39.955-30.02-39.847-28.701-38.667-26.727-36.415-24.218-33.112-21.298-28.814-18.107-23.614-14.782-17.634-11.455-11.023-8.252-3.948-5.276 3.4-2.645 10.821-.407 18.107 1.37 25.055 2.657 31.463 3.467 37.151 3.795 41.946 3.712 45.718 3.262 48.343 2.53 49.753 1.61 49.904.596 48.78-.39 46.426-1.268 42.901-1.921 38.305-2.273 32.785-2.249 26.479-1.797 19.582-.876 12.283.511zm0 0" fill-rule="evenodd" fill="#dde318" fill-opacity=".149" xmlns="http://www.w3.org/2000/svg"/><path d="M678.04 260.19l-3.198 3.04-10.508 5.809-17.39 8.89-23.642 12.172-29.116 15.535-33.675 18.836-37.22 21.946-39.675 24.717-41.017 27.008-41.245 28.697-40.383 29.678-38.52 29.852-35.742 29.16-32.174 27.565-27.958 25.057-23.253 21.66-18.237 17.43-13.063 12.459-7.916 6.86-2.948.773 1.697-5.636 5.884-12.193 9.519-18.7 12.521-24.97 14.83-30.801 16.434-36.022 17.34-40.443 17.564-43.933 17.19-46.354 16.274-47.614 14.933-47.658 13.263-46.454 11.39-44.014 9.432-40.395 7.514-35.678 5.747-29.981 4.228-23.459 3.036-16.278 2.25-8.65 1.896-.776 2 7.13 2.547 14.841 3.514 22.142 4.841 28.842 6.448 34.747 8.244 39.709 10.125 43.599 11.971 46.313 13.66 47.802 15.073 48.037 16.104 47.033 16.637 44.846 16.599 41.566 15.923 37.303 14.562 32.201 12.507 26.433 9.77 20.184 6.39 13.634 2.432 6.993-1.999.448-6.79-5.815-11.795-11.628-16.872-16.836-21.845-21.32-26.552-24.987-30.823-27.764-34.499-29.613-37.424-30.548-39.484-30.58-40.565-29.774-40.59-28.22-39.52-26.019-37.338-23.29-34.067-20.166-29.773-16.81-24.541-13.338-18.498-9.906-11.795-6.645-4.613-3.656 2.863-1.05 10.413 1.106 17.844 2.762 24.922 3.888 31.46 4.486 37.262 4.589 42.155 4.24 45.993 3.513 48.67 2.488 50.102 1.28 50.244-.011 49.096-1.273 46.684-2.387 43.084-3.254 38.398-3.781 32.77-3.887 26.358-3.52 19.35-2.64 11.945-1.237zm0 0" fill-rule="evenodd" fill="#ede51b" fill-opacity=".149" xmlns="http://www.w3.org/2000/svg"/><path d="M677.018 256.995l-3.793 1.322-11.178 4.253-18.09 7.529-24.348 11.049-29.8 14.669-34.298 18.249-37.747 21.65-40.086 24.702-41.271 27.276-41.325 29.232-40.274 30.447-38.202 30.83-35.218 30.307-31.442 28.843-27.034 26.42-22.153 23.06-16.98 18.834-11.697 13.818-6.46 8.129-1.457 1.927 3.185-4.633 7.326-11.355L185.54 595.5l13.722-24.514 15.852-30.546 17.235-35.949 17.888-40.547 17.851-44.191 17.176-46.748 15.97-48.11 14.33-48.226 12.375-47.061 10.239-44.638 8.051-40.99 5.928-36.226 4-30.453 2.372-23.833 1.124-16.552.328-8.802.026-.805.225 7.217.929 15.03 2.09 22.425 3.649 29.192 5.525 35.145 7.613 40.128 9.802 43.999 11.96 46.679 13.959 48.095 15.673 48.236 16.976 47.115 17.762 44.793 17.931 41.358 17.428 36.938 16.188 31.682 14.207 25.76 11.49 19.371 8.083 12.706 4.06 5.971-.495-.636-5.438-6.928-10.638-12.73-15.928-17.887-21.136-22.286-26.089-25.823-30.607-28.43-34.521-30.094-37.674-30.8-39.94-30.592-41.197-29.535-41.374-27.724-40.416-25.259-38.306-22.289-35.073-18.952-30.78-15.395-25.509-11.767-19.4-8.22-12.601-4.88-5.3-1.876 2.31.703 10.005 2.779 17.586 4.304 24.807 5.255 31.477 5.635 37.4 5.485 42.39 4.853 46.307 3.819 49.027 2.487 50.478.96 50.615-.641 49.422-2.192 46.95-3.578 43.263-4.672 38.474-5.396 32.731-5.648 26.192-5.373 19.061-4.542 11.543-3.13zm0 0" fill-rule="evenodd" fill="#fde725" fill-opacity=".149" xmlns="http://www.w3.org/2000/svg"/></svg>