<svg xmlns="http://www.w3.org/2000/svg" viewBox="0 0 720 720"><defs><radialGradient id="a" cx=".5" cy=".5" fx=".5" fy=".5" r=".707"><stop offset="0%" stop-color="#58A5F2"/><stop offset="48%" stop-color="#58A5F2"/><stop offset="67%"/><stop offset="68%" stop-color="#FFF"/></radialGradient></defs><rect width="100%" height="100%" rx="0%" ry="0%" fill="url(#a)"/><path d="M693.332 360l-.277-.008-.828-.043-1.375-.12-1.91-.235-2.438-.383-2.95-.57-3.437-.79-3.906-1.038-4.352-1.317-4.765-1.629-5.153-1.957-5.507-2.316-5.829-2.692-6.109-3.082-6.355-3.484-6.559-3.902-6.73-4.32-6.856-4.747-6.941-5.168-6.985-5.586-6.988-6-6.957-6.398-6.883-6.785-6.77-7.157-6.62-7.5-6.442-7.824-6.226-8.125-5.985-8.39-5.71-8.625-5.419-8.829-5.097-8.992-4.762-9.125-4.414-9.21-4.047-9.262-3.676-9.27-3.297-9.238-2.918-9.164-2.539-9.047-2.168-8.89-1.8-8.696-1.454-8.457-1.113-8.184-.797-7.87-.496-7.532-.226-7.148.02-6.747.234-6.308.425-5.852.575-5.375.69-4.87.778-4.364.817-3.836.824-3.3.797-2.766.722-2.227.614-1.691.465-1.16.285-.641.062-.133-.195.36-.477.831-.8 1.282-1.145 1.703-1.523 2.101-1.918 2.47-2.336 2.8-2.778 3.101-3.226 3.368-3.692 3.59-4.164 3.78-4.64 3.93-5.118 4.04-5.593 4.105-6.063 4.14-6.523 4.13-6.973 4.082-7.402 4-7.817 3.874-8.203 3.727-8.57 3.535-8.902 3.32-9.211 3.075-9.485 2.808-9.718 2.512-9.918 2.203-10.082 1.875-10.204 1.535-10.28 1.188-10.325.828-10.32.473-10.274.113-10.187-.242-10.063-.586-9.894-.918-9.688-1.238-9.441-1.543-9.16-1.825-8.848-2.082-8.504-2.312-8.125-2.516-7.726-2.687-7.301-2.828-6.856-2.93-6.39-2.996-5.918-3.028-5.426-3.02-4.934-2.972-4.433-2.886-3.938-2.758-3.445-2.598-2.953-2.39-2.477-2.153-2.015-1.871-1.567-1.566-1.14-1.22-.739-.843-.363-.441-.008-.012.305.441.594.914.847 1.399 1.063 1.906 1.242 2.422 1.383 2.941 1.488 3.465 1.55 3.989 1.579 4.511 1.562 5.028 1.512 5.527 1.426 6.02 1.3 6.492 1.145 6.941.957 7.371.735 7.774.484 8.144.215 8.484-.086 8.793-.399 9.067-.734 9.3-1.078 9.493-1.438 9.648-1.8 9.762-2.172 9.836-2.535 9.863-2.899 9.856-3.258 9.8-3.601 9.707-3.934 9.575-4.254 9.406-4.543 9.195-4.82 8.953-5.062 8.676-5.282 8.371-5.468 8.04-5.625 7.679-5.739 7.297-5.824 6.894-5.867 6.48-5.871 6.056-5.84 5.613-5.762 5.168-5.648 4.726-5.492 4.282-5.297 3.843-5.067 3.414-4.793 2.993-4.48 2.59-4.145 2.207-3.765 1.84-3.36 1.503-2.925 1.188-2.465.902-1.98.649-1.481.43-.961.245-.43.094.11-.02.664-.093 1.21-.13 1.762-.128 2.305-.09 2.848-.012 3.37.102 3.884.254 4.378.433 4.852.657 5.297.898 5.723 1.18 6.109 1.48 6.473 1.805 6.8 2.156 7.086 2.516 7.344 2.898 7.555 3.29 7.726 3.687 7.864 4.09 7.953 4.492 8.007 4.894 8.016 5.293 7.984 5.676 7.915 6.051 7.808 6.406 7.664 6.746 7.485 7.059 7.265 7.348 7.028 7.613 6.75 7.84 6.449 8.043 6.129 8.203 5.785 8.328 5.422 8.422 5.05 8.465 4.668 8.476 4.274 8.446 3.879 8.37 3.488 8.255 3.094 8.101 2.71 7.906 2.337 7.668 1.976 7.395 1.633 7.086 1.309 6.742 1.011 6.363.735 5.957.488 5.52.274 5.058.09 4.575-.063 4.07-.18 3.555-.254 3.02-.297 2.484-.3 1.933-.262 1.39-.192.84-.078.301.075-.234.257-.754.477-1.262.734-1.746 1.02-2.215 1.332-2.652 1.68-3.066 2.046-3.453 2.434-3.805 2.844-4.121 3.27-4.406 3.71-4.649 4.156-4.86 4.61-5.023 5.062-5.152 5.524-5.238 5.969-5.29 6.414-5.292 6.847-5.266 7.262-5.195 7.66-5.09 8.035-4.945 8.39-4.774 8.716-4.57 9.012-4.328 9.273-4.07 9.504-3.786 9.7-3.476 9.85-3.153 9.97-2.816 10.042-2.465 10.075-2.105 10.07-1.743 10.02-1.379 9.93-1.02 9.796-.663 9.621-.317 9.414.012 9.16.332 8.871.63 8.551.901 8.2 1.153 7.812 1.379 7.402 1.57 6.969 1.73 6.508 1.86 6.035 1.95 5.539 2.003 5.043 2.027 4.527 2 4.012 1.946 3.496 1.843 2.98 1.707 2.473 1.532 1.973 1.316 1.488 1.07 1.016.782.562.468.133.118-.27-.258-.644-.664-.992-1.094-1.309-1.543-1.59-2.008-1.836-2.492-2.046-2.988-2.215-3.489-2.344-3.996-2.441-4.504-2.496-5.007-2.508-5.508-2.489-6-2.425-6.477-2.328-6.937-2.196-7.38-2.027-7.8-1.832-8.191-1.606-8.559-1.351-8.89-1.074-9.196-.774-9.457-.457-9.687-.125-9.88.223-10.03.574-10.137.934-10.207 1.293-10.235 1.652-10.215 2.008-10.16 2.351-10.062 2.684-9.922 3-9.746 3.3-9.531 3.575-9.278 3.832-8.996 4.055-8.68 4.25-8.335 4.414-7.961 4.547-7.57 4.636-7.153 4.7-6.723 4.714-6.273 4.7-5.82 4.636-5.352 4.535-4.89 4.403-4.423 4.218-3.957 4.004-3.503 3.746-3.06 3.458-2.624 3.128-2.211 2.77-1.816 2.379-1.446 1.957-1.097 1.512-.786 1.043-.492.55-.242.047-.02-.476.169-1.012.312-1.547.426-2.094.496-2.632.535-3.176.527-3.711.485-4.23.406-4.743.29-5.23.136-5.707-.043-6.153-.266-6.574-.508-6.969-.78-7.332-1.083-7.66-1.402-7.95-1.738-8.206-2.098-8.422-2.465-8.602-2.844-8.738-3.226-8.828-3.614-8.887-4-8.898-4.382-8.867-4.754-8.801-5.121-8.691-5.465-8.543-5.793-8.364-6.106-8.148-6.39-7.899-6.649-7.617-6.875-7.312-7.074-6.98-7.238-6.626-7.364-6.258-7.457-5.87-7.503-5.47-7.52-5.066-7.492-4.652-7.422-4.238-7.313-3.825-7.16-3.422-6.972-3.02-6.739-2.64-6.472-2.265-6.168-1.918-5.825-1.586-5.453-1.281-5.043-1.004-4.613-.754-4.156-.535-3.672-.352-3.168-.203-2.648-.086-2.118-.012-1.574.028-1.023.027-.473-.012.082-.082.629-.2 1.172-.347 1.7-.535 2.21-.754 2.715-1.004 3.187-1.289 3.641-1.597 4.066-1.938 4.465-2.293 4.828-2.676 5.16-3.074 5.458-3.484 5.718-3.906 5.938-4.336 6.117-4.77 6.262-5.207 6.363-5.633 6.422-6.062 6.441-6.473 6.426-6.879 6.363-7.258 6.27-7.625 6.137-7.968 5.968-8.282 5.77-8.566 5.539-8.824 5.281-9.047 4.996-9.235 4.692-9.378 4.367-9.497 4.023-9.562 3.672-9.598 3.305-9.582 2.934L204.25 189l-9.438 2.191-9.3 1.82-9.125 1.466-8.907 1.113-8.656.777-8.363.461-8.035.164-7.676-.105-7.285-.356-6.871-.57-6.422-.762-5.957-.914-5.473-1.035-4.969-1.117-4.453-1.168-3.933-1.172-3.399-1.148-2.867-1.079-2.34-.972-1.808-.824-1.293-.645-.785-.43-.297-.172.175.118.633.433 1.055.785 1.457 1.16 1.828 1.56 2.168 1.983 2.477 2.426 2.746 2.887 2.98 3.355 3.176 3.836 3.332 4.32 3.453 4.813 3.531 5.297 3.567 5.781 3.574 6.254 3.531 6.715 3.457 7.168 3.344 7.594 3.2 8 3.023 8.383 2.812 8.742 2.574 9.066 2.309 9.36 2.027 9.617 1.72 9.84 1.394 10.027 1.058 10.168.711 10.273.36 10.336v10.36l-.36 10.336-.71 10.273-1.06 10.168-1.394 10.027-1.719 9.84-2.027 9.617-2.309 9.36-2.574 9.066-2.812 8.742-3.024 8.383-3.199 8-3.344 7.594-3.457 7.168-3.531 6.715-3.574 6.254-3.567 5.78-3.53 5.298-3.454 4.812-3.332 4.32-3.176 3.837-2.98 3.355-2.746 2.887-2.477 2.426-2.168 1.984-1.828 1.558-1.457 1.16-1.055.786-.633.433-.175.118.297-.172.785-.43 1.293-.645 1.808-.824 2.34-.972 2.867-1.079 3.399-1.148 3.933-1.172 4.453-1.168 4.97-1.117 5.472-1.035 5.957-.914 6.422-.762 6.87-.57 7.286-.356 7.676-.105 8.035.164 8.363.46 8.656.778 8.907 1.113 9.125 1.465 9.3 1.82L204.25 531l9.531 2.563 9.582 2.933 9.598 3.305 9.562 3.672 9.497 4.023 9.378 4.367 9.235 4.692 9.047 4.996 8.824 5.281 8.566 5.54 8.282 5.769 7.968 5.968 7.625 6.137 7.258 6.27 6.879 6.363 6.473 6.426 6.062 6.441 5.633 6.422 5.207 6.363 4.77 6.262 4.336 6.117 3.906 5.938 3.484 5.718 3.074 5.457 2.676 5.16 2.293 4.829 1.938 4.465 1.597 4.066 1.29 3.64 1.003 3.188.754 2.715.535 2.21.348 1.7.2 1.172.081.629.012.082-.027-.473-.028-1.023.012-1.574.086-2.118.203-2.648.352-3.168.535-3.672.754-4.156 1.004-4.613 1.28-5.043 1.587-5.453 1.918-5.825 2.265-6.168 2.64-6.472 3.02-6.739 3.422-6.972 3.825-7.16 4.238-7.313 4.652-7.422 5.067-7.492 5.468-7.52 5.871-7.503 6.258-7.457 6.625-7.364 6.98-7.238 7.313-7.074 7.617-6.875 7.899-6.649 8.148-6.39 8.364-6.106 8.543-5.793 8.69-5.465 8.802-5.12 8.867-4.755 8.898-4.382 8.887-4 8.828-3.614 8.738-3.226 8.602-2.844 8.422-2.465 8.207-2.098 7.95-1.738 7.66-1.402 7.331-1.082 6.97-.781 6.573-.508 6.153-.266 5.707-.043 5.23.137 4.742.289 4.23.406 3.712.485 3.176.527 2.632.535 2.094.496 1.547.426 1.012.312.476.168-.047-.02-.55-.241-1.043-.492-1.512-.786-1.957-1.097-2.379-1.446-2.77-1.816-3.128-2.21-3.457-2.626-3.747-3.059-4.004-3.503-4.218-3.957-4.403-4.422-4.535-4.891-4.636-5.352-4.7-5.82-4.715-6.273-4.699-6.723-4.636-7.152-4.547-7.57-4.414-7.962-4.25-8.335-4.055-8.68-3.832-8.996-3.574-9.278-3.301-9.53-3-9.747-2.684-9.922-2.351-10.062-2.008-10.16-1.652-10.215-1.293-10.235-.934-10.207-.574-10.136-.223-10.032.125-9.879.457-9.687.774-9.457 1.074-9.195 1.351-8.891 1.606-8.559 1.832-8.191 2.027-7.8 2.196-7.38 2.328-6.937 2.425-6.477 2.489-6 2.508-5.508 2.496-5.007 2.441-4.504 2.344-3.996 2.215-3.489 2.047-2.988 1.835-2.492 1.59-2.008 1.309-1.543.992-1.094.645-.664.27-.258-.134.118-.562.468-1.016.782-1.488 1.07-1.973 1.316-2.472 1.532-2.98 1.707-3.497 1.843-4.012 1.946-4.527 2-5.043 2.027-5.54 2.004-6.034 1.95-6.508 1.858-6.969 1.731-7.402 1.57-7.813 1.38-8.199 1.152-8.55.902-8.872.629-9.16.332-9.414.012-9.621-.317-9.797-.664-9.93-1.02-10.02-1.378-10.07-1.743-10.074-2.105-10.043-2.465-9.968-2.816-9.852-3.153-9.7-3.476-9.503-3.785-9.274-4.07-9.011-4.329-8.715-4.57-8.39-4.774-8.036-4.945-7.66-5.09-7.262-5.195-6.847-5.266-6.414-5.293-5.97-5.289-5.523-5.238-5.062-5.152-4.61-5.024-4.156-4.86-3.71-4.648-3.27-4.406-2.844-4.12-2.434-3.806-2.046-3.453-1.68-3.066-1.332-2.652-1.02-2.215-.734-1.746-.477-1.262-.257-.754-.075-.234.078.3.192.84.262 1.39.3 1.934.297 2.485.254 3.02.18 3.554.062 4.07-.09 4.575-.273 5.058-.488 5.52-.735 5.957-1.011 6.363-1.309 6.742-1.633 7.086-1.976 7.395-2.336 7.668-2.711 7.906-3.094 8.101-3.488 8.254-3.88 8.371-4.273 8.446-4.667 8.476-5.051 8.465-5.422 8.422-5.785 8.328-6.13 8.203-6.448 8.043-6.75 7.84-7.028 7.613-7.265 7.348-7.485 7.059-7.664 6.746-7.808 6.406-7.915 6.05-7.984 5.677-8.016 5.293-8.007 4.894-7.953 4.492-7.864 4.09-7.726 3.688-7.555 3.289-7.344 2.898-7.086 2.516-6.8 2.156-6.473 1.805-6.11 1.48-5.722 1.18-5.297.898-4.852.656-4.378.434-3.883.254-3.371.102-2.848-.012-2.305-.09-1.761-.129-1.211-.129-.664-.094-.11-.02.43.095.96.246 1.481.43 1.98.648 2.466.902 2.925 1.188 3.36 1.504 3.765 1.84 4.145 2.207 4.48 2.59 4.793 2.992 5.067 3.414 5.297 3.843 5.492 4.282 5.648 4.726 5.762 5.168 5.84 5.613 5.87 6.055 5.868 6.48 5.824 6.895 5.739 7.297 5.625 7.68 5.468 8.039 5.282 8.37 5.062 8.677 4.82 8.953 4.543 9.195 4.254 9.406 3.934 9.575 3.601 9.707 3.258 9.8 2.899 9.856 2.535 9.863 2.172 9.836 1.8 9.762 1.438 9.648 1.078 9.492.734 9.301.399 9.067.086 8.793-.215 8.484-.484 8.144-.735 7.774-.957 7.37-1.144 6.942-1.301 6.493-1.426 6.02-1.512 5.526-1.562 5.028-1.578 4.511-1.551 3.989-1.488 3.465-1.383 2.941-1.242 2.422-1.063 1.906-.847 1.399-.594.914-.305.441.008-.012.363-.441.739-.844 1.14-1.219 1.567-1.566 2.015-1.871 2.477-2.152 2.953-2.391 3.445-2.598 3.938-2.758 4.433-2.886 4.934-2.973 5.426-3.02 5.918-3.027 6.39-2.996 6.856-2.93 7.3-2.828 7.727-2.687 8.125-2.516 8.504-2.312 8.848-2.082 9.16-1.825 9.441-1.543 9.688-1.238 9.894-.918 10.063-.586 10.187-.242 10.274.113 10.32.473 10.324.828 10.281 1.188 10.204 1.535 10.082 1.875 9.918 2.203 9.718 2.512 9.485 2.808 9.21 3.074 8.903 3.32 8.57 3.536 8.203 3.726 7.817 3.875 7.402 4 6.973 4.083 6.523 4.128 6.063 4.141 5.594 4.106 5.117 4.039 4.64 3.93 4.164 3.78 3.692 3.59 3.226 3.368 2.778 3.101 2.336 2.8 1.918 2.47 1.523 2.101 1.145 1.703.8 1.282.477.832.195.359-.062-.133-.285-.64-.465-1.16-.614-1.692-.722-2.227-.797-2.765-.824-3.301-.817-3.836-.777-4.363-.691-4.871-.575-5.375-.425-5.852-.235-6.308-.02-6.747.227-7.148.496-7.531.797-7.871 1.113-8.184 1.454-8.457 1.8-8.695 2.168-8.89 2.54-9.048 2.917-9.164 3.297-9.238 3.676-9.27 4.047-9.261 4.414-9.211 4.762-9.125 5.097-8.992 5.418-8.829 5.711-8.625 5.985-8.39 6.226-8.125 6.442-7.824 6.62-7.5 6.77-7.157 6.883-6.785 6.957-6.398 6.988-6 6.985-5.586 6.941-5.168 6.856-4.746 6.73-4.32 6.559-3.903 6.355-3.484 6.11-3.082 5.828-2.692 5.507-2.316 5.153-1.957 4.765-1.63 4.352-1.315 3.906-1.04 3.438-.789 2.949-.57 2.437-.383 1.91-.234 1.376-.121.828-.043zm0 0" fill-rule="evenodd" fill="#104e8b"/><path d="M693.332 360l-.34-.008-1.027-.043-1.703-.125-2.375-.234-3.032-.39-3.671-.579-4.293-.8-4.891-1.055-5.469-1.344-6.011-1.656-6.524-2-7.008-2.368-7.453-2.753-7.863-3.16-8.227-3.583-8.558-4.015-8.84-4.457-9.082-4.91-9.278-5.356-9.43-5.809-9.538-6.253-9.602-6.688-9.617-7.117-9.598-7.524-9.527-7.921-9.418-8.29-9.273-8.636-9.082-8.961-8.864-9.246-8.61-9.504-8.32-9.73-8.003-9.915-7.664-10.058-7.297-10.164-6.914-10.23-6.516-10.25-6.098-10.227-5.675-10.157-5.243-10.043-4.812-9.882-4.375-9.684-3.95-9.43-3.523-9.144-3.113-8.805-2.715-8.433-2.336-8.02-1.969-7.566-1.632-7.079-1.317-6.558-1.035-6.004-.773-5.43-.551-4.824-.36-4.2-.203-3.558-.082-2.894v-2.227l.04-1.55.05-.864.012-.18-.059.5-.168 1.176-.316 1.84-.504 2.492-.723 3.133-.976 3.742-1.262 4.34-1.582 4.906-1.926 5.442-2.293 5.949-2.687 6.422-3.102 6.86-3.535 7.257-3.976 7.617-4.434 7.934-4.899 8.21-5.363 8.442-5.836 8.629-6.3 8.773-6.758 8.875-7.211 8.93-7.653 8.942-8.066 8.91-8.473 8.84-8.851 8.726-9.207 8.578-9.531 8.387-9.825 8.164-10.082 7.91-10.308 7.621-10.496 7.313-10.641 6.976-10.742 6.614-10.809 6.242-10.82 5.847-10.797 5.442-10.723 5.031-10.605 4.617-10.445 4.196-10.23 3.78-9.981 3.368-9.684 2.969-9.344 2.574-8.965 2.203-8.543 1.84-8.09 1.508-7.597 1.191-7.07.91-6.52.649-5.937.422-5.332.226-4.707.07-4.063-.058-3.402-.14-2.735-.192-2.058-.203-1.38-.176-.694-.11h-.02l.648.141 1.309.324 1.957.54 2.582.793 3.191 1.078 3.774 1.394 4.332 1.742 4.86 2.118 5.355 2.515 5.816 2.934 6.246 3.375 6.63 3.828 6.98 4.3 7.285 4.778 7.55 5.258 7.77 5.75 7.95 6.234 8.081 6.719 8.172 7.195 8.219 7.66 8.223 8.106 8.187 8.543 8.106 8.953 7.988 9.34 7.832 9.703 7.644 10.031 7.415 10.332 7.16 10.594 6.875 10.82 6.566 11.008 6.23 11.156 5.88 11.258 5.507 11.32 5.125 11.336 4.73 11.305 4.333 11.23 3.926 11.11 3.52 10.941 3.12 10.73 2.73 10.477 2.344 10.172 1.977 9.832 1.621 9.45 1.285 9.023.977 8.57.687 8.074.43 7.547.2 6.993v6.414l-.165 5.804-.289 5.184-.387 4.539-.441 3.883-.457 3.218-.434 2.547-.375 1.871-.273 1.2-.137.523.043-.133.254-.785.504-1.422.789-2.043 1.105-2.636 1.454-3.207 1.828-3.758 2.23-4.27 2.656-4.754 3.106-5.203 3.57-5.617 4.051-5.992 4.543-6.324 5.043-6.618 5.547-6.867 6.055-7.078 6.558-7.242 7.059-7.363 7.55-7.446 8.032-7.476 8.488-7.473 8.938-7.426 9.355-7.336 9.754-7.214 10.121-7.051 10.46-6.856 10.763-6.625 11.03-6.37 11.263-6.083 11.449-5.773 11.597-5.442 11.704-5.09 11.761-4.73 11.782-4.348 11.746-3.964 11.672-3.579 11.55-3.183 11.38-2.79 11.167-2.41 10.91-2.03 10.606-1.665 10.262-1.316 9.878-.98 9.454-.673 8.996-.382 8.5-.121 7.976.109 7.422.316 6.844.485 6.242.617 5.617.719 4.985.78 4.328.806 3.672.789 3.007.734 2.336.645 1.676.507 1.012.34.36.133-.282-.113-.906-.399-1.508-.707-2.094-1.058-2.652-1.438-3.188-1.84-3.683-2.27-4.153-2.722-4.59-3.199-4.984-3.688-5.344-4.195-5.664-4.707-5.937-5.23-6.176-5.754-6.371-6.281-6.52-6.805-6.628-7.32-6.692-7.829-6.715-8.32-6.699-8.793-6.64-9.25-6.544-9.68-6.406-10.09-6.242-10.46-6.035-10.809-5.805-11.117-5.539-11.387-5.254-11.625-4.945-11.812-4.61-11.965-4.265-12.074-3.906-12.133-3.532-12.149-3.156-12.12-2.777-12.04-2.39-11.918-2.016-11.75-1.645-11.535-1.285-11.277-.934-10.977-.601-10.629-.293-10.246v-9.824l.265-9.363.5-8.875.711-8.348.883-7.8 1.027-7.227 1.137-6.625 1.207-6.012 1.235-5.379 1.234-4.738 1.184-4.082 1.101-3.43.98-2.77.813-2.117.61-1.465.374-.828.094-.199-.215.41-.562 1.004-.938 1.567-1.343 2.113-1.778 2.629-2.238 3.113-2.715 3.563L495.57 80l-3.73 4.36-4.258 4.699-4.797 5-5.336 5.261-5.883 5.48-6.43 5.657-6.968 5.79-7.504 5.882-8.02 5.93-8.53 5.941-9.016 5.91-9.48 5.836-9.927 5.73-10.34 5.587-10.722 5.406-11.074 5.191-11.387 4.957-11.668 4.688-11.902 4.394-12.102 4.086-12.254 3.75-12.36 3.406-12.425 3.051-12.441 2.68-12.41 2.308-12.336 1.938-12.215 1.566-12.047 1.196-11.828.84-11.575.492-11.273.16-10.93-.152-10.547-.45-10.125-.715-9.671-.96-9.184-1.176-8.664-1.36-8.121-1.507-7.547-1.625-6.957-1.707-6.352-1.747-5.726-1.753-5.09-1.715-4.453-1.645-3.805-1.527-3.16-1.371-2.516-1.18-1.882-.95-1.258-.675-.649-.375-.05-.027.52.343 1.073.75 1.598 1.184 2.094 1.64 2.558 2.13 2.992 2.636 3.387 3.157 3.746 3.699 4.07 4.246 4.348 4.805 4.59 5.367 4.79 5.933 4.948 6.496 5.063 7.055 5.137 7.602 5.168 8.136 5.16 8.657 5.113 9.156 5.027 9.633 4.907 10.086 4.75 10.507 4.558 10.899 4.34 11.258 4.09 11.578 3.816 11.86 3.52 12.1 3.203 12.302 2.871 12.457 2.52 12.57 2.168 12.633 1.804 12.656 1.434 12.625 1.07 12.55.703 12.43.348 12.262v12.05l-.332 11.794-.652 11.496-.95 11.152-1.222 10.778-1.477 10.359-1.695 9.906-1.89 9.426-2.056 8.914-2.18 8.375-2.269 7.809-2.324 7.23-2.34 6.63-2.316 6.015-2.258 5.39-2.148 4.766-2.008 4.129-1.828 3.5-1.602 2.875-1.344 2.25-1.043 1.648-.707 1.051-.34.477.063-.082.492-.61.957-1.113 1.442-1.594 1.953-2.031 2.484-2.445 3.027-2.82 3.59-3.16 4.164-3.458 4.739-3.715 5.324-3.937 5.906-4.113 6.488-4.25 7.059-4.344 7.621-4.399 8.172-4.414 8.7-4.386 9.214-4.32 9.7-4.22 10.163-4.082L271 558.566l10.992-3.707 11.356-3.476 11.68-3.219L317 545.227l12.215-2.633 12.418-2.309 12.578-1.976 12.695-1.625 12.758-1.266 12.781-.906 12.754-.543 12.684-.18 12.562.18 12.399.523 12.191.863 11.934 1.188 11.64 1.488 11.305 1.774 10.926 2.035 10.515 2.265 10.075 2.47 9.593 2.64 9.09 2.785 8.559 2.887 8.004 2.953 7.43 2.984 6.843 2.977 6.242 2.93 5.633 2.835 5.016 2.707 4.402 2.54 3.781 2.328 3.176 2.078 2.57 1.793 1.985 1.46 1.406 1.106.856.707.316.278-.191-.18-.672-.668-1.125-1.176-1.547-1.71-1.934-2.263-2.285-2.832-2.598-3.414-2.875-4.008-3.113-4.605-3.304-5.203-3.461-5.805-3.57-6.402-3.65-6.988-3.679-7.563-3.672-8.125-3.625-8.668-3.543-9.191-3.422-9.688-3.265-10.156-3.082-10.598-2.864-11-2.617-11.37-2.351-11.704-2.055-11.996-1.742-12.242-1.418-12.453-1.074-12.614-.72-12.73-.362-12.8V353.59l.363-12.8.719-12.731 1.074-12.614 1.418-12.453 1.742-12.242 2.055-11.996 2.351-11.703 2.617-11.371 2.864-11 3.082-10.598 3.265-10.156 3.422-9.688 3.543-9.191 3.625-8.668 3.672-8.125 3.68-7.563 3.648-6.988 3.57-6.402 3.462-5.805 3.304-5.203 3.113-4.606 2.875-4.007 2.598-3.414 2.285-2.832 1.934-2.262 1.547-1.711 1.125-1.176.672-.668.191-.18-.316.278-.856.707-1.406 1.105-1.984 1.461-2.57 1.793-3.177 2.078-3.78 2.328-4.403 2.54-5.016 2.707-5.633 2.836-6.242 2.93-6.844 2.976-7.43 2.984-8.003 2.953-8.559 2.887-9.09 2.785-9.593 2.64-10.075 2.47-10.515 2.265-10.926 2.035-11.305 1.774-11.64 1.488-11.934 1.188-12.191.863-12.399.523-12.562.18-12.684-.18-12.754-.543-12.78-.906-12.759-1.266-12.695-1.625-12.578-1.976-12.418-2.309L317 174.773l-11.973-2.937-11.68-3.219-11.355-3.476L271 161.434l-10.594-3.914-10.164-4.083-9.699-4.218-9.215-4.32-8.7-4.387-8.171-4.414-7.621-4.399-7.059-4.344-6.488-4.25-5.906-4.113-5.324-3.937-4.739-3.715-4.164-3.457-3.59-3.16-3.027-2.82-2.484-2.446-1.953-2.031-1.442-1.594-.957-1.113-.492-.61-.063-.082.34.477.707 1.05 1.043 1.65 1.344 2.25 1.602 2.874 1.828 3.5 2.008 4.129 2.148 4.766 2.258 5.39 2.316 6.016 2.34 6.629 2.324 7.23 2.27 7.809 2.18 8.375 2.054 8.914 1.89 9.426 1.696 9.906 1.477 10.36 1.222 10.777.95 11.152.652 11.496.332 11.793v12.05l-.348 12.263-.703 12.43-1.07 12.55-1.434 12.625-1.804 12.656-2.168 12.633-2.52 12.57-2.871 12.457-3.203 12.301-3.52 12.102-3.816 11.86-4.09 11.577-4.34 11.258-4.558 10.899-4.75 10.507-4.907 10.086-5.027 9.633-5.113 9.156-5.16 8.657-5.168 8.136-5.137 7.602-5.063 7.055-4.949 6.496-4.789 5.933-4.59 5.367-4.347 4.805-4.07 4.246-3.747 3.7-3.387 3.156-2.992 2.636-2.558 2.13-2.094 1.64-1.598 1.184-1.074.75-.52.343.051-.027.649-.375 1.258-.676 1.882-.949 2.516-1.18 3.16-1.37 3.805-1.528 4.453-1.645 5.09-1.715 5.726-1.753 6.352-1.747 6.957-1.707 7.547-1.625 8.12-1.507 8.665-1.36 9.184-1.176 9.671-.96 10.125-.715 10.547-.45 10.93-.152 11.273.16 11.575.492 11.828.84 12.047 1.196 12.215 1.566 12.335 1.938 12.41 2.308 12.442 2.68 12.426 3.05 12.36 3.407 12.253 3.75 12.102 4.086 11.902 4.394 11.668 4.688 11.387 4.957 11.074 5.191 10.723 5.407 10.34 5.585 9.925 5.73 9.48 5.837 9.016 5.91 8.532 5.941 8.02 5.93 7.503 5.883 6.969 5.789 6.43 5.656 5.882 5.48 5.336 5.262 4.797 5 4.258 4.7 3.73 4.359 3.215 3.98 2.715 3.563 2.238 3.113 1.778 2.63 1.343 2.112.938 1.567.562 1.004.215.41-.094-.2-.375-.827-.609-1.465-.812-2.117-.98-2.77-1.102-3.43-1.184-4.082-1.234-4.738-1.235-5.379-1.207-6.012-1.137-6.625-1.027-7.226-.883-7.801-.71-8.348-.5-8.875-.266-9.363v-9.824l.293-10.246.601-10.63.934-10.976 1.285-11.277 1.645-11.535 2.015-11.75 2.39-11.918 2.778-12.04 3.156-12.12 3.532-12.149 3.906-12.133 4.266-12.074 4.609-11.965 4.945-11.812 5.254-11.625 5.54-11.387 5.804-11.117 6.035-10.809 6.242-10.46 6.406-10.09 6.543-9.68 6.641-9.25 6.7-8.793 6.714-8.32 6.692-7.829 6.628-7.32 6.52-6.805 6.371-6.28 6.176-5.755 5.937-5.23 5.664-4.707 5.344-4.195 4.985-3.688 4.59-3.2 4.152-2.722 3.683-2.27 3.188-1.84 2.652-1.437 2.094-1.058 1.508-.707.906-.399.281-.113-.36.133-1.01.34-1.677.507-2.336.645-3.007.734-3.672.79-4.328.804-4.985.781-5.617.72-6.242.616-6.844.485-7.422.316-7.976.11-8.5-.122-8.996-.382-9.454-.672-9.878-.98-10.262-1.317-10.606-1.664-10.91-2.032-11.168-2.41-11.379-2.789-11.55-3.183-11.672-3.578-11.746-3.965-11.782-4.348-11.761-4.73-11.704-5.09-11.597-5.442-11.45-5.773-11.261-6.082-11.031-6.371-10.762-6.625-10.461-6.856-10.121-7.05-9.754-7.215-9.356-7.336-8.937-7.426-8.488-7.473-8.032-7.476-7.55-7.446-7.059-7.363-6.558-7.242-6.055-7.078-5.547-6.867-5.043-6.618-4.543-6.324-4.05-5.992-3.571-5.617-3.106-5.203-2.656-4.754-2.23-4.27-1.828-3.758-1.454-3.207-1.105-2.636-.79-2.043-.503-1.422-.254-.785-.043-.133.137.523.273 1.2.375 1.87.434 2.547.457 3.22.441 3.882.387 4.54.29 5.183.163 5.804v6.414l-.199 6.993-.43 7.547-.687 8.074-.977 8.57-1.285 9.023-1.621 9.45-1.977 9.832-2.343 10.172-2.73 10.476-3.122 10.73-3.52 10.942-3.925 11.11-4.332 11.23-4.73 11.305-5.126 11.336-5.508 11.32-5.878 11.258-6.23 11.156-6.567 11.008-6.875 10.82-7.16 10.594-7.415 10.332-7.644 10.031-7.832 9.703-7.988 9.34-8.106 8.953-8.187 8.543-8.223 8.106-8.219 7.66-8.172 7.195-8.082 6.719-7.949 6.234-7.77 5.75-7.55 5.258-7.285 4.777-6.98 4.301-6.63 3.828-6.246 3.375-5.816 2.934-5.356 2.515-4.86 2.118-4.331 1.742-3.774 1.394-3.19 1.079-2.583.792-1.957.54-1.309.324-.648.14h.02l.695-.109 1.379-.176 2.058-.203 2.735-.191 3.402-.14 4.063-.06 4.707.07 5.332.227 5.937.422 6.52.649 7.07.91 7.598 1.191 8.09 1.508 8.542 1.84 8.965 2.203 9.344 2.574 9.684 2.969 9.98 3.367 10.23 3.781 10.446 4.196 10.605 4.617 10.723 5.031 10.797 5.442 10.82 5.847 10.809 6.242 10.742 6.614 10.64 6.976 10.497 7.313 10.308 7.62 10.082 7.911 9.825 8.164 9.53 8.387 9.208 8.578 8.851 8.726 8.473 8.84 8.066 8.91 7.653 8.942 7.21 8.93 6.759 8.875 6.3 8.773 5.836 8.629 5.363 8.441 4.899 8.211 4.434 7.934 3.976 7.617 3.535 7.258 3.102 6.86 2.687 6.421 2.293 5.95 1.926 5.44 1.582 4.907 1.262 4.34.976 3.742.723 3.133.504 2.492.316 1.84.168 1.176.059.5-.012-.18-.05-.863-.04-1.551v-2.227l.082-2.894.204-3.559.359-4.199.55-4.824.774-5.43 1.035-6.004 1.317-6.558 1.632-7.079 1.97-7.566 2.335-8.02 2.715-8.433 3.113-8.805 3.524-9.144 3.949-9.43 4.375-9.684 4.812-9.882 5.243-10.043 5.675-10.157 6.098-10.226 6.516-10.25 6.914-10.23 7.297-10.165 7.664-10.058 8.004-9.914 8.32-9.73 8.61-9.505 8.863-9.246 9.082-8.96 9.273-8.637 9.418-8.29 9.527-7.921 9.598-7.524 9.617-7.117 9.602-6.688 9.539-6.253 9.43-5.81 9.277-5.355 9.082-4.91 8.84-4.457 8.558-4.015 8.227-3.582 7.863-3.16 7.453-2.754 7.008-2.368 6.524-2 6.011-1.656 5.469-1.344 4.89-1.054 4.294-.801 3.671-.578 3.032-.39 2.375-.235 1.703-.125 1.027-.043zm0 0" fill-rule="evenodd" fill="#fff" xmlns="http://www.w3.org/2000/svg"/><path d="M693.332 360l-.394-.004-1.184-.043-1.969-.11-2.746-.214-3.508-.348-4.254-.52-4.988-.718-5.695-.953-6.383-1.207-7.04-1.496-7.667-1.805-8.262-2.14-8.824-2.493-9.344-2.863-9.832-3.25-10.277-3.652-10.68-4.059-11.035-4.477-11.352-4.894-11.62-5.32-11.84-5.743-12.02-6.152-12.148-6.562-12.227-6.961-12.266-7.34-12.257-7.707-12.204-8.055-12.105-8.379-11.969-8.676-11.781-8.949-11.566-9.187-11.305-9.395-11.016-9.574-10.687-9.707-10.332-9.809-9.95-9.87-9.535-9.888-9.105-9.867-8.656-9.797-8.184-9.691-7.703-9.54-7.207-9.339-6.711-9.098-6.203-8.816-5.7-8.484-5.19-8.118-4.696-7.703-4.203-7.25-3.723-6.761-3.258-6.235-2.804-5.672-2.372-5.074-1.964-4.45-1.575-3.796-1.214-3.117-.88-2.414-.577-1.692-.301-.953-.059-.199.149.563.324 1.332.46 2.105.567 2.879.637 3.648.672 4.418.668 5.168.633 5.914.566 6.637.46 7.344.325 8.027.164 8.684-.031 9.316-.25 9.91-.496 10.477-.762 11.004-1.055 11.492-1.355 11.941-1.684 12.352-2.015 12.715-2.364 13.031-2.71 13.3-3.075 13.528-3.43 13.707-3.788 13.832-4.145 13.914-4.484 13.942-4.825 13.93-5.144 13.863-5.453 13.754-5.739 13.597-6.003 13.395-6.247 13.152-6.46 12.867-6.649 12.54-6.805 12.18-6.925 11.784-7.012 11.352-7.066 10.894-7.083 10.41-7.058 9.895-6.992 9.363-6.887 8.813-6.742 8.242-6.555 7.668-6.328 7.078-6.055 6.48-5.75 5.887-5.398 5.293-5.008 4.7-4.586 4.113-4.121 3.535-3.621 2.976-3.094 2.426-2.527 1.899-1.942 1.39-1.32.903-.683.445-.02.016.664-.391 1.356-.758 2.066-1.101 2.785-1.399 3.508-1.672 4.234-1.906 4.961-2.102 5.684-2.261 6.398-2.383 7.102-2.473 7.789-2.52 8.465-2.53 9.12-2.512 9.747-2.453 10.351-2.368 10.926-2.246 11.465-2.097 11.977-1.914 12.445-1.715 12.879-1.485 13.265-1.234 13.618-.96 13.918-.68 14.18-.38 14.386-.066 14.547.25 14.664.578 14.727.903 14.742 1.234 14.707 1.555 14.625 1.87 14.492 2.18 14.312 2.477 14.086 2.762 13.813 3.02 13.5 3.265 13.14 3.488 12.743 3.684 12.304 3.851 11.836 3.996 11.325 4.102 10.793 4.176 10.222 4.222 9.633 4.227 9.023 4.195 8.387 4.13 7.742 4.023 7.078 3.879 6.407 3.699 5.73 3.476 5.05 3.22 4.372 2.92 3.691 2.59 3.024 2.22 2.367 1.816 1.715 1.383 1.086.91.472.414-.12-.113-.684-.66-1.23-1.235-1.739-1.828-2.219-2.441-2.672-3.063-3.086-3.703-3.464-4.352-3.809-5-4.11-5.652-4.378-6.308-4.606-6.958-4.793-7.597-4.945-8.23-5.05-8.848-5.122-9.45-5.152-10.027-5.153-10.586-5.105-11.113-5.031-11.617-4.926-12.09-4.781-12.524-4.61-12.921-4.414-13.286-4.187-13.601-3.946-13.883-3.671-14.113-3.391-14.301-3.086-14.438-2.777-14.535-2.453-14.578-2.122-14.57-1.789-14.52-1.457-14.418-1.125-14.261-.796-14.063-.481-13.816-.168-13.52.121-13.18.402-12.796.665-12.371.898-11.903 1.113-11.398 1.301-10.86 1.465-10.285 1.598-9.68 1.695-9.046 1.765-8.39 1.801-7.708 1.801-7.008 1.766-6.297 1.691-5.562 1.586-4.832 1.445-4.086 1.262-3.34 1.043-2.594.797-1.855.508-1.121.191-.399-.16.309-.54 1.004-.952 1.676-1.387 2.324-1.848 2.945-2.336 3.547-2.835 4.11-3.36 4.644-3.894 5.148-4.442 5.606-5.004 6.035-5.562 6.422-6.13 6.77-6.698 7.074-7.258 7.335-7.817 7.563-8.359 7.738-8.898 7.88-9.414 7.972-9.91 8.027-10.391 8.043-10.84 8.02-11.266 7.953-11.656 7.851-12.02 7.715-12.347 7.551-12.633 7.344-12.883 7.117-13.09 6.86-13.253 6.577-13.372 6.278-13.449 5.953-13.476 5.613-13.461 5.258-13.39 4.898-13.274 4.528-13.118 4.152-12.902 3.777-12.644 3.399-12.344 3.031-11.992 2.664-11.598 2.309-11.164 1.969-10.684 1.644-10.168 1.336-9.613 1.047-9.027.785-8.403.543-7.75.332-7.074.145-6.367-.008-5.645-.133-4.902-.223-4.144-.277-3.38-.305-2.597-.289-1.816-.242-1.036-.16-.25-.043.524.105 1.293.293 2.047.512 2.785.758 3.512 1.043 4.21 1.348 4.887 1.687 5.54 2.043 6.156 2.434 6.746 2.836 7.3 3.257 7.817 3.7 8.297 4.152 8.734 4.613 9.137 5.086 9.488 5.563 9.805 6.035 10.07 6.511 10.293 6.98 10.473 7.446 10.605 7.899 10.696 8.332 10.738 8.758 10.738 9.156 10.7 9.535 10.613 9.89 10.492 10.215 10.328 10.508 10.129 10.774 9.898 10.996 9.63 11.187 9.335 11.34 9.008 11.445 8.656 11.52 8.29 11.539 7.894 11.523 7.484 11.457 7.063 11.348 6.625 11.192 6.187 10.992 5.738 10.742 5.293 10.453 4.844 10.113 4.402 9.735 3.965 9.308 3.54 8.848 3.128 8.344 2.73 7.804 2.352 7.227 1.993 6.613 1.656 5.977 1.347 5.304 1.063 4.61.808 3.894.586 3.153.391 2.402.227 1.633.101.851.008.07-.05-.718-.075-1.508-.063-2.293-.019-3.07.062-3.84.176-4.598.32-5.336.497-6.05.703-6.75.941-7.418 1.203-8.063 1.489-8.672 1.796-9.25 2.125-9.789 2.477-10.293 2.836-10.754 3.215-11.175 3.597-11.551 3.993-11.887 4.386-12.176 4.786-12.414 5.183-12.61 5.574-12.753 5.957-12.855 6.332-12.907 6.692-12.914 7.031-12.87 7.356-12.786 7.656-12.656 7.933-12.485 8.18-12.27 8.399-12.019 8.59-11.726 8.738-11.399 8.859-11.043 8.938-10.648 8.976-10.235 8.977-9.792 8.937-9.329 8.856-8.84 8.73-8.34 8.563-7.827 8.347-7.305 8.094-6.77 7.797-6.238 7.457-5.7 7.074-5.163 6.656-4.64 6.196-4.118 5.695-3.61 5.164-3.113 4.602-2.636 3.996-2.18 3.375-1.742 2.718-1.328 2.04-.946 1.343-.586.621-.254-.109.04-.852.304-1.609.535-2.367.73-3.13.895-3.89 1.016-4.644 1.11-5.395 1.16-6.129 1.18-6.851 1.163-7.559 1.11-8.242 1.027-8.898.914-9.536.766-10.136.59-10.707.382-11.246.16-11.743-.093-12.199-.364-12.62-.656-12.993-.965-13.324-1.28-13.61-1.614-13.843-1.953-14.036-2.293-14.175-2.637-14.27-2.98-14.309-3.32-14.308-3.653-14.25-3.977-14.149-4.285-14.003-4.578-13.805-4.855-13.57-5.106-13.286-5.34-12.964-5.543-12.602-5.718-12.203-5.868-11.77-5.98-11.304-6.059-10.809-6.105-10.289-6.113-9.738-6.079-9.176-6.011-8.586-5.907-7.992-5.75-7.38-5.566-6.757-5.332-6.133-5.066-5.511-4.754-4.883-4.407-4.262-4.023-3.652-3.598-3.051-3.14-2.461-2.649-1.89-2.125-1.337-1.57-.808-.992-.301-.383.18.242.629.89 1.05 1.56 1.442 2.238 1.797 2.93 2.113 3.624 2.402 4.332 2.645 5.036 2.86 5.738 3.03 6.437 3.165 7.125 3.265 7.805 3.324 8.465 3.348 9.113 3.332 9.73 3.29 10.333 3.206 10.902 3.094 11.445 2.953 11.953 2.777 12.426 2.582 12.86 2.36 13.254 2.113 13.609 1.848 13.922 1.566 14.183 1.274 14.407.96 14.574.649 14.695.324 14.774v14.796l-.324 14.774-.649 14.695-.96 14.574-1.274 14.407-1.566 14.183-1.848 13.922-2.113 13.61-2.36 13.253-2.582 12.86-2.777 12.426-2.953 11.953-3.094 11.445-3.207 10.902-3.289 10.332-3.332 9.73-3.348 9.114-3.324 8.465-3.266 7.805-3.164 7.125-3.03 6.437-2.86 5.738-2.645 5.036-2.402 4.332-2.113 3.625-1.797 2.93-1.442 2.238-1.05 1.558-.63.89-.179.243.3-.383.81-.992 1.335-1.57 1.89-2.125 2.462-2.649 3.05-3.14 3.653-3.598 4.262-4.023 4.883-4.407 5.511-4.754 6.133-5.066 6.758-5.332 7.379-5.566 7.992-5.75 8.586-5.907 9.176-6.011 9.738-6.079 10.289-6.113 10.809-6.105 11.304-6.059 11.77-5.98 12.203-5.868 12.602-5.718 12.964-5.543 13.286-5.34 13.57-5.106 13.805-4.855 14.003-4.578 14.149-4.285 14.25-3.977 14.308-3.652 14.31-3.32 14.269-2.981 14.175-2.637 14.036-2.293 13.843-1.953 13.61-1.613 13.324-1.281 12.992-.965 12.621-.656 12.2-.364 11.742-.094 11.246.16 10.707.383 10.136.59 9.536.766 8.898.914 8.242 1.027 7.559 1.11 6.851 1.164 6.13 1.18 5.394 1.16 4.644 1.109 3.89 1.016 3.13.894 2.367.73 1.61.536.851.304.11.04-.622-.254-1.343-.586-2.04-.946-2.718-1.328-3.375-1.742-3.996-2.18-4.602-2.636-5.164-3.114-5.695-3.609-6.196-4.117-6.656-4.64-7.074-5.165-7.457-5.7-7.797-6.237-8.094-6.77-8.347-7.305-8.563-7.828-8.73-8.34-8.856-8.84-8.937-9.328-8.977-9.793-8.976-10.234-8.938-10.648-8.86-11.043-8.738-11.399-8.59-11.726-8.398-12.02-8.18-12.27-7.933-12.484-7.656-12.656-7.356-12.785-7.031-12.871-6.692-12.914-6.332-12.907-5.957-12.855-5.574-12.754-5.183-12.61-4.786-12.413-4.386-12.176-3.993-11.887-3.597-11.55-3.215-11.176-2.836-10.754-2.477-10.293-2.125-9.79-1.796-9.25-1.489-8.671-1.203-8.063-.941-7.418-.703-6.75-.496-6.05-.32-5.336-.177-4.598-.062-3.84.02-3.07.062-2.293.074-1.508.051-.719-.008.07-.101.852-.227 1.633-.39 2.402-.587 3.153-.808 3.894-1.063 4.61-1.347 5.304-1.656 5.977-1.993 6.613-2.351 7.227-2.73 7.804-3.13 8.344-3.539 8.848-3.965 9.308-4.402 9.735-4.844 10.113-5.293 10.453-5.738 10.742-6.187 10.992-6.625 11.192-7.063 11.348-7.484 11.457-7.895 11.523-8.289 11.54-8.656 11.519-9.008 11.445-9.336 11.34-9.629 11.187-9.898 10.996-10.13 10.774-10.327 10.508-10.492 10.214-10.614 9.891-10.699 9.535-10.738 9.156-10.738 8.758-10.696 8.332-10.605 7.899-10.473 7.445-10.293 6.98-10.07 6.512-9.805 6.035-9.488 5.563-9.137 5.086-8.734 4.613-8.297 4.152-7.817 3.7-7.3 3.257-6.746 2.836-6.157 2.434-5.539 2.043-4.886 1.688-4.211 1.347-3.512 1.043-2.785.758-2.047.512-1.293.293-.524.105.25-.043 1.036-.16 1.816-.242 2.598-.29 3.379-.304 4.144-.277 4.902-.223 5.645-.133 6.367-.008 7.074.145 7.75.332 8.403.543 9.027.785 9.613 1.047 10.168 1.336 10.684 1.644 11.164 1.97 11.598 2.308 11.992 2.664 12.344 3.031 12.644 3.399 12.902 3.777 13.118 4.152 13.273 4.528 13.39 4.898 13.462 5.258 13.476 5.613 13.45 5.953 13.37 6.278 13.254 6.578 13.09 6.86 12.883 7.116 12.633 7.344 12.348 7.55 12.02 7.716 11.655 7.851 11.266 7.953 10.84 8.02 10.39 8.043 9.91 8.027 9.415 7.973 8.898 7.879 8.36 7.738 7.816 7.563 7.258 7.335 6.699 7.075 6.129 6.77 5.562 6.421 5.004 6.035 4.442 5.606 3.894 5.148 3.36 4.645 2.835 4.109 2.336 3.547 1.848 2.945 1.387 2.324.953 1.676.539 1.004.16.309-.191-.399-.508-1.12-.797-1.856-1.043-2.594-1.262-3.34-1.445-4.086-1.586-4.832-1.691-5.562-1.766-6.297-1.8-7.008-1.801-7.707-1.766-8.39-1.695-9.048-1.598-9.68-1.465-10.284-1.3-10.86-1.114-11.398-.898-11.903-.664-12.37-.403-12.798-.12-13.18.167-13.519.48-13.816.797-14.063 1.125-14.261 1.457-14.418 1.79-14.52 2.12-14.57 2.454-14.578 2.777-14.535 3.086-14.438 3.39-14.3 3.672-14.114 3.946-13.883 4.187-13.601 4.414-13.286 4.61-12.921 4.781-12.524 4.926-12.09 5.031-11.617 5.105-11.113 5.153-10.586 5.152-10.027 5.121-9.45 5.051-8.847 4.945-8.23 4.793-7.598 4.606-6.958 4.379-6.308 4.11-5.652 3.808-5 3.465-4.352 3.085-3.703 2.672-3.063 2.22-2.441 1.737-1.828 1.23-1.235.684-.66.121-.113-.472.414-1.086.91-1.715 1.383-2.367 1.816-3.024 2.22-3.691 2.59-4.371 2.92-5.05 3.22-5.731 3.476-6.407 3.7-7.078 3.878-7.742 4.024-8.387 4.129-9.023 4.195-9.633 4.227-10.222 4.222-10.793 4.176-11.325 4.102-11.836 3.996-12.304 3.851-12.743 3.684-13.14 3.488-13.5 3.266-13.813 3.02-14.086 2.761-14.312 2.477-14.492 2.18-14.625 1.87-14.707 1.555-14.742 1.234-14.727.903-14.664.578-14.547.25-14.387-.067-14.18-.378-13.917-.68-13.618-.961-13.265-1.234-12.88-1.485-12.444-1.715-11.977-1.914-11.465-2.097-10.926-2.246-10.351-2.368-9.746-2.453-9.121-2.512-8.465-2.53-7.79-2.52-7.1-2.473-6.4-2.383-5.683-2.261-4.96-2.102-4.235-1.906-3.508-1.672-2.785-1.399-2.067-1.101-1.355-.758-.664-.39.02.015.683.445 1.32.903 1.942 1.39 2.527 1.899 3.094 2.426 3.621 2.976 4.121 3.535 4.586 4.114 5.008 4.699 5.398 5.293 5.75 5.886 6.055 6.48 6.328 7.079 6.555 7.668 6.742 8.242 6.887 8.813 6.992 9.363 7.058 9.894 7.083 10.41 7.066 10.895 7.012 11.352 6.925 11.785 6.805 12.18 6.649 12.539 6.46 12.867 6.247 13.152 6.003 13.395 5.739 13.597 5.453 13.754 5.144 13.864 4.825 13.93 4.484 13.94 4.145 13.915 3.789 13.832 3.43 13.707 3.074 13.527 2.71 13.3 2.364 13.032 2.015 12.715 1.684 12.352 1.355 11.941 1.055 11.492.762 11.004.496 10.477.25 9.91.031 9.316-.164 8.684-.324 8.027-.461 7.344-.566 6.637-.633 5.914-.668 5.168-.672 4.418-.637 3.648-.566 2.879-.461 2.105-.324 1.332-.149.563.059-.2.3-.952.579-1.692.879-2.414 1.214-3.117 1.575-3.797 1.964-4.45 2.372-5.073 2.804-5.672 3.258-6.235 3.723-6.761 4.203-7.25 4.695-7.703 5.192-8.118 5.699-8.484 6.203-8.816 6.71-9.098 7.208-9.34 7.703-9.539 8.184-9.691 8.656-9.797 9.105-9.867 9.535-9.887 9.95-9.871 10.332-9.809 10.687-9.707 11.016-9.574 11.305-9.395 11.566-9.187 11.781-8.95 11.969-8.675 12.105-8.38 12.204-8.054 12.257-7.707 12.266-7.34 12.227-6.96 12.148-6.563 12.02-6.152 11.84-5.743 11.62-5.32 11.352-4.894 11.035-4.477 10.68-4.059 10.277-3.652 9.832-3.25 9.344-2.863 8.824-2.492 8.262-2.141 7.668-1.805 7.039-1.496 6.383-1.207 5.695-.953 4.988-.719 4.254-.52 3.508-.347 2.746-.215 1.969-.11 1.183-.042zm0 0" fill-rule="evenodd" fill="#1874cd" xmlns="http://www.w3.org/2000/svg"/><path d="M693.332 360l-.434-.004-1.304-.031-2.168-.086-3.02-.168-3.87-.277-4.7-.407-5.512-.566-6.308-.75-7.082-.953-7.829-1.18-8.546-1.426-9.235-1.687-9.89-1.973-10.512-2.265-11.094-2.575-11.644-2.894-12.145-3.227-12.61-3.558-13.027-3.903-13.398-4.242-13.73-4.586-14.012-4.926-14.246-5.261-14.434-5.594-14.574-5.906-14.664-6.22-14.707-6.507-14.703-6.789-14.653-7.043-14.558-7.281-14.414-7.496-14.23-7.688-14-7.851-13.731-7.985-13.422-8.09-13.074-8.164-12.692-8.203-12.273-8.21-11.825-8.184-11.347-8.117-10.844-8.02-10.312-7.879-9.762-7.707-9.192-7.492-8.601-7.238-8-6.953-7.387-6.625-6.77-6.262-6.136-5.867-5.512-5.43-4.879-4.961-4.25-4.465-3.629-3.93-3.015-3.37-2.41-2.778-1.817-2.164-1.242-1.527-.68-.864-.14-.183.379.515.875 1.23 1.343 1.954 1.79 2.687 2.206 3.426 2.598 4.172 2.95 4.918 3.28 5.66 3.57 6.399 3.837 7.125 4.062 7.847 4.262 8.551 4.426 9.242 4.55 9.91 4.653 10.559 4.719 11.176 4.75 11.773 4.758 12.34 4.726 12.867 4.676 13.367 4.594 13.825 4.484 14.246 4.352 14.625 4.199 14.96 4.023 15.259 3.828 15.5 3.618 15.703 3.39 15.855 3.152 15.957 2.903 16.016 2.64 16.015 2.38 15.973 2.109 15.875 1.84 15.73 1.57 15.54 1.3 15.289 1.04 15 .785 14.66.539 14.273.305 13.844.086 13.367-.122 12.856-.308 12.297-.477 11.707-.629 11.078-.753 10.414-.856 9.722-.937 9.004-.993 8.254-1.015 7.489-1.02 6.695-.988 5.89-.934 5.07-.851 4.243-.735 3.398-.597 2.555-.426 1.711-.23.867-.008.024.246-.809.52-1.629.82-2.441 1.144-3.23 1.488-4.009 1.852-4.761 2.238-5.489 2.637-6.187 3.05-6.863 3.477-7.504 3.918-8.11 4.364-8.687 4.816-9.223 5.27-9.719 5.73-10.18 6.184-10.593 6.636-10.973 7.086-11.304 7.52-11.594 7.949-11.836 8.363-12.04 8.754-12.198 9.137-12.309 9.492-12.383 9.824-12.406 10.137-12.39 10.414-12.333 10.664-12.23 10.887-12.098 11.07-11.922 11.219-11.707 11.34-11.46 11.41-11.184 11.453-10.871 11.445-10.531 11.407-10.168 11.316-9.774 11.191-9.363 11.024-8.93 10.808-8.476 10.555-8.016 10.258-7.535 9.914-7.051 9.54-6.555 9.112-6.058 8.653-5.559 8.156-5.055 7.621-4.562 7.047-4.07 6.441-3.586 5.805-3.114 5.14-2.652 4.442-2.207 3.723-1.777 2.984-1.368 2.215-.972 1.437-.606.641-.257-.168.062-.984.36-1.809.628-2.637.868-3.464 1.085-4.286 1.266-5.109 1.426-5.918 1.547-6.715 1.648-7.496 1.711-8.262 1.754-9.007 1.762-9.727 1.746-10.422 1.703-11.09 1.633-11.718 1.535-12.32 1.422-12.887 1.281-13.41 1.117-13.895.942-14.336.742-14.738.535-15.09.309-15.399.07-15.656-.172-15.867-.426-16.027-.68-16.137-.94-16.2-1.2-16.21-1.457-16.172-1.711-16.082-1.953-15.942-2.195-15.75-2.422-15.515-2.633-15.235-2.836-14.902-3.016-14.531-3.18-14.113-3.32-13.657-3.441-13.16-3.535-12.625-3.61-12.059-3.648-11.46-3.668-10.829-3.652-10.168-3.61-9.488-3.539-8.781-3.433-8.063-3.293-7.316-3.13-6.566-2.929-5.805-2.7-5.031-2.437-4.258-2.144-3.477-1.824-2.707-1.47-1.933-1.093-1.168-.684-.418-.25.324.207 1.05.684 1.759 1.184 2.441 1.703 3.105 2.238 3.743 2.79 4.355 3.35 4.938 3.923 5.488 4.503 6.004 5.09 6.488 5.676 6.938 6.262 7.347 6.847 7.723 7.426 8.062 8 8.356 8.559 8.617 9.101 8.832 9.633 9.012 10.149 9.156 10.632 9.254 11.102 9.316 11.54 9.344 11.948 9.328 12.332 9.285 12.676 9.2 12.988 9.086 13.262 8.937 13.496 8.762 13.696 8.554 13.843 8.325 13.957 8.066 14.024 7.79 14.047 7.487 14.02 7.172 13.948 6.84 13.832 6.492 13.668 6.133 13.457 5.77 13.2 5.394 12.894 5.02 12.547 4.644 12.156 4.262 11.715 3.894 11.238 3.524 10.715 3.164 10.157 2.813 9.558 2.476 8.926 2.149 8.258 1.843 7.558 1.555 6.832 1.281 6.078 1.028 5.301.804 4.5.594 3.68.418 2.848.258 2 .133 1.14.027.281-.047-.586-.094-1.453-.117-2.32-.11-3.176-.074-4.027-.011-4.863.07-5.688.188-6.492.32-7.273.48-8.036.664-8.77.868-9.472 1.09-10.148 1.332-10.785 1.585-11.391 1.86-11.953 2.14-12.485 2.434-12.964 2.734-13.407 3.043-13.8 3.356-14.153 3.668-14.457 3.98-14.715 4.29-14.921 4.593-15.079 4.887-15.191 5.176-15.254 5.449-15.266 5.707-15.23 5.95-15.148 6.17-15.02 6.376-14.844 6.555-14.62 6.707-14.36 6.84-14.055 6.937-13.707 7.008-13.324 7.05-12.902 7.055-12.45 7.032-11.957 6.968-11.445 6.875-10.899 6.746-10.328 6.582-9.734 6.375-9.125 6.141-8.496 5.863-7.852 5.555-7.203 5.21-6.535 4.83-5.867 4.417-5.2 3.969-4.527 3.492-3.86 2.984-3.194 2.45-2.54 1.886-1.898 1.301-1.266.688-.652.054-.05-.593.523-1.262 1.082-1.942 1.613-2.632 2.117-3.332 2.594-4.04 3.047-4.75 3.465-5.457 3.851-6.168 4.211-6.867 4.532-7.558 4.816-8.242 5.074-8.91 5.293-9.563 5.48-10.192 5.63-10.8 5.75-11.387 5.828-11.941 5.879-12.47 5.898-12.96 5.883-13.422 5.84-13.844 5.765-14.222 5.664-14.57 5.535-14.868 5.387-15.125 5.207-15.336 5.016-15.5 4.8-15.617 4.57-15.688 4.321-15.703 4.063-15.675 3.793-15.598 3.515-15.469 3.235-15.289 2.945-15.062 2.656-14.786 2.367-14.464 2.086-14.094 1.805-13.68 1.535-13.219 1.27-12.718 1.023-12.18.79-11.594.566-10.976.363-10.32.18-9.637.015-8.922-.125-8.18-.246-7.414-.336-6.621-.406-5.813-.445-4.988-.465-4.152-.45-3.301-.413-2.45-.344-1.593-.246-.73-.125.125.023.976.203 1.82.403 2.653.636 3.468.887 4.266 1.16 5.047 1.461 5.8 1.777 6.536 2.118 7.234 2.468 7.91 2.836 8.551 3.22 9.153 3.612 9.726 4.016 10.254 4.426 10.75 4.84 11.195 5.254 11.606 5.668 11.972 6.085 12.29 6.493 12.57 6.89 12.797 7.282 12.98 7.66 13.121 8.023 13.22 8.371 13.265 8.696 13.27 8.996 13.23 9.28 13.148 9.536 13.024 9.758 12.859 9.957 12.656 10.121 12.414 10.25 12.133 10.348 11.824 10.406 11.48 10.426 11.11 10.414 10.703 10.355 10.278 10.262 9.828 10.121 9.355 9.95 8.863 9.726 8.364 9.469 7.84 9.168 7.316 8.828 6.777 8.445 6.235 8.027 5.695 7.57 5.148 7.079 4.606 6.543 4.074 5.984 3.543 5.387 3.024 4.758 2.52 4.101 2.026 3.422 1.555 2.719 1.094 1.988.66 1.238.246.48-.148-.3-.508-1.086-.852-1.887-1.164-2.683-1.445-3.492-1.703-4.293-1.926-5.094-2.121-5.89-2.285-6.673-2.418-7.441-2.524-8.2-2.597-8.933-2.64-9.648-2.661-10.34-2.64-11.008-2.606-11.637-2.535-12.242-2.446-12.808-2.332-13.34-2.191-13.832-2.035-14.285-1.856-14.696-1.664-15.058-1.457-15.375-1.23-15.653-1-15.875-.758-16.047-.508-16.175-.258-16.254v-16.274l.258-16.254.508-16.175.758-16.047 1-15.875 1.23-15.653 1.457-15.375 1.664-15.058 1.856-14.696 2.035-14.285 2.191-13.832 2.332-13.34 2.446-12.808 2.535-12.242 2.605-11.637 2.64-11.008 2.661-10.34 2.64-9.648 2.598-8.934 2.524-8.199 2.418-7.441 2.285-6.672 2.121-5.89 1.926-5.095 1.703-4.293 1.445-3.492 1.164-2.683.852-1.887.508-1.086.148-.3-.246.48-.66 1.238-1.094 1.988-1.555 2.719-2.027 3.422-2.52 4.101-3.023 4.758-3.543 5.387-4.074 5.984-4.606 6.543-5.148 7.078-5.695 7.57-6.235 8.028-6.777 8.445-7.316 8.828-7.84 9.168-8.364 9.47-8.863 9.726-9.355 9.949-9.828 10.121-10.278 10.262-10.703 10.355-11.11 10.414-11.48 10.426-11.824 10.406-12.133 10.348-12.414 10.25-12.656 10.121-12.86 9.957-13.023 9.758-13.148 9.535-13.23 9.281-13.27 8.996-13.266 8.696-13.219 8.37-13.12 8.024-12.981 7.66-12.797 7.282-12.57 6.89-12.29 6.493-11.972 6.085-11.606 5.668-11.195 5.254-10.75 4.84-10.254 4.426-9.726 4.016-9.153 3.613-8.55 3.219-7.91 2.836-7.235 2.468-6.535 2.118-5.801 1.777-5.047 1.46-4.266 1.16-3.468.888-2.653.636-1.82.403-.976.203-.125.023.73-.125 1.594-.246 2.449-.344 3.3-.414 4.153-.449 4.988-.465 5.813-.445 6.621-.406 7.414-.336 8.18-.246 8.922-.125 9.636.015 10.32.18 10.977.363 11.594.567 12.18.789 12.718 1.023 13.22 1.27 13.679 1.535 14.094 1.805 14.464 2.086 14.786 2.367 15.062 2.656 15.29 2.945 15.468 3.235 15.598 3.515 15.675 3.793 15.703 4.063 15.688 4.32 15.617 4.57 15.5 4.801 15.336 5.016 15.125 5.207 14.867 5.387 14.57 5.535 14.223 5.664 13.844 5.765 13.422 5.84 12.96 5.883 12.47 5.898 11.94 5.88 11.388 5.827 10.8 5.75 10.192 5.63 9.562 5.48 8.91 5.293 8.243 5.074 7.558 4.816 6.867 4.532 6.168 4.21 5.457 3.852 4.75 3.465 4.04 3.047 3.332 2.594 2.632 2.117 1.942 1.613 1.261 1.082.594.524-.054-.051-.688-.653-1.3-1.265-1.887-1.899-2.45-2.539-2.984-3.195-3.492-3.86-3.969-4.527-4.418-5.199-4.828-5.867-5.211-6.535-5.555-7.203-5.863-7.852-6.14-8.496-6.376-9.125-6.582-9.734-6.746-10.329-6.875-10.898-6.968-11.445-7.032-11.957-7.054-12.45-7.051-12.902-7.008-13.324-6.938-13.707-6.84-14.055-6.706-14.36-6.555-14.62-6.375-14.844-6.172-15.02-5.95-15.148-5.706-15.23-5.45-15.266-5.175-15.254-4.887-15.191-4.594-15.079-4.289-14.921-3.98-14.715-3.668-14.457-3.356-14.153-3.043-13.8-2.734-13.407-2.434-12.964-2.14-12.485-1.86-11.953-1.586-11.39-1.332-10.786-1.09-10.148-.867-9.473-.664-8.77-.48-8.035-.32-7.273-.188-6.492-.07-5.688.012-4.863.074-4.027.11-3.176.116-2.32.094-1.453.047-.586-.027.28-.133 1.141-.258 2-.418 2.848-.594 3.68-.804 4.5-1.028 5.3-1.281 6.079-1.555 6.832-1.844 7.558-2.148 8.258-2.476 8.926-2.813 9.558-3.164 10.157-3.524 10.715-3.894 11.238-4.262 11.715-4.644 12.156-5.02 12.547-5.394 12.894-5.77 13.2-6.133 13.457-6.492 13.668-6.84 13.832-7.172 13.949-7.488 14.02-7.789 14.046-8.066 14.024-8.325 13.957-8.554 13.843-8.762 13.696-8.937 13.496-9.086 13.262-9.2 12.988-9.285 12.676-9.328 12.332-9.344 11.949-9.316 11.539-9.254 11.102-9.156 10.632-9.012 10.149-8.832 9.633-8.617 9.101-8.356 8.559-8.062 8-7.723 7.426-7.347 6.847-6.938 6.262-6.488 5.676-6.004 5.09-5.488 4.503-4.938 3.922-4.355 3.352-3.743 2.789-3.105 2.238-2.441 1.703-1.758 1.184-1.051.684-.324.207.418-.25 1.168-.684 1.933-1.094 2.707-1.469 3.477-1.824 4.258-2.144 5.03-2.438 5.806-2.699 6.566-2.93 7.316-3.129 8.063-3.293 8.781-3.433 9.488-3.54 10.168-3.609 10.829-3.652 11.46-3.668 12.06-3.648 12.624-3.61 13.16-3.535 13.656-3.441 14.114-3.32 14.531-3.18 14.902-3.016 15.235-2.836 15.515-2.633 15.75-2.422 15.942-2.195 16.082-1.953 16.172-1.71 16.21-1.458 16.2-1.2 16.137-.94 16.027-.68 15.867-.426 15.656-.172 15.399.07 15.09.309 14.738.535 14.336.742 13.894.942 13.41 1.117 12.887 1.281 12.32 1.422 11.72 1.535 11.09 1.633 10.421 1.703 9.727 1.746 9.007 1.762 8.262 1.754 7.496 1.71 6.715 1.65 5.918 1.546 5.11 1.426 4.285 1.266 3.464 1.085 2.637.868 1.809.629.984.359.168.062-.64-.257-1.438-.606-2.215-.973-2.984-1.367-3.723-1.777-4.441-2.207-5.141-2.652-5.805-3.114-6.441-3.586-7.047-4.07-7.621-4.562-8.156-5.055-8.653-5.559-9.113-6.058-9.539-6.555-9.914-7.05-10.258-7.536-10.555-8.016-10.808-8.476-11.024-8.93-11.191-9.363-11.316-9.774-11.407-10.168-11.445-10.53-11.453-10.872-11.41-11.183-11.34-11.461-11.219-11.707-11.07-11.922-10.887-12.098-10.664-12.23-10.414-12.332-10.137-12.391-9.824-12.406-9.492-12.383-9.137-12.309-8.754-12.199-8.363-12.039-7.95-11.836-7.519-11.594-7.086-11.304-6.636-10.973-6.184-10.594-5.73-10.18-5.27-9.718-4.816-9.223-4.364-8.687-3.918-8.11-3.476-7.504-3.051-6.863-2.637-6.187-2.238-5.489-1.852-4.761-1.488-4.008-1.144-3.23-.82-2.442-.52-1.629-.246-.809.007.024.231.867.426 1.71.597 2.556.735 3.398.851 4.242.934 5.07.988 5.891 1.02 6.696 1.015 7.488.993 8.254.937 9.004.856 9.722.753 10.414.63 11.078.476 11.707.308 12.297.122 12.856-.086 13.367-.305 13.844-.54 14.273-.784 14.66-1.04 15-1.3 15.29-1.57 15.538-1.84 15.73-2.11 15.876-2.379 15.973-2.64 16.015-2.902 16.016-3.153 15.957-3.39 15.855-3.618 15.703-3.828 15.5-4.023 15.258-4.2 14.961-4.351 14.625-4.484 14.246-4.594 13.825-4.676 13.367-4.726 12.867-4.758 12.34-4.75 11.773-4.719 11.176-4.652 10.559-4.551 9.91-4.426 9.242-4.262 8.55-4.062 7.848-3.836 7.125-3.57 6.399-3.282 5.66-2.949 4.918-2.598 4.172-2.207 3.426-1.789 2.687-1.343 1.953-.875 1.23-.38.516.141-.183.68-.864 1.242-1.527 1.817-2.164 2.41-2.777 3.015-3.371 3.63-3.93 4.25-4.465 4.878-4.96 5.512-5.43 6.137-5.868 6.77-6.261 7.386-6.625 8-6.954 8.601-7.238 9.192-7.492 9.762-7.707 10.312-7.879 10.844-8.02 11.348-8.117 11.824-8.183 12.273-8.211 12.692-8.203 13.074-8.164 13.422-8.09 13.73-7.985 14-7.851 14.23-7.688 14.415-7.496 14.558-7.281 14.653-7.043 14.703-6.79 14.707-6.507 14.664-6.219 14.574-5.906 14.434-5.594 14.246-5.261 14.011-4.926 13.73-4.586 13.4-4.242 13.027-3.903 12.61-3.558 12.144-3.227 11.644-2.894 11.094-2.575 10.512-2.265 9.89-1.973 9.235-1.687 8.546-1.426 7.829-1.18 7.082-.953 6.308-.75 5.512-.566 4.7-.407 3.87-.277 3.02-.168 2.168-.086 1.304-.031zm0 0" fill-rule="evenodd" fill="#fff" xmlns="http://www.w3.org/2000/svg"/><path d="M693.332 360l-.46-.004-1.384-.02-2.297-.054-3.21-.106-4.11-.175-4.996-.262-5.867-.36-6.723-.476-7.55-.61-8.364-.75-9.144-.91-9.899-1.078-10.621-1.261-11.312-1.45-11.97-1.648-12.59-1.852-13.163-2.066-13.707-2.285-14.207-2.504-14.656-2.73-15.067-2.95-15.43-3.176-15.746-3.394-16.015-3.61-16.235-3.82-16.406-4.023-16.527-4.223-16.602-4.406-16.625-4.578-16.597-4.746-16.524-4.887-16.402-5.024-16.23-5.14-16.012-5.235-15.747-5.316-15.44-5.371-15.087-5.41-14.695-5.426-14.258-5.422-13.781-5.387-13.274-5.332-12.722-5.25-12.145-5.148-11.531-5.016-10.89-4.863-10.22-4.676-9.53-4.472-8.813-4.235-8.078-3.976-7.328-3.696-6.56-3.382-5.78-3.055-4.993-2.695-4.199-2.317-3.398-1.922-2.594-1.496-1.797-1.058-1-.602-.207-.129.574.363 1.344.864 2.102 1.379 2.847 1.906 3.57 2.437 4.274 2.98 4.957 3.524 5.617 4.075 6.25 4.62 6.852 5.172 7.43 5.715 7.972 6.254 8.485 6.785 8.964 7.309 9.41 7.824 9.82 8.317 10.192 8.8 10.528 9.266 10.824 9.71 11.082 10.134 11.305 10.531 11.488 10.906 11.633 11.254 11.734 11.574 11.805 11.86 11.836 12.117 11.824 12.336 11.781 12.527 11.7 12.68 11.585 12.793 11.438 12.871 11.254 12.91 11.039 12.91 10.8 12.867 10.524 12.786 10.227 12.664 9.898 12.5 9.555 12.297 9.18 12.05 8.788 11.766 8.375 11.441 7.954 11.075 7.507 10.671L460 579.582l6.59 9.75 6.113 9.234 5.637 8.684 5.148 8.102 4.66 7.488 4.168 6.844 3.68 6.171 3.195 5.47 2.715 4.75 2.235 4.003 1.77 3.238 1.312 2.454.867 1.656.43.847.015.024-.39-.805-.782-1.64-1.144-2.477-1.5-3.316-1.828-4.149-2.137-4.976-2.422-5.801-2.691-6.606-2.938-7.406-3.152-8.187-3.352-8.946-3.527-9.687-3.676-10.403-3.8-11.097-3.907-11.754-3.984-12.387-4.043-12.984-4.078-13.551-4.094-14.074-4.086-14.559-4.059-15.008-4.011-15.414-3.95-15.77-3.867-16.09-3.765-16.355-3.657-16.578-3.527-16.754-3.387-16.878-3.238-16.95-3.078-16.98-2.906-16.953-2.73-16.88-2.548-16.753-2.363-16.578-2.172-16.356-1.984-16.082-1.793-15.758-1.602-15.394-1.418-14.977-1.234-14.52-1.063-14.01-.89-13.474-.73-12.882-.579-12.262-.441-11.598-.309-10.902-.191-10.176-.09-9.418V67.11l.074-7.82.129-6.984.172-6.133.2-5.258.206-4.371.195-3.473.168-2.562.125-1.649.063-.73-.02.187-.117 1.106-.23 2.02-.36 2.921-.507 3.817-.668 4.695-.848 5.559-1.035 6.402-1.242 7.227-1.454 8.027-1.683 8.8-1.914 9.544-2.16 10.257-2.414 10.938-2.668 11.582-2.93 12.191-3.195 12.758-3.461 13.29-3.727 13.777-3.992 14.222-4.254 14.621-4.508 14.977-4.762 15.285-5 15.543-5.238 15.762-5.457 15.922-5.668 16.043-5.863 16.113-6.047 16.133-6.21 16.109-6.352 16.031-6.485 15.914-6.586 15.743-6.668 15.53-6.734 15.278-6.77 14.973-6.777 14.633-6.77 14.25-6.726 13.828-6.664 13.367-6.567 12.875-6.445 12.348-6.293 11.785-6.117 11.199-5.91 10.582-5.676 9.941-5.414 9.274-5.121 8.59-4.805 7.886-4.46 7.168-4.09 6.438-3.696 5.695-3.273 4.945-2.828 4.188-2.364 3.43-1.879 2.672-1.375 1.91-.847 1.16-.309.414.25-.324.816-1.047 1.395-1.762 1.984-2.457 2.582-3.133 3.18-3.793 3.79-4.43 4.394-5.038 5.004-5.63 5.601-6.187 6.203-6.719 6.79-7.218 7.374-7.692 7.942-8.129 8.496-8.535 9.031-8.91 9.555-9.242 10.054-9.543 10.532-9.813 10.984-10.039 11.41-10.234 11.809-10.395 12.18-10.515 12.511-10.598 12.817-10.652 13.082-10.668 13.316-10.649 13.512-10.597 13.664-10.512 13.785-10.395 13.856-10.25 13.89-10.07 13.883-9.867 13.832-9.637 13.738-9.383 13.602-9.101 13.422-8.797 13.199-8.473 12.934-8.132 12.625-7.778 12.277-7.398 11.883-7.012 11.453-6.613 10.98-6.203 10.473-5.786 9.926-5.363 9.347-4.937 8.727-4.504 8.082-4.074 7.406-3.649 6.696-3.219 5.964-2.8 5.203-2.383 4.426-1.977 3.625-1.578 2.813-1.191 1.976-.817 1.13-.457.28-.11-.585.224-1.45.535-2.316.828-3.184 1.11-4.047 1.362-4.906 1.606-5.75 1.82-6.586 2.016-7.406 2.191-8.207 2.344-8.992 2.477-9.754 2.59-10.488 2.675-11.196 2.746-11.87 2.793-12.52 2.82-13.13 2.833-13.706 2.816-14.239 2.79-14.738 2.741-15.195 2.68-15.602 2.598-15.972 2.507-16.29 2.399-16.562 2.277-16.789 2.153-16.965 2.007-17.09 1.864-17.164 1.707-17.195 1.543-17.164 1.379-17.09 1.21-16.965 1.043-16.789.872-16.558.703-16.29.539-15.96.379-15.594.218-15.176.075-14.71-.07-14.212-.2-13.664-.324-13.074-.43-12.453-.531-11.793-.61-11.094-.68-10.371-.734-9.613-.773-8.832-.793-8.02-.797-7.191-.781-6.344-.75-5.473-.703-4.597-.633-3.703-.543-2.801-.437-1.899-.317-.988-.176-.082-.011.828.16 1.723.355 2.617.567 3.496.789 4.363 1.027 5.211 1.277 6.04 1.543 6.847 1.82 7.633 2.102 8.39 2.399 9.118 2.699 9.816 3.008 10.477 3.316 11.109 3.633 11.703 3.95 12.254 4.269 12.77 4.578 13.246 4.89 13.671 5.2 14.063 5.496 14.402 5.789 14.7 6.07 14.953 6.336 15.16 6.598 15.312 6.836 15.43 7.062 15.492 7.266 15.512 7.457 15.48 7.625 15.41 7.77 15.29 7.89 15.125 7.988 14.918 8.059 14.671 8.105 14.38 8.121 14.046 8.11 13.68 8.07L465.03 485l12.832 7.898 12.36 7.774 11.855 7.61 11.317 7.417 10.757 7.196 10.168 6.94 9.555 6.661 8.926 6.344 8.277 6 7.61 5.625 6.93 5.226 6.234 4.797 5.539 4.34 4.828 3.863 4.12 3.356 3.407 2.832 2.695 2.281 1.985 1.715 1.281 1.125.586.527-.098-.093-.773-.723-1.434-1.36-2.078-2.011-2.703-2.664-3.309-3.324-3.89-3.989-4.453-4.648-4.992-5.305-5.497-5.96-5.984-6.606-6.434-7.242-6.859-7.872-7.254-8.48-7.613-9.074-7.945-9.653-8.243-10.207-8.504-10.742-8.734-11.246-8.933-11.726-9.098-12.18-9.227-12.602-9.324-12.988-9.387-13.34-9.422-13.656-9.418-13.938-9.39-14.18-9.328-14.378-9.239-14.54-9.117-14.655-8.976-14.73-8.801-14.763-8.61-14.746-8.386-14.687-8.149-14.586-7.886-14.434-7.61-14.242-7.308-14.004-7-13.719-6.672-13.394-6.34-13.024-5.988-12.609-5.633-12.156-5.274-11.66-4.902-11.125-4.535-10.555-4.16-9.945-3.79-9.301-3.421-8.63-3.055-7.92-2.691-7.188-2.34-6.426-1.992-5.637-1.656-4.832-1.333-4.004-1.02-3.156-.714-2.3-.43-1.427-.16-.547.094.34.332 1.23.55 2.122.755 3.012.937 3.898 1.098 4.773 1.242 5.641 1.367 6.496 1.473 7.332 1.555 8.153 1.625 8.953 1.664 9.726 1.695 10.477 1.703 11.195 1.692 11.883 1.664 12.539 1.62 13.16 1.563 13.742 1.488 14.285 1.399 14.79 1.297 15.246 1.187 15.664 1.059 16.035.926 16.355.785 16.633.637 16.856.48 17.035.324 17.16.164 17.238v17.266l-.164 17.238-.324 17.16-.48 17.035-.637 16.856-.785 16.633-.926 16.355-1.059 16.035-1.187 15.664-1.297 15.246-1.399 14.79-1.488 14.285-1.562 13.742-1.621 13.16-1.664 12.54-1.692 11.882-1.703 11.195-1.695 10.477-1.664 9.726-1.625 8.953-1.555 8.153-1.473 7.332-1.367 6.496-1.242 5.64-1.098 4.774-.937 3.898-.754 3.012-.551 2.121-.332 1.23-.094.34.16-.546.43-1.426.715-2.3 1.02-3.157 1.332-4.004 1.656-4.832 1.992-5.637 2.34-6.426 2.691-7.187 3.055-7.922 3.422-8.629 3.789-9.3 4.16-9.946 4.535-10.555 4.902-11.125 5.274-11.66 5.633-12.156 5.988-12.61 6.34-13.023 6.672-13.394 7-13.72 7.308-14.003 7.61-14.242 7.886-14.434 8.149-14.586 8.387-14.687 8.609-14.746 8.8-14.762 8.977-14.73 9.117-14.657 9.239-14.539 9.328-14.379 9.39-14.18 9.418-13.937 9.422-13.656 9.387-13.34 9.324-12.988 9.227-12.602 9.098-12.18 8.933-11.726 8.734-11.246 8.504-10.742 8.243-10.207 7.945-9.653 7.613-9.074 7.254-8.48 6.86-7.872 6.433-7.242 5.984-6.605 5.496-5.961 4.993-5.305 4.453-4.648 3.89-3.989 3.309-3.324 2.703-2.664 2.078-2.012 1.434-1.359.773-.723.098-.093-.586.527-1.281 1.125-1.985 1.715-2.695 2.281-3.406 2.832-4.121 3.356-4.828 3.863-5.54 4.34-6.234 4.797-6.93 5.226-7.609 5.625-8.277 6-8.926 6.344-9.555 6.66-10.168 6.941-10.757 7.196-11.317 7.418-11.855 7.61-12.36 7.773L465.031 235l-13.277 8.004-13.68 8.07-14.047 8.11-14.379 8.12-14.671 8.106-14.918 8.059-15.125 7.988-15.29 7.89-15.41 7.77-15.48 7.625-15.512 7.457-15.492 7.266-15.43 7.062-15.312 6.836-15.16 6.598-14.953 6.336-14.7 6.07-14.402 5.79-14.063 5.495-13.671 5.2-13.246 4.89-12.77 4.578-12.254 4.27-11.703 3.95-11.11 3.632-10.476 3.316-9.816 3.008-9.118 2.7-8.39 2.398-7.633 2.101-6.848 1.82-6.039 1.544-5.21 1.277-4.364 1.027-3.496.79-2.617.566-1.723.355-.828.16.082-.011.988-.176 1.899-.317 2.8-.437 3.704-.543 4.597-.633 5.473-.703 6.344-.75 7.191-.781 8.02-.797 8.832-.793 9.613-.773 10.371-.735 11.094-.68 11.793-.609 12.453-.531 13.074-.43 13.664-.324 14.211-.2 14.711-.07 15.176.075 15.594.218 15.96.38 16.29.538 16.558.703 16.79.872 16.964 1.043 17.09 1.21 17.164 1.38 17.195 1.542 17.164 1.707 17.09 1.864 16.965 2.007 16.79 2.153 16.562 2.277 16.289 2.399 15.972 2.507 15.602 2.598 15.195 2.68 14.738 2.742 14.239 2.789 13.707 2.816 13.129 2.832 12.52 2.82 11.87 2.794 11.196 2.746 10.488 2.676 9.754 2.59 8.992 2.476 8.207 2.344 7.406 2.191 6.586 2.016 5.75 1.82 4.906 1.606 4.047 1.363 3.184 1.11 2.316.827 1.45.536.586.222-.282-.11-1.129-.456-1.976-.817-2.813-1.191-3.625-1.578-4.426-1.977-5.203-2.383-5.964-2.8-6.696-3.22-7.406-3.648-8.082-4.074-8.727-4.504-9.347-4.937-9.926-5.363-10.473-5.786-10.98-6.203-11.453-6.613-11.883-7.012-12.277-7.398-12.625-7.777-12.934-8.133-13.2-8.473-13.421-8.797-13.602-9.101-13.738-9.383-13.832-9.637-13.883-9.867-13.89-10.07-13.856-10.25-13.785-10.395-13.664-10.512-13.512-10.597-13.316-10.649-13.082-10.668-12.817-10.652-12.511-10.598-12.18-10.515-11.809-10.395-11.41-10.234-10.984-10.04-10.531-9.812-10.055-9.543-9.555-9.242-9.031-8.91-8.496-8.535-7.942-8.13-7.375-7.69-6.789-7.22-6.203-6.718-5.601-6.188-5.004-5.629-4.395-5.039-3.789-4.43-3.18-3.792-2.582-3.133-1.984-2.457-1.394-1.762-.817-1.047-.25-.324.309.414.847 1.16 1.375 1.91 1.88 2.672 2.363 3.43 2.828 4.188 3.273 4.945 3.695 5.695 4.09 6.438 4.461 7.168 4.805 7.886 5.121 8.59 5.414 9.274 5.676 9.941 5.91 10.582 6.117 11.2 6.293 11.784 6.445 12.348 6.567 12.875 6.664 13.367 6.726 13.828 6.77 14.25 6.777 14.633 6.77 14.973 6.734 15.277 6.668 15.531 6.586 15.743 6.485 15.914 6.351 16.031 6.211 16.11 6.047 16.132 5.863 16.113 5.668 16.043 5.457 15.922 5.238 15.762 5 15.543 4.762 15.285 4.508 14.977 4.254 14.62 3.992 14.223 3.727 13.778 3.46 13.289 3.196 12.758 2.93 12.191 2.668 11.582 2.414 10.938 2.16 10.257 1.914 9.543 1.683 8.801 1.454 8.028 1.242 7.226 1.035 6.402.848 5.559.668 4.695.507 3.817.36 2.922.23 2.02.117 1.105.02.187-.063-.73-.125-1.649-.168-2.562-.195-3.473-.207-4.371-.2-5.258-.171-6.133-.129-6.984-.074-7.82v-8.633l.09-9.418.191-10.176.309-10.902.441-11.598.578-12.262.73-12.882.891-13.473 1.063-14.012 1.234-14.52 1.418-14.976 1.602-15.394 1.793-15.758 1.984-16.082 2.172-16.356 2.363-16.578 2.547-16.754 2.73-16.879 2.907-16.953 3.078-16.98 3.238-16.95 3.387-16.878 3.527-16.754 3.657-16.578 3.765-16.356 3.867-16.09 3.95-15.77 4.011-15.413 4.059-15.008 4.086-14.559 4.094-14.074 4.078-13.55 4.043-12.985 3.984-12.387 3.906-11.754 3.801-11.097 3.676-10.403 3.527-9.687 3.352-8.946 3.152-8.187 2.938-7.406 2.691-6.606 2.422-5.8 2.137-4.977 1.828-4.149 1.5-3.316 1.144-2.477.782-1.64.39-.805-.015.024-.43.847-.867 1.656-1.313 2.454-1.77 3.238-2.234 4.004-2.715 4.75-3.195 5.469-3.68 6.171-4.168 6.844-4.66 7.488-5.148 8.102-5.637 8.684-6.113 9.234-6.59 9.75-7.059 10.227-7.507 10.671-7.954 11.075-8.375 11.441-8.789 11.766-9.18 12.05-9.554 12.297-9.898 12.5-10.227 12.664-10.523 12.786-10.801 12.867-11.04 12.91-11.253 12.91-11.438 12.871-11.586 12.793-11.699 12.68-11.781 12.527-11.824 12.336-11.836 12.117-11.805 11.86-11.734 11.574-11.633 11.254-11.488 10.906-11.305 10.531-11.082 10.133-10.824 9.711-10.528 9.266-10.191 8.8-9.82 8.317-9.41 7.824-8.965 7.309-8.485 6.785-7.972 6.254-7.43 5.715-6.852 5.171-6.25 4.621-5.617 4.075-4.957 3.523-4.273 2.98-3.57 2.438-2.848 1.906-2.102 1.38-1.344.863-.574.363.207-.13 1-.6 1.797-1.06 2.594-1.495 3.398-1.922 4.2-2.317 4.992-2.695 5.78-3.055 6.56-3.382 7.328-3.696 8.078-3.976 8.812-4.235 9.532-4.472 10.218-4.676 10.89-4.863 11.532-5.016 12.145-5.148 12.722-5.25 13.274-5.332 13.781-5.387 14.258-5.422 14.695-5.426 15.086-5.41 15.442-5.371 15.746-5.317 16.011-5.234 16.23-5.14 16.403-5.024 16.524-4.887 16.597-4.746 16.625-4.578 16.602-4.406 16.527-4.223 16.406-4.023 16.235-3.82 16.015-3.61 15.746-3.394 15.43-3.176 15.067-2.95 14.656-2.73 14.207-2.504 13.707-2.285 13.164-2.066 12.59-1.852 11.969-1.648 11.312-1.45 10.621-1.261 9.899-1.078 9.144-.91 8.363-.75 7.551-.61 6.723-.477 5.867-.359 4.996-.262 4.11-.175 3.21-.106 2.297-.055 1.383-.02zm0 0" fill-rule="evenodd" fill="#1c86ee" xmlns="http://www.w3.org/2000/svg"/><path d="M693.332 360h-.473l-1.422-.008-2.367-.02-3.304-.034-4.227-.063-5.148-.086-6.043-.125-6.93-.164-7.79-.207-8.632-.262-9.45-.308-10.234-.371-10.992-.434-11.722-.5-12.41-.566-13.075-.637-13.691-.711-14.27-.785-14.808-.864-15.309-.94-15.758-1.017-16.168-1.093-16.523-1.172-16.84-1.25-17.105-1.32-17.32-1.391-17.485-1.461-17.602-1.524-17.664-1.59-17.68-1.644-17.644-1.695-17.555-1.746-17.418-1.785-17.234-1.825-16.996-1.851-16.707-1.871-16.379-1.89-16-1.895L199.383 323l-15.102-1.887-14.594-1.867-14.039-1.844-13.445-1.804-12.812-1.766-12.149-1.71-11.441-1.65-10.711-1.577-9.95-1.497-9.152-1.406-8.34-1.308-7.496-1.2-6.636-1.086-5.758-.957-4.86-.828-3.957-.683-3.035-.535-2.11-.38-1.183-.214-.246-.047.688.133 1.613.308 2.539.5 3.457.688 4.356.883 5.25 1.078 6.125 1.281 6.98 1.48 7.813 1.684 8.628 1.887 9.41 2.094 10.169 2.289 10.894 2.492 11.59 2.691 12.25 2.883 12.875 3.074 13.46 3.258 14.013 3.434 14.511 3.613 14.98 3.773 15.4 3.93 15.773 4.082 16.101 4.219 16.387 4.351 16.621 4.47 16.809 4.573 16.949 4.668 17.035 4.754 17.078 4.82 17.07 4.88 17.016 4.917 16.906 4.946 16.754 4.96 16.551 4.954 16.305 4.937 16.007 4.903 15.668 4.851 15.282 4.785 14.86 4.703 14.382 4.606 13.879 4.488 13.328 4.36 12.742 4.21 12.125 4.051 11.469 3.868 10.781 3.675 10.067 3.469 9.324 3.246 8.558 3.008 7.77 2.758 6.953 2.496 6.129 2.219 5.281 1.93 4.426 1.636 3.558 1.324 2.68 1.008 1.797.684.91.351.028.008-.86-.336-1.734-.684-2.61-1.039-3.472-1.394-4.32-1.754-5.157-2.11-5.976-2.468-6.774-2.82-7.554-3.176-8.305-3.52-9.04-3.867-9.734-4.2-10.406-4.527-11.047-4.847-11.652-5.156-12.223-5.457-12.754-5.743-13.254-6.015-13.707-6.274-14.125-6.52-14.496-6.745-14.828-6.957-15.117-7.153-15.363-7.324-15.559-7.48-15.715-7.618-15.82-7.726-15.887-7.824-15.902-7.891-15.871-7.941-15.797-7.965-15.68-7.969-15.515-7.941-15.305-7.903-15.055-7.828-14.765-7.738-14.426-7.617-14.05-7.477-13.642-7.312-13.183-7.122-12.7-6.914-12.171-6.675-11.621-6.418-11.032-6.14-10.414-5.837-9.77-5.52-9.097-5.175-8.406-4.817-7.688-4.441-6.953-4.043-6.203-3.633-5.433-3.203-4.653-2.766-3.863-2.312-3.063-1.848-2.257-1.37-1.453-.887-.641-.395.168.105.969.606 1.77 1.113 2.558 1.617 3.336 2.13 4.105 2.636 4.856 3.14 5.593 3.641 6.309 4.133 7 4.625 7.676 5.098 8.32 5.57 8.941 6.023 9.536 6.465 10.097 6.895 10.63 7.305 11.124 7.699 11.59 8.074 12.016 8.43 12.414 8.765 12.765 9.075 13.082 9.359 13.36 9.625 13.597 9.86 13.797 10.07 13.953 10.253 14.07 10.407 14.15 10.531 14.179 10.625 14.176 10.695 14.129 10.727 14.043 10.73 13.914 10.703 13.746 10.645 13.543 10.55 13.3 10.434 13.02 10.278 12.703 10.093 12.356 9.88 11.968 9.632 11.551 9.356 11.102 9.05 10.629 8.72 10.117 8.359 9.59 7.968 9.03 7.551 8.45 7.113 7.848 6.649 7.23 6.164 6.59 5.656 5.938 5.125 5.269 4.578 4.594 4.016 3.902 3.437 3.207 2.84 2.508 2.235 1.8 1.617 1.098.988.395.356-.309-.282-1.007-.926-1.696-1.57-2.375-2.215-3.047-2.855-3.703-3.496-4.347-4.125-4.973-4.754-5.582-5.367-6.172-5.97-6.738-6.562-7.285-7.136-7.801-7.692-8.297-8.234-8.766-8.75-9.207-9.25-9.613-9.723-9.996-10.168-10.344-10.593-10.66-10.985-10.945-11.348-11.196-11.68-11.414-11.984-11.593-12.25-11.743-12.488-11.859-12.683-11.934-12.852-11.976-12.98-11.985-13.07-11.96-13.122-11.899-13.14-11.809-13.122-11.675-13.058-11.52-12.965-11.324-12.824-11.102-12.656-10.847-12.442-10.563-12.195-10.25-11.91-9.914-11.59-9.547-11.23-9.156-10.844-8.746-10.422-8.305-9.965-7.851-9.477-7.375-8.957-6.883-8.414-6.375-7.844-5.848-7.242-5.312-6.62-4.762-5.977-4.207-5.313-3.645-4.625-3.07-3.93-2.496-3.21-1.918-2.485-1.336-1.746-.762-1-.187-.242.387.512.953 1.273 1.508 2.035 2.054 2.79 2.598 3.542 3.121 4.293 3.633 5.027 4.133 5.758 4.613 6.465 5.074 7.168 5.52 7.844 5.949 8.508 6.348 9.144 6.73 9.758 7.094 10.352 7.422 10.914 7.738 11.445 8.02 11.95 8.28 12.417 8.516 12.856 8.72 13.257 8.897 13.621 9.047 13.95 9.172 14.238 9.27 14.488 9.336 14.692 9.379 14.86 9.386 14.983 9.375 15.067 9.332 15.101L360 397.418l9.168 15.047 9.05 14.96 8.903 14.821 8.73 14.645 8.544 14.421 8.32 14.157 8.086 13.855 7.828 13.504 7.547 13.117 7.246 12.696 6.933 12.226 6.602 11.73 6.25 11.192 5.89 10.621 5.516 10.016 5.125 9.383 4.73 8.722 4.321 8.028 3.906 7.316 3.485 6.574 3.058 5.813 2.63 5.031 2.195 4.238 1.761 3.422 1.324 2.602.895 1.761.465.926.035.074-.383-.777-.797-1.625-1.203-2.476-1.605-3.32-1.989-4.157-2.367-4.984-2.734-5.801-3.086-6.606-3.422-7.386-3.75-8.157-4.055-8.898-4.347-9.621-4.625-10.32-4.883-10.985-5.125-11.625-5.344-12.23-5.547-12.805-5.73-13.34-5.895-13.844-6.035-14.308-6.164-14.73-6.266-15.11-6.351-15.453-6.414-15.746-6.457-15.996-6.48-16.204-6.485-16.363-6.473-16.476-6.437-16.543-6.383-16.563-6.313-16.531-6.226-16.457-6.121-16.332-5.996-16.16-5.86-15.946-5.707-15.68-5.539-15.366-5.36-15.016-5.163-14.617-4.957-14.172-4.742-13.692-4.512-13.168-4.277-12.605-4.032-12.008-3.777-11.367-3.52-10.7-3.25-10-2.98-9.265-2.711-8.504-2.43-7.722-2.152-6.91-1.871-6.079-1.594-5.226-1.312-4.364-1.04-3.48-.761-2.586-.488-1.687-.223-.778.035.133.293 1.047.547 1.96.785 2.868 1.016 3.77 1.246 4.66 1.46 5.543 1.669 6.406 1.867 7.258 2.05 8.082 2.223 8.894 2.39 9.676 2.544 10.43 2.68 11.16 2.812 11.86 2.926 12.519 3.027 13.148 3.121 13.742 3.2 14.297 3.261 14.809 3.32 15.277 3.36 15.707 3.387 16.094 3.406 16.43 3.41 16.719 3.406 16.964 3.39 17.16 3.36 17.31 3.325 17.401 3.273 17.45 3.219 17.449 3.152 17.394 3.078 17.29 2.992 17.14 2.907 16.934 2.804 16.687 2.707 16.387 2.594 16.039 2.48 15.648 2.364 15.207 2.238 14.727 2.117 14.203 1.985 13.637 1.855 13.027 1.727 12.387 1.593 11.707 1.461 10.996 1.329 10.246 1.199 9.469 1.066 8.668.942 7.84.816 6.984.695 6.113.578 5.22.465 4.316.352 3.394.25 2.461.148 1.527.055.586-.031-.363-.114-1.305-.191-2.25-.262-3.18-.324-4.109-.379-5.027-.43-5.926-.472-6.808-.508-7.68-.535-8.52-.559-9.34-.574-10.132-.582-10.899-.586-11.633-.582-12.336-.574-12.996-.555-13.629-.539-14.214-.508-14.766-.48-15.27-.446-15.734-.406-16.152-.363-16.524-.32-16.847-.27-17.125-.219-17.348-.164-17.527-.11-17.657-.058-17.73V351.12l.059-17.73.11-17.657.163-17.527.22-17.348.269-17.125.32-16.847.363-16.524.406-16.152.446-15.734.48-15.27.508-14.766.54-14.214.554-13.63.574-12.995.582-12.336.586-11.633.582-10.899.574-10.132.559-9.34.535-8.52.508-7.68.472-6.808.43-5.926.379-5.027.324-4.11.262-3.18.191-2.25.114-1.304.03-.363-.054.586-.148 1.527-.25 2.461-.352 3.395-.465 4.316-.578 5.219-.695 6.113-.816 6.984-.942 7.84-1.066 8.668-1.2 9.469-1.328 10.246-1.46 10.996-1.594 11.707-1.727 12.387-1.855 13.027-1.985 13.637-2.117 14.203-2.238 14.727-2.363 15.207-2.48 15.648-2.595 16.04-2.707 16.386-2.804 16.687-2.907 16.934-2.992 17.14-3.078 17.29-3.152 17.394-3.22 17.45-3.272 17.449-3.325 17.402-3.36 17.308-3.39 17.16-3.406 16.966-3.41 16.718-3.406 16.43-3.387 16.094-3.36 15.707-3.32 15.277-3.262 14.809-3.199 14.297-3.12 13.742-3.028 13.148-2.926 12.52-2.812 11.86-2.68 11.16-2.543 10.429-2.39 9.676-2.223 8.894-2.051 8.082-1.867 7.258-1.668 6.406-1.461 5.543-1.246 4.66-1.016 3.77-.785 2.867-.547 1.961-.293 1.047-.035.133.223-.778.488-1.687.762-2.586 1.039-3.48 1.312-4.364 1.594-5.226 1.87-6.078 2.153-6.91 2.43-7.723 2.71-8.504 2.981-9.266 3.25-10 3.52-10.699 3.777-11.367 4.031-12.008 4.278-12.605 4.512-13.168 4.742-13.692 4.957-14.172 5.164-14.617 5.36-15.016 5.538-15.367 5.707-15.68 5.86-15.945 5.996-16.16 6.12-16.332 6.227-16.457 6.313-16.531 6.383-16.563 6.437-16.543 6.473-16.476 6.484-16.363 6.48-16.204 6.458-15.996 6.414-15.746 6.351-15.453 6.266-15.11 6.164-14.73 6.035-14.308 5.895-13.844 5.73-13.34 5.547-12.805 5.344-12.23 5.125-11.625 4.883-10.984 4.625-10.32 4.347-9.622 4.055-8.898 3.75-8.157 3.422-7.386 3.086-6.606 2.734-5.8 2.367-4.985 1.989-4.156 1.605-3.32 1.203-2.477.797-1.625.383-.777-.035.074-.465.926-.895 1.761-1.324 2.602-1.762 3.422-2.195 4.238-2.629 5.031-3.058 5.813-3.485 6.574-3.906 7.316-4.32 8.028-4.73 8.722-5.126 9.383-5.515 10.016-5.891 10.62-6.25 11.192-6.602 11.73-6.933 12.227-7.246 12.696-7.547 13.117-7.828 13.504-8.086 13.855-8.32 14.156-8.543 14.422-8.73 14.645-8.903 14.82-9.051 14.961L360 322.582l-9.266 15.102-9.332 15.101-9.375 15.067-9.386 14.984-9.38 14.86-9.335 14.69-9.27 14.489-9.172 14.238-9.046 13.95-8.899 13.62-8.719 13.258-8.515 12.856-8.282 12.418-8.02 11.95-7.737 11.444-7.422 10.914-7.094 10.352-6.73 9.758-6.348 9.144-5.95 8.508-5.519 7.844-5.074 7.168-4.613 6.465-4.133 5.758-3.633 5.027-3.121 4.293-2.598 3.543-2.054 2.789-1.508 2.035-.953 1.273-.387.512.187-.242.762-1 1.336-1.746 1.918-2.484 2.496-3.211 3.07-3.93 3.645-4.625 4.207-5.313 4.762-5.976 5.312-6.621 5.848-7.242 6.375-7.844 6.883-8.414 7.375-8.957 7.851-9.477 8.305-9.965 8.746-10.422 9.156-10.843 9.547-11.23 9.914-11.59 10.25-11.91 10.563-12.196 10.847-12.442 11.102-12.656 11.324-12.824 11.52-12.965 11.675-13.058 11.81-13.122 11.897-13.14 11.961-13.121 11.985-13.07 11.976-12.981 11.934-12.852 11.86-12.683 11.742-12.488 11.593-12.25 11.414-11.985 11.196-11.68 10.945-11.347 10.66-10.985 10.344-10.593 9.996-10.168 9.613-9.723 9.207-9.25 8.766-8.75 8.297-8.234 7.8-7.692 7.286-7.136 6.738-6.563 6.172-5.969 5.582-5.367 4.973-4.754 4.347-4.125 3.703-3.496 3.047-2.855 2.375-2.215 1.696-1.57 1.007-.926.309-.281-.395.355-1.097.988-1.801 1.617-2.508 2.235-3.207 2.84-3.902 3.437-4.594 4.016-5.27 4.578-5.937 5.125-6.59 5.656-7.23 6.164-7.848 6.649-8.45 7.113-9.03 7.55-9.59 7.97-10.117 8.359-10.63 8.719-11.1 9.05-11.552 9.356-11.968 9.633-12.356 9.879-12.703 10.093-13.02 10.278-13.3 10.433-13.543 10.551-13.746 10.645-13.914 10.703-14.043 10.73-14.13 10.727-14.175 10.695-14.18 10.625-14.148 10.531-14.07 10.407-13.954 10.253-13.797 10.07-13.597 9.86-13.36 9.625-13.082 9.36-12.765 9.074-12.414 8.765-12.016 8.43-11.59 8.074-11.125 7.7-10.629 7.304-10.097 6.895-9.536 6.465-8.94 6.023-8.321 5.57-7.676 5.098-7 4.625-6.309 4.133-5.593 3.64-4.856 3.141-4.105 2.637-3.336 2.129-2.559 1.617-1.77 1.113-.968.606-.168.105.64-.394 1.454-.887 2.257-1.371 3.063-1.848 3.863-2.312 4.653-2.766 5.433-3.203 6.203-3.633 6.953-4.043 7.688-4.441 8.406-4.817 9.098-5.176 9.77-5.52 10.413-5.835 11.032-6.14 11.62-6.419 12.173-6.675 12.699-6.914 13.183-7.122 13.641-7.312 14.05-7.477 14.427-7.617 14.765-7.738 15.055-7.828 15.305-7.903 15.515-7.941 15.68-7.969 15.797-7.965 15.87-7.941 15.903-7.89 15.887-7.825 15.82-7.726 15.715-7.618 15.559-7.48 15.363-7.324 15.117-7.153 14.828-6.957 14.496-6.746 14.125-6.52 13.707-6.273 13.254-6.015 12.754-5.743 12.223-5.457 11.652-5.156 11.047-4.847 10.406-4.528 9.735-4.199 9.039-3.867 8.305-3.52 7.554-3.176 6.774-2.82 5.976-2.469 5.156-2.109 4.32-1.754 3.473-1.394 2.61-1.04 1.734-.683.86-.336-.028.008-.91.351-1.797.684-2.68 1.008-3.558 1.324-4.426 1.637-5.281 1.93-6.129 2.218-6.953 2.496-7.77 2.758-8.558 3.008-9.324 3.246-10.067 3.469-10.781 3.675-11.469 3.868-12.125 4.05-12.742 4.211-13.328 4.36-13.88 4.488-14.382 4.606-14.86 4.703-15.28 4.785-15.669 4.851-16.007 4.903-16.305 4.937-16.55 4.953-16.755 4.961-16.906 4.946-17.016 4.918-17.07 4.878-17.078 4.82-17.035 4.755-16.95 4.668-16.808 4.574-16.621 4.469-16.387 4.351-16.101 4.219-15.774 4.082-15.398 3.93-14.98 3.773-14.512 3.613-14.012 3.434-13.461 3.258-12.875 3.074-12.25 2.883-11.59 2.691-10.894 2.492-10.168 2.29-9.41 2.093-8.63 1.887-7.812 1.684-6.98 1.48-6.125 1.281-5.25 1.078-4.356.883-3.457.688-2.539.5-1.613.308-.688.133.246-.047 1.184-.215 2.11-.379 3.034-.535 3.957-.683 4.86-.828 5.758-.957 6.636-1.086 7.496-1.2 8.34-1.308 9.153-1.406 9.949-1.497 10.71-1.578 11.442-1.648 12.149-1.711 12.812-1.766 13.445-1.804 14.04-1.844 14.593-1.867L199.383 397l15.574-1.895 16-1.894 16.379-1.89 16.707-1.872 16.996-1.851 17.234-1.825 17.418-1.785 17.555-1.746 17.645-1.695 17.68-1.645 17.663-1.59 17.602-1.523 17.484-1.46 17.32-1.392 17.106-1.32 16.84-1.25 16.523-1.172 16.168-1.093 15.758-1.016 15.309-.941 14.808-.864 14.27-.785 13.691-.71 13.074-.638 12.41-.566 11.723-.5 10.992-.434 10.235-.37 9.45-.31 8.632-.261 7.789-.207 6.93-.164 6.043-.125 5.148-.086 4.227-.063 3.304-.035 2.367-.02 1.422-.007zm0 0" fill-rule="evenodd" fill="#fff" xmlns="http://www.w3.org/2000/svg"/></svg>